G04 #@! TF.FileFunction,Soldermask,Top*
%FSLAX46Y46*%
G04 Gerber Fmt 4.6, Leading zero omitted, Abs format (unit mm)*
G04 Created by KiCad (PCBNEW (2015-01-29 BZR 5396)-product) date 3/24/2015 8:40:59 PM*
%MOMM*%
G01*
G04 APERTURE LIST*
%ADD10C,0.100000*%
%ADD11R,1.500000X1.250000*%
%ADD12R,1.198880X1.198880*%
%ADD13R,2.032000X2.032000*%
%ADD14O,2.032000X2.032000*%
%ADD15R,2.600000X0.500000*%
%ADD16R,3.400000X1.500000*%
%ADD17R,1.500000X1.300000*%
%ADD18R,1.300000X1.500000*%
%ADD19R,0.950000X0.330000*%
%ADD20C,5.500000*%
%ADD21O,1.600000X1.600000*%
%ADD22R,1.350000X0.400000*%
%ADD23R,1.400000X1.600000*%
G04 APERTURE END LIST*
D10*
D11*
X90860000Y-76700000D03*
X88360000Y-76700000D03*
X107460000Y-75420000D03*
X109960000Y-75420000D03*
D12*
X91680980Y-88350000D03*
X93779020Y-88350000D03*
X91740980Y-79320000D03*
X93839020Y-79320000D03*
D13*
X92190000Y-92540000D03*
D14*
X89650000Y-92540000D03*
D15*
X111065000Y-84967500D03*
X111065000Y-82967500D03*
D16*
X116165000Y-87317500D03*
X116165000Y-80617500D03*
D17*
X104490000Y-87560000D03*
X107190000Y-87560000D03*
X95450000Y-84840000D03*
X92750000Y-84840000D03*
X95330000Y-81990000D03*
X92630000Y-81990000D03*
D18*
X101460000Y-91760000D03*
X101460000Y-89060000D03*
D17*
X101000000Y-86400000D03*
X98300000Y-86400000D03*
X89190000Y-80690000D03*
X86490000Y-80690000D03*
X89170000Y-83120000D03*
X86470000Y-83120000D03*
X89220000Y-85520000D03*
X86520000Y-85520000D03*
D19*
X97670000Y-80935000D03*
X97670000Y-81435000D03*
X97670000Y-81935000D03*
X97670000Y-82435000D03*
X97670000Y-82935000D03*
X101620000Y-82935000D03*
X101620000Y-82435000D03*
X101620000Y-81935000D03*
X101620000Y-81435000D03*
X101620000Y-80935000D03*
D12*
X109970000Y-89589020D03*
X109970000Y-87490980D03*
D20*
X115315000Y-76135000D03*
X115315000Y-91795000D03*
X81335000Y-76135000D03*
X81335000Y-91785000D03*
D17*
X104350000Y-78740000D03*
X107050000Y-78740000D03*
X104490000Y-84710000D03*
X107190000Y-84710000D03*
D13*
X105690000Y-81460000D03*
D14*
X108230000Y-81460000D03*
D21*
X80865000Y-87215000D03*
X80865000Y-80615000D03*
D22*
X83540000Y-85215000D03*
X83540000Y-84565000D03*
X83540000Y-83915000D03*
X83540000Y-83265000D03*
X83540000Y-82615000D03*
D23*
X83315000Y-80715000D03*
X83315000Y-87115000D03*
M02*
