G04 #@! TF.FileFunction,Legend,Bot*
%FSLAX46Y46*%
G04 Gerber Fmt 4.6, Leading zero omitted, Abs format (unit mm)*
G04 Created by KiCad (PCBNEW (2015-01-29 BZR 5396)-product) date 3/24/2015 8:40:59 PM*
%MOMM*%
G01*
G04 APERTURE LIST*
%ADD10C,0.100000*%
%ADD11C,0.075000*%
%ADD12C,0.200000*%
%ADD13C,0.150000*%
%ADD14R,2.032000X2.032000*%
%ADD15O,2.032000X2.032000*%
%ADD16C,5.500000*%
%ADD17O,1.600000X1.600000*%
G04 APERTURE END LIST*
D10*
D11*
X83057382Y-93765952D02*
X83057382Y-94415952D01*
X83335953Y-93765952D02*
X83335953Y-94106429D01*
X83305001Y-94168333D01*
X83243096Y-94199286D01*
X83150239Y-94199286D01*
X83088334Y-94168333D01*
X83057382Y-94137381D01*
X83552620Y-94199286D02*
X83800239Y-94199286D01*
X83645477Y-94415952D02*
X83645477Y-93858810D01*
X83676429Y-93796905D01*
X83738334Y-93765952D01*
X83800239Y-93765952D01*
X83924049Y-94199286D02*
X84171668Y-94199286D01*
X84016906Y-94415952D02*
X84016906Y-93858810D01*
X84047858Y-93796905D01*
X84109763Y-93765952D01*
X84171668Y-93765952D01*
X84388335Y-94199286D02*
X84388335Y-93549286D01*
X84388335Y-94168333D02*
X84450240Y-94199286D01*
X84574049Y-94199286D01*
X84635954Y-94168333D01*
X84666906Y-94137381D01*
X84697859Y-94075476D01*
X84697859Y-93889762D01*
X84666906Y-93827857D01*
X84635954Y-93796905D01*
X84574049Y-93765952D01*
X84450240Y-93765952D01*
X84388335Y-93796905D01*
X84945478Y-93796905D02*
X85007382Y-93765952D01*
X85131192Y-93765952D01*
X85193097Y-93796905D01*
X85224049Y-93858810D01*
X85224049Y-93889762D01*
X85193097Y-93951667D01*
X85131192Y-93982619D01*
X85038335Y-93982619D01*
X84976430Y-94013571D01*
X84945478Y-94075476D01*
X84945478Y-94106429D01*
X84976430Y-94168333D01*
X85038335Y-94199286D01*
X85131192Y-94199286D01*
X85193097Y-94168333D01*
X85502620Y-93827857D02*
X85533572Y-93796905D01*
X85502620Y-93765952D01*
X85471668Y-93796905D01*
X85502620Y-93827857D01*
X85502620Y-93765952D01*
X85502620Y-94168333D02*
X85533572Y-94137381D01*
X85502620Y-94106429D01*
X85471668Y-94137381D01*
X85502620Y-94168333D01*
X85502620Y-94106429D01*
X86276430Y-94446905D02*
X85719287Y-93611190D01*
X86957382Y-94446905D02*
X86400239Y-93611190D01*
X87452619Y-94199286D02*
X87452619Y-93673095D01*
X87421667Y-93611190D01*
X87390715Y-93580238D01*
X87328810Y-93549286D01*
X87235953Y-93549286D01*
X87174048Y-93580238D01*
X87452619Y-93796905D02*
X87390715Y-93765952D01*
X87266905Y-93765952D01*
X87205000Y-93796905D01*
X87174048Y-93827857D01*
X87143096Y-93889762D01*
X87143096Y-94075476D01*
X87174048Y-94137381D01*
X87205000Y-94168333D01*
X87266905Y-94199286D01*
X87390715Y-94199286D01*
X87452619Y-94168333D01*
X87762143Y-93765952D02*
X87762143Y-94199286D01*
X87762143Y-94415952D02*
X87731191Y-94385000D01*
X87762143Y-94354048D01*
X87793095Y-94385000D01*
X87762143Y-94415952D01*
X87762143Y-94354048D01*
X87978810Y-94199286D02*
X88226429Y-94199286D01*
X88071667Y-94415952D02*
X88071667Y-93858810D01*
X88102619Y-93796905D01*
X88164524Y-93765952D01*
X88226429Y-93765952D01*
X88443096Y-93765952D02*
X88443096Y-94415952D01*
X88721667Y-93765952D02*
X88721667Y-94106429D01*
X88690715Y-94168333D01*
X88628810Y-94199286D01*
X88535953Y-94199286D01*
X88474048Y-94168333D01*
X88443096Y-94137381D01*
X89309762Y-94199286D02*
X89309762Y-93765952D01*
X89031191Y-94199286D02*
X89031191Y-93858810D01*
X89062143Y-93796905D01*
X89124048Y-93765952D01*
X89216905Y-93765952D01*
X89278810Y-93796905D01*
X89309762Y-93827857D01*
X89619286Y-93765952D02*
X89619286Y-94415952D01*
X89619286Y-94168333D02*
X89681191Y-94199286D01*
X89805000Y-94199286D01*
X89866905Y-94168333D01*
X89897857Y-94137381D01*
X89928810Y-94075476D01*
X89928810Y-93889762D01*
X89897857Y-93827857D01*
X89866905Y-93796905D01*
X89805000Y-93765952D01*
X89681191Y-93765952D01*
X89619286Y-93796905D01*
X90207381Y-93827857D02*
X90238333Y-93796905D01*
X90207381Y-93765952D01*
X90176429Y-93796905D01*
X90207381Y-93827857D01*
X90207381Y-93765952D01*
X90795476Y-93796905D02*
X90733572Y-93765952D01*
X90609762Y-93765952D01*
X90547857Y-93796905D01*
X90516905Y-93827857D01*
X90485953Y-93889762D01*
X90485953Y-94075476D01*
X90516905Y-94137381D01*
X90547857Y-94168333D01*
X90609762Y-94199286D01*
X90733572Y-94199286D01*
X90795476Y-94168333D01*
X91166905Y-93765952D02*
X91105000Y-93796905D01*
X91074048Y-93827857D01*
X91043096Y-93889762D01*
X91043096Y-94075476D01*
X91074048Y-94137381D01*
X91105000Y-94168333D01*
X91166905Y-94199286D01*
X91259762Y-94199286D01*
X91321667Y-94168333D01*
X91352619Y-94137381D01*
X91383572Y-94075476D01*
X91383572Y-93889762D01*
X91352619Y-93827857D01*
X91321667Y-93796905D01*
X91259762Y-93765952D01*
X91166905Y-93765952D01*
X91662143Y-93765952D02*
X91662143Y-94199286D01*
X91662143Y-94137381D02*
X91693095Y-94168333D01*
X91755000Y-94199286D01*
X91847857Y-94199286D01*
X91909762Y-94168333D01*
X91940714Y-94106429D01*
X91940714Y-93765952D01*
X91940714Y-94106429D02*
X91971667Y-94168333D01*
X92033571Y-94199286D01*
X92126429Y-94199286D01*
X92188333Y-94168333D01*
X92219286Y-94106429D01*
X92219286Y-93765952D01*
X92993096Y-94446905D02*
X92435953Y-93611190D01*
X93209762Y-93765952D02*
X93209762Y-94415952D01*
X93488333Y-93765952D02*
X93488333Y-94106429D01*
X93457381Y-94168333D01*
X93395476Y-94199286D01*
X93302619Y-94199286D01*
X93240714Y-94168333D01*
X93209762Y-94137381D01*
X94045476Y-93796905D02*
X93983571Y-93765952D01*
X93859762Y-93765952D01*
X93797857Y-93796905D01*
X93766905Y-93858810D01*
X93766905Y-94106429D01*
X93797857Y-94168333D01*
X93859762Y-94199286D01*
X93983571Y-94199286D01*
X94045476Y-94168333D01*
X94076428Y-94106429D01*
X94076428Y-94044524D01*
X93766905Y-93982619D01*
X94633571Y-93765952D02*
X94633571Y-94415952D01*
X94633571Y-93796905D02*
X94571667Y-93765952D01*
X94447857Y-93765952D01*
X94385952Y-93796905D01*
X94355000Y-93827857D01*
X94324048Y-93889762D01*
X94324048Y-94075476D01*
X94355000Y-94137381D01*
X94385952Y-94168333D01*
X94447857Y-94199286D01*
X94571667Y-94199286D01*
X94633571Y-94168333D01*
X94943095Y-93765952D02*
X94943095Y-94199286D01*
X94943095Y-94075476D02*
X94974047Y-94137381D01*
X95005000Y-94168333D01*
X95066904Y-94199286D01*
X95128809Y-94199286D01*
X95345476Y-93765952D02*
X95345476Y-94199286D01*
X95345476Y-94415952D02*
X95314524Y-94385000D01*
X95345476Y-94354048D01*
X95376428Y-94385000D01*
X95345476Y-94415952D01*
X95345476Y-94354048D01*
X95933571Y-93796905D02*
X95871667Y-93765952D01*
X95747857Y-93765952D01*
X95685952Y-93796905D01*
X95655000Y-93827857D01*
X95624048Y-93889762D01*
X95624048Y-94075476D01*
X95655000Y-94137381D01*
X95685952Y-94168333D01*
X95747857Y-94199286D01*
X95871667Y-94199286D01*
X95933571Y-94168333D01*
X96212143Y-93765952D02*
X96212143Y-94415952D01*
X96274048Y-94013571D02*
X96459762Y-93765952D01*
X96459762Y-94199286D02*
X96212143Y-93951667D01*
X96738333Y-93765952D02*
X96738333Y-94415952D01*
X96738333Y-94168333D02*
X96800238Y-94199286D01*
X96924047Y-94199286D01*
X96985952Y-94168333D01*
X97016904Y-94137381D01*
X97047857Y-94075476D01*
X97047857Y-93889762D01*
X97016904Y-93827857D01*
X96985952Y-93796905D01*
X96924047Y-93765952D01*
X96800238Y-93765952D01*
X96738333Y-93796905D01*
X97233571Y-94199286D02*
X97481190Y-94199286D01*
X97326428Y-94415952D02*
X97326428Y-93858810D01*
X97357380Y-93796905D01*
X97419285Y-93765952D01*
X97481190Y-93765952D01*
X98162143Y-94446905D02*
X97605000Y-93611190D01*
X98750237Y-93827857D02*
X98719285Y-93796905D01*
X98626428Y-93765952D01*
X98564523Y-93765952D01*
X98471666Y-93796905D01*
X98409761Y-93858810D01*
X98378809Y-93920714D01*
X98347857Y-94044524D01*
X98347857Y-94137381D01*
X98378809Y-94261190D01*
X98409761Y-94323095D01*
X98471666Y-94385000D01*
X98564523Y-94415952D01*
X98626428Y-94415952D01*
X98719285Y-94385000D01*
X98750237Y-94354048D01*
X99121666Y-93765952D02*
X99059761Y-93796905D01*
X99028809Y-93827857D01*
X98997857Y-93889762D01*
X98997857Y-94075476D01*
X99028809Y-94137381D01*
X99059761Y-94168333D01*
X99121666Y-94199286D01*
X99214523Y-94199286D01*
X99276428Y-94168333D01*
X99307380Y-94137381D01*
X99338333Y-94075476D01*
X99338333Y-93889762D01*
X99307380Y-93827857D01*
X99276428Y-93796905D01*
X99214523Y-93765952D01*
X99121666Y-93765952D01*
X99616904Y-94199286D02*
X99616904Y-93765952D01*
X99616904Y-94137381D02*
X99647856Y-94168333D01*
X99709761Y-94199286D01*
X99802618Y-94199286D01*
X99864523Y-94168333D01*
X99895475Y-94106429D01*
X99895475Y-93765952D01*
X100112142Y-94199286D02*
X100359761Y-94199286D01*
X100204999Y-94415952D02*
X100204999Y-93858810D01*
X100235951Y-93796905D01*
X100297856Y-93765952D01*
X100359761Y-93765952D01*
X100824047Y-93796905D02*
X100762142Y-93765952D01*
X100638333Y-93765952D01*
X100576428Y-93796905D01*
X100545476Y-93858810D01*
X100545476Y-94106429D01*
X100576428Y-94168333D01*
X100638333Y-94199286D01*
X100762142Y-94199286D01*
X100824047Y-94168333D01*
X100854999Y-94106429D01*
X100854999Y-94044524D01*
X100545476Y-93982619D01*
X101071666Y-93765952D02*
X101412142Y-94199286D01*
X101071666Y-94199286D02*
X101412142Y-93765952D01*
X101566904Y-94199286D02*
X101814523Y-94199286D01*
X101659761Y-94415952D02*
X101659761Y-93858810D01*
X101690713Y-93796905D01*
X101752618Y-93765952D01*
X101814523Y-93765952D01*
X102309761Y-94199286D02*
X102309761Y-93765952D01*
X102031190Y-94199286D02*
X102031190Y-93858810D01*
X102062142Y-93796905D01*
X102124047Y-93765952D01*
X102216904Y-93765952D01*
X102278809Y-93796905D01*
X102309761Y-93827857D01*
X102897856Y-93765952D02*
X102897856Y-94106429D01*
X102866904Y-94168333D01*
X102804999Y-94199286D01*
X102681190Y-94199286D01*
X102619285Y-94168333D01*
X102897856Y-93796905D02*
X102835952Y-93765952D01*
X102681190Y-93765952D01*
X102619285Y-93796905D01*
X102588333Y-93858810D01*
X102588333Y-93920714D01*
X102619285Y-93982619D01*
X102681190Y-94013571D01*
X102835952Y-94013571D01*
X102897856Y-94044524D01*
X103300237Y-93765952D02*
X103238332Y-93796905D01*
X103207380Y-93858810D01*
X103207380Y-94415952D01*
X103547856Y-94106429D02*
X103764523Y-94106429D01*
X103857380Y-93765952D02*
X103547856Y-93765952D01*
X103547856Y-94415952D01*
X103857380Y-94415952D01*
X104228808Y-93765952D02*
X104166903Y-93796905D01*
X104135951Y-93858810D01*
X104135951Y-94415952D01*
X104724046Y-93796905D02*
X104662141Y-93765952D01*
X104538332Y-93765952D01*
X104476427Y-93796905D01*
X104445475Y-93858810D01*
X104445475Y-94106429D01*
X104476427Y-94168333D01*
X104538332Y-94199286D01*
X104662141Y-94199286D01*
X104724046Y-94168333D01*
X104754998Y-94106429D01*
X104754998Y-94044524D01*
X104445475Y-93982619D01*
X105312141Y-93796905D02*
X105250237Y-93765952D01*
X105126427Y-93765952D01*
X105064522Y-93796905D01*
X105033570Y-93827857D01*
X105002618Y-93889762D01*
X105002618Y-94075476D01*
X105033570Y-94137381D01*
X105064522Y-94168333D01*
X105126427Y-94199286D01*
X105250237Y-94199286D01*
X105312141Y-94168333D01*
X105497856Y-94199286D02*
X105745475Y-94199286D01*
X105590713Y-94415952D02*
X105590713Y-93858810D01*
X105621665Y-93796905D01*
X105683570Y-93765952D01*
X105745475Y-93765952D01*
X105962142Y-93765952D02*
X105962142Y-94199286D01*
X105962142Y-94075476D02*
X105993094Y-94137381D01*
X106024047Y-94168333D01*
X106085951Y-94199286D01*
X106147856Y-94199286D01*
X106457380Y-93765952D02*
X106395475Y-93796905D01*
X106364523Y-93827857D01*
X106333571Y-93889762D01*
X106333571Y-94075476D01*
X106364523Y-94137381D01*
X106395475Y-94168333D01*
X106457380Y-94199286D01*
X106550237Y-94199286D01*
X106612142Y-94168333D01*
X106643094Y-94137381D01*
X106674047Y-94075476D01*
X106674047Y-93889762D01*
X106643094Y-93827857D01*
X106612142Y-93796905D01*
X106550237Y-93765952D01*
X106457380Y-93765952D01*
X106952618Y-94199286D02*
X106952618Y-93765952D01*
X106952618Y-94137381D02*
X106983570Y-94168333D01*
X107045475Y-94199286D01*
X107138332Y-94199286D01*
X107200237Y-94168333D01*
X107231189Y-94106429D01*
X107231189Y-93765952D01*
X107540713Y-93765952D02*
X107540713Y-94199286D01*
X107540713Y-94415952D02*
X107509761Y-94385000D01*
X107540713Y-94354048D01*
X107571665Y-94385000D01*
X107540713Y-94415952D01*
X107540713Y-94354048D01*
X108128808Y-93796905D02*
X108066904Y-93765952D01*
X107943094Y-93765952D01*
X107881189Y-93796905D01*
X107850237Y-93827857D01*
X107819285Y-93889762D01*
X107819285Y-94075476D01*
X107850237Y-94137381D01*
X107881189Y-94168333D01*
X107943094Y-94199286D01*
X108066904Y-94199286D01*
X108128808Y-94168333D01*
X108376428Y-93796905D02*
X108438332Y-93765952D01*
X108562142Y-93765952D01*
X108624047Y-93796905D01*
X108654999Y-93858810D01*
X108654999Y-93889762D01*
X108624047Y-93951667D01*
X108562142Y-93982619D01*
X108469285Y-93982619D01*
X108407380Y-94013571D01*
X108376428Y-94075476D01*
X108376428Y-94106429D01*
X108407380Y-94168333D01*
X108469285Y-94199286D01*
X108562142Y-94199286D01*
X108624047Y-94168333D01*
X108933570Y-93827857D02*
X108964522Y-93796905D01*
X108933570Y-93765952D01*
X108902618Y-93796905D01*
X108933570Y-93827857D01*
X108933570Y-93765952D01*
X109521665Y-94199286D02*
X109521665Y-93673095D01*
X109490713Y-93611190D01*
X109459761Y-93580238D01*
X109397856Y-93549286D01*
X109304999Y-93549286D01*
X109243094Y-93580238D01*
X109521665Y-93796905D02*
X109459761Y-93765952D01*
X109335951Y-93765952D01*
X109274046Y-93796905D01*
X109243094Y-93827857D01*
X109212142Y-93889762D01*
X109212142Y-94075476D01*
X109243094Y-94137381D01*
X109274046Y-94168333D01*
X109335951Y-94199286D01*
X109459761Y-94199286D01*
X109521665Y-94168333D01*
X109831189Y-93765952D02*
X109831189Y-94199286D01*
X109831189Y-94415952D02*
X109800237Y-94385000D01*
X109831189Y-94354048D01*
X109862141Y-94385000D01*
X109831189Y-94415952D01*
X109831189Y-94354048D01*
X110047856Y-94199286D02*
X110295475Y-94199286D01*
X110140713Y-94415952D02*
X110140713Y-93858810D01*
X110171665Y-93796905D01*
X110233570Y-93765952D01*
X110295475Y-93765952D01*
D12*
X85512859Y-90675714D02*
X85112859Y-90675714D01*
X85112859Y-90047143D02*
X85112859Y-91247143D01*
X85684288Y-91247143D01*
X86655716Y-90847143D02*
X86655716Y-90047143D01*
X86141430Y-90847143D02*
X86141430Y-90218571D01*
X86198573Y-90104286D01*
X86312859Y-90047143D01*
X86484287Y-90047143D01*
X86598573Y-90104286D01*
X86655716Y-90161429D01*
X87398573Y-90047143D02*
X87284287Y-90104286D01*
X87227144Y-90218571D01*
X87227144Y-91247143D01*
X88027144Y-90047143D02*
X87912858Y-90104286D01*
X87855715Y-90218571D01*
X87855715Y-91247143D01*
X89170001Y-90161429D02*
X89112858Y-90104286D01*
X88941429Y-90047143D01*
X88827143Y-90047143D01*
X88655715Y-90104286D01*
X88541429Y-90218571D01*
X88484286Y-90332857D01*
X88427143Y-90561429D01*
X88427143Y-90732857D01*
X88484286Y-90961429D01*
X88541429Y-91075714D01*
X88655715Y-91190000D01*
X88827143Y-91247143D01*
X88941429Y-91247143D01*
X89112858Y-91190000D01*
X89170001Y-91132857D01*
X89684286Y-90047143D02*
X89684286Y-91247143D01*
X90198572Y-90047143D02*
X90198572Y-90675714D01*
X90141429Y-90790000D01*
X90027143Y-90847143D01*
X89855715Y-90847143D01*
X89741429Y-90790000D01*
X89684286Y-90732857D01*
X91284286Y-90047143D02*
X91284286Y-90675714D01*
X91227143Y-90790000D01*
X91112857Y-90847143D01*
X90884286Y-90847143D01*
X90770000Y-90790000D01*
X91284286Y-90104286D02*
X91170000Y-90047143D01*
X90884286Y-90047143D01*
X90770000Y-90104286D01*
X90712857Y-90218571D01*
X90712857Y-90332857D01*
X90770000Y-90447143D01*
X90884286Y-90504286D01*
X91170000Y-90504286D01*
X91284286Y-90561429D01*
X91855714Y-90047143D02*
X91855714Y-90847143D01*
X91855714Y-90618571D02*
X91912857Y-90732857D01*
X91970000Y-90790000D01*
X92084286Y-90847143D01*
X92198571Y-90847143D01*
X93112857Y-90847143D02*
X93112857Y-89875714D01*
X93055714Y-89761429D01*
X92998571Y-89704286D01*
X92884286Y-89647143D01*
X92712857Y-89647143D01*
X92598571Y-89704286D01*
X93112857Y-90104286D02*
X92998571Y-90047143D01*
X92770000Y-90047143D01*
X92655714Y-90104286D01*
X92598571Y-90161429D01*
X92541428Y-90275714D01*
X92541428Y-90618571D01*
X92598571Y-90732857D01*
X92655714Y-90790000D01*
X92770000Y-90847143D01*
X92998571Y-90847143D01*
X93112857Y-90790000D01*
X94141428Y-90104286D02*
X94027142Y-90047143D01*
X93798571Y-90047143D01*
X93684285Y-90104286D01*
X93627142Y-90218571D01*
X93627142Y-90675714D01*
X93684285Y-90790000D01*
X93798571Y-90847143D01*
X94027142Y-90847143D01*
X94141428Y-90790000D01*
X94198571Y-90675714D01*
X94198571Y-90561429D01*
X93627142Y-90447143D01*
X94655713Y-90390000D02*
X95227142Y-90390000D01*
X94541428Y-90047143D02*
X94941428Y-91247143D01*
X95341428Y-90047143D01*
X95741427Y-90047143D02*
X95741427Y-91247143D01*
X96255713Y-90047143D02*
X96255713Y-90675714D01*
X96198570Y-90790000D01*
X96084284Y-90847143D01*
X95912856Y-90847143D01*
X95798570Y-90790000D01*
X95741427Y-90732857D01*
X97284284Y-90104286D02*
X97169998Y-90047143D01*
X96941427Y-90047143D01*
X96827141Y-90104286D01*
X96769998Y-90218571D01*
X96769998Y-90675714D01*
X96827141Y-90790000D01*
X96941427Y-90847143D01*
X97169998Y-90847143D01*
X97284284Y-90790000D01*
X97341427Y-90675714D01*
X97341427Y-90561429D01*
X96769998Y-90447143D01*
X98369998Y-90047143D02*
X98369998Y-90675714D01*
X98312855Y-90790000D01*
X98198569Y-90847143D01*
X97969998Y-90847143D01*
X97855712Y-90790000D01*
X98369998Y-90104286D02*
X98255712Y-90047143D01*
X97969998Y-90047143D01*
X97855712Y-90104286D01*
X97798569Y-90218571D01*
X97798569Y-90332857D01*
X97855712Y-90447143D01*
X97969998Y-90504286D01*
X98255712Y-90504286D01*
X98369998Y-90561429D01*
X99455712Y-90047143D02*
X99455712Y-91247143D01*
X99455712Y-90104286D02*
X99341426Y-90047143D01*
X99112855Y-90047143D01*
X98998569Y-90104286D01*
X98941426Y-90161429D01*
X98884283Y-90275714D01*
X98884283Y-90618571D01*
X98941426Y-90732857D01*
X98998569Y-90790000D01*
X99112855Y-90847143D01*
X99341426Y-90847143D01*
X99455712Y-90790000D01*
X100941426Y-90161429D02*
X100998569Y-90104286D01*
X100941426Y-90047143D01*
X100884283Y-90104286D01*
X100941426Y-90161429D01*
X100941426Y-90047143D01*
X100941426Y-90790000D02*
X100998569Y-90732857D01*
X100941426Y-90675714D01*
X100884283Y-90732857D01*
X100941426Y-90790000D01*
X100941426Y-90675714D01*
X102255713Y-90847143D02*
X102712856Y-90847143D01*
X102427141Y-90047143D02*
X102427141Y-91075714D01*
X102484284Y-91190000D01*
X102598570Y-91247143D01*
X102712856Y-91247143D01*
X103627141Y-90104286D02*
X103512855Y-90047143D01*
X103284284Y-90047143D01*
X103169998Y-90104286D01*
X103112855Y-90161429D01*
X103055712Y-90275714D01*
X103055712Y-90618571D01*
X103112855Y-90732857D01*
X103169998Y-90790000D01*
X103284284Y-90847143D01*
X103512855Y-90847143D01*
X103627141Y-90790000D01*
X104655712Y-90047143D02*
X104655712Y-90675714D01*
X104598569Y-90790000D01*
X104484283Y-90847143D01*
X104255712Y-90847143D01*
X104141426Y-90790000D01*
X104655712Y-90104286D02*
X104541426Y-90047143D01*
X104255712Y-90047143D01*
X104141426Y-90104286D01*
X104084283Y-90218571D01*
X104084283Y-90332857D01*
X104141426Y-90447143D01*
X104255712Y-90504286D01*
X104541426Y-90504286D01*
X104655712Y-90561429D01*
X104941426Y-89932857D02*
X105855712Y-89932857D01*
X106027141Y-90847143D02*
X106312855Y-90047143D01*
X106598569Y-90847143D01*
X107684284Y-90047143D02*
X106998569Y-90047143D01*
X107341427Y-90047143D02*
X107341427Y-91247143D01*
X107227141Y-91075714D01*
X107112855Y-90961429D01*
X106998569Y-90904286D01*
D13*
X111952143Y-74562857D02*
X111999762Y-74515238D01*
X112047381Y-74372381D01*
X112047381Y-74277143D01*
X111999762Y-74134285D01*
X111904524Y-74039047D01*
X111809286Y-73991428D01*
X111618810Y-73943809D01*
X111475952Y-73943809D01*
X111285476Y-73991428D01*
X111190238Y-74039047D01*
X111095000Y-74134285D01*
X111047381Y-74277143D01*
X111047381Y-74372381D01*
X111095000Y-74515238D01*
X111142619Y-74562857D01*
X112047381Y-74991428D02*
X111380714Y-74991428D01*
X111571190Y-74991428D02*
X111475952Y-75039047D01*
X111428333Y-75086666D01*
X111380714Y-75181904D01*
X111380714Y-75277143D01*
X111999762Y-75991429D02*
X112047381Y-75896191D01*
X112047381Y-75705714D01*
X111999762Y-75610476D01*
X111904524Y-75562857D01*
X111523571Y-75562857D01*
X111428333Y-75610476D01*
X111380714Y-75705714D01*
X111380714Y-75896191D01*
X111428333Y-75991429D01*
X111523571Y-76039048D01*
X111618810Y-76039048D01*
X111714048Y-75562857D01*
X112047381Y-76896191D02*
X111523571Y-76896191D01*
X111428333Y-76848572D01*
X111380714Y-76753334D01*
X111380714Y-76562857D01*
X111428333Y-76467619D01*
X111999762Y-76896191D02*
X112047381Y-76800953D01*
X112047381Y-76562857D01*
X111999762Y-76467619D01*
X111904524Y-76420000D01*
X111809286Y-76420000D01*
X111714048Y-76467619D01*
X111666429Y-76562857D01*
X111666429Y-76800953D01*
X111618810Y-76896191D01*
X111380714Y-77229524D02*
X111380714Y-77610476D01*
X111047381Y-77372381D02*
X111904524Y-77372381D01*
X111999762Y-77420000D01*
X112047381Y-77515238D01*
X112047381Y-77610476D01*
X112047381Y-77943810D02*
X111380714Y-77943810D01*
X111047381Y-77943810D02*
X111095000Y-77896191D01*
X111142619Y-77943810D01*
X111095000Y-77991429D01*
X111047381Y-77943810D01*
X111142619Y-77943810D01*
X111380714Y-78324762D02*
X112047381Y-78562857D01*
X111380714Y-78800953D01*
X111999762Y-79562858D02*
X112047381Y-79467620D01*
X112047381Y-79277143D01*
X111999762Y-79181905D01*
X111904524Y-79134286D01*
X111523571Y-79134286D01*
X111428333Y-79181905D01*
X111380714Y-79277143D01*
X111380714Y-79467620D01*
X111428333Y-79562858D01*
X111523571Y-79610477D01*
X111618810Y-79610477D01*
X111714048Y-79134286D01*
X111952143Y-81372382D02*
X111999762Y-81324763D01*
X112047381Y-81181906D01*
X112047381Y-81086668D01*
X111999762Y-80943810D01*
X111904524Y-80848572D01*
X111809286Y-80800953D01*
X111618810Y-80753334D01*
X111475952Y-80753334D01*
X111285476Y-80800953D01*
X111190238Y-80848572D01*
X111095000Y-80943810D01*
X111047381Y-81086668D01*
X111047381Y-81181906D01*
X111095000Y-81324763D01*
X111142619Y-81372382D01*
X112047381Y-81943810D02*
X111999762Y-81848572D01*
X111952143Y-81800953D01*
X111856905Y-81753334D01*
X111571190Y-81753334D01*
X111475952Y-81800953D01*
X111428333Y-81848572D01*
X111380714Y-81943810D01*
X111380714Y-82086668D01*
X111428333Y-82181906D01*
X111475952Y-82229525D01*
X111571190Y-82277144D01*
X111856905Y-82277144D01*
X111952143Y-82229525D01*
X111999762Y-82181906D01*
X112047381Y-82086668D01*
X112047381Y-81943810D01*
X112047381Y-82705715D02*
X111380714Y-82705715D01*
X111475952Y-82705715D02*
X111428333Y-82753334D01*
X111380714Y-82848572D01*
X111380714Y-82991430D01*
X111428333Y-83086668D01*
X111523571Y-83134287D01*
X112047381Y-83134287D01*
X111523571Y-83134287D02*
X111428333Y-83181906D01*
X111380714Y-83277144D01*
X111380714Y-83420001D01*
X111428333Y-83515239D01*
X111523571Y-83562858D01*
X112047381Y-83562858D01*
X112047381Y-84039048D02*
X111380714Y-84039048D01*
X111475952Y-84039048D02*
X111428333Y-84086667D01*
X111380714Y-84181905D01*
X111380714Y-84324763D01*
X111428333Y-84420001D01*
X111523571Y-84467620D01*
X112047381Y-84467620D01*
X111523571Y-84467620D02*
X111428333Y-84515239D01*
X111380714Y-84610477D01*
X111380714Y-84753334D01*
X111428333Y-84848572D01*
X111523571Y-84896191D01*
X112047381Y-84896191D01*
X112047381Y-85515238D02*
X111999762Y-85420000D01*
X111952143Y-85372381D01*
X111856905Y-85324762D01*
X111571190Y-85324762D01*
X111475952Y-85372381D01*
X111428333Y-85420000D01*
X111380714Y-85515238D01*
X111380714Y-85658096D01*
X111428333Y-85753334D01*
X111475952Y-85800953D01*
X111571190Y-85848572D01*
X111856905Y-85848572D01*
X111952143Y-85800953D01*
X111999762Y-85753334D01*
X112047381Y-85658096D01*
X112047381Y-85515238D01*
X111380714Y-86277143D02*
X112047381Y-86277143D01*
X111475952Y-86277143D02*
X111428333Y-86324762D01*
X111380714Y-86420000D01*
X111380714Y-86562858D01*
X111428333Y-86658096D01*
X111523571Y-86705715D01*
X112047381Y-86705715D01*
X111999762Y-87134286D02*
X112047381Y-87229524D01*
X112047381Y-87420000D01*
X111999762Y-87515239D01*
X111904524Y-87562858D01*
X111856905Y-87562858D01*
X111761667Y-87515239D01*
X111714048Y-87420000D01*
X111714048Y-87277143D01*
X111666429Y-87181905D01*
X111571190Y-87134286D01*
X111523571Y-87134286D01*
X111428333Y-87181905D01*
X111380714Y-87277143D01*
X111380714Y-87420000D01*
X111428333Y-87515239D01*
X111952143Y-87991429D02*
X111999762Y-88039048D01*
X112047381Y-87991429D01*
X111999762Y-87943810D01*
X111952143Y-87991429D01*
X112047381Y-87991429D01*
X111428333Y-87991429D02*
X111475952Y-88039048D01*
X111523571Y-87991429D01*
X111475952Y-87943810D01*
X111428333Y-87991429D01*
X111523571Y-87991429D01*
X111952143Y-89800953D02*
X111999762Y-89753334D01*
X112047381Y-89610477D01*
X112047381Y-89515239D01*
X111999762Y-89372381D01*
X111904524Y-89277143D01*
X111809286Y-89229524D01*
X111618810Y-89181905D01*
X111475952Y-89181905D01*
X111285476Y-89229524D01*
X111190238Y-89277143D01*
X111095000Y-89372381D01*
X111047381Y-89515239D01*
X111047381Y-89610477D01*
X111095000Y-89753334D01*
X111142619Y-89800953D01*
X111952143Y-90800953D02*
X111999762Y-90753334D01*
X112047381Y-90610477D01*
X112047381Y-90515239D01*
X111999762Y-90372381D01*
X111904524Y-90277143D01*
X111809286Y-90229524D01*
X111618810Y-90181905D01*
X111475952Y-90181905D01*
X111285476Y-90229524D01*
X111190238Y-90277143D01*
X111095000Y-90372381D01*
X111047381Y-90515239D01*
X111047381Y-90610477D01*
X111095000Y-90753334D01*
X111142619Y-90800953D01*
X111666429Y-91229524D02*
X111666429Y-91991429D01*
X111523571Y-92800953D02*
X111571190Y-92943810D01*
X111618810Y-92991429D01*
X111714048Y-93039048D01*
X111856905Y-93039048D01*
X111952143Y-92991429D01*
X111999762Y-92943810D01*
X112047381Y-92848572D01*
X112047381Y-92467619D01*
X111047381Y-92467619D01*
X111047381Y-92800953D01*
X111095000Y-92896191D01*
X111142619Y-92943810D01*
X111237857Y-92991429D01*
X111333095Y-92991429D01*
X111428333Y-92943810D01*
X111475952Y-92896191D01*
X111523571Y-92800953D01*
X111523571Y-92467619D01*
X111571190Y-93658095D02*
X112047381Y-93658095D01*
X111047381Y-93324762D02*
X111571190Y-93658095D01*
X111047381Y-93991429D01*
X112597381Y-80062857D02*
X112597381Y-80158096D01*
X112645000Y-80253334D01*
X112692619Y-80300953D01*
X112787857Y-80348572D01*
X112978333Y-80396191D01*
X113216429Y-80396191D01*
X113406905Y-80348572D01*
X113502143Y-80300953D01*
X113549762Y-80253334D01*
X113597381Y-80158096D01*
X113597381Y-80062857D01*
X113549762Y-79967619D01*
X113502143Y-79920000D01*
X113406905Y-79872381D01*
X113216429Y-79824762D01*
X112978333Y-79824762D01*
X112787857Y-79872381D01*
X112692619Y-79920000D01*
X112645000Y-79967619D01*
X112597381Y-80062857D01*
X112597381Y-80729524D02*
X112597381Y-81348572D01*
X112978333Y-81015238D01*
X112978333Y-81158096D01*
X113025952Y-81253334D01*
X113073571Y-81300953D01*
X113168810Y-81348572D01*
X113406905Y-81348572D01*
X113502143Y-81300953D01*
X113549762Y-81253334D01*
X113597381Y-81158096D01*
X113597381Y-80872381D01*
X113549762Y-80777143D01*
X113502143Y-80729524D01*
X113502143Y-81777143D02*
X113549762Y-81824762D01*
X113597381Y-81777143D01*
X113549762Y-81729524D01*
X113502143Y-81777143D01*
X113597381Y-81777143D01*
X112692619Y-82205714D02*
X112645000Y-82253333D01*
X112597381Y-82348571D01*
X112597381Y-82586667D01*
X112645000Y-82681905D01*
X112692619Y-82729524D01*
X112787857Y-82777143D01*
X112883095Y-82777143D01*
X113025952Y-82729524D01*
X113597381Y-82158095D01*
X113597381Y-82777143D01*
X112597381Y-83110476D02*
X112597381Y-83729524D01*
X112978333Y-83396190D01*
X112978333Y-83539048D01*
X113025952Y-83634286D01*
X113073571Y-83681905D01*
X113168810Y-83729524D01*
X113406905Y-83729524D01*
X113502143Y-83681905D01*
X113549762Y-83634286D01*
X113597381Y-83539048D01*
X113597381Y-83253333D01*
X113549762Y-83158095D01*
X113502143Y-83110476D01*
X113502143Y-84158095D02*
X113549762Y-84205714D01*
X113597381Y-84158095D01*
X113549762Y-84110476D01*
X113502143Y-84158095D01*
X113597381Y-84158095D01*
X112692619Y-84586666D02*
X112645000Y-84634285D01*
X112597381Y-84729523D01*
X112597381Y-84967619D01*
X112645000Y-85062857D01*
X112692619Y-85110476D01*
X112787857Y-85158095D01*
X112883095Y-85158095D01*
X113025952Y-85110476D01*
X113597381Y-84539047D01*
X113597381Y-85158095D01*
X112597381Y-85777142D02*
X112597381Y-85872381D01*
X112645000Y-85967619D01*
X112692619Y-86015238D01*
X112787857Y-86062857D01*
X112978333Y-86110476D01*
X113216429Y-86110476D01*
X113406905Y-86062857D01*
X113502143Y-86015238D01*
X113549762Y-85967619D01*
X113597381Y-85872381D01*
X113597381Y-85777142D01*
X113549762Y-85681904D01*
X113502143Y-85634285D01*
X113406905Y-85586666D01*
X113216429Y-85539047D01*
X112978333Y-85539047D01*
X112787857Y-85586666D01*
X112692619Y-85634285D01*
X112645000Y-85681904D01*
X112597381Y-85777142D01*
X113597381Y-87062857D02*
X113597381Y-86491428D01*
X113597381Y-86777142D02*
X112597381Y-86777142D01*
X112740238Y-86681904D01*
X112835476Y-86586666D01*
X112883095Y-86491428D01*
X112597381Y-87967619D02*
X112597381Y-87491428D01*
X113073571Y-87443809D01*
X113025952Y-87491428D01*
X112978333Y-87586666D01*
X112978333Y-87824762D01*
X113025952Y-87920000D01*
X113073571Y-87967619D01*
X113168810Y-88015238D01*
X113406905Y-88015238D01*
X113502143Y-87967619D01*
X113549762Y-87920000D01*
X113597381Y-87824762D01*
X113597381Y-87586666D01*
X113549762Y-87491428D01*
X113502143Y-87443809D01*
D12*
X85568572Y-76185714D02*
X85740001Y-76128571D01*
X85797144Y-76071429D01*
X85854287Y-75957143D01*
X85854287Y-75785714D01*
X85797144Y-75671429D01*
X85740001Y-75614286D01*
X85625715Y-75557143D01*
X85168572Y-75557143D01*
X85168572Y-76757143D01*
X85568572Y-76757143D01*
X85682858Y-76700000D01*
X85740001Y-76642857D01*
X85797144Y-76528571D01*
X85797144Y-76414286D01*
X85740001Y-76300000D01*
X85682858Y-76242857D01*
X85568572Y-76185714D01*
X85168572Y-76185714D01*
X86368572Y-75557143D02*
X86368572Y-76357143D01*
X86368572Y-76128571D02*
X86425715Y-76242857D01*
X86482858Y-76300000D01*
X86597144Y-76357143D01*
X86711429Y-76357143D01*
X87282858Y-75557143D02*
X87168572Y-75614286D01*
X87111429Y-75671429D01*
X87054286Y-75785714D01*
X87054286Y-76128571D01*
X87111429Y-76242857D01*
X87168572Y-76300000D01*
X87282858Y-76357143D01*
X87454286Y-76357143D01*
X87568572Y-76300000D01*
X87625715Y-76242857D01*
X87682858Y-76128571D01*
X87682858Y-75785714D01*
X87625715Y-75671429D01*
X87568572Y-75614286D01*
X87454286Y-75557143D01*
X87282858Y-75557143D01*
X88368572Y-75557143D02*
X88254286Y-75614286D01*
X88197143Y-75671429D01*
X88140000Y-75785714D01*
X88140000Y-76128571D01*
X88197143Y-76242857D01*
X88254286Y-76300000D01*
X88368572Y-76357143D01*
X88540000Y-76357143D01*
X88654286Y-76300000D01*
X88711429Y-76242857D01*
X88768572Y-76128571D01*
X88768572Y-75785714D01*
X88711429Y-75671429D01*
X88654286Y-75614286D01*
X88540000Y-75557143D01*
X88368572Y-75557143D01*
X89282857Y-75557143D02*
X89282857Y-76757143D01*
X89397143Y-76014286D02*
X89740000Y-75557143D01*
X89740000Y-76357143D02*
X89282857Y-75900000D01*
X90711429Y-75614286D02*
X90597143Y-75557143D01*
X90368572Y-75557143D01*
X90254286Y-75614286D01*
X90197143Y-75728571D01*
X90197143Y-76185714D01*
X90254286Y-76300000D01*
X90368572Y-76357143D01*
X90597143Y-76357143D01*
X90711429Y-76300000D01*
X90768572Y-76185714D01*
X90768572Y-76071429D01*
X90197143Y-75957143D01*
X92197143Y-75557143D02*
X92197143Y-76757143D01*
X92197143Y-76185714D02*
X92882858Y-76185714D01*
X92882858Y-75557143D02*
X92882858Y-76757143D01*
X93911429Y-75614286D02*
X93797143Y-75557143D01*
X93568572Y-75557143D01*
X93454286Y-75614286D01*
X93397143Y-75728571D01*
X93397143Y-76185714D01*
X93454286Y-76300000D01*
X93568572Y-76357143D01*
X93797143Y-76357143D01*
X93911429Y-76300000D01*
X93968572Y-76185714D01*
X93968572Y-76071429D01*
X93397143Y-75957143D01*
X94997143Y-75557143D02*
X94997143Y-76757143D01*
X94997143Y-75614286D02*
X94882857Y-75557143D01*
X94654286Y-75557143D01*
X94540000Y-75614286D01*
X94482857Y-75671429D01*
X94425714Y-75785714D01*
X94425714Y-76128571D01*
X94482857Y-76242857D01*
X94540000Y-76300000D01*
X94654286Y-76357143D01*
X94882857Y-76357143D01*
X94997143Y-76300000D01*
X95568571Y-75557143D02*
X95568571Y-76357143D01*
X95568571Y-76128571D02*
X95625714Y-76242857D01*
X95682857Y-76300000D01*
X95797143Y-76357143D01*
X95911428Y-76357143D01*
X96311428Y-75557143D02*
X96311428Y-76357143D01*
X96311428Y-76757143D02*
X96254285Y-76700000D01*
X96311428Y-76642857D01*
X96368571Y-76700000D01*
X96311428Y-76757143D01*
X96311428Y-76642857D01*
X97397143Y-75614286D02*
X97282857Y-75557143D01*
X97054286Y-75557143D01*
X96940000Y-75614286D01*
X96882857Y-75671429D01*
X96825714Y-75785714D01*
X96825714Y-76128571D01*
X96882857Y-76242857D01*
X96940000Y-76300000D01*
X97054286Y-76357143D01*
X97282857Y-76357143D01*
X97397143Y-76300000D01*
X97911428Y-75557143D02*
X97911428Y-76757143D01*
X98025714Y-76014286D02*
X98368571Y-75557143D01*
X98368571Y-76357143D02*
X97911428Y-75900000D01*
X84704287Y-73867143D02*
X84704287Y-75067143D01*
X84704287Y-74610000D02*
X84818573Y-74667143D01*
X85047144Y-74667143D01*
X85161430Y-74610000D01*
X85218573Y-74552857D01*
X85275716Y-74438571D01*
X85275716Y-74095714D01*
X85218573Y-73981429D01*
X85161430Y-73924286D01*
X85047144Y-73867143D01*
X84818573Y-73867143D01*
X84704287Y-73924286D01*
X85790001Y-73867143D02*
X85790001Y-74667143D01*
X85790001Y-74438571D02*
X85847144Y-74552857D01*
X85904287Y-74610000D01*
X86018573Y-74667143D01*
X86132858Y-74667143D01*
X86704287Y-73867143D02*
X86590001Y-73924286D01*
X86532858Y-73981429D01*
X86475715Y-74095714D01*
X86475715Y-74438571D01*
X86532858Y-74552857D01*
X86590001Y-74610000D01*
X86704287Y-74667143D01*
X86875715Y-74667143D01*
X86990001Y-74610000D01*
X87047144Y-74552857D01*
X87104287Y-74438571D01*
X87104287Y-74095714D01*
X87047144Y-73981429D01*
X86990001Y-73924286D01*
X86875715Y-73867143D01*
X86704287Y-73867143D01*
X87790001Y-73867143D02*
X87675715Y-73924286D01*
X87618572Y-73981429D01*
X87561429Y-74095714D01*
X87561429Y-74438571D01*
X87618572Y-74552857D01*
X87675715Y-74610000D01*
X87790001Y-74667143D01*
X87961429Y-74667143D01*
X88075715Y-74610000D01*
X88132858Y-74552857D01*
X88190001Y-74438571D01*
X88190001Y-74095714D01*
X88132858Y-73981429D01*
X88075715Y-73924286D01*
X87961429Y-73867143D01*
X87790001Y-73867143D01*
X88704286Y-73867143D02*
X88704286Y-75067143D01*
X88818572Y-74324286D02*
X89161429Y-73867143D01*
X89161429Y-74667143D02*
X88704286Y-74210000D01*
X90132858Y-73924286D02*
X90018572Y-73867143D01*
X89790001Y-73867143D01*
X89675715Y-73924286D01*
X89618572Y-74038571D01*
X89618572Y-74495714D01*
X89675715Y-74610000D01*
X89790001Y-74667143D01*
X90018572Y-74667143D01*
X90132858Y-74610000D01*
X90190001Y-74495714D01*
X90190001Y-74381429D01*
X89618572Y-74267143D01*
X90704286Y-73981429D02*
X90761429Y-73924286D01*
X90704286Y-73867143D01*
X90647143Y-73924286D01*
X90704286Y-73981429D01*
X90704286Y-73867143D01*
X91104287Y-74667143D02*
X91561430Y-74667143D01*
X91275715Y-75067143D02*
X91275715Y-74038571D01*
X91332858Y-73924286D01*
X91447144Y-73867143D01*
X91561430Y-73867143D01*
X91961429Y-73981429D02*
X92018572Y-73924286D01*
X91961429Y-73867143D01*
X91904286Y-73924286D01*
X91961429Y-73981429D01*
X91961429Y-73867143D01*
X92532858Y-73867143D02*
X92532858Y-75067143D01*
X93047144Y-73867143D02*
X93047144Y-74495714D01*
X92990001Y-74610000D01*
X92875715Y-74667143D01*
X92704287Y-74667143D01*
X92590001Y-74610000D01*
X92532858Y-74552857D01*
X94075715Y-73924286D02*
X93961429Y-73867143D01*
X93732858Y-73867143D01*
X93618572Y-73924286D01*
X93561429Y-74038571D01*
X93561429Y-74495714D01*
X93618572Y-74610000D01*
X93732858Y-74667143D01*
X93961429Y-74667143D01*
X94075715Y-74610000D01*
X94132858Y-74495714D01*
X94132858Y-74381429D01*
X93561429Y-74267143D01*
X95161429Y-73867143D02*
X95161429Y-75067143D01*
X95161429Y-73924286D02*
X95047143Y-73867143D01*
X94818572Y-73867143D01*
X94704286Y-73924286D01*
X94647143Y-73981429D01*
X94590000Y-74095714D01*
X94590000Y-74438571D01*
X94647143Y-74552857D01*
X94704286Y-74610000D01*
X94818572Y-74667143D01*
X95047143Y-74667143D01*
X95161429Y-74610000D01*
X95732857Y-73867143D02*
X95732857Y-74667143D01*
X95732857Y-74438571D02*
X95790000Y-74552857D01*
X95847143Y-74610000D01*
X95961429Y-74667143D01*
X96075714Y-74667143D01*
X96475714Y-73867143D02*
X96475714Y-74667143D01*
X96475714Y-75067143D02*
X96418571Y-75010000D01*
X96475714Y-74952857D01*
X96532857Y-75010000D01*
X96475714Y-75067143D01*
X96475714Y-74952857D01*
X97561429Y-73924286D02*
X97447143Y-73867143D01*
X97218572Y-73867143D01*
X97104286Y-73924286D01*
X97047143Y-73981429D01*
X96990000Y-74095714D01*
X96990000Y-74438571D01*
X97047143Y-74552857D01*
X97104286Y-74610000D01*
X97218572Y-74667143D01*
X97447143Y-74667143D01*
X97561429Y-74610000D01*
X98075714Y-73867143D02*
X98075714Y-75067143D01*
X98190000Y-74324286D02*
X98532857Y-73867143D01*
X98532857Y-74667143D02*
X98075714Y-74210000D01*
X99790000Y-74438571D02*
X99732858Y-74495714D01*
X99618572Y-74552857D01*
X99504286Y-74552857D01*
X99390000Y-74495714D01*
X99332858Y-74438571D01*
X99275715Y-74324286D01*
X99275715Y-74210000D01*
X99332858Y-74095714D01*
X99390000Y-74038571D01*
X99504286Y-73981429D01*
X99618572Y-73981429D01*
X99732858Y-74038571D01*
X99790000Y-74095714D01*
X99790000Y-74552857D02*
X99790000Y-74095714D01*
X99847143Y-74038571D01*
X99904286Y-74038571D01*
X100018572Y-74095714D01*
X100075715Y-74210000D01*
X100075715Y-74495714D01*
X99961429Y-74667143D01*
X99790000Y-74781429D01*
X99561429Y-74838571D01*
X99332858Y-74781429D01*
X99161429Y-74667143D01*
X99047143Y-74495714D01*
X98990000Y-74267143D01*
X99047143Y-74038571D01*
X99161429Y-73867143D01*
X99332858Y-73752857D01*
X99561429Y-73695714D01*
X99790000Y-73752857D01*
X99961429Y-73867143D01*
X101104286Y-74667143D02*
X101104286Y-73695714D01*
X101047143Y-73581429D01*
X100990000Y-73524286D01*
X100875715Y-73467143D01*
X100704286Y-73467143D01*
X100590000Y-73524286D01*
X101104286Y-73924286D02*
X100990000Y-73867143D01*
X100761429Y-73867143D01*
X100647143Y-73924286D01*
X100590000Y-73981429D01*
X100532857Y-74095714D01*
X100532857Y-74438571D01*
X100590000Y-74552857D01*
X100647143Y-74610000D01*
X100761429Y-74667143D01*
X100990000Y-74667143D01*
X101104286Y-74610000D01*
X101675714Y-73867143D02*
X101675714Y-74667143D01*
X101675714Y-74552857D02*
X101732857Y-74610000D01*
X101847143Y-74667143D01*
X102018571Y-74667143D01*
X102132857Y-74610000D01*
X102190000Y-74495714D01*
X102190000Y-73867143D01*
X102190000Y-74495714D02*
X102247143Y-74610000D01*
X102361429Y-74667143D01*
X102532857Y-74667143D01*
X102647143Y-74610000D01*
X102704286Y-74495714D01*
X102704286Y-73867143D01*
X103790000Y-73867143D02*
X103790000Y-74495714D01*
X103732857Y-74610000D01*
X103618571Y-74667143D01*
X103390000Y-74667143D01*
X103275714Y-74610000D01*
X103790000Y-73924286D02*
X103675714Y-73867143D01*
X103390000Y-73867143D01*
X103275714Y-73924286D01*
X103218571Y-74038571D01*
X103218571Y-74152857D01*
X103275714Y-74267143D01*
X103390000Y-74324286D01*
X103675714Y-74324286D01*
X103790000Y-74381429D01*
X104361428Y-73867143D02*
X104361428Y-74667143D01*
X104361428Y-75067143D02*
X104304285Y-75010000D01*
X104361428Y-74952857D01*
X104418571Y-75010000D01*
X104361428Y-75067143D01*
X104361428Y-74952857D01*
X105104286Y-73867143D02*
X104990000Y-73924286D01*
X104932857Y-74038571D01*
X104932857Y-75067143D01*
X105561428Y-73981429D02*
X105618571Y-73924286D01*
X105561428Y-73867143D01*
X105504285Y-73924286D01*
X105561428Y-73981429D01*
X105561428Y-73867143D01*
X106647143Y-73924286D02*
X106532857Y-73867143D01*
X106304286Y-73867143D01*
X106190000Y-73924286D01*
X106132857Y-73981429D01*
X106075714Y-74095714D01*
X106075714Y-74438571D01*
X106132857Y-74552857D01*
X106190000Y-74610000D01*
X106304286Y-74667143D01*
X106532857Y-74667143D01*
X106647143Y-74610000D01*
X107332857Y-73867143D02*
X107218571Y-73924286D01*
X107161428Y-73981429D01*
X107104285Y-74095714D01*
X107104285Y-74438571D01*
X107161428Y-74552857D01*
X107218571Y-74610000D01*
X107332857Y-74667143D01*
X107504285Y-74667143D01*
X107618571Y-74610000D01*
X107675714Y-74552857D01*
X107732857Y-74438571D01*
X107732857Y-74095714D01*
X107675714Y-73981429D01*
X107618571Y-73924286D01*
X107504285Y-73867143D01*
X107332857Y-73867143D01*
X108247142Y-73867143D02*
X108247142Y-74667143D01*
X108247142Y-74552857D02*
X108304285Y-74610000D01*
X108418571Y-74667143D01*
X108589999Y-74667143D01*
X108704285Y-74610000D01*
X108761428Y-74495714D01*
X108761428Y-73867143D01*
X108761428Y-74495714D02*
X108818571Y-74610000D01*
X108932857Y-74667143D01*
X109104285Y-74667143D01*
X109218571Y-74610000D01*
X109275714Y-74495714D01*
X109275714Y-73867143D01*
%LPC*%
D14*
X92190000Y-92540000D03*
D15*
X89650000Y-92540000D03*
D16*
X115315000Y-76135000D03*
X115315000Y-91795000D03*
X81335000Y-76135000D03*
X81335000Y-91785000D03*
D14*
X105690000Y-81460000D03*
D15*
X108230000Y-81460000D03*
D17*
X80865000Y-87215000D03*
X80865000Y-80615000D03*
M02*
