G04 #@! TF.FileFunction,Copper,L2,Bot,Signal*
%FSLAX46Y46*%
G04 Gerber Fmt 4.6, Leading zero omitted, Abs format (unit mm)*
G04 Created by KiCad (PCBNEW (2015-01-29 BZR 5396)-product) date 3/24/2015 12:04:56 AM*
%MOMM*%
G01*
G04 APERTURE LIST*
%ADD10C,0.100000*%
%ADD11R,2.032000X2.032000*%
%ADD12O,2.032000X2.032000*%
%ADD13O,1.600000X0.900000*%
%ADD14C,5.500000*%
%ADD15C,0.686000*%
%ADD16C,0.610000*%
%ADD17C,0.152000*%
G04 APERTURE END LIST*
D10*
D11*
X92190000Y-92540000D03*
D12*
X89650000Y-92540000D03*
D13*
X80865000Y-87215000D03*
X80865000Y-80615000D03*
D14*
X115315000Y-76135000D03*
X115315000Y-91795000D03*
X81335000Y-76135000D03*
X81335000Y-91785000D03*
D11*
X105690000Y-81460000D03*
D12*
X108230000Y-81460000D03*
D15*
X99020000Y-88050000D03*
X108940000Y-86160000D03*
X81470000Y-85860000D03*
X78940000Y-86030000D03*
X79130000Y-84120000D03*
X81380000Y-84160000D03*
X81380000Y-82140000D03*
X79170000Y-81920000D03*
X79340000Y-88190000D03*
X85180000Y-88450000D03*
X86790000Y-87630000D03*
X89000000Y-87630000D03*
X87100000Y-89190000D03*
X85380000Y-90260000D03*
X85570000Y-93080000D03*
X87400000Y-94030000D03*
X87710000Y-91630000D03*
X89230000Y-89730000D03*
X92350000Y-89950000D03*
X96010000Y-89460000D03*
X99030000Y-84670000D03*
X97540000Y-84230000D03*
X87400000Y-78540000D03*
X89020000Y-79020000D03*
X109350000Y-77140000D03*
X110050000Y-78820000D03*
X109900000Y-80420000D03*
X110080000Y-81880000D03*
X107990000Y-83200000D03*
X105840000Y-76120000D03*
X103940000Y-76120000D03*
X102300000Y-77000000D03*
X102180000Y-79590000D03*
X100700000Y-79590000D03*
X100580000Y-77080000D03*
X100700000Y-74070000D03*
X102150000Y-75130000D03*
X103970000Y-74180000D03*
X105540000Y-74140000D03*
X107800000Y-73780000D03*
X111920000Y-73680000D03*
X111700000Y-78740000D03*
X111640000Y-80830000D03*
X113140000Y-80390000D03*
X113300000Y-82670000D03*
X113320000Y-84990000D03*
X108350000Y-89730000D03*
X92480000Y-87030000D03*
X92600000Y-76700000D03*
X93820000Y-77660000D03*
X95600000Y-77890000D03*
X95660000Y-79870000D03*
X97480000Y-79840000D03*
X98940000Y-79840000D03*
X98890000Y-77820000D03*
X98800000Y-75770000D03*
X98720000Y-73810000D03*
X96930000Y-73760000D03*
X97160000Y-75830000D03*
X97220000Y-77850000D03*
X95400000Y-75820000D03*
X95280000Y-73840000D03*
X93510000Y-73820000D03*
X93600000Y-75610000D03*
X91320000Y-73870000D03*
X88830000Y-73810000D03*
X86820000Y-73810000D03*
X84960000Y-74460000D03*
X85310000Y-76430000D03*
X85690000Y-78840000D03*
X84760000Y-79830000D03*
D16*
X107050000Y-88050000D02*
X99020000Y-88050000D01*
X108940000Y-86160000D02*
X107050000Y-88050000D01*
D17*
X78940000Y-84310000D02*
X78940000Y-86030000D01*
X79130000Y-84120000D02*
X78940000Y-84310000D01*
X81380000Y-82140000D02*
X81380000Y-84160000D01*
X80475000Y-80615000D02*
X79170000Y-81920000D01*
X80865000Y-80615000D02*
X80475000Y-80615000D01*
X78940000Y-87790000D02*
X79340000Y-88190000D01*
X85180000Y-88450000D02*
X86000000Y-87630000D01*
X86000000Y-87630000D02*
X86790000Y-87630000D01*
X89000000Y-87630000D02*
X87440000Y-89190000D01*
X87440000Y-89190000D02*
X87100000Y-89190000D01*
X85380000Y-90260000D02*
X85570000Y-90450000D01*
X85570000Y-90450000D02*
X85570000Y-93080000D01*
X87400000Y-94030000D02*
X87710000Y-93720000D01*
X87710000Y-93720000D02*
X87710000Y-91630000D01*
X89230000Y-89730000D02*
X89450000Y-89950000D01*
X89450000Y-89950000D02*
X92350000Y-89950000D01*
X96010000Y-89460000D02*
X96050000Y-89460000D01*
X96050000Y-89460000D02*
X96090000Y-89460000D01*
X78940000Y-86030000D02*
X78940000Y-87790000D01*
X99030000Y-84670000D02*
X98590000Y-84230000D01*
X98590000Y-84230000D02*
X97540000Y-84230000D01*
X87400000Y-78540000D02*
X87880000Y-79020000D01*
X87880000Y-79020000D02*
X89020000Y-79020000D01*
X109350000Y-77140000D02*
X110050000Y-77840000D01*
X110050000Y-77840000D02*
X110050000Y-78820000D01*
X109900000Y-80420000D02*
X110080000Y-80600000D01*
X110080000Y-80600000D02*
X110080000Y-81880000D01*
X107990000Y-83200000D02*
X108010000Y-83200000D01*
X105840000Y-76120000D02*
X103940000Y-76120000D01*
X102300000Y-77000000D02*
X102180000Y-77120000D01*
X102180000Y-77120000D02*
X102180000Y-79590000D01*
X100700000Y-79590000D02*
X100580000Y-79470000D01*
X100580000Y-79470000D02*
X100580000Y-77080000D01*
X100700000Y-74070000D02*
X101760000Y-75130000D01*
X101760000Y-75130000D02*
X102150000Y-75130000D01*
X103970000Y-74180000D02*
X104010000Y-74140000D01*
X104010000Y-74140000D02*
X105540000Y-74140000D01*
X107800000Y-73780000D02*
X107900000Y-73680000D01*
X107900000Y-73680000D02*
X111920000Y-73680000D01*
X111700000Y-78740000D02*
X111640000Y-78800000D01*
X111640000Y-78800000D02*
X111640000Y-80830000D01*
X113140000Y-80390000D02*
X113300000Y-80550000D01*
X113300000Y-80550000D02*
X113300000Y-82670000D01*
D16*
X98210000Y-89730000D02*
X108350000Y-89730000D01*
X95750000Y-87270000D02*
X98210000Y-89730000D01*
X92720000Y-87270000D02*
X95750000Y-87270000D01*
X92480000Y-87030000D02*
X92720000Y-87270000D01*
D17*
X92600000Y-76700000D02*
X93560000Y-77660000D01*
X93560000Y-77660000D02*
X93820000Y-77660000D01*
X95600000Y-77890000D02*
X95660000Y-77950000D01*
X95660000Y-77950000D02*
X95660000Y-79870000D01*
X97480000Y-79840000D02*
X98940000Y-79840000D01*
X98890000Y-77820000D02*
X98800000Y-77730000D01*
X98800000Y-77730000D02*
X98800000Y-75770000D01*
X98720000Y-73810000D02*
X98670000Y-73760000D01*
X98670000Y-73760000D02*
X96930000Y-73760000D01*
X97160000Y-75830000D02*
X97220000Y-75890000D01*
X97220000Y-75890000D02*
X97220000Y-77850000D01*
X95400000Y-75820000D02*
X95280000Y-75700000D01*
X95280000Y-75700000D02*
X95280000Y-73840000D01*
X93510000Y-73820000D02*
X93600000Y-73910000D01*
X93600000Y-73910000D02*
X93600000Y-75610000D01*
X91320000Y-73870000D02*
X91260000Y-73810000D01*
X91260000Y-73810000D02*
X88830000Y-73810000D01*
X86820000Y-73810000D02*
X86170000Y-74460000D01*
X86170000Y-74460000D02*
X84960000Y-74460000D01*
X85310000Y-76430000D02*
X84870000Y-76870000D01*
X84870000Y-76870000D02*
X84870000Y-78020000D01*
X84870000Y-78020000D02*
X85690000Y-78840000D01*
X84760000Y-79830000D02*
X84780000Y-79830000D01*
G36*
X98137962Y-90248670D02*
X97645544Y-90294088D01*
X90800087Y-90467275D01*
X90828304Y-91934592D01*
X90770186Y-91793735D01*
X90399334Y-91421864D01*
X89914402Y-91220219D01*
X89910782Y-91219505D01*
X89701000Y-91277530D01*
X89701000Y-92489000D01*
X89721000Y-92489000D01*
X89721000Y-92591000D01*
X89701000Y-92591000D01*
X89701000Y-93802470D01*
X89910782Y-93860495D01*
X89914402Y-93859781D01*
X90399334Y-93658136D01*
X90770186Y-93286265D01*
X90850552Y-93091486D01*
X90864107Y-93796296D01*
X90990947Y-94657000D01*
X90212296Y-94657000D01*
X89599000Y-94652053D01*
X89599000Y-93802470D01*
X89599000Y-92591000D01*
X89599000Y-92489000D01*
X89599000Y-91277530D01*
X89389218Y-91219505D01*
X89385598Y-91220219D01*
X88900666Y-91421864D01*
X88529814Y-91793735D01*
X88329500Y-92279218D01*
X88387462Y-92489000D01*
X89599000Y-92489000D01*
X89599000Y-92591000D01*
X88387462Y-92591000D01*
X88329500Y-92800782D01*
X88529814Y-93286265D01*
X88900666Y-93658136D01*
X89385598Y-93859781D01*
X89389218Y-93860495D01*
X89599000Y-93802470D01*
X89599000Y-94652053D01*
X84952535Y-94614582D01*
X84672595Y-88665852D01*
X82649860Y-88613540D01*
X81975770Y-88625272D01*
X81975770Y-87387130D01*
X81975770Y-87042870D01*
X81975770Y-80787130D01*
X81975770Y-80442870D01*
X81955143Y-80363625D01*
X81802606Y-80099519D01*
X81560611Y-79913891D01*
X81266000Y-79835000D01*
X80916000Y-79835000D01*
X80916000Y-80564000D01*
X81910633Y-80564000D01*
X81975770Y-80442870D01*
X81975770Y-80787130D01*
X81910633Y-80666000D01*
X80916000Y-80666000D01*
X80916000Y-81395000D01*
X81266000Y-81395000D01*
X81560611Y-81316109D01*
X81802606Y-81130481D01*
X81955143Y-80866375D01*
X81975770Y-80787130D01*
X81975770Y-87042870D01*
X81955143Y-86963625D01*
X81802606Y-86699519D01*
X81560611Y-86513891D01*
X81266000Y-86435000D01*
X80916000Y-86435000D01*
X80916000Y-87164000D01*
X81910633Y-87164000D01*
X81975770Y-87042870D01*
X81975770Y-87387130D01*
X81910633Y-87266000D01*
X80916000Y-87266000D01*
X80916000Y-87995000D01*
X81266000Y-87995000D01*
X81560611Y-87916109D01*
X81802606Y-87730481D01*
X81955143Y-87466375D01*
X81975770Y-87387130D01*
X81975770Y-88625272D01*
X80814000Y-88645492D01*
X80814000Y-87995000D01*
X80814000Y-87266000D01*
X80814000Y-87164000D01*
X80814000Y-86435000D01*
X80814000Y-81395000D01*
X80814000Y-80666000D01*
X80814000Y-80564000D01*
X80814000Y-79835000D01*
X80464000Y-79835000D01*
X80169389Y-79913891D01*
X79927394Y-80099519D01*
X79774857Y-80363625D01*
X79754230Y-80442870D01*
X79819367Y-80564000D01*
X80814000Y-80564000D01*
X80814000Y-80666000D01*
X79819367Y-80666000D01*
X79754230Y-80787130D01*
X79774857Y-80866375D01*
X79927394Y-81130481D01*
X80169389Y-81316109D01*
X80464000Y-81395000D01*
X80814000Y-81395000D01*
X80814000Y-86435000D01*
X80464000Y-86435000D01*
X80169389Y-86513891D01*
X79927394Y-86699519D01*
X79774857Y-86963625D01*
X79754230Y-87042870D01*
X79819367Y-87164000D01*
X80814000Y-87164000D01*
X80814000Y-87266000D01*
X79819367Y-87266000D01*
X79754230Y-87387130D01*
X79774857Y-87466375D01*
X79927394Y-87730481D01*
X80169389Y-87916109D01*
X80464000Y-87995000D01*
X80814000Y-87995000D01*
X80814000Y-88645492D01*
X78443000Y-88686760D01*
X78443000Y-80635972D01*
X78450526Y-79459423D01*
X82088760Y-79382626D01*
X82088628Y-79425427D01*
X83417598Y-79435456D01*
X83520083Y-81531746D01*
X82102274Y-81492287D01*
X82078609Y-85897052D01*
X84787761Y-86022731D01*
X84837831Y-86964051D01*
X87906627Y-87048128D01*
X87845474Y-79393848D01*
X86702870Y-79233483D01*
X86499729Y-75035219D01*
X89397029Y-75006721D01*
X89565880Y-79198187D01*
X90296704Y-79558593D01*
X90403767Y-81394773D01*
X90414009Y-86775008D01*
X90504130Y-87465932D01*
X90555971Y-89432877D01*
X95059421Y-89446236D01*
X94987252Y-87803000D01*
X95529224Y-87803000D01*
X97833112Y-90106888D01*
X98006029Y-90222427D01*
X98006030Y-90222428D01*
X98137962Y-90248670D01*
X98137962Y-90248670D01*
G37*
X98137962Y-90248670D02*
X97645544Y-90294088D01*
X90800087Y-90467275D01*
X90828304Y-91934592D01*
X90770186Y-91793735D01*
X90399334Y-91421864D01*
X89914402Y-91220219D01*
X89910782Y-91219505D01*
X89701000Y-91277530D01*
X89701000Y-92489000D01*
X89721000Y-92489000D01*
X89721000Y-92591000D01*
X89701000Y-92591000D01*
X89701000Y-93802470D01*
X89910782Y-93860495D01*
X89914402Y-93859781D01*
X90399334Y-93658136D01*
X90770186Y-93286265D01*
X90850552Y-93091486D01*
X90864107Y-93796296D01*
X90990947Y-94657000D01*
X90212296Y-94657000D01*
X89599000Y-94652053D01*
X89599000Y-93802470D01*
X89599000Y-92591000D01*
X89599000Y-92489000D01*
X89599000Y-91277530D01*
X89389218Y-91219505D01*
X89385598Y-91220219D01*
X88900666Y-91421864D01*
X88529814Y-91793735D01*
X88329500Y-92279218D01*
X88387462Y-92489000D01*
X89599000Y-92489000D01*
X89599000Y-92591000D01*
X88387462Y-92591000D01*
X88329500Y-92800782D01*
X88529814Y-93286265D01*
X88900666Y-93658136D01*
X89385598Y-93859781D01*
X89389218Y-93860495D01*
X89599000Y-93802470D01*
X89599000Y-94652053D01*
X84952535Y-94614582D01*
X84672595Y-88665852D01*
X82649860Y-88613540D01*
X81975770Y-88625272D01*
X81975770Y-87387130D01*
X81975770Y-87042870D01*
X81975770Y-80787130D01*
X81975770Y-80442870D01*
X81955143Y-80363625D01*
X81802606Y-80099519D01*
X81560611Y-79913891D01*
X81266000Y-79835000D01*
X80916000Y-79835000D01*
X80916000Y-80564000D01*
X81910633Y-80564000D01*
X81975770Y-80442870D01*
X81975770Y-80787130D01*
X81910633Y-80666000D01*
X80916000Y-80666000D01*
X80916000Y-81395000D01*
X81266000Y-81395000D01*
X81560611Y-81316109D01*
X81802606Y-81130481D01*
X81955143Y-80866375D01*
X81975770Y-80787130D01*
X81975770Y-87042870D01*
X81955143Y-86963625D01*
X81802606Y-86699519D01*
X81560611Y-86513891D01*
X81266000Y-86435000D01*
X80916000Y-86435000D01*
X80916000Y-87164000D01*
X81910633Y-87164000D01*
X81975770Y-87042870D01*
X81975770Y-87387130D01*
X81910633Y-87266000D01*
X80916000Y-87266000D01*
X80916000Y-87995000D01*
X81266000Y-87995000D01*
X81560611Y-87916109D01*
X81802606Y-87730481D01*
X81955143Y-87466375D01*
X81975770Y-87387130D01*
X81975770Y-88625272D01*
X80814000Y-88645492D01*
X80814000Y-87995000D01*
X80814000Y-87266000D01*
X80814000Y-87164000D01*
X80814000Y-86435000D01*
X80814000Y-81395000D01*
X80814000Y-80666000D01*
X80814000Y-80564000D01*
X80814000Y-79835000D01*
X80464000Y-79835000D01*
X80169389Y-79913891D01*
X79927394Y-80099519D01*
X79774857Y-80363625D01*
X79754230Y-80442870D01*
X79819367Y-80564000D01*
X80814000Y-80564000D01*
X80814000Y-80666000D01*
X79819367Y-80666000D01*
X79754230Y-80787130D01*
X79774857Y-80866375D01*
X79927394Y-81130481D01*
X80169389Y-81316109D01*
X80464000Y-81395000D01*
X80814000Y-81395000D01*
X80814000Y-86435000D01*
X80464000Y-86435000D01*
X80169389Y-86513891D01*
X79927394Y-86699519D01*
X79774857Y-86963625D01*
X79754230Y-87042870D01*
X79819367Y-87164000D01*
X80814000Y-87164000D01*
X80814000Y-87266000D01*
X79819367Y-87266000D01*
X79754230Y-87387130D01*
X79774857Y-87466375D01*
X79927394Y-87730481D01*
X80169389Y-87916109D01*
X80464000Y-87995000D01*
X80814000Y-87995000D01*
X80814000Y-88645492D01*
X78443000Y-88686760D01*
X78443000Y-80635972D01*
X78450526Y-79459423D01*
X82088760Y-79382626D01*
X82088628Y-79425427D01*
X83417598Y-79435456D01*
X83520083Y-81531746D01*
X82102274Y-81492287D01*
X82078609Y-85897052D01*
X84787761Y-86022731D01*
X84837831Y-86964051D01*
X87906627Y-87048128D01*
X87845474Y-79393848D01*
X86702870Y-79233483D01*
X86499729Y-75035219D01*
X89397029Y-75006721D01*
X89565880Y-79198187D01*
X90296704Y-79558593D01*
X90403767Y-81394773D01*
X90414009Y-86775008D01*
X90504130Y-87465932D01*
X90555971Y-89432877D01*
X95059421Y-89446236D01*
X94987252Y-87803000D01*
X95529224Y-87803000D01*
X97833112Y-90106888D01*
X98006029Y-90222427D01*
X98006030Y-90222428D01*
X98137962Y-90248670D01*
G36*
X99613854Y-89197000D02*
X98430776Y-89197000D01*
X96126888Y-86893112D01*
X95953971Y-86777572D01*
X95750000Y-86737000D01*
X94940434Y-86737000D01*
X94929479Y-86487542D01*
X97003542Y-86527428D01*
X97074015Y-84342746D01*
X96971047Y-82736310D01*
X99436260Y-82745719D01*
X99486234Y-84394404D01*
X99515517Y-84394857D01*
X99613854Y-89197000D01*
X99613854Y-89197000D01*
G37*
X99613854Y-89197000D02*
X98430776Y-89197000D01*
X96126888Y-86893112D01*
X95953971Y-86777572D01*
X95750000Y-86737000D01*
X94940434Y-86737000D01*
X94929479Y-86487542D01*
X97003542Y-86527428D01*
X97074015Y-84342746D01*
X96971047Y-82736310D01*
X99436260Y-82745719D01*
X99486234Y-84394404D01*
X99515517Y-84394857D01*
X99613854Y-89197000D01*
G36*
X99461675Y-81605774D02*
X98402303Y-81630034D01*
X98382474Y-81634000D01*
X98230000Y-81634000D01*
X96646707Y-81634000D01*
X96656703Y-80554432D01*
X94884294Y-80544419D01*
X94834349Y-78356803D01*
X92671664Y-78273622D01*
X92673918Y-80374000D01*
X91355430Y-80374000D01*
X90842449Y-80435912D01*
X90637077Y-79261442D01*
X89915129Y-78826533D01*
X89895964Y-77887484D01*
X89732379Y-74319275D01*
X85939030Y-74558965D01*
X86154141Y-77744646D01*
X86243555Y-79371412D01*
X86243969Y-79374712D01*
X85235200Y-79383090D01*
X85113569Y-80882236D01*
X85191945Y-81440664D01*
X84963007Y-82017986D01*
X84995712Y-82498651D01*
X84669285Y-82814000D01*
X82540003Y-82814000D01*
X82485768Y-82813996D01*
X82476717Y-81855595D01*
X84368535Y-81845586D01*
X84295571Y-79633668D01*
X84220081Y-79420222D01*
X84184253Y-79348564D01*
X84106000Y-78556256D01*
X84106000Y-78144954D01*
X84270944Y-77920856D01*
X84404190Y-77216690D01*
X84697364Y-76094545D01*
X84305658Y-73278000D01*
X97562945Y-73278000D01*
X97761305Y-73279676D01*
X97761234Y-73278575D01*
X97809494Y-73280083D01*
X98443313Y-73285439D01*
X98445232Y-73299950D01*
X99206238Y-73323732D01*
X99461675Y-81605774D01*
X99461675Y-81605774D01*
G37*
X99461675Y-81605774D02*
X98402303Y-81630034D01*
X98382474Y-81634000D01*
X98230000Y-81634000D01*
X96646707Y-81634000D01*
X96656703Y-80554432D01*
X94884294Y-80544419D01*
X94834349Y-78356803D01*
X92671664Y-78273622D01*
X92673918Y-80374000D01*
X91355430Y-80374000D01*
X90842449Y-80435912D01*
X90637077Y-79261442D01*
X89915129Y-78826533D01*
X89895964Y-77887484D01*
X89732379Y-74319275D01*
X85939030Y-74558965D01*
X86154141Y-77744646D01*
X86243555Y-79371412D01*
X86243969Y-79374712D01*
X85235200Y-79383090D01*
X85113569Y-80882236D01*
X85191945Y-81440664D01*
X84963007Y-82017986D01*
X84995712Y-82498651D01*
X84669285Y-82814000D01*
X82540003Y-82814000D01*
X82485768Y-82813996D01*
X82476717Y-81855595D01*
X84368535Y-81845586D01*
X84295571Y-79633668D01*
X84220081Y-79420222D01*
X84184253Y-79348564D01*
X84106000Y-78556256D01*
X84106000Y-78144954D01*
X84270944Y-77920856D01*
X84404190Y-77216690D01*
X84697364Y-76094545D01*
X84305658Y-73278000D01*
X97562945Y-73278000D01*
X97761305Y-73279676D01*
X97761234Y-73278575D01*
X97809494Y-73280083D01*
X98443313Y-73285439D01*
X98445232Y-73299950D01*
X99206238Y-73323732D01*
X99461675Y-81605774D01*
G36*
X113784523Y-85961564D02*
X109448837Y-85896233D01*
X109424353Y-85836977D01*
X109374976Y-85787514D01*
X109366431Y-84266439D01*
X112856330Y-84286439D01*
X112846000Y-81889836D01*
X112846000Y-81391575D01*
X110942053Y-81451385D01*
X111491900Y-74053439D01*
X108404000Y-74074517D01*
X108404000Y-76911003D01*
X103290364Y-76713150D01*
X102762656Y-78331923D01*
X102676396Y-81024000D01*
X102664395Y-81024000D01*
X102681626Y-81584000D01*
X102310830Y-81584000D01*
X100096000Y-81535641D01*
X100096000Y-81089951D01*
X100086096Y-73365106D01*
X107455247Y-73278000D01*
X112580871Y-73278000D01*
X112024871Y-75196203D01*
X111923865Y-76438578D01*
X111984930Y-77832906D01*
X112326355Y-78391601D01*
X113005054Y-79364065D01*
X113704509Y-79869227D01*
X113784523Y-85961564D01*
X113784523Y-85961564D01*
G37*
X113784523Y-85961564D02*
X109448837Y-85896233D01*
X109424353Y-85836977D01*
X109374976Y-85787514D01*
X109366431Y-84266439D01*
X112856330Y-84286439D01*
X112846000Y-81889836D01*
X112846000Y-81391575D01*
X110942053Y-81451385D01*
X111491900Y-74053439D01*
X108404000Y-74074517D01*
X108404000Y-76911003D01*
X103290364Y-76713150D01*
X102762656Y-78331923D01*
X102676396Y-81024000D01*
X102664395Y-81024000D01*
X102681626Y-81584000D01*
X102310830Y-81584000D01*
X100096000Y-81535641D01*
X100096000Y-81089951D01*
X100086096Y-73365106D01*
X107455247Y-73278000D01*
X112580871Y-73278000D01*
X112024871Y-75196203D01*
X111923865Y-76438578D01*
X111984930Y-77832906D01*
X112326355Y-78391601D01*
X113005054Y-79364065D01*
X113704509Y-79869227D01*
X113784523Y-85961564D01*
G36*
X112282107Y-83664755D02*
X109550500Y-83691361D01*
X109550500Y-81720782D01*
X109492538Y-81511000D01*
X108281000Y-81511000D01*
X108281000Y-82722470D01*
X108490782Y-82780495D01*
X108494402Y-82779781D01*
X108979334Y-82578136D01*
X109350186Y-82206265D01*
X109550500Y-81720782D01*
X109550500Y-83691361D01*
X109339922Y-83693413D01*
X109300434Y-83527170D01*
X108342285Y-83501926D01*
X108392401Y-85807277D01*
X105996834Y-85910615D01*
X106025381Y-83179604D01*
X107072059Y-82919962D01*
X107351603Y-82483778D01*
X107355108Y-82452233D01*
X107480666Y-82578136D01*
X107965598Y-82779781D01*
X107969218Y-82780495D01*
X108179000Y-82722470D01*
X108179000Y-81511000D01*
X108159000Y-81511000D01*
X108159000Y-81409000D01*
X108179000Y-81409000D01*
X108179000Y-81389000D01*
X108281000Y-81389000D01*
X108281000Y-81409000D01*
X109492538Y-81409000D01*
X109550500Y-81199218D01*
X109350186Y-80713735D01*
X108979334Y-80341864D01*
X108777981Y-80258137D01*
X108915818Y-80043064D01*
X108796015Y-76269252D01*
X108805979Y-75442184D01*
X108812552Y-75297584D01*
X110850512Y-75341577D01*
X110734539Y-76070606D01*
X110393800Y-79848802D01*
X110528029Y-82141022D01*
X112122042Y-82255624D01*
X112246357Y-82225814D01*
X112282107Y-83664755D01*
X112282107Y-83664755D01*
G37*
X112282107Y-83664755D02*
X109550500Y-83691361D01*
X109550500Y-81720782D01*
X109492538Y-81511000D01*
X108281000Y-81511000D01*
X108281000Y-82722470D01*
X108490782Y-82780495D01*
X108494402Y-82779781D01*
X108979334Y-82578136D01*
X109350186Y-82206265D01*
X109550500Y-81720782D01*
X109550500Y-83691361D01*
X109339922Y-83693413D01*
X109300434Y-83527170D01*
X108342285Y-83501926D01*
X108392401Y-85807277D01*
X105996834Y-85910615D01*
X106025381Y-83179604D01*
X107072059Y-82919962D01*
X107351603Y-82483778D01*
X107355108Y-82452233D01*
X107480666Y-82578136D01*
X107965598Y-82779781D01*
X107969218Y-82780495D01*
X108179000Y-82722470D01*
X108179000Y-81511000D01*
X108159000Y-81511000D01*
X108159000Y-81409000D01*
X108179000Y-81409000D01*
X108179000Y-81389000D01*
X108281000Y-81389000D01*
X108281000Y-81409000D01*
X109492538Y-81409000D01*
X109550500Y-81199218D01*
X109350186Y-80713735D01*
X108979334Y-80341864D01*
X108777981Y-80258137D01*
X108915818Y-80043064D01*
X108796015Y-76269252D01*
X108805979Y-75442184D01*
X108812552Y-75297584D01*
X110850512Y-75341577D01*
X110734539Y-76070606D01*
X110393800Y-79848802D01*
X110528029Y-82141022D01*
X112122042Y-82255624D01*
X112246357Y-82225814D01*
X112282107Y-83664755D01*
M02*
