M48
;DRILL file {kicad (2015-01-29 BZR 5396)-product} date 3/24/2015 7:03:15 PM
;FORMAT={2:4/ absolute / inch / keep zeros}
FMAT,2
INCH,TZ
T1C0.013
T2C0.020
T3C0.040
T4C0.122
%
G90
G05
M72
T1
X031079Y-033870
X031154Y-033118
X031169Y-032252
X031236Y-034720
X032039Y-032339
X032039Y-033134
X032075Y-033803
X033370Y-031429
X033449Y-029315
X033535Y-034823
X033587Y-030091
X033614Y-035535
X033689Y-036646
X033736Y-031039
X034169Y-034500
X034181Y-029059
X034291Y-035114
X034409Y-030921
X034409Y-037020
X034531Y-036075
X034972Y-029059
X035039Y-034500
X035047Y-031110
X035130Y-035327
X035953Y-029083
X036358Y-035413
X036409Y-034264
X036457Y-030197
X036815Y-029063
X036850Y-029768
X036937Y-030575
X037512Y-029071
X037559Y-029850
X037638Y-030665
X037661Y-031445
X037799Y-035220
X038161Y-029039
X038252Y-029854
X038276Y-030650
X038378Y-031433
X038402Y-033161
X038866Y-029059
X038898Y-029831
X038933Y-030638
X038953Y-031433
X038984Y-034665
X038988Y-033335
X039598Y-030346
X039646Y-029161
X039646Y-031335
X040217Y-029579
X040228Y-031335
X040276Y-030315
X040921Y-029969
X040933Y-029205
X041551Y-029189
X041669Y-029969
X042441Y-029047
X042516Y-032756
X042657Y-035327
X042890Y-033921
X043051Y-030370
X043268Y-031661
X043327Y-031031
X043339Y-032236
X043953Y-031823
X043976Y-031000
X044063Y-029008
X044543Y-031650
X044606Y-032547
X044614Y-033461
T3
X035295Y-036433
X036295Y-036433
X041610Y-032071
X042610Y-032071
T4
X032022Y-029974
X032022Y-036136
X045400Y-029974
X045400Y-036140
T2
X031974Y-031738G85X031699Y-031738
G05
X031974Y-034337G85X031699Y-034337
G05
T0
M30
