M48
;DRILL file {kicad (2015-01-29 BZR 5396)-product} date 3/24/2015 8:42:11 PM
;FORMAT={2:4/ absolute / inch / suppress leading zeros}
FMAT,2
INCH,TZ
T1C0.013
T2C0.040
T3C0.047
T4C0.122
%
G90
G05
M72
T1
X31079Y-33870
X31154Y-33118
X31169Y-32252
X31236Y-34720
X32039Y-32339
X32039Y-33134
X32075Y-33803
X33370Y-31429
X33449Y-29315
X33535Y-34823
X33587Y-30091
X33614Y-35535
X33689Y-36646
X33736Y-31039
X34169Y-34500
X34181Y-29059
X34291Y-35114
X34409Y-30921
X34409Y-37020
X34531Y-36075
X34972Y-29059
X35039Y-34500
X35047Y-31110
X35130Y-35327
X35953Y-29083
X36358Y-35413
X36409Y-34264
X36457Y-30197
X36815Y-29063
X36850Y-29768
X36937Y-30575
X37512Y-29071
X37559Y-29850
X37638Y-30665
X37661Y-31445
X37799Y-35220
X38161Y-29039
X38252Y-29854
X38276Y-30650
X38378Y-31433
X38402Y-33161
X38866Y-29059
X38898Y-29831
X38933Y-30638
X38953Y-31433
X38984Y-34665
X38988Y-33335
X39598Y-30346
X39646Y-29161
X39646Y-31335
X40217Y-29579
X40228Y-31335
X40276Y-30315
X40921Y-29969
X40933Y-29205
X41551Y-29189
X41669Y-29969
X42441Y-29047
X42516Y-32756
X42657Y-35327
X42890Y-33921
X43051Y-30370
X43268Y-31661
X43327Y-31031
X43339Y-32236
X43953Y-31823
X43976Y-31000
X44063Y-29008
X44543Y-31650
X44606Y-32547
X44614Y-33461
T2
X35295Y-36433
X36295Y-36433
X41610Y-32071
X42610Y-32071
T3
X31837Y-31738
X31837Y-34337
T4
X32022Y-29974
X32022Y-36136
X45400Y-29974
X45400Y-36140
T0
M30
