<?xml version="1.0" encoding="UTF-8"?>
<svg xmlns="http://www.w3.org/2000/svg" xmlns:xlink="http://www.w3.org/1999/xlink" width="70pt" height="64pt" viewBox="0 0 70 64" version="1.1">
<g id="surface2497">
<path style=" stroke:none;fill-rule:evenodd;fill:rgb(45.098039%,45.098039%,87.058824%);fill-opacity:1;" d="M 3.199219 49.578125 L 10.285156 49.578125 L 10.285156 43.910156 L 3.199219 43.910156 Z M 3.199219 49.578125 "/>
<path style=" stroke:none;fill-rule:evenodd;fill:rgb(45.098039%,45.098039%,87.058824%);fill-opacity:1;" d="M 3.199219 38.238281 L 10.285156 38.238281 L 10.285156 32.570313 L 3.199219 32.570313 Z M 3.199219 38.238281 "/>
<path style=" stroke:none;fill-rule:evenodd;fill:rgb(45.098039%,45.098039%,87.058824%);fill-opacity:1;" d="M 51.671875 61.085938 L 58.757813 61.085938 L 58.757813 55.417969 L 51.671875 55.417969 Z M 51.671875 61.085938 "/>
<path style=" stroke:none;fill-rule:evenodd;fill:rgb(45.098039%,45.098039%,87.058824%);fill-opacity:1;" d="M 51.671875 49.75 L 58.757813 49.75 L 58.757813 44.082031 L 51.671875 44.082031 Z M 51.671875 49.75 "/>
<path style=" stroke:none;fill-rule:evenodd;fill:rgb(45.098039%,45.098039%,87.058824%);fill-opacity:1;" d="M 61.476563 31.75 L 67.144531 31.75 L 67.144531 24.664063 L 61.476563 24.664063 Z M 61.476563 31.75 "/>
<path style=" stroke:none;fill-rule:evenodd;fill:rgb(45.098039%,45.098039%,87.058824%);fill-opacity:1;" d="M 50.140625 31.75 L 55.808594 31.75 L 55.808594 24.664063 L 50.140625 24.664063 Z M 50.140625 31.75 "/>
<path style=" stroke:none;fill-rule:evenodd;fill:rgb(45.098039%,45.098039%,87.058824%);fill-opacity:1;" d="M 50.820313 19.84375 L 57.90625 19.84375 L 57.90625 14.175781 L 50.820313 14.175781 Z M 50.820313 19.84375 "/>
<path style=" stroke:none;fill-rule:evenodd;fill:rgb(45.098039%,45.098039%,87.058824%);fill-opacity:1;" d="M 50.820313 8.503906 L 57.90625 8.503906 L 57.90625 2.835938 L 50.820313 2.835938 Z M 50.820313 8.503906 "/>
<path style=" stroke:none;fill-rule:evenodd;fill:rgb(45.098039%,45.098039%,87.058824%);fill-opacity:1;" d="M 17.257813 30.046875 L 20.941406 30.046875 L 20.941406 25.792969 L 17.257813 25.792969 Z M 17.257813 30.046875 "/>
<path style=" stroke:none;fill-rule:evenodd;fill:rgb(45.098039%,45.098039%,87.058824%);fill-opacity:1;" d="M 17.257813 37.703125 L 20.941406 37.703125 L 20.941406 33.449219 L 17.257813 33.449219 Z M 17.257813 37.703125 "/>
<path style=" stroke:none;fill-rule:evenodd;fill:rgb(45.098039%,45.098039%,87.058824%);fill-opacity:1;" d="M 17.996094 47.679688 L 21.679688 47.679688 L 21.679688 43.425781 L 17.996094 43.425781 Z M 17.996094 47.679688 "/>
<path style=" stroke:none;fill-rule:evenodd;fill:rgb(45.098039%,45.098039%,87.058824%);fill-opacity:1;" d="M 17.996094 55.332031 L 21.679688 55.332031 L 21.679688 51.078125 L 17.996094 51.078125 Z M 17.996094 55.332031 "/>
<path style=" stroke:none;fill-rule:evenodd;fill:rgb(45.098039%,45.098039%,87.058824%);fill-opacity:1;" d="M 42.855469 60.859375 L 47.109375 60.859375 L 47.109375 57.175781 L 42.855469 57.175781 Z M 42.855469 60.859375 "/>
<path style=" stroke:none;fill-rule:evenodd;fill:rgb(45.098039%,45.098039%,87.058824%);fill-opacity:1;" d="M 35.199219 60.859375 L 39.453125 60.859375 L 39.453125 57.175781 L 35.199219 57.175781 Z M 35.199219 60.859375 "/>
<path style=" stroke:none;fill-rule:evenodd;fill:rgb(45.098039%,45.098039%,87.058824%);fill-opacity:1;" d="M 42.542969 16.921875 L 46.796875 16.921875 L 46.796875 13.238281 L 42.542969 13.238281 Z M 42.542969 16.921875 "/>
<path style=" stroke:none;fill-rule:evenodd;fill:rgb(45.098039%,45.098039%,87.058824%);fill-opacity:1;" d="M 34.890625 16.921875 L 39.144531 16.921875 L 39.144531 13.238281 L 34.890625 13.238281 Z M 34.890625 16.921875 "/>
<path style=" stroke:none;fill-rule:evenodd;fill:rgb(45.098039%,45.098039%,87.058824%);fill-opacity:1;" d="M 62.867188 19.304688 L 66.550781 19.304688 L 66.550781 15.050781 L 62.867188 15.050781 Z M 62.867188 19.304688 "/>
<path style=" stroke:none;fill-rule:evenodd;fill:rgb(45.098039%,45.098039%,87.058824%);fill-opacity:1;" d="M 62.867188 11.652344 L 66.550781 11.652344 L 66.550781 7.398438 L 62.867188 7.398438 Z M 62.867188 11.652344 "/>
<path style=" stroke:none;fill-rule:evenodd;fill:rgb(45.098039%,45.098039%,87.058824%);fill-opacity:1;" d="M 27.433594 44.789063 L 31.117188 44.789063 L 31.117188 40.535156 L 27.433594 40.535156 Z M 27.433594 44.789063 "/>
<path style=" stroke:none;fill-rule:evenodd;fill:rgb(45.098039%,45.098039%,87.058824%);fill-opacity:1;" d="M 27.433594 37.132813 L 31.117188 37.132813 L 31.117188 32.878906 L 27.433594 32.878906 Z M 27.433594 37.132813 "/>
<path style=" stroke:none;fill-rule:evenodd;fill:rgb(45.098039%,45.098039%,87.058824%);fill-opacity:1;" d="M 35.003906 27.808594 L 39.257813 27.808594 L 39.257813 24.125 L 35.003906 24.125 Z M 35.003906 27.808594 "/>
<path style=" stroke:none;fill-rule:evenodd;fill:rgb(45.098039%,45.098039%,87.058824%);fill-opacity:1;" d="M 42.65625 27.808594 L 46.910156 27.808594 L 46.910156 24.125 L 42.65625 24.125 Z M 42.65625 27.808594 "/>
<path style=" stroke:none;fill-rule:evenodd;fill:rgb(45.098039%,45.098039%,87.058824%);fill-opacity:1;" d="M 35.425781 53.292969 L 39.679688 53.292969 L 39.679688 49.609375 L 35.425781 49.609375 Z M 35.425781 53.292969 "/>
<path style=" stroke:none;fill-rule:evenodd;fill:rgb(45.098039%,45.098039%,87.058824%);fill-opacity:1;" d="M 43.082031 53.292969 L 47.335938 53.292969 L 47.335938 49.609375 L 43.082031 49.609375 Z M 43.082031 53.292969 "/>
</g>
</svg>
