G04 #@! TF.FileFunction,Legend,Bot*
%FSLAX46Y46*%
G04 Gerber Fmt 4.6, Leading zero omitted, Abs format (unit mm)*
G04 Created by KiCad (PCBNEW 4.0.1-stable) date 2/14/2016 8:13:32 PM*
%MOMM*%
G01*
G04 APERTURE LIST*
%ADD10C,0.100000*%
G04 APERTURE END LIST*
D10*
X157029522Y-116356190D02*
X157267617Y-116356190D01*
X157267617Y-115856190D01*
X156862855Y-116356190D02*
X156862855Y-116022857D01*
X156862855Y-115856190D02*
X156886665Y-115880000D01*
X156862855Y-115903810D01*
X156839046Y-115880000D01*
X156862855Y-115856190D01*
X156862855Y-115903810D01*
X156410475Y-116332381D02*
X156458094Y-116356190D01*
X156553332Y-116356190D01*
X156600951Y-116332381D01*
X156624760Y-116308571D01*
X156648570Y-116260952D01*
X156648570Y-116118095D01*
X156624760Y-116070476D01*
X156600951Y-116046667D01*
X156553332Y-116022857D01*
X156458094Y-116022857D01*
X156410475Y-116046667D01*
X156005713Y-116332381D02*
X156053332Y-116356190D01*
X156148570Y-116356190D01*
X156196189Y-116332381D01*
X156219999Y-116284762D01*
X156219999Y-116094286D01*
X156196189Y-116046667D01*
X156148570Y-116022857D01*
X156053332Y-116022857D01*
X156005713Y-116046667D01*
X155981904Y-116094286D01*
X155981904Y-116141905D01*
X156219999Y-116189524D01*
X155767618Y-116022857D02*
X155767618Y-116356190D01*
X155767618Y-116070476D02*
X155743809Y-116046667D01*
X155696190Y-116022857D01*
X155624761Y-116022857D01*
X155577142Y-116046667D01*
X155553333Y-116094286D01*
X155553333Y-116356190D01*
X155339047Y-116332381D02*
X155291428Y-116356190D01*
X155196190Y-116356190D01*
X155148571Y-116332381D01*
X155124761Y-116284762D01*
X155124761Y-116260952D01*
X155148571Y-116213333D01*
X155196190Y-116189524D01*
X155267618Y-116189524D01*
X155315237Y-116165714D01*
X155339047Y-116118095D01*
X155339047Y-116094286D01*
X155315237Y-116046667D01*
X155267618Y-116022857D01*
X155196190Y-116022857D01*
X155148571Y-116046667D01*
X154719999Y-116332381D02*
X154767618Y-116356190D01*
X154862856Y-116356190D01*
X154910475Y-116332381D01*
X154934285Y-116284762D01*
X154934285Y-116094286D01*
X154910475Y-116046667D01*
X154862856Y-116022857D01*
X154767618Y-116022857D01*
X154719999Y-116046667D01*
X154696190Y-116094286D01*
X154696190Y-116141905D01*
X154934285Y-116189524D01*
X154481904Y-116308571D02*
X154458095Y-116332381D01*
X154481904Y-116356190D01*
X154505714Y-116332381D01*
X154481904Y-116308571D01*
X154481904Y-116356190D01*
X154481904Y-116046667D02*
X154458095Y-116070476D01*
X154481904Y-116094286D01*
X154505714Y-116070476D01*
X154481904Y-116046667D01*
X154481904Y-116094286D01*
X153577143Y-116308571D02*
X153600953Y-116332381D01*
X153672381Y-116356190D01*
X153720000Y-116356190D01*
X153791429Y-116332381D01*
X153839048Y-116284762D01*
X153862857Y-116237143D01*
X153886667Y-116141905D01*
X153886667Y-116070476D01*
X153862857Y-115975238D01*
X153839048Y-115927619D01*
X153791429Y-115880000D01*
X153720000Y-115856190D01*
X153672381Y-115856190D01*
X153600953Y-115880000D01*
X153577143Y-115903810D01*
X153077143Y-116308571D02*
X153100953Y-116332381D01*
X153172381Y-116356190D01*
X153220000Y-116356190D01*
X153291429Y-116332381D01*
X153339048Y-116284762D01*
X153362857Y-116237143D01*
X153386667Y-116141905D01*
X153386667Y-116070476D01*
X153362857Y-115975238D01*
X153339048Y-115927619D01*
X153291429Y-115880000D01*
X153220000Y-115856190D01*
X153172381Y-115856190D01*
X153100953Y-115880000D01*
X153077143Y-115903810D01*
X152696191Y-116094286D02*
X152624762Y-116118095D01*
X152600953Y-116141905D01*
X152577143Y-116189524D01*
X152577143Y-116260952D01*
X152600953Y-116308571D01*
X152624762Y-116332381D01*
X152672381Y-116356190D01*
X152862857Y-116356190D01*
X152862857Y-115856190D01*
X152696191Y-115856190D01*
X152648572Y-115880000D01*
X152624762Y-115903810D01*
X152600953Y-115951429D01*
X152600953Y-115999048D01*
X152624762Y-116046667D01*
X152648572Y-116070476D01*
X152696191Y-116094286D01*
X152862857Y-116094286D01*
X152267619Y-116118095D02*
X152267619Y-116356190D01*
X152434286Y-115856190D02*
X152267619Y-116118095D01*
X152100953Y-115856190D01*
X157049999Y-115366190D02*
X157288094Y-115366190D01*
X157288094Y-114866190D01*
X156811904Y-115366190D02*
X156859523Y-115342381D01*
X156883332Y-115318571D01*
X156907142Y-115270952D01*
X156907142Y-115128095D01*
X156883332Y-115080476D01*
X156859523Y-115056667D01*
X156811904Y-115032857D01*
X156740475Y-115032857D01*
X156692856Y-115056667D01*
X156669047Y-115080476D01*
X156645237Y-115128095D01*
X156645237Y-115270952D01*
X156669047Y-115318571D01*
X156692856Y-115342381D01*
X156740475Y-115366190D01*
X156811904Y-115366190D01*
X156216666Y-115032857D02*
X156216666Y-115366190D01*
X156430951Y-115032857D02*
X156430951Y-115294762D01*
X156407142Y-115342381D01*
X156359523Y-115366190D01*
X156288094Y-115366190D01*
X156240475Y-115342381D01*
X156216666Y-115318571D01*
X155764285Y-115366190D02*
X155764285Y-114866190D01*
X155764285Y-115342381D02*
X155811904Y-115366190D01*
X155907142Y-115366190D01*
X155954761Y-115342381D01*
X155978570Y-115318571D01*
X156002380Y-115270952D01*
X156002380Y-115128095D01*
X155978570Y-115080476D01*
X155954761Y-115056667D01*
X155907142Y-115032857D01*
X155811904Y-115032857D01*
X155764285Y-115056667D01*
X155526189Y-115366190D02*
X155526189Y-114866190D01*
X155359523Y-115223333D01*
X155192856Y-114866190D01*
X155192856Y-115366190D01*
X154883332Y-115366190D02*
X154930951Y-115342381D01*
X154954760Y-115318571D01*
X154978570Y-115270952D01*
X154978570Y-115128095D01*
X154954760Y-115080476D01*
X154930951Y-115056667D01*
X154883332Y-115032857D01*
X154811903Y-115032857D01*
X154764284Y-115056667D01*
X154740475Y-115080476D01*
X154716665Y-115128095D01*
X154716665Y-115270952D01*
X154740475Y-115318571D01*
X154764284Y-115342381D01*
X154811903Y-115366190D01*
X154883332Y-115366190D01*
X154288094Y-115032857D02*
X154288094Y-115366190D01*
X154502379Y-115032857D02*
X154502379Y-115294762D01*
X154478570Y-115342381D01*
X154430951Y-115366190D01*
X154359522Y-115366190D01*
X154311903Y-115342381D01*
X154288094Y-115318571D01*
X154121427Y-115032857D02*
X153930951Y-115032857D01*
X154049998Y-114866190D02*
X154049998Y-115294762D01*
X154026189Y-115342381D01*
X153978570Y-115366190D01*
X153930951Y-115366190D01*
X153764284Y-115366190D02*
X153764284Y-114866190D01*
X153549999Y-115366190D02*
X153549999Y-115104286D01*
X153573808Y-115056667D01*
X153621427Y-115032857D01*
X153692856Y-115032857D01*
X153740475Y-115056667D01*
X153764284Y-115080476D01*
X152978570Y-115032857D02*
X152859523Y-115366190D01*
X152740475Y-115032857D01*
X152288095Y-115366190D02*
X152573809Y-115366190D01*
X152430952Y-115366190D02*
X152430952Y-114866190D01*
X152478571Y-114937619D01*
X152526190Y-114985238D01*
X152573809Y-115009048D01*
X157329046Y-114296190D02*
X157329046Y-113796190D01*
X157329046Y-113986667D02*
X157281427Y-113962857D01*
X157186189Y-113962857D01*
X157138570Y-113986667D01*
X157114761Y-114010476D01*
X157090951Y-114058095D01*
X157090951Y-114200952D01*
X157114761Y-114248571D01*
X157138570Y-114272381D01*
X157186189Y-114296190D01*
X157281427Y-114296190D01*
X157329046Y-114272381D01*
X156876665Y-114296190D02*
X156876665Y-113962857D01*
X156876665Y-114058095D02*
X156852856Y-114010476D01*
X156829046Y-113986667D01*
X156781427Y-113962857D01*
X156733808Y-113962857D01*
X156495713Y-114296190D02*
X156543332Y-114272381D01*
X156567141Y-114248571D01*
X156590951Y-114200952D01*
X156590951Y-114058095D01*
X156567141Y-114010476D01*
X156543332Y-113986667D01*
X156495713Y-113962857D01*
X156424284Y-113962857D01*
X156376665Y-113986667D01*
X156352856Y-114010476D01*
X156329046Y-114058095D01*
X156329046Y-114200952D01*
X156352856Y-114248571D01*
X156376665Y-114272381D01*
X156424284Y-114296190D01*
X156495713Y-114296190D01*
X156043332Y-114296190D02*
X156090951Y-114272381D01*
X156114760Y-114248571D01*
X156138570Y-114200952D01*
X156138570Y-114058095D01*
X156114760Y-114010476D01*
X156090951Y-113986667D01*
X156043332Y-113962857D01*
X155971903Y-113962857D01*
X155924284Y-113986667D01*
X155900475Y-114010476D01*
X155876665Y-114058095D01*
X155876665Y-114200952D01*
X155900475Y-114248571D01*
X155924284Y-114272381D01*
X155971903Y-114296190D01*
X156043332Y-114296190D01*
X155662379Y-114296190D02*
X155662379Y-113796190D01*
X155614760Y-114105714D02*
X155471903Y-114296190D01*
X155471903Y-113962857D02*
X155662379Y-114153333D01*
X155067141Y-114272381D02*
X155114760Y-114296190D01*
X155209998Y-114296190D01*
X155257617Y-114272381D01*
X155281427Y-114224762D01*
X155281427Y-114034286D01*
X155257617Y-113986667D01*
X155209998Y-113962857D01*
X155114760Y-113962857D01*
X155067141Y-113986667D01*
X155043332Y-114034286D01*
X155043332Y-114081905D01*
X155281427Y-114129524D01*
X154829046Y-114248571D02*
X154805237Y-114272381D01*
X154829046Y-114296190D01*
X154852856Y-114272381D01*
X154829046Y-114248571D01*
X154829046Y-114296190D01*
X154662380Y-113962857D02*
X154471904Y-113962857D01*
X154590951Y-113796190D02*
X154590951Y-114224762D01*
X154567142Y-114272381D01*
X154519523Y-114296190D01*
X154471904Y-114296190D01*
X154305237Y-114248571D02*
X154281428Y-114272381D01*
X154305237Y-114296190D01*
X154329047Y-114272381D01*
X154305237Y-114248571D01*
X154305237Y-114296190D01*
X154067142Y-114296190D02*
X154067142Y-113796190D01*
X153852857Y-114296190D02*
X153852857Y-114034286D01*
X153876666Y-113986667D01*
X153924285Y-113962857D01*
X153995714Y-113962857D01*
X154043333Y-113986667D01*
X154067142Y-114010476D01*
X153424285Y-114272381D02*
X153471904Y-114296190D01*
X153567142Y-114296190D01*
X153614761Y-114272381D01*
X153638571Y-114224762D01*
X153638571Y-114034286D01*
X153614761Y-113986667D01*
X153567142Y-113962857D01*
X153471904Y-113962857D01*
X153424285Y-113986667D01*
X153400476Y-114034286D01*
X153400476Y-114081905D01*
X153638571Y-114129524D01*
X152971905Y-114296190D02*
X152971905Y-113796190D01*
X152971905Y-114272381D02*
X153019524Y-114296190D01*
X153114762Y-114296190D01*
X153162381Y-114272381D01*
X153186190Y-114248571D01*
X153210000Y-114200952D01*
X153210000Y-114058095D01*
X153186190Y-114010476D01*
X153162381Y-113986667D01*
X153114762Y-113962857D01*
X153019524Y-113962857D01*
X152971905Y-113986667D01*
X152733809Y-114296190D02*
X152733809Y-113962857D01*
X152733809Y-114058095D02*
X152710000Y-114010476D01*
X152686190Y-113986667D01*
X152638571Y-113962857D01*
X152590952Y-113962857D01*
X152424285Y-114296190D02*
X152424285Y-113962857D01*
X152424285Y-113796190D02*
X152448095Y-113820000D01*
X152424285Y-113843810D01*
X152400476Y-113820000D01*
X152424285Y-113796190D01*
X152424285Y-113843810D01*
X151971905Y-114272381D02*
X152019524Y-114296190D01*
X152114762Y-114296190D01*
X152162381Y-114272381D01*
X152186190Y-114248571D01*
X152210000Y-114200952D01*
X152210000Y-114058095D01*
X152186190Y-114010476D01*
X152162381Y-113986667D01*
X152114762Y-113962857D01*
X152019524Y-113962857D01*
X151971905Y-113986667D01*
X151757619Y-114296190D02*
X151757619Y-113796190D01*
X151710000Y-114105714D02*
X151567143Y-114296190D01*
X151567143Y-113962857D02*
X151757619Y-114153333D01*
X151043334Y-114058095D02*
X151067143Y-114034286D01*
X151114762Y-114010476D01*
X151162381Y-114010476D01*
X151210000Y-114034286D01*
X151233810Y-114058095D01*
X151257619Y-114105714D01*
X151257619Y-114153333D01*
X151233810Y-114200952D01*
X151210000Y-114224762D01*
X151162381Y-114248571D01*
X151114762Y-114248571D01*
X151067143Y-114224762D01*
X151043334Y-114200952D01*
X151043334Y-114010476D02*
X151043334Y-114200952D01*
X151019524Y-114224762D01*
X150995715Y-114224762D01*
X150948095Y-114200952D01*
X150924286Y-114153333D01*
X150924286Y-114034286D01*
X150971905Y-113962857D01*
X151043334Y-113915238D01*
X151138572Y-113891429D01*
X151233810Y-113915238D01*
X151305238Y-113962857D01*
X151352857Y-114034286D01*
X151376667Y-114129524D01*
X151352857Y-114224762D01*
X151305238Y-114296190D01*
X151233810Y-114343810D01*
X151138572Y-114367619D01*
X151043334Y-114343810D01*
X150971905Y-114296190D01*
X150495715Y-113962857D02*
X150495715Y-114367619D01*
X150519524Y-114415238D01*
X150543334Y-114439048D01*
X150590953Y-114462857D01*
X150662381Y-114462857D01*
X150710000Y-114439048D01*
X150495715Y-114272381D02*
X150543334Y-114296190D01*
X150638572Y-114296190D01*
X150686191Y-114272381D01*
X150710000Y-114248571D01*
X150733810Y-114200952D01*
X150733810Y-114058095D01*
X150710000Y-114010476D01*
X150686191Y-113986667D01*
X150638572Y-113962857D01*
X150543334Y-113962857D01*
X150495715Y-113986667D01*
X150257619Y-114296190D02*
X150257619Y-113962857D01*
X150257619Y-114010476D02*
X150233810Y-113986667D01*
X150186191Y-113962857D01*
X150114762Y-113962857D01*
X150067143Y-113986667D01*
X150043334Y-114034286D01*
X150043334Y-114296190D01*
X150043334Y-114034286D02*
X150019524Y-113986667D01*
X149971905Y-113962857D01*
X149900477Y-113962857D01*
X149852857Y-113986667D01*
X149829048Y-114034286D01*
X149829048Y-114296190D01*
X149376667Y-114296190D02*
X149376667Y-114034286D01*
X149400476Y-113986667D01*
X149448095Y-113962857D01*
X149543333Y-113962857D01*
X149590952Y-113986667D01*
X149376667Y-114272381D02*
X149424286Y-114296190D01*
X149543333Y-114296190D01*
X149590952Y-114272381D01*
X149614762Y-114224762D01*
X149614762Y-114177143D01*
X149590952Y-114129524D01*
X149543333Y-114105714D01*
X149424286Y-114105714D01*
X149376667Y-114081905D01*
X149138571Y-114296190D02*
X149138571Y-113962857D01*
X149138571Y-113796190D02*
X149162381Y-113820000D01*
X149138571Y-113843810D01*
X149114762Y-113820000D01*
X149138571Y-113796190D01*
X149138571Y-113843810D01*
X148829048Y-114296190D02*
X148876667Y-114272381D01*
X148900476Y-114224762D01*
X148900476Y-113796190D01*
X148638571Y-114248571D02*
X148614762Y-114272381D01*
X148638571Y-114296190D01*
X148662381Y-114272381D01*
X148638571Y-114248571D01*
X148638571Y-114296190D01*
X148186191Y-114272381D02*
X148233810Y-114296190D01*
X148329048Y-114296190D01*
X148376667Y-114272381D01*
X148400476Y-114248571D01*
X148424286Y-114200952D01*
X148424286Y-114058095D01*
X148400476Y-114010476D01*
X148376667Y-113986667D01*
X148329048Y-113962857D01*
X148233810Y-113962857D01*
X148186191Y-113986667D01*
X147900477Y-114296190D02*
X147948096Y-114272381D01*
X147971905Y-114248571D01*
X147995715Y-114200952D01*
X147995715Y-114058095D01*
X147971905Y-114010476D01*
X147948096Y-113986667D01*
X147900477Y-113962857D01*
X147829048Y-113962857D01*
X147781429Y-113986667D01*
X147757620Y-114010476D01*
X147733810Y-114058095D01*
X147733810Y-114200952D01*
X147757620Y-114248571D01*
X147781429Y-114272381D01*
X147829048Y-114296190D01*
X147900477Y-114296190D01*
X147519524Y-114296190D02*
X147519524Y-113962857D01*
X147519524Y-114010476D02*
X147495715Y-113986667D01*
X147448096Y-113962857D01*
X147376667Y-113962857D01*
X147329048Y-113986667D01*
X147305239Y-114034286D01*
X147305239Y-114296190D01*
X147305239Y-114034286D02*
X147281429Y-113986667D01*
X147233810Y-113962857D01*
X147162382Y-113962857D01*
X147114762Y-113986667D01*
X147090953Y-114034286D01*
X147090953Y-114296190D01*
X157159999Y-112822857D02*
X157159999Y-113227619D01*
X157183808Y-113275238D01*
X157207618Y-113299048D01*
X157255237Y-113322857D01*
X157326665Y-113322857D01*
X157374284Y-113299048D01*
X157159999Y-113132381D02*
X157207618Y-113156190D01*
X157302856Y-113156190D01*
X157350475Y-113132381D01*
X157374284Y-113108571D01*
X157398094Y-113060952D01*
X157398094Y-112918095D01*
X157374284Y-112870476D01*
X157350475Y-112846667D01*
X157302856Y-112822857D01*
X157207618Y-112822857D01*
X157159999Y-112846667D01*
X156921903Y-113156190D02*
X156921903Y-112822857D01*
X156921903Y-112656190D02*
X156945713Y-112680000D01*
X156921903Y-112703810D01*
X156898094Y-112680000D01*
X156921903Y-112656190D01*
X156921903Y-112703810D01*
X156755237Y-112822857D02*
X156564761Y-112822857D01*
X156683808Y-112656190D02*
X156683808Y-113084762D01*
X156659999Y-113132381D01*
X156612380Y-113156190D01*
X156564761Y-113156190D01*
X156398094Y-113156190D02*
X156398094Y-112656190D01*
X156183809Y-113156190D02*
X156183809Y-112894286D01*
X156207618Y-112846667D01*
X156255237Y-112822857D01*
X156326666Y-112822857D01*
X156374285Y-112846667D01*
X156398094Y-112870476D01*
X155731428Y-112822857D02*
X155731428Y-113156190D01*
X155945713Y-112822857D02*
X155945713Y-113084762D01*
X155921904Y-113132381D01*
X155874285Y-113156190D01*
X155802856Y-113156190D01*
X155755237Y-113132381D01*
X155731428Y-113108571D01*
X155493332Y-113156190D02*
X155493332Y-112656190D01*
X155493332Y-112846667D02*
X155445713Y-112822857D01*
X155350475Y-112822857D01*
X155302856Y-112846667D01*
X155279047Y-112870476D01*
X155255237Y-112918095D01*
X155255237Y-113060952D01*
X155279047Y-113108571D01*
X155302856Y-113132381D01*
X155350475Y-113156190D01*
X155445713Y-113156190D01*
X155493332Y-113132381D01*
X154659999Y-113156190D02*
X154659999Y-112656190D01*
X154445714Y-113156190D02*
X154445714Y-112894286D01*
X154469523Y-112846667D01*
X154517142Y-112822857D01*
X154588571Y-112822857D01*
X154636190Y-112846667D01*
X154659999Y-112870476D01*
X154017142Y-113132381D02*
X154064761Y-113156190D01*
X154159999Y-113156190D01*
X154207618Y-113132381D01*
X154231428Y-113084762D01*
X154231428Y-112894286D01*
X154207618Y-112846667D01*
X154159999Y-112822857D01*
X154064761Y-112822857D01*
X154017142Y-112846667D01*
X153993333Y-112894286D01*
X153993333Y-112941905D01*
X154231428Y-112989524D01*
X153564762Y-113156190D02*
X153564762Y-112656190D01*
X153564762Y-113132381D02*
X153612381Y-113156190D01*
X153707619Y-113156190D01*
X153755238Y-113132381D01*
X153779047Y-113108571D01*
X153802857Y-113060952D01*
X153802857Y-112918095D01*
X153779047Y-112870476D01*
X153755238Y-112846667D01*
X153707619Y-112822857D01*
X153612381Y-112822857D01*
X153564762Y-112846667D01*
X153326666Y-113156190D02*
X153326666Y-112822857D01*
X153326666Y-112918095D02*
X153302857Y-112870476D01*
X153279047Y-112846667D01*
X153231428Y-112822857D01*
X153183809Y-112822857D01*
X153017142Y-113156190D02*
X153017142Y-112822857D01*
X153017142Y-112656190D02*
X153040952Y-112680000D01*
X153017142Y-112703810D01*
X152993333Y-112680000D01*
X153017142Y-112656190D01*
X153017142Y-112703810D01*
X152564762Y-113132381D02*
X152612381Y-113156190D01*
X152707619Y-113156190D01*
X152755238Y-113132381D01*
X152779047Y-113108571D01*
X152802857Y-113060952D01*
X152802857Y-112918095D01*
X152779047Y-112870476D01*
X152755238Y-112846667D01*
X152707619Y-112822857D01*
X152612381Y-112822857D01*
X152564762Y-112846667D01*
X152350476Y-113156190D02*
X152350476Y-112656190D01*
X152302857Y-112965714D02*
X152160000Y-113156190D01*
X152160000Y-112822857D02*
X152350476Y-113013333D01*
X151945714Y-113156190D02*
X151945714Y-112656190D01*
X151945714Y-112846667D02*
X151898095Y-112822857D01*
X151802857Y-112822857D01*
X151755238Y-112846667D01*
X151731429Y-112870476D01*
X151707619Y-112918095D01*
X151707619Y-113060952D01*
X151731429Y-113108571D01*
X151755238Y-113132381D01*
X151802857Y-113156190D01*
X151898095Y-113156190D01*
X151945714Y-113132381D01*
X151564762Y-112822857D02*
X151374286Y-112822857D01*
X151493333Y-112656190D02*
X151493333Y-113084762D01*
X151469524Y-113132381D01*
X151421905Y-113156190D01*
X151374286Y-113156190D01*
X150540953Y-113108571D02*
X150564763Y-113132381D01*
X150636191Y-113156190D01*
X150683810Y-113156190D01*
X150755239Y-113132381D01*
X150802858Y-113084762D01*
X150826667Y-113037143D01*
X150850477Y-112941905D01*
X150850477Y-112870476D01*
X150826667Y-112775238D01*
X150802858Y-112727619D01*
X150755239Y-112680000D01*
X150683810Y-112656190D01*
X150636191Y-112656190D01*
X150564763Y-112680000D01*
X150540953Y-112703810D01*
X150255239Y-113156190D02*
X150302858Y-113132381D01*
X150326667Y-113108571D01*
X150350477Y-113060952D01*
X150350477Y-112918095D01*
X150326667Y-112870476D01*
X150302858Y-112846667D01*
X150255239Y-112822857D01*
X150183810Y-112822857D01*
X150136191Y-112846667D01*
X150112382Y-112870476D01*
X150088572Y-112918095D01*
X150088572Y-113060952D01*
X150112382Y-113108571D01*
X150136191Y-113132381D01*
X150183810Y-113156190D01*
X150255239Y-113156190D01*
X149874286Y-112822857D02*
X149874286Y-113156190D01*
X149874286Y-112870476D02*
X149850477Y-112846667D01*
X149802858Y-112822857D01*
X149731429Y-112822857D01*
X149683810Y-112846667D01*
X149660001Y-112894286D01*
X149660001Y-113156190D01*
X149493334Y-112822857D02*
X149302858Y-112822857D01*
X149421905Y-112656190D02*
X149421905Y-113084762D01*
X149398096Y-113132381D01*
X149350477Y-113156190D01*
X149302858Y-113156190D01*
X148945715Y-113132381D02*
X148993334Y-113156190D01*
X149088572Y-113156190D01*
X149136191Y-113132381D01*
X149160001Y-113084762D01*
X149160001Y-112894286D01*
X149136191Y-112846667D01*
X149088572Y-112822857D01*
X148993334Y-112822857D01*
X148945715Y-112846667D01*
X148921906Y-112894286D01*
X148921906Y-112941905D01*
X149160001Y-112989524D01*
X148755239Y-113156190D02*
X148493335Y-112822857D01*
X148755239Y-112822857D02*
X148493335Y-113156190D01*
X148374287Y-112822857D02*
X148183811Y-112822857D01*
X148302858Y-112656190D02*
X148302858Y-113084762D01*
X148279049Y-113132381D01*
X148231430Y-113156190D01*
X148183811Y-113156190D01*
X147802859Y-112822857D02*
X147802859Y-113156190D01*
X148017144Y-112822857D02*
X148017144Y-113084762D01*
X147993335Y-113132381D01*
X147945716Y-113156190D01*
X147874287Y-113156190D01*
X147826668Y-113132381D01*
X147802859Y-113108571D01*
X147350478Y-113156190D02*
X147350478Y-112894286D01*
X147374287Y-112846667D01*
X147421906Y-112822857D01*
X147517144Y-112822857D01*
X147564763Y-112846667D01*
X147350478Y-113132381D02*
X147398097Y-113156190D01*
X147517144Y-113156190D01*
X147564763Y-113132381D01*
X147588573Y-113084762D01*
X147588573Y-113037143D01*
X147564763Y-112989524D01*
X147517144Y-112965714D01*
X147398097Y-112965714D01*
X147350478Y-112941905D01*
X147040954Y-113156190D02*
X147088573Y-113132381D01*
X147112382Y-113084762D01*
X147112382Y-112656190D01*
X146850477Y-112894286D02*
X146683811Y-112894286D01*
X146612382Y-113156190D02*
X146850477Y-113156190D01*
X146850477Y-112656190D01*
X146612382Y-112656190D01*
X146326668Y-113156190D02*
X146374287Y-113132381D01*
X146398096Y-113084762D01*
X146398096Y-112656190D01*
X145945715Y-113132381D02*
X145993334Y-113156190D01*
X146088572Y-113156190D01*
X146136191Y-113132381D01*
X146160001Y-113084762D01*
X146160001Y-112894286D01*
X146136191Y-112846667D01*
X146088572Y-112822857D01*
X145993334Y-112822857D01*
X145945715Y-112846667D01*
X145921906Y-112894286D01*
X145921906Y-112941905D01*
X146160001Y-112989524D01*
X145493335Y-113132381D02*
X145540954Y-113156190D01*
X145636192Y-113156190D01*
X145683811Y-113132381D01*
X145707620Y-113108571D01*
X145731430Y-113060952D01*
X145731430Y-112918095D01*
X145707620Y-112870476D01*
X145683811Y-112846667D01*
X145636192Y-112822857D01*
X145540954Y-112822857D01*
X145493335Y-112846667D01*
X145350478Y-112822857D02*
X145160002Y-112822857D01*
X145279049Y-112656190D02*
X145279049Y-113084762D01*
X145255240Y-113132381D01*
X145207621Y-113156190D01*
X145160002Y-113156190D01*
X144993335Y-113156190D02*
X144993335Y-112822857D01*
X144993335Y-112918095D02*
X144969526Y-112870476D01*
X144945716Y-112846667D01*
X144898097Y-112822857D01*
X144850478Y-112822857D01*
X144612383Y-113156190D02*
X144660002Y-113132381D01*
X144683811Y-113108571D01*
X144707621Y-113060952D01*
X144707621Y-112918095D01*
X144683811Y-112870476D01*
X144660002Y-112846667D01*
X144612383Y-112822857D01*
X144540954Y-112822857D01*
X144493335Y-112846667D01*
X144469526Y-112870476D01*
X144445716Y-112918095D01*
X144445716Y-113060952D01*
X144469526Y-113108571D01*
X144493335Y-113132381D01*
X144540954Y-113156190D01*
X144612383Y-113156190D01*
X144231430Y-112822857D02*
X144231430Y-113156190D01*
X144231430Y-112870476D02*
X144207621Y-112846667D01*
X144160002Y-112822857D01*
X144088573Y-112822857D01*
X144040954Y-112846667D01*
X144017145Y-112894286D01*
X144017145Y-113156190D01*
X143779049Y-113156190D02*
X143779049Y-112822857D01*
X143779049Y-112656190D02*
X143802859Y-112680000D01*
X143779049Y-112703810D01*
X143755240Y-112680000D01*
X143779049Y-112656190D01*
X143779049Y-112703810D01*
X143326669Y-113132381D02*
X143374288Y-113156190D01*
X143469526Y-113156190D01*
X143517145Y-113132381D01*
X143540954Y-113108571D01*
X143564764Y-113060952D01*
X143564764Y-112918095D01*
X143540954Y-112870476D01*
X143517145Y-112846667D01*
X143469526Y-112822857D01*
X143374288Y-112822857D01*
X143326669Y-112846667D01*
X143136193Y-113132381D02*
X143088574Y-113156190D01*
X142993336Y-113156190D01*
X142945717Y-113132381D01*
X142921907Y-113084762D01*
X142921907Y-113060952D01*
X142945717Y-113013333D01*
X142993336Y-112989524D01*
X143064764Y-112989524D01*
X143112383Y-112965714D01*
X143136193Y-112918095D01*
X143136193Y-112894286D01*
X143112383Y-112846667D01*
X143064764Y-112822857D01*
X142993336Y-112822857D01*
X142945717Y-112846667D01*
X142350479Y-112632381D02*
X142779050Y-113275238D01*
X141945716Y-113156190D02*
X142183811Y-113156190D01*
X142183811Y-112656190D01*
X141707621Y-113156190D02*
X141755240Y-113132381D01*
X141779049Y-113108571D01*
X141802859Y-113060952D01*
X141802859Y-112918095D01*
X141779049Y-112870476D01*
X141755240Y-112846667D01*
X141707621Y-112822857D01*
X141636192Y-112822857D01*
X141588573Y-112846667D01*
X141564764Y-112870476D01*
X141540954Y-112918095D01*
X141540954Y-113060952D01*
X141564764Y-113108571D01*
X141588573Y-113132381D01*
X141636192Y-113156190D01*
X141707621Y-113156190D01*
X141112383Y-112822857D02*
X141112383Y-113156190D01*
X141326668Y-112822857D02*
X141326668Y-113084762D01*
X141302859Y-113132381D01*
X141255240Y-113156190D01*
X141183811Y-113156190D01*
X141136192Y-113132381D01*
X141112383Y-113108571D01*
X140660002Y-113156190D02*
X140660002Y-112656190D01*
X140660002Y-113132381D02*
X140707621Y-113156190D01*
X140802859Y-113156190D01*
X140850478Y-113132381D01*
X140874287Y-113108571D01*
X140898097Y-113060952D01*
X140898097Y-112918095D01*
X140874287Y-112870476D01*
X140850478Y-112846667D01*
X140802859Y-112822857D01*
X140707621Y-112822857D01*
X140660002Y-112846667D01*
X140421906Y-113156190D02*
X140421906Y-112656190D01*
X140255240Y-113013333D01*
X140088573Y-112656190D01*
X140088573Y-113156190D01*
X139779049Y-113156190D02*
X139826668Y-113132381D01*
X139850477Y-113108571D01*
X139874287Y-113060952D01*
X139874287Y-112918095D01*
X139850477Y-112870476D01*
X139826668Y-112846667D01*
X139779049Y-112822857D01*
X139707620Y-112822857D01*
X139660001Y-112846667D01*
X139636192Y-112870476D01*
X139612382Y-112918095D01*
X139612382Y-113060952D01*
X139636192Y-113108571D01*
X139660001Y-113132381D01*
X139707620Y-113156190D01*
X139779049Y-113156190D01*
X139183811Y-112822857D02*
X139183811Y-113156190D01*
X139398096Y-112822857D02*
X139398096Y-113084762D01*
X139374287Y-113132381D01*
X139326668Y-113156190D01*
X139255239Y-113156190D01*
X139207620Y-113132381D01*
X139183811Y-113108571D01*
X139017144Y-112822857D02*
X138826668Y-112822857D01*
X138945715Y-112656190D02*
X138945715Y-113084762D01*
X138921906Y-113132381D01*
X138874287Y-113156190D01*
X138826668Y-113156190D01*
X138660001Y-113156190D02*
X138660001Y-112656190D01*
X138445716Y-113156190D02*
X138445716Y-112894286D01*
X138469525Y-112846667D01*
X138517144Y-112822857D01*
X138588573Y-112822857D01*
X138636192Y-112846667D01*
X138660001Y-112870476D01*
M02*
