G04 #@! TF.FileFunction,Copper,L2,Bot,Signal*
%FSLAX46Y46*%
G04 Gerber Fmt 4.6, Leading zero omitted, Abs format (unit mm)*
G04 Created by KiCad (PCBNEW 4.0.1-stable) date 2/14/2016 8:13:32 PM*
%MOMM*%
G01*
G04 APERTURE LIST*
%ADD10C,0.100000*%
%ADD11R,2.032000X2.032000*%
%ADD12O,2.032000X2.032000*%
%ADD13C,1.397000*%
%ADD14C,1.000760*%
%ADD15C,0.685800*%
%ADD16C,0.152400*%
G04 APERTURE END LIST*
D10*
D11*
X140400000Y-104850000D03*
D12*
X140400000Y-102310000D03*
D11*
X164060000Y-110450000D03*
D12*
X164060000Y-112990000D03*
D11*
X164070000Y-102330000D03*
D12*
X164070000Y-104870000D03*
D13*
X147520000Y-103010000D03*
X147540000Y-106100000D03*
X147520000Y-99930000D03*
X156220000Y-109740000D03*
X159550000Y-109610000D03*
D14*
X151460000Y-109780000D03*
X152730000Y-108510000D03*
X152730000Y-111050000D03*
D13*
X143110000Y-99950000D03*
D15*
X143360000Y-114970000D03*
X160610000Y-116690000D03*
X148520000Y-116970000D03*
X159190000Y-103750000D03*
D16*
G36*
X166039800Y-118919800D02*
X138440200Y-118919800D01*
X138440200Y-113250617D01*
X162739268Y-113250617D01*
X162740066Y-113254645D01*
X162941815Y-113739617D01*
X163313798Y-114110467D01*
X163799383Y-114310736D01*
X164009200Y-114252695D01*
X164009200Y-113040800D01*
X164110800Y-113040800D01*
X164110800Y-114252695D01*
X164320617Y-114310736D01*
X164806202Y-114110467D01*
X165178185Y-113739617D01*
X165379934Y-113254645D01*
X165380732Y-113250617D01*
X165322628Y-113040800D01*
X164110800Y-113040800D01*
X164009200Y-113040800D01*
X162797372Y-113040800D01*
X162739268Y-113250617D01*
X138440200Y-113250617D01*
X138440200Y-111214488D01*
X151899276Y-111214488D01*
X152025458Y-111519871D01*
X152258900Y-111753721D01*
X152564063Y-111880435D01*
X152894488Y-111880724D01*
X153199871Y-111754542D01*
X153433721Y-111521100D01*
X153560435Y-111215937D01*
X153560724Y-110885512D01*
X153434542Y-110580129D01*
X153201100Y-110346279D01*
X152895937Y-110219565D01*
X152565512Y-110219276D01*
X152260129Y-110345458D01*
X152026279Y-110578900D01*
X151899565Y-110884063D01*
X151899276Y-111214488D01*
X138440200Y-111214488D01*
X138440200Y-109944488D01*
X150629276Y-109944488D01*
X150755458Y-110249871D01*
X150988900Y-110483721D01*
X151294063Y-110610435D01*
X151624488Y-110610724D01*
X151929871Y-110484542D01*
X152163721Y-110251100D01*
X152290435Y-109945937D01*
X152290436Y-109943723D01*
X155191122Y-109943723D01*
X155347402Y-110321950D01*
X155636528Y-110611581D01*
X156014481Y-110768521D01*
X156423723Y-110768878D01*
X156801950Y-110612598D01*
X157091581Y-110323472D01*
X157248521Y-109945519D01*
X157248635Y-109813723D01*
X158521122Y-109813723D01*
X158677402Y-110191950D01*
X158966528Y-110481581D01*
X159344481Y-110638521D01*
X159753723Y-110638878D01*
X160131950Y-110482598D01*
X160421581Y-110193472D01*
X160578521Y-109815519D01*
X160578853Y-109434000D01*
X162707331Y-109434000D01*
X162707331Y-111466000D01*
X162730356Y-111588365D01*
X162802673Y-111700749D01*
X162913017Y-111776144D01*
X163044000Y-111802669D01*
X163475921Y-111802669D01*
X163313798Y-111869533D01*
X162941815Y-112240383D01*
X162740066Y-112725355D01*
X162739268Y-112729383D01*
X162797372Y-112939200D01*
X164009200Y-112939200D01*
X164009200Y-112919200D01*
X164110800Y-112919200D01*
X164110800Y-112939200D01*
X165322628Y-112939200D01*
X165380732Y-112729383D01*
X165379934Y-112725355D01*
X165178185Y-112240383D01*
X164806202Y-111869533D01*
X164644079Y-111802669D01*
X165076000Y-111802669D01*
X165198365Y-111779644D01*
X165310749Y-111707327D01*
X165386144Y-111596983D01*
X165412669Y-111466000D01*
X165412669Y-109434000D01*
X165389644Y-109311635D01*
X165317327Y-109199251D01*
X165206983Y-109123856D01*
X165076000Y-109097331D01*
X163044000Y-109097331D01*
X162921635Y-109120356D01*
X162809251Y-109192673D01*
X162733856Y-109303017D01*
X162707331Y-109434000D01*
X160578853Y-109434000D01*
X160578878Y-109406277D01*
X160422598Y-109028050D01*
X160133472Y-108738419D01*
X159755519Y-108581479D01*
X159346277Y-108581122D01*
X158968050Y-108737402D01*
X158678419Y-109026528D01*
X158521479Y-109404481D01*
X158521122Y-109813723D01*
X157248635Y-109813723D01*
X157248878Y-109536277D01*
X157092598Y-109158050D01*
X156803472Y-108868419D01*
X156425519Y-108711479D01*
X156016277Y-108711122D01*
X155638050Y-108867402D01*
X155348419Y-109156528D01*
X155191479Y-109534481D01*
X155191122Y-109943723D01*
X152290436Y-109943723D01*
X152290724Y-109615512D01*
X152164542Y-109310129D01*
X151931100Y-109076279D01*
X151625937Y-108949565D01*
X151295512Y-108949276D01*
X150990129Y-109075458D01*
X150756279Y-109308900D01*
X150629565Y-109614063D01*
X150629276Y-109944488D01*
X138440200Y-109944488D01*
X138440200Y-108674488D01*
X151899276Y-108674488D01*
X152025458Y-108979871D01*
X152258900Y-109213721D01*
X152564063Y-109340435D01*
X152894488Y-109340724D01*
X153199871Y-109214542D01*
X153433721Y-108981100D01*
X153560435Y-108675937D01*
X153560724Y-108345512D01*
X153434542Y-108040129D01*
X153201100Y-107806279D01*
X152895937Y-107679565D01*
X152565512Y-107679276D01*
X152260129Y-107805458D01*
X152026279Y-108038900D01*
X151899565Y-108344063D01*
X151899276Y-108674488D01*
X138440200Y-108674488D01*
X138440200Y-106303723D01*
X146511122Y-106303723D01*
X146667402Y-106681950D01*
X146956528Y-106971581D01*
X147334481Y-107128521D01*
X147743723Y-107128878D01*
X148121950Y-106972598D01*
X148411581Y-106683472D01*
X148568521Y-106305519D01*
X148568878Y-105896277D01*
X148412598Y-105518050D01*
X148123472Y-105228419D01*
X147887939Y-105130617D01*
X162749268Y-105130617D01*
X162750066Y-105134645D01*
X162951815Y-105619617D01*
X163323798Y-105990467D01*
X163809383Y-106190736D01*
X164019200Y-106132695D01*
X164019200Y-104920800D01*
X164120800Y-104920800D01*
X164120800Y-106132695D01*
X164330617Y-106190736D01*
X164816202Y-105990467D01*
X165188185Y-105619617D01*
X165389934Y-105134645D01*
X165390732Y-105130617D01*
X165332628Y-104920800D01*
X164120800Y-104920800D01*
X164019200Y-104920800D01*
X162807372Y-104920800D01*
X162749268Y-105130617D01*
X147887939Y-105130617D01*
X147745519Y-105071479D01*
X147336277Y-105071122D01*
X146958050Y-105227402D01*
X146668419Y-105516528D01*
X146511479Y-105894481D01*
X146511122Y-106303723D01*
X138440200Y-106303723D01*
X138440200Y-103834000D01*
X139047331Y-103834000D01*
X139047331Y-105866000D01*
X139070356Y-105988365D01*
X139142673Y-106100749D01*
X139253017Y-106176144D01*
X139384000Y-106202669D01*
X141416000Y-106202669D01*
X141538365Y-106179644D01*
X141650749Y-106107327D01*
X141726144Y-105996983D01*
X141752669Y-105866000D01*
X141752669Y-103834000D01*
X141729644Y-103711635D01*
X141657327Y-103599251D01*
X141546983Y-103523856D01*
X141416000Y-103497331D01*
X140984079Y-103497331D01*
X141146202Y-103430467D01*
X141363608Y-103213723D01*
X146491122Y-103213723D01*
X146647402Y-103591950D01*
X146936528Y-103881581D01*
X147314481Y-104038521D01*
X147723723Y-104038878D01*
X148101950Y-103882598D01*
X148391581Y-103593472D01*
X148548521Y-103215519D01*
X148548878Y-102806277D01*
X148392598Y-102428050D01*
X148103472Y-102138419D01*
X147725519Y-101981479D01*
X147316277Y-101981122D01*
X146938050Y-102137402D01*
X146648419Y-102426528D01*
X146491479Y-102804481D01*
X146491122Y-103213723D01*
X141363608Y-103213723D01*
X141518185Y-103059617D01*
X141719934Y-102574645D01*
X141720732Y-102570617D01*
X141662628Y-102360800D01*
X140450800Y-102360800D01*
X140450800Y-102380800D01*
X140349200Y-102380800D01*
X140349200Y-102360800D01*
X139137372Y-102360800D01*
X139079268Y-102570617D01*
X139080066Y-102574645D01*
X139281815Y-103059617D01*
X139653798Y-103430467D01*
X139815921Y-103497331D01*
X139384000Y-103497331D01*
X139261635Y-103520356D01*
X139149251Y-103592673D01*
X139073856Y-103703017D01*
X139047331Y-103834000D01*
X138440200Y-103834000D01*
X138440200Y-102049383D01*
X139079268Y-102049383D01*
X139137372Y-102259200D01*
X140349200Y-102259200D01*
X140349200Y-101047305D01*
X140450800Y-101047305D01*
X140450800Y-102259200D01*
X141662628Y-102259200D01*
X141720732Y-102049383D01*
X141719934Y-102045355D01*
X141518185Y-101560383D01*
X141271050Y-101314000D01*
X162717331Y-101314000D01*
X162717331Y-103346000D01*
X162740356Y-103468365D01*
X162812673Y-103580749D01*
X162923017Y-103656144D01*
X163054000Y-103682669D01*
X163485921Y-103682669D01*
X163323798Y-103749533D01*
X162951815Y-104120383D01*
X162750066Y-104605355D01*
X162749268Y-104609383D01*
X162807372Y-104819200D01*
X164019200Y-104819200D01*
X164019200Y-104799200D01*
X164120800Y-104799200D01*
X164120800Y-104819200D01*
X165332628Y-104819200D01*
X165390732Y-104609383D01*
X165389934Y-104605355D01*
X165188185Y-104120383D01*
X164816202Y-103749533D01*
X164654079Y-103682669D01*
X165086000Y-103682669D01*
X165208365Y-103659644D01*
X165320749Y-103587327D01*
X165396144Y-103476983D01*
X165422669Y-103346000D01*
X165422669Y-101314000D01*
X165399644Y-101191635D01*
X165327327Y-101079251D01*
X165216983Y-101003856D01*
X165086000Y-100977331D01*
X163054000Y-100977331D01*
X162931635Y-101000356D01*
X162819251Y-101072673D01*
X162743856Y-101183017D01*
X162717331Y-101314000D01*
X141271050Y-101314000D01*
X141146202Y-101189533D01*
X140660617Y-100989264D01*
X140450800Y-101047305D01*
X140349200Y-101047305D01*
X140139383Y-100989264D01*
X139653798Y-101189533D01*
X139281815Y-101560383D01*
X139080066Y-102045355D01*
X139079268Y-102049383D01*
X138440200Y-102049383D01*
X138440200Y-100153723D01*
X142081122Y-100153723D01*
X142237402Y-100531950D01*
X142526528Y-100821581D01*
X142904481Y-100978521D01*
X143313723Y-100978878D01*
X143691950Y-100822598D01*
X143981581Y-100533472D01*
X144138521Y-100155519D01*
X144138540Y-100133723D01*
X146491122Y-100133723D01*
X146647402Y-100511950D01*
X146936528Y-100801581D01*
X147314481Y-100958521D01*
X147723723Y-100958878D01*
X148101950Y-100802598D01*
X148391581Y-100513472D01*
X148548521Y-100135519D01*
X148548878Y-99726277D01*
X148392598Y-99348050D01*
X148103472Y-99058419D01*
X147725519Y-98901479D01*
X147316277Y-98901122D01*
X146938050Y-99057402D01*
X146648419Y-99346528D01*
X146491479Y-99724481D01*
X146491122Y-100133723D01*
X144138540Y-100133723D01*
X144138878Y-99746277D01*
X143982598Y-99368050D01*
X143693472Y-99078419D01*
X143315519Y-98921479D01*
X142906277Y-98921122D01*
X142528050Y-99077402D01*
X142238419Y-99366528D01*
X142081479Y-99744481D01*
X142081122Y-100153723D01*
X138440200Y-100153723D01*
X138440200Y-95950200D01*
X166039800Y-95950200D01*
X166039800Y-118919800D01*
X166039800Y-118919800D01*
G37*
X166039800Y-118919800D02*
X138440200Y-118919800D01*
X138440200Y-113250617D01*
X162739268Y-113250617D01*
X162740066Y-113254645D01*
X162941815Y-113739617D01*
X163313798Y-114110467D01*
X163799383Y-114310736D01*
X164009200Y-114252695D01*
X164009200Y-113040800D01*
X164110800Y-113040800D01*
X164110800Y-114252695D01*
X164320617Y-114310736D01*
X164806202Y-114110467D01*
X165178185Y-113739617D01*
X165379934Y-113254645D01*
X165380732Y-113250617D01*
X165322628Y-113040800D01*
X164110800Y-113040800D01*
X164009200Y-113040800D01*
X162797372Y-113040800D01*
X162739268Y-113250617D01*
X138440200Y-113250617D01*
X138440200Y-111214488D01*
X151899276Y-111214488D01*
X152025458Y-111519871D01*
X152258900Y-111753721D01*
X152564063Y-111880435D01*
X152894488Y-111880724D01*
X153199871Y-111754542D01*
X153433721Y-111521100D01*
X153560435Y-111215937D01*
X153560724Y-110885512D01*
X153434542Y-110580129D01*
X153201100Y-110346279D01*
X152895937Y-110219565D01*
X152565512Y-110219276D01*
X152260129Y-110345458D01*
X152026279Y-110578900D01*
X151899565Y-110884063D01*
X151899276Y-111214488D01*
X138440200Y-111214488D01*
X138440200Y-109944488D01*
X150629276Y-109944488D01*
X150755458Y-110249871D01*
X150988900Y-110483721D01*
X151294063Y-110610435D01*
X151624488Y-110610724D01*
X151929871Y-110484542D01*
X152163721Y-110251100D01*
X152290435Y-109945937D01*
X152290436Y-109943723D01*
X155191122Y-109943723D01*
X155347402Y-110321950D01*
X155636528Y-110611581D01*
X156014481Y-110768521D01*
X156423723Y-110768878D01*
X156801950Y-110612598D01*
X157091581Y-110323472D01*
X157248521Y-109945519D01*
X157248635Y-109813723D01*
X158521122Y-109813723D01*
X158677402Y-110191950D01*
X158966528Y-110481581D01*
X159344481Y-110638521D01*
X159753723Y-110638878D01*
X160131950Y-110482598D01*
X160421581Y-110193472D01*
X160578521Y-109815519D01*
X160578853Y-109434000D01*
X162707331Y-109434000D01*
X162707331Y-111466000D01*
X162730356Y-111588365D01*
X162802673Y-111700749D01*
X162913017Y-111776144D01*
X163044000Y-111802669D01*
X163475921Y-111802669D01*
X163313798Y-111869533D01*
X162941815Y-112240383D01*
X162740066Y-112725355D01*
X162739268Y-112729383D01*
X162797372Y-112939200D01*
X164009200Y-112939200D01*
X164009200Y-112919200D01*
X164110800Y-112919200D01*
X164110800Y-112939200D01*
X165322628Y-112939200D01*
X165380732Y-112729383D01*
X165379934Y-112725355D01*
X165178185Y-112240383D01*
X164806202Y-111869533D01*
X164644079Y-111802669D01*
X165076000Y-111802669D01*
X165198365Y-111779644D01*
X165310749Y-111707327D01*
X165386144Y-111596983D01*
X165412669Y-111466000D01*
X165412669Y-109434000D01*
X165389644Y-109311635D01*
X165317327Y-109199251D01*
X165206983Y-109123856D01*
X165076000Y-109097331D01*
X163044000Y-109097331D01*
X162921635Y-109120356D01*
X162809251Y-109192673D01*
X162733856Y-109303017D01*
X162707331Y-109434000D01*
X160578853Y-109434000D01*
X160578878Y-109406277D01*
X160422598Y-109028050D01*
X160133472Y-108738419D01*
X159755519Y-108581479D01*
X159346277Y-108581122D01*
X158968050Y-108737402D01*
X158678419Y-109026528D01*
X158521479Y-109404481D01*
X158521122Y-109813723D01*
X157248635Y-109813723D01*
X157248878Y-109536277D01*
X157092598Y-109158050D01*
X156803472Y-108868419D01*
X156425519Y-108711479D01*
X156016277Y-108711122D01*
X155638050Y-108867402D01*
X155348419Y-109156528D01*
X155191479Y-109534481D01*
X155191122Y-109943723D01*
X152290436Y-109943723D01*
X152290724Y-109615512D01*
X152164542Y-109310129D01*
X151931100Y-109076279D01*
X151625937Y-108949565D01*
X151295512Y-108949276D01*
X150990129Y-109075458D01*
X150756279Y-109308900D01*
X150629565Y-109614063D01*
X150629276Y-109944488D01*
X138440200Y-109944488D01*
X138440200Y-108674488D01*
X151899276Y-108674488D01*
X152025458Y-108979871D01*
X152258900Y-109213721D01*
X152564063Y-109340435D01*
X152894488Y-109340724D01*
X153199871Y-109214542D01*
X153433721Y-108981100D01*
X153560435Y-108675937D01*
X153560724Y-108345512D01*
X153434542Y-108040129D01*
X153201100Y-107806279D01*
X152895937Y-107679565D01*
X152565512Y-107679276D01*
X152260129Y-107805458D01*
X152026279Y-108038900D01*
X151899565Y-108344063D01*
X151899276Y-108674488D01*
X138440200Y-108674488D01*
X138440200Y-106303723D01*
X146511122Y-106303723D01*
X146667402Y-106681950D01*
X146956528Y-106971581D01*
X147334481Y-107128521D01*
X147743723Y-107128878D01*
X148121950Y-106972598D01*
X148411581Y-106683472D01*
X148568521Y-106305519D01*
X148568878Y-105896277D01*
X148412598Y-105518050D01*
X148123472Y-105228419D01*
X147887939Y-105130617D01*
X162749268Y-105130617D01*
X162750066Y-105134645D01*
X162951815Y-105619617D01*
X163323798Y-105990467D01*
X163809383Y-106190736D01*
X164019200Y-106132695D01*
X164019200Y-104920800D01*
X164120800Y-104920800D01*
X164120800Y-106132695D01*
X164330617Y-106190736D01*
X164816202Y-105990467D01*
X165188185Y-105619617D01*
X165389934Y-105134645D01*
X165390732Y-105130617D01*
X165332628Y-104920800D01*
X164120800Y-104920800D01*
X164019200Y-104920800D01*
X162807372Y-104920800D01*
X162749268Y-105130617D01*
X147887939Y-105130617D01*
X147745519Y-105071479D01*
X147336277Y-105071122D01*
X146958050Y-105227402D01*
X146668419Y-105516528D01*
X146511479Y-105894481D01*
X146511122Y-106303723D01*
X138440200Y-106303723D01*
X138440200Y-103834000D01*
X139047331Y-103834000D01*
X139047331Y-105866000D01*
X139070356Y-105988365D01*
X139142673Y-106100749D01*
X139253017Y-106176144D01*
X139384000Y-106202669D01*
X141416000Y-106202669D01*
X141538365Y-106179644D01*
X141650749Y-106107327D01*
X141726144Y-105996983D01*
X141752669Y-105866000D01*
X141752669Y-103834000D01*
X141729644Y-103711635D01*
X141657327Y-103599251D01*
X141546983Y-103523856D01*
X141416000Y-103497331D01*
X140984079Y-103497331D01*
X141146202Y-103430467D01*
X141363608Y-103213723D01*
X146491122Y-103213723D01*
X146647402Y-103591950D01*
X146936528Y-103881581D01*
X147314481Y-104038521D01*
X147723723Y-104038878D01*
X148101950Y-103882598D01*
X148391581Y-103593472D01*
X148548521Y-103215519D01*
X148548878Y-102806277D01*
X148392598Y-102428050D01*
X148103472Y-102138419D01*
X147725519Y-101981479D01*
X147316277Y-101981122D01*
X146938050Y-102137402D01*
X146648419Y-102426528D01*
X146491479Y-102804481D01*
X146491122Y-103213723D01*
X141363608Y-103213723D01*
X141518185Y-103059617D01*
X141719934Y-102574645D01*
X141720732Y-102570617D01*
X141662628Y-102360800D01*
X140450800Y-102360800D01*
X140450800Y-102380800D01*
X140349200Y-102380800D01*
X140349200Y-102360800D01*
X139137372Y-102360800D01*
X139079268Y-102570617D01*
X139080066Y-102574645D01*
X139281815Y-103059617D01*
X139653798Y-103430467D01*
X139815921Y-103497331D01*
X139384000Y-103497331D01*
X139261635Y-103520356D01*
X139149251Y-103592673D01*
X139073856Y-103703017D01*
X139047331Y-103834000D01*
X138440200Y-103834000D01*
X138440200Y-102049383D01*
X139079268Y-102049383D01*
X139137372Y-102259200D01*
X140349200Y-102259200D01*
X140349200Y-101047305D01*
X140450800Y-101047305D01*
X140450800Y-102259200D01*
X141662628Y-102259200D01*
X141720732Y-102049383D01*
X141719934Y-102045355D01*
X141518185Y-101560383D01*
X141271050Y-101314000D01*
X162717331Y-101314000D01*
X162717331Y-103346000D01*
X162740356Y-103468365D01*
X162812673Y-103580749D01*
X162923017Y-103656144D01*
X163054000Y-103682669D01*
X163485921Y-103682669D01*
X163323798Y-103749533D01*
X162951815Y-104120383D01*
X162750066Y-104605355D01*
X162749268Y-104609383D01*
X162807372Y-104819200D01*
X164019200Y-104819200D01*
X164019200Y-104799200D01*
X164120800Y-104799200D01*
X164120800Y-104819200D01*
X165332628Y-104819200D01*
X165390732Y-104609383D01*
X165389934Y-104605355D01*
X165188185Y-104120383D01*
X164816202Y-103749533D01*
X164654079Y-103682669D01*
X165086000Y-103682669D01*
X165208365Y-103659644D01*
X165320749Y-103587327D01*
X165396144Y-103476983D01*
X165422669Y-103346000D01*
X165422669Y-101314000D01*
X165399644Y-101191635D01*
X165327327Y-101079251D01*
X165216983Y-101003856D01*
X165086000Y-100977331D01*
X163054000Y-100977331D01*
X162931635Y-101000356D01*
X162819251Y-101072673D01*
X162743856Y-101183017D01*
X162717331Y-101314000D01*
X141271050Y-101314000D01*
X141146202Y-101189533D01*
X140660617Y-100989264D01*
X140450800Y-101047305D01*
X140349200Y-101047305D01*
X140139383Y-100989264D01*
X139653798Y-101189533D01*
X139281815Y-101560383D01*
X139080066Y-102045355D01*
X139079268Y-102049383D01*
X138440200Y-102049383D01*
X138440200Y-100153723D01*
X142081122Y-100153723D01*
X142237402Y-100531950D01*
X142526528Y-100821581D01*
X142904481Y-100978521D01*
X143313723Y-100978878D01*
X143691950Y-100822598D01*
X143981581Y-100533472D01*
X144138521Y-100155519D01*
X144138540Y-100133723D01*
X146491122Y-100133723D01*
X146647402Y-100511950D01*
X146936528Y-100801581D01*
X147314481Y-100958521D01*
X147723723Y-100958878D01*
X148101950Y-100802598D01*
X148391581Y-100513472D01*
X148548521Y-100135519D01*
X148548878Y-99726277D01*
X148392598Y-99348050D01*
X148103472Y-99058419D01*
X147725519Y-98901479D01*
X147316277Y-98901122D01*
X146938050Y-99057402D01*
X146648419Y-99346528D01*
X146491479Y-99724481D01*
X146491122Y-100133723D01*
X144138540Y-100133723D01*
X144138878Y-99746277D01*
X143982598Y-99368050D01*
X143693472Y-99078419D01*
X143315519Y-98921479D01*
X142906277Y-98921122D01*
X142528050Y-99077402D01*
X142238419Y-99366528D01*
X142081479Y-99744481D01*
X142081122Y-100153723D01*
X138440200Y-100153723D01*
X138440200Y-95950200D01*
X166039800Y-95950200D01*
X166039800Y-118919800D01*
M02*
