G04 #@! TF.FileFunction,Soldermask,Top*
%FSLAX46Y46*%
G04 Gerber Fmt 4.6, Leading zero omitted, Abs format (unit mm)*
G04 Created by KiCad (PCBNEW 4.0.1-stable) date 2/14/2016 8:13:32 PM*
%MOMM*%
G01*
G04 APERTURE LIST*
%ADD10C,0.100000*%
%ADD11R,2.500000X2.000000*%
%ADD12R,2.000000X2.500000*%
%ADD13R,2.032000X2.032000*%
%ADD14O,2.032000X2.032000*%
%ADD15C,1.397000*%
%ADD16C,1.000760*%
%ADD17R,1.300000X1.500000*%
%ADD18R,1.500000X1.300000*%
%ADD19C,0.685800*%
G04 APERTURE END LIST*
D10*
D11*
X140310000Y-112630000D03*
X140310000Y-108630000D03*
X157410000Y-116690000D03*
X157410000Y-112690000D03*
D12*
X160620000Y-106090000D03*
X156620000Y-106090000D03*
D11*
X157110000Y-102140000D03*
X157110000Y-98140000D03*
D13*
X140400000Y-104850000D03*
D14*
X140400000Y-102310000D03*
D13*
X164060000Y-110450000D03*
D14*
X164060000Y-112990000D03*
D13*
X164070000Y-102330000D03*
D14*
X164070000Y-104870000D03*
D15*
X147520000Y-103010000D03*
X147540000Y-106100000D03*
X147520000Y-99930000D03*
X156220000Y-109740000D03*
X159550000Y-109610000D03*
D16*
X151460000Y-109780000D03*
X152730000Y-108510000D03*
X152730000Y-111050000D03*
D17*
X144670000Y-105990000D03*
X144670000Y-108690000D03*
X144930000Y-112210000D03*
X144930000Y-114910000D03*
D18*
X153800000Y-116960000D03*
X151100000Y-116960000D03*
X153690000Y-101460000D03*
X150990000Y-101460000D03*
D17*
X160760000Y-102200000D03*
X160760000Y-99500000D03*
X148260000Y-111190000D03*
X148260000Y-108490000D03*
D18*
X151030000Y-105300000D03*
X153730000Y-105300000D03*
X151180000Y-114290000D03*
X153880000Y-114290000D03*
D15*
X143110000Y-99950000D03*
D19*
X143360000Y-114970000D03*
X160610000Y-116690000D03*
X148520000Y-116970000D03*
X159190000Y-103750000D03*
M02*
