<?xml version="1.0" encoding="UTF-8"?>
<svg xmlns="http://www.w3.org/2000/svg" xmlns:xlink="http://www.w3.org/1999/xlink" width="132pt" height="191pt" viewBox="0 0 132 191" version="1.1">
<g id="surface22213">
<path style=" stroke:none;fill-rule:evenodd;fill:rgb(100%,100%,100%);fill-opacity:1;" d="M 53.722656 34.867188 L 56.558594 34.867188 L 56.558594 31.324219 L 53.722656 31.324219 Z M 53.722656 34.867188 "/>
<path style=" stroke:none;fill-rule:evenodd;fill:rgb(100%,100%,100%);fill-opacity:1;" d="M 48.054688 34.867188 L 50.890625 34.867188 L 50.890625 31.324219 L 48.054688 31.324219 Z M 48.054688 34.867188 "/>
<path style=" stroke:none;fill-rule:evenodd;fill:rgb(100%,100%,100%);fill-opacity:1;" d="M 26.773438 21.597656 L 30.316406 21.597656 L 30.316406 18.761719 L 26.773438 18.761719 Z M 26.773438 21.597656 "/>
<path style=" stroke:none;fill-rule:evenodd;fill:rgb(100%,100%,100%);fill-opacity:1;" d="M 26.773438 27.265625 L 30.316406 27.265625 L 30.316406 24.429688 L 26.773438 24.429688 Z M 26.773438 27.265625 "/>
<path style=" stroke:none;fill-rule:evenodd;fill:rgb(100%,100%,100%);fill-opacity:1;" d="M 26.773438 80.546875 L 30.316406 80.546875 L 30.316406 77.710938 L 26.773438 77.710938 Z M 26.773438 80.546875 "/>
<path style=" stroke:none;fill-rule:evenodd;fill:rgb(100%,100%,100%);fill-opacity:1;" d="M 26.773438 74.878906 L 30.316406 74.878906 L 30.316406 72.042969 L 26.773438 72.042969 Z M 26.773438 74.878906 "/>
<path style=" stroke:none;fill-rule:evenodd;fill:rgb(100%,100%,100%);fill-opacity:1;" d="M 6.027344 167.75 L 8.863281 167.75 L 8.863281 164.207031 L 6.027344 164.207031 Z M 6.027344 167.75 "/>
<path style=" stroke:none;fill-rule:evenodd;fill:rgb(100%,100%,100%);fill-opacity:1;" d="M 11.695313 167.75 L 14.53125 167.75 L 14.53125 164.207031 L 11.695313 164.207031 Z M 11.695313 167.75 "/>
<path style=" stroke:none;fill-rule:evenodd;fill:rgb(100%,100%,100%);fill-opacity:1;" d="M 37.421875 120.707031 L 40.964844 120.707031 L 40.964844 117.871094 L 37.421875 117.871094 Z M 37.421875 120.707031 "/>
<path style=" stroke:none;fill-rule:evenodd;fill:rgb(100%,100%,100%);fill-opacity:1;" d="M 37.421875 126.378906 L 40.964844 126.378906 L 40.964844 123.542969 L 37.421875 123.542969 Z M 37.421875 126.378906 "/>
<path style=" stroke:none;fill-rule:evenodd;fill:rgb(100%,100%,100%);fill-opacity:1;" d="M 43.730469 119.289063 L 50.816406 119.289063 L 50.816406 116.453125 L 43.730469 116.453125 Z M 43.730469 119.289063 "/>
<path style=" stroke:none;fill-rule:evenodd;fill:rgb(100%,100%,100%);fill-opacity:1;" d="M 43.730469 127.792969 L 50.816406 127.792969 L 50.816406 124.957031 L 43.730469 124.957031 Z M 43.730469 127.792969 "/>
<path style=" stroke:none;fill-rule:evenodd;fill:rgb(100%,100%,100%);fill-opacity:1;" d="M 74.683594 161.199219 L 77.519531 161.199219 L 77.519531 157.65625 L 74.683594 157.65625 Z M 74.683594 161.199219 "/>
<path style=" stroke:none;fill-rule:evenodd;fill:rgb(100%,100%,100%);fill-opacity:1;" d="M 80.351563 161.199219 L 83.1875 161.199219 L 83.1875 157.65625 L 80.351563 157.65625 Z M 80.351563 161.199219 "/>
<path style=" stroke:none;fill-rule:evenodd;fill:rgb(100%,100%,100%);fill-opacity:1;" d="M 15.523438 129.128906 L 22.609375 129.128906 L 22.609375 126.292969 L 15.523438 126.292969 Z M 15.523438 129.128906 "/>
<path style=" stroke:none;fill-rule:evenodd;fill:rgb(100%,100%,100%);fill-opacity:1;" d="M 15.523438 120.625 L 22.609375 120.625 L 22.609375 117.789063 L 15.523438 117.789063 Z M 15.523438 120.625 "/>
<path style=" stroke:none;fill-rule:evenodd;fill:rgb(100%,100%,100%);fill-opacity:1;" d="M 17.367188 151.09375 L 24.453125 151.09375 L 24.453125 148.257813 L 17.367188 148.257813 Z M 17.367188 151.09375 "/>
<path style=" stroke:none;fill-rule:evenodd;fill:rgb(100%,100%,100%);fill-opacity:1;" d="M 17.367188 159.597656 L 24.453125 159.597656 L 24.453125 156.761719 L 17.367188 156.761719 Z M 17.367188 159.597656 "/>
<path style=" stroke:none;fill-rule:evenodd;fill:rgb(100%,100%,100%);fill-opacity:1;" d="M 50.886719 96.132813 L 54.429688 96.132813 L 54.429688 93.296875 L 50.886719 93.296875 Z M 50.886719 96.132813 "/>
<path style=" stroke:none;fill-rule:evenodd;fill:rgb(100%,100%,100%);fill-opacity:1;" d="M 50.886719 101.800781 L 54.429688 101.800781 L 54.429688 98.964844 L 50.886719 98.964844 Z M 50.886719 101.800781 "/>
<path style=" stroke:none;fill-rule:evenodd;fill:rgb(100%,100%,100%);fill-opacity:1;" d="M 91.25 94.714844 L 94.792969 94.714844 L 94.792969 91.878906 L 91.25 91.878906 Z M 91.25 94.714844 "/>
<path style=" stroke:none;fill-rule:evenodd;fill:rgb(100%,100%,100%);fill-opacity:1;" d="M 91.25 100.382813 L 94.792969 100.382813 L 94.792969 97.546875 L 91.25 97.546875 Z M 91.25 100.382813 "/>
<path style=" stroke:none;fill-rule:evenodd;fill:rgb(100%,100%,100%);fill-opacity:1;" d="M 32.53125 181.566406 L 33.664063 181.566406 L 33.664063 177.738281 L 32.53125 177.738281 Z M 32.53125 181.566406 "/>
<path style=" stroke:none;fill-rule:evenodd;fill:rgb(100%,100%,100%);fill-opacity:1;" d="M 30.6875 181.566406 L 31.820313 181.566406 L 31.820313 177.738281 L 30.6875 177.738281 Z M 30.6875 181.566406 "/>
<path style=" stroke:none;fill-rule:evenodd;fill:rgb(100%,100%,100%);fill-opacity:1;" d="M 28.847656 181.566406 L 29.980469 181.566406 L 29.980469 177.738281 L 28.847656 177.738281 Z M 28.847656 181.566406 "/>
<path style=" stroke:none;fill-rule:evenodd;fill:rgb(100%,100%,100%);fill-opacity:1;" d="M 27.003906 181.566406 L 28.136719 181.566406 L 28.136719 177.738281 L 27.003906 177.738281 Z M 27.003906 181.566406 "/>
<path style=" stroke:none;fill-rule:evenodd;fill:rgb(100%,100%,100%);fill-opacity:1;" d="M 25.160156 181.566406 L 26.292969 181.566406 L 26.292969 177.738281 L 25.160156 177.738281 Z M 25.160156 181.566406 "/>
<path style=" stroke:none;fill-rule:evenodd;fill:rgb(100%,100%,100%);fill-opacity:1;" d="M 18.074219 182.277344 L 22.609375 182.277344 L 22.609375 178.308594 L 18.074219 178.308594 Z M 18.074219 182.277344 "/>
<path style=" stroke:none;fill-rule:evenodd;fill:rgb(100%,100%,100%);fill-opacity:1;" d="M 36.21875 182.277344 L 40.753906 182.277344 L 40.753906 178.308594 L 36.21875 178.308594 Z M 36.21875 182.277344 "/>
<path style=" stroke:none;fill-rule:evenodd;fill:rgb(100%,100%,100%);fill-opacity:1;" d="M 85.765625 125.582031 L 89.164063 125.582031 L 89.164063 122.183594 L 85.765625 122.183594 Z M 85.765625 125.582031 "/>
<path style=" stroke:none;fill-rule:evenodd;fill:rgb(100%,100%,100%);fill-opacity:1;" d="M 79.816406 125.582031 L 83.214844 125.582031 L 83.214844 122.183594 L 79.816406 122.183594 Z M 79.816406 125.582031 "/>
<path style=" stroke:none;fill-rule:evenodd;fill:rgb(100%,100%,100%);fill-opacity:1;" d="M 85.765625 131.421875 L 89.164063 131.421875 L 89.164063 128.023438 L 85.765625 128.023438 Z M 85.765625 131.421875 "/>
<path style=" stroke:none;fill-rule:evenodd;fill:rgb(100%,100%,100%);fill-opacity:1;" d="M 79.816406 131.421875 L 83.214844 131.421875 L 83.214844 128.023438 L 79.816406 128.023438 Z M 79.816406 131.421875 "/>
<path style=" stroke:none;fill-rule:evenodd;fill:rgb(100%,100%,100%);fill-opacity:1;" d="M 31.398438 169.578125 L 34.660156 169.578125 L 34.660156 165.609375 L 31.398438 165.609375 Z M 31.398438 169.578125 "/>
<path style=" stroke:none;fill-rule:evenodd;fill:rgb(100%,100%,100%);fill-opacity:1;" d="M 22.183594 169.578125 L 25.445313 169.578125 L 25.445313 165.609375 L 22.183594 165.609375 Z M 22.183594 169.578125 "/>
<path style=" stroke:none;fill-rule:evenodd;fill:rgb(100%,100%,100%);fill-opacity:1;" d="M 48.226563 27.160156 L 51.488281 27.160156 L 51.488281 23.191406 L 48.226563 23.191406 Z M 48.226563 27.160156 "/>
<path style=" stroke:none;fill-rule:evenodd;fill:rgb(100%,100%,100%);fill-opacity:1;" d="M 57.445313 27.160156 L 60.707031 27.160156 L 60.707031 23.191406 L 57.445313 23.191406 Z M 57.445313 27.160156 "/>
<path style=" stroke:none;fill-rule:evenodd;fill:rgb(100%,100%,100%);fill-opacity:1;" d="M 68.558594 110.617188 L 72.242188 110.617188 L 72.242188 108.632813 L 68.558594 108.632813 Z M 68.558594 110.617188 "/>
<path style=" stroke:none;fill-rule:evenodd;fill:rgb(100%,100%,100%);fill-opacity:1;" d="M 68.558594 116.003906 L 72.242188 116.003906 L 72.242188 114.019531 L 68.558594 114.019531 Z M 68.558594 116.003906 "/>
<path style=" stroke:none;fill-rule:evenodd;fill:rgb(100%,100%,100%);fill-opacity:1;" d="M 68.277344 161.355469 L 71.960938 161.355469 L 71.960938 159.371094 L 68.277344 159.371094 Z M 68.277344 161.355469 "/>
<path style=" stroke:none;fill-rule:evenodd;fill:rgb(100%,100%,100%);fill-opacity:1;" d="M 68.277344 155.972656 L 71.960938 155.972656 L 71.960938 153.988281 L 68.277344 153.988281 Z M 68.277344 155.972656 "/>
<path style=" stroke:none;fill-rule:evenodd;fill:rgb(100%,100%,100%);fill-opacity:1;" d="M 65.5 126.121094 L 67.484375 126.121094 L 67.484375 122.4375 L 65.5 122.4375 Z M 65.5 126.121094 "/>
<path style=" stroke:none;fill-rule:evenodd;fill:rgb(100%,100%,100%);fill-opacity:1;" d="M 60.113281 126.121094 L 62.097656 126.121094 L 62.097656 122.4375 L 60.113281 122.4375 Z M 60.113281 126.121094 "/>
<path style=" stroke:none;fill-rule:evenodd;fill:rgb(100%,100%,100%);fill-opacity:1;" d="M 53.679688 117.589844 L 57.363281 117.589844 L 57.363281 115.605469 L 53.679688 115.605469 Z M 53.679688 117.589844 "/>
<path style=" stroke:none;fill-rule:evenodd;fill:rgb(100%,100%,100%);fill-opacity:1;" d="M 53.679688 122.976563 L 57.363281 122.976563 L 57.363281 120.992188 L 53.679688 120.992188 Z M 53.679688 122.976563 "/>
<path style=" stroke:none;fill-rule:evenodd;fill:rgb(100%,100%,100%);fill-opacity:1;" d="M 77.121094 116.003906 L 80.804688 116.003906 L 80.804688 114.019531 L 77.121094 114.019531 Z M 77.121094 116.003906 "/>
<path style=" stroke:none;fill-rule:evenodd;fill:rgb(100%,100%,100%);fill-opacity:1;" d="M 77.121094 110.617188 L 80.804688 110.617188 L 80.804688 108.632813 L 77.121094 108.632813 Z M 77.121094 110.617188 "/>
<path style=" stroke:none;fill-rule:evenodd;fill:rgb(100%,100%,100%);fill-opacity:1;" d="M 45.910156 154.496094 L 49.59375 154.496094 L 49.59375 152.511719 L 45.910156 152.511719 Z M 45.910156 154.496094 "/>
<path style=" stroke:none;fill-rule:evenodd;fill:rgb(100%,100%,100%);fill-opacity:1;" d="M 45.910156 149.109375 L 49.59375 149.109375 L 49.59375 147.125 L 45.910156 147.125 Z M 45.910156 149.109375 "/>
<path style=" stroke:none;fill-rule:evenodd;fill:rgb(100%,100%,100%);fill-opacity:1;" d="M 85.285156 115.832031 L 88.96875 115.832031 L 88.96875 113.847656 L 85.285156 113.847656 Z M 85.285156 115.832031 "/>
<path style=" stroke:none;fill-rule:evenodd;fill:rgb(100%,100%,100%);fill-opacity:1;" d="M 85.285156 110.445313 L 88.96875 110.445313 L 88.96875 108.460938 L 85.285156 108.460938 Z M 85.285156 110.445313 "/>
<path style=" stroke:none;fill-rule:evenodd;fill:rgb(100%,100%,100%);fill-opacity:1;" d="M 97.84375 125.386719 L 99.828125 125.386719 L 99.828125 121.703125 L 97.84375 121.703125 Z M 97.84375 125.386719 "/>
<path style=" stroke:none;fill-rule:evenodd;fill:rgb(100%,100%,100%);fill-opacity:1;" d="M 92.457031 125.386719 L 94.441406 125.386719 L 94.441406 121.703125 L 92.457031 121.703125 Z M 92.457031 125.386719 "/>
<path style=" stroke:none;fill-rule:evenodd;fill:rgb(100%,100%,100%);fill-opacity:1;" d="M 98.011719 131.566406 L 99.996094 131.566406 L 99.996094 127.882813 L 98.011719 127.882813 Z M 98.011719 131.566406 "/>
<path style=" stroke:none;fill-rule:evenodd;fill:rgb(100%,100%,100%);fill-opacity:1;" d="M 92.625 131.566406 L 94.609375 131.566406 L 94.609375 127.882813 L 92.625 127.882813 Z M 92.625 131.566406 "/>
<path style=" stroke:none;fill-rule:evenodd;fill:rgb(100%,100%,100%);fill-opacity:1;" d="M 6.59375 175.617188 L 8.578125 175.617188 L 8.578125 171.933594 L 6.59375 171.933594 Z M 6.59375 175.617188 "/>
<path style=" stroke:none;fill-rule:evenodd;fill:rgb(100%,100%,100%);fill-opacity:1;" d="M 11.980469 175.617188 L 13.964844 175.617188 L 13.964844 171.933594 L 11.980469 171.933594 Z M 11.980469 175.617188 "/>
<path style=" stroke:none;fill-rule:evenodd;fill:rgb(100%,100%,100%);fill-opacity:1;" d="M 118.789063 53.160156 L 120.773438 53.160156 L 120.773438 49.476563 L 118.789063 49.476563 Z M 118.789063 53.160156 "/>
<path style=" stroke:none;fill-rule:evenodd;fill:rgb(100%,100%,100%);fill-opacity:1;" d="M 124.175781 53.160156 L 126.160156 53.160156 L 126.160156 49.476563 L 124.175781 49.476563 Z M 124.175781 53.160156 "/>
<path style=" stroke:none;fill-rule:evenodd;fill:rgb(100%,100%,100%);fill-opacity:1;" d="M 122.898438 11.488281 L 126.582031 11.488281 L 126.582031 9.503906 L 122.898438 9.503906 Z M 122.898438 11.488281 "/>
<path style=" stroke:none;fill-rule:evenodd;fill:rgb(100%,100%,100%);fill-opacity:1;" d="M 122.898438 16.875 L 126.582031 16.875 L 126.582031 14.890625 L 122.898438 14.890625 Z M 122.898438 16.875 "/>
<path style=" stroke:none;fill-rule:evenodd;fill:rgb(100%,100%,100%);fill-opacity:1;" d="M 122.785156 25.746094 L 126.46875 25.746094 L 126.46875 23.761719 L 122.785156 23.761719 Z M 122.785156 25.746094 "/>
<path style=" stroke:none;fill-rule:evenodd;fill:rgb(100%,100%,100%);fill-opacity:1;" d="M 122.785156 31.132813 L 126.46875 31.132813 L 126.46875 29.148438 L 122.785156 29.148438 Z M 122.785156 31.132813 "/>
<path style=" stroke:none;fill-rule:evenodd;fill:rgb(100%,100%,100%);fill-opacity:1;" d="M 121.710938 41.394531 L 125.394531 41.394531 L 125.394531 39.410156 L 121.710938 39.410156 Z M 121.710938 41.394531 "/>
<path style=" stroke:none;fill-rule:evenodd;fill:rgb(100%,100%,100%);fill-opacity:1;" d="M 121.710938 36.007813 L 125.394531 36.007813 L 125.394531 34.023438 L 121.710938 34.023438 Z M 121.710938 36.007813 "/>
<path style=" stroke:none;fill-rule:evenodd;fill:rgb(100%,100%,100%);fill-opacity:1;" d="M 107.308594 55.824219 L 109.292969 55.824219 L 109.292969 52.140625 L 107.308594 52.140625 Z M 107.308594 55.824219 "/>
<path style=" stroke:none;fill-rule:evenodd;fill:rgb(100%,100%,100%);fill-opacity:1;" d="M 112.695313 55.824219 L 114.679688 55.824219 L 114.679688 52.140625 L 112.695313 52.140625 Z M 112.695313 55.824219 "/>
<path style=" stroke:none;fill-rule:evenodd;fill:rgb(100%,100%,100%);fill-opacity:1;" d="M 54.019531 43.875 L 57.703125 43.875 L 57.703125 43.167969 L 54.019531 43.167969 Z M 54.019531 43.875 "/>
<path style=" stroke:none;fill-rule:evenodd;fill:rgb(100%,100%,100%);fill-opacity:1;" d="M 54.019531 45.292969 L 57.703125 45.292969 L 57.703125 44.585938 L 54.019531 44.585938 Z M 54.019531 45.292969 "/>
<path style=" stroke:none;fill-rule:evenodd;fill:rgb(100%,100%,100%);fill-opacity:1;" d="M 54.019531 46.710938 L 57.703125 46.710938 L 57.703125 46.003906 L 54.019531 46.003906 Z M 54.019531 46.710938 "/>
<path style=" stroke:none;fill-rule:evenodd;fill:rgb(100%,100%,100%);fill-opacity:1;" d="M 54.019531 48.128906 L 57.703125 48.128906 L 57.703125 47.421875 L 54.019531 47.421875 Z M 54.019531 48.128906 "/>
<path style=" stroke:none;fill-rule:evenodd;fill:rgb(100%,100%,100%);fill-opacity:1;" d="M 54.019531 49.542969 L 57.703125 49.542969 L 57.703125 48.835938 L 54.019531 48.835938 Z M 54.019531 49.542969 "/>
<path style=" stroke:none;fill-rule:evenodd;fill:rgb(100%,100%,100%);fill-opacity:1;" d="M 54.019531 50.960938 L 57.703125 50.960938 L 57.703125 50.253906 L 54.019531 50.253906 Z M 54.019531 50.960938 "/>
<path style=" stroke:none;fill-rule:evenodd;fill:rgb(100%,100%,100%);fill-opacity:1;" d="M 54.019531 52.378906 L 57.703125 52.378906 L 57.703125 51.671875 L 54.019531 51.671875 Z M 54.019531 52.378906 "/>
<path style=" stroke:none;fill-rule:evenodd;fill:rgb(100%,100%,100%);fill-opacity:1;" d="M 54.019531 53.796875 L 57.703125 53.796875 L 57.703125 53.089844 L 54.019531 53.089844 Z M 54.019531 53.796875 "/>
<path style=" stroke:none;fill-rule:evenodd;fill:rgb(100%,100%,100%);fill-opacity:1;" d="M 54.019531 55.214844 L 57.703125 55.214844 L 57.703125 54.507813 L 54.019531 54.507813 Z M 54.019531 55.214844 "/>
<path style=" stroke:none;fill-rule:evenodd;fill:rgb(100%,100%,100%);fill-opacity:1;" d="M 54.019531 56.632813 L 57.703125 56.632813 L 57.703125 55.925781 L 54.019531 55.925781 Z M 54.019531 56.632813 "/>
<path style=" stroke:none;fill-rule:evenodd;fill:rgb(100%,100%,100%);fill-opacity:1;" d="M 54.019531 58.046875 L 57.703125 58.046875 L 57.703125 57.339844 L 54.019531 57.339844 Z M 54.019531 58.046875 "/>
<path style=" stroke:none;fill-rule:evenodd;fill:rgb(100%,100%,100%);fill-opacity:1;" d="M 54.019531 59.464844 L 57.703125 59.464844 L 57.703125 58.757813 L 54.019531 58.757813 Z M 54.019531 59.464844 "/>
<path style=" stroke:none;fill-rule:evenodd;fill:rgb(100%,100%,100%);fill-opacity:1;" d="M 60.042969 65.488281 L 60.75 65.488281 L 60.75 61.804688 L 60.042969 61.804688 Z M 60.042969 65.488281 "/>
<path style=" stroke:none;fill-rule:evenodd;fill:rgb(100%,100%,100%);fill-opacity:1;" d="M 61.460938 65.488281 L 62.167969 65.488281 L 62.167969 61.804688 L 61.460938 61.804688 Z M 61.460938 65.488281 "/>
<path style=" stroke:none;fill-rule:evenodd;fill:rgb(100%,100%,100%);fill-opacity:1;" d="M 62.875 65.488281 L 63.582031 65.488281 L 63.582031 61.804688 L 62.875 61.804688 Z M 62.875 65.488281 "/>
<path style=" stroke:none;fill-rule:evenodd;fill:rgb(100%,100%,100%);fill-opacity:1;" d="M 64.292969 65.488281 L 65 65.488281 L 65 61.804688 L 64.292969 61.804688 Z M 64.292969 65.488281 "/>
<path style=" stroke:none;fill-rule:evenodd;fill:rgb(100%,100%,100%);fill-opacity:1;" d="M 65.710938 65.488281 L 66.417969 65.488281 L 66.417969 61.804688 L 65.710938 61.804688 Z M 65.710938 65.488281 "/>
<path style=" stroke:none;fill-rule:evenodd;fill:rgb(100%,100%,100%);fill-opacity:1;" d="M 67.128906 65.488281 L 67.835938 65.488281 L 67.835938 61.804688 L 67.128906 61.804688 Z M 67.128906 65.488281 "/>
<path style=" stroke:none;fill-rule:evenodd;fill:rgb(100%,100%,100%);fill-opacity:1;" d="M 68.546875 65.488281 L 69.253906 65.488281 L 69.253906 61.804688 L 68.546875 61.804688 Z M 68.546875 65.488281 "/>
<path style=" stroke:none;fill-rule:evenodd;fill:rgb(100%,100%,100%);fill-opacity:1;" d="M 69.964844 65.488281 L 70.671875 65.488281 L 70.671875 61.804688 L 69.964844 61.804688 Z M 69.964844 65.488281 "/>
<path style=" stroke:none;fill-rule:evenodd;fill:rgb(100%,100%,100%);fill-opacity:1;" d="M 71.378906 65.488281 L 72.085938 65.488281 L 72.085938 61.804688 L 71.378906 61.804688 Z M 71.378906 65.488281 "/>
<path style=" stroke:none;fill-rule:evenodd;fill:rgb(100%,100%,100%);fill-opacity:1;" d="M 72.796875 65.488281 L 73.503906 65.488281 L 73.503906 61.804688 L 72.796875 61.804688 Z M 72.796875 65.488281 "/>
<path style=" stroke:none;fill-rule:evenodd;fill:rgb(100%,100%,100%);fill-opacity:1;" d="M 74.214844 65.488281 L 74.921875 65.488281 L 74.921875 61.804688 L 74.214844 61.804688 Z M 74.214844 65.488281 "/>
<path style=" stroke:none;fill-rule:evenodd;fill:rgb(100%,100%,100%);fill-opacity:1;" d="M 75.632813 65.488281 L 76.339844 65.488281 L 76.339844 61.804688 L 75.632813 61.804688 Z M 75.632813 65.488281 "/>
<path style=" stroke:none;fill-rule:evenodd;fill:rgb(100%,100%,100%);fill-opacity:1;" d="M 78.679688 59.464844 L 82.363281 59.464844 L 82.363281 58.757813 L 78.679688 58.757813 Z M 78.679688 59.464844 "/>
<path style=" stroke:none;fill-rule:evenodd;fill:rgb(100%,100%,100%);fill-opacity:1;" d="M 78.679688 58.046875 L 82.363281 58.046875 L 82.363281 57.339844 L 78.679688 57.339844 Z M 78.679688 58.046875 "/>
<path style=" stroke:none;fill-rule:evenodd;fill:rgb(100%,100%,100%);fill-opacity:1;" d="M 78.679688 56.632813 L 82.363281 56.632813 L 82.363281 55.925781 L 78.679688 55.925781 Z M 78.679688 56.632813 "/>
<path style=" stroke:none;fill-rule:evenodd;fill:rgb(100%,100%,100%);fill-opacity:1;" d="M 78.679688 55.214844 L 82.363281 55.214844 L 82.363281 54.507813 L 78.679688 54.507813 Z M 78.679688 55.214844 "/>
<path style=" stroke:none;fill-rule:evenodd;fill:rgb(100%,100%,100%);fill-opacity:1;" d="M 78.679688 53.796875 L 82.363281 53.796875 L 82.363281 53.089844 L 78.679688 53.089844 Z M 78.679688 53.796875 "/>
<path style=" stroke:none;fill-rule:evenodd;fill:rgb(100%,100%,100%);fill-opacity:1;" d="M 78.679688 52.378906 L 82.363281 52.378906 L 82.363281 51.671875 L 78.679688 51.671875 Z M 78.679688 52.378906 "/>
<path style=" stroke:none;fill-rule:evenodd;fill:rgb(100%,100%,100%);fill-opacity:1;" d="M 78.679688 50.960938 L 82.363281 50.960938 L 82.363281 50.253906 L 78.679688 50.253906 Z M 78.679688 50.960938 "/>
<path style=" stroke:none;fill-rule:evenodd;fill:rgb(100%,100%,100%);fill-opacity:1;" d="M 78.679688 49.542969 L 82.363281 49.542969 L 82.363281 48.835938 L 78.679688 48.835938 Z M 78.679688 49.542969 "/>
<path style=" stroke:none;fill-rule:evenodd;fill:rgb(100%,100%,100%);fill-opacity:1;" d="M 78.679688 48.128906 L 82.363281 48.128906 L 82.363281 47.421875 L 78.679688 47.421875 Z M 78.679688 48.128906 "/>
<path style=" stroke:none;fill-rule:evenodd;fill:rgb(100%,100%,100%);fill-opacity:1;" d="M 78.679688 46.710938 L 82.363281 46.710938 L 82.363281 46.003906 L 78.679688 46.003906 Z M 78.679688 46.710938 "/>
<path style=" stroke:none;fill-rule:evenodd;fill:rgb(100%,100%,100%);fill-opacity:1;" d="M 78.679688 45.292969 L 82.363281 45.292969 L 82.363281 44.585938 L 78.679688 44.585938 Z M 78.679688 45.292969 "/>
<path style=" stroke:none;fill-rule:evenodd;fill:rgb(100%,100%,100%);fill-opacity:1;" d="M 78.679688 43.875 L 82.363281 43.875 L 82.363281 43.167969 L 78.679688 43.167969 Z M 78.679688 43.875 "/>
<path style=" stroke:none;fill-rule:evenodd;fill:rgb(100%,100%,100%);fill-opacity:1;" d="M 75.632813 40.828125 L 76.339844 40.828125 L 76.339844 37.144531 L 75.632813 37.144531 Z M 75.632813 40.828125 "/>
<path style=" stroke:none;fill-rule:evenodd;fill:rgb(100%,100%,100%);fill-opacity:1;" d="M 74.214844 40.828125 L 74.921875 40.828125 L 74.921875 37.144531 L 74.214844 37.144531 Z M 74.214844 40.828125 "/>
<path style=" stroke:none;fill-rule:evenodd;fill:rgb(100%,100%,100%);fill-opacity:1;" d="M 72.796875 40.828125 L 73.503906 40.828125 L 73.503906 37.144531 L 72.796875 37.144531 Z M 72.796875 40.828125 "/>
<path style=" stroke:none;fill-rule:evenodd;fill:rgb(100%,100%,100%);fill-opacity:1;" d="M 71.378906 40.828125 L 72.085938 40.828125 L 72.085938 37.144531 L 71.378906 37.144531 Z M 71.378906 40.828125 "/>
<path style=" stroke:none;fill-rule:evenodd;fill:rgb(100%,100%,100%);fill-opacity:1;" d="M 69.964844 40.828125 L 70.671875 40.828125 L 70.671875 37.144531 L 69.964844 37.144531 Z M 69.964844 40.828125 "/>
<path style=" stroke:none;fill-rule:evenodd;fill:rgb(100%,100%,100%);fill-opacity:1;" d="M 68.546875 40.828125 L 69.253906 40.828125 L 69.253906 37.144531 L 68.546875 37.144531 Z M 68.546875 40.828125 "/>
<path style=" stroke:none;fill-rule:evenodd;fill:rgb(100%,100%,100%);fill-opacity:1;" d="M 67.128906 40.828125 L 67.835938 40.828125 L 67.835938 37.144531 L 67.128906 37.144531 Z M 67.128906 40.828125 "/>
<path style=" stroke:none;fill-rule:evenodd;fill:rgb(100%,100%,100%);fill-opacity:1;" d="M 65.710938 40.828125 L 66.417969 40.828125 L 66.417969 37.144531 L 65.710938 37.144531 Z M 65.710938 40.828125 "/>
<path style=" stroke:none;fill-rule:evenodd;fill:rgb(100%,100%,100%);fill-opacity:1;" d="M 64.292969 40.828125 L 65 40.828125 L 65 37.144531 L 64.292969 37.144531 Z M 64.292969 40.828125 "/>
<path style=" stroke:none;fill-rule:evenodd;fill:rgb(100%,100%,100%);fill-opacity:1;" d="M 62.875 40.828125 L 63.582031 40.828125 L 63.582031 37.144531 L 62.875 37.144531 Z M 62.875 40.828125 "/>
<path style=" stroke:none;fill-rule:evenodd;fill:rgb(100%,100%,100%);fill-opacity:1;" d="M 61.460938 40.828125 L 62.167969 40.828125 L 62.167969 37.144531 L 61.460938 37.144531 Z M 61.460938 40.828125 "/>
<path style=" stroke:none;fill-rule:evenodd;fill:rgb(100%,100%,100%);fill-opacity:1;" d="M 60.042969 40.828125 L 60.75 40.828125 L 60.75 37.144531 L 60.042969 37.144531 Z M 60.042969 40.828125 "/>
<path style=" stroke:none;fill-rule:evenodd;fill:rgb(100%,100%,100%);fill-opacity:1;" d="M 52.941406 136.144531 L 54.925781 136.144531 L 54.925781 135.4375 L 52.941406 135.4375 Z M 52.941406 136.144531 "/>
<path style=" stroke:none;fill-rule:evenodd;fill:rgb(100%,100%,100%);fill-opacity:1;" d="M 52.941406 137.558594 L 54.925781 137.558594 L 54.925781 136.851563 L 52.941406 136.851563 Z M 52.941406 137.558594 "/>
<path style=" stroke:none;fill-rule:evenodd;fill:rgb(100%,100%,100%);fill-opacity:1;" d="M 52.941406 138.976563 L 54.925781 138.976563 L 54.925781 138.269531 L 52.941406 138.269531 Z M 52.941406 138.976563 "/>
<path style=" stroke:none;fill-rule:evenodd;fill:rgb(100%,100%,100%);fill-opacity:1;" d="M 52.941406 140.394531 L 54.925781 140.394531 L 54.925781 139.6875 L 52.941406 139.6875 Z M 52.941406 140.394531 "/>
<path style=" stroke:none;fill-rule:evenodd;fill:rgb(100%,100%,100%);fill-opacity:1;" d="M 52.941406 141.8125 L 54.925781 141.8125 L 54.925781 141.105469 L 52.941406 141.105469 Z M 52.941406 141.8125 "/>
<path style=" stroke:none;fill-rule:evenodd;fill:rgb(100%,100%,100%);fill-opacity:1;" d="M 52.941406 143.230469 L 54.925781 143.230469 L 54.925781 142.523438 L 52.941406 142.523438 Z M 52.941406 143.230469 "/>
<path style=" stroke:none;fill-rule:evenodd;fill:rgb(100%,100%,100%);fill-opacity:1;" d="M 52.941406 144.648438 L 54.925781 144.648438 L 54.925781 143.941406 L 52.941406 143.941406 Z M 52.941406 144.648438 "/>
<path style=" stroke:none;fill-rule:evenodd;fill:rgb(100%,100%,100%);fill-opacity:1;" d="M 52.941406 146.0625 L 54.925781 146.0625 L 54.925781 145.355469 L 52.941406 145.355469 Z M 52.941406 146.0625 "/>
<path style=" stroke:none;fill-rule:evenodd;fill:rgb(100%,100%,100%);fill-opacity:1;" d="M 55.421875 148.542969 L 56.128906 148.542969 L 56.128906 146.558594 L 55.421875 146.558594 Z M 55.421875 148.542969 "/>
<path style=" stroke:none;fill-rule:evenodd;fill:rgb(100%,100%,100%);fill-opacity:1;" d="M 56.839844 148.542969 L 57.546875 148.542969 L 57.546875 146.558594 L 56.839844 146.558594 Z M 56.839844 148.542969 "/>
<path style=" stroke:none;fill-rule:evenodd;fill:rgb(100%,100%,100%);fill-opacity:1;" d="M 58.257813 148.542969 L 58.964844 148.542969 L 58.964844 146.558594 L 58.257813 146.558594 Z M 58.257813 148.542969 "/>
<path style=" stroke:none;fill-rule:evenodd;fill:rgb(100%,100%,100%);fill-opacity:1;" d="M 59.671875 148.542969 L 60.378906 148.542969 L 60.378906 146.558594 L 59.671875 146.558594 Z M 59.671875 148.542969 "/>
<path style=" stroke:none;fill-rule:evenodd;fill:rgb(100%,100%,100%);fill-opacity:1;" d="M 61.089844 148.542969 L 61.796875 148.542969 L 61.796875 146.558594 L 61.089844 146.558594 Z M 61.089844 148.542969 "/>
<path style=" stroke:none;fill-rule:evenodd;fill:rgb(100%,100%,100%);fill-opacity:1;" d="M 62.507813 148.542969 L 63.214844 148.542969 L 63.214844 146.558594 L 62.507813 146.558594 Z M 62.507813 148.542969 "/>
<path style=" stroke:none;fill-rule:evenodd;fill:rgb(100%,100%,100%);fill-opacity:1;" d="M 63.925781 148.542969 L 64.632813 148.542969 L 64.632813 146.558594 L 63.925781 146.558594 Z M 63.925781 148.542969 "/>
<path style=" stroke:none;fill-rule:evenodd;fill:rgb(100%,100%,100%);fill-opacity:1;" d="M 65.34375 148.542969 L 66.050781 148.542969 L 66.050781 146.558594 L 65.34375 146.558594 Z M 65.34375 148.542969 "/>
<path style=" stroke:none;fill-rule:evenodd;fill:rgb(100%,100%,100%);fill-opacity:1;" d="M 66.546875 146.0625 L 68.53125 146.0625 L 68.53125 145.355469 L 66.546875 145.355469 Z M 66.546875 146.0625 "/>
<path style=" stroke:none;fill-rule:evenodd;fill:rgb(100%,100%,100%);fill-opacity:1;" d="M 66.546875 144.648438 L 68.53125 144.648438 L 68.53125 143.941406 L 66.546875 143.941406 Z M 66.546875 144.648438 "/>
<path style=" stroke:none;fill-rule:evenodd;fill:rgb(100%,100%,100%);fill-opacity:1;" d="M 66.546875 143.230469 L 68.53125 143.230469 L 68.53125 142.523438 L 66.546875 142.523438 Z M 66.546875 143.230469 "/>
<path style=" stroke:none;fill-rule:evenodd;fill:rgb(100%,100%,100%);fill-opacity:1;" d="M 66.546875 141.8125 L 68.53125 141.8125 L 68.53125 141.105469 L 66.546875 141.105469 Z M 66.546875 141.8125 "/>
<path style=" stroke:none;fill-rule:evenodd;fill:rgb(100%,100%,100%);fill-opacity:1;" d="M 66.546875 140.394531 L 68.53125 140.394531 L 68.53125 139.6875 L 66.546875 139.6875 Z M 66.546875 140.394531 "/>
<path style=" stroke:none;fill-rule:evenodd;fill:rgb(100%,100%,100%);fill-opacity:1;" d="M 66.546875 138.976563 L 68.53125 138.976563 L 68.53125 138.269531 L 66.546875 138.269531 Z M 66.546875 138.976563 "/>
<path style=" stroke:none;fill-rule:evenodd;fill:rgb(100%,100%,100%);fill-opacity:1;" d="M 66.546875 137.558594 L 68.53125 137.558594 L 68.53125 136.851563 L 66.546875 136.851563 Z M 66.546875 137.558594 "/>
<path style=" stroke:none;fill-rule:evenodd;fill:rgb(100%,100%,100%);fill-opacity:1;" d="M 66.546875 136.144531 L 68.53125 136.144531 L 68.53125 135.4375 L 66.546875 135.4375 Z M 66.546875 136.144531 "/>
<path style=" stroke:none;fill-rule:evenodd;fill:rgb(100%,100%,100%);fill-opacity:1;" d="M 65.34375 134.9375 L 66.050781 134.9375 L 66.050781 132.953125 L 65.34375 132.953125 Z M 65.34375 134.9375 "/>
<path style=" stroke:none;fill-rule:evenodd;fill:rgb(100%,100%,100%);fill-opacity:1;" d="M 63.925781 134.9375 L 64.632813 134.9375 L 64.632813 132.953125 L 63.925781 132.953125 Z M 63.925781 134.9375 "/>
<path style=" stroke:none;fill-rule:evenodd;fill:rgb(100%,100%,100%);fill-opacity:1;" d="M 62.507813 134.9375 L 63.214844 134.9375 L 63.214844 132.953125 L 62.507813 132.953125 Z M 62.507813 134.9375 "/>
<path style=" stroke:none;fill-rule:evenodd;fill:rgb(100%,100%,100%);fill-opacity:1;" d="M 61.089844 134.9375 L 61.796875 134.9375 L 61.796875 132.953125 L 61.089844 132.953125 Z M 61.089844 134.9375 "/>
<path style=" stroke:none;fill-rule:evenodd;fill:rgb(100%,100%,100%);fill-opacity:1;" d="M 59.671875 134.9375 L 60.378906 134.9375 L 60.378906 132.953125 L 59.671875 132.953125 Z M 59.671875 134.9375 "/>
<path style=" stroke:none;fill-rule:evenodd;fill:rgb(100%,100%,100%);fill-opacity:1;" d="M 58.257813 134.9375 L 58.964844 134.9375 L 58.964844 132.953125 L 58.257813 132.953125 Z M 58.257813 134.9375 "/>
<path style=" stroke:none;fill-rule:evenodd;fill:rgb(100%,100%,100%);fill-opacity:1;" d="M 56.839844 134.9375 L 57.546875 134.9375 L 57.546875 132.953125 L 56.839844 132.953125 Z M 56.839844 134.9375 "/>
<path style=" stroke:none;fill-rule:evenodd;fill:rgb(100%,100%,100%);fill-opacity:1;" d="M 55.421875 134.9375 L 56.128906 134.9375 L 56.128906 132.953125 L 55.421875 132.953125 Z M 55.421875 134.9375 "/>
<path style=" stroke:none;fill-rule:evenodd;fill:rgb(100%,100%,100%);fill-opacity:1;" d="M 61.714844 144.660156 L 64.648438 144.660156 L 64.648438 141.726563 L 61.714844 141.726563 Z M 61.714844 144.660156 "/>
<path style=" stroke:none;fill-rule:evenodd;fill:rgb(100%,100%,100%);fill-opacity:1;" d="M 61.714844 139.769531 L 64.648438 139.769531 L 64.648438 136.835938 L 61.714844 136.835938 Z M 61.714844 139.769531 "/>
<path style=" stroke:none;fill-rule:evenodd;fill:rgb(100%,100%,100%);fill-opacity:1;" d="M 56.824219 144.660156 L 59.757813 144.660156 L 59.757813 141.726563 L 56.824219 141.726563 Z M 56.824219 144.660156 "/>
<path style=" stroke:none;fill-rule:evenodd;fill:rgb(100%,100%,100%);fill-opacity:1;" d="M 56.824219 139.769531 L 59.757813 139.769531 L 59.757813 136.835938 L 56.824219 136.835938 Z M 56.824219 139.769531 "/>
<path style=" stroke:none;fill-rule:evenodd;fill:rgb(100%,100%,100%);fill-opacity:1;" d="M 17.296875 143.796875 L 19.140625 143.796875 L 19.140625 140.820313 L 17.296875 140.820313 Z M 17.296875 143.796875 "/>
<path style=" stroke:none;fill-rule:evenodd;fill:rgb(100%,100%,100%);fill-opacity:1;" d="M 22.679688 143.796875 L 24.523438 143.796875 L 24.523438 140.820313 L 22.679688 140.820313 Z M 22.679688 143.796875 "/>
<path style=" stroke:none;fill-rule:evenodd;fill:rgb(100%,100%,100%);fill-opacity:1;" d="M 19.988281 137.277344 L 21.832031 137.277344 L 21.832031 134.300781 L 19.988281 134.300781 Z M 19.988281 137.277344 "/>
<path style=" stroke:none;fill-rule:evenodd;fill:rgb(100%,100%,100%);fill-opacity:1;" d="M 26.84375 69.328125 L 30.246094 69.328125 L 30.246094 56.570313 L 26.84375 56.570313 Z M 26.84375 69.328125 "/>
<path style=" stroke:none;fill-rule:evenodd;fill:rgb(100%,100%,100%);fill-opacity:1;" d="M 26.84375 42.738281 L 30.246094 42.738281 L 30.246094 29.980469 L 26.84375 29.980469 Z M 26.84375 42.738281 "/>
<path style=" stroke:none;fill-rule:evenodd;fill:rgb(100%,100%,100%);fill-opacity:1;" d="M 29.132813 156.199219 L 32.53125 156.199219 L 32.53125 152.800781 L 29.132813 152.800781 Z M 29.132813 156.199219 "/>
<path style=" stroke:none;fill-rule:evenodd;fill:rgb(100%,100%,100%);fill-opacity:1;" d="M 29.132813 162.144531 L 32.53125 162.144531 L 32.53125 158.746094 L 29.132813 158.746094 Z M 29.132813 162.144531 "/>
<path style=" stroke:none;fill-rule:evenodd;fill:rgb(100%,100%,100%);fill-opacity:1;" d="M 27.683594 146.023438 L 31.367188 146.023438 L 31.367188 144.039063 L 27.683594 144.039063 Z M 27.683594 146.023438 "/>
<path style=" stroke:none;fill-rule:evenodd;fill:rgb(100%,100%,100%);fill-opacity:1;" d="M 27.683594 140.636719 L 31.367188 140.636719 L 31.367188 138.652344 L 27.683594 138.652344 Z M 27.683594 140.636719 "/>
<path style=" stroke:none;fill-rule:evenodd;fill:rgb(100%,100%,100%);fill-opacity:1;" d="M 89.453125 175.699219 L 93.136719 175.699219 L 93.136719 173.714844 L 89.453125 173.714844 Z M 89.453125 175.699219 "/>
<path style=" stroke:none;fill-rule:evenodd;fill:rgb(100%,100%,100%);fill-opacity:1;" d="M 89.453125 170.316406 L 93.136719 170.316406 L 93.136719 168.332031 L 89.453125 168.332031 Z M 89.453125 170.316406 "/>
<path style=" stroke:none;fill-rule:evenodd;fill:rgb(100%,100%,100%);fill-opacity:1;" d="M 96.425781 176.011719 L 100.109375 176.011719 L 100.109375 174.027344 L 96.425781 174.027344 Z M 96.425781 176.011719 "/>
<path style=" stroke:none;fill-rule:evenodd;fill:rgb(100%,100%,100%);fill-opacity:1;" d="M 96.425781 170.625 L 100.109375 170.625 L 100.109375 168.640625 L 96.425781 168.640625 Z M 96.425781 170.625 "/>
<path style=" stroke:none;fill-rule:evenodd;fill:rgb(100%,100%,100%);fill-opacity:1;" d="M 103.398438 176.011719 L 107.082031 176.011719 L 107.082031 174.027344 L 103.398438 174.027344 Z M 103.398438 176.011719 "/>
<path style=" stroke:none;fill-rule:evenodd;fill:rgb(100%,100%,100%);fill-opacity:1;" d="M 103.398438 170.625 L 107.082031 170.625 L 107.082031 168.640625 L 103.398438 168.640625 Z M 103.398438 170.625 "/>
<path style=" stroke:none;fill-rule:evenodd;fill:rgb(100%,100%,100%);fill-opacity:1;" d="M 110.511719 176.183594 L 114.195313 176.183594 L 114.195313 174.199219 L 110.511719 174.199219 Z M 110.511719 176.183594 "/>
<path style=" stroke:none;fill-rule:evenodd;fill:rgb(100%,100%,100%);fill-opacity:1;" d="M 110.511719 170.796875 L 114.195313 170.796875 L 114.195313 168.8125 L 110.511719 168.8125 Z M 110.511719 170.796875 "/>
<path style=" stroke:none;fill-rule:evenodd;fill:rgb(100%,100%,100%);fill-opacity:1;" d="M 108.785156 9.792969 L 112.46875 9.792969 L 112.46875 7.808594 L 108.785156 7.808594 Z M 108.785156 9.792969 "/>
<path style=" stroke:none;fill-rule:evenodd;fill:rgb(100%,100%,100%);fill-opacity:1;" d="M 108.785156 15.179688 L 112.46875 15.179688 L 112.46875 13.195313 L 108.785156 13.195313 Z M 108.785156 15.179688 "/>
<path style=" stroke:none;fill-rule:evenodd;fill:rgb(100%,100%,100%);fill-opacity:1;" d="M 101.582031 9.792969 L 105.265625 9.792969 L 105.265625 7.808594 L 101.582031 7.808594 Z M 101.582031 9.792969 "/>
<path style=" stroke:none;fill-rule:evenodd;fill:rgb(100%,100%,100%);fill-opacity:1;" d="M 101.582031 15.179688 L 105.265625 15.179688 L 105.265625 13.195313 L 101.582031 13.195313 Z M 101.582031 15.179688 "/>
<path style=" stroke:none;fill-rule:evenodd;fill:rgb(100%,100%,100%);fill-opacity:1;" d="M 94.382813 9.792969 L 98.066406 9.792969 L 98.066406 7.808594 L 94.382813 7.808594 Z M 94.382813 9.792969 "/>
<path style=" stroke:none;fill-rule:evenodd;fill:rgb(100%,100%,100%);fill-opacity:1;" d="M 94.382813 15.179688 L 98.066406 15.179688 L 98.066406 13.195313 L 94.382813 13.195313 Z M 94.382813 15.179688 "/>
<path style=" stroke:none;fill-rule:evenodd;fill:rgb(100%,100%,100%);fill-opacity:1;" d="M 87.183594 9.792969 L 90.867188 9.792969 L 90.867188 7.808594 L 87.183594 7.808594 Z M 87.183594 9.792969 "/>
<path style=" stroke:none;fill-rule:evenodd;fill:rgb(100%,100%,100%);fill-opacity:1;" d="M 87.183594 15.179688 L 90.867188 15.179688 L 90.867188 13.195313 L 87.183594 13.195313 Z M 87.183594 15.179688 "/>
<path style=" stroke:none;fill-rule:evenodd;fill:rgb(100%,100%,100%);fill-opacity:1;" d="M 8.550781 143.5 L 12.007813 143.5 L 12.007813 140.921875 L 8.550781 140.921875 Z M 8.550781 143.5 "/>
<path style=" stroke:none;fill-rule:evenodd;fill:rgb(100%,100%,100%);fill-opacity:1;" d="M 8.550781 152.769531 L 12.007813 152.769531 L 12.007813 150.191406 L 8.550781 150.191406 Z M 8.550781 152.769531 "/>
<path style=" stroke:none;fill-rule:evenodd;fill:rgb(100%,100%,100%);fill-opacity:1;" d="M 9.117188 129.382813 L 12.574219 129.382813 L 12.574219 126.804688 L 9.117188 126.804688 Z M 9.117188 129.382813 "/>
<path style=" stroke:none;fill-rule:evenodd;fill:rgb(100%,100%,100%);fill-opacity:1;" d="M 9.117188 120.113281 L 12.574219 120.113281 L 12.574219 117.535156 L 9.117188 117.535156 Z M 9.117188 120.113281 "/>
<path style=" stroke:none;fill-rule:evenodd;fill:rgb(100%,100%,100%);fill-opacity:1;" d="M 40.113281 19.710938 L 43.65625 19.710938 L 43.65625 16.875 L 40.113281 16.875 Z M 40.113281 19.710938 "/>
<path style=" stroke:none;fill-rule:evenodd;fill:rgb(100%,100%,100%);fill-opacity:1;" d="M 40.113281 14.039063 L 43.65625 14.039063 L 43.65625 11.203125 L 40.113281 11.203125 Z M 40.113281 14.039063 "/>
<path style=" stroke:none;fill-rule:evenodd;fill:rgb(100%,100%,100%);fill-opacity:1;" d="M 46.28125 19.566406 L 50.816406 19.566406 L 50.816406 16.730469 L 46.28125 16.730469 Z M 46.28125 19.566406 "/>
<path style=" stroke:none;fill-rule:evenodd;fill:rgb(100%,100%,100%);fill-opacity:1;" d="M 46.28125 11.0625 L 50.816406 11.0625 L 50.816406 8.226563 L 46.28125 8.226563 Z M 46.28125 11.0625 "/>
<path style=" stroke:none;fill-rule:evenodd;fill:rgb(100%,100%,100%);fill-opacity:1;" d="M 53.226563 19.566406 L 57.761719 19.566406 L 57.761719 16.730469 L 53.226563 16.730469 Z M 53.226563 19.566406 "/>
<path style=" stroke:none;fill-rule:evenodd;fill:rgb(100%,100%,100%);fill-opacity:1;" d="M 53.226563 11.0625 L 57.761719 11.0625 L 57.761719 8.226563 L 53.226563 8.226563 Z M 53.226563 11.0625 "/>
<path style=" stroke:none;fill-rule:evenodd;fill:rgb(100%,100%,100%);fill-opacity:1;" d="M 91.703125 68.890625 L 95.246094 68.890625 L 95.246094 66.054688 L 91.703125 66.054688 Z M 91.703125 68.890625 "/>
<path style=" stroke:none;fill-rule:evenodd;fill:rgb(100%,100%,100%);fill-opacity:1;" d="M 91.703125 74.558594 L 95.246094 74.558594 L 95.246094 71.722656 L 91.703125 71.722656 Z M 91.703125 74.558594 "/>
<path style=" stroke:none;fill-rule:evenodd;fill:rgb(100%,100%,100%);fill-opacity:1;" d="M 97.585938 68.890625 L 102.121094 68.890625 L 102.121094 66.054688 L 97.585938 66.054688 Z M 97.585938 68.890625 "/>
<path style=" stroke:none;fill-rule:evenodd;fill:rgb(100%,100%,100%);fill-opacity:1;" d="M 97.585938 77.394531 L 102.121094 77.394531 L 102.121094 74.558594 L 97.585938 74.558594 Z M 97.585938 77.394531 "/>
<path style=" stroke:none;fill-rule:evenodd;fill:rgb(100%,100%,100%);fill-opacity:1;" d="M 84.6875 68.890625 L 89.222656 68.890625 L 89.222656 66.054688 L 84.6875 66.054688 Z M 84.6875 68.890625 "/>
<path style=" stroke:none;fill-rule:evenodd;fill:rgb(100%,100%,100%);fill-opacity:1;" d="M 84.6875 77.394531 L 89.222656 77.394531 L 89.222656 74.558594 L 84.6875 74.558594 Z M 84.6875 77.394531 "/>
</g>
</svg>
