G04 #@! TF.FileFunction,Copper,L4,Bot,Signal*
%FSLAX46Y46*%
G04 Gerber Fmt 4.6, Leading zero omitted, Abs format (unit mm)*
G04 Created by KiCad (PCBNEW 4.0.1-stable) date 2/27/2016 10:04:35 PM*
%MOMM*%
G01*
G04 APERTURE LIST*
%ADD10C,0.100000*%
%ADD11O,1.600000X1.600000*%
%ADD12R,2.032000X1.727200*%
%ADD13O,2.032000X1.727200*%
%ADD14R,1.727200X2.032000*%
%ADD15O,1.727200X2.032000*%
%ADD16R,2.032000X2.032000*%
%ADD17O,2.032000X2.032000*%
%ADD18C,1.500000*%
%ADD19C,2.000000*%
%ADD20C,0.685800*%
%ADD21C,0.609600*%
%ADD22C,0.914400*%
%ADD23C,0.152400*%
%ADD24C,0.254000*%
G04 APERTURE END LIST*
D10*
D11*
X63550000Y-109750000D03*
X56950000Y-109750000D03*
D12*
X96930000Y-79200000D03*
D13*
X96930000Y-81740000D03*
X96930000Y-84280000D03*
X96930000Y-86820000D03*
X96930000Y-89360000D03*
X96930000Y-91900000D03*
X96930000Y-94440000D03*
X96930000Y-96980000D03*
X96930000Y-99520000D03*
X96930000Y-102060000D03*
D12*
X49500000Y-51000000D03*
D13*
X49500000Y-53540000D03*
X49500000Y-56080000D03*
X49500000Y-58620000D03*
X49500000Y-61160000D03*
X49500000Y-63700000D03*
X49500000Y-66240000D03*
X49500000Y-68780000D03*
X49500000Y-71320000D03*
X49500000Y-73860000D03*
D12*
X49500000Y-79000000D03*
D13*
X49500000Y-81540000D03*
X49500000Y-84080000D03*
X49500000Y-86620000D03*
D14*
X64250000Y-42418000D03*
D15*
X61710000Y-42418000D03*
X59170000Y-42418000D03*
X56630000Y-42418000D03*
D16*
X80772000Y-42418000D03*
D17*
X78232000Y-42418000D03*
D16*
X96930000Y-68020000D03*
D17*
X96930000Y-65480000D03*
D16*
X49500000Y-100000000D03*
D17*
X49500000Y-102540000D03*
D12*
X96930000Y-61110000D03*
D13*
X96930000Y-58570000D03*
X96930000Y-56030000D03*
X96930000Y-53490000D03*
X96930000Y-50950000D03*
X96930000Y-48410000D03*
D16*
X96930000Y-74730000D03*
D17*
X96930000Y-72190000D03*
D18*
X91190000Y-43360000D03*
X89190000Y-43360000D03*
X87190000Y-43360000D03*
X85190000Y-43360000D03*
X83180000Y-109230000D03*
X85180000Y-109230000D03*
X87180000Y-109230000D03*
X89180000Y-109230000D03*
D14*
X73660000Y-42418000D03*
D15*
X71120000Y-42418000D03*
X68580000Y-42418000D03*
D19*
X65200000Y-80340000D03*
X58700000Y-80340000D03*
X65200000Y-75840000D03*
X58700000Y-75840000D03*
X79790000Y-79680000D03*
X73290000Y-79680000D03*
X79790000Y-75180000D03*
X73290000Y-75180000D03*
D12*
X49500000Y-91000000D03*
D13*
X49500000Y-93540000D03*
X49500000Y-96080000D03*
D20*
X73700000Y-47150000D03*
X78750000Y-70550000D03*
X86900000Y-70500000D03*
X64700000Y-46500000D03*
X65532000Y-54102000D03*
X57550000Y-83350000D03*
X71400000Y-85800000D03*
X69450000Y-83000000D03*
X66550000Y-83100000D03*
X76200000Y-67818000D03*
X67818000Y-62484000D03*
X72162500Y-94212500D03*
X70437500Y-94212500D03*
X70437500Y-92487500D03*
X72162500Y-92487500D03*
X71882000Y-55626000D03*
X57912000Y-50292000D03*
X58166000Y-72390000D03*
X82804000Y-80010000D03*
X80264000Y-103378000D03*
X68580000Y-80518000D03*
X87630000Y-50546000D03*
X65660000Y-99240000D03*
X63820000Y-83740000D03*
X75300000Y-95660000D03*
X78080000Y-98380000D03*
X55020000Y-92990000D03*
X59944000Y-59944000D03*
X65278000Y-59944000D03*
X59944000Y-62738000D03*
X64516000Y-60706000D03*
X70000000Y-78000000D03*
X72750000Y-82250000D03*
X63500000Y-61468000D03*
X63500000Y-66548000D03*
X67310000Y-75692000D03*
X71882000Y-61722000D03*
X92456000Y-50800000D03*
X70900000Y-63900000D03*
X78050000Y-73750000D03*
X54500000Y-108500000D03*
X60750000Y-108500000D03*
X60800000Y-105540000D03*
X71310000Y-97440000D03*
X59590000Y-105690000D03*
X72480000Y-97410000D03*
X65786000Y-64008000D03*
X52070000Y-78486000D03*
X73750000Y-71500000D03*
X52750000Y-80000000D03*
X54000000Y-80000000D03*
X74500000Y-72500000D03*
X59436000Y-46990000D03*
X76708000Y-52324000D03*
X58166000Y-46736000D03*
X76200000Y-53086000D03*
X75692000Y-53848000D03*
X56896000Y-46482000D03*
X75184000Y-54610000D03*
X55880000Y-45720000D03*
X77724000Y-45974000D03*
X74422000Y-55626000D03*
X73660000Y-54864000D03*
X76708000Y-45466000D03*
X93980000Y-65024000D03*
X74422000Y-60198000D03*
X94488000Y-64008000D03*
X75946000Y-59182000D03*
X77750000Y-55750000D03*
X91500000Y-58250000D03*
X76750000Y-60250000D03*
X91750000Y-54250000D03*
X94742000Y-73152000D03*
X91440000Y-64008000D03*
X88000000Y-102250000D03*
X75850000Y-61600000D03*
X81250000Y-57500000D03*
X83500000Y-50750000D03*
X91500000Y-102000000D03*
X74000000Y-61000000D03*
X80250000Y-57250000D03*
X81250000Y-50750000D03*
X72898000Y-55626000D03*
X72136000Y-44958000D03*
X76080000Y-89330000D03*
X77270000Y-95570000D03*
X76630000Y-86010000D03*
X70600000Y-89650000D03*
X69650000Y-68000000D03*
X76800000Y-80750000D03*
X80700000Y-85840000D03*
X67500000Y-92290000D03*
X79150000Y-82050000D03*
X70250000Y-69150000D03*
X86106000Y-62738000D03*
X74930000Y-62230000D03*
X53750000Y-83800000D03*
X75940000Y-93860000D03*
X64050000Y-94300000D03*
X93980000Y-76962000D03*
X80010000Y-66040000D03*
X92710000Y-76962000D03*
X76962000Y-68326000D03*
X94996000Y-82296000D03*
X77500000Y-69000000D03*
X53750000Y-57500000D03*
X68000000Y-58750000D03*
X54750000Y-58000000D03*
X67000000Y-59000000D03*
X55750000Y-58500000D03*
X65532000Y-58928000D03*
X53086000Y-65024000D03*
X73914000Y-63246000D03*
X54610000Y-65532000D03*
X72644000Y-64008000D03*
X55880000Y-66040000D03*
X73406000Y-64770000D03*
X81900000Y-62000000D03*
X94300000Y-97200000D03*
X88300000Y-87450000D03*
X94650000Y-95150000D03*
X89150000Y-88200000D03*
X80800000Y-61100000D03*
X71850000Y-70200000D03*
X94450000Y-93650000D03*
X71700000Y-69000000D03*
X93300000Y-91550000D03*
X72350000Y-68050000D03*
X93500000Y-89250000D03*
X73000000Y-68850000D03*
X93200000Y-86750000D03*
X52300000Y-53550000D03*
X64800000Y-67050000D03*
X75200000Y-69350000D03*
X73152000Y-59182000D03*
X51816000Y-56134000D03*
X72390000Y-59944000D03*
X52578000Y-57150000D03*
X71120000Y-62992000D03*
X70612000Y-55372000D03*
D21*
X63600000Y-48950000D02*
X63650000Y-48950000D01*
X63550000Y-48950000D02*
X63600000Y-48950000D01*
D22*
X72150000Y-94250000D02*
X72150000Y-94225000D01*
X72150000Y-94225000D02*
X72162500Y-94212500D01*
X70437500Y-94212500D02*
X70400000Y-94250000D01*
D21*
X70437500Y-92487500D02*
X70450000Y-92500000D01*
X72162500Y-92487500D02*
X72200000Y-92450000D01*
D23*
X49500000Y-56080000D02*
X51762000Y-56080000D01*
X51762000Y-56080000D02*
X51816000Y-56134000D01*
D24*
G36*
X99444000Y-112194000D02*
X47056000Y-112194000D01*
X47056000Y-109472513D01*
X48318674Y-109472513D01*
X48604436Y-110164109D01*
X49133108Y-110693704D01*
X49824204Y-110980673D01*
X50572513Y-110981326D01*
X51264109Y-110695564D01*
X51793704Y-110166892D01*
X51821879Y-110099039D01*
X55558096Y-110099039D01*
X55718959Y-110487423D01*
X56094866Y-110902389D01*
X56600959Y-111141914D01*
X56823000Y-111020629D01*
X56823000Y-109877000D01*
X57077000Y-109877000D01*
X57077000Y-111020629D01*
X57299041Y-111141914D01*
X57805134Y-110902389D01*
X58181041Y-110487423D01*
X58341904Y-110099039D01*
X62158096Y-110099039D01*
X62318959Y-110487423D01*
X62694866Y-110902389D01*
X63200959Y-111141914D01*
X63423000Y-111020629D01*
X63423000Y-109877000D01*
X63677000Y-109877000D01*
X63677000Y-111020629D01*
X63899041Y-111141914D01*
X64405134Y-110902389D01*
X64781041Y-110487423D01*
X64941904Y-110099039D01*
X64819915Y-109877000D01*
X63677000Y-109877000D01*
X63423000Y-109877000D01*
X62280085Y-109877000D01*
X62158096Y-110099039D01*
X58341904Y-110099039D01*
X58219915Y-109877000D01*
X57077000Y-109877000D01*
X56823000Y-109877000D01*
X55680085Y-109877000D01*
X55558096Y-110099039D01*
X51821879Y-110099039D01*
X52080673Y-109475796D01*
X52080738Y-109400961D01*
X55558096Y-109400961D01*
X55680085Y-109623000D01*
X56823000Y-109623000D01*
X56823000Y-108479371D01*
X57077000Y-108479371D01*
X57077000Y-109623000D01*
X58219915Y-109623000D01*
X58341904Y-109400961D01*
X62158096Y-109400961D01*
X62280085Y-109623000D01*
X63423000Y-109623000D01*
X63423000Y-108479371D01*
X63677000Y-108479371D01*
X63677000Y-109623000D01*
X64819915Y-109623000D01*
X64912773Y-109453983D01*
X82048804Y-109453983D01*
X82220625Y-109869823D01*
X82538503Y-110188256D01*
X82954043Y-110360804D01*
X83403983Y-110361196D01*
X83819823Y-110189375D01*
X84138256Y-109871497D01*
X84179889Y-109771234D01*
X84220625Y-109869823D01*
X84538503Y-110188256D01*
X84954043Y-110360804D01*
X85403983Y-110361196D01*
X85819823Y-110189375D01*
X86138256Y-109871497D01*
X86179889Y-109771234D01*
X86220625Y-109869823D01*
X86538503Y-110188256D01*
X86954043Y-110360804D01*
X87403983Y-110361196D01*
X87819823Y-110189375D01*
X88138256Y-109871497D01*
X88179889Y-109771234D01*
X88220625Y-109869823D01*
X88538503Y-110188256D01*
X88954043Y-110360804D01*
X89403983Y-110361196D01*
X89819823Y-110189375D01*
X90138256Y-109871497D01*
X90303929Y-109472513D01*
X94418674Y-109472513D01*
X94704436Y-110164109D01*
X95233108Y-110693704D01*
X95924204Y-110980673D01*
X96672513Y-110981326D01*
X97364109Y-110695564D01*
X97893704Y-110166892D01*
X98180673Y-109475796D01*
X98181326Y-108727487D01*
X97895564Y-108035891D01*
X97366892Y-107506296D01*
X96675796Y-107219327D01*
X95927487Y-107218674D01*
X95235891Y-107504436D01*
X94706296Y-108033108D01*
X94419327Y-108724204D01*
X94418674Y-109472513D01*
X90303929Y-109472513D01*
X90310804Y-109455957D01*
X90311196Y-109006017D01*
X90139375Y-108590177D01*
X89821497Y-108271744D01*
X89405957Y-108099196D01*
X88956017Y-108098804D01*
X88540177Y-108270625D01*
X88221744Y-108588503D01*
X88180111Y-108688766D01*
X88139375Y-108590177D01*
X87821497Y-108271744D01*
X87405957Y-108099196D01*
X86956017Y-108098804D01*
X86540177Y-108270625D01*
X86221744Y-108588503D01*
X86180111Y-108688766D01*
X86139375Y-108590177D01*
X85821497Y-108271744D01*
X85405957Y-108099196D01*
X84956017Y-108098804D01*
X84540177Y-108270625D01*
X84221744Y-108588503D01*
X84180111Y-108688766D01*
X84139375Y-108590177D01*
X83821497Y-108271744D01*
X83405957Y-108099196D01*
X82956017Y-108098804D01*
X82540177Y-108270625D01*
X82221744Y-108588503D01*
X82049196Y-109004043D01*
X82048804Y-109453983D01*
X64912773Y-109453983D01*
X64941904Y-109400961D01*
X64781041Y-109012577D01*
X64405134Y-108597611D01*
X63899041Y-108358086D01*
X63677000Y-108479371D01*
X63423000Y-108479371D01*
X63200959Y-108358086D01*
X62694866Y-108597611D01*
X62318959Y-109012577D01*
X62158096Y-109400961D01*
X58341904Y-109400961D01*
X58181041Y-109012577D01*
X57846578Y-108643361D01*
X60025975Y-108643361D01*
X60135950Y-108909521D01*
X60339408Y-109113335D01*
X60605376Y-109223774D01*
X60893361Y-109224025D01*
X61159521Y-109114050D01*
X61363335Y-108910592D01*
X61473774Y-108644624D01*
X61474025Y-108356639D01*
X61364050Y-108090479D01*
X61160592Y-107886665D01*
X60894624Y-107776226D01*
X60606639Y-107775975D01*
X60340479Y-107885950D01*
X60136665Y-108089408D01*
X60026226Y-108355376D01*
X60025975Y-108643361D01*
X57846578Y-108643361D01*
X57805134Y-108597611D01*
X57299041Y-108358086D01*
X57077000Y-108479371D01*
X56823000Y-108479371D01*
X56600959Y-108358086D01*
X56094866Y-108597611D01*
X55718959Y-109012577D01*
X55558096Y-109400961D01*
X52080738Y-109400961D01*
X52081326Y-108727487D01*
X52046566Y-108643361D01*
X53775975Y-108643361D01*
X53885950Y-108909521D01*
X54089408Y-109113335D01*
X54355376Y-109223774D01*
X54643361Y-109224025D01*
X54909521Y-109114050D01*
X55113335Y-108910592D01*
X55223774Y-108644624D01*
X55224025Y-108356639D01*
X55114050Y-108090479D01*
X54910592Y-107886665D01*
X54644624Y-107776226D01*
X54356639Y-107775975D01*
X54090479Y-107885950D01*
X53886665Y-108089408D01*
X53776226Y-108355376D01*
X53775975Y-108643361D01*
X52046566Y-108643361D01*
X51795564Y-108035891D01*
X51266892Y-107506296D01*
X50575796Y-107219327D01*
X49827487Y-107218674D01*
X49135891Y-107504436D01*
X48606296Y-108033108D01*
X48319327Y-108724204D01*
X48318674Y-109472513D01*
X47056000Y-109472513D01*
X47056000Y-105833361D01*
X58865975Y-105833361D01*
X58975950Y-106099521D01*
X59179408Y-106303335D01*
X59445376Y-106413774D01*
X59733361Y-106414025D01*
X59999521Y-106304050D01*
X60203335Y-106100592D01*
X60242530Y-106006200D01*
X60389408Y-106153335D01*
X60655376Y-106263774D01*
X60943361Y-106264025D01*
X61209521Y-106154050D01*
X61413335Y-105950592D01*
X61523774Y-105684624D01*
X61524025Y-105396639D01*
X61414050Y-105130479D01*
X61210592Y-104926665D01*
X60944624Y-104816226D01*
X60656639Y-104815975D01*
X60390479Y-104925950D01*
X60186665Y-105129408D01*
X60147470Y-105223800D01*
X60000592Y-105076665D01*
X59734624Y-104966226D01*
X59446639Y-104965975D01*
X59180479Y-105075950D01*
X58976665Y-105279408D01*
X58866226Y-105545376D01*
X58865975Y-105833361D01*
X47056000Y-105833361D01*
X47056000Y-102922944D01*
X47894025Y-102922944D01*
X48093615Y-103404818D01*
X48531621Y-103877188D01*
X49117054Y-104145983D01*
X49373000Y-104027367D01*
X49373000Y-102667000D01*
X49627000Y-102667000D01*
X49627000Y-104027367D01*
X49882946Y-104145983D01*
X50468379Y-103877188D01*
X50906385Y-103404818D01*
X51105975Y-102922944D01*
X50986836Y-102667000D01*
X49627000Y-102667000D01*
X49373000Y-102667000D01*
X48013164Y-102667000D01*
X47894025Y-102922944D01*
X47056000Y-102922944D01*
X47056000Y-102157056D01*
X47894025Y-102157056D01*
X48013164Y-102413000D01*
X49373000Y-102413000D01*
X49373000Y-102393000D01*
X49627000Y-102393000D01*
X49627000Y-102413000D01*
X50986836Y-102413000D01*
X50995977Y-102393361D01*
X87275975Y-102393361D01*
X87385950Y-102659521D01*
X87589408Y-102863335D01*
X87855376Y-102973774D01*
X88143361Y-102974025D01*
X88409521Y-102864050D01*
X88613335Y-102660592D01*
X88723774Y-102394624D01*
X88723992Y-102143361D01*
X90775975Y-102143361D01*
X90885950Y-102409521D01*
X91089408Y-102613335D01*
X91355376Y-102723774D01*
X91643361Y-102724025D01*
X91909521Y-102614050D01*
X92104886Y-102419026D01*
X95322642Y-102419026D01*
X95325291Y-102434791D01*
X95579268Y-102962036D01*
X96015680Y-103351954D01*
X96568087Y-103545184D01*
X96803000Y-103400924D01*
X96803000Y-102187000D01*
X97057000Y-102187000D01*
X97057000Y-103400924D01*
X97291913Y-103545184D01*
X97844320Y-103351954D01*
X98280732Y-102962036D01*
X98534709Y-102434791D01*
X98537358Y-102419026D01*
X98416217Y-102187000D01*
X97057000Y-102187000D01*
X96803000Y-102187000D01*
X95443783Y-102187000D01*
X95322642Y-102419026D01*
X92104886Y-102419026D01*
X92113335Y-102410592D01*
X92223774Y-102144624D01*
X92224025Y-101856639D01*
X92159706Y-101700974D01*
X95322642Y-101700974D01*
X95443783Y-101933000D01*
X96803000Y-101933000D01*
X96803000Y-101913000D01*
X97057000Y-101913000D01*
X97057000Y-101933000D01*
X98416217Y-101933000D01*
X98537358Y-101700974D01*
X98534709Y-101685209D01*
X98280732Y-101157964D01*
X97844320Y-100768046D01*
X97571757Y-100672704D01*
X97586057Y-100669860D01*
X97989834Y-100400065D01*
X98259629Y-99996288D01*
X98354369Y-99520000D01*
X98259629Y-99043712D01*
X97989834Y-98639935D01*
X97586057Y-98370140D01*
X97109769Y-98275400D01*
X96750231Y-98275400D01*
X96273943Y-98370140D01*
X95870166Y-98639935D01*
X95600371Y-99043712D01*
X95505631Y-99520000D01*
X95600371Y-99996288D01*
X95870166Y-100400065D01*
X96273943Y-100669860D01*
X96288243Y-100672704D01*
X96015680Y-100768046D01*
X95579268Y-101157964D01*
X95325291Y-101685209D01*
X95322642Y-101700974D01*
X92159706Y-101700974D01*
X92114050Y-101590479D01*
X91910592Y-101386665D01*
X91644624Y-101276226D01*
X91356639Y-101275975D01*
X91090479Y-101385950D01*
X90886665Y-101589408D01*
X90776226Y-101855376D01*
X90775975Y-102143361D01*
X88723992Y-102143361D01*
X88724025Y-102106639D01*
X88614050Y-101840479D01*
X88410592Y-101636665D01*
X88144624Y-101526226D01*
X87856639Y-101525975D01*
X87590479Y-101635950D01*
X87386665Y-101839408D01*
X87276226Y-102105376D01*
X87275975Y-102393361D01*
X50995977Y-102393361D01*
X51105975Y-102157056D01*
X50906385Y-101675182D01*
X50634658Y-101382137D01*
X50657190Y-101377897D01*
X50786865Y-101294454D01*
X50873859Y-101167134D01*
X50904464Y-101016000D01*
X50904464Y-98984000D01*
X50877897Y-98842810D01*
X50794454Y-98713135D01*
X50667134Y-98626141D01*
X50516000Y-98595536D01*
X48484000Y-98595536D01*
X48342810Y-98622103D01*
X48213135Y-98705546D01*
X48126141Y-98832866D01*
X48095536Y-98984000D01*
X48095536Y-101016000D01*
X48122103Y-101157190D01*
X48205546Y-101286865D01*
X48332866Y-101373859D01*
X48366670Y-101380704D01*
X48093615Y-101675182D01*
X47894025Y-102157056D01*
X47056000Y-102157056D01*
X47056000Y-97583361D01*
X70585975Y-97583361D01*
X70695950Y-97849521D01*
X70899408Y-98053335D01*
X71165376Y-98163774D01*
X71453361Y-98164025D01*
X71719521Y-98054050D01*
X71910128Y-97863776D01*
X72069408Y-98023335D01*
X72335376Y-98133774D01*
X72623361Y-98134025D01*
X72889521Y-98024050D01*
X73093335Y-97820592D01*
X73203774Y-97554624D01*
X73203958Y-97343361D01*
X93575975Y-97343361D01*
X93685950Y-97609521D01*
X93889408Y-97813335D01*
X94155376Y-97923774D01*
X94443361Y-97924025D01*
X94709521Y-97814050D01*
X94913335Y-97610592D01*
X95023774Y-97344624D01*
X95024025Y-97056639D01*
X94992359Y-96980000D01*
X95505631Y-96980000D01*
X95600371Y-97456288D01*
X95870166Y-97860065D01*
X96273943Y-98129860D01*
X96750231Y-98224600D01*
X97109769Y-98224600D01*
X97586057Y-98129860D01*
X97989834Y-97860065D01*
X98259629Y-97456288D01*
X98354369Y-96980000D01*
X98259629Y-96503712D01*
X97989834Y-96099935D01*
X97586057Y-95830140D01*
X97109769Y-95735400D01*
X96750231Y-95735400D01*
X96273943Y-95830140D01*
X95870166Y-96099935D01*
X95600371Y-96503712D01*
X95505631Y-96980000D01*
X94992359Y-96980000D01*
X94914050Y-96790479D01*
X94710592Y-96586665D01*
X94444624Y-96476226D01*
X94156639Y-96475975D01*
X93890479Y-96585950D01*
X93686665Y-96789408D01*
X93576226Y-97055376D01*
X93575975Y-97343361D01*
X73203958Y-97343361D01*
X73204025Y-97266639D01*
X73094050Y-97000479D01*
X72890592Y-96796665D01*
X72624624Y-96686226D01*
X72336639Y-96685975D01*
X72070479Y-96795950D01*
X71879872Y-96986224D01*
X71720592Y-96826665D01*
X71454624Y-96716226D01*
X71166639Y-96715975D01*
X70900479Y-96825950D01*
X70696665Y-97029408D01*
X70586226Y-97295376D01*
X70585975Y-97583361D01*
X47056000Y-97583361D01*
X47056000Y-96080000D01*
X48075631Y-96080000D01*
X48170371Y-96556288D01*
X48440166Y-96960065D01*
X48843943Y-97229860D01*
X49320231Y-97324600D01*
X49679769Y-97324600D01*
X50156057Y-97229860D01*
X50559834Y-96960065D01*
X50829629Y-96556288D01*
X50924369Y-96080000D01*
X50851440Y-95713361D01*
X76545975Y-95713361D01*
X76655950Y-95979521D01*
X76859408Y-96183335D01*
X77125376Y-96293774D01*
X77413361Y-96294025D01*
X77679521Y-96184050D01*
X77883335Y-95980592D01*
X77993774Y-95714624D01*
X77994025Y-95426639D01*
X77938956Y-95293361D01*
X93925975Y-95293361D01*
X94035950Y-95559521D01*
X94239408Y-95763335D01*
X94505376Y-95873774D01*
X94793361Y-95874025D01*
X95059521Y-95764050D01*
X95263335Y-95560592D01*
X95373774Y-95294624D01*
X95374025Y-95006639D01*
X95264050Y-94740479D01*
X95060592Y-94536665D01*
X94827796Y-94440000D01*
X95505631Y-94440000D01*
X95600371Y-94916288D01*
X95870166Y-95320065D01*
X96273943Y-95589860D01*
X96750231Y-95684600D01*
X97109769Y-95684600D01*
X97586057Y-95589860D01*
X97989834Y-95320065D01*
X98259629Y-94916288D01*
X98354369Y-94440000D01*
X98259629Y-93963712D01*
X97989834Y-93559935D01*
X97586057Y-93290140D01*
X97109769Y-93195400D01*
X96750231Y-93195400D01*
X96273943Y-93290140D01*
X95870166Y-93559935D01*
X95600371Y-93963712D01*
X95505631Y-94440000D01*
X94827796Y-94440000D01*
X94794624Y-94426226D01*
X94506639Y-94425975D01*
X94240479Y-94535950D01*
X94036665Y-94739408D01*
X93926226Y-95005376D01*
X93925975Y-95293361D01*
X77938956Y-95293361D01*
X77884050Y-95160479D01*
X77680592Y-94956665D01*
X77414624Y-94846226D01*
X77126639Y-94845975D01*
X76860479Y-94955950D01*
X76656665Y-95159408D01*
X76546226Y-95425376D01*
X76545975Y-95713361D01*
X50851440Y-95713361D01*
X50829629Y-95603712D01*
X50559834Y-95199935D01*
X50156057Y-94930140D01*
X49679769Y-94835400D01*
X49320231Y-94835400D01*
X48843943Y-94930140D01*
X48440166Y-95199935D01*
X48170371Y-95603712D01*
X48075631Y-96080000D01*
X47056000Y-96080000D01*
X47056000Y-93540000D01*
X48075631Y-93540000D01*
X48170371Y-94016288D01*
X48440166Y-94420065D01*
X48843943Y-94689860D01*
X49320231Y-94784600D01*
X49679769Y-94784600D01*
X50156057Y-94689860D01*
X50524969Y-94443361D01*
X63325975Y-94443361D01*
X63435950Y-94709521D01*
X63639408Y-94913335D01*
X63905376Y-95023774D01*
X64193361Y-95024025D01*
X64459521Y-94914050D01*
X64663335Y-94710592D01*
X64773774Y-94444624D01*
X64774025Y-94156639D01*
X64710692Y-94003361D01*
X75215975Y-94003361D01*
X75325950Y-94269521D01*
X75529408Y-94473335D01*
X75795376Y-94583774D01*
X76083361Y-94584025D01*
X76349521Y-94474050D01*
X76553335Y-94270592D01*
X76663774Y-94004624D01*
X76663958Y-93793361D01*
X93725975Y-93793361D01*
X93835950Y-94059521D01*
X94039408Y-94263335D01*
X94305376Y-94373774D01*
X94593361Y-94374025D01*
X94859521Y-94264050D01*
X95063335Y-94060592D01*
X95173774Y-93794624D01*
X95174025Y-93506639D01*
X95064050Y-93240479D01*
X94860592Y-93036665D01*
X94594624Y-92926226D01*
X94306639Y-92925975D01*
X94040479Y-93035950D01*
X93836665Y-93239408D01*
X93726226Y-93505376D01*
X93725975Y-93793361D01*
X76663958Y-93793361D01*
X76664025Y-93716639D01*
X76554050Y-93450479D01*
X76350592Y-93246665D01*
X76084624Y-93136226D01*
X75796639Y-93135975D01*
X75530479Y-93245950D01*
X75326665Y-93449408D01*
X75216226Y-93715376D01*
X75215975Y-94003361D01*
X64710692Y-94003361D01*
X64664050Y-93890479D01*
X64460592Y-93686665D01*
X64194624Y-93576226D01*
X63906639Y-93575975D01*
X63640479Y-93685950D01*
X63436665Y-93889408D01*
X63326226Y-94155376D01*
X63325975Y-94443361D01*
X50524969Y-94443361D01*
X50559834Y-94420065D01*
X50829629Y-94016288D01*
X50924369Y-93540000D01*
X50829629Y-93063712D01*
X50559834Y-92659935D01*
X50220742Y-92433361D01*
X66775975Y-92433361D01*
X66885950Y-92699521D01*
X67089408Y-92903335D01*
X67355376Y-93013774D01*
X67643361Y-93014025D01*
X67909521Y-92904050D01*
X68113335Y-92700592D01*
X68223774Y-92434624D01*
X68224025Y-92146639D01*
X68114050Y-91880479D01*
X67927259Y-91693361D01*
X92575975Y-91693361D01*
X92685950Y-91959521D01*
X92889408Y-92163335D01*
X93155376Y-92273774D01*
X93443361Y-92274025D01*
X93709521Y-92164050D01*
X93913335Y-91960592D01*
X93938494Y-91900000D01*
X95505631Y-91900000D01*
X95600371Y-92376288D01*
X95870166Y-92780065D01*
X96273943Y-93049860D01*
X96750231Y-93144600D01*
X97109769Y-93144600D01*
X97586057Y-93049860D01*
X97989834Y-92780065D01*
X98259629Y-92376288D01*
X98354369Y-91900000D01*
X98259629Y-91423712D01*
X97989834Y-91019935D01*
X97586057Y-90750140D01*
X97109769Y-90655400D01*
X96750231Y-90655400D01*
X96273943Y-90750140D01*
X95870166Y-91019935D01*
X95600371Y-91423712D01*
X95505631Y-91900000D01*
X93938494Y-91900000D01*
X94023774Y-91694624D01*
X94024025Y-91406639D01*
X93914050Y-91140479D01*
X93710592Y-90936665D01*
X93444624Y-90826226D01*
X93156639Y-90825975D01*
X92890479Y-90935950D01*
X92686665Y-91139408D01*
X92576226Y-91405376D01*
X92575975Y-91693361D01*
X67927259Y-91693361D01*
X67910592Y-91676665D01*
X67644624Y-91566226D01*
X67356639Y-91565975D01*
X67090479Y-91675950D01*
X66886665Y-91879408D01*
X66776226Y-92145376D01*
X66775975Y-92433361D01*
X50220742Y-92433361D01*
X50156057Y-92390140D01*
X49679769Y-92295400D01*
X49320231Y-92295400D01*
X48843943Y-92390140D01*
X48440166Y-92659935D01*
X48170371Y-93063712D01*
X48075631Y-93540000D01*
X47056000Y-93540000D01*
X47056000Y-90136400D01*
X48095536Y-90136400D01*
X48095536Y-91863600D01*
X48122103Y-92004790D01*
X48205546Y-92134465D01*
X48332866Y-92221459D01*
X48484000Y-92252064D01*
X50516000Y-92252064D01*
X50657190Y-92225497D01*
X50786865Y-92142054D01*
X50873859Y-92014734D01*
X50904464Y-91863600D01*
X50904464Y-90136400D01*
X50877897Y-89995210D01*
X50794454Y-89865535D01*
X50688824Y-89793361D01*
X69875975Y-89793361D01*
X69985950Y-90059521D01*
X70189408Y-90263335D01*
X70455376Y-90373774D01*
X70743361Y-90374025D01*
X71009521Y-90264050D01*
X71213335Y-90060592D01*
X71323774Y-89794624D01*
X71324025Y-89506639D01*
X71310275Y-89473361D01*
X75355975Y-89473361D01*
X75465950Y-89739521D01*
X75669408Y-89943335D01*
X75935376Y-90053774D01*
X76223361Y-90054025D01*
X76489521Y-89944050D01*
X76693335Y-89740592D01*
X76803774Y-89474624D01*
X76803844Y-89393361D01*
X92775975Y-89393361D01*
X92885950Y-89659521D01*
X93089408Y-89863335D01*
X93355376Y-89973774D01*
X93643361Y-89974025D01*
X93909521Y-89864050D01*
X94113335Y-89660592D01*
X94223774Y-89394624D01*
X94223804Y-89360000D01*
X95505631Y-89360000D01*
X95600371Y-89836288D01*
X95870166Y-90240065D01*
X96273943Y-90509860D01*
X96750231Y-90604600D01*
X97109769Y-90604600D01*
X97586057Y-90509860D01*
X97989834Y-90240065D01*
X98259629Y-89836288D01*
X98354369Y-89360000D01*
X98259629Y-88883712D01*
X97989834Y-88479935D01*
X97586057Y-88210140D01*
X97109769Y-88115400D01*
X96750231Y-88115400D01*
X96273943Y-88210140D01*
X95870166Y-88479935D01*
X95600371Y-88883712D01*
X95505631Y-89360000D01*
X94223804Y-89360000D01*
X94224025Y-89106639D01*
X94114050Y-88840479D01*
X93910592Y-88636665D01*
X93644624Y-88526226D01*
X93356639Y-88525975D01*
X93090479Y-88635950D01*
X92886665Y-88839408D01*
X92776226Y-89105376D01*
X92775975Y-89393361D01*
X76803844Y-89393361D01*
X76804025Y-89186639D01*
X76694050Y-88920479D01*
X76490592Y-88716665D01*
X76224624Y-88606226D01*
X75936639Y-88605975D01*
X75670479Y-88715950D01*
X75466665Y-88919408D01*
X75356226Y-89185376D01*
X75355975Y-89473361D01*
X71310275Y-89473361D01*
X71214050Y-89240479D01*
X71010592Y-89036665D01*
X70744624Y-88926226D01*
X70456639Y-88925975D01*
X70190479Y-89035950D01*
X69986665Y-89239408D01*
X69876226Y-89505376D01*
X69875975Y-89793361D01*
X50688824Y-89793361D01*
X50667134Y-89778541D01*
X50516000Y-89747936D01*
X48484000Y-89747936D01*
X48342810Y-89774503D01*
X48213135Y-89857946D01*
X48126141Y-89985266D01*
X48095536Y-90136400D01*
X47056000Y-90136400D01*
X47056000Y-86979026D01*
X47892642Y-86979026D01*
X47895291Y-86994791D01*
X48149268Y-87522036D01*
X48585680Y-87911954D01*
X49138087Y-88105184D01*
X49373000Y-87960924D01*
X49373000Y-86747000D01*
X49627000Y-86747000D01*
X49627000Y-87960924D01*
X49861913Y-88105184D01*
X50414320Y-87911954D01*
X50770902Y-87593361D01*
X87575975Y-87593361D01*
X87685950Y-87859521D01*
X87889408Y-88063335D01*
X88155376Y-88173774D01*
X88426123Y-88174010D01*
X88425975Y-88343361D01*
X88535950Y-88609521D01*
X88739408Y-88813335D01*
X89005376Y-88923774D01*
X89293361Y-88924025D01*
X89559521Y-88814050D01*
X89763335Y-88610592D01*
X89873774Y-88344624D01*
X89874025Y-88056639D01*
X89764050Y-87790479D01*
X89560592Y-87586665D01*
X89294624Y-87476226D01*
X89023877Y-87475990D01*
X89024025Y-87306639D01*
X88914050Y-87040479D01*
X88767189Y-86893361D01*
X92475975Y-86893361D01*
X92585950Y-87159521D01*
X92789408Y-87363335D01*
X93055376Y-87473774D01*
X93343361Y-87474025D01*
X93609521Y-87364050D01*
X93813335Y-87160592D01*
X93923774Y-86894624D01*
X93923839Y-86820000D01*
X95505631Y-86820000D01*
X95600371Y-87296288D01*
X95870166Y-87700065D01*
X96273943Y-87969860D01*
X96750231Y-88064600D01*
X97109769Y-88064600D01*
X97586057Y-87969860D01*
X97989834Y-87700065D01*
X98259629Y-87296288D01*
X98354369Y-86820000D01*
X98259629Y-86343712D01*
X97989834Y-85939935D01*
X97586057Y-85670140D01*
X97109769Y-85575400D01*
X96750231Y-85575400D01*
X96273943Y-85670140D01*
X95870166Y-85939935D01*
X95600371Y-86343712D01*
X95505631Y-86820000D01*
X93923839Y-86820000D01*
X93924025Y-86606639D01*
X93814050Y-86340479D01*
X93610592Y-86136665D01*
X93344624Y-86026226D01*
X93056639Y-86025975D01*
X92790479Y-86135950D01*
X92586665Y-86339408D01*
X92476226Y-86605376D01*
X92475975Y-86893361D01*
X88767189Y-86893361D01*
X88710592Y-86836665D01*
X88444624Y-86726226D01*
X88156639Y-86725975D01*
X87890479Y-86835950D01*
X87686665Y-87039408D01*
X87576226Y-87305376D01*
X87575975Y-87593361D01*
X50770902Y-87593361D01*
X50850732Y-87522036D01*
X51104709Y-86994791D01*
X51107358Y-86979026D01*
X50986217Y-86747000D01*
X49627000Y-86747000D01*
X49373000Y-86747000D01*
X48013783Y-86747000D01*
X47892642Y-86979026D01*
X47056000Y-86979026D01*
X47056000Y-86260974D01*
X47892642Y-86260974D01*
X48013783Y-86493000D01*
X49373000Y-86493000D01*
X49373000Y-86473000D01*
X49627000Y-86473000D01*
X49627000Y-86493000D01*
X50986217Y-86493000D01*
X51107358Y-86260974D01*
X51104709Y-86245209D01*
X51060466Y-86153361D01*
X75905975Y-86153361D01*
X76015950Y-86419521D01*
X76219408Y-86623335D01*
X76485376Y-86733774D01*
X76773361Y-86734025D01*
X77039521Y-86624050D01*
X77243335Y-86420592D01*
X77353774Y-86154624D01*
X77353923Y-85983361D01*
X79975975Y-85983361D01*
X80085950Y-86249521D01*
X80289408Y-86453335D01*
X80555376Y-86563774D01*
X80843361Y-86564025D01*
X81109521Y-86454050D01*
X81313335Y-86250592D01*
X81423774Y-85984624D01*
X81424025Y-85696639D01*
X81314050Y-85430479D01*
X81110592Y-85226665D01*
X80844624Y-85116226D01*
X80556639Y-85115975D01*
X80290479Y-85225950D01*
X80086665Y-85429408D01*
X79976226Y-85695376D01*
X79975975Y-85983361D01*
X77353923Y-85983361D01*
X77354025Y-85866639D01*
X77244050Y-85600479D01*
X77040592Y-85396665D01*
X76774624Y-85286226D01*
X76486639Y-85285975D01*
X76220479Y-85395950D01*
X76016665Y-85599408D01*
X75906226Y-85865376D01*
X75905975Y-86153361D01*
X51060466Y-86153361D01*
X50850732Y-85717964D01*
X50414320Y-85328046D01*
X50141757Y-85232704D01*
X50156057Y-85229860D01*
X50559834Y-84960065D01*
X50829629Y-84556288D01*
X50924369Y-84080000D01*
X50897190Y-83943361D01*
X53025975Y-83943361D01*
X53135950Y-84209521D01*
X53339408Y-84413335D01*
X53605376Y-84523774D01*
X53893361Y-84524025D01*
X54159521Y-84414050D01*
X54293805Y-84280000D01*
X95505631Y-84280000D01*
X95600371Y-84756288D01*
X95870166Y-85160065D01*
X96273943Y-85429860D01*
X96750231Y-85524600D01*
X97109769Y-85524600D01*
X97586057Y-85429860D01*
X97989834Y-85160065D01*
X98259629Y-84756288D01*
X98354369Y-84280000D01*
X98259629Y-83803712D01*
X97989834Y-83399935D01*
X97586057Y-83130140D01*
X97109769Y-83035400D01*
X96750231Y-83035400D01*
X96273943Y-83130140D01*
X95870166Y-83399935D01*
X95600371Y-83803712D01*
X95505631Y-84280000D01*
X54293805Y-84280000D01*
X54363335Y-84210592D01*
X54473774Y-83944624D01*
X54474025Y-83656639D01*
X54364050Y-83390479D01*
X54160592Y-83186665D01*
X53894624Y-83076226D01*
X53606639Y-83075975D01*
X53340479Y-83185950D01*
X53136665Y-83389408D01*
X53026226Y-83655376D01*
X53025975Y-83943361D01*
X50897190Y-83943361D01*
X50829629Y-83603712D01*
X50559834Y-83199935D01*
X50156057Y-82930140D01*
X49679769Y-82835400D01*
X49320231Y-82835400D01*
X48843943Y-82930140D01*
X48440166Y-83199935D01*
X48170371Y-83603712D01*
X48075631Y-84080000D01*
X48170371Y-84556288D01*
X48440166Y-84960065D01*
X48843943Y-85229860D01*
X48858243Y-85232704D01*
X48585680Y-85328046D01*
X48149268Y-85717964D01*
X47895291Y-86245209D01*
X47892642Y-86260974D01*
X47056000Y-86260974D01*
X47056000Y-81540000D01*
X48075631Y-81540000D01*
X48170371Y-82016288D01*
X48440166Y-82420065D01*
X48843943Y-82689860D01*
X49320231Y-82784600D01*
X49679769Y-82784600D01*
X50156057Y-82689860D01*
X50559834Y-82420065D01*
X50577677Y-82393361D01*
X72025975Y-82393361D01*
X72135950Y-82659521D01*
X72339408Y-82863335D01*
X72605376Y-82973774D01*
X72893361Y-82974025D01*
X73159521Y-82864050D01*
X73363335Y-82660592D01*
X73473774Y-82394624D01*
X73473949Y-82193361D01*
X78425975Y-82193361D01*
X78535950Y-82459521D01*
X78739408Y-82663335D01*
X79005376Y-82773774D01*
X79293361Y-82774025D01*
X79559521Y-82664050D01*
X79763335Y-82460592D01*
X79772150Y-82439361D01*
X94271975Y-82439361D01*
X94381950Y-82705521D01*
X94585408Y-82909335D01*
X94851376Y-83019774D01*
X95139361Y-83020025D01*
X95405521Y-82910050D01*
X95609335Y-82706592D01*
X95719774Y-82440624D01*
X95719814Y-82395047D01*
X95870166Y-82620065D01*
X96273943Y-82889860D01*
X96750231Y-82984600D01*
X97109769Y-82984600D01*
X97586057Y-82889860D01*
X97989834Y-82620065D01*
X98259629Y-82216288D01*
X98354369Y-81740000D01*
X98259629Y-81263712D01*
X97989834Y-80859935D01*
X97586057Y-80590140D01*
X97109769Y-80495400D01*
X96750231Y-80495400D01*
X96273943Y-80590140D01*
X95870166Y-80859935D01*
X95600371Y-81263712D01*
X95505631Y-81740000D01*
X95516034Y-81792298D01*
X95406592Y-81682665D01*
X95140624Y-81572226D01*
X94852639Y-81571975D01*
X94586479Y-81681950D01*
X94382665Y-81885408D01*
X94272226Y-82151376D01*
X94271975Y-82439361D01*
X79772150Y-82439361D01*
X79873774Y-82194624D01*
X79874025Y-81906639D01*
X79764050Y-81640479D01*
X79560592Y-81436665D01*
X79294624Y-81326226D01*
X79006639Y-81325975D01*
X78740479Y-81435950D01*
X78536665Y-81639408D01*
X78426226Y-81905376D01*
X78425975Y-82193361D01*
X73473949Y-82193361D01*
X73474025Y-82106639D01*
X73364050Y-81840479D01*
X73160592Y-81636665D01*
X72894624Y-81526226D01*
X72606639Y-81525975D01*
X72340479Y-81635950D01*
X72136665Y-81839408D01*
X72026226Y-82105376D01*
X72025975Y-82393361D01*
X50577677Y-82393361D01*
X50829629Y-82016288D01*
X50924369Y-81540000D01*
X50829629Y-81063712D01*
X50559834Y-80659935D01*
X50156057Y-80390140D01*
X49679769Y-80295400D01*
X49320231Y-80295400D01*
X48843943Y-80390140D01*
X48440166Y-80659935D01*
X48170371Y-81063712D01*
X48075631Y-81540000D01*
X47056000Y-81540000D01*
X47056000Y-78136400D01*
X48095536Y-78136400D01*
X48095536Y-79863600D01*
X48122103Y-80004790D01*
X48205546Y-80134465D01*
X48332866Y-80221459D01*
X48484000Y-80252064D01*
X50516000Y-80252064D01*
X50657190Y-80225497D01*
X50784833Y-80143361D01*
X52025975Y-80143361D01*
X52135950Y-80409521D01*
X52339408Y-80613335D01*
X52605376Y-80723774D01*
X52893361Y-80724025D01*
X53159521Y-80614050D01*
X53363335Y-80410592D01*
X53374892Y-80382759D01*
X53385950Y-80409521D01*
X53589408Y-80613335D01*
X53855376Y-80723774D01*
X54143361Y-80724025D01*
X54409521Y-80614050D01*
X54410078Y-80613493D01*
X57318761Y-80613493D01*
X57528563Y-81121251D01*
X57916705Y-81510072D01*
X58424097Y-81720759D01*
X58973493Y-81721239D01*
X59481251Y-81511437D01*
X59500189Y-81492532D01*
X64227073Y-81492532D01*
X64325736Y-81759387D01*
X64935461Y-81985908D01*
X65585460Y-81961856D01*
X66074264Y-81759387D01*
X66172927Y-81492532D01*
X65200000Y-80519605D01*
X64227073Y-81492532D01*
X59500189Y-81492532D01*
X59870072Y-81123295D01*
X60080759Y-80615903D01*
X60081231Y-80075461D01*
X63554092Y-80075461D01*
X63578144Y-80725460D01*
X63780613Y-81214264D01*
X64047468Y-81312927D01*
X65020395Y-80340000D01*
X65379605Y-80340000D01*
X66352532Y-81312927D01*
X66619387Y-81214264D01*
X66845908Y-80604539D01*
X66821856Y-79954540D01*
X66821423Y-79953493D01*
X71908761Y-79953493D01*
X72118563Y-80461251D01*
X72506705Y-80850072D01*
X73014097Y-81060759D01*
X73563493Y-81061239D01*
X73969787Y-80893361D01*
X76075975Y-80893361D01*
X76185950Y-81159521D01*
X76389408Y-81363335D01*
X76655376Y-81473774D01*
X76943361Y-81474025D01*
X77209521Y-81364050D01*
X77413335Y-81160592D01*
X77523774Y-80894624D01*
X77524025Y-80606639D01*
X77414050Y-80340479D01*
X77210592Y-80136665D01*
X76944624Y-80026226D01*
X76656639Y-80025975D01*
X76390479Y-80135950D01*
X76186665Y-80339408D01*
X76076226Y-80605376D01*
X76075975Y-80893361D01*
X73969787Y-80893361D01*
X74071251Y-80851437D01*
X74460072Y-80463295D01*
X74670759Y-79955903D01*
X74670761Y-79953493D01*
X78408761Y-79953493D01*
X78618563Y-80461251D01*
X79006705Y-80850072D01*
X79514097Y-81060759D01*
X80063493Y-81061239D01*
X80571251Y-80851437D01*
X80960072Y-80463295D01*
X81170759Y-79955903D01*
X81171239Y-79406507D01*
X80961437Y-78898749D01*
X80573295Y-78509928D01*
X80155393Y-78336400D01*
X95525536Y-78336400D01*
X95525536Y-80063600D01*
X95552103Y-80204790D01*
X95635546Y-80334465D01*
X95762866Y-80421459D01*
X95914000Y-80452064D01*
X97946000Y-80452064D01*
X98087190Y-80425497D01*
X98216865Y-80342054D01*
X98303859Y-80214734D01*
X98334464Y-80063600D01*
X98334464Y-78336400D01*
X98307897Y-78195210D01*
X98224454Y-78065535D01*
X98097134Y-77978541D01*
X97946000Y-77947936D01*
X95914000Y-77947936D01*
X95772810Y-77974503D01*
X95643135Y-78057946D01*
X95556141Y-78185266D01*
X95525536Y-78336400D01*
X80155393Y-78336400D01*
X80065903Y-78299241D01*
X79516507Y-78298761D01*
X79008749Y-78508563D01*
X78619928Y-78896705D01*
X78409241Y-79404097D01*
X78408761Y-79953493D01*
X74670761Y-79953493D01*
X74671239Y-79406507D01*
X74461437Y-78898749D01*
X74073295Y-78509928D01*
X73565903Y-78299241D01*
X73016507Y-78298761D01*
X72508749Y-78508563D01*
X72119928Y-78896705D01*
X71909241Y-79404097D01*
X71908761Y-79953493D01*
X66821423Y-79953493D01*
X66619387Y-79465736D01*
X66352532Y-79367073D01*
X65379605Y-80340000D01*
X65020395Y-80340000D01*
X64047468Y-79367073D01*
X63780613Y-79465736D01*
X63554092Y-80075461D01*
X60081231Y-80075461D01*
X60081239Y-80066507D01*
X59871437Y-79558749D01*
X59500805Y-79187468D01*
X64227073Y-79187468D01*
X65200000Y-80160395D01*
X66172927Y-79187468D01*
X66074264Y-78920613D01*
X65464539Y-78694092D01*
X64814540Y-78718144D01*
X64325736Y-78920613D01*
X64227073Y-79187468D01*
X59500805Y-79187468D01*
X59483295Y-79169928D01*
X58975903Y-78959241D01*
X58426507Y-78958761D01*
X57918749Y-79168563D01*
X57529928Y-79556705D01*
X57319241Y-80064097D01*
X57318761Y-80613493D01*
X54410078Y-80613493D01*
X54613335Y-80410592D01*
X54723774Y-80144624D01*
X54724025Y-79856639D01*
X54614050Y-79590479D01*
X54410592Y-79386665D01*
X54144624Y-79276226D01*
X53856639Y-79275975D01*
X53590479Y-79385950D01*
X53386665Y-79589408D01*
X53375108Y-79617241D01*
X53364050Y-79590479D01*
X53160592Y-79386665D01*
X52894624Y-79276226D01*
X52606639Y-79275975D01*
X52340479Y-79385950D01*
X52136665Y-79589408D01*
X52026226Y-79855376D01*
X52025975Y-80143361D01*
X50784833Y-80143361D01*
X50786865Y-80142054D01*
X50873859Y-80014734D01*
X50904464Y-79863600D01*
X50904464Y-78629361D01*
X51345975Y-78629361D01*
X51455950Y-78895521D01*
X51659408Y-79099335D01*
X51925376Y-79209774D01*
X52213361Y-79210025D01*
X52479521Y-79100050D01*
X52683335Y-78896592D01*
X52793774Y-78630624D01*
X52794025Y-78342639D01*
X52711686Y-78143361D01*
X69275975Y-78143361D01*
X69385950Y-78409521D01*
X69589408Y-78613335D01*
X69855376Y-78723774D01*
X70143361Y-78724025D01*
X70409521Y-78614050D01*
X70613335Y-78410592D01*
X70723774Y-78144624D01*
X70724025Y-77856639D01*
X70614050Y-77590479D01*
X70410592Y-77386665D01*
X70144624Y-77276226D01*
X69856639Y-77275975D01*
X69590479Y-77385950D01*
X69386665Y-77589408D01*
X69276226Y-77855376D01*
X69275975Y-78143361D01*
X52711686Y-78143361D01*
X52684050Y-78076479D01*
X52480592Y-77872665D01*
X52214624Y-77762226D01*
X51926639Y-77761975D01*
X51660479Y-77871950D01*
X51456665Y-78075408D01*
X51346226Y-78341376D01*
X51345975Y-78629361D01*
X50904464Y-78629361D01*
X50904464Y-78136400D01*
X50877897Y-77995210D01*
X50794454Y-77865535D01*
X50667134Y-77778541D01*
X50516000Y-77747936D01*
X48484000Y-77747936D01*
X48342810Y-77774503D01*
X48213135Y-77857946D01*
X48126141Y-77985266D01*
X48095536Y-78136400D01*
X47056000Y-78136400D01*
X47056000Y-76113493D01*
X57318761Y-76113493D01*
X57528563Y-76621251D01*
X57916705Y-77010072D01*
X58424097Y-77220759D01*
X58973493Y-77221239D01*
X59481251Y-77011437D01*
X59870072Y-76623295D01*
X60080759Y-76115903D01*
X60080761Y-76113493D01*
X63818761Y-76113493D01*
X64028563Y-76621251D01*
X64416705Y-77010072D01*
X64924097Y-77220759D01*
X65473493Y-77221239D01*
X65753938Y-77105361D01*
X91985975Y-77105361D01*
X92095950Y-77371521D01*
X92299408Y-77575335D01*
X92565376Y-77685774D01*
X92853361Y-77686025D01*
X93119521Y-77576050D01*
X93323335Y-77372592D01*
X93344917Y-77320617D01*
X93365950Y-77371521D01*
X93569408Y-77575335D01*
X93835376Y-77685774D01*
X94123361Y-77686025D01*
X94389521Y-77576050D01*
X94593335Y-77372592D01*
X94703774Y-77106624D01*
X94704025Y-76818639D01*
X94594050Y-76552479D01*
X94390592Y-76348665D01*
X94124624Y-76238226D01*
X93836639Y-76237975D01*
X93570479Y-76347950D01*
X93366665Y-76551408D01*
X93345083Y-76603383D01*
X93324050Y-76552479D01*
X93120592Y-76348665D01*
X92854624Y-76238226D01*
X92566639Y-76237975D01*
X92300479Y-76347950D01*
X92096665Y-76551408D01*
X91986226Y-76817376D01*
X91985975Y-77105361D01*
X65753938Y-77105361D01*
X65981251Y-77011437D01*
X66370072Y-76623295D01*
X66580759Y-76115903D01*
X66581004Y-75835361D01*
X66585975Y-75835361D01*
X66695950Y-76101521D01*
X66899408Y-76305335D01*
X67165376Y-76415774D01*
X67453361Y-76416025D01*
X67719521Y-76306050D01*
X67923335Y-76102592D01*
X68033774Y-75836624D01*
X68034025Y-75548639D01*
X67994712Y-75453493D01*
X71908761Y-75453493D01*
X72118563Y-75961251D01*
X72506705Y-76350072D01*
X73014097Y-76560759D01*
X73563493Y-76561239D01*
X74071251Y-76351437D01*
X74460072Y-75963295D01*
X74670759Y-75455903D01*
X74670761Y-75453493D01*
X78408761Y-75453493D01*
X78618563Y-75961251D01*
X79006705Y-76350072D01*
X79514097Y-76560759D01*
X80063493Y-76561239D01*
X80571251Y-76351437D01*
X80960072Y-75963295D01*
X81170759Y-75455903D01*
X81171239Y-74906507D01*
X80961437Y-74398749D01*
X80573295Y-74009928D01*
X80065903Y-73799241D01*
X79516507Y-73798761D01*
X79008749Y-74008563D01*
X78619928Y-74396705D01*
X78409241Y-74904097D01*
X78408761Y-75453493D01*
X74670761Y-75453493D01*
X74671239Y-74906507D01*
X74461437Y-74398749D01*
X74073295Y-74009928D01*
X73792570Y-73893361D01*
X77325975Y-73893361D01*
X77435950Y-74159521D01*
X77639408Y-74363335D01*
X77905376Y-74473774D01*
X78193361Y-74474025D01*
X78459521Y-74364050D01*
X78663335Y-74160592D01*
X78773774Y-73894624D01*
X78774025Y-73606639D01*
X78664050Y-73340479D01*
X78619011Y-73295361D01*
X94017975Y-73295361D01*
X94127950Y-73561521D01*
X94331408Y-73765335D01*
X94597376Y-73875774D01*
X94885361Y-73876025D01*
X95151521Y-73766050D01*
X95355335Y-73562592D01*
X95465774Y-73296624D01*
X95466025Y-73008639D01*
X95356050Y-72742479D01*
X95186812Y-72572944D01*
X95324025Y-72572944D01*
X95523615Y-73054818D01*
X95795342Y-73347863D01*
X95772810Y-73352103D01*
X95643135Y-73435546D01*
X95556141Y-73562866D01*
X95525536Y-73714000D01*
X95525536Y-75746000D01*
X95552103Y-75887190D01*
X95635546Y-76016865D01*
X95762866Y-76103859D01*
X95914000Y-76134464D01*
X97946000Y-76134464D01*
X98087190Y-76107897D01*
X98216865Y-76024454D01*
X98303859Y-75897134D01*
X98334464Y-75746000D01*
X98334464Y-73714000D01*
X98307897Y-73572810D01*
X98224454Y-73443135D01*
X98097134Y-73356141D01*
X98063330Y-73349296D01*
X98336385Y-73054818D01*
X98535975Y-72572944D01*
X98416836Y-72317000D01*
X97057000Y-72317000D01*
X97057000Y-72337000D01*
X96803000Y-72337000D01*
X96803000Y-72317000D01*
X95443164Y-72317000D01*
X95324025Y-72572944D01*
X95186812Y-72572944D01*
X95152592Y-72538665D01*
X94886624Y-72428226D01*
X94598639Y-72427975D01*
X94332479Y-72537950D01*
X94128665Y-72741408D01*
X94018226Y-73007376D01*
X94017975Y-73295361D01*
X78619011Y-73295361D01*
X78460592Y-73136665D01*
X78194624Y-73026226D01*
X77906639Y-73025975D01*
X77640479Y-73135950D01*
X77436665Y-73339408D01*
X77326226Y-73605376D01*
X77325975Y-73893361D01*
X73792570Y-73893361D01*
X73565903Y-73799241D01*
X73016507Y-73798761D01*
X72508749Y-74008563D01*
X72119928Y-74396705D01*
X71909241Y-74904097D01*
X71908761Y-75453493D01*
X67994712Y-75453493D01*
X67924050Y-75282479D01*
X67720592Y-75078665D01*
X67454624Y-74968226D01*
X67166639Y-74967975D01*
X66900479Y-75077950D01*
X66696665Y-75281408D01*
X66586226Y-75547376D01*
X66585975Y-75835361D01*
X66581004Y-75835361D01*
X66581239Y-75566507D01*
X66371437Y-75058749D01*
X65983295Y-74669928D01*
X65475903Y-74459241D01*
X64926507Y-74458761D01*
X64418749Y-74668563D01*
X64029928Y-75056705D01*
X63819241Y-75564097D01*
X63818761Y-76113493D01*
X60080761Y-76113493D01*
X60081239Y-75566507D01*
X59871437Y-75058749D01*
X59483295Y-74669928D01*
X58975903Y-74459241D01*
X58426507Y-74458761D01*
X57918749Y-74668563D01*
X57529928Y-75056705D01*
X57319241Y-75564097D01*
X57318761Y-76113493D01*
X47056000Y-76113493D01*
X47056000Y-73860000D01*
X48075631Y-73860000D01*
X48170371Y-74336288D01*
X48440166Y-74740065D01*
X48843943Y-75009860D01*
X49320231Y-75104600D01*
X49679769Y-75104600D01*
X50156057Y-75009860D01*
X50559834Y-74740065D01*
X50829629Y-74336288D01*
X50924369Y-73860000D01*
X50829629Y-73383712D01*
X50559834Y-72979935D01*
X50156057Y-72710140D01*
X49679769Y-72615400D01*
X49320231Y-72615400D01*
X48843943Y-72710140D01*
X48440166Y-72979935D01*
X48170371Y-73383712D01*
X48075631Y-73860000D01*
X47056000Y-73860000D01*
X47056000Y-71320000D01*
X48075631Y-71320000D01*
X48170371Y-71796288D01*
X48440166Y-72200065D01*
X48843943Y-72469860D01*
X49320231Y-72564600D01*
X49679769Y-72564600D01*
X50156057Y-72469860D01*
X50559834Y-72200065D01*
X50829629Y-71796288D01*
X50860048Y-71643361D01*
X73025975Y-71643361D01*
X73135950Y-71909521D01*
X73339408Y-72113335D01*
X73605376Y-72223774D01*
X73830790Y-72223970D01*
X73776226Y-72355376D01*
X73775975Y-72643361D01*
X73885950Y-72909521D01*
X74089408Y-73113335D01*
X74355376Y-73223774D01*
X74643361Y-73224025D01*
X74909521Y-73114050D01*
X75113335Y-72910592D01*
X75223774Y-72644624D01*
X75224025Y-72356639D01*
X75114050Y-72090479D01*
X74910592Y-71886665D01*
X74718872Y-71807056D01*
X95324025Y-71807056D01*
X95443164Y-72063000D01*
X96803000Y-72063000D01*
X96803000Y-70702633D01*
X97057000Y-70702633D01*
X97057000Y-72063000D01*
X98416836Y-72063000D01*
X98535975Y-71807056D01*
X98336385Y-71325182D01*
X97898379Y-70852812D01*
X97312946Y-70584017D01*
X97057000Y-70702633D01*
X96803000Y-70702633D01*
X96547054Y-70584017D01*
X95961621Y-70852812D01*
X95523615Y-71325182D01*
X95324025Y-71807056D01*
X74718872Y-71807056D01*
X74644624Y-71776226D01*
X74419210Y-71776030D01*
X74473774Y-71644624D01*
X74474025Y-71356639D01*
X74364050Y-71090479D01*
X74160592Y-70886665D01*
X73894624Y-70776226D01*
X73606639Y-70775975D01*
X73340479Y-70885950D01*
X73136665Y-71089408D01*
X73026226Y-71355376D01*
X73025975Y-71643361D01*
X50860048Y-71643361D01*
X50924369Y-71320000D01*
X50829629Y-70843712D01*
X50559834Y-70439935D01*
X50156057Y-70170140D01*
X49679769Y-70075400D01*
X49320231Y-70075400D01*
X48843943Y-70170140D01*
X48440166Y-70439935D01*
X48170371Y-70843712D01*
X48075631Y-71320000D01*
X47056000Y-71320000D01*
X47056000Y-68780000D01*
X48075631Y-68780000D01*
X48170371Y-69256288D01*
X48440166Y-69660065D01*
X48843943Y-69929860D01*
X49320231Y-70024600D01*
X49679769Y-70024600D01*
X50156057Y-69929860D01*
X50559834Y-69660065D01*
X50829629Y-69256288D01*
X50924369Y-68780000D01*
X50829629Y-68303712D01*
X50722486Y-68143361D01*
X68925975Y-68143361D01*
X69035950Y-68409521D01*
X69239408Y-68613335D01*
X69505376Y-68723774D01*
X69652198Y-68723902D01*
X69636665Y-68739408D01*
X69526226Y-69005376D01*
X69525975Y-69293361D01*
X69635950Y-69559521D01*
X69839408Y-69763335D01*
X70105376Y-69873774D01*
X70393361Y-69874025D01*
X70659521Y-69764050D01*
X70863335Y-69560592D01*
X70973774Y-69294624D01*
X70973905Y-69143361D01*
X70975975Y-69143361D01*
X71085950Y-69409521D01*
X71289408Y-69613335D01*
X71376725Y-69649592D01*
X71236665Y-69789408D01*
X71126226Y-70055376D01*
X71125975Y-70343361D01*
X71235950Y-70609521D01*
X71439408Y-70813335D01*
X71705376Y-70923774D01*
X71993361Y-70924025D01*
X72259521Y-70814050D01*
X72463335Y-70610592D01*
X72573774Y-70344624D01*
X72574025Y-70056639D01*
X72464050Y-69790479D01*
X72260592Y-69586665D01*
X72173275Y-69550408D01*
X72313335Y-69410592D01*
X72381020Y-69247589D01*
X72385950Y-69259521D01*
X72589408Y-69463335D01*
X72855376Y-69573774D01*
X73143361Y-69574025D01*
X73338582Y-69493361D01*
X74475975Y-69493361D01*
X74585950Y-69759521D01*
X74789408Y-69963335D01*
X75055376Y-70073774D01*
X75343361Y-70074025D01*
X75609521Y-69964050D01*
X75813335Y-69760592D01*
X75923774Y-69494624D01*
X75924025Y-69206639D01*
X75814050Y-68940479D01*
X75610592Y-68736665D01*
X75344624Y-68626226D01*
X75056639Y-68625975D01*
X74790479Y-68735950D01*
X74586665Y-68939408D01*
X74476226Y-69205376D01*
X74475975Y-69493361D01*
X73338582Y-69493361D01*
X73409521Y-69464050D01*
X73613335Y-69260592D01*
X73723774Y-68994624D01*
X73724025Y-68706639D01*
X73625984Y-68469361D01*
X76237975Y-68469361D01*
X76347950Y-68735521D01*
X76551408Y-68939335D01*
X76776072Y-69032623D01*
X76775975Y-69143361D01*
X76885950Y-69409521D01*
X77089408Y-69613335D01*
X77355376Y-69723774D01*
X77643361Y-69724025D01*
X77909521Y-69614050D01*
X78113335Y-69410592D01*
X78223774Y-69144624D01*
X78224025Y-68856639D01*
X78114050Y-68590479D01*
X77910592Y-68386665D01*
X77685928Y-68293377D01*
X77686025Y-68182639D01*
X77576050Y-67916479D01*
X77372592Y-67712665D01*
X77106624Y-67602226D01*
X76818639Y-67601975D01*
X76552479Y-67711950D01*
X76348665Y-67915408D01*
X76238226Y-68181376D01*
X76237975Y-68469361D01*
X73625984Y-68469361D01*
X73614050Y-68440479D01*
X73410592Y-68236665D01*
X73144624Y-68126226D01*
X73073834Y-68126164D01*
X73074025Y-67906639D01*
X72964050Y-67640479D01*
X72760592Y-67436665D01*
X72494624Y-67326226D01*
X72206639Y-67325975D01*
X71940479Y-67435950D01*
X71736665Y-67639408D01*
X71626226Y-67905376D01*
X71625975Y-68193361D01*
X71660148Y-68276065D01*
X71556639Y-68275975D01*
X71290479Y-68385950D01*
X71086665Y-68589408D01*
X70976226Y-68855376D01*
X70975975Y-69143361D01*
X70973905Y-69143361D01*
X70974025Y-69006639D01*
X70864050Y-68740479D01*
X70660592Y-68536665D01*
X70394624Y-68426226D01*
X70247802Y-68426098D01*
X70263335Y-68410592D01*
X70373774Y-68144624D01*
X70374025Y-67856639D01*
X70264050Y-67590479D01*
X70060592Y-67386665D01*
X69794624Y-67276226D01*
X69506639Y-67275975D01*
X69240479Y-67385950D01*
X69036665Y-67589408D01*
X68926226Y-67855376D01*
X68925975Y-68143361D01*
X50722486Y-68143361D01*
X50559834Y-67899935D01*
X50156057Y-67630140D01*
X49679769Y-67535400D01*
X49320231Y-67535400D01*
X48843943Y-67630140D01*
X48440166Y-67899935D01*
X48170371Y-68303712D01*
X48075631Y-68780000D01*
X47056000Y-68780000D01*
X47056000Y-66240000D01*
X48075631Y-66240000D01*
X48170371Y-66716288D01*
X48440166Y-67120065D01*
X48843943Y-67389860D01*
X49320231Y-67484600D01*
X49679769Y-67484600D01*
X50156057Y-67389860D01*
X50559834Y-67120065D01*
X50829629Y-66716288D01*
X50924369Y-66240000D01*
X50829629Y-65763712D01*
X50559834Y-65359935D01*
X50271627Y-65167361D01*
X52361975Y-65167361D01*
X52471950Y-65433521D01*
X52675408Y-65637335D01*
X52941376Y-65747774D01*
X53229361Y-65748025D01*
X53405221Y-65675361D01*
X53885975Y-65675361D01*
X53995950Y-65941521D01*
X54199408Y-66145335D01*
X54465376Y-66255774D01*
X54753361Y-66256025D01*
X55019521Y-66146050D01*
X55156126Y-66009683D01*
X55155975Y-66183361D01*
X55265950Y-66449521D01*
X55469408Y-66653335D01*
X55735376Y-66763774D01*
X56023361Y-66764025D01*
X56199221Y-66691361D01*
X62775975Y-66691361D01*
X62885950Y-66957521D01*
X63089408Y-67161335D01*
X63355376Y-67271774D01*
X63643361Y-67272025D01*
X63909521Y-67162050D01*
X64076147Y-66995715D01*
X64075975Y-67193361D01*
X64185950Y-67459521D01*
X64389408Y-67663335D01*
X64655376Y-67773774D01*
X64943361Y-67774025D01*
X65209521Y-67664050D01*
X65413335Y-67460592D01*
X65523774Y-67194624D01*
X65524025Y-66906639D01*
X65414050Y-66640479D01*
X65210592Y-66436665D01*
X64944624Y-66326226D01*
X64656639Y-66325975D01*
X64390479Y-66435950D01*
X64223853Y-66602285D01*
X64224025Y-66404639D01*
X64132595Y-66183361D01*
X79285975Y-66183361D01*
X79395950Y-66449521D01*
X79599408Y-66653335D01*
X79865376Y-66763774D01*
X80153361Y-66764025D01*
X80419521Y-66654050D01*
X80623335Y-66450592D01*
X80733774Y-66184624D01*
X80734025Y-65896639D01*
X80624050Y-65630479D01*
X80420592Y-65426665D01*
X80154624Y-65316226D01*
X79866639Y-65315975D01*
X79600479Y-65425950D01*
X79396665Y-65629408D01*
X79286226Y-65895376D01*
X79285975Y-66183361D01*
X64132595Y-66183361D01*
X64114050Y-66138479D01*
X63910592Y-65934665D01*
X63644624Y-65824226D01*
X63356639Y-65823975D01*
X63090479Y-65933950D01*
X62886665Y-66137408D01*
X62776226Y-66403376D01*
X62775975Y-66691361D01*
X56199221Y-66691361D01*
X56289521Y-66654050D01*
X56493335Y-66450592D01*
X56603774Y-66184624D01*
X56604025Y-65896639D01*
X56494050Y-65630479D01*
X56290592Y-65426665D01*
X56024624Y-65316226D01*
X55736639Y-65315975D01*
X55470479Y-65425950D01*
X55333874Y-65562317D01*
X55334025Y-65388639D01*
X55224050Y-65122479D01*
X55020592Y-64918665D01*
X54754624Y-64808226D01*
X54466639Y-64807975D01*
X54200479Y-64917950D01*
X53996665Y-65121408D01*
X53886226Y-65387376D01*
X53885975Y-65675361D01*
X53405221Y-65675361D01*
X53495521Y-65638050D01*
X53699335Y-65434592D01*
X53809774Y-65168624D01*
X53810025Y-64880639D01*
X53700050Y-64614479D01*
X53496592Y-64410665D01*
X53230624Y-64300226D01*
X52942639Y-64299975D01*
X52676479Y-64409950D01*
X52472665Y-64613408D01*
X52362226Y-64879376D01*
X52361975Y-65167361D01*
X50271627Y-65167361D01*
X50156057Y-65090140D01*
X49679769Y-64995400D01*
X49320231Y-64995400D01*
X48843943Y-65090140D01*
X48440166Y-65359935D01*
X48170371Y-65763712D01*
X48075631Y-66240000D01*
X47056000Y-66240000D01*
X47056000Y-63700000D01*
X48075631Y-63700000D01*
X48170371Y-64176288D01*
X48440166Y-64580065D01*
X48843943Y-64849860D01*
X49320231Y-64944600D01*
X49679769Y-64944600D01*
X50156057Y-64849860D01*
X50559834Y-64580065D01*
X50829629Y-64176288D01*
X50834587Y-64151361D01*
X65061975Y-64151361D01*
X65171950Y-64417521D01*
X65375408Y-64621335D01*
X65641376Y-64731774D01*
X65929361Y-64732025D01*
X66195521Y-64622050D01*
X66399335Y-64418592D01*
X66509774Y-64152624D01*
X66509869Y-64043361D01*
X70175975Y-64043361D01*
X70285950Y-64309521D01*
X70489408Y-64513335D01*
X70755376Y-64623774D01*
X71043361Y-64624025D01*
X71309521Y-64514050D01*
X71513335Y-64310592D01*
X71579453Y-64151361D01*
X71919975Y-64151361D01*
X72029950Y-64417521D01*
X72233408Y-64621335D01*
X72499376Y-64731774D01*
X72682133Y-64731933D01*
X72681975Y-64913361D01*
X72791950Y-65179521D01*
X72995408Y-65383335D01*
X73261376Y-65493774D01*
X73549361Y-65494025D01*
X73815521Y-65384050D01*
X74019335Y-65180592D01*
X74024828Y-65167361D01*
X93255975Y-65167361D01*
X93365950Y-65433521D01*
X93569408Y-65637335D01*
X93835376Y-65747774D01*
X94123361Y-65748025D01*
X94389521Y-65638050D01*
X94547847Y-65480000D01*
X95505631Y-65480000D01*
X95611971Y-66014609D01*
X95914803Y-66467828D01*
X96135863Y-66615536D01*
X95914000Y-66615536D01*
X95772810Y-66642103D01*
X95643135Y-66725546D01*
X95556141Y-66852866D01*
X95525536Y-67004000D01*
X95525536Y-69036000D01*
X95552103Y-69177190D01*
X95635546Y-69306865D01*
X95762866Y-69393859D01*
X95914000Y-69424464D01*
X97946000Y-69424464D01*
X98087190Y-69397897D01*
X98216865Y-69314454D01*
X98303859Y-69187134D01*
X98334464Y-69036000D01*
X98334464Y-67004000D01*
X98307897Y-66862810D01*
X98224454Y-66733135D01*
X98097134Y-66646141D01*
X97946000Y-66615536D01*
X97724137Y-66615536D01*
X97945197Y-66467828D01*
X98248029Y-66014609D01*
X98354369Y-65480000D01*
X98248029Y-64945391D01*
X97945197Y-64492172D01*
X97491978Y-64189340D01*
X96957369Y-64083000D01*
X96902631Y-64083000D01*
X96368022Y-64189340D01*
X95914803Y-64492172D01*
X95611971Y-64945391D01*
X95505631Y-65480000D01*
X94547847Y-65480000D01*
X94593335Y-65434592D01*
X94703774Y-65168624D01*
X94704025Y-64880639D01*
X94640977Y-64728052D01*
X94897521Y-64622050D01*
X95101335Y-64418592D01*
X95211774Y-64152624D01*
X95212025Y-63864639D01*
X95102050Y-63598479D01*
X94898592Y-63394665D01*
X94632624Y-63284226D01*
X94344639Y-63283975D01*
X94078479Y-63393950D01*
X93874665Y-63597408D01*
X93764226Y-63863376D01*
X93763975Y-64151361D01*
X93827023Y-64303948D01*
X93570479Y-64409950D01*
X93366665Y-64613408D01*
X93256226Y-64879376D01*
X93255975Y-65167361D01*
X74024828Y-65167361D01*
X74129774Y-64914624D01*
X74130025Y-64626639D01*
X74020050Y-64360479D01*
X73816592Y-64156665D01*
X73803819Y-64151361D01*
X90715975Y-64151361D01*
X90825950Y-64417521D01*
X91029408Y-64621335D01*
X91295376Y-64731774D01*
X91583361Y-64732025D01*
X91849521Y-64622050D01*
X92053335Y-64418592D01*
X92163774Y-64152624D01*
X92164025Y-63864639D01*
X92054050Y-63598479D01*
X91850592Y-63394665D01*
X91584624Y-63284226D01*
X91296639Y-63283975D01*
X91030479Y-63393950D01*
X90826665Y-63597408D01*
X90716226Y-63863376D01*
X90715975Y-64151361D01*
X73803819Y-64151361D01*
X73550624Y-64046226D01*
X73367867Y-64046067D01*
X73368025Y-63864639D01*
X73258050Y-63598479D01*
X73054592Y-63394665D01*
X73041819Y-63389361D01*
X73189975Y-63389361D01*
X73299950Y-63655521D01*
X73503408Y-63859335D01*
X73769376Y-63969774D01*
X74057361Y-63970025D01*
X74323521Y-63860050D01*
X74527335Y-63656592D01*
X74637774Y-63390624D01*
X74638025Y-63102639D01*
X74533259Y-62849087D01*
X74785376Y-62953774D01*
X75073361Y-62954025D01*
X75249221Y-62881361D01*
X85381975Y-62881361D01*
X85491950Y-63147521D01*
X85695408Y-63351335D01*
X85961376Y-63461774D01*
X86249361Y-63462025D01*
X86515521Y-63352050D01*
X86719335Y-63148592D01*
X86829774Y-62882624D01*
X86830025Y-62594639D01*
X86720050Y-62328479D01*
X86516592Y-62124665D01*
X86250624Y-62014226D01*
X85962639Y-62013975D01*
X85696479Y-62123950D01*
X85492665Y-62327408D01*
X85382226Y-62593376D01*
X85381975Y-62881361D01*
X75249221Y-62881361D01*
X75339521Y-62844050D01*
X75543335Y-62640592D01*
X75653774Y-62374624D01*
X75653837Y-62302373D01*
X75705376Y-62323774D01*
X75993361Y-62324025D01*
X76259521Y-62214050D01*
X76463335Y-62010592D01*
X76573774Y-61744624D01*
X76574025Y-61456639D01*
X76485901Y-61243361D01*
X80075975Y-61243361D01*
X80185950Y-61509521D01*
X80389408Y-61713335D01*
X80655376Y-61823774D01*
X80943361Y-61824025D01*
X81209521Y-61714050D01*
X81252884Y-61670763D01*
X81176226Y-61855376D01*
X81175975Y-62143361D01*
X81285950Y-62409521D01*
X81489408Y-62613335D01*
X81755376Y-62723774D01*
X82043361Y-62724025D01*
X82309521Y-62614050D01*
X82513335Y-62410592D01*
X82623774Y-62144624D01*
X82624025Y-61856639D01*
X82514050Y-61590479D01*
X82310592Y-61386665D01*
X82044624Y-61276226D01*
X81756639Y-61275975D01*
X81490479Y-61385950D01*
X81447116Y-61429237D01*
X81523774Y-61244624D01*
X81524025Y-60956639D01*
X81414050Y-60690479D01*
X81210592Y-60486665D01*
X80944624Y-60376226D01*
X80656639Y-60375975D01*
X80390479Y-60485950D01*
X80186665Y-60689408D01*
X80076226Y-60955376D01*
X80075975Y-61243361D01*
X76485901Y-61243361D01*
X76464050Y-61190479D01*
X76260592Y-60986665D01*
X75994624Y-60876226D01*
X75706639Y-60875975D01*
X75440479Y-60985950D01*
X75236665Y-61189408D01*
X75126226Y-61455376D01*
X75126163Y-61527627D01*
X75074624Y-61506226D01*
X74786639Y-61505975D01*
X74520479Y-61615950D01*
X74316665Y-61819408D01*
X74206226Y-62085376D01*
X74205975Y-62373361D01*
X74310741Y-62626913D01*
X74058624Y-62522226D01*
X73770639Y-62521975D01*
X73504479Y-62631950D01*
X73300665Y-62835408D01*
X73190226Y-63101376D01*
X73189975Y-63389361D01*
X73041819Y-63389361D01*
X72788624Y-63284226D01*
X72500639Y-63283975D01*
X72234479Y-63393950D01*
X72030665Y-63597408D01*
X71920226Y-63863376D01*
X71919975Y-64151361D01*
X71579453Y-64151361D01*
X71623774Y-64044624D01*
X71624025Y-63756639D01*
X71552376Y-63583235D01*
X71733335Y-63402592D01*
X71843774Y-63136624D01*
X71844025Y-62848639D01*
X71734050Y-62582479D01*
X71530592Y-62378665D01*
X71264624Y-62268226D01*
X70976639Y-62267975D01*
X70710479Y-62377950D01*
X70506665Y-62581408D01*
X70396226Y-62847376D01*
X70395975Y-63135361D01*
X70467624Y-63308765D01*
X70286665Y-63489408D01*
X70176226Y-63755376D01*
X70175975Y-64043361D01*
X66509869Y-64043361D01*
X66510025Y-63864639D01*
X66400050Y-63598479D01*
X66196592Y-63394665D01*
X65930624Y-63284226D01*
X65642639Y-63283975D01*
X65376479Y-63393950D01*
X65172665Y-63597408D01*
X65062226Y-63863376D01*
X65061975Y-64151361D01*
X50834587Y-64151361D01*
X50924369Y-63700000D01*
X50829629Y-63223712D01*
X50600878Y-62881361D01*
X59219975Y-62881361D01*
X59329950Y-63147521D01*
X59533408Y-63351335D01*
X59799376Y-63461774D01*
X60087361Y-63462025D01*
X60353521Y-63352050D01*
X60557335Y-63148592D01*
X60667774Y-62882624D01*
X60668025Y-62594639D01*
X60558050Y-62328479D01*
X60354592Y-62124665D01*
X60088624Y-62014226D01*
X59800639Y-62013975D01*
X59534479Y-62123950D01*
X59330665Y-62327408D01*
X59220226Y-62593376D01*
X59219975Y-62881361D01*
X50600878Y-62881361D01*
X50559834Y-62819935D01*
X50156057Y-62550140D01*
X49679769Y-62455400D01*
X49320231Y-62455400D01*
X48843943Y-62550140D01*
X48440166Y-62819935D01*
X48170371Y-63223712D01*
X48075631Y-63700000D01*
X47056000Y-63700000D01*
X47056000Y-61160000D01*
X48075631Y-61160000D01*
X48170371Y-61636288D01*
X48440166Y-62040065D01*
X48843943Y-62309860D01*
X49320231Y-62404600D01*
X49679769Y-62404600D01*
X50156057Y-62309860D01*
X50559834Y-62040065D01*
X50829629Y-61636288D01*
X50834587Y-61611361D01*
X62775975Y-61611361D01*
X62885950Y-61877521D01*
X63089408Y-62081335D01*
X63355376Y-62191774D01*
X63643361Y-62192025D01*
X63909521Y-62082050D01*
X64113335Y-61878592D01*
X64118828Y-61865361D01*
X71157975Y-61865361D01*
X71267950Y-62131521D01*
X71471408Y-62335335D01*
X71737376Y-62445774D01*
X72025361Y-62446025D01*
X72291521Y-62336050D01*
X72495335Y-62132592D01*
X72605774Y-61866624D01*
X72606025Y-61578639D01*
X72496050Y-61312479D01*
X72327228Y-61143361D01*
X73275975Y-61143361D01*
X73385950Y-61409521D01*
X73589408Y-61613335D01*
X73855376Y-61723774D01*
X74143361Y-61724025D01*
X74409521Y-61614050D01*
X74613335Y-61410592D01*
X74723774Y-61144624D01*
X74724025Y-60856639D01*
X74723964Y-60856492D01*
X74831521Y-60812050D01*
X75035335Y-60608592D01*
X75145774Y-60342624D01*
X75146025Y-60054639D01*
X75036050Y-59788479D01*
X74832592Y-59584665D01*
X74566624Y-59474226D01*
X74278639Y-59473975D01*
X74012479Y-59583950D01*
X73808665Y-59787408D01*
X73698226Y-60053376D01*
X73697975Y-60341361D01*
X73698036Y-60341508D01*
X73590479Y-60385950D01*
X73386665Y-60589408D01*
X73276226Y-60855376D01*
X73275975Y-61143361D01*
X72327228Y-61143361D01*
X72292592Y-61108665D01*
X72026624Y-60998226D01*
X71738639Y-60997975D01*
X71472479Y-61107950D01*
X71268665Y-61311408D01*
X71158226Y-61577376D01*
X71157975Y-61865361D01*
X64118828Y-61865361D01*
X64223774Y-61612624D01*
X64223987Y-61368573D01*
X64371376Y-61429774D01*
X64659361Y-61430025D01*
X64925521Y-61320050D01*
X65129335Y-61116592D01*
X65239774Y-60850624D01*
X65239933Y-60667867D01*
X65421361Y-60668025D01*
X65687521Y-60558050D01*
X65891335Y-60354592D01*
X66001774Y-60088624D01*
X66001775Y-60087361D01*
X71665975Y-60087361D01*
X71775950Y-60353521D01*
X71979408Y-60557335D01*
X72245376Y-60667774D01*
X72533361Y-60668025D01*
X72799521Y-60558050D01*
X73003335Y-60354592D01*
X73113774Y-60088624D01*
X73113933Y-59905867D01*
X73295361Y-59906025D01*
X73561521Y-59796050D01*
X73765335Y-59592592D01*
X73875774Y-59326624D01*
X73875775Y-59325361D01*
X75221975Y-59325361D01*
X75331950Y-59591521D01*
X75535408Y-59795335D01*
X75801376Y-59905774D01*
X76089361Y-59906025D01*
X76113071Y-59896228D01*
X76026226Y-60105376D01*
X76025975Y-60393361D01*
X76135950Y-60659521D01*
X76339408Y-60863335D01*
X76605376Y-60973774D01*
X76893361Y-60974025D01*
X77159521Y-60864050D01*
X77363335Y-60660592D01*
X77473774Y-60394624D01*
X77473903Y-60246400D01*
X95525536Y-60246400D01*
X95525536Y-61973600D01*
X95552103Y-62114790D01*
X95635546Y-62244465D01*
X95762866Y-62331459D01*
X95914000Y-62362064D01*
X97946000Y-62362064D01*
X98087190Y-62335497D01*
X98216865Y-62252054D01*
X98303859Y-62124734D01*
X98334464Y-61973600D01*
X98334464Y-60246400D01*
X98307897Y-60105210D01*
X98224454Y-59975535D01*
X98097134Y-59888541D01*
X97946000Y-59857936D01*
X95914000Y-59857936D01*
X95772810Y-59884503D01*
X95643135Y-59967946D01*
X95556141Y-60095266D01*
X95525536Y-60246400D01*
X77473903Y-60246400D01*
X77474025Y-60106639D01*
X77364050Y-59840479D01*
X77160592Y-59636665D01*
X76894624Y-59526226D01*
X76606639Y-59525975D01*
X76582929Y-59535772D01*
X76669774Y-59326624D01*
X76670025Y-59038639D01*
X76560050Y-58772479D01*
X76356592Y-58568665D01*
X76090624Y-58458226D01*
X75802639Y-58457975D01*
X75536479Y-58567950D01*
X75332665Y-58771408D01*
X75222226Y-59037376D01*
X75221975Y-59325361D01*
X73875775Y-59325361D01*
X73876025Y-59038639D01*
X73766050Y-58772479D01*
X73562592Y-58568665D01*
X73296624Y-58458226D01*
X73008639Y-58457975D01*
X72742479Y-58567950D01*
X72538665Y-58771408D01*
X72428226Y-59037376D01*
X72428067Y-59220133D01*
X72246639Y-59219975D01*
X71980479Y-59329950D01*
X71776665Y-59533408D01*
X71666226Y-59799376D01*
X71665975Y-60087361D01*
X66001775Y-60087361D01*
X66002025Y-59800639D01*
X65901936Y-59558406D01*
X65941521Y-59542050D01*
X66145335Y-59338592D01*
X66226401Y-59143361D01*
X66275975Y-59143361D01*
X66385950Y-59409521D01*
X66589408Y-59613335D01*
X66855376Y-59723774D01*
X67143361Y-59724025D01*
X67409521Y-59614050D01*
X67613335Y-59410592D01*
X67626553Y-59378759D01*
X67855376Y-59473774D01*
X68143361Y-59474025D01*
X68409521Y-59364050D01*
X68613335Y-59160592D01*
X68723774Y-58894624D01*
X68724025Y-58606639D01*
X68635901Y-58393361D01*
X90775975Y-58393361D01*
X90885950Y-58659521D01*
X91089408Y-58863335D01*
X91355376Y-58973774D01*
X91643361Y-58974025D01*
X91909521Y-58864050D01*
X92113335Y-58660592D01*
X92223774Y-58394624D01*
X92224025Y-58106639D01*
X92114050Y-57840479D01*
X91910592Y-57636665D01*
X91644624Y-57526226D01*
X91356639Y-57525975D01*
X91090479Y-57635950D01*
X90886665Y-57839408D01*
X90776226Y-58105376D01*
X90775975Y-58393361D01*
X68635901Y-58393361D01*
X68614050Y-58340479D01*
X68410592Y-58136665D01*
X68144624Y-58026226D01*
X67856639Y-58025975D01*
X67590479Y-58135950D01*
X67386665Y-58339408D01*
X67373447Y-58371241D01*
X67144624Y-58276226D01*
X66856639Y-58275975D01*
X66590479Y-58385950D01*
X66386665Y-58589408D01*
X66276226Y-58855376D01*
X66275975Y-59143361D01*
X66226401Y-59143361D01*
X66255774Y-59072624D01*
X66256025Y-58784639D01*
X66146050Y-58518479D01*
X65942592Y-58314665D01*
X65676624Y-58204226D01*
X65388639Y-58203975D01*
X65122479Y-58313950D01*
X64918665Y-58517408D01*
X64808226Y-58783376D01*
X64807975Y-59071361D01*
X64908064Y-59313594D01*
X64868479Y-59329950D01*
X64664665Y-59533408D01*
X64554226Y-59799376D01*
X64554067Y-59982133D01*
X64372639Y-59981975D01*
X64106479Y-60091950D01*
X63902665Y-60295408D01*
X63792226Y-60561376D01*
X63792013Y-60805427D01*
X63644624Y-60744226D01*
X63356639Y-60743975D01*
X63090479Y-60853950D01*
X62886665Y-61057408D01*
X62776226Y-61323376D01*
X62775975Y-61611361D01*
X50834587Y-61611361D01*
X50924369Y-61160000D01*
X50829629Y-60683712D01*
X50559834Y-60279935D01*
X50271627Y-60087361D01*
X59219975Y-60087361D01*
X59329950Y-60353521D01*
X59533408Y-60557335D01*
X59799376Y-60667774D01*
X60087361Y-60668025D01*
X60353521Y-60558050D01*
X60557335Y-60354592D01*
X60667774Y-60088624D01*
X60668025Y-59800639D01*
X60558050Y-59534479D01*
X60354592Y-59330665D01*
X60088624Y-59220226D01*
X59800639Y-59219975D01*
X59534479Y-59329950D01*
X59330665Y-59533408D01*
X59220226Y-59799376D01*
X59219975Y-60087361D01*
X50271627Y-60087361D01*
X50156057Y-60010140D01*
X49679769Y-59915400D01*
X49320231Y-59915400D01*
X48843943Y-60010140D01*
X48440166Y-60279935D01*
X48170371Y-60683712D01*
X48075631Y-61160000D01*
X47056000Y-61160000D01*
X47056000Y-58620000D01*
X48075631Y-58620000D01*
X48170371Y-59096288D01*
X48440166Y-59500065D01*
X48843943Y-59769860D01*
X49320231Y-59864600D01*
X49679769Y-59864600D01*
X50156057Y-59769860D01*
X50559834Y-59500065D01*
X50829629Y-59096288D01*
X50924369Y-58620000D01*
X50829629Y-58143712D01*
X50559834Y-57739935D01*
X50156057Y-57470140D01*
X49679769Y-57375400D01*
X49320231Y-57375400D01*
X48843943Y-57470140D01*
X48440166Y-57739935D01*
X48170371Y-58143712D01*
X48075631Y-58620000D01*
X47056000Y-58620000D01*
X47056000Y-56080000D01*
X48075631Y-56080000D01*
X48170371Y-56556288D01*
X48440166Y-56960065D01*
X48843943Y-57229860D01*
X49320231Y-57324600D01*
X49679769Y-57324600D01*
X50156057Y-57229860D01*
X50559834Y-56960065D01*
X50829629Y-56556288D01*
X50833426Y-56537200D01*
X51199338Y-56537200D01*
X51201950Y-56543521D01*
X51405408Y-56747335D01*
X51671376Y-56857774D01*
X51915427Y-56857987D01*
X51854226Y-57005376D01*
X51853975Y-57293361D01*
X51963950Y-57559521D01*
X52167408Y-57763335D01*
X52433376Y-57873774D01*
X52721361Y-57874025D01*
X52987521Y-57764050D01*
X53050051Y-57701629D01*
X53135950Y-57909521D01*
X53339408Y-58113335D01*
X53605376Y-58223774D01*
X53893361Y-58224025D01*
X54035105Y-58165458D01*
X54135950Y-58409521D01*
X54339408Y-58613335D01*
X54605376Y-58723774D01*
X54893361Y-58724025D01*
X55035105Y-58665458D01*
X55135950Y-58909521D01*
X55339408Y-59113335D01*
X55605376Y-59223774D01*
X55893361Y-59224025D01*
X56159521Y-59114050D01*
X56363335Y-58910592D01*
X56473774Y-58644624D01*
X56474025Y-58356639D01*
X56364050Y-58090479D01*
X56160592Y-57886665D01*
X55894624Y-57776226D01*
X55606639Y-57775975D01*
X55464895Y-57834542D01*
X55364050Y-57590479D01*
X55167277Y-57393361D01*
X79525975Y-57393361D01*
X79635950Y-57659521D01*
X79839408Y-57863335D01*
X80105376Y-57973774D01*
X80393361Y-57974025D01*
X80623339Y-57879000D01*
X80635950Y-57909521D01*
X80839408Y-58113335D01*
X81105376Y-58223774D01*
X81393361Y-58224025D01*
X81659521Y-58114050D01*
X81863335Y-57910592D01*
X81973774Y-57644624D01*
X81974025Y-57356639D01*
X81864050Y-57090479D01*
X81660592Y-56886665D01*
X81394624Y-56776226D01*
X81106639Y-56775975D01*
X80876661Y-56871000D01*
X80864050Y-56840479D01*
X80660592Y-56636665D01*
X80394624Y-56526226D01*
X80106639Y-56525975D01*
X79840479Y-56635950D01*
X79636665Y-56839408D01*
X79526226Y-57105376D01*
X79525975Y-57393361D01*
X55167277Y-57393361D01*
X55160592Y-57386665D01*
X54894624Y-57276226D01*
X54606639Y-57275975D01*
X54464895Y-57334542D01*
X54364050Y-57090479D01*
X54160592Y-56886665D01*
X53894624Y-56776226D01*
X53606639Y-56775975D01*
X53340479Y-56885950D01*
X53277949Y-56948371D01*
X53192050Y-56740479D01*
X52988592Y-56536665D01*
X52722624Y-56426226D01*
X52478573Y-56426013D01*
X52539774Y-56278624D01*
X52540025Y-55990639D01*
X52430050Y-55724479D01*
X52226592Y-55520665D01*
X52213819Y-55515361D01*
X69887975Y-55515361D01*
X69997950Y-55781521D01*
X70201408Y-55985335D01*
X70467376Y-56095774D01*
X70755361Y-56096025D01*
X71021521Y-55986050D01*
X71225335Y-55782592D01*
X71230828Y-55769361D01*
X72173975Y-55769361D01*
X72283950Y-56035521D01*
X72487408Y-56239335D01*
X72753376Y-56349774D01*
X73041361Y-56350025D01*
X73307521Y-56240050D01*
X73511335Y-56036592D01*
X73621774Y-55770624D01*
X73621933Y-55587867D01*
X73698133Y-55587933D01*
X73697975Y-55769361D01*
X73807950Y-56035521D01*
X74011408Y-56239335D01*
X74277376Y-56349774D01*
X74565361Y-56350025D01*
X74831521Y-56240050D01*
X75035335Y-56036592D01*
X75094809Y-55893361D01*
X77025975Y-55893361D01*
X77135950Y-56159521D01*
X77339408Y-56363335D01*
X77605376Y-56473774D01*
X77893361Y-56474025D01*
X78099074Y-56389026D01*
X95322642Y-56389026D01*
X95325291Y-56404791D01*
X95579268Y-56932036D01*
X96015680Y-57321954D01*
X96288243Y-57417296D01*
X96273943Y-57420140D01*
X95870166Y-57689935D01*
X95600371Y-58093712D01*
X95505631Y-58570000D01*
X95600371Y-59046288D01*
X95870166Y-59450065D01*
X96273943Y-59719860D01*
X96750231Y-59814600D01*
X97109769Y-59814600D01*
X97586057Y-59719860D01*
X97989834Y-59450065D01*
X98259629Y-59046288D01*
X98354369Y-58570000D01*
X98259629Y-58093712D01*
X97989834Y-57689935D01*
X97586057Y-57420140D01*
X97571757Y-57417296D01*
X97844320Y-57321954D01*
X98280732Y-56932036D01*
X98534709Y-56404791D01*
X98537358Y-56389026D01*
X98416217Y-56157000D01*
X97057000Y-56157000D01*
X97057000Y-56177000D01*
X96803000Y-56177000D01*
X96803000Y-56157000D01*
X95443783Y-56157000D01*
X95322642Y-56389026D01*
X78099074Y-56389026D01*
X78159521Y-56364050D01*
X78363335Y-56160592D01*
X78473774Y-55894624D01*
X78473968Y-55670974D01*
X95322642Y-55670974D01*
X95443783Y-55903000D01*
X96803000Y-55903000D01*
X96803000Y-55883000D01*
X97057000Y-55883000D01*
X97057000Y-55903000D01*
X98416217Y-55903000D01*
X98537358Y-55670974D01*
X98534709Y-55655209D01*
X98280732Y-55127964D01*
X97844320Y-54738046D01*
X97571757Y-54642704D01*
X97586057Y-54639860D01*
X97989834Y-54370065D01*
X98259629Y-53966288D01*
X98354369Y-53490000D01*
X98259629Y-53013712D01*
X97989834Y-52609935D01*
X97586057Y-52340140D01*
X97109769Y-52245400D01*
X96750231Y-52245400D01*
X96273943Y-52340140D01*
X95870166Y-52609935D01*
X95600371Y-53013712D01*
X95505631Y-53490000D01*
X95600371Y-53966288D01*
X95870166Y-54370065D01*
X96273943Y-54639860D01*
X96288243Y-54642704D01*
X96015680Y-54738046D01*
X95579268Y-55127964D01*
X95325291Y-55655209D01*
X95322642Y-55670974D01*
X78473968Y-55670974D01*
X78474025Y-55606639D01*
X78364050Y-55340479D01*
X78160592Y-55136665D01*
X77894624Y-55026226D01*
X77606639Y-55025975D01*
X77340479Y-55135950D01*
X77136665Y-55339408D01*
X77026226Y-55605376D01*
X77025975Y-55893361D01*
X75094809Y-55893361D01*
X75145774Y-55770624D01*
X75146025Y-55482639D01*
X75084532Y-55333813D01*
X75327361Y-55334025D01*
X75593521Y-55224050D01*
X75797335Y-55020592D01*
X75907774Y-54754624D01*
X75907959Y-54542028D01*
X76101521Y-54462050D01*
X76170330Y-54393361D01*
X91025975Y-54393361D01*
X91135950Y-54659521D01*
X91339408Y-54863335D01*
X91605376Y-54973774D01*
X91893361Y-54974025D01*
X92159521Y-54864050D01*
X92363335Y-54660592D01*
X92473774Y-54394624D01*
X92474025Y-54106639D01*
X92364050Y-53840479D01*
X92160592Y-53636665D01*
X91894624Y-53526226D01*
X91606639Y-53525975D01*
X91340479Y-53635950D01*
X91136665Y-53839408D01*
X91026226Y-54105376D01*
X91025975Y-54393361D01*
X76170330Y-54393361D01*
X76305335Y-54258592D01*
X76415774Y-53992624D01*
X76415959Y-53780028D01*
X76609521Y-53700050D01*
X76813335Y-53496592D01*
X76923774Y-53230624D01*
X76923959Y-53018028D01*
X77117521Y-52938050D01*
X77321335Y-52734592D01*
X77431774Y-52468624D01*
X77432025Y-52180639D01*
X77322050Y-51914479D01*
X77118592Y-51710665D01*
X76852624Y-51600226D01*
X76564639Y-51599975D01*
X76298479Y-51709950D01*
X76094665Y-51913408D01*
X75984226Y-52179376D01*
X75984041Y-52391972D01*
X75790479Y-52471950D01*
X75586665Y-52675408D01*
X75476226Y-52941376D01*
X75476041Y-53153972D01*
X75282479Y-53233950D01*
X75078665Y-53437408D01*
X74968226Y-53703376D01*
X74968041Y-53915972D01*
X74774479Y-53995950D01*
X74570665Y-54199408D01*
X74460226Y-54465376D01*
X74459975Y-54753361D01*
X74521468Y-54902187D01*
X74383867Y-54902067D01*
X74384025Y-54720639D01*
X74274050Y-54454479D01*
X74070592Y-54250665D01*
X73804624Y-54140226D01*
X73516639Y-54139975D01*
X73250479Y-54249950D01*
X73046665Y-54453408D01*
X72936226Y-54719376D01*
X72936067Y-54902133D01*
X72754639Y-54901975D01*
X72488479Y-55011950D01*
X72284665Y-55215408D01*
X72174226Y-55481376D01*
X72173975Y-55769361D01*
X71230828Y-55769361D01*
X71335774Y-55516624D01*
X71336025Y-55228639D01*
X71226050Y-54962479D01*
X71022592Y-54758665D01*
X70756624Y-54648226D01*
X70468639Y-54647975D01*
X70202479Y-54757950D01*
X69998665Y-54961408D01*
X69888226Y-55227376D01*
X69887975Y-55515361D01*
X52213819Y-55515361D01*
X51960624Y-55410226D01*
X51672639Y-55409975D01*
X51406479Y-55519950D01*
X51303449Y-55622800D01*
X50833426Y-55622800D01*
X50829629Y-55603712D01*
X50559834Y-55199935D01*
X50156057Y-54930140D01*
X49679769Y-54835400D01*
X49320231Y-54835400D01*
X48843943Y-54930140D01*
X48440166Y-55199935D01*
X48170371Y-55603712D01*
X48075631Y-56080000D01*
X47056000Y-56080000D01*
X47056000Y-53540000D01*
X48075631Y-53540000D01*
X48170371Y-54016288D01*
X48440166Y-54420065D01*
X48843943Y-54689860D01*
X49320231Y-54784600D01*
X49679769Y-54784600D01*
X50156057Y-54689860D01*
X50559834Y-54420065D01*
X50829629Y-54016288D01*
X50893863Y-53693361D01*
X51575975Y-53693361D01*
X51685950Y-53959521D01*
X51889408Y-54163335D01*
X52155376Y-54273774D01*
X52443361Y-54274025D01*
X52709521Y-54164050D01*
X52913335Y-53960592D01*
X53023774Y-53694624D01*
X53024025Y-53406639D01*
X52914050Y-53140479D01*
X52710592Y-52936665D01*
X52444624Y-52826226D01*
X52156639Y-52825975D01*
X51890479Y-52935950D01*
X51686665Y-53139408D01*
X51576226Y-53405376D01*
X51575975Y-53693361D01*
X50893863Y-53693361D01*
X50924369Y-53540000D01*
X50829629Y-53063712D01*
X50559834Y-52659935D01*
X50156057Y-52390140D01*
X49679769Y-52295400D01*
X49320231Y-52295400D01*
X48843943Y-52390140D01*
X48440166Y-52659935D01*
X48170371Y-53063712D01*
X48075631Y-53540000D01*
X47056000Y-53540000D01*
X47056000Y-50136400D01*
X48095536Y-50136400D01*
X48095536Y-51863600D01*
X48122103Y-52004790D01*
X48205546Y-52134465D01*
X48332866Y-52221459D01*
X48484000Y-52252064D01*
X50516000Y-52252064D01*
X50657190Y-52225497D01*
X50786865Y-52142054D01*
X50873859Y-52014734D01*
X50904464Y-51863600D01*
X50904464Y-50893361D01*
X80525975Y-50893361D01*
X80635950Y-51159521D01*
X80839408Y-51363335D01*
X81105376Y-51473774D01*
X81393361Y-51474025D01*
X81659521Y-51364050D01*
X81863335Y-51160592D01*
X81973774Y-50894624D01*
X81973775Y-50893361D01*
X82775975Y-50893361D01*
X82885950Y-51159521D01*
X83089408Y-51363335D01*
X83355376Y-51473774D01*
X83643361Y-51474025D01*
X83909521Y-51364050D01*
X84113335Y-51160592D01*
X84203536Y-50943361D01*
X91731975Y-50943361D01*
X91841950Y-51209521D01*
X92045408Y-51413335D01*
X92311376Y-51523774D01*
X92599361Y-51524025D01*
X92865521Y-51414050D01*
X93069335Y-51210592D01*
X93177541Y-50950000D01*
X95505631Y-50950000D01*
X95600371Y-51426288D01*
X95870166Y-51830065D01*
X96273943Y-52099860D01*
X96750231Y-52194600D01*
X97109769Y-52194600D01*
X97586057Y-52099860D01*
X97989834Y-51830065D01*
X98259629Y-51426288D01*
X98354369Y-50950000D01*
X98259629Y-50473712D01*
X97989834Y-50069935D01*
X97586057Y-49800140D01*
X97109769Y-49705400D01*
X96750231Y-49705400D01*
X96273943Y-49800140D01*
X95870166Y-50069935D01*
X95600371Y-50473712D01*
X95505631Y-50950000D01*
X93177541Y-50950000D01*
X93179774Y-50944624D01*
X93180025Y-50656639D01*
X93070050Y-50390479D01*
X92866592Y-50186665D01*
X92600624Y-50076226D01*
X92312639Y-50075975D01*
X92046479Y-50185950D01*
X91842665Y-50389408D01*
X91732226Y-50655376D01*
X91731975Y-50943361D01*
X84203536Y-50943361D01*
X84223774Y-50894624D01*
X84224025Y-50606639D01*
X84114050Y-50340479D01*
X83910592Y-50136665D01*
X83644624Y-50026226D01*
X83356639Y-50025975D01*
X83090479Y-50135950D01*
X82886665Y-50339408D01*
X82776226Y-50605376D01*
X82775975Y-50893361D01*
X81973775Y-50893361D01*
X81974025Y-50606639D01*
X81864050Y-50340479D01*
X81660592Y-50136665D01*
X81394624Y-50026226D01*
X81106639Y-50025975D01*
X80840479Y-50135950D01*
X80636665Y-50339408D01*
X80526226Y-50605376D01*
X80525975Y-50893361D01*
X50904464Y-50893361D01*
X50904464Y-50136400D01*
X50877897Y-49995210D01*
X50794454Y-49865535D01*
X50667134Y-49778541D01*
X50516000Y-49747936D01*
X48484000Y-49747936D01*
X48342810Y-49774503D01*
X48213135Y-49857946D01*
X48126141Y-49985266D01*
X48095536Y-50136400D01*
X47056000Y-50136400D01*
X47056000Y-48950000D01*
X62864200Y-48950000D01*
X62916403Y-49212444D01*
X63065066Y-49434934D01*
X63287556Y-49583597D01*
X63550000Y-49635800D01*
X63650000Y-49635800D01*
X63912444Y-49583597D01*
X64134934Y-49434934D01*
X64283597Y-49212444D01*
X64335800Y-48950000D01*
X64283597Y-48687556D01*
X64134934Y-48465066D01*
X64052522Y-48410000D01*
X95505631Y-48410000D01*
X95600371Y-48886288D01*
X95870166Y-49290065D01*
X96273943Y-49559860D01*
X96750231Y-49654600D01*
X97109769Y-49654600D01*
X97586057Y-49559860D01*
X97989834Y-49290065D01*
X98259629Y-48886288D01*
X98354369Y-48410000D01*
X98259629Y-47933712D01*
X97989834Y-47529935D01*
X97586057Y-47260140D01*
X97109769Y-47165400D01*
X96750231Y-47165400D01*
X96273943Y-47260140D01*
X95870166Y-47529935D01*
X95600371Y-47933712D01*
X95505631Y-48410000D01*
X64052522Y-48410000D01*
X63912444Y-48316403D01*
X63650000Y-48264200D01*
X63550000Y-48264200D01*
X63287556Y-48316403D01*
X63065066Y-48465066D01*
X62916403Y-48687556D01*
X62864200Y-48950000D01*
X47056000Y-48950000D01*
X47056000Y-45863361D01*
X55155975Y-45863361D01*
X55265950Y-46129521D01*
X55469408Y-46333335D01*
X55735376Y-46443774D01*
X56023361Y-46444025D01*
X56172187Y-46382532D01*
X56171975Y-46625361D01*
X56281950Y-46891521D01*
X56485408Y-47095335D01*
X56751376Y-47205774D01*
X57039361Y-47206025D01*
X57305521Y-47096050D01*
X57465516Y-46936335D01*
X57551950Y-47145521D01*
X57755408Y-47349335D01*
X58021376Y-47459774D01*
X58309361Y-47460025D01*
X58575521Y-47350050D01*
X58735516Y-47190335D01*
X58821950Y-47399521D01*
X59025408Y-47603335D01*
X59291376Y-47713774D01*
X59579361Y-47714025D01*
X59845521Y-47604050D01*
X60049335Y-47400592D01*
X60159774Y-47134624D01*
X60160025Y-46846639D01*
X60050050Y-46580479D01*
X59846592Y-46376665D01*
X59580624Y-46266226D01*
X59292639Y-46265975D01*
X59026479Y-46375950D01*
X58866484Y-46535665D01*
X58780050Y-46326479D01*
X58576592Y-46122665D01*
X58310624Y-46012226D01*
X58022639Y-46011975D01*
X57756479Y-46121950D01*
X57596484Y-46281665D01*
X57510050Y-46072479D01*
X57306592Y-45868665D01*
X57040624Y-45758226D01*
X56752639Y-45757975D01*
X56603813Y-45819468D01*
X56604025Y-45576639D01*
X56494050Y-45310479D01*
X56290592Y-45106665D01*
X56277819Y-45101361D01*
X71411975Y-45101361D01*
X71521950Y-45367521D01*
X71725408Y-45571335D01*
X71991376Y-45681774D01*
X72279361Y-45682025D01*
X72455221Y-45609361D01*
X75983975Y-45609361D01*
X76093950Y-45875521D01*
X76297408Y-46079335D01*
X76563376Y-46189774D01*
X76851361Y-46190025D01*
X77003948Y-46126977D01*
X77109950Y-46383521D01*
X77313408Y-46587335D01*
X77579376Y-46697774D01*
X77867361Y-46698025D01*
X78133521Y-46588050D01*
X78337335Y-46384592D01*
X78447774Y-46118624D01*
X78448025Y-45830639D01*
X78338050Y-45564479D01*
X78134592Y-45360665D01*
X77868624Y-45250226D01*
X77580639Y-45249975D01*
X77428052Y-45313023D01*
X77322050Y-45056479D01*
X77118592Y-44852665D01*
X76852624Y-44742226D01*
X76564639Y-44741975D01*
X76298479Y-44851950D01*
X76094665Y-45055408D01*
X75984226Y-45321376D01*
X75983975Y-45609361D01*
X72455221Y-45609361D01*
X72545521Y-45572050D01*
X72749335Y-45368592D01*
X72859774Y-45102624D01*
X72860025Y-44814639D01*
X72750050Y-44548479D01*
X72546592Y-44344665D01*
X72280624Y-44234226D01*
X71992639Y-44233975D01*
X71726479Y-44343950D01*
X71522665Y-44547408D01*
X71412226Y-44813376D01*
X71411975Y-45101361D01*
X56277819Y-45101361D01*
X56024624Y-44996226D01*
X55736639Y-44995975D01*
X55470479Y-45105950D01*
X55266665Y-45309408D01*
X55156226Y-45575376D01*
X55155975Y-45863361D01*
X47056000Y-45863361D01*
X47056000Y-43522513D01*
X48318674Y-43522513D01*
X48604436Y-44214109D01*
X49133108Y-44743704D01*
X49824204Y-45030673D01*
X50572513Y-45031326D01*
X51264109Y-44745564D01*
X51793704Y-44216892D01*
X52080673Y-43525796D01*
X52081326Y-42777487D01*
X51858510Y-42238231D01*
X55385400Y-42238231D01*
X55385400Y-42597769D01*
X55480140Y-43074057D01*
X55749935Y-43477834D01*
X56153712Y-43747629D01*
X56630000Y-43842369D01*
X57106288Y-43747629D01*
X57510065Y-43477834D01*
X57779860Y-43074057D01*
X57874600Y-42597769D01*
X57874600Y-42238231D01*
X57925400Y-42238231D01*
X57925400Y-42597769D01*
X58020140Y-43074057D01*
X58289935Y-43477834D01*
X58693712Y-43747629D01*
X59170000Y-43842369D01*
X59646288Y-43747629D01*
X60050065Y-43477834D01*
X60319860Y-43074057D01*
X60414600Y-42597769D01*
X60414600Y-42238231D01*
X60465400Y-42238231D01*
X60465400Y-42597769D01*
X60560140Y-43074057D01*
X60829935Y-43477834D01*
X61233712Y-43747629D01*
X61710000Y-43842369D01*
X62186288Y-43747629D01*
X62590065Y-43477834D01*
X62859860Y-43074057D01*
X62954600Y-42597769D01*
X62954600Y-42238231D01*
X62859860Y-41761943D01*
X62619354Y-41402000D01*
X62997936Y-41402000D01*
X62997936Y-43434000D01*
X63024503Y-43575190D01*
X63107946Y-43704865D01*
X63235266Y-43791859D01*
X63386400Y-43822464D01*
X65113600Y-43822464D01*
X65254790Y-43795897D01*
X65384465Y-43712454D01*
X65471459Y-43585134D01*
X65502064Y-43434000D01*
X65502064Y-42779913D01*
X67094816Y-42779913D01*
X67288046Y-43332320D01*
X67677964Y-43768732D01*
X68205209Y-44022709D01*
X68220974Y-44025358D01*
X68453000Y-43904217D01*
X68453000Y-42545000D01*
X67239076Y-42545000D01*
X67094816Y-42779913D01*
X65502064Y-42779913D01*
X65502064Y-42056087D01*
X67094816Y-42056087D01*
X67239076Y-42291000D01*
X68453000Y-42291000D01*
X68453000Y-40931783D01*
X68707000Y-40931783D01*
X68707000Y-42291000D01*
X68727000Y-42291000D01*
X68727000Y-42545000D01*
X68707000Y-42545000D01*
X68707000Y-43904217D01*
X68939026Y-44025358D01*
X68954791Y-44022709D01*
X69482036Y-43768732D01*
X69871954Y-43332320D01*
X69967296Y-43059757D01*
X69970140Y-43074057D01*
X70239935Y-43477834D01*
X70643712Y-43747629D01*
X71120000Y-43842369D01*
X71596288Y-43747629D01*
X72000065Y-43477834D01*
X72269860Y-43074057D01*
X72364600Y-42597769D01*
X72364600Y-42238231D01*
X72269860Y-41761943D01*
X72029354Y-41402000D01*
X72407936Y-41402000D01*
X72407936Y-43434000D01*
X72434503Y-43575190D01*
X72517946Y-43704865D01*
X72645266Y-43791859D01*
X72796400Y-43822464D01*
X74523600Y-43822464D01*
X74664790Y-43795897D01*
X74794465Y-43712454D01*
X74881459Y-43585134D01*
X74912064Y-43434000D01*
X74912064Y-42390631D01*
X76835000Y-42390631D01*
X76835000Y-42445369D01*
X76941340Y-42979978D01*
X77244172Y-43433197D01*
X77697391Y-43736029D01*
X78232000Y-43842369D01*
X78766609Y-43736029D01*
X79219828Y-43433197D01*
X79367536Y-43212137D01*
X79367536Y-43434000D01*
X79394103Y-43575190D01*
X79477546Y-43704865D01*
X79604866Y-43791859D01*
X79756000Y-43822464D01*
X81788000Y-43822464D01*
X81929190Y-43795897D01*
X82058865Y-43712454D01*
X82145859Y-43585134D01*
X82146092Y-43583983D01*
X84058804Y-43583983D01*
X84230625Y-43999823D01*
X84548503Y-44318256D01*
X84964043Y-44490804D01*
X85413983Y-44491196D01*
X85829823Y-44319375D01*
X86148256Y-44001497D01*
X86189889Y-43901234D01*
X86230625Y-43999823D01*
X86548503Y-44318256D01*
X86964043Y-44490804D01*
X87413983Y-44491196D01*
X87829823Y-44319375D01*
X88148256Y-44001497D01*
X88189889Y-43901234D01*
X88230625Y-43999823D01*
X88548503Y-44318256D01*
X88964043Y-44490804D01*
X89413983Y-44491196D01*
X89829823Y-44319375D01*
X90148256Y-44001497D01*
X90189889Y-43901234D01*
X90230625Y-43999823D01*
X90548503Y-44318256D01*
X90964043Y-44490804D01*
X91413983Y-44491196D01*
X91829823Y-44319375D01*
X92148256Y-44001497D01*
X92320804Y-43585957D01*
X92320859Y-43522513D01*
X94418674Y-43522513D01*
X94704436Y-44214109D01*
X95233108Y-44743704D01*
X95924204Y-45030673D01*
X96672513Y-45031326D01*
X97364109Y-44745564D01*
X97893704Y-44216892D01*
X98180673Y-43525796D01*
X98181326Y-42777487D01*
X97895564Y-42085891D01*
X97366892Y-41556296D01*
X96675796Y-41269327D01*
X95927487Y-41268674D01*
X95235891Y-41554436D01*
X94706296Y-42083108D01*
X94419327Y-42774204D01*
X94418674Y-43522513D01*
X92320859Y-43522513D01*
X92321196Y-43136017D01*
X92149375Y-42720177D01*
X91831497Y-42401744D01*
X91415957Y-42229196D01*
X90966017Y-42228804D01*
X90550177Y-42400625D01*
X90231744Y-42718503D01*
X90190111Y-42818766D01*
X90149375Y-42720177D01*
X89831497Y-42401744D01*
X89415957Y-42229196D01*
X88966017Y-42228804D01*
X88550177Y-42400625D01*
X88231744Y-42718503D01*
X88190111Y-42818766D01*
X88149375Y-42720177D01*
X87831497Y-42401744D01*
X87415957Y-42229196D01*
X86966017Y-42228804D01*
X86550177Y-42400625D01*
X86231744Y-42718503D01*
X86190111Y-42818766D01*
X86149375Y-42720177D01*
X85831497Y-42401744D01*
X85415957Y-42229196D01*
X84966017Y-42228804D01*
X84550177Y-42400625D01*
X84231744Y-42718503D01*
X84059196Y-43134043D01*
X84058804Y-43583983D01*
X82146092Y-43583983D01*
X82176464Y-43434000D01*
X82176464Y-41402000D01*
X82149897Y-41260810D01*
X82066454Y-41131135D01*
X81939134Y-41044141D01*
X81788000Y-41013536D01*
X79756000Y-41013536D01*
X79614810Y-41040103D01*
X79485135Y-41123546D01*
X79398141Y-41250866D01*
X79367536Y-41402000D01*
X79367536Y-41623863D01*
X79219828Y-41402803D01*
X78766609Y-41099971D01*
X78232000Y-40993631D01*
X77697391Y-41099971D01*
X77244172Y-41402803D01*
X76941340Y-41856022D01*
X76835000Y-42390631D01*
X74912064Y-42390631D01*
X74912064Y-41402000D01*
X74885497Y-41260810D01*
X74802054Y-41131135D01*
X74674734Y-41044141D01*
X74523600Y-41013536D01*
X72796400Y-41013536D01*
X72655210Y-41040103D01*
X72525535Y-41123546D01*
X72438541Y-41250866D01*
X72407936Y-41402000D01*
X72029354Y-41402000D01*
X72000065Y-41358166D01*
X71596288Y-41088371D01*
X71120000Y-40993631D01*
X70643712Y-41088371D01*
X70239935Y-41358166D01*
X69970140Y-41761943D01*
X69967296Y-41776243D01*
X69871954Y-41503680D01*
X69482036Y-41067268D01*
X68954791Y-40813291D01*
X68939026Y-40810642D01*
X68707000Y-40931783D01*
X68453000Y-40931783D01*
X68220974Y-40810642D01*
X68205209Y-40813291D01*
X67677964Y-41067268D01*
X67288046Y-41503680D01*
X67094816Y-42056087D01*
X65502064Y-42056087D01*
X65502064Y-41402000D01*
X65475497Y-41260810D01*
X65392054Y-41131135D01*
X65264734Y-41044141D01*
X65113600Y-41013536D01*
X63386400Y-41013536D01*
X63245210Y-41040103D01*
X63115535Y-41123546D01*
X63028541Y-41250866D01*
X62997936Y-41402000D01*
X62619354Y-41402000D01*
X62590065Y-41358166D01*
X62186288Y-41088371D01*
X61710000Y-40993631D01*
X61233712Y-41088371D01*
X60829935Y-41358166D01*
X60560140Y-41761943D01*
X60465400Y-42238231D01*
X60414600Y-42238231D01*
X60319860Y-41761943D01*
X60050065Y-41358166D01*
X59646288Y-41088371D01*
X59170000Y-40993631D01*
X58693712Y-41088371D01*
X58289935Y-41358166D01*
X58020140Y-41761943D01*
X57925400Y-42238231D01*
X57874600Y-42238231D01*
X57779860Y-41761943D01*
X57510065Y-41358166D01*
X57106288Y-41088371D01*
X56630000Y-40993631D01*
X56153712Y-41088371D01*
X55749935Y-41358166D01*
X55480140Y-41761943D01*
X55385400Y-42238231D01*
X51858510Y-42238231D01*
X51795564Y-42085891D01*
X51266892Y-41556296D01*
X50575796Y-41269327D01*
X49827487Y-41268674D01*
X49135891Y-41554436D01*
X48606296Y-42083108D01*
X48319327Y-42774204D01*
X48318674Y-43522513D01*
X47056000Y-43522513D01*
X47056000Y-40006000D01*
X99444000Y-40006000D01*
X99444000Y-112194000D01*
X99444000Y-112194000D01*
G37*
X99444000Y-112194000D02*
X47056000Y-112194000D01*
X47056000Y-109472513D01*
X48318674Y-109472513D01*
X48604436Y-110164109D01*
X49133108Y-110693704D01*
X49824204Y-110980673D01*
X50572513Y-110981326D01*
X51264109Y-110695564D01*
X51793704Y-110166892D01*
X51821879Y-110099039D01*
X55558096Y-110099039D01*
X55718959Y-110487423D01*
X56094866Y-110902389D01*
X56600959Y-111141914D01*
X56823000Y-111020629D01*
X56823000Y-109877000D01*
X57077000Y-109877000D01*
X57077000Y-111020629D01*
X57299041Y-111141914D01*
X57805134Y-110902389D01*
X58181041Y-110487423D01*
X58341904Y-110099039D01*
X62158096Y-110099039D01*
X62318959Y-110487423D01*
X62694866Y-110902389D01*
X63200959Y-111141914D01*
X63423000Y-111020629D01*
X63423000Y-109877000D01*
X63677000Y-109877000D01*
X63677000Y-111020629D01*
X63899041Y-111141914D01*
X64405134Y-110902389D01*
X64781041Y-110487423D01*
X64941904Y-110099039D01*
X64819915Y-109877000D01*
X63677000Y-109877000D01*
X63423000Y-109877000D01*
X62280085Y-109877000D01*
X62158096Y-110099039D01*
X58341904Y-110099039D01*
X58219915Y-109877000D01*
X57077000Y-109877000D01*
X56823000Y-109877000D01*
X55680085Y-109877000D01*
X55558096Y-110099039D01*
X51821879Y-110099039D01*
X52080673Y-109475796D01*
X52080738Y-109400961D01*
X55558096Y-109400961D01*
X55680085Y-109623000D01*
X56823000Y-109623000D01*
X56823000Y-108479371D01*
X57077000Y-108479371D01*
X57077000Y-109623000D01*
X58219915Y-109623000D01*
X58341904Y-109400961D01*
X62158096Y-109400961D01*
X62280085Y-109623000D01*
X63423000Y-109623000D01*
X63423000Y-108479371D01*
X63677000Y-108479371D01*
X63677000Y-109623000D01*
X64819915Y-109623000D01*
X64912773Y-109453983D01*
X82048804Y-109453983D01*
X82220625Y-109869823D01*
X82538503Y-110188256D01*
X82954043Y-110360804D01*
X83403983Y-110361196D01*
X83819823Y-110189375D01*
X84138256Y-109871497D01*
X84179889Y-109771234D01*
X84220625Y-109869823D01*
X84538503Y-110188256D01*
X84954043Y-110360804D01*
X85403983Y-110361196D01*
X85819823Y-110189375D01*
X86138256Y-109871497D01*
X86179889Y-109771234D01*
X86220625Y-109869823D01*
X86538503Y-110188256D01*
X86954043Y-110360804D01*
X87403983Y-110361196D01*
X87819823Y-110189375D01*
X88138256Y-109871497D01*
X88179889Y-109771234D01*
X88220625Y-109869823D01*
X88538503Y-110188256D01*
X88954043Y-110360804D01*
X89403983Y-110361196D01*
X89819823Y-110189375D01*
X90138256Y-109871497D01*
X90303929Y-109472513D01*
X94418674Y-109472513D01*
X94704436Y-110164109D01*
X95233108Y-110693704D01*
X95924204Y-110980673D01*
X96672513Y-110981326D01*
X97364109Y-110695564D01*
X97893704Y-110166892D01*
X98180673Y-109475796D01*
X98181326Y-108727487D01*
X97895564Y-108035891D01*
X97366892Y-107506296D01*
X96675796Y-107219327D01*
X95927487Y-107218674D01*
X95235891Y-107504436D01*
X94706296Y-108033108D01*
X94419327Y-108724204D01*
X94418674Y-109472513D01*
X90303929Y-109472513D01*
X90310804Y-109455957D01*
X90311196Y-109006017D01*
X90139375Y-108590177D01*
X89821497Y-108271744D01*
X89405957Y-108099196D01*
X88956017Y-108098804D01*
X88540177Y-108270625D01*
X88221744Y-108588503D01*
X88180111Y-108688766D01*
X88139375Y-108590177D01*
X87821497Y-108271744D01*
X87405957Y-108099196D01*
X86956017Y-108098804D01*
X86540177Y-108270625D01*
X86221744Y-108588503D01*
X86180111Y-108688766D01*
X86139375Y-108590177D01*
X85821497Y-108271744D01*
X85405957Y-108099196D01*
X84956017Y-108098804D01*
X84540177Y-108270625D01*
X84221744Y-108588503D01*
X84180111Y-108688766D01*
X84139375Y-108590177D01*
X83821497Y-108271744D01*
X83405957Y-108099196D01*
X82956017Y-108098804D01*
X82540177Y-108270625D01*
X82221744Y-108588503D01*
X82049196Y-109004043D01*
X82048804Y-109453983D01*
X64912773Y-109453983D01*
X64941904Y-109400961D01*
X64781041Y-109012577D01*
X64405134Y-108597611D01*
X63899041Y-108358086D01*
X63677000Y-108479371D01*
X63423000Y-108479371D01*
X63200959Y-108358086D01*
X62694866Y-108597611D01*
X62318959Y-109012577D01*
X62158096Y-109400961D01*
X58341904Y-109400961D01*
X58181041Y-109012577D01*
X57846578Y-108643361D01*
X60025975Y-108643361D01*
X60135950Y-108909521D01*
X60339408Y-109113335D01*
X60605376Y-109223774D01*
X60893361Y-109224025D01*
X61159521Y-109114050D01*
X61363335Y-108910592D01*
X61473774Y-108644624D01*
X61474025Y-108356639D01*
X61364050Y-108090479D01*
X61160592Y-107886665D01*
X60894624Y-107776226D01*
X60606639Y-107775975D01*
X60340479Y-107885950D01*
X60136665Y-108089408D01*
X60026226Y-108355376D01*
X60025975Y-108643361D01*
X57846578Y-108643361D01*
X57805134Y-108597611D01*
X57299041Y-108358086D01*
X57077000Y-108479371D01*
X56823000Y-108479371D01*
X56600959Y-108358086D01*
X56094866Y-108597611D01*
X55718959Y-109012577D01*
X55558096Y-109400961D01*
X52080738Y-109400961D01*
X52081326Y-108727487D01*
X52046566Y-108643361D01*
X53775975Y-108643361D01*
X53885950Y-108909521D01*
X54089408Y-109113335D01*
X54355376Y-109223774D01*
X54643361Y-109224025D01*
X54909521Y-109114050D01*
X55113335Y-108910592D01*
X55223774Y-108644624D01*
X55224025Y-108356639D01*
X55114050Y-108090479D01*
X54910592Y-107886665D01*
X54644624Y-107776226D01*
X54356639Y-107775975D01*
X54090479Y-107885950D01*
X53886665Y-108089408D01*
X53776226Y-108355376D01*
X53775975Y-108643361D01*
X52046566Y-108643361D01*
X51795564Y-108035891D01*
X51266892Y-107506296D01*
X50575796Y-107219327D01*
X49827487Y-107218674D01*
X49135891Y-107504436D01*
X48606296Y-108033108D01*
X48319327Y-108724204D01*
X48318674Y-109472513D01*
X47056000Y-109472513D01*
X47056000Y-105833361D01*
X58865975Y-105833361D01*
X58975950Y-106099521D01*
X59179408Y-106303335D01*
X59445376Y-106413774D01*
X59733361Y-106414025D01*
X59999521Y-106304050D01*
X60203335Y-106100592D01*
X60242530Y-106006200D01*
X60389408Y-106153335D01*
X60655376Y-106263774D01*
X60943361Y-106264025D01*
X61209521Y-106154050D01*
X61413335Y-105950592D01*
X61523774Y-105684624D01*
X61524025Y-105396639D01*
X61414050Y-105130479D01*
X61210592Y-104926665D01*
X60944624Y-104816226D01*
X60656639Y-104815975D01*
X60390479Y-104925950D01*
X60186665Y-105129408D01*
X60147470Y-105223800D01*
X60000592Y-105076665D01*
X59734624Y-104966226D01*
X59446639Y-104965975D01*
X59180479Y-105075950D01*
X58976665Y-105279408D01*
X58866226Y-105545376D01*
X58865975Y-105833361D01*
X47056000Y-105833361D01*
X47056000Y-102922944D01*
X47894025Y-102922944D01*
X48093615Y-103404818D01*
X48531621Y-103877188D01*
X49117054Y-104145983D01*
X49373000Y-104027367D01*
X49373000Y-102667000D01*
X49627000Y-102667000D01*
X49627000Y-104027367D01*
X49882946Y-104145983D01*
X50468379Y-103877188D01*
X50906385Y-103404818D01*
X51105975Y-102922944D01*
X50986836Y-102667000D01*
X49627000Y-102667000D01*
X49373000Y-102667000D01*
X48013164Y-102667000D01*
X47894025Y-102922944D01*
X47056000Y-102922944D01*
X47056000Y-102157056D01*
X47894025Y-102157056D01*
X48013164Y-102413000D01*
X49373000Y-102413000D01*
X49373000Y-102393000D01*
X49627000Y-102393000D01*
X49627000Y-102413000D01*
X50986836Y-102413000D01*
X50995977Y-102393361D01*
X87275975Y-102393361D01*
X87385950Y-102659521D01*
X87589408Y-102863335D01*
X87855376Y-102973774D01*
X88143361Y-102974025D01*
X88409521Y-102864050D01*
X88613335Y-102660592D01*
X88723774Y-102394624D01*
X88723992Y-102143361D01*
X90775975Y-102143361D01*
X90885950Y-102409521D01*
X91089408Y-102613335D01*
X91355376Y-102723774D01*
X91643361Y-102724025D01*
X91909521Y-102614050D01*
X92104886Y-102419026D01*
X95322642Y-102419026D01*
X95325291Y-102434791D01*
X95579268Y-102962036D01*
X96015680Y-103351954D01*
X96568087Y-103545184D01*
X96803000Y-103400924D01*
X96803000Y-102187000D01*
X97057000Y-102187000D01*
X97057000Y-103400924D01*
X97291913Y-103545184D01*
X97844320Y-103351954D01*
X98280732Y-102962036D01*
X98534709Y-102434791D01*
X98537358Y-102419026D01*
X98416217Y-102187000D01*
X97057000Y-102187000D01*
X96803000Y-102187000D01*
X95443783Y-102187000D01*
X95322642Y-102419026D01*
X92104886Y-102419026D01*
X92113335Y-102410592D01*
X92223774Y-102144624D01*
X92224025Y-101856639D01*
X92159706Y-101700974D01*
X95322642Y-101700974D01*
X95443783Y-101933000D01*
X96803000Y-101933000D01*
X96803000Y-101913000D01*
X97057000Y-101913000D01*
X97057000Y-101933000D01*
X98416217Y-101933000D01*
X98537358Y-101700974D01*
X98534709Y-101685209D01*
X98280732Y-101157964D01*
X97844320Y-100768046D01*
X97571757Y-100672704D01*
X97586057Y-100669860D01*
X97989834Y-100400065D01*
X98259629Y-99996288D01*
X98354369Y-99520000D01*
X98259629Y-99043712D01*
X97989834Y-98639935D01*
X97586057Y-98370140D01*
X97109769Y-98275400D01*
X96750231Y-98275400D01*
X96273943Y-98370140D01*
X95870166Y-98639935D01*
X95600371Y-99043712D01*
X95505631Y-99520000D01*
X95600371Y-99996288D01*
X95870166Y-100400065D01*
X96273943Y-100669860D01*
X96288243Y-100672704D01*
X96015680Y-100768046D01*
X95579268Y-101157964D01*
X95325291Y-101685209D01*
X95322642Y-101700974D01*
X92159706Y-101700974D01*
X92114050Y-101590479D01*
X91910592Y-101386665D01*
X91644624Y-101276226D01*
X91356639Y-101275975D01*
X91090479Y-101385950D01*
X90886665Y-101589408D01*
X90776226Y-101855376D01*
X90775975Y-102143361D01*
X88723992Y-102143361D01*
X88724025Y-102106639D01*
X88614050Y-101840479D01*
X88410592Y-101636665D01*
X88144624Y-101526226D01*
X87856639Y-101525975D01*
X87590479Y-101635950D01*
X87386665Y-101839408D01*
X87276226Y-102105376D01*
X87275975Y-102393361D01*
X50995977Y-102393361D01*
X51105975Y-102157056D01*
X50906385Y-101675182D01*
X50634658Y-101382137D01*
X50657190Y-101377897D01*
X50786865Y-101294454D01*
X50873859Y-101167134D01*
X50904464Y-101016000D01*
X50904464Y-98984000D01*
X50877897Y-98842810D01*
X50794454Y-98713135D01*
X50667134Y-98626141D01*
X50516000Y-98595536D01*
X48484000Y-98595536D01*
X48342810Y-98622103D01*
X48213135Y-98705546D01*
X48126141Y-98832866D01*
X48095536Y-98984000D01*
X48095536Y-101016000D01*
X48122103Y-101157190D01*
X48205546Y-101286865D01*
X48332866Y-101373859D01*
X48366670Y-101380704D01*
X48093615Y-101675182D01*
X47894025Y-102157056D01*
X47056000Y-102157056D01*
X47056000Y-97583361D01*
X70585975Y-97583361D01*
X70695950Y-97849521D01*
X70899408Y-98053335D01*
X71165376Y-98163774D01*
X71453361Y-98164025D01*
X71719521Y-98054050D01*
X71910128Y-97863776D01*
X72069408Y-98023335D01*
X72335376Y-98133774D01*
X72623361Y-98134025D01*
X72889521Y-98024050D01*
X73093335Y-97820592D01*
X73203774Y-97554624D01*
X73203958Y-97343361D01*
X93575975Y-97343361D01*
X93685950Y-97609521D01*
X93889408Y-97813335D01*
X94155376Y-97923774D01*
X94443361Y-97924025D01*
X94709521Y-97814050D01*
X94913335Y-97610592D01*
X95023774Y-97344624D01*
X95024025Y-97056639D01*
X94992359Y-96980000D01*
X95505631Y-96980000D01*
X95600371Y-97456288D01*
X95870166Y-97860065D01*
X96273943Y-98129860D01*
X96750231Y-98224600D01*
X97109769Y-98224600D01*
X97586057Y-98129860D01*
X97989834Y-97860065D01*
X98259629Y-97456288D01*
X98354369Y-96980000D01*
X98259629Y-96503712D01*
X97989834Y-96099935D01*
X97586057Y-95830140D01*
X97109769Y-95735400D01*
X96750231Y-95735400D01*
X96273943Y-95830140D01*
X95870166Y-96099935D01*
X95600371Y-96503712D01*
X95505631Y-96980000D01*
X94992359Y-96980000D01*
X94914050Y-96790479D01*
X94710592Y-96586665D01*
X94444624Y-96476226D01*
X94156639Y-96475975D01*
X93890479Y-96585950D01*
X93686665Y-96789408D01*
X93576226Y-97055376D01*
X93575975Y-97343361D01*
X73203958Y-97343361D01*
X73204025Y-97266639D01*
X73094050Y-97000479D01*
X72890592Y-96796665D01*
X72624624Y-96686226D01*
X72336639Y-96685975D01*
X72070479Y-96795950D01*
X71879872Y-96986224D01*
X71720592Y-96826665D01*
X71454624Y-96716226D01*
X71166639Y-96715975D01*
X70900479Y-96825950D01*
X70696665Y-97029408D01*
X70586226Y-97295376D01*
X70585975Y-97583361D01*
X47056000Y-97583361D01*
X47056000Y-96080000D01*
X48075631Y-96080000D01*
X48170371Y-96556288D01*
X48440166Y-96960065D01*
X48843943Y-97229860D01*
X49320231Y-97324600D01*
X49679769Y-97324600D01*
X50156057Y-97229860D01*
X50559834Y-96960065D01*
X50829629Y-96556288D01*
X50924369Y-96080000D01*
X50851440Y-95713361D01*
X76545975Y-95713361D01*
X76655950Y-95979521D01*
X76859408Y-96183335D01*
X77125376Y-96293774D01*
X77413361Y-96294025D01*
X77679521Y-96184050D01*
X77883335Y-95980592D01*
X77993774Y-95714624D01*
X77994025Y-95426639D01*
X77938956Y-95293361D01*
X93925975Y-95293361D01*
X94035950Y-95559521D01*
X94239408Y-95763335D01*
X94505376Y-95873774D01*
X94793361Y-95874025D01*
X95059521Y-95764050D01*
X95263335Y-95560592D01*
X95373774Y-95294624D01*
X95374025Y-95006639D01*
X95264050Y-94740479D01*
X95060592Y-94536665D01*
X94827796Y-94440000D01*
X95505631Y-94440000D01*
X95600371Y-94916288D01*
X95870166Y-95320065D01*
X96273943Y-95589860D01*
X96750231Y-95684600D01*
X97109769Y-95684600D01*
X97586057Y-95589860D01*
X97989834Y-95320065D01*
X98259629Y-94916288D01*
X98354369Y-94440000D01*
X98259629Y-93963712D01*
X97989834Y-93559935D01*
X97586057Y-93290140D01*
X97109769Y-93195400D01*
X96750231Y-93195400D01*
X96273943Y-93290140D01*
X95870166Y-93559935D01*
X95600371Y-93963712D01*
X95505631Y-94440000D01*
X94827796Y-94440000D01*
X94794624Y-94426226D01*
X94506639Y-94425975D01*
X94240479Y-94535950D01*
X94036665Y-94739408D01*
X93926226Y-95005376D01*
X93925975Y-95293361D01*
X77938956Y-95293361D01*
X77884050Y-95160479D01*
X77680592Y-94956665D01*
X77414624Y-94846226D01*
X77126639Y-94845975D01*
X76860479Y-94955950D01*
X76656665Y-95159408D01*
X76546226Y-95425376D01*
X76545975Y-95713361D01*
X50851440Y-95713361D01*
X50829629Y-95603712D01*
X50559834Y-95199935D01*
X50156057Y-94930140D01*
X49679769Y-94835400D01*
X49320231Y-94835400D01*
X48843943Y-94930140D01*
X48440166Y-95199935D01*
X48170371Y-95603712D01*
X48075631Y-96080000D01*
X47056000Y-96080000D01*
X47056000Y-93540000D01*
X48075631Y-93540000D01*
X48170371Y-94016288D01*
X48440166Y-94420065D01*
X48843943Y-94689860D01*
X49320231Y-94784600D01*
X49679769Y-94784600D01*
X50156057Y-94689860D01*
X50524969Y-94443361D01*
X63325975Y-94443361D01*
X63435950Y-94709521D01*
X63639408Y-94913335D01*
X63905376Y-95023774D01*
X64193361Y-95024025D01*
X64459521Y-94914050D01*
X64663335Y-94710592D01*
X64773774Y-94444624D01*
X64774025Y-94156639D01*
X64710692Y-94003361D01*
X75215975Y-94003361D01*
X75325950Y-94269521D01*
X75529408Y-94473335D01*
X75795376Y-94583774D01*
X76083361Y-94584025D01*
X76349521Y-94474050D01*
X76553335Y-94270592D01*
X76663774Y-94004624D01*
X76663958Y-93793361D01*
X93725975Y-93793361D01*
X93835950Y-94059521D01*
X94039408Y-94263335D01*
X94305376Y-94373774D01*
X94593361Y-94374025D01*
X94859521Y-94264050D01*
X95063335Y-94060592D01*
X95173774Y-93794624D01*
X95174025Y-93506639D01*
X95064050Y-93240479D01*
X94860592Y-93036665D01*
X94594624Y-92926226D01*
X94306639Y-92925975D01*
X94040479Y-93035950D01*
X93836665Y-93239408D01*
X93726226Y-93505376D01*
X93725975Y-93793361D01*
X76663958Y-93793361D01*
X76664025Y-93716639D01*
X76554050Y-93450479D01*
X76350592Y-93246665D01*
X76084624Y-93136226D01*
X75796639Y-93135975D01*
X75530479Y-93245950D01*
X75326665Y-93449408D01*
X75216226Y-93715376D01*
X75215975Y-94003361D01*
X64710692Y-94003361D01*
X64664050Y-93890479D01*
X64460592Y-93686665D01*
X64194624Y-93576226D01*
X63906639Y-93575975D01*
X63640479Y-93685950D01*
X63436665Y-93889408D01*
X63326226Y-94155376D01*
X63325975Y-94443361D01*
X50524969Y-94443361D01*
X50559834Y-94420065D01*
X50829629Y-94016288D01*
X50924369Y-93540000D01*
X50829629Y-93063712D01*
X50559834Y-92659935D01*
X50220742Y-92433361D01*
X66775975Y-92433361D01*
X66885950Y-92699521D01*
X67089408Y-92903335D01*
X67355376Y-93013774D01*
X67643361Y-93014025D01*
X67909521Y-92904050D01*
X68113335Y-92700592D01*
X68223774Y-92434624D01*
X68224025Y-92146639D01*
X68114050Y-91880479D01*
X67927259Y-91693361D01*
X92575975Y-91693361D01*
X92685950Y-91959521D01*
X92889408Y-92163335D01*
X93155376Y-92273774D01*
X93443361Y-92274025D01*
X93709521Y-92164050D01*
X93913335Y-91960592D01*
X93938494Y-91900000D01*
X95505631Y-91900000D01*
X95600371Y-92376288D01*
X95870166Y-92780065D01*
X96273943Y-93049860D01*
X96750231Y-93144600D01*
X97109769Y-93144600D01*
X97586057Y-93049860D01*
X97989834Y-92780065D01*
X98259629Y-92376288D01*
X98354369Y-91900000D01*
X98259629Y-91423712D01*
X97989834Y-91019935D01*
X97586057Y-90750140D01*
X97109769Y-90655400D01*
X96750231Y-90655400D01*
X96273943Y-90750140D01*
X95870166Y-91019935D01*
X95600371Y-91423712D01*
X95505631Y-91900000D01*
X93938494Y-91900000D01*
X94023774Y-91694624D01*
X94024025Y-91406639D01*
X93914050Y-91140479D01*
X93710592Y-90936665D01*
X93444624Y-90826226D01*
X93156639Y-90825975D01*
X92890479Y-90935950D01*
X92686665Y-91139408D01*
X92576226Y-91405376D01*
X92575975Y-91693361D01*
X67927259Y-91693361D01*
X67910592Y-91676665D01*
X67644624Y-91566226D01*
X67356639Y-91565975D01*
X67090479Y-91675950D01*
X66886665Y-91879408D01*
X66776226Y-92145376D01*
X66775975Y-92433361D01*
X50220742Y-92433361D01*
X50156057Y-92390140D01*
X49679769Y-92295400D01*
X49320231Y-92295400D01*
X48843943Y-92390140D01*
X48440166Y-92659935D01*
X48170371Y-93063712D01*
X48075631Y-93540000D01*
X47056000Y-93540000D01*
X47056000Y-90136400D01*
X48095536Y-90136400D01*
X48095536Y-91863600D01*
X48122103Y-92004790D01*
X48205546Y-92134465D01*
X48332866Y-92221459D01*
X48484000Y-92252064D01*
X50516000Y-92252064D01*
X50657190Y-92225497D01*
X50786865Y-92142054D01*
X50873859Y-92014734D01*
X50904464Y-91863600D01*
X50904464Y-90136400D01*
X50877897Y-89995210D01*
X50794454Y-89865535D01*
X50688824Y-89793361D01*
X69875975Y-89793361D01*
X69985950Y-90059521D01*
X70189408Y-90263335D01*
X70455376Y-90373774D01*
X70743361Y-90374025D01*
X71009521Y-90264050D01*
X71213335Y-90060592D01*
X71323774Y-89794624D01*
X71324025Y-89506639D01*
X71310275Y-89473361D01*
X75355975Y-89473361D01*
X75465950Y-89739521D01*
X75669408Y-89943335D01*
X75935376Y-90053774D01*
X76223361Y-90054025D01*
X76489521Y-89944050D01*
X76693335Y-89740592D01*
X76803774Y-89474624D01*
X76803844Y-89393361D01*
X92775975Y-89393361D01*
X92885950Y-89659521D01*
X93089408Y-89863335D01*
X93355376Y-89973774D01*
X93643361Y-89974025D01*
X93909521Y-89864050D01*
X94113335Y-89660592D01*
X94223774Y-89394624D01*
X94223804Y-89360000D01*
X95505631Y-89360000D01*
X95600371Y-89836288D01*
X95870166Y-90240065D01*
X96273943Y-90509860D01*
X96750231Y-90604600D01*
X97109769Y-90604600D01*
X97586057Y-90509860D01*
X97989834Y-90240065D01*
X98259629Y-89836288D01*
X98354369Y-89360000D01*
X98259629Y-88883712D01*
X97989834Y-88479935D01*
X97586057Y-88210140D01*
X97109769Y-88115400D01*
X96750231Y-88115400D01*
X96273943Y-88210140D01*
X95870166Y-88479935D01*
X95600371Y-88883712D01*
X95505631Y-89360000D01*
X94223804Y-89360000D01*
X94224025Y-89106639D01*
X94114050Y-88840479D01*
X93910592Y-88636665D01*
X93644624Y-88526226D01*
X93356639Y-88525975D01*
X93090479Y-88635950D01*
X92886665Y-88839408D01*
X92776226Y-89105376D01*
X92775975Y-89393361D01*
X76803844Y-89393361D01*
X76804025Y-89186639D01*
X76694050Y-88920479D01*
X76490592Y-88716665D01*
X76224624Y-88606226D01*
X75936639Y-88605975D01*
X75670479Y-88715950D01*
X75466665Y-88919408D01*
X75356226Y-89185376D01*
X75355975Y-89473361D01*
X71310275Y-89473361D01*
X71214050Y-89240479D01*
X71010592Y-89036665D01*
X70744624Y-88926226D01*
X70456639Y-88925975D01*
X70190479Y-89035950D01*
X69986665Y-89239408D01*
X69876226Y-89505376D01*
X69875975Y-89793361D01*
X50688824Y-89793361D01*
X50667134Y-89778541D01*
X50516000Y-89747936D01*
X48484000Y-89747936D01*
X48342810Y-89774503D01*
X48213135Y-89857946D01*
X48126141Y-89985266D01*
X48095536Y-90136400D01*
X47056000Y-90136400D01*
X47056000Y-86979026D01*
X47892642Y-86979026D01*
X47895291Y-86994791D01*
X48149268Y-87522036D01*
X48585680Y-87911954D01*
X49138087Y-88105184D01*
X49373000Y-87960924D01*
X49373000Y-86747000D01*
X49627000Y-86747000D01*
X49627000Y-87960924D01*
X49861913Y-88105184D01*
X50414320Y-87911954D01*
X50770902Y-87593361D01*
X87575975Y-87593361D01*
X87685950Y-87859521D01*
X87889408Y-88063335D01*
X88155376Y-88173774D01*
X88426123Y-88174010D01*
X88425975Y-88343361D01*
X88535950Y-88609521D01*
X88739408Y-88813335D01*
X89005376Y-88923774D01*
X89293361Y-88924025D01*
X89559521Y-88814050D01*
X89763335Y-88610592D01*
X89873774Y-88344624D01*
X89874025Y-88056639D01*
X89764050Y-87790479D01*
X89560592Y-87586665D01*
X89294624Y-87476226D01*
X89023877Y-87475990D01*
X89024025Y-87306639D01*
X88914050Y-87040479D01*
X88767189Y-86893361D01*
X92475975Y-86893361D01*
X92585950Y-87159521D01*
X92789408Y-87363335D01*
X93055376Y-87473774D01*
X93343361Y-87474025D01*
X93609521Y-87364050D01*
X93813335Y-87160592D01*
X93923774Y-86894624D01*
X93923839Y-86820000D01*
X95505631Y-86820000D01*
X95600371Y-87296288D01*
X95870166Y-87700065D01*
X96273943Y-87969860D01*
X96750231Y-88064600D01*
X97109769Y-88064600D01*
X97586057Y-87969860D01*
X97989834Y-87700065D01*
X98259629Y-87296288D01*
X98354369Y-86820000D01*
X98259629Y-86343712D01*
X97989834Y-85939935D01*
X97586057Y-85670140D01*
X97109769Y-85575400D01*
X96750231Y-85575400D01*
X96273943Y-85670140D01*
X95870166Y-85939935D01*
X95600371Y-86343712D01*
X95505631Y-86820000D01*
X93923839Y-86820000D01*
X93924025Y-86606639D01*
X93814050Y-86340479D01*
X93610592Y-86136665D01*
X93344624Y-86026226D01*
X93056639Y-86025975D01*
X92790479Y-86135950D01*
X92586665Y-86339408D01*
X92476226Y-86605376D01*
X92475975Y-86893361D01*
X88767189Y-86893361D01*
X88710592Y-86836665D01*
X88444624Y-86726226D01*
X88156639Y-86725975D01*
X87890479Y-86835950D01*
X87686665Y-87039408D01*
X87576226Y-87305376D01*
X87575975Y-87593361D01*
X50770902Y-87593361D01*
X50850732Y-87522036D01*
X51104709Y-86994791D01*
X51107358Y-86979026D01*
X50986217Y-86747000D01*
X49627000Y-86747000D01*
X49373000Y-86747000D01*
X48013783Y-86747000D01*
X47892642Y-86979026D01*
X47056000Y-86979026D01*
X47056000Y-86260974D01*
X47892642Y-86260974D01*
X48013783Y-86493000D01*
X49373000Y-86493000D01*
X49373000Y-86473000D01*
X49627000Y-86473000D01*
X49627000Y-86493000D01*
X50986217Y-86493000D01*
X51107358Y-86260974D01*
X51104709Y-86245209D01*
X51060466Y-86153361D01*
X75905975Y-86153361D01*
X76015950Y-86419521D01*
X76219408Y-86623335D01*
X76485376Y-86733774D01*
X76773361Y-86734025D01*
X77039521Y-86624050D01*
X77243335Y-86420592D01*
X77353774Y-86154624D01*
X77353923Y-85983361D01*
X79975975Y-85983361D01*
X80085950Y-86249521D01*
X80289408Y-86453335D01*
X80555376Y-86563774D01*
X80843361Y-86564025D01*
X81109521Y-86454050D01*
X81313335Y-86250592D01*
X81423774Y-85984624D01*
X81424025Y-85696639D01*
X81314050Y-85430479D01*
X81110592Y-85226665D01*
X80844624Y-85116226D01*
X80556639Y-85115975D01*
X80290479Y-85225950D01*
X80086665Y-85429408D01*
X79976226Y-85695376D01*
X79975975Y-85983361D01*
X77353923Y-85983361D01*
X77354025Y-85866639D01*
X77244050Y-85600479D01*
X77040592Y-85396665D01*
X76774624Y-85286226D01*
X76486639Y-85285975D01*
X76220479Y-85395950D01*
X76016665Y-85599408D01*
X75906226Y-85865376D01*
X75905975Y-86153361D01*
X51060466Y-86153361D01*
X50850732Y-85717964D01*
X50414320Y-85328046D01*
X50141757Y-85232704D01*
X50156057Y-85229860D01*
X50559834Y-84960065D01*
X50829629Y-84556288D01*
X50924369Y-84080000D01*
X50897190Y-83943361D01*
X53025975Y-83943361D01*
X53135950Y-84209521D01*
X53339408Y-84413335D01*
X53605376Y-84523774D01*
X53893361Y-84524025D01*
X54159521Y-84414050D01*
X54293805Y-84280000D01*
X95505631Y-84280000D01*
X95600371Y-84756288D01*
X95870166Y-85160065D01*
X96273943Y-85429860D01*
X96750231Y-85524600D01*
X97109769Y-85524600D01*
X97586057Y-85429860D01*
X97989834Y-85160065D01*
X98259629Y-84756288D01*
X98354369Y-84280000D01*
X98259629Y-83803712D01*
X97989834Y-83399935D01*
X97586057Y-83130140D01*
X97109769Y-83035400D01*
X96750231Y-83035400D01*
X96273943Y-83130140D01*
X95870166Y-83399935D01*
X95600371Y-83803712D01*
X95505631Y-84280000D01*
X54293805Y-84280000D01*
X54363335Y-84210592D01*
X54473774Y-83944624D01*
X54474025Y-83656639D01*
X54364050Y-83390479D01*
X54160592Y-83186665D01*
X53894624Y-83076226D01*
X53606639Y-83075975D01*
X53340479Y-83185950D01*
X53136665Y-83389408D01*
X53026226Y-83655376D01*
X53025975Y-83943361D01*
X50897190Y-83943361D01*
X50829629Y-83603712D01*
X50559834Y-83199935D01*
X50156057Y-82930140D01*
X49679769Y-82835400D01*
X49320231Y-82835400D01*
X48843943Y-82930140D01*
X48440166Y-83199935D01*
X48170371Y-83603712D01*
X48075631Y-84080000D01*
X48170371Y-84556288D01*
X48440166Y-84960065D01*
X48843943Y-85229860D01*
X48858243Y-85232704D01*
X48585680Y-85328046D01*
X48149268Y-85717964D01*
X47895291Y-86245209D01*
X47892642Y-86260974D01*
X47056000Y-86260974D01*
X47056000Y-81540000D01*
X48075631Y-81540000D01*
X48170371Y-82016288D01*
X48440166Y-82420065D01*
X48843943Y-82689860D01*
X49320231Y-82784600D01*
X49679769Y-82784600D01*
X50156057Y-82689860D01*
X50559834Y-82420065D01*
X50577677Y-82393361D01*
X72025975Y-82393361D01*
X72135950Y-82659521D01*
X72339408Y-82863335D01*
X72605376Y-82973774D01*
X72893361Y-82974025D01*
X73159521Y-82864050D01*
X73363335Y-82660592D01*
X73473774Y-82394624D01*
X73473949Y-82193361D01*
X78425975Y-82193361D01*
X78535950Y-82459521D01*
X78739408Y-82663335D01*
X79005376Y-82773774D01*
X79293361Y-82774025D01*
X79559521Y-82664050D01*
X79763335Y-82460592D01*
X79772150Y-82439361D01*
X94271975Y-82439361D01*
X94381950Y-82705521D01*
X94585408Y-82909335D01*
X94851376Y-83019774D01*
X95139361Y-83020025D01*
X95405521Y-82910050D01*
X95609335Y-82706592D01*
X95719774Y-82440624D01*
X95719814Y-82395047D01*
X95870166Y-82620065D01*
X96273943Y-82889860D01*
X96750231Y-82984600D01*
X97109769Y-82984600D01*
X97586057Y-82889860D01*
X97989834Y-82620065D01*
X98259629Y-82216288D01*
X98354369Y-81740000D01*
X98259629Y-81263712D01*
X97989834Y-80859935D01*
X97586057Y-80590140D01*
X97109769Y-80495400D01*
X96750231Y-80495400D01*
X96273943Y-80590140D01*
X95870166Y-80859935D01*
X95600371Y-81263712D01*
X95505631Y-81740000D01*
X95516034Y-81792298D01*
X95406592Y-81682665D01*
X95140624Y-81572226D01*
X94852639Y-81571975D01*
X94586479Y-81681950D01*
X94382665Y-81885408D01*
X94272226Y-82151376D01*
X94271975Y-82439361D01*
X79772150Y-82439361D01*
X79873774Y-82194624D01*
X79874025Y-81906639D01*
X79764050Y-81640479D01*
X79560592Y-81436665D01*
X79294624Y-81326226D01*
X79006639Y-81325975D01*
X78740479Y-81435950D01*
X78536665Y-81639408D01*
X78426226Y-81905376D01*
X78425975Y-82193361D01*
X73473949Y-82193361D01*
X73474025Y-82106639D01*
X73364050Y-81840479D01*
X73160592Y-81636665D01*
X72894624Y-81526226D01*
X72606639Y-81525975D01*
X72340479Y-81635950D01*
X72136665Y-81839408D01*
X72026226Y-82105376D01*
X72025975Y-82393361D01*
X50577677Y-82393361D01*
X50829629Y-82016288D01*
X50924369Y-81540000D01*
X50829629Y-81063712D01*
X50559834Y-80659935D01*
X50156057Y-80390140D01*
X49679769Y-80295400D01*
X49320231Y-80295400D01*
X48843943Y-80390140D01*
X48440166Y-80659935D01*
X48170371Y-81063712D01*
X48075631Y-81540000D01*
X47056000Y-81540000D01*
X47056000Y-78136400D01*
X48095536Y-78136400D01*
X48095536Y-79863600D01*
X48122103Y-80004790D01*
X48205546Y-80134465D01*
X48332866Y-80221459D01*
X48484000Y-80252064D01*
X50516000Y-80252064D01*
X50657190Y-80225497D01*
X50784833Y-80143361D01*
X52025975Y-80143361D01*
X52135950Y-80409521D01*
X52339408Y-80613335D01*
X52605376Y-80723774D01*
X52893361Y-80724025D01*
X53159521Y-80614050D01*
X53363335Y-80410592D01*
X53374892Y-80382759D01*
X53385950Y-80409521D01*
X53589408Y-80613335D01*
X53855376Y-80723774D01*
X54143361Y-80724025D01*
X54409521Y-80614050D01*
X54410078Y-80613493D01*
X57318761Y-80613493D01*
X57528563Y-81121251D01*
X57916705Y-81510072D01*
X58424097Y-81720759D01*
X58973493Y-81721239D01*
X59481251Y-81511437D01*
X59500189Y-81492532D01*
X64227073Y-81492532D01*
X64325736Y-81759387D01*
X64935461Y-81985908D01*
X65585460Y-81961856D01*
X66074264Y-81759387D01*
X66172927Y-81492532D01*
X65200000Y-80519605D01*
X64227073Y-81492532D01*
X59500189Y-81492532D01*
X59870072Y-81123295D01*
X60080759Y-80615903D01*
X60081231Y-80075461D01*
X63554092Y-80075461D01*
X63578144Y-80725460D01*
X63780613Y-81214264D01*
X64047468Y-81312927D01*
X65020395Y-80340000D01*
X65379605Y-80340000D01*
X66352532Y-81312927D01*
X66619387Y-81214264D01*
X66845908Y-80604539D01*
X66821856Y-79954540D01*
X66821423Y-79953493D01*
X71908761Y-79953493D01*
X72118563Y-80461251D01*
X72506705Y-80850072D01*
X73014097Y-81060759D01*
X73563493Y-81061239D01*
X73969787Y-80893361D01*
X76075975Y-80893361D01*
X76185950Y-81159521D01*
X76389408Y-81363335D01*
X76655376Y-81473774D01*
X76943361Y-81474025D01*
X77209521Y-81364050D01*
X77413335Y-81160592D01*
X77523774Y-80894624D01*
X77524025Y-80606639D01*
X77414050Y-80340479D01*
X77210592Y-80136665D01*
X76944624Y-80026226D01*
X76656639Y-80025975D01*
X76390479Y-80135950D01*
X76186665Y-80339408D01*
X76076226Y-80605376D01*
X76075975Y-80893361D01*
X73969787Y-80893361D01*
X74071251Y-80851437D01*
X74460072Y-80463295D01*
X74670759Y-79955903D01*
X74670761Y-79953493D01*
X78408761Y-79953493D01*
X78618563Y-80461251D01*
X79006705Y-80850072D01*
X79514097Y-81060759D01*
X80063493Y-81061239D01*
X80571251Y-80851437D01*
X80960072Y-80463295D01*
X81170759Y-79955903D01*
X81171239Y-79406507D01*
X80961437Y-78898749D01*
X80573295Y-78509928D01*
X80155393Y-78336400D01*
X95525536Y-78336400D01*
X95525536Y-80063600D01*
X95552103Y-80204790D01*
X95635546Y-80334465D01*
X95762866Y-80421459D01*
X95914000Y-80452064D01*
X97946000Y-80452064D01*
X98087190Y-80425497D01*
X98216865Y-80342054D01*
X98303859Y-80214734D01*
X98334464Y-80063600D01*
X98334464Y-78336400D01*
X98307897Y-78195210D01*
X98224454Y-78065535D01*
X98097134Y-77978541D01*
X97946000Y-77947936D01*
X95914000Y-77947936D01*
X95772810Y-77974503D01*
X95643135Y-78057946D01*
X95556141Y-78185266D01*
X95525536Y-78336400D01*
X80155393Y-78336400D01*
X80065903Y-78299241D01*
X79516507Y-78298761D01*
X79008749Y-78508563D01*
X78619928Y-78896705D01*
X78409241Y-79404097D01*
X78408761Y-79953493D01*
X74670761Y-79953493D01*
X74671239Y-79406507D01*
X74461437Y-78898749D01*
X74073295Y-78509928D01*
X73565903Y-78299241D01*
X73016507Y-78298761D01*
X72508749Y-78508563D01*
X72119928Y-78896705D01*
X71909241Y-79404097D01*
X71908761Y-79953493D01*
X66821423Y-79953493D01*
X66619387Y-79465736D01*
X66352532Y-79367073D01*
X65379605Y-80340000D01*
X65020395Y-80340000D01*
X64047468Y-79367073D01*
X63780613Y-79465736D01*
X63554092Y-80075461D01*
X60081231Y-80075461D01*
X60081239Y-80066507D01*
X59871437Y-79558749D01*
X59500805Y-79187468D01*
X64227073Y-79187468D01*
X65200000Y-80160395D01*
X66172927Y-79187468D01*
X66074264Y-78920613D01*
X65464539Y-78694092D01*
X64814540Y-78718144D01*
X64325736Y-78920613D01*
X64227073Y-79187468D01*
X59500805Y-79187468D01*
X59483295Y-79169928D01*
X58975903Y-78959241D01*
X58426507Y-78958761D01*
X57918749Y-79168563D01*
X57529928Y-79556705D01*
X57319241Y-80064097D01*
X57318761Y-80613493D01*
X54410078Y-80613493D01*
X54613335Y-80410592D01*
X54723774Y-80144624D01*
X54724025Y-79856639D01*
X54614050Y-79590479D01*
X54410592Y-79386665D01*
X54144624Y-79276226D01*
X53856639Y-79275975D01*
X53590479Y-79385950D01*
X53386665Y-79589408D01*
X53375108Y-79617241D01*
X53364050Y-79590479D01*
X53160592Y-79386665D01*
X52894624Y-79276226D01*
X52606639Y-79275975D01*
X52340479Y-79385950D01*
X52136665Y-79589408D01*
X52026226Y-79855376D01*
X52025975Y-80143361D01*
X50784833Y-80143361D01*
X50786865Y-80142054D01*
X50873859Y-80014734D01*
X50904464Y-79863600D01*
X50904464Y-78629361D01*
X51345975Y-78629361D01*
X51455950Y-78895521D01*
X51659408Y-79099335D01*
X51925376Y-79209774D01*
X52213361Y-79210025D01*
X52479521Y-79100050D01*
X52683335Y-78896592D01*
X52793774Y-78630624D01*
X52794025Y-78342639D01*
X52711686Y-78143361D01*
X69275975Y-78143361D01*
X69385950Y-78409521D01*
X69589408Y-78613335D01*
X69855376Y-78723774D01*
X70143361Y-78724025D01*
X70409521Y-78614050D01*
X70613335Y-78410592D01*
X70723774Y-78144624D01*
X70724025Y-77856639D01*
X70614050Y-77590479D01*
X70410592Y-77386665D01*
X70144624Y-77276226D01*
X69856639Y-77275975D01*
X69590479Y-77385950D01*
X69386665Y-77589408D01*
X69276226Y-77855376D01*
X69275975Y-78143361D01*
X52711686Y-78143361D01*
X52684050Y-78076479D01*
X52480592Y-77872665D01*
X52214624Y-77762226D01*
X51926639Y-77761975D01*
X51660479Y-77871950D01*
X51456665Y-78075408D01*
X51346226Y-78341376D01*
X51345975Y-78629361D01*
X50904464Y-78629361D01*
X50904464Y-78136400D01*
X50877897Y-77995210D01*
X50794454Y-77865535D01*
X50667134Y-77778541D01*
X50516000Y-77747936D01*
X48484000Y-77747936D01*
X48342810Y-77774503D01*
X48213135Y-77857946D01*
X48126141Y-77985266D01*
X48095536Y-78136400D01*
X47056000Y-78136400D01*
X47056000Y-76113493D01*
X57318761Y-76113493D01*
X57528563Y-76621251D01*
X57916705Y-77010072D01*
X58424097Y-77220759D01*
X58973493Y-77221239D01*
X59481251Y-77011437D01*
X59870072Y-76623295D01*
X60080759Y-76115903D01*
X60080761Y-76113493D01*
X63818761Y-76113493D01*
X64028563Y-76621251D01*
X64416705Y-77010072D01*
X64924097Y-77220759D01*
X65473493Y-77221239D01*
X65753938Y-77105361D01*
X91985975Y-77105361D01*
X92095950Y-77371521D01*
X92299408Y-77575335D01*
X92565376Y-77685774D01*
X92853361Y-77686025D01*
X93119521Y-77576050D01*
X93323335Y-77372592D01*
X93344917Y-77320617D01*
X93365950Y-77371521D01*
X93569408Y-77575335D01*
X93835376Y-77685774D01*
X94123361Y-77686025D01*
X94389521Y-77576050D01*
X94593335Y-77372592D01*
X94703774Y-77106624D01*
X94704025Y-76818639D01*
X94594050Y-76552479D01*
X94390592Y-76348665D01*
X94124624Y-76238226D01*
X93836639Y-76237975D01*
X93570479Y-76347950D01*
X93366665Y-76551408D01*
X93345083Y-76603383D01*
X93324050Y-76552479D01*
X93120592Y-76348665D01*
X92854624Y-76238226D01*
X92566639Y-76237975D01*
X92300479Y-76347950D01*
X92096665Y-76551408D01*
X91986226Y-76817376D01*
X91985975Y-77105361D01*
X65753938Y-77105361D01*
X65981251Y-77011437D01*
X66370072Y-76623295D01*
X66580759Y-76115903D01*
X66581004Y-75835361D01*
X66585975Y-75835361D01*
X66695950Y-76101521D01*
X66899408Y-76305335D01*
X67165376Y-76415774D01*
X67453361Y-76416025D01*
X67719521Y-76306050D01*
X67923335Y-76102592D01*
X68033774Y-75836624D01*
X68034025Y-75548639D01*
X67994712Y-75453493D01*
X71908761Y-75453493D01*
X72118563Y-75961251D01*
X72506705Y-76350072D01*
X73014097Y-76560759D01*
X73563493Y-76561239D01*
X74071251Y-76351437D01*
X74460072Y-75963295D01*
X74670759Y-75455903D01*
X74670761Y-75453493D01*
X78408761Y-75453493D01*
X78618563Y-75961251D01*
X79006705Y-76350072D01*
X79514097Y-76560759D01*
X80063493Y-76561239D01*
X80571251Y-76351437D01*
X80960072Y-75963295D01*
X81170759Y-75455903D01*
X81171239Y-74906507D01*
X80961437Y-74398749D01*
X80573295Y-74009928D01*
X80065903Y-73799241D01*
X79516507Y-73798761D01*
X79008749Y-74008563D01*
X78619928Y-74396705D01*
X78409241Y-74904097D01*
X78408761Y-75453493D01*
X74670761Y-75453493D01*
X74671239Y-74906507D01*
X74461437Y-74398749D01*
X74073295Y-74009928D01*
X73792570Y-73893361D01*
X77325975Y-73893361D01*
X77435950Y-74159521D01*
X77639408Y-74363335D01*
X77905376Y-74473774D01*
X78193361Y-74474025D01*
X78459521Y-74364050D01*
X78663335Y-74160592D01*
X78773774Y-73894624D01*
X78774025Y-73606639D01*
X78664050Y-73340479D01*
X78619011Y-73295361D01*
X94017975Y-73295361D01*
X94127950Y-73561521D01*
X94331408Y-73765335D01*
X94597376Y-73875774D01*
X94885361Y-73876025D01*
X95151521Y-73766050D01*
X95355335Y-73562592D01*
X95465774Y-73296624D01*
X95466025Y-73008639D01*
X95356050Y-72742479D01*
X95186812Y-72572944D01*
X95324025Y-72572944D01*
X95523615Y-73054818D01*
X95795342Y-73347863D01*
X95772810Y-73352103D01*
X95643135Y-73435546D01*
X95556141Y-73562866D01*
X95525536Y-73714000D01*
X95525536Y-75746000D01*
X95552103Y-75887190D01*
X95635546Y-76016865D01*
X95762866Y-76103859D01*
X95914000Y-76134464D01*
X97946000Y-76134464D01*
X98087190Y-76107897D01*
X98216865Y-76024454D01*
X98303859Y-75897134D01*
X98334464Y-75746000D01*
X98334464Y-73714000D01*
X98307897Y-73572810D01*
X98224454Y-73443135D01*
X98097134Y-73356141D01*
X98063330Y-73349296D01*
X98336385Y-73054818D01*
X98535975Y-72572944D01*
X98416836Y-72317000D01*
X97057000Y-72317000D01*
X97057000Y-72337000D01*
X96803000Y-72337000D01*
X96803000Y-72317000D01*
X95443164Y-72317000D01*
X95324025Y-72572944D01*
X95186812Y-72572944D01*
X95152592Y-72538665D01*
X94886624Y-72428226D01*
X94598639Y-72427975D01*
X94332479Y-72537950D01*
X94128665Y-72741408D01*
X94018226Y-73007376D01*
X94017975Y-73295361D01*
X78619011Y-73295361D01*
X78460592Y-73136665D01*
X78194624Y-73026226D01*
X77906639Y-73025975D01*
X77640479Y-73135950D01*
X77436665Y-73339408D01*
X77326226Y-73605376D01*
X77325975Y-73893361D01*
X73792570Y-73893361D01*
X73565903Y-73799241D01*
X73016507Y-73798761D01*
X72508749Y-74008563D01*
X72119928Y-74396705D01*
X71909241Y-74904097D01*
X71908761Y-75453493D01*
X67994712Y-75453493D01*
X67924050Y-75282479D01*
X67720592Y-75078665D01*
X67454624Y-74968226D01*
X67166639Y-74967975D01*
X66900479Y-75077950D01*
X66696665Y-75281408D01*
X66586226Y-75547376D01*
X66585975Y-75835361D01*
X66581004Y-75835361D01*
X66581239Y-75566507D01*
X66371437Y-75058749D01*
X65983295Y-74669928D01*
X65475903Y-74459241D01*
X64926507Y-74458761D01*
X64418749Y-74668563D01*
X64029928Y-75056705D01*
X63819241Y-75564097D01*
X63818761Y-76113493D01*
X60080761Y-76113493D01*
X60081239Y-75566507D01*
X59871437Y-75058749D01*
X59483295Y-74669928D01*
X58975903Y-74459241D01*
X58426507Y-74458761D01*
X57918749Y-74668563D01*
X57529928Y-75056705D01*
X57319241Y-75564097D01*
X57318761Y-76113493D01*
X47056000Y-76113493D01*
X47056000Y-73860000D01*
X48075631Y-73860000D01*
X48170371Y-74336288D01*
X48440166Y-74740065D01*
X48843943Y-75009860D01*
X49320231Y-75104600D01*
X49679769Y-75104600D01*
X50156057Y-75009860D01*
X50559834Y-74740065D01*
X50829629Y-74336288D01*
X50924369Y-73860000D01*
X50829629Y-73383712D01*
X50559834Y-72979935D01*
X50156057Y-72710140D01*
X49679769Y-72615400D01*
X49320231Y-72615400D01*
X48843943Y-72710140D01*
X48440166Y-72979935D01*
X48170371Y-73383712D01*
X48075631Y-73860000D01*
X47056000Y-73860000D01*
X47056000Y-71320000D01*
X48075631Y-71320000D01*
X48170371Y-71796288D01*
X48440166Y-72200065D01*
X48843943Y-72469860D01*
X49320231Y-72564600D01*
X49679769Y-72564600D01*
X50156057Y-72469860D01*
X50559834Y-72200065D01*
X50829629Y-71796288D01*
X50860048Y-71643361D01*
X73025975Y-71643361D01*
X73135950Y-71909521D01*
X73339408Y-72113335D01*
X73605376Y-72223774D01*
X73830790Y-72223970D01*
X73776226Y-72355376D01*
X73775975Y-72643361D01*
X73885950Y-72909521D01*
X74089408Y-73113335D01*
X74355376Y-73223774D01*
X74643361Y-73224025D01*
X74909521Y-73114050D01*
X75113335Y-72910592D01*
X75223774Y-72644624D01*
X75224025Y-72356639D01*
X75114050Y-72090479D01*
X74910592Y-71886665D01*
X74718872Y-71807056D01*
X95324025Y-71807056D01*
X95443164Y-72063000D01*
X96803000Y-72063000D01*
X96803000Y-70702633D01*
X97057000Y-70702633D01*
X97057000Y-72063000D01*
X98416836Y-72063000D01*
X98535975Y-71807056D01*
X98336385Y-71325182D01*
X97898379Y-70852812D01*
X97312946Y-70584017D01*
X97057000Y-70702633D01*
X96803000Y-70702633D01*
X96547054Y-70584017D01*
X95961621Y-70852812D01*
X95523615Y-71325182D01*
X95324025Y-71807056D01*
X74718872Y-71807056D01*
X74644624Y-71776226D01*
X74419210Y-71776030D01*
X74473774Y-71644624D01*
X74474025Y-71356639D01*
X74364050Y-71090479D01*
X74160592Y-70886665D01*
X73894624Y-70776226D01*
X73606639Y-70775975D01*
X73340479Y-70885950D01*
X73136665Y-71089408D01*
X73026226Y-71355376D01*
X73025975Y-71643361D01*
X50860048Y-71643361D01*
X50924369Y-71320000D01*
X50829629Y-70843712D01*
X50559834Y-70439935D01*
X50156057Y-70170140D01*
X49679769Y-70075400D01*
X49320231Y-70075400D01*
X48843943Y-70170140D01*
X48440166Y-70439935D01*
X48170371Y-70843712D01*
X48075631Y-71320000D01*
X47056000Y-71320000D01*
X47056000Y-68780000D01*
X48075631Y-68780000D01*
X48170371Y-69256288D01*
X48440166Y-69660065D01*
X48843943Y-69929860D01*
X49320231Y-70024600D01*
X49679769Y-70024600D01*
X50156057Y-69929860D01*
X50559834Y-69660065D01*
X50829629Y-69256288D01*
X50924369Y-68780000D01*
X50829629Y-68303712D01*
X50722486Y-68143361D01*
X68925975Y-68143361D01*
X69035950Y-68409521D01*
X69239408Y-68613335D01*
X69505376Y-68723774D01*
X69652198Y-68723902D01*
X69636665Y-68739408D01*
X69526226Y-69005376D01*
X69525975Y-69293361D01*
X69635950Y-69559521D01*
X69839408Y-69763335D01*
X70105376Y-69873774D01*
X70393361Y-69874025D01*
X70659521Y-69764050D01*
X70863335Y-69560592D01*
X70973774Y-69294624D01*
X70973905Y-69143361D01*
X70975975Y-69143361D01*
X71085950Y-69409521D01*
X71289408Y-69613335D01*
X71376725Y-69649592D01*
X71236665Y-69789408D01*
X71126226Y-70055376D01*
X71125975Y-70343361D01*
X71235950Y-70609521D01*
X71439408Y-70813335D01*
X71705376Y-70923774D01*
X71993361Y-70924025D01*
X72259521Y-70814050D01*
X72463335Y-70610592D01*
X72573774Y-70344624D01*
X72574025Y-70056639D01*
X72464050Y-69790479D01*
X72260592Y-69586665D01*
X72173275Y-69550408D01*
X72313335Y-69410592D01*
X72381020Y-69247589D01*
X72385950Y-69259521D01*
X72589408Y-69463335D01*
X72855376Y-69573774D01*
X73143361Y-69574025D01*
X73338582Y-69493361D01*
X74475975Y-69493361D01*
X74585950Y-69759521D01*
X74789408Y-69963335D01*
X75055376Y-70073774D01*
X75343361Y-70074025D01*
X75609521Y-69964050D01*
X75813335Y-69760592D01*
X75923774Y-69494624D01*
X75924025Y-69206639D01*
X75814050Y-68940479D01*
X75610592Y-68736665D01*
X75344624Y-68626226D01*
X75056639Y-68625975D01*
X74790479Y-68735950D01*
X74586665Y-68939408D01*
X74476226Y-69205376D01*
X74475975Y-69493361D01*
X73338582Y-69493361D01*
X73409521Y-69464050D01*
X73613335Y-69260592D01*
X73723774Y-68994624D01*
X73724025Y-68706639D01*
X73625984Y-68469361D01*
X76237975Y-68469361D01*
X76347950Y-68735521D01*
X76551408Y-68939335D01*
X76776072Y-69032623D01*
X76775975Y-69143361D01*
X76885950Y-69409521D01*
X77089408Y-69613335D01*
X77355376Y-69723774D01*
X77643361Y-69724025D01*
X77909521Y-69614050D01*
X78113335Y-69410592D01*
X78223774Y-69144624D01*
X78224025Y-68856639D01*
X78114050Y-68590479D01*
X77910592Y-68386665D01*
X77685928Y-68293377D01*
X77686025Y-68182639D01*
X77576050Y-67916479D01*
X77372592Y-67712665D01*
X77106624Y-67602226D01*
X76818639Y-67601975D01*
X76552479Y-67711950D01*
X76348665Y-67915408D01*
X76238226Y-68181376D01*
X76237975Y-68469361D01*
X73625984Y-68469361D01*
X73614050Y-68440479D01*
X73410592Y-68236665D01*
X73144624Y-68126226D01*
X73073834Y-68126164D01*
X73074025Y-67906639D01*
X72964050Y-67640479D01*
X72760592Y-67436665D01*
X72494624Y-67326226D01*
X72206639Y-67325975D01*
X71940479Y-67435950D01*
X71736665Y-67639408D01*
X71626226Y-67905376D01*
X71625975Y-68193361D01*
X71660148Y-68276065D01*
X71556639Y-68275975D01*
X71290479Y-68385950D01*
X71086665Y-68589408D01*
X70976226Y-68855376D01*
X70975975Y-69143361D01*
X70973905Y-69143361D01*
X70974025Y-69006639D01*
X70864050Y-68740479D01*
X70660592Y-68536665D01*
X70394624Y-68426226D01*
X70247802Y-68426098D01*
X70263335Y-68410592D01*
X70373774Y-68144624D01*
X70374025Y-67856639D01*
X70264050Y-67590479D01*
X70060592Y-67386665D01*
X69794624Y-67276226D01*
X69506639Y-67275975D01*
X69240479Y-67385950D01*
X69036665Y-67589408D01*
X68926226Y-67855376D01*
X68925975Y-68143361D01*
X50722486Y-68143361D01*
X50559834Y-67899935D01*
X50156057Y-67630140D01*
X49679769Y-67535400D01*
X49320231Y-67535400D01*
X48843943Y-67630140D01*
X48440166Y-67899935D01*
X48170371Y-68303712D01*
X48075631Y-68780000D01*
X47056000Y-68780000D01*
X47056000Y-66240000D01*
X48075631Y-66240000D01*
X48170371Y-66716288D01*
X48440166Y-67120065D01*
X48843943Y-67389860D01*
X49320231Y-67484600D01*
X49679769Y-67484600D01*
X50156057Y-67389860D01*
X50559834Y-67120065D01*
X50829629Y-66716288D01*
X50924369Y-66240000D01*
X50829629Y-65763712D01*
X50559834Y-65359935D01*
X50271627Y-65167361D01*
X52361975Y-65167361D01*
X52471950Y-65433521D01*
X52675408Y-65637335D01*
X52941376Y-65747774D01*
X53229361Y-65748025D01*
X53405221Y-65675361D01*
X53885975Y-65675361D01*
X53995950Y-65941521D01*
X54199408Y-66145335D01*
X54465376Y-66255774D01*
X54753361Y-66256025D01*
X55019521Y-66146050D01*
X55156126Y-66009683D01*
X55155975Y-66183361D01*
X55265950Y-66449521D01*
X55469408Y-66653335D01*
X55735376Y-66763774D01*
X56023361Y-66764025D01*
X56199221Y-66691361D01*
X62775975Y-66691361D01*
X62885950Y-66957521D01*
X63089408Y-67161335D01*
X63355376Y-67271774D01*
X63643361Y-67272025D01*
X63909521Y-67162050D01*
X64076147Y-66995715D01*
X64075975Y-67193361D01*
X64185950Y-67459521D01*
X64389408Y-67663335D01*
X64655376Y-67773774D01*
X64943361Y-67774025D01*
X65209521Y-67664050D01*
X65413335Y-67460592D01*
X65523774Y-67194624D01*
X65524025Y-66906639D01*
X65414050Y-66640479D01*
X65210592Y-66436665D01*
X64944624Y-66326226D01*
X64656639Y-66325975D01*
X64390479Y-66435950D01*
X64223853Y-66602285D01*
X64224025Y-66404639D01*
X64132595Y-66183361D01*
X79285975Y-66183361D01*
X79395950Y-66449521D01*
X79599408Y-66653335D01*
X79865376Y-66763774D01*
X80153361Y-66764025D01*
X80419521Y-66654050D01*
X80623335Y-66450592D01*
X80733774Y-66184624D01*
X80734025Y-65896639D01*
X80624050Y-65630479D01*
X80420592Y-65426665D01*
X80154624Y-65316226D01*
X79866639Y-65315975D01*
X79600479Y-65425950D01*
X79396665Y-65629408D01*
X79286226Y-65895376D01*
X79285975Y-66183361D01*
X64132595Y-66183361D01*
X64114050Y-66138479D01*
X63910592Y-65934665D01*
X63644624Y-65824226D01*
X63356639Y-65823975D01*
X63090479Y-65933950D01*
X62886665Y-66137408D01*
X62776226Y-66403376D01*
X62775975Y-66691361D01*
X56199221Y-66691361D01*
X56289521Y-66654050D01*
X56493335Y-66450592D01*
X56603774Y-66184624D01*
X56604025Y-65896639D01*
X56494050Y-65630479D01*
X56290592Y-65426665D01*
X56024624Y-65316226D01*
X55736639Y-65315975D01*
X55470479Y-65425950D01*
X55333874Y-65562317D01*
X55334025Y-65388639D01*
X55224050Y-65122479D01*
X55020592Y-64918665D01*
X54754624Y-64808226D01*
X54466639Y-64807975D01*
X54200479Y-64917950D01*
X53996665Y-65121408D01*
X53886226Y-65387376D01*
X53885975Y-65675361D01*
X53405221Y-65675361D01*
X53495521Y-65638050D01*
X53699335Y-65434592D01*
X53809774Y-65168624D01*
X53810025Y-64880639D01*
X53700050Y-64614479D01*
X53496592Y-64410665D01*
X53230624Y-64300226D01*
X52942639Y-64299975D01*
X52676479Y-64409950D01*
X52472665Y-64613408D01*
X52362226Y-64879376D01*
X52361975Y-65167361D01*
X50271627Y-65167361D01*
X50156057Y-65090140D01*
X49679769Y-64995400D01*
X49320231Y-64995400D01*
X48843943Y-65090140D01*
X48440166Y-65359935D01*
X48170371Y-65763712D01*
X48075631Y-66240000D01*
X47056000Y-66240000D01*
X47056000Y-63700000D01*
X48075631Y-63700000D01*
X48170371Y-64176288D01*
X48440166Y-64580065D01*
X48843943Y-64849860D01*
X49320231Y-64944600D01*
X49679769Y-64944600D01*
X50156057Y-64849860D01*
X50559834Y-64580065D01*
X50829629Y-64176288D01*
X50834587Y-64151361D01*
X65061975Y-64151361D01*
X65171950Y-64417521D01*
X65375408Y-64621335D01*
X65641376Y-64731774D01*
X65929361Y-64732025D01*
X66195521Y-64622050D01*
X66399335Y-64418592D01*
X66509774Y-64152624D01*
X66509869Y-64043361D01*
X70175975Y-64043361D01*
X70285950Y-64309521D01*
X70489408Y-64513335D01*
X70755376Y-64623774D01*
X71043361Y-64624025D01*
X71309521Y-64514050D01*
X71513335Y-64310592D01*
X71579453Y-64151361D01*
X71919975Y-64151361D01*
X72029950Y-64417521D01*
X72233408Y-64621335D01*
X72499376Y-64731774D01*
X72682133Y-64731933D01*
X72681975Y-64913361D01*
X72791950Y-65179521D01*
X72995408Y-65383335D01*
X73261376Y-65493774D01*
X73549361Y-65494025D01*
X73815521Y-65384050D01*
X74019335Y-65180592D01*
X74024828Y-65167361D01*
X93255975Y-65167361D01*
X93365950Y-65433521D01*
X93569408Y-65637335D01*
X93835376Y-65747774D01*
X94123361Y-65748025D01*
X94389521Y-65638050D01*
X94547847Y-65480000D01*
X95505631Y-65480000D01*
X95611971Y-66014609D01*
X95914803Y-66467828D01*
X96135863Y-66615536D01*
X95914000Y-66615536D01*
X95772810Y-66642103D01*
X95643135Y-66725546D01*
X95556141Y-66852866D01*
X95525536Y-67004000D01*
X95525536Y-69036000D01*
X95552103Y-69177190D01*
X95635546Y-69306865D01*
X95762866Y-69393859D01*
X95914000Y-69424464D01*
X97946000Y-69424464D01*
X98087190Y-69397897D01*
X98216865Y-69314454D01*
X98303859Y-69187134D01*
X98334464Y-69036000D01*
X98334464Y-67004000D01*
X98307897Y-66862810D01*
X98224454Y-66733135D01*
X98097134Y-66646141D01*
X97946000Y-66615536D01*
X97724137Y-66615536D01*
X97945197Y-66467828D01*
X98248029Y-66014609D01*
X98354369Y-65480000D01*
X98248029Y-64945391D01*
X97945197Y-64492172D01*
X97491978Y-64189340D01*
X96957369Y-64083000D01*
X96902631Y-64083000D01*
X96368022Y-64189340D01*
X95914803Y-64492172D01*
X95611971Y-64945391D01*
X95505631Y-65480000D01*
X94547847Y-65480000D01*
X94593335Y-65434592D01*
X94703774Y-65168624D01*
X94704025Y-64880639D01*
X94640977Y-64728052D01*
X94897521Y-64622050D01*
X95101335Y-64418592D01*
X95211774Y-64152624D01*
X95212025Y-63864639D01*
X95102050Y-63598479D01*
X94898592Y-63394665D01*
X94632624Y-63284226D01*
X94344639Y-63283975D01*
X94078479Y-63393950D01*
X93874665Y-63597408D01*
X93764226Y-63863376D01*
X93763975Y-64151361D01*
X93827023Y-64303948D01*
X93570479Y-64409950D01*
X93366665Y-64613408D01*
X93256226Y-64879376D01*
X93255975Y-65167361D01*
X74024828Y-65167361D01*
X74129774Y-64914624D01*
X74130025Y-64626639D01*
X74020050Y-64360479D01*
X73816592Y-64156665D01*
X73803819Y-64151361D01*
X90715975Y-64151361D01*
X90825950Y-64417521D01*
X91029408Y-64621335D01*
X91295376Y-64731774D01*
X91583361Y-64732025D01*
X91849521Y-64622050D01*
X92053335Y-64418592D01*
X92163774Y-64152624D01*
X92164025Y-63864639D01*
X92054050Y-63598479D01*
X91850592Y-63394665D01*
X91584624Y-63284226D01*
X91296639Y-63283975D01*
X91030479Y-63393950D01*
X90826665Y-63597408D01*
X90716226Y-63863376D01*
X90715975Y-64151361D01*
X73803819Y-64151361D01*
X73550624Y-64046226D01*
X73367867Y-64046067D01*
X73368025Y-63864639D01*
X73258050Y-63598479D01*
X73054592Y-63394665D01*
X73041819Y-63389361D01*
X73189975Y-63389361D01*
X73299950Y-63655521D01*
X73503408Y-63859335D01*
X73769376Y-63969774D01*
X74057361Y-63970025D01*
X74323521Y-63860050D01*
X74527335Y-63656592D01*
X74637774Y-63390624D01*
X74638025Y-63102639D01*
X74533259Y-62849087D01*
X74785376Y-62953774D01*
X75073361Y-62954025D01*
X75249221Y-62881361D01*
X85381975Y-62881361D01*
X85491950Y-63147521D01*
X85695408Y-63351335D01*
X85961376Y-63461774D01*
X86249361Y-63462025D01*
X86515521Y-63352050D01*
X86719335Y-63148592D01*
X86829774Y-62882624D01*
X86830025Y-62594639D01*
X86720050Y-62328479D01*
X86516592Y-62124665D01*
X86250624Y-62014226D01*
X85962639Y-62013975D01*
X85696479Y-62123950D01*
X85492665Y-62327408D01*
X85382226Y-62593376D01*
X85381975Y-62881361D01*
X75249221Y-62881361D01*
X75339521Y-62844050D01*
X75543335Y-62640592D01*
X75653774Y-62374624D01*
X75653837Y-62302373D01*
X75705376Y-62323774D01*
X75993361Y-62324025D01*
X76259521Y-62214050D01*
X76463335Y-62010592D01*
X76573774Y-61744624D01*
X76574025Y-61456639D01*
X76485901Y-61243361D01*
X80075975Y-61243361D01*
X80185950Y-61509521D01*
X80389408Y-61713335D01*
X80655376Y-61823774D01*
X80943361Y-61824025D01*
X81209521Y-61714050D01*
X81252884Y-61670763D01*
X81176226Y-61855376D01*
X81175975Y-62143361D01*
X81285950Y-62409521D01*
X81489408Y-62613335D01*
X81755376Y-62723774D01*
X82043361Y-62724025D01*
X82309521Y-62614050D01*
X82513335Y-62410592D01*
X82623774Y-62144624D01*
X82624025Y-61856639D01*
X82514050Y-61590479D01*
X82310592Y-61386665D01*
X82044624Y-61276226D01*
X81756639Y-61275975D01*
X81490479Y-61385950D01*
X81447116Y-61429237D01*
X81523774Y-61244624D01*
X81524025Y-60956639D01*
X81414050Y-60690479D01*
X81210592Y-60486665D01*
X80944624Y-60376226D01*
X80656639Y-60375975D01*
X80390479Y-60485950D01*
X80186665Y-60689408D01*
X80076226Y-60955376D01*
X80075975Y-61243361D01*
X76485901Y-61243361D01*
X76464050Y-61190479D01*
X76260592Y-60986665D01*
X75994624Y-60876226D01*
X75706639Y-60875975D01*
X75440479Y-60985950D01*
X75236665Y-61189408D01*
X75126226Y-61455376D01*
X75126163Y-61527627D01*
X75074624Y-61506226D01*
X74786639Y-61505975D01*
X74520479Y-61615950D01*
X74316665Y-61819408D01*
X74206226Y-62085376D01*
X74205975Y-62373361D01*
X74310741Y-62626913D01*
X74058624Y-62522226D01*
X73770639Y-62521975D01*
X73504479Y-62631950D01*
X73300665Y-62835408D01*
X73190226Y-63101376D01*
X73189975Y-63389361D01*
X73041819Y-63389361D01*
X72788624Y-63284226D01*
X72500639Y-63283975D01*
X72234479Y-63393950D01*
X72030665Y-63597408D01*
X71920226Y-63863376D01*
X71919975Y-64151361D01*
X71579453Y-64151361D01*
X71623774Y-64044624D01*
X71624025Y-63756639D01*
X71552376Y-63583235D01*
X71733335Y-63402592D01*
X71843774Y-63136624D01*
X71844025Y-62848639D01*
X71734050Y-62582479D01*
X71530592Y-62378665D01*
X71264624Y-62268226D01*
X70976639Y-62267975D01*
X70710479Y-62377950D01*
X70506665Y-62581408D01*
X70396226Y-62847376D01*
X70395975Y-63135361D01*
X70467624Y-63308765D01*
X70286665Y-63489408D01*
X70176226Y-63755376D01*
X70175975Y-64043361D01*
X66509869Y-64043361D01*
X66510025Y-63864639D01*
X66400050Y-63598479D01*
X66196592Y-63394665D01*
X65930624Y-63284226D01*
X65642639Y-63283975D01*
X65376479Y-63393950D01*
X65172665Y-63597408D01*
X65062226Y-63863376D01*
X65061975Y-64151361D01*
X50834587Y-64151361D01*
X50924369Y-63700000D01*
X50829629Y-63223712D01*
X50600878Y-62881361D01*
X59219975Y-62881361D01*
X59329950Y-63147521D01*
X59533408Y-63351335D01*
X59799376Y-63461774D01*
X60087361Y-63462025D01*
X60353521Y-63352050D01*
X60557335Y-63148592D01*
X60667774Y-62882624D01*
X60668025Y-62594639D01*
X60558050Y-62328479D01*
X60354592Y-62124665D01*
X60088624Y-62014226D01*
X59800639Y-62013975D01*
X59534479Y-62123950D01*
X59330665Y-62327408D01*
X59220226Y-62593376D01*
X59219975Y-62881361D01*
X50600878Y-62881361D01*
X50559834Y-62819935D01*
X50156057Y-62550140D01*
X49679769Y-62455400D01*
X49320231Y-62455400D01*
X48843943Y-62550140D01*
X48440166Y-62819935D01*
X48170371Y-63223712D01*
X48075631Y-63700000D01*
X47056000Y-63700000D01*
X47056000Y-61160000D01*
X48075631Y-61160000D01*
X48170371Y-61636288D01*
X48440166Y-62040065D01*
X48843943Y-62309860D01*
X49320231Y-62404600D01*
X49679769Y-62404600D01*
X50156057Y-62309860D01*
X50559834Y-62040065D01*
X50829629Y-61636288D01*
X50834587Y-61611361D01*
X62775975Y-61611361D01*
X62885950Y-61877521D01*
X63089408Y-62081335D01*
X63355376Y-62191774D01*
X63643361Y-62192025D01*
X63909521Y-62082050D01*
X64113335Y-61878592D01*
X64118828Y-61865361D01*
X71157975Y-61865361D01*
X71267950Y-62131521D01*
X71471408Y-62335335D01*
X71737376Y-62445774D01*
X72025361Y-62446025D01*
X72291521Y-62336050D01*
X72495335Y-62132592D01*
X72605774Y-61866624D01*
X72606025Y-61578639D01*
X72496050Y-61312479D01*
X72327228Y-61143361D01*
X73275975Y-61143361D01*
X73385950Y-61409521D01*
X73589408Y-61613335D01*
X73855376Y-61723774D01*
X74143361Y-61724025D01*
X74409521Y-61614050D01*
X74613335Y-61410592D01*
X74723774Y-61144624D01*
X74724025Y-60856639D01*
X74723964Y-60856492D01*
X74831521Y-60812050D01*
X75035335Y-60608592D01*
X75145774Y-60342624D01*
X75146025Y-60054639D01*
X75036050Y-59788479D01*
X74832592Y-59584665D01*
X74566624Y-59474226D01*
X74278639Y-59473975D01*
X74012479Y-59583950D01*
X73808665Y-59787408D01*
X73698226Y-60053376D01*
X73697975Y-60341361D01*
X73698036Y-60341508D01*
X73590479Y-60385950D01*
X73386665Y-60589408D01*
X73276226Y-60855376D01*
X73275975Y-61143361D01*
X72327228Y-61143361D01*
X72292592Y-61108665D01*
X72026624Y-60998226D01*
X71738639Y-60997975D01*
X71472479Y-61107950D01*
X71268665Y-61311408D01*
X71158226Y-61577376D01*
X71157975Y-61865361D01*
X64118828Y-61865361D01*
X64223774Y-61612624D01*
X64223987Y-61368573D01*
X64371376Y-61429774D01*
X64659361Y-61430025D01*
X64925521Y-61320050D01*
X65129335Y-61116592D01*
X65239774Y-60850624D01*
X65239933Y-60667867D01*
X65421361Y-60668025D01*
X65687521Y-60558050D01*
X65891335Y-60354592D01*
X66001774Y-60088624D01*
X66001775Y-60087361D01*
X71665975Y-60087361D01*
X71775950Y-60353521D01*
X71979408Y-60557335D01*
X72245376Y-60667774D01*
X72533361Y-60668025D01*
X72799521Y-60558050D01*
X73003335Y-60354592D01*
X73113774Y-60088624D01*
X73113933Y-59905867D01*
X73295361Y-59906025D01*
X73561521Y-59796050D01*
X73765335Y-59592592D01*
X73875774Y-59326624D01*
X73875775Y-59325361D01*
X75221975Y-59325361D01*
X75331950Y-59591521D01*
X75535408Y-59795335D01*
X75801376Y-59905774D01*
X76089361Y-59906025D01*
X76113071Y-59896228D01*
X76026226Y-60105376D01*
X76025975Y-60393361D01*
X76135950Y-60659521D01*
X76339408Y-60863335D01*
X76605376Y-60973774D01*
X76893361Y-60974025D01*
X77159521Y-60864050D01*
X77363335Y-60660592D01*
X77473774Y-60394624D01*
X77473903Y-60246400D01*
X95525536Y-60246400D01*
X95525536Y-61973600D01*
X95552103Y-62114790D01*
X95635546Y-62244465D01*
X95762866Y-62331459D01*
X95914000Y-62362064D01*
X97946000Y-62362064D01*
X98087190Y-62335497D01*
X98216865Y-62252054D01*
X98303859Y-62124734D01*
X98334464Y-61973600D01*
X98334464Y-60246400D01*
X98307897Y-60105210D01*
X98224454Y-59975535D01*
X98097134Y-59888541D01*
X97946000Y-59857936D01*
X95914000Y-59857936D01*
X95772810Y-59884503D01*
X95643135Y-59967946D01*
X95556141Y-60095266D01*
X95525536Y-60246400D01*
X77473903Y-60246400D01*
X77474025Y-60106639D01*
X77364050Y-59840479D01*
X77160592Y-59636665D01*
X76894624Y-59526226D01*
X76606639Y-59525975D01*
X76582929Y-59535772D01*
X76669774Y-59326624D01*
X76670025Y-59038639D01*
X76560050Y-58772479D01*
X76356592Y-58568665D01*
X76090624Y-58458226D01*
X75802639Y-58457975D01*
X75536479Y-58567950D01*
X75332665Y-58771408D01*
X75222226Y-59037376D01*
X75221975Y-59325361D01*
X73875775Y-59325361D01*
X73876025Y-59038639D01*
X73766050Y-58772479D01*
X73562592Y-58568665D01*
X73296624Y-58458226D01*
X73008639Y-58457975D01*
X72742479Y-58567950D01*
X72538665Y-58771408D01*
X72428226Y-59037376D01*
X72428067Y-59220133D01*
X72246639Y-59219975D01*
X71980479Y-59329950D01*
X71776665Y-59533408D01*
X71666226Y-59799376D01*
X71665975Y-60087361D01*
X66001775Y-60087361D01*
X66002025Y-59800639D01*
X65901936Y-59558406D01*
X65941521Y-59542050D01*
X66145335Y-59338592D01*
X66226401Y-59143361D01*
X66275975Y-59143361D01*
X66385950Y-59409521D01*
X66589408Y-59613335D01*
X66855376Y-59723774D01*
X67143361Y-59724025D01*
X67409521Y-59614050D01*
X67613335Y-59410592D01*
X67626553Y-59378759D01*
X67855376Y-59473774D01*
X68143361Y-59474025D01*
X68409521Y-59364050D01*
X68613335Y-59160592D01*
X68723774Y-58894624D01*
X68724025Y-58606639D01*
X68635901Y-58393361D01*
X90775975Y-58393361D01*
X90885950Y-58659521D01*
X91089408Y-58863335D01*
X91355376Y-58973774D01*
X91643361Y-58974025D01*
X91909521Y-58864050D01*
X92113335Y-58660592D01*
X92223774Y-58394624D01*
X92224025Y-58106639D01*
X92114050Y-57840479D01*
X91910592Y-57636665D01*
X91644624Y-57526226D01*
X91356639Y-57525975D01*
X91090479Y-57635950D01*
X90886665Y-57839408D01*
X90776226Y-58105376D01*
X90775975Y-58393361D01*
X68635901Y-58393361D01*
X68614050Y-58340479D01*
X68410592Y-58136665D01*
X68144624Y-58026226D01*
X67856639Y-58025975D01*
X67590479Y-58135950D01*
X67386665Y-58339408D01*
X67373447Y-58371241D01*
X67144624Y-58276226D01*
X66856639Y-58275975D01*
X66590479Y-58385950D01*
X66386665Y-58589408D01*
X66276226Y-58855376D01*
X66275975Y-59143361D01*
X66226401Y-59143361D01*
X66255774Y-59072624D01*
X66256025Y-58784639D01*
X66146050Y-58518479D01*
X65942592Y-58314665D01*
X65676624Y-58204226D01*
X65388639Y-58203975D01*
X65122479Y-58313950D01*
X64918665Y-58517408D01*
X64808226Y-58783376D01*
X64807975Y-59071361D01*
X64908064Y-59313594D01*
X64868479Y-59329950D01*
X64664665Y-59533408D01*
X64554226Y-59799376D01*
X64554067Y-59982133D01*
X64372639Y-59981975D01*
X64106479Y-60091950D01*
X63902665Y-60295408D01*
X63792226Y-60561376D01*
X63792013Y-60805427D01*
X63644624Y-60744226D01*
X63356639Y-60743975D01*
X63090479Y-60853950D01*
X62886665Y-61057408D01*
X62776226Y-61323376D01*
X62775975Y-61611361D01*
X50834587Y-61611361D01*
X50924369Y-61160000D01*
X50829629Y-60683712D01*
X50559834Y-60279935D01*
X50271627Y-60087361D01*
X59219975Y-60087361D01*
X59329950Y-60353521D01*
X59533408Y-60557335D01*
X59799376Y-60667774D01*
X60087361Y-60668025D01*
X60353521Y-60558050D01*
X60557335Y-60354592D01*
X60667774Y-60088624D01*
X60668025Y-59800639D01*
X60558050Y-59534479D01*
X60354592Y-59330665D01*
X60088624Y-59220226D01*
X59800639Y-59219975D01*
X59534479Y-59329950D01*
X59330665Y-59533408D01*
X59220226Y-59799376D01*
X59219975Y-60087361D01*
X50271627Y-60087361D01*
X50156057Y-60010140D01*
X49679769Y-59915400D01*
X49320231Y-59915400D01*
X48843943Y-60010140D01*
X48440166Y-60279935D01*
X48170371Y-60683712D01*
X48075631Y-61160000D01*
X47056000Y-61160000D01*
X47056000Y-58620000D01*
X48075631Y-58620000D01*
X48170371Y-59096288D01*
X48440166Y-59500065D01*
X48843943Y-59769860D01*
X49320231Y-59864600D01*
X49679769Y-59864600D01*
X50156057Y-59769860D01*
X50559834Y-59500065D01*
X50829629Y-59096288D01*
X50924369Y-58620000D01*
X50829629Y-58143712D01*
X50559834Y-57739935D01*
X50156057Y-57470140D01*
X49679769Y-57375400D01*
X49320231Y-57375400D01*
X48843943Y-57470140D01*
X48440166Y-57739935D01*
X48170371Y-58143712D01*
X48075631Y-58620000D01*
X47056000Y-58620000D01*
X47056000Y-56080000D01*
X48075631Y-56080000D01*
X48170371Y-56556288D01*
X48440166Y-56960065D01*
X48843943Y-57229860D01*
X49320231Y-57324600D01*
X49679769Y-57324600D01*
X50156057Y-57229860D01*
X50559834Y-56960065D01*
X50829629Y-56556288D01*
X50833426Y-56537200D01*
X51199338Y-56537200D01*
X51201950Y-56543521D01*
X51405408Y-56747335D01*
X51671376Y-56857774D01*
X51915427Y-56857987D01*
X51854226Y-57005376D01*
X51853975Y-57293361D01*
X51963950Y-57559521D01*
X52167408Y-57763335D01*
X52433376Y-57873774D01*
X52721361Y-57874025D01*
X52987521Y-57764050D01*
X53050051Y-57701629D01*
X53135950Y-57909521D01*
X53339408Y-58113335D01*
X53605376Y-58223774D01*
X53893361Y-58224025D01*
X54035105Y-58165458D01*
X54135950Y-58409521D01*
X54339408Y-58613335D01*
X54605376Y-58723774D01*
X54893361Y-58724025D01*
X55035105Y-58665458D01*
X55135950Y-58909521D01*
X55339408Y-59113335D01*
X55605376Y-59223774D01*
X55893361Y-59224025D01*
X56159521Y-59114050D01*
X56363335Y-58910592D01*
X56473774Y-58644624D01*
X56474025Y-58356639D01*
X56364050Y-58090479D01*
X56160592Y-57886665D01*
X55894624Y-57776226D01*
X55606639Y-57775975D01*
X55464895Y-57834542D01*
X55364050Y-57590479D01*
X55167277Y-57393361D01*
X79525975Y-57393361D01*
X79635950Y-57659521D01*
X79839408Y-57863335D01*
X80105376Y-57973774D01*
X80393361Y-57974025D01*
X80623339Y-57879000D01*
X80635950Y-57909521D01*
X80839408Y-58113335D01*
X81105376Y-58223774D01*
X81393361Y-58224025D01*
X81659521Y-58114050D01*
X81863335Y-57910592D01*
X81973774Y-57644624D01*
X81974025Y-57356639D01*
X81864050Y-57090479D01*
X81660592Y-56886665D01*
X81394624Y-56776226D01*
X81106639Y-56775975D01*
X80876661Y-56871000D01*
X80864050Y-56840479D01*
X80660592Y-56636665D01*
X80394624Y-56526226D01*
X80106639Y-56525975D01*
X79840479Y-56635950D01*
X79636665Y-56839408D01*
X79526226Y-57105376D01*
X79525975Y-57393361D01*
X55167277Y-57393361D01*
X55160592Y-57386665D01*
X54894624Y-57276226D01*
X54606639Y-57275975D01*
X54464895Y-57334542D01*
X54364050Y-57090479D01*
X54160592Y-56886665D01*
X53894624Y-56776226D01*
X53606639Y-56775975D01*
X53340479Y-56885950D01*
X53277949Y-56948371D01*
X53192050Y-56740479D01*
X52988592Y-56536665D01*
X52722624Y-56426226D01*
X52478573Y-56426013D01*
X52539774Y-56278624D01*
X52540025Y-55990639D01*
X52430050Y-55724479D01*
X52226592Y-55520665D01*
X52213819Y-55515361D01*
X69887975Y-55515361D01*
X69997950Y-55781521D01*
X70201408Y-55985335D01*
X70467376Y-56095774D01*
X70755361Y-56096025D01*
X71021521Y-55986050D01*
X71225335Y-55782592D01*
X71230828Y-55769361D01*
X72173975Y-55769361D01*
X72283950Y-56035521D01*
X72487408Y-56239335D01*
X72753376Y-56349774D01*
X73041361Y-56350025D01*
X73307521Y-56240050D01*
X73511335Y-56036592D01*
X73621774Y-55770624D01*
X73621933Y-55587867D01*
X73698133Y-55587933D01*
X73697975Y-55769361D01*
X73807950Y-56035521D01*
X74011408Y-56239335D01*
X74277376Y-56349774D01*
X74565361Y-56350025D01*
X74831521Y-56240050D01*
X75035335Y-56036592D01*
X75094809Y-55893361D01*
X77025975Y-55893361D01*
X77135950Y-56159521D01*
X77339408Y-56363335D01*
X77605376Y-56473774D01*
X77893361Y-56474025D01*
X78099074Y-56389026D01*
X95322642Y-56389026D01*
X95325291Y-56404791D01*
X95579268Y-56932036D01*
X96015680Y-57321954D01*
X96288243Y-57417296D01*
X96273943Y-57420140D01*
X95870166Y-57689935D01*
X95600371Y-58093712D01*
X95505631Y-58570000D01*
X95600371Y-59046288D01*
X95870166Y-59450065D01*
X96273943Y-59719860D01*
X96750231Y-59814600D01*
X97109769Y-59814600D01*
X97586057Y-59719860D01*
X97989834Y-59450065D01*
X98259629Y-59046288D01*
X98354369Y-58570000D01*
X98259629Y-58093712D01*
X97989834Y-57689935D01*
X97586057Y-57420140D01*
X97571757Y-57417296D01*
X97844320Y-57321954D01*
X98280732Y-56932036D01*
X98534709Y-56404791D01*
X98537358Y-56389026D01*
X98416217Y-56157000D01*
X97057000Y-56157000D01*
X97057000Y-56177000D01*
X96803000Y-56177000D01*
X96803000Y-56157000D01*
X95443783Y-56157000D01*
X95322642Y-56389026D01*
X78099074Y-56389026D01*
X78159521Y-56364050D01*
X78363335Y-56160592D01*
X78473774Y-55894624D01*
X78473968Y-55670974D01*
X95322642Y-55670974D01*
X95443783Y-55903000D01*
X96803000Y-55903000D01*
X96803000Y-55883000D01*
X97057000Y-55883000D01*
X97057000Y-55903000D01*
X98416217Y-55903000D01*
X98537358Y-55670974D01*
X98534709Y-55655209D01*
X98280732Y-55127964D01*
X97844320Y-54738046D01*
X97571757Y-54642704D01*
X97586057Y-54639860D01*
X97989834Y-54370065D01*
X98259629Y-53966288D01*
X98354369Y-53490000D01*
X98259629Y-53013712D01*
X97989834Y-52609935D01*
X97586057Y-52340140D01*
X97109769Y-52245400D01*
X96750231Y-52245400D01*
X96273943Y-52340140D01*
X95870166Y-52609935D01*
X95600371Y-53013712D01*
X95505631Y-53490000D01*
X95600371Y-53966288D01*
X95870166Y-54370065D01*
X96273943Y-54639860D01*
X96288243Y-54642704D01*
X96015680Y-54738046D01*
X95579268Y-55127964D01*
X95325291Y-55655209D01*
X95322642Y-55670974D01*
X78473968Y-55670974D01*
X78474025Y-55606639D01*
X78364050Y-55340479D01*
X78160592Y-55136665D01*
X77894624Y-55026226D01*
X77606639Y-55025975D01*
X77340479Y-55135950D01*
X77136665Y-55339408D01*
X77026226Y-55605376D01*
X77025975Y-55893361D01*
X75094809Y-55893361D01*
X75145774Y-55770624D01*
X75146025Y-55482639D01*
X75084532Y-55333813D01*
X75327361Y-55334025D01*
X75593521Y-55224050D01*
X75797335Y-55020592D01*
X75907774Y-54754624D01*
X75907959Y-54542028D01*
X76101521Y-54462050D01*
X76170330Y-54393361D01*
X91025975Y-54393361D01*
X91135950Y-54659521D01*
X91339408Y-54863335D01*
X91605376Y-54973774D01*
X91893361Y-54974025D01*
X92159521Y-54864050D01*
X92363335Y-54660592D01*
X92473774Y-54394624D01*
X92474025Y-54106639D01*
X92364050Y-53840479D01*
X92160592Y-53636665D01*
X91894624Y-53526226D01*
X91606639Y-53525975D01*
X91340479Y-53635950D01*
X91136665Y-53839408D01*
X91026226Y-54105376D01*
X91025975Y-54393361D01*
X76170330Y-54393361D01*
X76305335Y-54258592D01*
X76415774Y-53992624D01*
X76415959Y-53780028D01*
X76609521Y-53700050D01*
X76813335Y-53496592D01*
X76923774Y-53230624D01*
X76923959Y-53018028D01*
X77117521Y-52938050D01*
X77321335Y-52734592D01*
X77431774Y-52468624D01*
X77432025Y-52180639D01*
X77322050Y-51914479D01*
X77118592Y-51710665D01*
X76852624Y-51600226D01*
X76564639Y-51599975D01*
X76298479Y-51709950D01*
X76094665Y-51913408D01*
X75984226Y-52179376D01*
X75984041Y-52391972D01*
X75790479Y-52471950D01*
X75586665Y-52675408D01*
X75476226Y-52941376D01*
X75476041Y-53153972D01*
X75282479Y-53233950D01*
X75078665Y-53437408D01*
X74968226Y-53703376D01*
X74968041Y-53915972D01*
X74774479Y-53995950D01*
X74570665Y-54199408D01*
X74460226Y-54465376D01*
X74459975Y-54753361D01*
X74521468Y-54902187D01*
X74383867Y-54902067D01*
X74384025Y-54720639D01*
X74274050Y-54454479D01*
X74070592Y-54250665D01*
X73804624Y-54140226D01*
X73516639Y-54139975D01*
X73250479Y-54249950D01*
X73046665Y-54453408D01*
X72936226Y-54719376D01*
X72936067Y-54902133D01*
X72754639Y-54901975D01*
X72488479Y-55011950D01*
X72284665Y-55215408D01*
X72174226Y-55481376D01*
X72173975Y-55769361D01*
X71230828Y-55769361D01*
X71335774Y-55516624D01*
X71336025Y-55228639D01*
X71226050Y-54962479D01*
X71022592Y-54758665D01*
X70756624Y-54648226D01*
X70468639Y-54647975D01*
X70202479Y-54757950D01*
X69998665Y-54961408D01*
X69888226Y-55227376D01*
X69887975Y-55515361D01*
X52213819Y-55515361D01*
X51960624Y-55410226D01*
X51672639Y-55409975D01*
X51406479Y-55519950D01*
X51303449Y-55622800D01*
X50833426Y-55622800D01*
X50829629Y-55603712D01*
X50559834Y-55199935D01*
X50156057Y-54930140D01*
X49679769Y-54835400D01*
X49320231Y-54835400D01*
X48843943Y-54930140D01*
X48440166Y-55199935D01*
X48170371Y-55603712D01*
X48075631Y-56080000D01*
X47056000Y-56080000D01*
X47056000Y-53540000D01*
X48075631Y-53540000D01*
X48170371Y-54016288D01*
X48440166Y-54420065D01*
X48843943Y-54689860D01*
X49320231Y-54784600D01*
X49679769Y-54784600D01*
X50156057Y-54689860D01*
X50559834Y-54420065D01*
X50829629Y-54016288D01*
X50893863Y-53693361D01*
X51575975Y-53693361D01*
X51685950Y-53959521D01*
X51889408Y-54163335D01*
X52155376Y-54273774D01*
X52443361Y-54274025D01*
X52709521Y-54164050D01*
X52913335Y-53960592D01*
X53023774Y-53694624D01*
X53024025Y-53406639D01*
X52914050Y-53140479D01*
X52710592Y-52936665D01*
X52444624Y-52826226D01*
X52156639Y-52825975D01*
X51890479Y-52935950D01*
X51686665Y-53139408D01*
X51576226Y-53405376D01*
X51575975Y-53693361D01*
X50893863Y-53693361D01*
X50924369Y-53540000D01*
X50829629Y-53063712D01*
X50559834Y-52659935D01*
X50156057Y-52390140D01*
X49679769Y-52295400D01*
X49320231Y-52295400D01*
X48843943Y-52390140D01*
X48440166Y-52659935D01*
X48170371Y-53063712D01*
X48075631Y-53540000D01*
X47056000Y-53540000D01*
X47056000Y-50136400D01*
X48095536Y-50136400D01*
X48095536Y-51863600D01*
X48122103Y-52004790D01*
X48205546Y-52134465D01*
X48332866Y-52221459D01*
X48484000Y-52252064D01*
X50516000Y-52252064D01*
X50657190Y-52225497D01*
X50786865Y-52142054D01*
X50873859Y-52014734D01*
X50904464Y-51863600D01*
X50904464Y-50893361D01*
X80525975Y-50893361D01*
X80635950Y-51159521D01*
X80839408Y-51363335D01*
X81105376Y-51473774D01*
X81393361Y-51474025D01*
X81659521Y-51364050D01*
X81863335Y-51160592D01*
X81973774Y-50894624D01*
X81973775Y-50893361D01*
X82775975Y-50893361D01*
X82885950Y-51159521D01*
X83089408Y-51363335D01*
X83355376Y-51473774D01*
X83643361Y-51474025D01*
X83909521Y-51364050D01*
X84113335Y-51160592D01*
X84203536Y-50943361D01*
X91731975Y-50943361D01*
X91841950Y-51209521D01*
X92045408Y-51413335D01*
X92311376Y-51523774D01*
X92599361Y-51524025D01*
X92865521Y-51414050D01*
X93069335Y-51210592D01*
X93177541Y-50950000D01*
X95505631Y-50950000D01*
X95600371Y-51426288D01*
X95870166Y-51830065D01*
X96273943Y-52099860D01*
X96750231Y-52194600D01*
X97109769Y-52194600D01*
X97586057Y-52099860D01*
X97989834Y-51830065D01*
X98259629Y-51426288D01*
X98354369Y-50950000D01*
X98259629Y-50473712D01*
X97989834Y-50069935D01*
X97586057Y-49800140D01*
X97109769Y-49705400D01*
X96750231Y-49705400D01*
X96273943Y-49800140D01*
X95870166Y-50069935D01*
X95600371Y-50473712D01*
X95505631Y-50950000D01*
X93177541Y-50950000D01*
X93179774Y-50944624D01*
X93180025Y-50656639D01*
X93070050Y-50390479D01*
X92866592Y-50186665D01*
X92600624Y-50076226D01*
X92312639Y-50075975D01*
X92046479Y-50185950D01*
X91842665Y-50389408D01*
X91732226Y-50655376D01*
X91731975Y-50943361D01*
X84203536Y-50943361D01*
X84223774Y-50894624D01*
X84224025Y-50606639D01*
X84114050Y-50340479D01*
X83910592Y-50136665D01*
X83644624Y-50026226D01*
X83356639Y-50025975D01*
X83090479Y-50135950D01*
X82886665Y-50339408D01*
X82776226Y-50605376D01*
X82775975Y-50893361D01*
X81973775Y-50893361D01*
X81974025Y-50606639D01*
X81864050Y-50340479D01*
X81660592Y-50136665D01*
X81394624Y-50026226D01*
X81106639Y-50025975D01*
X80840479Y-50135950D01*
X80636665Y-50339408D01*
X80526226Y-50605376D01*
X80525975Y-50893361D01*
X50904464Y-50893361D01*
X50904464Y-50136400D01*
X50877897Y-49995210D01*
X50794454Y-49865535D01*
X50667134Y-49778541D01*
X50516000Y-49747936D01*
X48484000Y-49747936D01*
X48342810Y-49774503D01*
X48213135Y-49857946D01*
X48126141Y-49985266D01*
X48095536Y-50136400D01*
X47056000Y-50136400D01*
X47056000Y-48950000D01*
X62864200Y-48950000D01*
X62916403Y-49212444D01*
X63065066Y-49434934D01*
X63287556Y-49583597D01*
X63550000Y-49635800D01*
X63650000Y-49635800D01*
X63912444Y-49583597D01*
X64134934Y-49434934D01*
X64283597Y-49212444D01*
X64335800Y-48950000D01*
X64283597Y-48687556D01*
X64134934Y-48465066D01*
X64052522Y-48410000D01*
X95505631Y-48410000D01*
X95600371Y-48886288D01*
X95870166Y-49290065D01*
X96273943Y-49559860D01*
X96750231Y-49654600D01*
X97109769Y-49654600D01*
X97586057Y-49559860D01*
X97989834Y-49290065D01*
X98259629Y-48886288D01*
X98354369Y-48410000D01*
X98259629Y-47933712D01*
X97989834Y-47529935D01*
X97586057Y-47260140D01*
X97109769Y-47165400D01*
X96750231Y-47165400D01*
X96273943Y-47260140D01*
X95870166Y-47529935D01*
X95600371Y-47933712D01*
X95505631Y-48410000D01*
X64052522Y-48410000D01*
X63912444Y-48316403D01*
X63650000Y-48264200D01*
X63550000Y-48264200D01*
X63287556Y-48316403D01*
X63065066Y-48465066D01*
X62916403Y-48687556D01*
X62864200Y-48950000D01*
X47056000Y-48950000D01*
X47056000Y-45863361D01*
X55155975Y-45863361D01*
X55265950Y-46129521D01*
X55469408Y-46333335D01*
X55735376Y-46443774D01*
X56023361Y-46444025D01*
X56172187Y-46382532D01*
X56171975Y-46625361D01*
X56281950Y-46891521D01*
X56485408Y-47095335D01*
X56751376Y-47205774D01*
X57039361Y-47206025D01*
X57305521Y-47096050D01*
X57465516Y-46936335D01*
X57551950Y-47145521D01*
X57755408Y-47349335D01*
X58021376Y-47459774D01*
X58309361Y-47460025D01*
X58575521Y-47350050D01*
X58735516Y-47190335D01*
X58821950Y-47399521D01*
X59025408Y-47603335D01*
X59291376Y-47713774D01*
X59579361Y-47714025D01*
X59845521Y-47604050D01*
X60049335Y-47400592D01*
X60159774Y-47134624D01*
X60160025Y-46846639D01*
X60050050Y-46580479D01*
X59846592Y-46376665D01*
X59580624Y-46266226D01*
X59292639Y-46265975D01*
X59026479Y-46375950D01*
X58866484Y-46535665D01*
X58780050Y-46326479D01*
X58576592Y-46122665D01*
X58310624Y-46012226D01*
X58022639Y-46011975D01*
X57756479Y-46121950D01*
X57596484Y-46281665D01*
X57510050Y-46072479D01*
X57306592Y-45868665D01*
X57040624Y-45758226D01*
X56752639Y-45757975D01*
X56603813Y-45819468D01*
X56604025Y-45576639D01*
X56494050Y-45310479D01*
X56290592Y-45106665D01*
X56277819Y-45101361D01*
X71411975Y-45101361D01*
X71521950Y-45367521D01*
X71725408Y-45571335D01*
X71991376Y-45681774D01*
X72279361Y-45682025D01*
X72455221Y-45609361D01*
X75983975Y-45609361D01*
X76093950Y-45875521D01*
X76297408Y-46079335D01*
X76563376Y-46189774D01*
X76851361Y-46190025D01*
X77003948Y-46126977D01*
X77109950Y-46383521D01*
X77313408Y-46587335D01*
X77579376Y-46697774D01*
X77867361Y-46698025D01*
X78133521Y-46588050D01*
X78337335Y-46384592D01*
X78447774Y-46118624D01*
X78448025Y-45830639D01*
X78338050Y-45564479D01*
X78134592Y-45360665D01*
X77868624Y-45250226D01*
X77580639Y-45249975D01*
X77428052Y-45313023D01*
X77322050Y-45056479D01*
X77118592Y-44852665D01*
X76852624Y-44742226D01*
X76564639Y-44741975D01*
X76298479Y-44851950D01*
X76094665Y-45055408D01*
X75984226Y-45321376D01*
X75983975Y-45609361D01*
X72455221Y-45609361D01*
X72545521Y-45572050D01*
X72749335Y-45368592D01*
X72859774Y-45102624D01*
X72860025Y-44814639D01*
X72750050Y-44548479D01*
X72546592Y-44344665D01*
X72280624Y-44234226D01*
X71992639Y-44233975D01*
X71726479Y-44343950D01*
X71522665Y-44547408D01*
X71412226Y-44813376D01*
X71411975Y-45101361D01*
X56277819Y-45101361D01*
X56024624Y-44996226D01*
X55736639Y-44995975D01*
X55470479Y-45105950D01*
X55266665Y-45309408D01*
X55156226Y-45575376D01*
X55155975Y-45863361D01*
X47056000Y-45863361D01*
X47056000Y-43522513D01*
X48318674Y-43522513D01*
X48604436Y-44214109D01*
X49133108Y-44743704D01*
X49824204Y-45030673D01*
X50572513Y-45031326D01*
X51264109Y-44745564D01*
X51793704Y-44216892D01*
X52080673Y-43525796D01*
X52081326Y-42777487D01*
X51858510Y-42238231D01*
X55385400Y-42238231D01*
X55385400Y-42597769D01*
X55480140Y-43074057D01*
X55749935Y-43477834D01*
X56153712Y-43747629D01*
X56630000Y-43842369D01*
X57106288Y-43747629D01*
X57510065Y-43477834D01*
X57779860Y-43074057D01*
X57874600Y-42597769D01*
X57874600Y-42238231D01*
X57925400Y-42238231D01*
X57925400Y-42597769D01*
X58020140Y-43074057D01*
X58289935Y-43477834D01*
X58693712Y-43747629D01*
X59170000Y-43842369D01*
X59646288Y-43747629D01*
X60050065Y-43477834D01*
X60319860Y-43074057D01*
X60414600Y-42597769D01*
X60414600Y-42238231D01*
X60465400Y-42238231D01*
X60465400Y-42597769D01*
X60560140Y-43074057D01*
X60829935Y-43477834D01*
X61233712Y-43747629D01*
X61710000Y-43842369D01*
X62186288Y-43747629D01*
X62590065Y-43477834D01*
X62859860Y-43074057D01*
X62954600Y-42597769D01*
X62954600Y-42238231D01*
X62859860Y-41761943D01*
X62619354Y-41402000D01*
X62997936Y-41402000D01*
X62997936Y-43434000D01*
X63024503Y-43575190D01*
X63107946Y-43704865D01*
X63235266Y-43791859D01*
X63386400Y-43822464D01*
X65113600Y-43822464D01*
X65254790Y-43795897D01*
X65384465Y-43712454D01*
X65471459Y-43585134D01*
X65502064Y-43434000D01*
X65502064Y-42779913D01*
X67094816Y-42779913D01*
X67288046Y-43332320D01*
X67677964Y-43768732D01*
X68205209Y-44022709D01*
X68220974Y-44025358D01*
X68453000Y-43904217D01*
X68453000Y-42545000D01*
X67239076Y-42545000D01*
X67094816Y-42779913D01*
X65502064Y-42779913D01*
X65502064Y-42056087D01*
X67094816Y-42056087D01*
X67239076Y-42291000D01*
X68453000Y-42291000D01*
X68453000Y-40931783D01*
X68707000Y-40931783D01*
X68707000Y-42291000D01*
X68727000Y-42291000D01*
X68727000Y-42545000D01*
X68707000Y-42545000D01*
X68707000Y-43904217D01*
X68939026Y-44025358D01*
X68954791Y-44022709D01*
X69482036Y-43768732D01*
X69871954Y-43332320D01*
X69967296Y-43059757D01*
X69970140Y-43074057D01*
X70239935Y-43477834D01*
X70643712Y-43747629D01*
X71120000Y-43842369D01*
X71596288Y-43747629D01*
X72000065Y-43477834D01*
X72269860Y-43074057D01*
X72364600Y-42597769D01*
X72364600Y-42238231D01*
X72269860Y-41761943D01*
X72029354Y-41402000D01*
X72407936Y-41402000D01*
X72407936Y-43434000D01*
X72434503Y-43575190D01*
X72517946Y-43704865D01*
X72645266Y-43791859D01*
X72796400Y-43822464D01*
X74523600Y-43822464D01*
X74664790Y-43795897D01*
X74794465Y-43712454D01*
X74881459Y-43585134D01*
X74912064Y-43434000D01*
X74912064Y-42390631D01*
X76835000Y-42390631D01*
X76835000Y-42445369D01*
X76941340Y-42979978D01*
X77244172Y-43433197D01*
X77697391Y-43736029D01*
X78232000Y-43842369D01*
X78766609Y-43736029D01*
X79219828Y-43433197D01*
X79367536Y-43212137D01*
X79367536Y-43434000D01*
X79394103Y-43575190D01*
X79477546Y-43704865D01*
X79604866Y-43791859D01*
X79756000Y-43822464D01*
X81788000Y-43822464D01*
X81929190Y-43795897D01*
X82058865Y-43712454D01*
X82145859Y-43585134D01*
X82146092Y-43583983D01*
X84058804Y-43583983D01*
X84230625Y-43999823D01*
X84548503Y-44318256D01*
X84964043Y-44490804D01*
X85413983Y-44491196D01*
X85829823Y-44319375D01*
X86148256Y-44001497D01*
X86189889Y-43901234D01*
X86230625Y-43999823D01*
X86548503Y-44318256D01*
X86964043Y-44490804D01*
X87413983Y-44491196D01*
X87829823Y-44319375D01*
X88148256Y-44001497D01*
X88189889Y-43901234D01*
X88230625Y-43999823D01*
X88548503Y-44318256D01*
X88964043Y-44490804D01*
X89413983Y-44491196D01*
X89829823Y-44319375D01*
X90148256Y-44001497D01*
X90189889Y-43901234D01*
X90230625Y-43999823D01*
X90548503Y-44318256D01*
X90964043Y-44490804D01*
X91413983Y-44491196D01*
X91829823Y-44319375D01*
X92148256Y-44001497D01*
X92320804Y-43585957D01*
X92320859Y-43522513D01*
X94418674Y-43522513D01*
X94704436Y-44214109D01*
X95233108Y-44743704D01*
X95924204Y-45030673D01*
X96672513Y-45031326D01*
X97364109Y-44745564D01*
X97893704Y-44216892D01*
X98180673Y-43525796D01*
X98181326Y-42777487D01*
X97895564Y-42085891D01*
X97366892Y-41556296D01*
X96675796Y-41269327D01*
X95927487Y-41268674D01*
X95235891Y-41554436D01*
X94706296Y-42083108D01*
X94419327Y-42774204D01*
X94418674Y-43522513D01*
X92320859Y-43522513D01*
X92321196Y-43136017D01*
X92149375Y-42720177D01*
X91831497Y-42401744D01*
X91415957Y-42229196D01*
X90966017Y-42228804D01*
X90550177Y-42400625D01*
X90231744Y-42718503D01*
X90190111Y-42818766D01*
X90149375Y-42720177D01*
X89831497Y-42401744D01*
X89415957Y-42229196D01*
X88966017Y-42228804D01*
X88550177Y-42400625D01*
X88231744Y-42718503D01*
X88190111Y-42818766D01*
X88149375Y-42720177D01*
X87831497Y-42401744D01*
X87415957Y-42229196D01*
X86966017Y-42228804D01*
X86550177Y-42400625D01*
X86231744Y-42718503D01*
X86190111Y-42818766D01*
X86149375Y-42720177D01*
X85831497Y-42401744D01*
X85415957Y-42229196D01*
X84966017Y-42228804D01*
X84550177Y-42400625D01*
X84231744Y-42718503D01*
X84059196Y-43134043D01*
X84058804Y-43583983D01*
X82146092Y-43583983D01*
X82176464Y-43434000D01*
X82176464Y-41402000D01*
X82149897Y-41260810D01*
X82066454Y-41131135D01*
X81939134Y-41044141D01*
X81788000Y-41013536D01*
X79756000Y-41013536D01*
X79614810Y-41040103D01*
X79485135Y-41123546D01*
X79398141Y-41250866D01*
X79367536Y-41402000D01*
X79367536Y-41623863D01*
X79219828Y-41402803D01*
X78766609Y-41099971D01*
X78232000Y-40993631D01*
X77697391Y-41099971D01*
X77244172Y-41402803D01*
X76941340Y-41856022D01*
X76835000Y-42390631D01*
X74912064Y-42390631D01*
X74912064Y-41402000D01*
X74885497Y-41260810D01*
X74802054Y-41131135D01*
X74674734Y-41044141D01*
X74523600Y-41013536D01*
X72796400Y-41013536D01*
X72655210Y-41040103D01*
X72525535Y-41123546D01*
X72438541Y-41250866D01*
X72407936Y-41402000D01*
X72029354Y-41402000D01*
X72000065Y-41358166D01*
X71596288Y-41088371D01*
X71120000Y-40993631D01*
X70643712Y-41088371D01*
X70239935Y-41358166D01*
X69970140Y-41761943D01*
X69967296Y-41776243D01*
X69871954Y-41503680D01*
X69482036Y-41067268D01*
X68954791Y-40813291D01*
X68939026Y-40810642D01*
X68707000Y-40931783D01*
X68453000Y-40931783D01*
X68220974Y-40810642D01*
X68205209Y-40813291D01*
X67677964Y-41067268D01*
X67288046Y-41503680D01*
X67094816Y-42056087D01*
X65502064Y-42056087D01*
X65502064Y-41402000D01*
X65475497Y-41260810D01*
X65392054Y-41131135D01*
X65264734Y-41044141D01*
X65113600Y-41013536D01*
X63386400Y-41013536D01*
X63245210Y-41040103D01*
X63115535Y-41123546D01*
X63028541Y-41250866D01*
X62997936Y-41402000D01*
X62619354Y-41402000D01*
X62590065Y-41358166D01*
X62186288Y-41088371D01*
X61710000Y-40993631D01*
X61233712Y-41088371D01*
X60829935Y-41358166D01*
X60560140Y-41761943D01*
X60465400Y-42238231D01*
X60414600Y-42238231D01*
X60319860Y-41761943D01*
X60050065Y-41358166D01*
X59646288Y-41088371D01*
X59170000Y-40993631D01*
X58693712Y-41088371D01*
X58289935Y-41358166D01*
X58020140Y-41761943D01*
X57925400Y-42238231D01*
X57874600Y-42238231D01*
X57779860Y-41761943D01*
X57510065Y-41358166D01*
X57106288Y-41088371D01*
X56630000Y-40993631D01*
X56153712Y-41088371D01*
X55749935Y-41358166D01*
X55480140Y-41761943D01*
X55385400Y-42238231D01*
X51858510Y-42238231D01*
X51795564Y-42085891D01*
X51266892Y-41556296D01*
X50575796Y-41269327D01*
X49827487Y-41268674D01*
X49135891Y-41554436D01*
X48606296Y-42083108D01*
X48319327Y-42774204D01*
X48318674Y-43522513D01*
X47056000Y-43522513D01*
X47056000Y-40006000D01*
X99444000Y-40006000D01*
X99444000Y-112194000D01*
M02*
