G04 #@! TF.FileFunction,Copper,L2,Inr,Signal*
%FSLAX46Y46*%
G04 Gerber Fmt 4.6, Leading zero omitted, Abs format (unit mm)*
G04 Created by KiCad (PCBNEW 4.0.1-stable) date 2/27/2016 10:04:35 PM*
%MOMM*%
G01*
G04 APERTURE LIST*
%ADD10C,0.100000*%
%ADD11O,1.600000X1.600000*%
%ADD12R,2.032000X1.727200*%
%ADD13O,2.032000X1.727200*%
%ADD14R,1.727200X2.032000*%
%ADD15O,1.727200X2.032000*%
%ADD16R,2.032000X2.032000*%
%ADD17O,2.032000X2.032000*%
%ADD18C,1.500000*%
%ADD19C,2.000000*%
%ADD20C,0.685800*%
%ADD21C,0.152400*%
%ADD22C,0.914400*%
G04 APERTURE END LIST*
D10*
D11*
X63550000Y-109750000D03*
X56950000Y-109750000D03*
D12*
X96930000Y-79200000D03*
D13*
X96930000Y-81740000D03*
X96930000Y-84280000D03*
X96930000Y-86820000D03*
X96930000Y-89360000D03*
X96930000Y-91900000D03*
X96930000Y-94440000D03*
X96930000Y-96980000D03*
X96930000Y-99520000D03*
X96930000Y-102060000D03*
D12*
X49500000Y-51000000D03*
D13*
X49500000Y-53540000D03*
X49500000Y-56080000D03*
X49500000Y-58620000D03*
X49500000Y-61160000D03*
X49500000Y-63700000D03*
X49500000Y-66240000D03*
X49500000Y-68780000D03*
X49500000Y-71320000D03*
X49500000Y-73860000D03*
D12*
X49500000Y-79000000D03*
D13*
X49500000Y-81540000D03*
X49500000Y-84080000D03*
X49500000Y-86620000D03*
D14*
X64250000Y-42418000D03*
D15*
X61710000Y-42418000D03*
X59170000Y-42418000D03*
X56630000Y-42418000D03*
D16*
X80772000Y-42418000D03*
D17*
X78232000Y-42418000D03*
D16*
X96930000Y-68020000D03*
D17*
X96930000Y-65480000D03*
D16*
X49500000Y-100000000D03*
D17*
X49500000Y-102540000D03*
D12*
X96930000Y-61110000D03*
D13*
X96930000Y-58570000D03*
X96930000Y-56030000D03*
X96930000Y-53490000D03*
X96930000Y-50950000D03*
X96930000Y-48410000D03*
D16*
X96930000Y-74730000D03*
D17*
X96930000Y-72190000D03*
D18*
X91190000Y-43360000D03*
X89190000Y-43360000D03*
X87190000Y-43360000D03*
X85190000Y-43360000D03*
X83180000Y-109230000D03*
X85180000Y-109230000D03*
X87180000Y-109230000D03*
X89180000Y-109230000D03*
D14*
X73660000Y-42418000D03*
D15*
X71120000Y-42418000D03*
X68580000Y-42418000D03*
D19*
X65200000Y-80340000D03*
X58700000Y-80340000D03*
X65200000Y-75840000D03*
X58700000Y-75840000D03*
X79790000Y-79680000D03*
X73290000Y-79680000D03*
X79790000Y-75180000D03*
X73290000Y-75180000D03*
D12*
X49500000Y-91000000D03*
D13*
X49500000Y-93540000D03*
X49500000Y-96080000D03*
D20*
X73700000Y-47150000D03*
X78750000Y-70550000D03*
X86900000Y-70500000D03*
X64700000Y-46500000D03*
X65532000Y-54102000D03*
X57550000Y-83350000D03*
X71400000Y-85800000D03*
X69450000Y-83000000D03*
X66550000Y-83100000D03*
X76200000Y-67818000D03*
X67818000Y-62484000D03*
X72162500Y-94212500D03*
X70437500Y-94212500D03*
X70437500Y-92487500D03*
X72162500Y-92487500D03*
X71882000Y-55626000D03*
X57912000Y-50292000D03*
X58166000Y-72390000D03*
X82804000Y-80010000D03*
X80264000Y-103378000D03*
X68580000Y-80518000D03*
X87630000Y-50546000D03*
X65660000Y-99240000D03*
X63820000Y-83740000D03*
X75300000Y-95660000D03*
X78080000Y-98380000D03*
X55020000Y-92990000D03*
X59944000Y-59944000D03*
X65278000Y-59944000D03*
X59944000Y-62738000D03*
X64516000Y-60706000D03*
X70000000Y-78000000D03*
X72750000Y-82250000D03*
X63500000Y-61468000D03*
X63500000Y-66548000D03*
X67310000Y-75692000D03*
X71882000Y-61722000D03*
X92456000Y-50800000D03*
X70900000Y-63900000D03*
X78050000Y-73750000D03*
X54500000Y-108500000D03*
X60750000Y-108500000D03*
X60800000Y-105540000D03*
X71310000Y-97440000D03*
X59590000Y-105690000D03*
X72480000Y-97410000D03*
X65786000Y-64008000D03*
X52070000Y-78486000D03*
X73750000Y-71500000D03*
X52750000Y-80000000D03*
X54000000Y-80000000D03*
X74500000Y-72500000D03*
X59436000Y-46990000D03*
X76708000Y-52324000D03*
X58166000Y-46736000D03*
X76200000Y-53086000D03*
X75692000Y-53848000D03*
X56896000Y-46482000D03*
X75184000Y-54610000D03*
X55880000Y-45720000D03*
X77724000Y-45974000D03*
X74422000Y-55626000D03*
X73660000Y-54864000D03*
X76708000Y-45466000D03*
X93980000Y-65024000D03*
X74422000Y-60198000D03*
X94488000Y-64008000D03*
X75946000Y-59182000D03*
X77750000Y-55750000D03*
X91500000Y-58250000D03*
X76750000Y-60250000D03*
X91750000Y-54250000D03*
X94742000Y-73152000D03*
X91440000Y-64008000D03*
X88000000Y-102250000D03*
X75850000Y-61600000D03*
X81250000Y-57500000D03*
X83500000Y-50750000D03*
X91500000Y-102000000D03*
X74000000Y-61000000D03*
X80250000Y-57250000D03*
X81250000Y-50750000D03*
X72898000Y-55626000D03*
X72136000Y-44958000D03*
X76080000Y-89330000D03*
X77270000Y-95570000D03*
X76630000Y-86010000D03*
X70600000Y-89650000D03*
X69650000Y-68000000D03*
X76800000Y-80750000D03*
X80700000Y-85840000D03*
X67500000Y-92290000D03*
X79150000Y-82050000D03*
X70250000Y-69150000D03*
X86106000Y-62738000D03*
X74930000Y-62230000D03*
X53750000Y-83800000D03*
X75940000Y-93860000D03*
X64050000Y-94300000D03*
X93980000Y-76962000D03*
X80010000Y-66040000D03*
X92710000Y-76962000D03*
X76962000Y-68326000D03*
X94996000Y-82296000D03*
X77500000Y-69000000D03*
X53750000Y-57500000D03*
X68000000Y-58750000D03*
X54750000Y-58000000D03*
X67000000Y-59000000D03*
X55750000Y-58500000D03*
X65532000Y-58928000D03*
X53086000Y-65024000D03*
X73914000Y-63246000D03*
X54610000Y-65532000D03*
X72644000Y-64008000D03*
X55880000Y-66040000D03*
X73406000Y-64770000D03*
X81900000Y-62000000D03*
X94300000Y-97200000D03*
X88300000Y-87450000D03*
X94650000Y-95150000D03*
X89150000Y-88200000D03*
X80800000Y-61100000D03*
X71850000Y-70200000D03*
X94450000Y-93650000D03*
X71700000Y-69000000D03*
X93300000Y-91550000D03*
X72350000Y-68050000D03*
X93500000Y-89250000D03*
X73000000Y-68850000D03*
X93200000Y-86750000D03*
X52300000Y-53550000D03*
X64800000Y-67050000D03*
X75200000Y-69350000D03*
X73152000Y-59182000D03*
X51816000Y-56134000D03*
X72390000Y-59944000D03*
X52578000Y-57150000D03*
X71120000Y-62992000D03*
X70612000Y-55372000D03*
D21*
X63500000Y-66548000D02*
X63500000Y-61468000D01*
X74168000Y-59436000D02*
X71882000Y-61722000D01*
X74168000Y-57404000D02*
X74168000Y-59436000D01*
X77216000Y-54356000D02*
X74168000Y-57404000D01*
X88900000Y-54356000D02*
X77216000Y-54356000D01*
X92456000Y-50800000D02*
X88900000Y-54356000D01*
X74500000Y-67500000D02*
X70900000Y-63900000D01*
X74500000Y-70200000D02*
X74500000Y-67500000D01*
X78050000Y-73750000D02*
X74500000Y-70200000D01*
X60750000Y-108500000D02*
X54500000Y-108500000D01*
X67400000Y-101580000D02*
X68310000Y-101580000D01*
X64450000Y-104530000D02*
X67400000Y-101580000D01*
X60750000Y-104530000D02*
X64450000Y-104530000D01*
X59590000Y-105690000D02*
X60750000Y-104530000D01*
X68310000Y-101580000D02*
X72480000Y-97410000D01*
X65786000Y-68834000D02*
X65786000Y-64008000D01*
X60960000Y-73410000D02*
X65786000Y-68834000D01*
X56896000Y-73410000D02*
X60960000Y-73410000D01*
X52070000Y-78486000D02*
X56896000Y-73410000D01*
X73000000Y-72250000D02*
X73750000Y-71500000D01*
X71250000Y-73750000D02*
X73000000Y-72250000D01*
X57500000Y-73750000D02*
X71250000Y-73750000D01*
X56250000Y-75250000D02*
X57500000Y-73750000D01*
X56250000Y-76500000D02*
X56250000Y-75250000D01*
X52750000Y-80000000D02*
X56250000Y-76500000D01*
X54000000Y-80000000D02*
X56750000Y-77250000D01*
X56750000Y-77250000D02*
X56750000Y-75500000D01*
X56750000Y-75500000D02*
X57750000Y-74250000D01*
X57750000Y-74250000D02*
X71500000Y-74250000D01*
X71500000Y-74250000D02*
X73500000Y-72500000D01*
X73500000Y-72500000D02*
X74500000Y-72500000D01*
X77724000Y-45974000D02*
X74422000Y-49276000D01*
X74422000Y-49276000D02*
X74422000Y-55626000D01*
X73660000Y-48514000D02*
X73660000Y-54864000D01*
X76708000Y-45466000D02*
X73660000Y-48514000D01*
X93980000Y-65024000D02*
X93980000Y-64980000D01*
X93980000Y-64980000D02*
X89250000Y-60250000D01*
X74422000Y-60198000D02*
X75795401Y-60204599D01*
X88486802Y-59486802D02*
X89250000Y-60250000D01*
X76506599Y-59493401D02*
X88486802Y-59486802D01*
X75795401Y-60204599D02*
X76506599Y-59493401D01*
X94488000Y-64008000D02*
X89662000Y-59182000D01*
X89662000Y-59182000D02*
X75946000Y-59182000D01*
X77750000Y-55750000D02*
X80250000Y-58250000D01*
X80250000Y-58250000D02*
X91500000Y-58250000D01*
X94742000Y-73152000D02*
X94488000Y-72898000D01*
X94488000Y-72898000D02*
X94488000Y-67056000D01*
X94488000Y-67056000D02*
X91440000Y-64008000D01*
X76900000Y-61600000D02*
X75850000Y-61600000D01*
X77000000Y-61500000D02*
X76900000Y-61600000D01*
X88000000Y-102250000D02*
X89750000Y-100500000D01*
X89750000Y-100500000D02*
X89750000Y-61931056D01*
X89750000Y-61931056D02*
X88318944Y-60500000D01*
X88318944Y-60500000D02*
X78000000Y-60500000D01*
X78000000Y-60500000D02*
X77000000Y-61500000D01*
X91500000Y-102000000D02*
X90250000Y-100750000D01*
X90250000Y-100750000D02*
X90250000Y-62000000D01*
X90250000Y-62000000D02*
X88250000Y-60000000D01*
X88250000Y-60000000D02*
X78000000Y-60000000D01*
X78000000Y-60000000D02*
X77000000Y-61000000D01*
X77000000Y-61000000D02*
X74000000Y-61000000D01*
X72898000Y-45720000D02*
X72898000Y-55626000D01*
X72136000Y-44958000D02*
X72898000Y-45720000D01*
X76080000Y-91440000D02*
X76080000Y-89330000D01*
X77250000Y-92610000D02*
X76080000Y-91440000D01*
X77250000Y-95550000D02*
X77250000Y-92610000D01*
X77270000Y-95570000D02*
X77250000Y-95550000D01*
X73220000Y-89420000D02*
X76630000Y-86010000D01*
X70830000Y-89420000D02*
X73220000Y-89420000D01*
X70600000Y-89650000D02*
X70830000Y-89420000D01*
X72700000Y-90750000D02*
X67650000Y-90750000D01*
X67500000Y-90900000D02*
X67500000Y-92290000D01*
X67650000Y-90750000D02*
X67500000Y-90900000D01*
X77610000Y-85840000D02*
X80700000Y-85840000D01*
X72700000Y-90750000D02*
X77610000Y-85840000D01*
D22*
X64050000Y-94300000D02*
X63050000Y-94300000D01*
X53750000Y-86100000D02*
X53750000Y-83800000D01*
X54700000Y-87050000D02*
X53750000Y-86100000D01*
X55800000Y-87050000D02*
X54700000Y-87050000D01*
X63050000Y-94300000D02*
X55800000Y-87050000D01*
X64050000Y-94300000D02*
X67250000Y-94300000D01*
X73550000Y-95650000D02*
X75340000Y-93860000D01*
X68600000Y-95650000D02*
X73550000Y-95650000D01*
X67250000Y-94300000D02*
X68600000Y-95650000D01*
X75340000Y-93860000D02*
X75940000Y-93860000D01*
D21*
X82600000Y-61650000D02*
X82250000Y-61650000D01*
X82250000Y-61650000D02*
X81900000Y-62000000D01*
X88300000Y-87450000D02*
X88650000Y-87100000D01*
X88650000Y-87100000D02*
X88650000Y-62250000D01*
X88650000Y-62250000D02*
X88050000Y-61650000D01*
X88050000Y-61650000D02*
X82600000Y-61650000D01*
X82600000Y-61650000D02*
X82500000Y-61650000D01*
X89150000Y-88200000D02*
X89200000Y-88150000D01*
X89200000Y-88150000D02*
X89200000Y-62100000D01*
X89200000Y-62100000D02*
X88200000Y-61100000D01*
X88200000Y-61100000D02*
X80800000Y-61100000D01*
X56000000Y-53550000D02*
X52300000Y-53550000D01*
X56850000Y-54400000D02*
X56000000Y-53550000D01*
X56850000Y-65450000D02*
X56850000Y-54400000D01*
X59050000Y-67650000D02*
X56850000Y-65450000D01*
X64200000Y-67650000D02*
X59050000Y-67650000D01*
X64800000Y-67050000D02*
X64200000Y-67650000D01*
X71120000Y-55880000D02*
X71120000Y-62992000D01*
X70612000Y-55372000D02*
X71120000Y-55880000D01*
M02*
