M48
;DRILL file {KiCad 4.0.1-stable} date 2/27/2016 10:04:31 PM
;FORMAT={2:4/ absolute / inch / suppress leading zeros}
FMAT,2
INCH,TZ
T1C0.013
T2C0.031
T3C0.040
T4C0.047
T5C0.118
%
G90
G05
M72
T1
X20400Y-22100
X20500Y-30900
X20591Y-21083
X20700Y-22500
X20768Y-31496
X20900Y-25600
X21161Y-22638
X21161Y-32992
X21260Y-31496
X21457Y-42717
X21500Y-25800
X21555Y-22835
X21661Y-36610
X21949Y-23031
X22000Y-18000
X22000Y-26000
X22400Y-18300
X22657Y-32815
X22800Y-19800
X22900Y-18400
X22900Y-28500
X23400Y-18500
X23461Y-41610
X23600Y-23600
X23600Y-24700
X23917Y-42717
X23937Y-41551
X25000Y-24200
X25000Y-26200
X25126Y-32969
X25217Y-37126
X25400Y-23900
X25472Y-18307
X25512Y-26398
X25700Y-23600
X25800Y-21300
X25800Y-23200
X25850Y-39071
X25900Y-25200
X26201Y-32717
X26378Y-23228
X26500Y-29800
X26575Y-36335
X26700Y-24600
X26772Y-23130
X27000Y-31700
X27343Y-32677
X27421Y-26772
X27559Y-30709
X27657Y-27224
X27731Y-36412
X27731Y-37092
X27795Y-35295
X27800Y-21800
X27913Y-25157
X28000Y-24800
X28075Y-38362
X28110Y-33780
X28228Y-27165
X28287Y-27638
X28300Y-21900
X28300Y-24300
X28400Y-17700
X28410Y-36412
X28410Y-37092
X28484Y-26791
X28500Y-23600
X28535Y-38350
X28600Y-25200
X28642Y-32382
X28700Y-21900
X28740Y-27106
X28800Y-23300
X28900Y-25500
X29000Y-21600
X29016Y-18563
X29035Y-28150
X29100Y-24900
X29134Y-24016
X29300Y-21900
X29300Y-23700
X29331Y-28543
X29500Y-24500
X29600Y-21500
X29606Y-27303
X29646Y-37661
X29800Y-21200
X29862Y-24252
X29898Y-36953
X29900Y-23300
X29953Y-35169
X30000Y-20900
X30000Y-26700
X30169Y-33862
X30200Y-17900
X30200Y-20600
X30217Y-23720
X30236Y-31791
X30300Y-26900
X30421Y-37626
X30512Y-27165
X30600Y-18100
X30610Y-21949
X30728Y-29035
X30740Y-38732
X31004Y-27776
X31161Y-32303
X31500Y-26000
X31594Y-22539
X31600Y-40700
X31772Y-33795
X31811Y-24055
X31988Y-19980
X31988Y-22638
X32244Y-24409
X32600Y-31500
X32874Y-19980
X33900Y-24700
X34213Y-27756
X34500Y-19900
X34646Y-40256
X34764Y-34429
X35098Y-34724
X36000Y-25200
X36024Y-22933
X36024Y-40157
X36122Y-21358
X36400Y-20000
X36500Y-30300
X36693Y-34154
X36732Y-36043
X36811Y-35138
X37000Y-25600
X37000Y-30300
X37126Y-38268
X37185Y-36870
X37200Y-25200
X37264Y-37461
X37300Y-28800
X37400Y-32400
T2
X32748Y-43004
X33535Y-43004
X33539Y-17071
X34323Y-43004
X34327Y-17071
X35110Y-43004
X35114Y-17071
X35902Y-17071
T3
X19488Y-20079
X19488Y-21079
X19488Y-22079
X19488Y-23079
X19488Y-24079
X19488Y-25079
X19488Y-26079
X19488Y-27079
X19488Y-28079
X19488Y-29079
X19488Y-31102
X19488Y-32102
X19488Y-33102
X19488Y-34102
X19488Y-35827
X19488Y-36827
X19488Y-37827
X19488Y-39370
X19488Y-40370
X22295Y-16700
X23295Y-16700
X24295Y-16700
X25295Y-16700
X27000Y-16700
X28000Y-16700
X29000Y-16700
X30800Y-16700
X31800Y-16700
X38161Y-19059
X38161Y-20059
X38161Y-21059
X38161Y-22059
X38161Y-23059
X38161Y-24059
X38161Y-25780
X38161Y-26780
X38161Y-28421
X38161Y-29421
X38161Y-31181
X38161Y-32181
X38161Y-33181
X38161Y-34181
X38161Y-35181
X38161Y-36181
X38161Y-37181
X38161Y-38181
X38161Y-39181
X38161Y-40181
T4
X22421Y-43209
X23110Y-29858
X23110Y-31630
X25020Y-43209
X25669Y-29858
X25669Y-31630
X28854Y-29598
X28854Y-31370
X31413Y-29598
X31413Y-31370
T5
X19764Y-16988
X19764Y-42953
X37913Y-16988
X37913Y-42953
T0
M30
