G04 #@! TF.FileFunction,Copper,L2,Bot,Signal*
%FSLAX46Y46*%
G04 Gerber Fmt 4.6, Leading zero omitted, Abs format (unit mm)*
G04 Created by KiCad (PCBNEW (2015-01-29 BZR 5396)-product) date 2/25/2015 1:18:36 AM*
%MOMM*%
G01*
G04 APERTURE LIST*
%ADD10C,0.100000*%
%ADD11R,1.250000X1.500000*%
%ADD12R,1.500000X1.250000*%
%ADD13O,1.501140X2.499360*%
%ADD14C,1.998980*%
%ADD15R,1.500000X1.300000*%
%ADD16C,2.600000*%
%ADD17R,2.032000X1.727200*%
%ADD18O,2.032000X1.727200*%
%ADD19R,2.032000X2.032000*%
%ADD20O,2.032000X2.032000*%
%ADD21C,1.200000*%
%ADD22C,1.143000*%
%ADD23C,0.889000*%
%ADD24C,0.610000*%
%ADD25C,0.254000*%
G04 APERTURE END LIST*
D10*
D11*
X165608000Y-121940000D03*
X165608000Y-124440000D03*
X161290000Y-105390000D03*
X161290000Y-102890000D03*
D12*
X177324000Y-120842000D03*
X179824000Y-120842000D03*
X176764000Y-125222000D03*
X174264000Y-125222000D03*
D13*
X170688000Y-84328000D03*
X168148000Y-84328000D03*
X173228000Y-84328000D03*
D14*
X178280000Y-94680000D03*
X163280000Y-94680000D03*
D15*
X183184000Y-125172000D03*
X180484000Y-125172000D03*
D16*
X187698000Y-112680000D03*
X187698000Y-107600000D03*
X187698000Y-101250000D03*
X187698000Y-96170000D03*
D17*
X180594000Y-103124000D03*
D18*
X180594000Y-105664000D03*
X180594000Y-108204000D03*
D19*
X173482000Y-91694000D03*
D20*
X170942000Y-91694000D03*
D19*
X173228000Y-88392000D03*
D20*
X175768000Y-88392000D03*
D21*
X152882000Y-104646000D03*
X152882000Y-109726000D03*
X155422000Y-107186000D03*
X152882000Y-118870000D03*
X152882000Y-123950000D03*
X155422000Y-121410000D03*
D22*
X168148000Y-121666000D03*
X178308000Y-127254000D03*
X161290000Y-107696000D03*
X179324000Y-97282000D03*
X175006000Y-105410000D03*
X181356000Y-127000000D03*
X181356000Y-117094000D03*
X173990000Y-98552000D03*
X174752000Y-102870000D03*
X177546000Y-118872000D03*
D23*
X184912000Y-125222000D03*
D24*
X168148000Y-121666000D02*
X167874000Y-121940000D01*
X176764000Y-125710000D02*
X176764000Y-125222000D01*
X178308000Y-127254000D02*
X176764000Y-125710000D01*
X167874000Y-121940000D02*
X168148000Y-121666000D01*
X165608000Y-121940000D02*
X167874000Y-121940000D01*
X163830000Y-112014000D02*
X161290000Y-109474000D01*
X161290000Y-109474000D02*
X161290000Y-107696000D01*
X168148000Y-121666000D02*
X168148000Y-121412000D01*
X164846000Y-118110000D02*
X164846000Y-112014000D01*
X168148000Y-121412000D02*
X164846000Y-118110000D01*
X164846000Y-112014000D02*
X163830000Y-112014000D01*
X161290000Y-107696000D02*
X161290000Y-105390000D01*
X179324000Y-97282000D02*
X176784000Y-99822000D01*
X176784000Y-99822000D02*
X176784000Y-103632000D01*
X176784000Y-103632000D02*
X175006000Y-105410000D01*
X177546000Y-118872000D02*
X177324000Y-119094000D01*
X177324000Y-119094000D02*
X177324000Y-120842000D01*
D25*
X184862000Y-125172000D02*
X184912000Y-125222000D01*
X183184000Y-125172000D02*
X184862000Y-125172000D01*
G36*
X191339000Y-128315000D02*
X189642066Y-128315000D01*
X189642066Y-107936120D01*
X189642066Y-101586120D01*
X189633335Y-101238996D01*
X189633335Y-95786793D01*
X189339370Y-95075342D01*
X188795521Y-94530543D01*
X188084584Y-94235337D01*
X187314793Y-94234665D01*
X186603342Y-94528630D01*
X186058543Y-95072479D01*
X185763337Y-95783416D01*
X185762665Y-96553207D01*
X186056630Y-97264658D01*
X186600479Y-97809457D01*
X187311416Y-98104663D01*
X188081207Y-98105335D01*
X188792658Y-97811370D01*
X189337457Y-97267521D01*
X189632663Y-96556584D01*
X189633335Y-95786793D01*
X189633335Y-101238996D01*
X189622710Y-100816573D01*
X189365455Y-100195504D01*
X189067459Y-100060146D01*
X188887854Y-100239751D01*
X188887854Y-99880541D01*
X188752496Y-99582545D01*
X188034120Y-99305934D01*
X187264573Y-99325290D01*
X186643504Y-99582545D01*
X186508146Y-99880541D01*
X187698000Y-101070395D01*
X188887854Y-99880541D01*
X188887854Y-100239751D01*
X187877605Y-101250000D01*
X189067459Y-102439854D01*
X189365455Y-102304496D01*
X189642066Y-101586120D01*
X189642066Y-107936120D01*
X189622710Y-107166573D01*
X189365455Y-106545504D01*
X189067459Y-106410146D01*
X188887854Y-106589751D01*
X188887854Y-106230541D01*
X188887854Y-102619459D01*
X187698000Y-101429605D01*
X187518395Y-101609210D01*
X187518395Y-101250000D01*
X186328541Y-100060146D01*
X186030545Y-100195504D01*
X185753934Y-100913880D01*
X185773290Y-101683427D01*
X186030545Y-102304496D01*
X186328541Y-102439854D01*
X187518395Y-101250000D01*
X187518395Y-101609210D01*
X186508146Y-102619459D01*
X186643504Y-102917455D01*
X187361880Y-103194066D01*
X188131427Y-103174710D01*
X188752496Y-102917455D01*
X188887854Y-102619459D01*
X188887854Y-106230541D01*
X188752496Y-105932545D01*
X188034120Y-105655934D01*
X187264573Y-105675290D01*
X186643504Y-105932545D01*
X186508146Y-106230541D01*
X187698000Y-107420395D01*
X188887854Y-106230541D01*
X188887854Y-106589751D01*
X187877605Y-107600000D01*
X189067459Y-108789854D01*
X189365455Y-108654496D01*
X189642066Y-107936120D01*
X189642066Y-128315000D01*
X189633335Y-128315000D01*
X189633335Y-112296793D01*
X189339370Y-111585342D01*
X188887854Y-111133037D01*
X188887854Y-108969459D01*
X187698000Y-107779605D01*
X187518395Y-107959210D01*
X187518395Y-107600000D01*
X186328541Y-106410146D01*
X186030545Y-106545504D01*
X185753934Y-107263880D01*
X185773290Y-108033427D01*
X186030545Y-108654496D01*
X186328541Y-108789854D01*
X187518395Y-107600000D01*
X187518395Y-107959210D01*
X186508146Y-108969459D01*
X186643504Y-109267455D01*
X187361880Y-109544066D01*
X188131427Y-109524710D01*
X188752496Y-109267455D01*
X188887854Y-108969459D01*
X188887854Y-111133037D01*
X188795521Y-111040543D01*
X188084584Y-110745337D01*
X187314793Y-110744665D01*
X186603342Y-111038630D01*
X186058543Y-111582479D01*
X185763337Y-112293416D01*
X185762665Y-113063207D01*
X186056630Y-113774658D01*
X186600479Y-114319457D01*
X187311416Y-114614663D01*
X188081207Y-114615335D01*
X188792658Y-114321370D01*
X189337457Y-113777521D01*
X189632663Y-113066584D01*
X189633335Y-112296793D01*
X189633335Y-128315000D01*
X185991687Y-128315000D01*
X185991687Y-125008216D01*
X185827689Y-124611311D01*
X185524286Y-124307378D01*
X185245326Y-124191543D01*
X185245326Y-80090695D01*
X184958957Y-79397628D01*
X184429161Y-78866907D01*
X183736595Y-78579328D01*
X182986695Y-78578674D01*
X182293628Y-78865043D01*
X181762907Y-79394839D01*
X181475328Y-80087405D01*
X181474674Y-80837305D01*
X181761043Y-81530372D01*
X182290839Y-82061093D01*
X182983405Y-82348672D01*
X183733305Y-82349326D01*
X184426372Y-82062957D01*
X184957093Y-81533161D01*
X185244672Y-80840595D01*
X185245326Y-80090695D01*
X185245326Y-124191543D01*
X185127668Y-124142687D01*
X184698216Y-124142313D01*
X184498347Y-124224897D01*
X184394673Y-124067073D01*
X184183640Y-123924623D01*
X183934000Y-123874560D01*
X182434000Y-123874560D01*
X182277345Y-123904954D01*
X182277345Y-108204000D01*
X182163271Y-107630511D01*
X181838415Y-107144330D01*
X181523634Y-106934000D01*
X181838415Y-106723670D01*
X182163271Y-106237489D01*
X182277345Y-105664000D01*
X182163271Y-105090511D01*
X181838415Y-104604330D01*
X181822632Y-104593784D01*
X181852123Y-104588063D01*
X182064927Y-104448273D01*
X182207377Y-104237240D01*
X182257440Y-103987600D01*
X182257440Y-102260400D01*
X182210463Y-102018277D01*
X182070673Y-101805473D01*
X181859640Y-101663023D01*
X181610000Y-101612960D01*
X179925401Y-101612960D01*
X179925401Y-94944418D01*
X179901341Y-94294623D01*
X179698965Y-93806042D01*
X179432163Y-93707443D01*
X179252557Y-93887048D01*
X179252557Y-93527837D01*
X179153958Y-93261035D01*
X178544418Y-93034599D01*
X177927000Y-93057460D01*
X177927000Y-90297000D01*
X177927000Y-86487000D01*
X174613570Y-86487000D01*
X174613570Y-84954110D01*
X174613570Y-84455000D01*
X174613570Y-84201000D01*
X174613570Y-83701890D01*
X174459499Y-83181323D01*
X174117944Y-82759342D01*
X173640903Y-82500190D01*
X173569275Y-82486007D01*
X173355000Y-82608661D01*
X173355000Y-84201000D01*
X174613570Y-84201000D01*
X174613570Y-84455000D01*
X173355000Y-84455000D01*
X173355000Y-86047339D01*
X173569275Y-86169993D01*
X173640903Y-86155810D01*
X174117944Y-85896658D01*
X174459499Y-85474677D01*
X174613570Y-84954110D01*
X174613570Y-86487000D01*
X173101000Y-86487000D01*
X173101000Y-86047339D01*
X173101000Y-84455000D01*
X173081000Y-84455000D01*
X173081000Y-84201000D01*
X173101000Y-84201000D01*
X173101000Y-82608661D01*
X172886725Y-82486007D01*
X172815097Y-82500190D01*
X172338056Y-82759342D01*
X171996501Y-83181323D01*
X171969949Y-83271032D01*
X171968100Y-83261732D01*
X171667746Y-82812221D01*
X171218235Y-82511867D01*
X170688000Y-82406397D01*
X170157765Y-82511867D01*
X169708254Y-82812221D01*
X169418000Y-83246616D01*
X169127746Y-82812221D01*
X168678235Y-82511867D01*
X168148000Y-82406397D01*
X167617765Y-82511867D01*
X167168254Y-82812221D01*
X166867900Y-83261732D01*
X166762430Y-83791967D01*
X166762430Y-84864033D01*
X166867900Y-85394268D01*
X167168254Y-85843779D01*
X167617765Y-86144133D01*
X168148000Y-86249603D01*
X168678235Y-86144133D01*
X169127746Y-85843779D01*
X169418000Y-85409383D01*
X169708254Y-85843779D01*
X170157765Y-86144133D01*
X170688000Y-86249603D01*
X171218235Y-86144133D01*
X171667746Y-85843779D01*
X171968100Y-85394268D01*
X171969949Y-85384967D01*
X171996501Y-85474677D01*
X172338056Y-85896658D01*
X172815097Y-86155810D01*
X172886725Y-86169993D01*
X173101000Y-86047339D01*
X173101000Y-86487000D01*
X171323000Y-86487000D01*
X171323000Y-90112351D01*
X170974345Y-90043000D01*
X170909655Y-90043000D01*
X170277845Y-90168675D01*
X169742222Y-90526567D01*
X169384330Y-91062190D01*
X169258655Y-91694000D01*
X169384330Y-92325810D01*
X169742222Y-92861433D01*
X170277845Y-93219325D01*
X170909655Y-93345000D01*
X170974345Y-93345000D01*
X171606155Y-93219325D01*
X171908398Y-93017372D01*
X172005327Y-93164927D01*
X172216360Y-93307377D01*
X172466000Y-93357440D01*
X174498000Y-93357440D01*
X174740123Y-93310463D01*
X174952927Y-93170673D01*
X175095377Y-92959640D01*
X175145440Y-92710000D01*
X175145440Y-90678000D01*
X175098463Y-90435877D01*
X175007235Y-90297000D01*
X177927000Y-90297000D01*
X177927000Y-93057460D01*
X177894623Y-93058659D01*
X177406042Y-93261035D01*
X177307443Y-93527837D01*
X178280000Y-94500395D01*
X179252557Y-93527837D01*
X179252557Y-93887048D01*
X178459605Y-94680000D01*
X179432163Y-95652557D01*
X179698965Y-95553958D01*
X179925401Y-94944418D01*
X179925401Y-101612960D01*
X179578000Y-101612960D01*
X179335877Y-101659937D01*
X179252557Y-101714669D01*
X179252557Y-95832163D01*
X178280000Y-94859605D01*
X178100395Y-95039210D01*
X178100395Y-94680000D01*
X177127837Y-93707443D01*
X176861035Y-93806042D01*
X176634599Y-94415582D01*
X176658659Y-95065377D01*
X176861035Y-95553958D01*
X177127837Y-95652557D01*
X178100395Y-94680000D01*
X178100395Y-95039210D01*
X177307443Y-95832163D01*
X177406042Y-96098965D01*
X178015582Y-96325401D01*
X178665377Y-96301341D01*
X179153958Y-96098965D01*
X179252557Y-95832163D01*
X179252557Y-101714669D01*
X179123073Y-101799727D01*
X178980623Y-102010760D01*
X178930560Y-102260400D01*
X178930560Y-103987600D01*
X178977537Y-104229723D01*
X179117327Y-104442527D01*
X179328360Y-104584977D01*
X179366962Y-104592718D01*
X179349585Y-104604330D01*
X179024729Y-105090511D01*
X178910655Y-105664000D01*
X179024729Y-106237489D01*
X179349585Y-106723670D01*
X179664365Y-106934000D01*
X179349585Y-107144330D01*
X179024729Y-107630511D01*
X178910655Y-108204000D01*
X179024729Y-108777489D01*
X179349585Y-109263670D01*
X179835766Y-109588526D01*
X180409255Y-109702600D01*
X180778745Y-109702600D01*
X181352234Y-109588526D01*
X181838415Y-109263670D01*
X182163271Y-108777489D01*
X182277345Y-108204000D01*
X182277345Y-123904954D01*
X182191877Y-123921537D01*
X181979073Y-124061327D01*
X181836623Y-124272360D01*
X181830520Y-124302791D01*
X181772327Y-124162301D01*
X181593698Y-123983673D01*
X181360309Y-123887000D01*
X181209000Y-123887000D01*
X181209000Y-121593310D01*
X181209000Y-121340691D01*
X181209000Y-121127750D01*
X181209000Y-120556250D01*
X181209000Y-120343309D01*
X181209000Y-120090690D01*
X181112327Y-119857301D01*
X180933698Y-119678673D01*
X180700309Y-119582000D01*
X180109750Y-119582000D01*
X179951000Y-119740750D01*
X179951000Y-120715000D01*
X181050250Y-120715000D01*
X181209000Y-120556250D01*
X181209000Y-121127750D01*
X181050250Y-120969000D01*
X179951000Y-120969000D01*
X179951000Y-121943250D01*
X180109750Y-122102000D01*
X180700309Y-122102000D01*
X180933698Y-122005327D01*
X181112327Y-121826699D01*
X181209000Y-121593310D01*
X181209000Y-123887000D01*
X180769750Y-123887000D01*
X180611000Y-124045750D01*
X180611000Y-125045000D01*
X180631000Y-125045000D01*
X180631000Y-125299000D01*
X180611000Y-125299000D01*
X180611000Y-126298250D01*
X180769750Y-126457000D01*
X181360309Y-126457000D01*
X181593698Y-126360327D01*
X181772327Y-126181699D01*
X181829546Y-126043557D01*
X181833537Y-126064123D01*
X181973327Y-126276927D01*
X182184360Y-126419377D01*
X182434000Y-126469440D01*
X183934000Y-126469440D01*
X184176123Y-126422463D01*
X184388927Y-126282673D01*
X184446398Y-126197531D01*
X184696332Y-126301313D01*
X185125784Y-126301687D01*
X185522689Y-126137689D01*
X185826622Y-125834286D01*
X185991313Y-125437668D01*
X185991687Y-125008216D01*
X185991687Y-128315000D01*
X180357000Y-128315000D01*
X180357000Y-126298250D01*
X180357000Y-125299000D01*
X180357000Y-125045000D01*
X180357000Y-124045750D01*
X180198250Y-123887000D01*
X179697000Y-123887000D01*
X179697000Y-121943250D01*
X179697000Y-120969000D01*
X179677000Y-120969000D01*
X179677000Y-120715000D01*
X179697000Y-120715000D01*
X179697000Y-119740750D01*
X179538250Y-119582000D01*
X178947691Y-119582000D01*
X178714302Y-119678673D01*
X178572823Y-119820150D01*
X178534673Y-119762073D01*
X178431725Y-119692581D01*
X178568225Y-119556320D01*
X178752290Y-119113041D01*
X178752709Y-118633065D01*
X178569418Y-118189465D01*
X178230320Y-117849775D01*
X177787041Y-117665710D01*
X177307065Y-117665291D01*
X176863465Y-117848582D01*
X176523775Y-118187680D01*
X176339710Y-118630959D01*
X176339291Y-119110935D01*
X176384000Y-119219139D01*
X176384000Y-119606424D01*
X176331877Y-119616537D01*
X176119073Y-119756327D01*
X175976623Y-119967360D01*
X175926560Y-120217000D01*
X175926560Y-121467000D01*
X175973537Y-121709123D01*
X176113327Y-121921927D01*
X176324360Y-122064377D01*
X176574000Y-122114440D01*
X178074000Y-122114440D01*
X178316123Y-122067463D01*
X178528927Y-121927673D01*
X178572337Y-121863362D01*
X178714302Y-122005327D01*
X178947691Y-122102000D01*
X179538250Y-122102000D01*
X179697000Y-121943250D01*
X179697000Y-123887000D01*
X179607691Y-123887000D01*
X179374302Y-123983673D01*
X179195673Y-124162301D01*
X179099000Y-124395690D01*
X179099000Y-124648309D01*
X179099000Y-124886250D01*
X179257750Y-125045000D01*
X180357000Y-125045000D01*
X180357000Y-125299000D01*
X179257750Y-125299000D01*
X179099000Y-125457750D01*
X179099000Y-125695691D01*
X179099000Y-125948310D01*
X179195673Y-126181699D01*
X179374302Y-126360327D01*
X179607691Y-126457000D01*
X180198250Y-126457000D01*
X180357000Y-126298250D01*
X180357000Y-128315000D01*
X178899579Y-128315000D01*
X178990535Y-128277418D01*
X179330225Y-127938320D01*
X179514290Y-127495041D01*
X179514709Y-127015065D01*
X179331418Y-126571465D01*
X178992320Y-126231775D01*
X178549041Y-126047710D01*
X178430967Y-126047606D01*
X178161440Y-125778079D01*
X178161440Y-124597000D01*
X178114463Y-124354877D01*
X177974673Y-124142073D01*
X177763640Y-123999623D01*
X177514000Y-123949560D01*
X176014000Y-123949560D01*
X175771877Y-123996537D01*
X175559073Y-124136327D01*
X175515662Y-124200637D01*
X175373698Y-124058673D01*
X175140309Y-123962000D01*
X174549750Y-123962000D01*
X174391000Y-124120750D01*
X174391000Y-125095000D01*
X174411000Y-125095000D01*
X174411000Y-125349000D01*
X174391000Y-125349000D01*
X174391000Y-126323250D01*
X174549750Y-126482000D01*
X175140309Y-126482000D01*
X175373698Y-126385327D01*
X175515176Y-126243849D01*
X175553327Y-126301927D01*
X175764360Y-126444377D01*
X176014000Y-126494440D01*
X176219079Y-126494440D01*
X177101392Y-127376753D01*
X177101291Y-127492935D01*
X177284582Y-127936535D01*
X177623680Y-128276225D01*
X177717060Y-128315000D01*
X174137000Y-128315000D01*
X174137000Y-126323250D01*
X174137000Y-125349000D01*
X174137000Y-125095000D01*
X174137000Y-124120750D01*
X173978250Y-123962000D01*
X173387691Y-123962000D01*
X173154302Y-124058673D01*
X172975673Y-124237301D01*
X172879000Y-124470690D01*
X172879000Y-124723309D01*
X172879000Y-124936250D01*
X173037750Y-125095000D01*
X174137000Y-125095000D01*
X174137000Y-125349000D01*
X173037750Y-125349000D01*
X172879000Y-125507750D01*
X172879000Y-125720691D01*
X172879000Y-125973310D01*
X172975673Y-126206699D01*
X173154302Y-126385327D01*
X173387691Y-126482000D01*
X173978250Y-126482000D01*
X174137000Y-126323250D01*
X174137000Y-128315000D01*
X169354709Y-128315000D01*
X169354709Y-121427065D01*
X169171418Y-120983465D01*
X168832320Y-120643775D01*
X168621664Y-120556303D01*
X165786000Y-117720639D01*
X165786000Y-112014000D01*
X165714447Y-111654278D01*
X165510680Y-111349320D01*
X165205722Y-111145553D01*
X164925401Y-111089793D01*
X164925401Y-94944418D01*
X164901341Y-94294623D01*
X164698965Y-93806042D01*
X164432163Y-93707443D01*
X164252557Y-93887048D01*
X164252557Y-93527837D01*
X164153958Y-93261035D01*
X163544418Y-93034599D01*
X162894623Y-93058659D01*
X162406042Y-93261035D01*
X162307443Y-93527837D01*
X163280000Y-94500395D01*
X164252557Y-93527837D01*
X164252557Y-93887048D01*
X163459605Y-94680000D01*
X164432163Y-95652557D01*
X164698965Y-95553958D01*
X164925401Y-94944418D01*
X164925401Y-111089793D01*
X164846000Y-111074000D01*
X164252557Y-111074000D01*
X164252557Y-95832163D01*
X163280000Y-94859605D01*
X163100395Y-95039210D01*
X163100395Y-94680000D01*
X162127837Y-93707443D01*
X161861035Y-93806042D01*
X161634599Y-94415582D01*
X161658659Y-95065377D01*
X161861035Y-95553958D01*
X162127837Y-95652557D01*
X163100395Y-94680000D01*
X163100395Y-95039210D01*
X162307443Y-95832163D01*
X162406042Y-96098965D01*
X163015582Y-96325401D01*
X163665377Y-96301341D01*
X164153958Y-96098965D01*
X164252557Y-95832163D01*
X164252557Y-111074000D01*
X164219360Y-111074000D01*
X162230000Y-109084639D01*
X162230000Y-108462401D01*
X162312225Y-108380320D01*
X162496290Y-107937041D01*
X162496709Y-107457065D01*
X162313418Y-107013465D01*
X162230000Y-106929901D01*
X162230000Y-106692590D01*
X162369927Y-106600673D01*
X162512377Y-106389640D01*
X162562440Y-106140000D01*
X162562440Y-104640000D01*
X162515463Y-104397877D01*
X162375673Y-104185073D01*
X162311362Y-104141662D01*
X162453327Y-103999698D01*
X162550000Y-103766309D01*
X162550000Y-103175750D01*
X162550000Y-102604250D01*
X162550000Y-102013691D01*
X162453327Y-101780302D01*
X162274699Y-101601673D01*
X162041310Y-101505000D01*
X161788691Y-101505000D01*
X161575750Y-101505000D01*
X161417000Y-101663750D01*
X161417000Y-102763000D01*
X162391250Y-102763000D01*
X162550000Y-102604250D01*
X162550000Y-103175750D01*
X162391250Y-103017000D01*
X161417000Y-103017000D01*
X161417000Y-103037000D01*
X161163000Y-103037000D01*
X161163000Y-103017000D01*
X161163000Y-102763000D01*
X161163000Y-101663750D01*
X161004250Y-101505000D01*
X160791309Y-101505000D01*
X160538690Y-101505000D01*
X160305301Y-101601673D01*
X160126673Y-101780302D01*
X160030000Y-102013691D01*
X160030000Y-102604250D01*
X160188750Y-102763000D01*
X161163000Y-102763000D01*
X161163000Y-103017000D01*
X160188750Y-103017000D01*
X160030000Y-103175750D01*
X160030000Y-103766309D01*
X160126673Y-103999698D01*
X160268150Y-104141176D01*
X160210073Y-104179327D01*
X160067623Y-104390360D01*
X160017560Y-104640000D01*
X160017560Y-106140000D01*
X160064537Y-106382123D01*
X160204327Y-106594927D01*
X160350000Y-106693258D01*
X160350000Y-106929598D01*
X160267775Y-107011680D01*
X160083710Y-107454959D01*
X160083291Y-107934935D01*
X160266582Y-108378535D01*
X160350000Y-108462098D01*
X160350000Y-109474000D01*
X160409681Y-109774041D01*
X160421553Y-109833723D01*
X160625320Y-110138680D01*
X163165319Y-112678680D01*
X163165320Y-112678680D01*
X163369086Y-112814832D01*
X163470277Y-112882446D01*
X163470278Y-112882447D01*
X163830000Y-112954000D01*
X163906000Y-112954000D01*
X163906000Y-118110000D01*
X163965681Y-118410041D01*
X163977553Y-118469723D01*
X164181320Y-118774680D01*
X165949199Y-120542560D01*
X164983000Y-120542560D01*
X164740877Y-120589537D01*
X164528073Y-120729327D01*
X164385623Y-120940360D01*
X164335560Y-121190000D01*
X164335560Y-122690000D01*
X164382537Y-122932123D01*
X164522327Y-123144927D01*
X164586637Y-123188337D01*
X164444673Y-123330302D01*
X164348000Y-123563691D01*
X164348000Y-124154250D01*
X164506750Y-124313000D01*
X165481000Y-124313000D01*
X165481000Y-124293000D01*
X165735000Y-124293000D01*
X165735000Y-124313000D01*
X166709250Y-124313000D01*
X166868000Y-124154250D01*
X166868000Y-123563691D01*
X166771327Y-123330302D01*
X166629849Y-123188823D01*
X166687927Y-123150673D01*
X166830377Y-122939640D01*
X166842337Y-122880000D01*
X167874000Y-122880000D01*
X167874000Y-122879999D01*
X167912731Y-122872295D01*
X167912735Y-122872295D01*
X168386935Y-122872709D01*
X168830535Y-122689418D01*
X169170225Y-122350320D01*
X169354290Y-121907041D01*
X169354709Y-121427065D01*
X169354709Y-128315000D01*
X166868000Y-128315000D01*
X166868000Y-125316309D01*
X166868000Y-124725750D01*
X166709250Y-124567000D01*
X165735000Y-124567000D01*
X165735000Y-125666250D01*
X165893750Y-125825000D01*
X166106691Y-125825000D01*
X166359310Y-125825000D01*
X166592699Y-125728327D01*
X166771327Y-125549698D01*
X166868000Y-125316309D01*
X166868000Y-128315000D01*
X165481000Y-128315000D01*
X165481000Y-125666250D01*
X165481000Y-124567000D01*
X164506750Y-124567000D01*
X164348000Y-124725750D01*
X164348000Y-125316309D01*
X164444673Y-125549698D01*
X164623301Y-125728327D01*
X164856690Y-125825000D01*
X165109309Y-125825000D01*
X165322250Y-125825000D01*
X165481000Y-125666250D01*
X165481000Y-128315000D01*
X159845326Y-128315000D01*
X159845326Y-80090695D01*
X159558957Y-79397628D01*
X159029161Y-78866907D01*
X158336595Y-78579328D01*
X157586695Y-78578674D01*
X156893628Y-78865043D01*
X156362907Y-79394839D01*
X156075328Y-80087405D01*
X156074674Y-80837305D01*
X156361043Y-81530372D01*
X156890839Y-82061093D01*
X157583405Y-82348672D01*
X158333305Y-82349326D01*
X159026372Y-82062957D01*
X159557093Y-81533161D01*
X159844672Y-80840595D01*
X159845326Y-80090695D01*
X159845326Y-128315000D01*
X156657214Y-128315000D01*
X156657214Y-121165421D01*
X156657214Y-106941421D01*
X156469592Y-106487343D01*
X156122485Y-106139629D01*
X155668734Y-105951215D01*
X155177421Y-105950786D01*
X154723343Y-106138408D01*
X154375629Y-106485515D01*
X154187215Y-106939266D01*
X154186786Y-107430579D01*
X154374408Y-107884657D01*
X154721515Y-108232371D01*
X155175266Y-108420785D01*
X155666579Y-108421214D01*
X156120657Y-108233592D01*
X156468371Y-107886485D01*
X156656785Y-107432734D01*
X156657214Y-106941421D01*
X156657214Y-121165421D01*
X156469592Y-120711343D01*
X156122485Y-120363629D01*
X155668734Y-120175215D01*
X155177421Y-120174786D01*
X154723343Y-120362408D01*
X154375629Y-120709515D01*
X154187215Y-121163266D01*
X154186786Y-121654579D01*
X154374408Y-122108657D01*
X154721515Y-122456371D01*
X155175266Y-122644785D01*
X155666579Y-122645214D01*
X156120657Y-122457592D01*
X156468371Y-122110485D01*
X156656785Y-121656734D01*
X156657214Y-121165421D01*
X156657214Y-128315000D01*
X154129807Y-128315000D01*
X154129807Y-119038964D01*
X154129807Y-104814964D01*
X154099482Y-104324587D01*
X153970164Y-104012383D01*
X153744735Y-103962870D01*
X153565130Y-104142475D01*
X153565130Y-103783265D01*
X153515617Y-103557836D01*
X153050964Y-103398193D01*
X152560587Y-103428518D01*
X152248383Y-103557836D01*
X152198870Y-103783265D01*
X152882000Y-104466395D01*
X153565130Y-103783265D01*
X153565130Y-104142475D01*
X153061605Y-104646000D01*
X153744735Y-105329130D01*
X153970164Y-105279617D01*
X154129807Y-104814964D01*
X154129807Y-119038964D01*
X154117214Y-118835326D01*
X154117214Y-109481421D01*
X153929592Y-109027343D01*
X153582485Y-108679629D01*
X153565130Y-108672422D01*
X153565130Y-105508735D01*
X152882000Y-104825605D01*
X152702395Y-105005210D01*
X152702395Y-104646000D01*
X152019265Y-103962870D01*
X151793836Y-104012383D01*
X151634193Y-104477036D01*
X151664518Y-104967413D01*
X151793836Y-105279617D01*
X152019265Y-105329130D01*
X152702395Y-104646000D01*
X152702395Y-105005210D01*
X152198870Y-105508735D01*
X152248383Y-105734164D01*
X152713036Y-105893807D01*
X153203413Y-105863482D01*
X153515617Y-105734164D01*
X153565130Y-105508735D01*
X153565130Y-108672422D01*
X153128734Y-108491215D01*
X152637421Y-108490786D01*
X152183343Y-108678408D01*
X151835629Y-109025515D01*
X151647215Y-109479266D01*
X151646786Y-109970579D01*
X151834408Y-110424657D01*
X152181515Y-110772371D01*
X152635266Y-110960785D01*
X153126579Y-110961214D01*
X153580657Y-110773592D01*
X153928371Y-110426485D01*
X154116785Y-109972734D01*
X154117214Y-109481421D01*
X154117214Y-118835326D01*
X154099482Y-118548587D01*
X153970164Y-118236383D01*
X153744735Y-118186870D01*
X153565130Y-118366475D01*
X153565130Y-118007265D01*
X153515617Y-117781836D01*
X153050964Y-117622193D01*
X152560587Y-117652518D01*
X152248383Y-117781836D01*
X152198870Y-118007265D01*
X152882000Y-118690395D01*
X153565130Y-118007265D01*
X153565130Y-118366475D01*
X153061605Y-118870000D01*
X153744735Y-119553130D01*
X153970164Y-119503617D01*
X154129807Y-119038964D01*
X154129807Y-128315000D01*
X154117214Y-128315000D01*
X154117214Y-123705421D01*
X153929592Y-123251343D01*
X153582485Y-122903629D01*
X153565130Y-122896422D01*
X153565130Y-119732735D01*
X152882000Y-119049605D01*
X152702395Y-119229210D01*
X152702395Y-118870000D01*
X152019265Y-118186870D01*
X151793836Y-118236383D01*
X151634193Y-118701036D01*
X151664518Y-119191413D01*
X151793836Y-119503617D01*
X152019265Y-119553130D01*
X152702395Y-118870000D01*
X152702395Y-119229210D01*
X152198870Y-119732735D01*
X152248383Y-119958164D01*
X152713036Y-120117807D01*
X153203413Y-120087482D01*
X153515617Y-119958164D01*
X153565130Y-119732735D01*
X153565130Y-122896422D01*
X153128734Y-122715215D01*
X152637421Y-122714786D01*
X152183343Y-122902408D01*
X151835629Y-123249515D01*
X151647215Y-123703266D01*
X151646786Y-124194579D01*
X151834408Y-124648657D01*
X152181515Y-124996371D01*
X152635266Y-125184785D01*
X153126579Y-125185214D01*
X153580657Y-124997592D01*
X153928371Y-124650485D01*
X154116785Y-124196734D01*
X154117214Y-123705421D01*
X154117214Y-128315000D01*
X150037000Y-128315000D01*
X150037000Y-68249000D01*
X191339000Y-68249000D01*
X191339000Y-128315000D01*
X191339000Y-128315000D01*
G37*
X191339000Y-128315000D02*
X189642066Y-128315000D01*
X189642066Y-107936120D01*
X189642066Y-101586120D01*
X189633335Y-101238996D01*
X189633335Y-95786793D01*
X189339370Y-95075342D01*
X188795521Y-94530543D01*
X188084584Y-94235337D01*
X187314793Y-94234665D01*
X186603342Y-94528630D01*
X186058543Y-95072479D01*
X185763337Y-95783416D01*
X185762665Y-96553207D01*
X186056630Y-97264658D01*
X186600479Y-97809457D01*
X187311416Y-98104663D01*
X188081207Y-98105335D01*
X188792658Y-97811370D01*
X189337457Y-97267521D01*
X189632663Y-96556584D01*
X189633335Y-95786793D01*
X189633335Y-101238996D01*
X189622710Y-100816573D01*
X189365455Y-100195504D01*
X189067459Y-100060146D01*
X188887854Y-100239751D01*
X188887854Y-99880541D01*
X188752496Y-99582545D01*
X188034120Y-99305934D01*
X187264573Y-99325290D01*
X186643504Y-99582545D01*
X186508146Y-99880541D01*
X187698000Y-101070395D01*
X188887854Y-99880541D01*
X188887854Y-100239751D01*
X187877605Y-101250000D01*
X189067459Y-102439854D01*
X189365455Y-102304496D01*
X189642066Y-101586120D01*
X189642066Y-107936120D01*
X189622710Y-107166573D01*
X189365455Y-106545504D01*
X189067459Y-106410146D01*
X188887854Y-106589751D01*
X188887854Y-106230541D01*
X188887854Y-102619459D01*
X187698000Y-101429605D01*
X187518395Y-101609210D01*
X187518395Y-101250000D01*
X186328541Y-100060146D01*
X186030545Y-100195504D01*
X185753934Y-100913880D01*
X185773290Y-101683427D01*
X186030545Y-102304496D01*
X186328541Y-102439854D01*
X187518395Y-101250000D01*
X187518395Y-101609210D01*
X186508146Y-102619459D01*
X186643504Y-102917455D01*
X187361880Y-103194066D01*
X188131427Y-103174710D01*
X188752496Y-102917455D01*
X188887854Y-102619459D01*
X188887854Y-106230541D01*
X188752496Y-105932545D01*
X188034120Y-105655934D01*
X187264573Y-105675290D01*
X186643504Y-105932545D01*
X186508146Y-106230541D01*
X187698000Y-107420395D01*
X188887854Y-106230541D01*
X188887854Y-106589751D01*
X187877605Y-107600000D01*
X189067459Y-108789854D01*
X189365455Y-108654496D01*
X189642066Y-107936120D01*
X189642066Y-128315000D01*
X189633335Y-128315000D01*
X189633335Y-112296793D01*
X189339370Y-111585342D01*
X188887854Y-111133037D01*
X188887854Y-108969459D01*
X187698000Y-107779605D01*
X187518395Y-107959210D01*
X187518395Y-107600000D01*
X186328541Y-106410146D01*
X186030545Y-106545504D01*
X185753934Y-107263880D01*
X185773290Y-108033427D01*
X186030545Y-108654496D01*
X186328541Y-108789854D01*
X187518395Y-107600000D01*
X187518395Y-107959210D01*
X186508146Y-108969459D01*
X186643504Y-109267455D01*
X187361880Y-109544066D01*
X188131427Y-109524710D01*
X188752496Y-109267455D01*
X188887854Y-108969459D01*
X188887854Y-111133037D01*
X188795521Y-111040543D01*
X188084584Y-110745337D01*
X187314793Y-110744665D01*
X186603342Y-111038630D01*
X186058543Y-111582479D01*
X185763337Y-112293416D01*
X185762665Y-113063207D01*
X186056630Y-113774658D01*
X186600479Y-114319457D01*
X187311416Y-114614663D01*
X188081207Y-114615335D01*
X188792658Y-114321370D01*
X189337457Y-113777521D01*
X189632663Y-113066584D01*
X189633335Y-112296793D01*
X189633335Y-128315000D01*
X185991687Y-128315000D01*
X185991687Y-125008216D01*
X185827689Y-124611311D01*
X185524286Y-124307378D01*
X185245326Y-124191543D01*
X185245326Y-80090695D01*
X184958957Y-79397628D01*
X184429161Y-78866907D01*
X183736595Y-78579328D01*
X182986695Y-78578674D01*
X182293628Y-78865043D01*
X181762907Y-79394839D01*
X181475328Y-80087405D01*
X181474674Y-80837305D01*
X181761043Y-81530372D01*
X182290839Y-82061093D01*
X182983405Y-82348672D01*
X183733305Y-82349326D01*
X184426372Y-82062957D01*
X184957093Y-81533161D01*
X185244672Y-80840595D01*
X185245326Y-80090695D01*
X185245326Y-124191543D01*
X185127668Y-124142687D01*
X184698216Y-124142313D01*
X184498347Y-124224897D01*
X184394673Y-124067073D01*
X184183640Y-123924623D01*
X183934000Y-123874560D01*
X182434000Y-123874560D01*
X182277345Y-123904954D01*
X182277345Y-108204000D01*
X182163271Y-107630511D01*
X181838415Y-107144330D01*
X181523634Y-106934000D01*
X181838415Y-106723670D01*
X182163271Y-106237489D01*
X182277345Y-105664000D01*
X182163271Y-105090511D01*
X181838415Y-104604330D01*
X181822632Y-104593784D01*
X181852123Y-104588063D01*
X182064927Y-104448273D01*
X182207377Y-104237240D01*
X182257440Y-103987600D01*
X182257440Y-102260400D01*
X182210463Y-102018277D01*
X182070673Y-101805473D01*
X181859640Y-101663023D01*
X181610000Y-101612960D01*
X179925401Y-101612960D01*
X179925401Y-94944418D01*
X179901341Y-94294623D01*
X179698965Y-93806042D01*
X179432163Y-93707443D01*
X179252557Y-93887048D01*
X179252557Y-93527837D01*
X179153958Y-93261035D01*
X178544418Y-93034599D01*
X177927000Y-93057460D01*
X177927000Y-90297000D01*
X177927000Y-86487000D01*
X174613570Y-86487000D01*
X174613570Y-84954110D01*
X174613570Y-84455000D01*
X174613570Y-84201000D01*
X174613570Y-83701890D01*
X174459499Y-83181323D01*
X174117944Y-82759342D01*
X173640903Y-82500190D01*
X173569275Y-82486007D01*
X173355000Y-82608661D01*
X173355000Y-84201000D01*
X174613570Y-84201000D01*
X174613570Y-84455000D01*
X173355000Y-84455000D01*
X173355000Y-86047339D01*
X173569275Y-86169993D01*
X173640903Y-86155810D01*
X174117944Y-85896658D01*
X174459499Y-85474677D01*
X174613570Y-84954110D01*
X174613570Y-86487000D01*
X173101000Y-86487000D01*
X173101000Y-86047339D01*
X173101000Y-84455000D01*
X173081000Y-84455000D01*
X173081000Y-84201000D01*
X173101000Y-84201000D01*
X173101000Y-82608661D01*
X172886725Y-82486007D01*
X172815097Y-82500190D01*
X172338056Y-82759342D01*
X171996501Y-83181323D01*
X171969949Y-83271032D01*
X171968100Y-83261732D01*
X171667746Y-82812221D01*
X171218235Y-82511867D01*
X170688000Y-82406397D01*
X170157765Y-82511867D01*
X169708254Y-82812221D01*
X169418000Y-83246616D01*
X169127746Y-82812221D01*
X168678235Y-82511867D01*
X168148000Y-82406397D01*
X167617765Y-82511867D01*
X167168254Y-82812221D01*
X166867900Y-83261732D01*
X166762430Y-83791967D01*
X166762430Y-84864033D01*
X166867900Y-85394268D01*
X167168254Y-85843779D01*
X167617765Y-86144133D01*
X168148000Y-86249603D01*
X168678235Y-86144133D01*
X169127746Y-85843779D01*
X169418000Y-85409383D01*
X169708254Y-85843779D01*
X170157765Y-86144133D01*
X170688000Y-86249603D01*
X171218235Y-86144133D01*
X171667746Y-85843779D01*
X171968100Y-85394268D01*
X171969949Y-85384967D01*
X171996501Y-85474677D01*
X172338056Y-85896658D01*
X172815097Y-86155810D01*
X172886725Y-86169993D01*
X173101000Y-86047339D01*
X173101000Y-86487000D01*
X171323000Y-86487000D01*
X171323000Y-90112351D01*
X170974345Y-90043000D01*
X170909655Y-90043000D01*
X170277845Y-90168675D01*
X169742222Y-90526567D01*
X169384330Y-91062190D01*
X169258655Y-91694000D01*
X169384330Y-92325810D01*
X169742222Y-92861433D01*
X170277845Y-93219325D01*
X170909655Y-93345000D01*
X170974345Y-93345000D01*
X171606155Y-93219325D01*
X171908398Y-93017372D01*
X172005327Y-93164927D01*
X172216360Y-93307377D01*
X172466000Y-93357440D01*
X174498000Y-93357440D01*
X174740123Y-93310463D01*
X174952927Y-93170673D01*
X175095377Y-92959640D01*
X175145440Y-92710000D01*
X175145440Y-90678000D01*
X175098463Y-90435877D01*
X175007235Y-90297000D01*
X177927000Y-90297000D01*
X177927000Y-93057460D01*
X177894623Y-93058659D01*
X177406042Y-93261035D01*
X177307443Y-93527837D01*
X178280000Y-94500395D01*
X179252557Y-93527837D01*
X179252557Y-93887048D01*
X178459605Y-94680000D01*
X179432163Y-95652557D01*
X179698965Y-95553958D01*
X179925401Y-94944418D01*
X179925401Y-101612960D01*
X179578000Y-101612960D01*
X179335877Y-101659937D01*
X179252557Y-101714669D01*
X179252557Y-95832163D01*
X178280000Y-94859605D01*
X178100395Y-95039210D01*
X178100395Y-94680000D01*
X177127837Y-93707443D01*
X176861035Y-93806042D01*
X176634599Y-94415582D01*
X176658659Y-95065377D01*
X176861035Y-95553958D01*
X177127837Y-95652557D01*
X178100395Y-94680000D01*
X178100395Y-95039210D01*
X177307443Y-95832163D01*
X177406042Y-96098965D01*
X178015582Y-96325401D01*
X178665377Y-96301341D01*
X179153958Y-96098965D01*
X179252557Y-95832163D01*
X179252557Y-101714669D01*
X179123073Y-101799727D01*
X178980623Y-102010760D01*
X178930560Y-102260400D01*
X178930560Y-103987600D01*
X178977537Y-104229723D01*
X179117327Y-104442527D01*
X179328360Y-104584977D01*
X179366962Y-104592718D01*
X179349585Y-104604330D01*
X179024729Y-105090511D01*
X178910655Y-105664000D01*
X179024729Y-106237489D01*
X179349585Y-106723670D01*
X179664365Y-106934000D01*
X179349585Y-107144330D01*
X179024729Y-107630511D01*
X178910655Y-108204000D01*
X179024729Y-108777489D01*
X179349585Y-109263670D01*
X179835766Y-109588526D01*
X180409255Y-109702600D01*
X180778745Y-109702600D01*
X181352234Y-109588526D01*
X181838415Y-109263670D01*
X182163271Y-108777489D01*
X182277345Y-108204000D01*
X182277345Y-123904954D01*
X182191877Y-123921537D01*
X181979073Y-124061327D01*
X181836623Y-124272360D01*
X181830520Y-124302791D01*
X181772327Y-124162301D01*
X181593698Y-123983673D01*
X181360309Y-123887000D01*
X181209000Y-123887000D01*
X181209000Y-121593310D01*
X181209000Y-121340691D01*
X181209000Y-121127750D01*
X181209000Y-120556250D01*
X181209000Y-120343309D01*
X181209000Y-120090690D01*
X181112327Y-119857301D01*
X180933698Y-119678673D01*
X180700309Y-119582000D01*
X180109750Y-119582000D01*
X179951000Y-119740750D01*
X179951000Y-120715000D01*
X181050250Y-120715000D01*
X181209000Y-120556250D01*
X181209000Y-121127750D01*
X181050250Y-120969000D01*
X179951000Y-120969000D01*
X179951000Y-121943250D01*
X180109750Y-122102000D01*
X180700309Y-122102000D01*
X180933698Y-122005327D01*
X181112327Y-121826699D01*
X181209000Y-121593310D01*
X181209000Y-123887000D01*
X180769750Y-123887000D01*
X180611000Y-124045750D01*
X180611000Y-125045000D01*
X180631000Y-125045000D01*
X180631000Y-125299000D01*
X180611000Y-125299000D01*
X180611000Y-126298250D01*
X180769750Y-126457000D01*
X181360309Y-126457000D01*
X181593698Y-126360327D01*
X181772327Y-126181699D01*
X181829546Y-126043557D01*
X181833537Y-126064123D01*
X181973327Y-126276927D01*
X182184360Y-126419377D01*
X182434000Y-126469440D01*
X183934000Y-126469440D01*
X184176123Y-126422463D01*
X184388927Y-126282673D01*
X184446398Y-126197531D01*
X184696332Y-126301313D01*
X185125784Y-126301687D01*
X185522689Y-126137689D01*
X185826622Y-125834286D01*
X185991313Y-125437668D01*
X185991687Y-125008216D01*
X185991687Y-128315000D01*
X180357000Y-128315000D01*
X180357000Y-126298250D01*
X180357000Y-125299000D01*
X180357000Y-125045000D01*
X180357000Y-124045750D01*
X180198250Y-123887000D01*
X179697000Y-123887000D01*
X179697000Y-121943250D01*
X179697000Y-120969000D01*
X179677000Y-120969000D01*
X179677000Y-120715000D01*
X179697000Y-120715000D01*
X179697000Y-119740750D01*
X179538250Y-119582000D01*
X178947691Y-119582000D01*
X178714302Y-119678673D01*
X178572823Y-119820150D01*
X178534673Y-119762073D01*
X178431725Y-119692581D01*
X178568225Y-119556320D01*
X178752290Y-119113041D01*
X178752709Y-118633065D01*
X178569418Y-118189465D01*
X178230320Y-117849775D01*
X177787041Y-117665710D01*
X177307065Y-117665291D01*
X176863465Y-117848582D01*
X176523775Y-118187680D01*
X176339710Y-118630959D01*
X176339291Y-119110935D01*
X176384000Y-119219139D01*
X176384000Y-119606424D01*
X176331877Y-119616537D01*
X176119073Y-119756327D01*
X175976623Y-119967360D01*
X175926560Y-120217000D01*
X175926560Y-121467000D01*
X175973537Y-121709123D01*
X176113327Y-121921927D01*
X176324360Y-122064377D01*
X176574000Y-122114440D01*
X178074000Y-122114440D01*
X178316123Y-122067463D01*
X178528927Y-121927673D01*
X178572337Y-121863362D01*
X178714302Y-122005327D01*
X178947691Y-122102000D01*
X179538250Y-122102000D01*
X179697000Y-121943250D01*
X179697000Y-123887000D01*
X179607691Y-123887000D01*
X179374302Y-123983673D01*
X179195673Y-124162301D01*
X179099000Y-124395690D01*
X179099000Y-124648309D01*
X179099000Y-124886250D01*
X179257750Y-125045000D01*
X180357000Y-125045000D01*
X180357000Y-125299000D01*
X179257750Y-125299000D01*
X179099000Y-125457750D01*
X179099000Y-125695691D01*
X179099000Y-125948310D01*
X179195673Y-126181699D01*
X179374302Y-126360327D01*
X179607691Y-126457000D01*
X180198250Y-126457000D01*
X180357000Y-126298250D01*
X180357000Y-128315000D01*
X178899579Y-128315000D01*
X178990535Y-128277418D01*
X179330225Y-127938320D01*
X179514290Y-127495041D01*
X179514709Y-127015065D01*
X179331418Y-126571465D01*
X178992320Y-126231775D01*
X178549041Y-126047710D01*
X178430967Y-126047606D01*
X178161440Y-125778079D01*
X178161440Y-124597000D01*
X178114463Y-124354877D01*
X177974673Y-124142073D01*
X177763640Y-123999623D01*
X177514000Y-123949560D01*
X176014000Y-123949560D01*
X175771877Y-123996537D01*
X175559073Y-124136327D01*
X175515662Y-124200637D01*
X175373698Y-124058673D01*
X175140309Y-123962000D01*
X174549750Y-123962000D01*
X174391000Y-124120750D01*
X174391000Y-125095000D01*
X174411000Y-125095000D01*
X174411000Y-125349000D01*
X174391000Y-125349000D01*
X174391000Y-126323250D01*
X174549750Y-126482000D01*
X175140309Y-126482000D01*
X175373698Y-126385327D01*
X175515176Y-126243849D01*
X175553327Y-126301927D01*
X175764360Y-126444377D01*
X176014000Y-126494440D01*
X176219079Y-126494440D01*
X177101392Y-127376753D01*
X177101291Y-127492935D01*
X177284582Y-127936535D01*
X177623680Y-128276225D01*
X177717060Y-128315000D01*
X174137000Y-128315000D01*
X174137000Y-126323250D01*
X174137000Y-125349000D01*
X174137000Y-125095000D01*
X174137000Y-124120750D01*
X173978250Y-123962000D01*
X173387691Y-123962000D01*
X173154302Y-124058673D01*
X172975673Y-124237301D01*
X172879000Y-124470690D01*
X172879000Y-124723309D01*
X172879000Y-124936250D01*
X173037750Y-125095000D01*
X174137000Y-125095000D01*
X174137000Y-125349000D01*
X173037750Y-125349000D01*
X172879000Y-125507750D01*
X172879000Y-125720691D01*
X172879000Y-125973310D01*
X172975673Y-126206699D01*
X173154302Y-126385327D01*
X173387691Y-126482000D01*
X173978250Y-126482000D01*
X174137000Y-126323250D01*
X174137000Y-128315000D01*
X169354709Y-128315000D01*
X169354709Y-121427065D01*
X169171418Y-120983465D01*
X168832320Y-120643775D01*
X168621664Y-120556303D01*
X165786000Y-117720639D01*
X165786000Y-112014000D01*
X165714447Y-111654278D01*
X165510680Y-111349320D01*
X165205722Y-111145553D01*
X164925401Y-111089793D01*
X164925401Y-94944418D01*
X164901341Y-94294623D01*
X164698965Y-93806042D01*
X164432163Y-93707443D01*
X164252557Y-93887048D01*
X164252557Y-93527837D01*
X164153958Y-93261035D01*
X163544418Y-93034599D01*
X162894623Y-93058659D01*
X162406042Y-93261035D01*
X162307443Y-93527837D01*
X163280000Y-94500395D01*
X164252557Y-93527837D01*
X164252557Y-93887048D01*
X163459605Y-94680000D01*
X164432163Y-95652557D01*
X164698965Y-95553958D01*
X164925401Y-94944418D01*
X164925401Y-111089793D01*
X164846000Y-111074000D01*
X164252557Y-111074000D01*
X164252557Y-95832163D01*
X163280000Y-94859605D01*
X163100395Y-95039210D01*
X163100395Y-94680000D01*
X162127837Y-93707443D01*
X161861035Y-93806042D01*
X161634599Y-94415582D01*
X161658659Y-95065377D01*
X161861035Y-95553958D01*
X162127837Y-95652557D01*
X163100395Y-94680000D01*
X163100395Y-95039210D01*
X162307443Y-95832163D01*
X162406042Y-96098965D01*
X163015582Y-96325401D01*
X163665377Y-96301341D01*
X164153958Y-96098965D01*
X164252557Y-95832163D01*
X164252557Y-111074000D01*
X164219360Y-111074000D01*
X162230000Y-109084639D01*
X162230000Y-108462401D01*
X162312225Y-108380320D01*
X162496290Y-107937041D01*
X162496709Y-107457065D01*
X162313418Y-107013465D01*
X162230000Y-106929901D01*
X162230000Y-106692590D01*
X162369927Y-106600673D01*
X162512377Y-106389640D01*
X162562440Y-106140000D01*
X162562440Y-104640000D01*
X162515463Y-104397877D01*
X162375673Y-104185073D01*
X162311362Y-104141662D01*
X162453327Y-103999698D01*
X162550000Y-103766309D01*
X162550000Y-103175750D01*
X162550000Y-102604250D01*
X162550000Y-102013691D01*
X162453327Y-101780302D01*
X162274699Y-101601673D01*
X162041310Y-101505000D01*
X161788691Y-101505000D01*
X161575750Y-101505000D01*
X161417000Y-101663750D01*
X161417000Y-102763000D01*
X162391250Y-102763000D01*
X162550000Y-102604250D01*
X162550000Y-103175750D01*
X162391250Y-103017000D01*
X161417000Y-103017000D01*
X161417000Y-103037000D01*
X161163000Y-103037000D01*
X161163000Y-103017000D01*
X161163000Y-102763000D01*
X161163000Y-101663750D01*
X161004250Y-101505000D01*
X160791309Y-101505000D01*
X160538690Y-101505000D01*
X160305301Y-101601673D01*
X160126673Y-101780302D01*
X160030000Y-102013691D01*
X160030000Y-102604250D01*
X160188750Y-102763000D01*
X161163000Y-102763000D01*
X161163000Y-103017000D01*
X160188750Y-103017000D01*
X160030000Y-103175750D01*
X160030000Y-103766309D01*
X160126673Y-103999698D01*
X160268150Y-104141176D01*
X160210073Y-104179327D01*
X160067623Y-104390360D01*
X160017560Y-104640000D01*
X160017560Y-106140000D01*
X160064537Y-106382123D01*
X160204327Y-106594927D01*
X160350000Y-106693258D01*
X160350000Y-106929598D01*
X160267775Y-107011680D01*
X160083710Y-107454959D01*
X160083291Y-107934935D01*
X160266582Y-108378535D01*
X160350000Y-108462098D01*
X160350000Y-109474000D01*
X160409681Y-109774041D01*
X160421553Y-109833723D01*
X160625320Y-110138680D01*
X163165319Y-112678680D01*
X163165320Y-112678680D01*
X163369086Y-112814832D01*
X163470277Y-112882446D01*
X163470278Y-112882447D01*
X163830000Y-112954000D01*
X163906000Y-112954000D01*
X163906000Y-118110000D01*
X163965681Y-118410041D01*
X163977553Y-118469723D01*
X164181320Y-118774680D01*
X165949199Y-120542560D01*
X164983000Y-120542560D01*
X164740877Y-120589537D01*
X164528073Y-120729327D01*
X164385623Y-120940360D01*
X164335560Y-121190000D01*
X164335560Y-122690000D01*
X164382537Y-122932123D01*
X164522327Y-123144927D01*
X164586637Y-123188337D01*
X164444673Y-123330302D01*
X164348000Y-123563691D01*
X164348000Y-124154250D01*
X164506750Y-124313000D01*
X165481000Y-124313000D01*
X165481000Y-124293000D01*
X165735000Y-124293000D01*
X165735000Y-124313000D01*
X166709250Y-124313000D01*
X166868000Y-124154250D01*
X166868000Y-123563691D01*
X166771327Y-123330302D01*
X166629849Y-123188823D01*
X166687927Y-123150673D01*
X166830377Y-122939640D01*
X166842337Y-122880000D01*
X167874000Y-122880000D01*
X167874000Y-122879999D01*
X167912731Y-122872295D01*
X167912735Y-122872295D01*
X168386935Y-122872709D01*
X168830535Y-122689418D01*
X169170225Y-122350320D01*
X169354290Y-121907041D01*
X169354709Y-121427065D01*
X169354709Y-128315000D01*
X166868000Y-128315000D01*
X166868000Y-125316309D01*
X166868000Y-124725750D01*
X166709250Y-124567000D01*
X165735000Y-124567000D01*
X165735000Y-125666250D01*
X165893750Y-125825000D01*
X166106691Y-125825000D01*
X166359310Y-125825000D01*
X166592699Y-125728327D01*
X166771327Y-125549698D01*
X166868000Y-125316309D01*
X166868000Y-128315000D01*
X165481000Y-128315000D01*
X165481000Y-125666250D01*
X165481000Y-124567000D01*
X164506750Y-124567000D01*
X164348000Y-124725750D01*
X164348000Y-125316309D01*
X164444673Y-125549698D01*
X164623301Y-125728327D01*
X164856690Y-125825000D01*
X165109309Y-125825000D01*
X165322250Y-125825000D01*
X165481000Y-125666250D01*
X165481000Y-128315000D01*
X159845326Y-128315000D01*
X159845326Y-80090695D01*
X159558957Y-79397628D01*
X159029161Y-78866907D01*
X158336595Y-78579328D01*
X157586695Y-78578674D01*
X156893628Y-78865043D01*
X156362907Y-79394839D01*
X156075328Y-80087405D01*
X156074674Y-80837305D01*
X156361043Y-81530372D01*
X156890839Y-82061093D01*
X157583405Y-82348672D01*
X158333305Y-82349326D01*
X159026372Y-82062957D01*
X159557093Y-81533161D01*
X159844672Y-80840595D01*
X159845326Y-80090695D01*
X159845326Y-128315000D01*
X156657214Y-128315000D01*
X156657214Y-121165421D01*
X156657214Y-106941421D01*
X156469592Y-106487343D01*
X156122485Y-106139629D01*
X155668734Y-105951215D01*
X155177421Y-105950786D01*
X154723343Y-106138408D01*
X154375629Y-106485515D01*
X154187215Y-106939266D01*
X154186786Y-107430579D01*
X154374408Y-107884657D01*
X154721515Y-108232371D01*
X155175266Y-108420785D01*
X155666579Y-108421214D01*
X156120657Y-108233592D01*
X156468371Y-107886485D01*
X156656785Y-107432734D01*
X156657214Y-106941421D01*
X156657214Y-121165421D01*
X156469592Y-120711343D01*
X156122485Y-120363629D01*
X155668734Y-120175215D01*
X155177421Y-120174786D01*
X154723343Y-120362408D01*
X154375629Y-120709515D01*
X154187215Y-121163266D01*
X154186786Y-121654579D01*
X154374408Y-122108657D01*
X154721515Y-122456371D01*
X155175266Y-122644785D01*
X155666579Y-122645214D01*
X156120657Y-122457592D01*
X156468371Y-122110485D01*
X156656785Y-121656734D01*
X156657214Y-121165421D01*
X156657214Y-128315000D01*
X154129807Y-128315000D01*
X154129807Y-119038964D01*
X154129807Y-104814964D01*
X154099482Y-104324587D01*
X153970164Y-104012383D01*
X153744735Y-103962870D01*
X153565130Y-104142475D01*
X153565130Y-103783265D01*
X153515617Y-103557836D01*
X153050964Y-103398193D01*
X152560587Y-103428518D01*
X152248383Y-103557836D01*
X152198870Y-103783265D01*
X152882000Y-104466395D01*
X153565130Y-103783265D01*
X153565130Y-104142475D01*
X153061605Y-104646000D01*
X153744735Y-105329130D01*
X153970164Y-105279617D01*
X154129807Y-104814964D01*
X154129807Y-119038964D01*
X154117214Y-118835326D01*
X154117214Y-109481421D01*
X153929592Y-109027343D01*
X153582485Y-108679629D01*
X153565130Y-108672422D01*
X153565130Y-105508735D01*
X152882000Y-104825605D01*
X152702395Y-105005210D01*
X152702395Y-104646000D01*
X152019265Y-103962870D01*
X151793836Y-104012383D01*
X151634193Y-104477036D01*
X151664518Y-104967413D01*
X151793836Y-105279617D01*
X152019265Y-105329130D01*
X152702395Y-104646000D01*
X152702395Y-105005210D01*
X152198870Y-105508735D01*
X152248383Y-105734164D01*
X152713036Y-105893807D01*
X153203413Y-105863482D01*
X153515617Y-105734164D01*
X153565130Y-105508735D01*
X153565130Y-108672422D01*
X153128734Y-108491215D01*
X152637421Y-108490786D01*
X152183343Y-108678408D01*
X151835629Y-109025515D01*
X151647215Y-109479266D01*
X151646786Y-109970579D01*
X151834408Y-110424657D01*
X152181515Y-110772371D01*
X152635266Y-110960785D01*
X153126579Y-110961214D01*
X153580657Y-110773592D01*
X153928371Y-110426485D01*
X154116785Y-109972734D01*
X154117214Y-109481421D01*
X154117214Y-118835326D01*
X154099482Y-118548587D01*
X153970164Y-118236383D01*
X153744735Y-118186870D01*
X153565130Y-118366475D01*
X153565130Y-118007265D01*
X153515617Y-117781836D01*
X153050964Y-117622193D01*
X152560587Y-117652518D01*
X152248383Y-117781836D01*
X152198870Y-118007265D01*
X152882000Y-118690395D01*
X153565130Y-118007265D01*
X153565130Y-118366475D01*
X153061605Y-118870000D01*
X153744735Y-119553130D01*
X153970164Y-119503617D01*
X154129807Y-119038964D01*
X154129807Y-128315000D01*
X154117214Y-128315000D01*
X154117214Y-123705421D01*
X153929592Y-123251343D01*
X153582485Y-122903629D01*
X153565130Y-122896422D01*
X153565130Y-119732735D01*
X152882000Y-119049605D01*
X152702395Y-119229210D01*
X152702395Y-118870000D01*
X152019265Y-118186870D01*
X151793836Y-118236383D01*
X151634193Y-118701036D01*
X151664518Y-119191413D01*
X151793836Y-119503617D01*
X152019265Y-119553130D01*
X152702395Y-118870000D01*
X152702395Y-119229210D01*
X152198870Y-119732735D01*
X152248383Y-119958164D01*
X152713036Y-120117807D01*
X153203413Y-120087482D01*
X153515617Y-119958164D01*
X153565130Y-119732735D01*
X153565130Y-122896422D01*
X153128734Y-122715215D01*
X152637421Y-122714786D01*
X152183343Y-122902408D01*
X151835629Y-123249515D01*
X151647215Y-123703266D01*
X151646786Y-124194579D01*
X151834408Y-124648657D01*
X152181515Y-124996371D01*
X152635266Y-125184785D01*
X153126579Y-125185214D01*
X153580657Y-124997592D01*
X153928371Y-124650485D01*
X154116785Y-124196734D01*
X154117214Y-123705421D01*
X154117214Y-128315000D01*
X150037000Y-128315000D01*
X150037000Y-68249000D01*
X191339000Y-68249000D01*
X191339000Y-128315000D01*
M02*
