M48
;DRILL file {kicad (2015-01-29 BZR 5396)-product} date 5/25/2015 5:42:51 PM
;FORMAT={2:4/ absolute / inch / suppress leading zeros}
FMAT,2
INCH,TZ
T1C0.013
T2C0.018
T3C0.032
T4C0.040
%
G90
G05
M72
T1
X40197Y-38217
X41827Y-35646
X43547Y-33752
X44583Y-36980
X45165Y-36224
X46945Y-34559
X48031Y-37764
X48437Y-37051
X48945Y-37079
X49921Y-34807
X50807Y-34594
X51260Y-37102
T2
X37717Y-34067
X37815Y-37945
X39114Y-34819
X39311Y-34063
X40154Y-39016
X41524Y-36280
X42965Y-36992
X43528Y-36917
X43571Y-36240
X43705Y-38807
X43713Y-34528
X47244Y-35669
X47295Y-38063
X49441Y-36102
X49465Y-38209
X55906Y-35791
T3
X38685Y-33988
X38752Y-37240
X39087Y-35465
X41319Y-35417
X46531Y-35106
X50465Y-38614
X51315Y-38421
X56488Y-36181
T4
X36283Y-35283
X36283Y-36283
X58303Y-34594
X58303Y-35594
X58303Y-36594
X58303Y-37594
X58303Y-38594
T0
M30
