G04 #@! TF.FileFunction,Copper,L2,Inr,Signal*
%FSLAX46Y46*%
G04 Gerber Fmt 4.6, Leading zero omitted, Abs format (unit mm)*
G04 Created by KiCad (PCBNEW (2015-01-29 BZR 5396)-product) date 5/25/2015 5:42:28 PM*
%MOMM*%
G01*
G04 APERTURE LIST*
%ADD10C,0.100000*%
%ADD11R,2.032000X2.032000*%
%ADD12O,2.032000X2.032000*%
%ADD13R,2.032000X1.727200*%
%ADD14O,2.032000X1.727200*%
%ADD15C,1.397000*%
%ADD16C,0.889000*%
%ADD17C,0.685800*%
%ADD18C,0.152400*%
G04 APERTURE END LIST*
D10*
D11*
X92160000Y-92160000D03*
D12*
X92160000Y-89620000D03*
D13*
X148090000Y-98030000D03*
D14*
X148090000Y-95490000D03*
X148090000Y-92950000D03*
X148090000Y-90410000D03*
X148090000Y-87870000D03*
D15*
X98430000Y-94590000D03*
X99280000Y-90080000D03*
X98260000Y-86330000D03*
X128180000Y-98080000D03*
X130340000Y-97590000D03*
X118190000Y-89170000D03*
X104950000Y-89960000D03*
X143480000Y-91900000D03*
D16*
X95800000Y-86530000D03*
X142000000Y-90910000D03*
X120130000Y-96680000D03*
X111030000Y-87700000D03*
X125580000Y-91700000D03*
X99850000Y-86520000D03*
X111010000Y-98570000D03*
X101990000Y-99100000D03*
X125640000Y-97050000D03*
X99350000Y-88440000D03*
D17*
X102100000Y-97070000D03*
X130200000Y-94240000D03*
X122000000Y-95920000D03*
X113240000Y-93930000D03*
X126800000Y-88410000D03*
X119240000Y-87780000D03*
X114720000Y-92010000D03*
X129050000Y-87870000D03*
X106240000Y-90540000D03*
X110610000Y-85730000D03*
D16*
X96050000Y-96380000D03*
X110560000Y-93770000D03*
X110670000Y-92050000D03*
X109130000Y-93960000D03*
X105470000Y-92150000D03*
X120000000Y-90600000D03*
D17*
X124320000Y-94180000D03*
X123030000Y-94110000D03*
D18*
G36*
X149619800Y-99619800D02*
X149462574Y-99619800D01*
X149462574Y-95490000D01*
X149462574Y-92950000D01*
X149462574Y-90410000D01*
X149462574Y-87870000D01*
X149371701Y-87413153D01*
X149112918Y-87025856D01*
X148725621Y-86767073D01*
X148268774Y-86676200D01*
X147911226Y-86676200D01*
X147454379Y-86767073D01*
X147067082Y-87025856D01*
X146808299Y-87413153D01*
X146717426Y-87870000D01*
X146808299Y-88326847D01*
X147067082Y-88714144D01*
X147454379Y-88972927D01*
X147911226Y-89063800D01*
X148268774Y-89063800D01*
X148725621Y-88972927D01*
X149112918Y-88714144D01*
X149371701Y-88326847D01*
X149462574Y-87870000D01*
X149462574Y-90410000D01*
X149371701Y-89953153D01*
X149112918Y-89565856D01*
X148725621Y-89307073D01*
X148268774Y-89216200D01*
X147911226Y-89216200D01*
X147454379Y-89307073D01*
X147067082Y-89565856D01*
X146808299Y-89953153D01*
X146717426Y-90410000D01*
X146808299Y-90866847D01*
X147067082Y-91254144D01*
X147454379Y-91512927D01*
X147911226Y-91603800D01*
X148268774Y-91603800D01*
X148725621Y-91512927D01*
X149112918Y-91254144D01*
X149371701Y-90866847D01*
X149462574Y-90410000D01*
X149462574Y-92950000D01*
X149371701Y-92493153D01*
X149112918Y-92105856D01*
X148725621Y-91847073D01*
X148268774Y-91756200D01*
X147911226Y-91756200D01*
X147454379Y-91847073D01*
X147067082Y-92105856D01*
X146808299Y-92493153D01*
X146717426Y-92950000D01*
X146808299Y-93406847D01*
X147067082Y-93794144D01*
X147454379Y-94052927D01*
X147911226Y-94143800D01*
X148268774Y-94143800D01*
X148725621Y-94052927D01*
X149112918Y-93794144D01*
X149371701Y-93406847D01*
X149462574Y-92950000D01*
X149462574Y-95490000D01*
X149371701Y-95033153D01*
X149112918Y-94645856D01*
X148725621Y-94387073D01*
X148268774Y-94296200D01*
X147911226Y-94296200D01*
X147454379Y-94387073D01*
X147067082Y-94645856D01*
X146808299Y-95033153D01*
X146717426Y-95490000D01*
X146808299Y-95946847D01*
X147067082Y-96334144D01*
X147454379Y-96592927D01*
X147911226Y-96683800D01*
X148268774Y-96683800D01*
X148725621Y-96592927D01*
X149112918Y-96334144D01*
X149371701Y-95946847D01*
X149462574Y-95490000D01*
X149462574Y-99619800D01*
X149442669Y-99619800D01*
X149442669Y-98893600D01*
X149442669Y-97166400D01*
X149418241Y-97040496D01*
X149345550Y-96929838D01*
X149235813Y-96855764D01*
X149106000Y-96829731D01*
X147074000Y-96829731D01*
X146948096Y-96854159D01*
X146837438Y-96926850D01*
X146763364Y-97036587D01*
X146737331Y-97166400D01*
X146737331Y-98893600D01*
X146761759Y-99019504D01*
X146834450Y-99130162D01*
X146944187Y-99204236D01*
X147074000Y-99230269D01*
X149106000Y-99230269D01*
X149231904Y-99205841D01*
X149342562Y-99133150D01*
X149416636Y-99023413D01*
X149442669Y-98893600D01*
X149442669Y-99619800D01*
X144508878Y-99619800D01*
X144508878Y-91696277D01*
X144352598Y-91318050D01*
X144063472Y-91028419D01*
X143685519Y-90871479D01*
X143276277Y-90871122D01*
X142898050Y-91027402D01*
X142713644Y-91211485D01*
X142774565Y-91064773D01*
X142774834Y-90756579D01*
X142657141Y-90471741D01*
X142439405Y-90253624D01*
X142154773Y-90135435D01*
X141846579Y-90135166D01*
X141561741Y-90252859D01*
X141343624Y-90470595D01*
X141225435Y-90755227D01*
X141225166Y-91063421D01*
X141342859Y-91348259D01*
X141560595Y-91566376D01*
X141845227Y-91684565D01*
X142153421Y-91684834D01*
X142438259Y-91567141D01*
X142551149Y-91454447D01*
X142451479Y-91694481D01*
X142451122Y-92103723D01*
X142607402Y-92481950D01*
X142896528Y-92771581D01*
X143274481Y-92928521D01*
X143683723Y-92928878D01*
X144061950Y-92772598D01*
X144351581Y-92483472D01*
X144508521Y-92105519D01*
X144508878Y-91696277D01*
X144508878Y-99619800D01*
X131368878Y-99619800D01*
X131368878Y-97386277D01*
X131212598Y-97008050D01*
X130923472Y-96718419D01*
X130873217Y-96697551D01*
X130873217Y-94106699D01*
X130770959Y-93859217D01*
X130581778Y-93669706D01*
X130334475Y-93567017D01*
X130066699Y-93566783D01*
X129819217Y-93669041D01*
X129723217Y-93764873D01*
X129723217Y-87736699D01*
X129620959Y-87489217D01*
X129431778Y-87299706D01*
X129184475Y-87197017D01*
X128916699Y-87196783D01*
X128669217Y-87299041D01*
X128479706Y-87488222D01*
X128377017Y-87735525D01*
X128376783Y-88003301D01*
X128479041Y-88250783D01*
X128668222Y-88440294D01*
X128915525Y-88542983D01*
X129183301Y-88543217D01*
X129430783Y-88440959D01*
X129620294Y-88251778D01*
X129722983Y-88004475D01*
X129723217Y-87736699D01*
X129723217Y-93764873D01*
X129629706Y-93858222D01*
X129527017Y-94105525D01*
X129526783Y-94373301D01*
X129629041Y-94620783D01*
X129818222Y-94810294D01*
X130065525Y-94912983D01*
X130333301Y-94913217D01*
X130580783Y-94810959D01*
X130770294Y-94621778D01*
X130872983Y-94374475D01*
X130873217Y-94106699D01*
X130873217Y-96697551D01*
X130545519Y-96561479D01*
X130136277Y-96561122D01*
X129758050Y-96717402D01*
X129468419Y-97006528D01*
X129311479Y-97384481D01*
X129311122Y-97793723D01*
X129467402Y-98171950D01*
X129756528Y-98461581D01*
X130134481Y-98618521D01*
X130543723Y-98618878D01*
X130921950Y-98462598D01*
X131211581Y-98173472D01*
X131368521Y-97795519D01*
X131368878Y-97386277D01*
X131368878Y-99619800D01*
X129208878Y-99619800D01*
X129208878Y-97876277D01*
X129052598Y-97498050D01*
X128763472Y-97208419D01*
X128385519Y-97051479D01*
X127976277Y-97051122D01*
X127598050Y-97207402D01*
X127473217Y-97332017D01*
X127473217Y-88276699D01*
X127370959Y-88029217D01*
X127181778Y-87839706D01*
X126934475Y-87737017D01*
X126666699Y-87736783D01*
X126419217Y-87839041D01*
X126229706Y-88028222D01*
X126127017Y-88275525D01*
X126126783Y-88543301D01*
X126229041Y-88790783D01*
X126418222Y-88980294D01*
X126665525Y-89082983D01*
X126933301Y-89083217D01*
X127180783Y-88980959D01*
X127370294Y-88791778D01*
X127472983Y-88544475D01*
X127473217Y-88276699D01*
X127473217Y-97332017D01*
X127308419Y-97496528D01*
X127151479Y-97874481D01*
X127151122Y-98283723D01*
X127307402Y-98661950D01*
X127596528Y-98951581D01*
X127974481Y-99108521D01*
X128383723Y-99108878D01*
X128761950Y-98952598D01*
X129051581Y-98663472D01*
X129208521Y-98285519D01*
X129208878Y-97876277D01*
X129208878Y-99619800D01*
X126354834Y-99619800D01*
X126354834Y-91546579D01*
X126237141Y-91261741D01*
X126019405Y-91043624D01*
X125734773Y-90925435D01*
X125426579Y-90925166D01*
X125141741Y-91042859D01*
X124923624Y-91260595D01*
X124805435Y-91545227D01*
X124805166Y-91853421D01*
X124922859Y-92138259D01*
X125140595Y-92356376D01*
X125425227Y-92474565D01*
X125733421Y-92474834D01*
X126018259Y-92357141D01*
X126236376Y-92139405D01*
X126354565Y-91854773D01*
X126354834Y-91546579D01*
X126354834Y-99619800D01*
X124993217Y-99619800D01*
X124993217Y-94046699D01*
X124890959Y-93799217D01*
X124701778Y-93609706D01*
X124454475Y-93507017D01*
X124186699Y-93506783D01*
X123939217Y-93609041D01*
X123749706Y-93798222D01*
X123689440Y-93943357D01*
X123600959Y-93729217D01*
X123411778Y-93539706D01*
X123164475Y-93437017D01*
X122896699Y-93436783D01*
X122649217Y-93539041D01*
X122459706Y-93728222D01*
X122357017Y-93975525D01*
X122356783Y-94243301D01*
X122459041Y-94490783D01*
X122648222Y-94680294D01*
X122895525Y-94782983D01*
X123163301Y-94783217D01*
X123410783Y-94680959D01*
X123600294Y-94491778D01*
X123660559Y-94346642D01*
X123749041Y-94560783D01*
X123938222Y-94750294D01*
X124185525Y-94852983D01*
X124453301Y-94853217D01*
X124700783Y-94750959D01*
X124890294Y-94561778D01*
X124992983Y-94314475D01*
X124993217Y-94046699D01*
X124993217Y-99619800D01*
X122673217Y-99619800D01*
X122673217Y-95786699D01*
X122570959Y-95539217D01*
X122381778Y-95349706D01*
X122134475Y-95247017D01*
X121866699Y-95246783D01*
X121619217Y-95349041D01*
X121429706Y-95538222D01*
X121327017Y-95785525D01*
X121326783Y-96053301D01*
X121429041Y-96300783D01*
X121618222Y-96490294D01*
X121865525Y-96592983D01*
X122133301Y-96593217D01*
X122380783Y-96490959D01*
X122570294Y-96301778D01*
X122672983Y-96054475D01*
X122673217Y-95786699D01*
X122673217Y-99619800D01*
X120904834Y-99619800D01*
X120904834Y-96526579D01*
X120787141Y-96241741D01*
X120774834Y-96229412D01*
X120774834Y-90446579D01*
X120657141Y-90161741D01*
X120439405Y-89943624D01*
X120154773Y-89825435D01*
X119913217Y-89825224D01*
X119913217Y-87646699D01*
X119810959Y-87399217D01*
X119621778Y-87209706D01*
X119374475Y-87107017D01*
X119106699Y-87106783D01*
X118859217Y-87209041D01*
X118669706Y-87398222D01*
X118567017Y-87645525D01*
X118566783Y-87913301D01*
X118669041Y-88160783D01*
X118858222Y-88350294D01*
X119105525Y-88452983D01*
X119373301Y-88453217D01*
X119620783Y-88350959D01*
X119810294Y-88161778D01*
X119912983Y-87914475D01*
X119913217Y-87646699D01*
X119913217Y-89825224D01*
X119846579Y-89825166D01*
X119561741Y-89942859D01*
X119343624Y-90160595D01*
X119225435Y-90445227D01*
X119225166Y-90753421D01*
X119342859Y-91038259D01*
X119560595Y-91256376D01*
X119845227Y-91374565D01*
X120153421Y-91374834D01*
X120438259Y-91257141D01*
X120656376Y-91039405D01*
X120774565Y-90754773D01*
X120774834Y-90446579D01*
X120774834Y-96229412D01*
X120569405Y-96023624D01*
X120284773Y-95905435D01*
X119976579Y-95905166D01*
X119691741Y-96022859D01*
X119473624Y-96240595D01*
X119355435Y-96525227D01*
X119355166Y-96833421D01*
X119472859Y-97118259D01*
X119690595Y-97336376D01*
X119975227Y-97454565D01*
X120283421Y-97454834D01*
X120568259Y-97337141D01*
X120786376Y-97119405D01*
X120904565Y-96834773D01*
X120904834Y-96526579D01*
X120904834Y-99619800D01*
X119218878Y-99619800D01*
X119218878Y-88966277D01*
X119062598Y-88588050D01*
X118773472Y-88298419D01*
X118395519Y-88141479D01*
X117986277Y-88141122D01*
X117608050Y-88297402D01*
X117318419Y-88586528D01*
X117161479Y-88964481D01*
X117161122Y-89373723D01*
X117317402Y-89751950D01*
X117606528Y-90041581D01*
X117984481Y-90198521D01*
X118393723Y-90198878D01*
X118771950Y-90042598D01*
X119061581Y-89753472D01*
X119218521Y-89375519D01*
X119218878Y-88966277D01*
X119218878Y-99619800D01*
X115393217Y-99619800D01*
X115393217Y-91876699D01*
X115290959Y-91629217D01*
X115101778Y-91439706D01*
X114854475Y-91337017D01*
X114586699Y-91336783D01*
X114339217Y-91439041D01*
X114149706Y-91628222D01*
X114047017Y-91875525D01*
X114046783Y-92143301D01*
X114149041Y-92390783D01*
X114338222Y-92580294D01*
X114585525Y-92682983D01*
X114853301Y-92683217D01*
X115100783Y-92580959D01*
X115290294Y-92391778D01*
X115392983Y-92144475D01*
X115393217Y-91876699D01*
X115393217Y-99619800D01*
X113913217Y-99619800D01*
X113913217Y-93796699D01*
X113810959Y-93549217D01*
X113621778Y-93359706D01*
X113374475Y-93257017D01*
X113106699Y-93256783D01*
X112859217Y-93359041D01*
X112669706Y-93548222D01*
X112567017Y-93795525D01*
X112566783Y-94063301D01*
X112669041Y-94310783D01*
X112858222Y-94500294D01*
X113105525Y-94602983D01*
X113373301Y-94603217D01*
X113620783Y-94500959D01*
X113810294Y-94311778D01*
X113912983Y-94064475D01*
X113913217Y-93796699D01*
X113913217Y-99619800D01*
X111804834Y-99619800D01*
X111804834Y-87546579D01*
X111687141Y-87261741D01*
X111469405Y-87043624D01*
X111283217Y-86966312D01*
X111283217Y-85596699D01*
X111180959Y-85349217D01*
X110991778Y-85159706D01*
X110744475Y-85057017D01*
X110476699Y-85056783D01*
X110229217Y-85159041D01*
X110039706Y-85348222D01*
X109937017Y-85595525D01*
X109936783Y-85863301D01*
X110039041Y-86110783D01*
X110228222Y-86300294D01*
X110475525Y-86402983D01*
X110743301Y-86403217D01*
X110990783Y-86300959D01*
X111180294Y-86111778D01*
X111282983Y-85864475D01*
X111283217Y-85596699D01*
X111283217Y-86966312D01*
X111184773Y-86925435D01*
X110876579Y-86925166D01*
X110591741Y-87042859D01*
X110373624Y-87260595D01*
X110255435Y-87545227D01*
X110255166Y-87853421D01*
X110372859Y-88138259D01*
X110590595Y-88356376D01*
X110875227Y-88474565D01*
X111183421Y-88474834D01*
X111468259Y-88357141D01*
X111686376Y-88139405D01*
X111804565Y-87854773D01*
X111804834Y-87546579D01*
X111804834Y-99619800D01*
X111444834Y-99619800D01*
X111444834Y-91896579D01*
X111327141Y-91611741D01*
X111109405Y-91393624D01*
X110824773Y-91275435D01*
X110516579Y-91275166D01*
X110231741Y-91392859D01*
X110013624Y-91610595D01*
X109895435Y-91895227D01*
X109895166Y-92203421D01*
X110012859Y-92488259D01*
X110230595Y-92706376D01*
X110515227Y-92824565D01*
X110823421Y-92824834D01*
X111108259Y-92707141D01*
X111326376Y-92489405D01*
X111444565Y-92204773D01*
X111444834Y-91896579D01*
X111444834Y-99619800D01*
X111334834Y-99619800D01*
X111334834Y-93616579D01*
X111217141Y-93331741D01*
X110999405Y-93113624D01*
X110714773Y-92995435D01*
X110406579Y-92995166D01*
X110121741Y-93112859D01*
X109903624Y-93330595D01*
X109805651Y-93566539D01*
X109787141Y-93521741D01*
X109569405Y-93303624D01*
X109284773Y-93185435D01*
X108976579Y-93185166D01*
X108691741Y-93302859D01*
X108473624Y-93520595D01*
X108355435Y-93805227D01*
X108355166Y-94113421D01*
X108472859Y-94398259D01*
X108690595Y-94616376D01*
X108975227Y-94734565D01*
X109283421Y-94734834D01*
X109568259Y-94617141D01*
X109786376Y-94399405D01*
X109884348Y-94163460D01*
X109902859Y-94208259D01*
X110120595Y-94426376D01*
X110405227Y-94544565D01*
X110713421Y-94544834D01*
X110998259Y-94427141D01*
X111216376Y-94209405D01*
X111334565Y-93924773D01*
X111334834Y-93616579D01*
X111334834Y-99619800D01*
X106913217Y-99619800D01*
X106913217Y-90406699D01*
X106810959Y-90159217D01*
X106621778Y-89969706D01*
X106374475Y-89867017D01*
X106106699Y-89866783D01*
X105978735Y-89919656D01*
X105978878Y-89756277D01*
X105822598Y-89378050D01*
X105533472Y-89088419D01*
X105155519Y-88931479D01*
X104746277Y-88931122D01*
X104368050Y-89087402D01*
X104078419Y-89376528D01*
X103921479Y-89754481D01*
X103921122Y-90163723D01*
X104077402Y-90541950D01*
X104366528Y-90831581D01*
X104744481Y-90988521D01*
X105153723Y-90988878D01*
X105531950Y-90832598D01*
X105603210Y-90761461D01*
X105669041Y-90920783D01*
X105858222Y-91110294D01*
X106105525Y-91212983D01*
X106373301Y-91213217D01*
X106620783Y-91110959D01*
X106810294Y-90921778D01*
X106912983Y-90674475D01*
X106913217Y-90406699D01*
X106913217Y-99619800D01*
X106244834Y-99619800D01*
X106244834Y-91996579D01*
X106127141Y-91711741D01*
X105909405Y-91493624D01*
X105624773Y-91375435D01*
X105316579Y-91375166D01*
X105031741Y-91492859D01*
X104813624Y-91710595D01*
X104695435Y-91995227D01*
X104695166Y-92303421D01*
X104812859Y-92588259D01*
X105030595Y-92806376D01*
X105315227Y-92924565D01*
X105623421Y-92924834D01*
X105908259Y-92807141D01*
X106126376Y-92589405D01*
X106244565Y-92304773D01*
X106244834Y-91996579D01*
X106244834Y-99619800D01*
X102773217Y-99619800D01*
X102773217Y-96936699D01*
X102670959Y-96689217D01*
X102481778Y-96499706D01*
X102234475Y-96397017D01*
X101966699Y-96396783D01*
X101719217Y-96499041D01*
X101529706Y-96688222D01*
X101427017Y-96935525D01*
X101426783Y-97203301D01*
X101529041Y-97450783D01*
X101718222Y-97640294D01*
X101965525Y-97742983D01*
X102233301Y-97743217D01*
X102480783Y-97640959D01*
X102670294Y-97451778D01*
X102772983Y-97204475D01*
X102773217Y-96936699D01*
X102773217Y-99619800D01*
X100624834Y-99619800D01*
X100624834Y-86366579D01*
X100507141Y-86081741D01*
X100289405Y-85863624D01*
X100004773Y-85745435D01*
X99696579Y-85745166D01*
X99411741Y-85862859D01*
X99249168Y-86025147D01*
X99137404Y-85755322D01*
X98978256Y-85683586D01*
X98906414Y-85755428D01*
X98906414Y-85611744D01*
X98834678Y-85452596D01*
X98455166Y-85299465D01*
X98045941Y-85303224D01*
X97685322Y-85452596D01*
X97613586Y-85611744D01*
X98260000Y-86258158D01*
X98906414Y-85611744D01*
X98906414Y-85755428D01*
X98331842Y-86330000D01*
X98978256Y-86976414D01*
X99137404Y-86904678D01*
X99153864Y-86863884D01*
X99192859Y-86958259D01*
X99410595Y-87176376D01*
X99695227Y-87294565D01*
X100003421Y-87294834D01*
X100288259Y-87177141D01*
X100506376Y-86959405D01*
X100624565Y-86674773D01*
X100624834Y-86366579D01*
X100624834Y-99619800D01*
X100308878Y-99619800D01*
X100308878Y-89876277D01*
X100152598Y-89498050D01*
X99863472Y-89208419D01*
X99485519Y-89051479D01*
X99076277Y-89051122D01*
X98906414Y-89121307D01*
X98906414Y-87048256D01*
X98260000Y-86401842D01*
X98188158Y-86473684D01*
X98188158Y-86330000D01*
X97541744Y-85683586D01*
X97382596Y-85755322D01*
X97229465Y-86134834D01*
X97233224Y-86544059D01*
X97382596Y-86904678D01*
X97541744Y-86976414D01*
X98188158Y-86330000D01*
X98188158Y-86473684D01*
X97613586Y-87048256D01*
X97685322Y-87207404D01*
X98064834Y-87360535D01*
X98474059Y-87356776D01*
X98834678Y-87207404D01*
X98906414Y-87048256D01*
X98906414Y-89121307D01*
X98698050Y-89207402D01*
X98408419Y-89496528D01*
X98251479Y-89874481D01*
X98251122Y-90283723D01*
X98407402Y-90661950D01*
X98696528Y-90951581D01*
X99074481Y-91108521D01*
X99483723Y-91108878D01*
X99861950Y-90952598D01*
X100151581Y-90663472D01*
X100308521Y-90285519D01*
X100308878Y-89876277D01*
X100308878Y-99619800D01*
X99458878Y-99619800D01*
X99458878Y-94386277D01*
X99302598Y-94008050D01*
X99013472Y-93718419D01*
X98635519Y-93561479D01*
X98226277Y-93561122D01*
X97848050Y-93717402D01*
X97558419Y-94006528D01*
X97401479Y-94384481D01*
X97401122Y-94793723D01*
X97557402Y-95171950D01*
X97846528Y-95461581D01*
X98224481Y-95618521D01*
X98633723Y-95618878D01*
X99011950Y-95462598D01*
X99301581Y-95173472D01*
X99458521Y-94795519D01*
X99458878Y-94386277D01*
X99458878Y-99619800D01*
X96824834Y-99619800D01*
X96824834Y-96226579D01*
X96707141Y-95941741D01*
X96574834Y-95809202D01*
X96574834Y-86376579D01*
X96457141Y-86091741D01*
X96239405Y-85873624D01*
X95954773Y-85755435D01*
X95646579Y-85755166D01*
X95361741Y-85872859D01*
X95143624Y-86090595D01*
X95025435Y-86375227D01*
X95025166Y-86683421D01*
X95142859Y-86968259D01*
X95360595Y-87186376D01*
X95645227Y-87304565D01*
X95953421Y-87304834D01*
X96238259Y-87187141D01*
X96456376Y-86969405D01*
X96574565Y-86684773D01*
X96574834Y-86376579D01*
X96574834Y-95809202D01*
X96489405Y-95723624D01*
X96204773Y-95605435D01*
X95896579Y-95605166D01*
X95611741Y-95722859D01*
X95393624Y-95940595D01*
X95275435Y-96225227D01*
X95275166Y-96533421D01*
X95392859Y-96818259D01*
X95610595Y-97036376D01*
X95895227Y-97154565D01*
X96203421Y-97154834D01*
X96488259Y-97037141D01*
X96706376Y-96819405D01*
X96824565Y-96534773D01*
X96824834Y-96226579D01*
X96824834Y-99619800D01*
X93532574Y-99619800D01*
X93532574Y-89620000D01*
X93430101Y-89104832D01*
X93138281Y-88668093D01*
X92701542Y-88376273D01*
X92186374Y-88273800D01*
X92133626Y-88273800D01*
X91618458Y-88376273D01*
X91181719Y-88668093D01*
X90889899Y-89104832D01*
X90787426Y-89620000D01*
X90889899Y-90135168D01*
X91181719Y-90571907D01*
X91534055Y-90807331D01*
X91144000Y-90807331D01*
X91018096Y-90831759D01*
X90907438Y-90904450D01*
X90833364Y-91014187D01*
X90807331Y-91144000D01*
X90807331Y-93176000D01*
X90831759Y-93301904D01*
X90904450Y-93412562D01*
X91014187Y-93486636D01*
X91144000Y-93512669D01*
X93176000Y-93512669D01*
X93301904Y-93488241D01*
X93412562Y-93415550D01*
X93486636Y-93305813D01*
X93512669Y-93176000D01*
X93512669Y-91144000D01*
X93488241Y-91018096D01*
X93415550Y-90907438D01*
X93305813Y-90833364D01*
X93176000Y-90807331D01*
X92785944Y-90807331D01*
X93138281Y-90571907D01*
X93430101Y-90135168D01*
X93532574Y-89620000D01*
X93532574Y-99619800D01*
X90380200Y-99619800D01*
X90380200Y-84380200D01*
X149619800Y-84380200D01*
X149619800Y-99619800D01*
X149619800Y-99619800D01*
G37*
X149619800Y-99619800D02*
X149462574Y-99619800D01*
X149462574Y-95490000D01*
X149462574Y-92950000D01*
X149462574Y-90410000D01*
X149462574Y-87870000D01*
X149371701Y-87413153D01*
X149112918Y-87025856D01*
X148725621Y-86767073D01*
X148268774Y-86676200D01*
X147911226Y-86676200D01*
X147454379Y-86767073D01*
X147067082Y-87025856D01*
X146808299Y-87413153D01*
X146717426Y-87870000D01*
X146808299Y-88326847D01*
X147067082Y-88714144D01*
X147454379Y-88972927D01*
X147911226Y-89063800D01*
X148268774Y-89063800D01*
X148725621Y-88972927D01*
X149112918Y-88714144D01*
X149371701Y-88326847D01*
X149462574Y-87870000D01*
X149462574Y-90410000D01*
X149371701Y-89953153D01*
X149112918Y-89565856D01*
X148725621Y-89307073D01*
X148268774Y-89216200D01*
X147911226Y-89216200D01*
X147454379Y-89307073D01*
X147067082Y-89565856D01*
X146808299Y-89953153D01*
X146717426Y-90410000D01*
X146808299Y-90866847D01*
X147067082Y-91254144D01*
X147454379Y-91512927D01*
X147911226Y-91603800D01*
X148268774Y-91603800D01*
X148725621Y-91512927D01*
X149112918Y-91254144D01*
X149371701Y-90866847D01*
X149462574Y-90410000D01*
X149462574Y-92950000D01*
X149371701Y-92493153D01*
X149112918Y-92105856D01*
X148725621Y-91847073D01*
X148268774Y-91756200D01*
X147911226Y-91756200D01*
X147454379Y-91847073D01*
X147067082Y-92105856D01*
X146808299Y-92493153D01*
X146717426Y-92950000D01*
X146808299Y-93406847D01*
X147067082Y-93794144D01*
X147454379Y-94052927D01*
X147911226Y-94143800D01*
X148268774Y-94143800D01*
X148725621Y-94052927D01*
X149112918Y-93794144D01*
X149371701Y-93406847D01*
X149462574Y-92950000D01*
X149462574Y-95490000D01*
X149371701Y-95033153D01*
X149112918Y-94645856D01*
X148725621Y-94387073D01*
X148268774Y-94296200D01*
X147911226Y-94296200D01*
X147454379Y-94387073D01*
X147067082Y-94645856D01*
X146808299Y-95033153D01*
X146717426Y-95490000D01*
X146808299Y-95946847D01*
X147067082Y-96334144D01*
X147454379Y-96592927D01*
X147911226Y-96683800D01*
X148268774Y-96683800D01*
X148725621Y-96592927D01*
X149112918Y-96334144D01*
X149371701Y-95946847D01*
X149462574Y-95490000D01*
X149462574Y-99619800D01*
X149442669Y-99619800D01*
X149442669Y-98893600D01*
X149442669Y-97166400D01*
X149418241Y-97040496D01*
X149345550Y-96929838D01*
X149235813Y-96855764D01*
X149106000Y-96829731D01*
X147074000Y-96829731D01*
X146948096Y-96854159D01*
X146837438Y-96926850D01*
X146763364Y-97036587D01*
X146737331Y-97166400D01*
X146737331Y-98893600D01*
X146761759Y-99019504D01*
X146834450Y-99130162D01*
X146944187Y-99204236D01*
X147074000Y-99230269D01*
X149106000Y-99230269D01*
X149231904Y-99205841D01*
X149342562Y-99133150D01*
X149416636Y-99023413D01*
X149442669Y-98893600D01*
X149442669Y-99619800D01*
X144508878Y-99619800D01*
X144508878Y-91696277D01*
X144352598Y-91318050D01*
X144063472Y-91028419D01*
X143685519Y-90871479D01*
X143276277Y-90871122D01*
X142898050Y-91027402D01*
X142713644Y-91211485D01*
X142774565Y-91064773D01*
X142774834Y-90756579D01*
X142657141Y-90471741D01*
X142439405Y-90253624D01*
X142154773Y-90135435D01*
X141846579Y-90135166D01*
X141561741Y-90252859D01*
X141343624Y-90470595D01*
X141225435Y-90755227D01*
X141225166Y-91063421D01*
X141342859Y-91348259D01*
X141560595Y-91566376D01*
X141845227Y-91684565D01*
X142153421Y-91684834D01*
X142438259Y-91567141D01*
X142551149Y-91454447D01*
X142451479Y-91694481D01*
X142451122Y-92103723D01*
X142607402Y-92481950D01*
X142896528Y-92771581D01*
X143274481Y-92928521D01*
X143683723Y-92928878D01*
X144061950Y-92772598D01*
X144351581Y-92483472D01*
X144508521Y-92105519D01*
X144508878Y-91696277D01*
X144508878Y-99619800D01*
X131368878Y-99619800D01*
X131368878Y-97386277D01*
X131212598Y-97008050D01*
X130923472Y-96718419D01*
X130873217Y-96697551D01*
X130873217Y-94106699D01*
X130770959Y-93859217D01*
X130581778Y-93669706D01*
X130334475Y-93567017D01*
X130066699Y-93566783D01*
X129819217Y-93669041D01*
X129723217Y-93764873D01*
X129723217Y-87736699D01*
X129620959Y-87489217D01*
X129431778Y-87299706D01*
X129184475Y-87197017D01*
X128916699Y-87196783D01*
X128669217Y-87299041D01*
X128479706Y-87488222D01*
X128377017Y-87735525D01*
X128376783Y-88003301D01*
X128479041Y-88250783D01*
X128668222Y-88440294D01*
X128915525Y-88542983D01*
X129183301Y-88543217D01*
X129430783Y-88440959D01*
X129620294Y-88251778D01*
X129722983Y-88004475D01*
X129723217Y-87736699D01*
X129723217Y-93764873D01*
X129629706Y-93858222D01*
X129527017Y-94105525D01*
X129526783Y-94373301D01*
X129629041Y-94620783D01*
X129818222Y-94810294D01*
X130065525Y-94912983D01*
X130333301Y-94913217D01*
X130580783Y-94810959D01*
X130770294Y-94621778D01*
X130872983Y-94374475D01*
X130873217Y-94106699D01*
X130873217Y-96697551D01*
X130545519Y-96561479D01*
X130136277Y-96561122D01*
X129758050Y-96717402D01*
X129468419Y-97006528D01*
X129311479Y-97384481D01*
X129311122Y-97793723D01*
X129467402Y-98171950D01*
X129756528Y-98461581D01*
X130134481Y-98618521D01*
X130543723Y-98618878D01*
X130921950Y-98462598D01*
X131211581Y-98173472D01*
X131368521Y-97795519D01*
X131368878Y-97386277D01*
X131368878Y-99619800D01*
X129208878Y-99619800D01*
X129208878Y-97876277D01*
X129052598Y-97498050D01*
X128763472Y-97208419D01*
X128385519Y-97051479D01*
X127976277Y-97051122D01*
X127598050Y-97207402D01*
X127473217Y-97332017D01*
X127473217Y-88276699D01*
X127370959Y-88029217D01*
X127181778Y-87839706D01*
X126934475Y-87737017D01*
X126666699Y-87736783D01*
X126419217Y-87839041D01*
X126229706Y-88028222D01*
X126127017Y-88275525D01*
X126126783Y-88543301D01*
X126229041Y-88790783D01*
X126418222Y-88980294D01*
X126665525Y-89082983D01*
X126933301Y-89083217D01*
X127180783Y-88980959D01*
X127370294Y-88791778D01*
X127472983Y-88544475D01*
X127473217Y-88276699D01*
X127473217Y-97332017D01*
X127308419Y-97496528D01*
X127151479Y-97874481D01*
X127151122Y-98283723D01*
X127307402Y-98661950D01*
X127596528Y-98951581D01*
X127974481Y-99108521D01*
X128383723Y-99108878D01*
X128761950Y-98952598D01*
X129051581Y-98663472D01*
X129208521Y-98285519D01*
X129208878Y-97876277D01*
X129208878Y-99619800D01*
X126354834Y-99619800D01*
X126354834Y-91546579D01*
X126237141Y-91261741D01*
X126019405Y-91043624D01*
X125734773Y-90925435D01*
X125426579Y-90925166D01*
X125141741Y-91042859D01*
X124923624Y-91260595D01*
X124805435Y-91545227D01*
X124805166Y-91853421D01*
X124922859Y-92138259D01*
X125140595Y-92356376D01*
X125425227Y-92474565D01*
X125733421Y-92474834D01*
X126018259Y-92357141D01*
X126236376Y-92139405D01*
X126354565Y-91854773D01*
X126354834Y-91546579D01*
X126354834Y-99619800D01*
X124993217Y-99619800D01*
X124993217Y-94046699D01*
X124890959Y-93799217D01*
X124701778Y-93609706D01*
X124454475Y-93507017D01*
X124186699Y-93506783D01*
X123939217Y-93609041D01*
X123749706Y-93798222D01*
X123689440Y-93943357D01*
X123600959Y-93729217D01*
X123411778Y-93539706D01*
X123164475Y-93437017D01*
X122896699Y-93436783D01*
X122649217Y-93539041D01*
X122459706Y-93728222D01*
X122357017Y-93975525D01*
X122356783Y-94243301D01*
X122459041Y-94490783D01*
X122648222Y-94680294D01*
X122895525Y-94782983D01*
X123163301Y-94783217D01*
X123410783Y-94680959D01*
X123600294Y-94491778D01*
X123660559Y-94346642D01*
X123749041Y-94560783D01*
X123938222Y-94750294D01*
X124185525Y-94852983D01*
X124453301Y-94853217D01*
X124700783Y-94750959D01*
X124890294Y-94561778D01*
X124992983Y-94314475D01*
X124993217Y-94046699D01*
X124993217Y-99619800D01*
X122673217Y-99619800D01*
X122673217Y-95786699D01*
X122570959Y-95539217D01*
X122381778Y-95349706D01*
X122134475Y-95247017D01*
X121866699Y-95246783D01*
X121619217Y-95349041D01*
X121429706Y-95538222D01*
X121327017Y-95785525D01*
X121326783Y-96053301D01*
X121429041Y-96300783D01*
X121618222Y-96490294D01*
X121865525Y-96592983D01*
X122133301Y-96593217D01*
X122380783Y-96490959D01*
X122570294Y-96301778D01*
X122672983Y-96054475D01*
X122673217Y-95786699D01*
X122673217Y-99619800D01*
X120904834Y-99619800D01*
X120904834Y-96526579D01*
X120787141Y-96241741D01*
X120774834Y-96229412D01*
X120774834Y-90446579D01*
X120657141Y-90161741D01*
X120439405Y-89943624D01*
X120154773Y-89825435D01*
X119913217Y-89825224D01*
X119913217Y-87646699D01*
X119810959Y-87399217D01*
X119621778Y-87209706D01*
X119374475Y-87107017D01*
X119106699Y-87106783D01*
X118859217Y-87209041D01*
X118669706Y-87398222D01*
X118567017Y-87645525D01*
X118566783Y-87913301D01*
X118669041Y-88160783D01*
X118858222Y-88350294D01*
X119105525Y-88452983D01*
X119373301Y-88453217D01*
X119620783Y-88350959D01*
X119810294Y-88161778D01*
X119912983Y-87914475D01*
X119913217Y-87646699D01*
X119913217Y-89825224D01*
X119846579Y-89825166D01*
X119561741Y-89942859D01*
X119343624Y-90160595D01*
X119225435Y-90445227D01*
X119225166Y-90753421D01*
X119342859Y-91038259D01*
X119560595Y-91256376D01*
X119845227Y-91374565D01*
X120153421Y-91374834D01*
X120438259Y-91257141D01*
X120656376Y-91039405D01*
X120774565Y-90754773D01*
X120774834Y-90446579D01*
X120774834Y-96229412D01*
X120569405Y-96023624D01*
X120284773Y-95905435D01*
X119976579Y-95905166D01*
X119691741Y-96022859D01*
X119473624Y-96240595D01*
X119355435Y-96525227D01*
X119355166Y-96833421D01*
X119472859Y-97118259D01*
X119690595Y-97336376D01*
X119975227Y-97454565D01*
X120283421Y-97454834D01*
X120568259Y-97337141D01*
X120786376Y-97119405D01*
X120904565Y-96834773D01*
X120904834Y-96526579D01*
X120904834Y-99619800D01*
X119218878Y-99619800D01*
X119218878Y-88966277D01*
X119062598Y-88588050D01*
X118773472Y-88298419D01*
X118395519Y-88141479D01*
X117986277Y-88141122D01*
X117608050Y-88297402D01*
X117318419Y-88586528D01*
X117161479Y-88964481D01*
X117161122Y-89373723D01*
X117317402Y-89751950D01*
X117606528Y-90041581D01*
X117984481Y-90198521D01*
X118393723Y-90198878D01*
X118771950Y-90042598D01*
X119061581Y-89753472D01*
X119218521Y-89375519D01*
X119218878Y-88966277D01*
X119218878Y-99619800D01*
X115393217Y-99619800D01*
X115393217Y-91876699D01*
X115290959Y-91629217D01*
X115101778Y-91439706D01*
X114854475Y-91337017D01*
X114586699Y-91336783D01*
X114339217Y-91439041D01*
X114149706Y-91628222D01*
X114047017Y-91875525D01*
X114046783Y-92143301D01*
X114149041Y-92390783D01*
X114338222Y-92580294D01*
X114585525Y-92682983D01*
X114853301Y-92683217D01*
X115100783Y-92580959D01*
X115290294Y-92391778D01*
X115392983Y-92144475D01*
X115393217Y-91876699D01*
X115393217Y-99619800D01*
X113913217Y-99619800D01*
X113913217Y-93796699D01*
X113810959Y-93549217D01*
X113621778Y-93359706D01*
X113374475Y-93257017D01*
X113106699Y-93256783D01*
X112859217Y-93359041D01*
X112669706Y-93548222D01*
X112567017Y-93795525D01*
X112566783Y-94063301D01*
X112669041Y-94310783D01*
X112858222Y-94500294D01*
X113105525Y-94602983D01*
X113373301Y-94603217D01*
X113620783Y-94500959D01*
X113810294Y-94311778D01*
X113912983Y-94064475D01*
X113913217Y-93796699D01*
X113913217Y-99619800D01*
X111804834Y-99619800D01*
X111804834Y-87546579D01*
X111687141Y-87261741D01*
X111469405Y-87043624D01*
X111283217Y-86966312D01*
X111283217Y-85596699D01*
X111180959Y-85349217D01*
X110991778Y-85159706D01*
X110744475Y-85057017D01*
X110476699Y-85056783D01*
X110229217Y-85159041D01*
X110039706Y-85348222D01*
X109937017Y-85595525D01*
X109936783Y-85863301D01*
X110039041Y-86110783D01*
X110228222Y-86300294D01*
X110475525Y-86402983D01*
X110743301Y-86403217D01*
X110990783Y-86300959D01*
X111180294Y-86111778D01*
X111282983Y-85864475D01*
X111283217Y-85596699D01*
X111283217Y-86966312D01*
X111184773Y-86925435D01*
X110876579Y-86925166D01*
X110591741Y-87042859D01*
X110373624Y-87260595D01*
X110255435Y-87545227D01*
X110255166Y-87853421D01*
X110372859Y-88138259D01*
X110590595Y-88356376D01*
X110875227Y-88474565D01*
X111183421Y-88474834D01*
X111468259Y-88357141D01*
X111686376Y-88139405D01*
X111804565Y-87854773D01*
X111804834Y-87546579D01*
X111804834Y-99619800D01*
X111444834Y-99619800D01*
X111444834Y-91896579D01*
X111327141Y-91611741D01*
X111109405Y-91393624D01*
X110824773Y-91275435D01*
X110516579Y-91275166D01*
X110231741Y-91392859D01*
X110013624Y-91610595D01*
X109895435Y-91895227D01*
X109895166Y-92203421D01*
X110012859Y-92488259D01*
X110230595Y-92706376D01*
X110515227Y-92824565D01*
X110823421Y-92824834D01*
X111108259Y-92707141D01*
X111326376Y-92489405D01*
X111444565Y-92204773D01*
X111444834Y-91896579D01*
X111444834Y-99619800D01*
X111334834Y-99619800D01*
X111334834Y-93616579D01*
X111217141Y-93331741D01*
X110999405Y-93113624D01*
X110714773Y-92995435D01*
X110406579Y-92995166D01*
X110121741Y-93112859D01*
X109903624Y-93330595D01*
X109805651Y-93566539D01*
X109787141Y-93521741D01*
X109569405Y-93303624D01*
X109284773Y-93185435D01*
X108976579Y-93185166D01*
X108691741Y-93302859D01*
X108473624Y-93520595D01*
X108355435Y-93805227D01*
X108355166Y-94113421D01*
X108472859Y-94398259D01*
X108690595Y-94616376D01*
X108975227Y-94734565D01*
X109283421Y-94734834D01*
X109568259Y-94617141D01*
X109786376Y-94399405D01*
X109884348Y-94163460D01*
X109902859Y-94208259D01*
X110120595Y-94426376D01*
X110405227Y-94544565D01*
X110713421Y-94544834D01*
X110998259Y-94427141D01*
X111216376Y-94209405D01*
X111334565Y-93924773D01*
X111334834Y-93616579D01*
X111334834Y-99619800D01*
X106913217Y-99619800D01*
X106913217Y-90406699D01*
X106810959Y-90159217D01*
X106621778Y-89969706D01*
X106374475Y-89867017D01*
X106106699Y-89866783D01*
X105978735Y-89919656D01*
X105978878Y-89756277D01*
X105822598Y-89378050D01*
X105533472Y-89088419D01*
X105155519Y-88931479D01*
X104746277Y-88931122D01*
X104368050Y-89087402D01*
X104078419Y-89376528D01*
X103921479Y-89754481D01*
X103921122Y-90163723D01*
X104077402Y-90541950D01*
X104366528Y-90831581D01*
X104744481Y-90988521D01*
X105153723Y-90988878D01*
X105531950Y-90832598D01*
X105603210Y-90761461D01*
X105669041Y-90920783D01*
X105858222Y-91110294D01*
X106105525Y-91212983D01*
X106373301Y-91213217D01*
X106620783Y-91110959D01*
X106810294Y-90921778D01*
X106912983Y-90674475D01*
X106913217Y-90406699D01*
X106913217Y-99619800D01*
X106244834Y-99619800D01*
X106244834Y-91996579D01*
X106127141Y-91711741D01*
X105909405Y-91493624D01*
X105624773Y-91375435D01*
X105316579Y-91375166D01*
X105031741Y-91492859D01*
X104813624Y-91710595D01*
X104695435Y-91995227D01*
X104695166Y-92303421D01*
X104812859Y-92588259D01*
X105030595Y-92806376D01*
X105315227Y-92924565D01*
X105623421Y-92924834D01*
X105908259Y-92807141D01*
X106126376Y-92589405D01*
X106244565Y-92304773D01*
X106244834Y-91996579D01*
X106244834Y-99619800D01*
X102773217Y-99619800D01*
X102773217Y-96936699D01*
X102670959Y-96689217D01*
X102481778Y-96499706D01*
X102234475Y-96397017D01*
X101966699Y-96396783D01*
X101719217Y-96499041D01*
X101529706Y-96688222D01*
X101427017Y-96935525D01*
X101426783Y-97203301D01*
X101529041Y-97450783D01*
X101718222Y-97640294D01*
X101965525Y-97742983D01*
X102233301Y-97743217D01*
X102480783Y-97640959D01*
X102670294Y-97451778D01*
X102772983Y-97204475D01*
X102773217Y-96936699D01*
X102773217Y-99619800D01*
X100624834Y-99619800D01*
X100624834Y-86366579D01*
X100507141Y-86081741D01*
X100289405Y-85863624D01*
X100004773Y-85745435D01*
X99696579Y-85745166D01*
X99411741Y-85862859D01*
X99249168Y-86025147D01*
X99137404Y-85755322D01*
X98978256Y-85683586D01*
X98906414Y-85755428D01*
X98906414Y-85611744D01*
X98834678Y-85452596D01*
X98455166Y-85299465D01*
X98045941Y-85303224D01*
X97685322Y-85452596D01*
X97613586Y-85611744D01*
X98260000Y-86258158D01*
X98906414Y-85611744D01*
X98906414Y-85755428D01*
X98331842Y-86330000D01*
X98978256Y-86976414D01*
X99137404Y-86904678D01*
X99153864Y-86863884D01*
X99192859Y-86958259D01*
X99410595Y-87176376D01*
X99695227Y-87294565D01*
X100003421Y-87294834D01*
X100288259Y-87177141D01*
X100506376Y-86959405D01*
X100624565Y-86674773D01*
X100624834Y-86366579D01*
X100624834Y-99619800D01*
X100308878Y-99619800D01*
X100308878Y-89876277D01*
X100152598Y-89498050D01*
X99863472Y-89208419D01*
X99485519Y-89051479D01*
X99076277Y-89051122D01*
X98906414Y-89121307D01*
X98906414Y-87048256D01*
X98260000Y-86401842D01*
X98188158Y-86473684D01*
X98188158Y-86330000D01*
X97541744Y-85683586D01*
X97382596Y-85755322D01*
X97229465Y-86134834D01*
X97233224Y-86544059D01*
X97382596Y-86904678D01*
X97541744Y-86976414D01*
X98188158Y-86330000D01*
X98188158Y-86473684D01*
X97613586Y-87048256D01*
X97685322Y-87207404D01*
X98064834Y-87360535D01*
X98474059Y-87356776D01*
X98834678Y-87207404D01*
X98906414Y-87048256D01*
X98906414Y-89121307D01*
X98698050Y-89207402D01*
X98408419Y-89496528D01*
X98251479Y-89874481D01*
X98251122Y-90283723D01*
X98407402Y-90661950D01*
X98696528Y-90951581D01*
X99074481Y-91108521D01*
X99483723Y-91108878D01*
X99861950Y-90952598D01*
X100151581Y-90663472D01*
X100308521Y-90285519D01*
X100308878Y-89876277D01*
X100308878Y-99619800D01*
X99458878Y-99619800D01*
X99458878Y-94386277D01*
X99302598Y-94008050D01*
X99013472Y-93718419D01*
X98635519Y-93561479D01*
X98226277Y-93561122D01*
X97848050Y-93717402D01*
X97558419Y-94006528D01*
X97401479Y-94384481D01*
X97401122Y-94793723D01*
X97557402Y-95171950D01*
X97846528Y-95461581D01*
X98224481Y-95618521D01*
X98633723Y-95618878D01*
X99011950Y-95462598D01*
X99301581Y-95173472D01*
X99458521Y-94795519D01*
X99458878Y-94386277D01*
X99458878Y-99619800D01*
X96824834Y-99619800D01*
X96824834Y-96226579D01*
X96707141Y-95941741D01*
X96574834Y-95809202D01*
X96574834Y-86376579D01*
X96457141Y-86091741D01*
X96239405Y-85873624D01*
X95954773Y-85755435D01*
X95646579Y-85755166D01*
X95361741Y-85872859D01*
X95143624Y-86090595D01*
X95025435Y-86375227D01*
X95025166Y-86683421D01*
X95142859Y-86968259D01*
X95360595Y-87186376D01*
X95645227Y-87304565D01*
X95953421Y-87304834D01*
X96238259Y-87187141D01*
X96456376Y-86969405D01*
X96574565Y-86684773D01*
X96574834Y-86376579D01*
X96574834Y-95809202D01*
X96489405Y-95723624D01*
X96204773Y-95605435D01*
X95896579Y-95605166D01*
X95611741Y-95722859D01*
X95393624Y-95940595D01*
X95275435Y-96225227D01*
X95275166Y-96533421D01*
X95392859Y-96818259D01*
X95610595Y-97036376D01*
X95895227Y-97154565D01*
X96203421Y-97154834D01*
X96488259Y-97037141D01*
X96706376Y-96819405D01*
X96824565Y-96534773D01*
X96824834Y-96226579D01*
X96824834Y-99619800D01*
X93532574Y-99619800D01*
X93532574Y-89620000D01*
X93430101Y-89104832D01*
X93138281Y-88668093D01*
X92701542Y-88376273D01*
X92186374Y-88273800D01*
X92133626Y-88273800D01*
X91618458Y-88376273D01*
X91181719Y-88668093D01*
X90889899Y-89104832D01*
X90787426Y-89620000D01*
X90889899Y-90135168D01*
X91181719Y-90571907D01*
X91534055Y-90807331D01*
X91144000Y-90807331D01*
X91018096Y-90831759D01*
X90907438Y-90904450D01*
X90833364Y-91014187D01*
X90807331Y-91144000D01*
X90807331Y-93176000D01*
X90831759Y-93301904D01*
X90904450Y-93412562D01*
X91014187Y-93486636D01*
X91144000Y-93512669D01*
X93176000Y-93512669D01*
X93301904Y-93488241D01*
X93412562Y-93415550D01*
X93486636Y-93305813D01*
X93512669Y-93176000D01*
X93512669Y-91144000D01*
X93488241Y-91018096D01*
X93415550Y-90907438D01*
X93305813Y-90833364D01*
X93176000Y-90807331D01*
X92785944Y-90807331D01*
X93138281Y-90571907D01*
X93430101Y-90135168D01*
X93532574Y-89620000D01*
X93532574Y-99619800D01*
X90380200Y-99619800D01*
X90380200Y-84380200D01*
X149619800Y-84380200D01*
X149619800Y-99619800D01*
M02*
