G04 #@! TF.FileFunction,Legend,Top*
%FSLAX46Y46*%
G04 Gerber Fmt 4.6, Leading zero omitted, Abs format (unit mm)*
G04 Created by KiCad (PCBNEW (2015-01-29 BZR 5396)-product) date 5/25/2015 5:42:28 PM*
%MOMM*%
G01*
G04 APERTURE LIST*
%ADD10C,0.100000*%
%ADD11C,0.127000*%
%ADD12C,0.250000*%
%ADD13C,0.300000*%
%ADD14C,0.150000*%
%ADD15R,1.500000X1.250000*%
%ADD16R,1.250000X1.500000*%
%ADD17R,2.032000X2.032000*%
%ADD18O,2.032000X2.032000*%
%ADD19R,2.032000X1.727200*%
%ADD20O,2.032000X1.727200*%
%ADD21R,1.500000X1.300000*%
%ADD22R,1.300000X1.500000*%
%ADD23R,1.060000X0.650000*%
%ADD24R,0.600000X1.500000*%
%ADD25R,3.550000X1.310000*%
%ADD26C,1.397000*%
G04 APERTURE END LIST*
D10*
D11*
X90669810Y-88330190D02*
X90694000Y-88354380D01*
X90718190Y-88402761D01*
X90718190Y-88523714D01*
X90694000Y-88572095D01*
X90669810Y-88596285D01*
X90621429Y-88620476D01*
X90573048Y-88620476D01*
X90500476Y-88596285D01*
X90210190Y-88305999D01*
X90210190Y-88620476D01*
X90258571Y-88838190D02*
X90234381Y-88862381D01*
X90210190Y-88838190D01*
X90234381Y-88814000D01*
X90258571Y-88838190D01*
X90210190Y-88838190D01*
X90210190Y-89346191D02*
X90210190Y-89055905D01*
X90210190Y-89201048D02*
X90718190Y-89201048D01*
X90645619Y-89152667D01*
X90597238Y-89104286D01*
X90573048Y-89055905D01*
X90403714Y-89563905D02*
X90403714Y-89950953D01*
X90210190Y-90458953D02*
X90210190Y-90168667D01*
X90210190Y-90313810D02*
X90718190Y-90313810D01*
X90645619Y-90265429D01*
X90597238Y-90217048D01*
X90573048Y-90168667D01*
X90718190Y-90894382D02*
X90718190Y-90797620D01*
X90694000Y-90749239D01*
X90669810Y-90725048D01*
X90597238Y-90676667D01*
X90500476Y-90652477D01*
X90306952Y-90652477D01*
X90258571Y-90676667D01*
X90234381Y-90700858D01*
X90210190Y-90749239D01*
X90210190Y-90846001D01*
X90234381Y-90894382D01*
X90258571Y-90918572D01*
X90306952Y-90942763D01*
X90427905Y-90942763D01*
X90476286Y-90918572D01*
X90500476Y-90894382D01*
X90524667Y-90846001D01*
X90524667Y-90749239D01*
X90500476Y-90700858D01*
X90476286Y-90676667D01*
X90427905Y-90652477D01*
X90548857Y-91112096D02*
X90210190Y-91233049D01*
X90548857Y-91354001D01*
X147636667Y-84531810D02*
X147733429Y-84531810D01*
X147781810Y-84556000D01*
X147830191Y-84604381D01*
X147854382Y-84701143D01*
X147854382Y-84870476D01*
X147830191Y-84967238D01*
X147781810Y-85015619D01*
X147733429Y-85039810D01*
X147636667Y-85039810D01*
X147588286Y-85015619D01*
X147539905Y-84967238D01*
X147515715Y-84870476D01*
X147515715Y-84701143D01*
X147539905Y-84604381D01*
X147588286Y-84556000D01*
X147636667Y-84531810D01*
X148289810Y-84701143D02*
X148289810Y-85039810D01*
X148072095Y-84701143D02*
X148072095Y-84967238D01*
X148096286Y-85015619D01*
X148144667Y-85039810D01*
X148217238Y-85039810D01*
X148265619Y-85015619D01*
X148289810Y-84991429D01*
X148459143Y-84701143D02*
X148652667Y-84701143D01*
X148531714Y-84531810D02*
X148531714Y-84967238D01*
X148555905Y-85015619D01*
X148604286Y-85039810D01*
X148652667Y-85039810D01*
D12*
X145895715Y-98622381D02*
X145324286Y-98622381D01*
X145610000Y-98622381D02*
X145610000Y-97622381D01*
X145514762Y-97765238D01*
X145419524Y-97860476D01*
X145324286Y-97908095D01*
X145384286Y-95217619D02*
X145431905Y-95170000D01*
X145527143Y-95122381D01*
X145765239Y-95122381D01*
X145860477Y-95170000D01*
X145908096Y-95217619D01*
X145955715Y-95312857D01*
X145955715Y-95408095D01*
X145908096Y-95550952D01*
X145336667Y-96122381D01*
X145955715Y-96122381D01*
X145406667Y-92342381D02*
X146025715Y-92342381D01*
X145692381Y-92723333D01*
X145835239Y-92723333D01*
X145930477Y-92770952D01*
X145978096Y-92818571D01*
X146025715Y-92913810D01*
X146025715Y-93151905D01*
X145978096Y-93247143D01*
X145930477Y-93294762D01*
X145835239Y-93342381D01*
X145549524Y-93342381D01*
X145454286Y-93294762D01*
X145406667Y-93247143D01*
X145880477Y-90045714D02*
X145880477Y-90712381D01*
X145642381Y-89664762D02*
X145404286Y-90379048D01*
X146023334Y-90379048D01*
X144058096Y-87360000D02*
X143962858Y-87312381D01*
X143820001Y-87312381D01*
X143677143Y-87360000D01*
X143581905Y-87455238D01*
X143534286Y-87550476D01*
X143486667Y-87740952D01*
X143486667Y-87883810D01*
X143534286Y-88074286D01*
X143581905Y-88169524D01*
X143677143Y-88264762D01*
X143820001Y-88312381D01*
X143915239Y-88312381D01*
X144058096Y-88264762D01*
X144105715Y-88217143D01*
X144105715Y-87883810D01*
X143915239Y-87883810D01*
X144534286Y-88312381D02*
X144534286Y-87312381D01*
X145105715Y-88312381D01*
X145105715Y-87312381D01*
X145581905Y-88312381D02*
X145581905Y-87312381D01*
X145820000Y-87312381D01*
X145962858Y-87360000D01*
X146058096Y-87455238D01*
X146105715Y-87550476D01*
X146153334Y-87740952D01*
X146153334Y-87883810D01*
X146105715Y-88074286D01*
X146058096Y-88169524D01*
X145962858Y-88264762D01*
X145820000Y-88312381D01*
X145581905Y-88312381D01*
D11*
X94524000Y-92342953D02*
X94548190Y-92294572D01*
X94548190Y-92222000D01*
X94524000Y-92149429D01*
X94475619Y-92101048D01*
X94427238Y-92076857D01*
X94330476Y-92052667D01*
X94257905Y-92052667D01*
X94161143Y-92076857D01*
X94112762Y-92101048D01*
X94064381Y-92149429D01*
X94040190Y-92222000D01*
X94040190Y-92270381D01*
X94064381Y-92342953D01*
X94088571Y-92367143D01*
X94257905Y-92367143D01*
X94257905Y-92270381D01*
X94040190Y-92584857D02*
X94548190Y-92584857D01*
X94040190Y-92875143D01*
X94548190Y-92875143D01*
X94040190Y-93117047D02*
X94548190Y-93117047D01*
X94548190Y-93238000D01*
X94524000Y-93310571D01*
X94475619Y-93358952D01*
X94427238Y-93383143D01*
X94330476Y-93407333D01*
X94257905Y-93407333D01*
X94161143Y-93383143D01*
X94112762Y-93358952D01*
X94064381Y-93310571D01*
X94040190Y-93238000D01*
X94040190Y-93117047D01*
D13*
X94626586Y-87740000D02*
G75*
G03X94626586Y-87740000I-276586J0D01*
G01*
X106165261Y-96360000D02*
G75*
G03X106165261Y-96360000I-335261J0D01*
G01*
X122765466Y-96900000D02*
G75*
G03X122765466Y-96900000I-295466J0D01*
G01*
D14*
X93200000Y-85750000D02*
X92200000Y-85750000D01*
X92200000Y-87450000D02*
X93200000Y-87450000D01*
X100660000Y-87270000D02*
X100660000Y-88270000D01*
X102360000Y-88270000D02*
X102360000Y-87270000D01*
X118450000Y-99190000D02*
X119450000Y-99190000D01*
X119450000Y-97490000D02*
X118450000Y-97490000D01*
X104510000Y-97840000D02*
X104510000Y-96840000D01*
X102810000Y-96840000D02*
X102810000Y-97840000D01*
X124780000Y-97610000D02*
X123780000Y-97610000D01*
X123780000Y-99310000D02*
X124780000Y-99310000D01*
X119810000Y-93340000D02*
X119810000Y-94340000D01*
X121510000Y-94340000D02*
X121510000Y-93340000D01*
X113800000Y-86480000D02*
X114800000Y-86480000D01*
X114800000Y-84780000D02*
X113800000Y-84780000D01*
X108240000Y-84860000D02*
X107240000Y-84860000D01*
X107240000Y-86560000D02*
X108240000Y-86560000D01*
X90890000Y-90890000D02*
X90890000Y-88350000D01*
X90610000Y-93710000D02*
X90610000Y-92160000D01*
X90890000Y-90890000D02*
X93430000Y-90890000D01*
X93710000Y-92160000D02*
X93710000Y-93710000D01*
X93710000Y-93710000D02*
X90610000Y-93710000D01*
X93430000Y-90890000D02*
X93430000Y-88350000D01*
X93430000Y-88350000D02*
X90890000Y-88350000D01*
X149640000Y-98030000D02*
X149640000Y-99580000D01*
X149640000Y-99580000D02*
X146540000Y-99580000D01*
X146540000Y-99580000D02*
X146540000Y-98030000D01*
X146820000Y-96760000D02*
X146820000Y-86600000D01*
X146820000Y-86600000D02*
X149360000Y-86600000D01*
X149360000Y-86600000D02*
X149360000Y-96760000D01*
X146820000Y-96760000D02*
X149360000Y-96760000D01*
X98540000Y-96585000D02*
X99740000Y-96585000D01*
X99740000Y-98335000D02*
X98540000Y-98335000D01*
X92140000Y-96545000D02*
X93340000Y-96545000D01*
X93340000Y-98295000D02*
X92140000Y-98295000D01*
X92140000Y-94295000D02*
X93340000Y-94295000D01*
X93340000Y-96045000D02*
X92140000Y-96045000D01*
X107890000Y-98795000D02*
X106690000Y-98795000D01*
X106690000Y-97045000D02*
X107890000Y-97045000D01*
X139370000Y-91735000D02*
X138170000Y-91735000D01*
X138170000Y-89985000D02*
X139370000Y-89985000D01*
X114540000Y-99335000D02*
X113340000Y-99335000D01*
X113340000Y-97585000D02*
X114540000Y-97585000D01*
X118915000Y-94090000D02*
X118915000Y-95290000D01*
X117165000Y-95290000D02*
X117165000Y-94090000D01*
X113810000Y-86945000D02*
X115010000Y-86945000D01*
X115010000Y-88695000D02*
X113810000Y-88695000D01*
X108460000Y-88775000D02*
X107260000Y-88775000D01*
X107260000Y-87025000D02*
X108460000Y-87025000D01*
X96040000Y-87800000D02*
G75*
G03X96040000Y-87800000I-100000J0D01*
G01*
X96490000Y-88050000D02*
X95990000Y-88050000D01*
X96490000Y-90950000D02*
X96490000Y-88050000D01*
X95990000Y-90950000D02*
X96490000Y-90950000D01*
X95990000Y-88050000D02*
X95990000Y-90950000D01*
X106580000Y-94895000D02*
X106695000Y-94895000D01*
X106580000Y-90745000D02*
X106695000Y-90745000D01*
X115480000Y-90745000D02*
X115365000Y-90745000D01*
X115480000Y-94895000D02*
X115365000Y-94895000D01*
X106580000Y-94895000D02*
X106580000Y-90745000D01*
X115480000Y-94895000D02*
X115480000Y-90745000D01*
X106695000Y-94895000D02*
X106695000Y-96270000D01*
X122420000Y-94915000D02*
X122535000Y-94915000D01*
X122420000Y-90765000D02*
X122535000Y-90765000D01*
X131320000Y-90765000D02*
X131205000Y-90765000D01*
X131320000Y-94915000D02*
X131205000Y-94915000D01*
X122420000Y-94915000D02*
X122420000Y-90765000D01*
X131320000Y-94915000D02*
X131320000Y-90765000D01*
X122535000Y-94915000D02*
X122535000Y-96290000D01*
X134605000Y-99710000D02*
X134605000Y-92750000D01*
X134605000Y-92750000D02*
X141895000Y-92750000D01*
X141895000Y-92750000D02*
X141895000Y-99710000D01*
X141895000Y-99710000D02*
X134605000Y-99710000D01*
D11*
X92091523Y-85381429D02*
X92067333Y-85405619D01*
X91994761Y-85429810D01*
X91946380Y-85429810D01*
X91873809Y-85405619D01*
X91825428Y-85357238D01*
X91801237Y-85308857D01*
X91777047Y-85212095D01*
X91777047Y-85139524D01*
X91801237Y-85042762D01*
X91825428Y-84994381D01*
X91873809Y-84946000D01*
X91946380Y-84921810D01*
X91994761Y-84921810D01*
X92067333Y-84946000D01*
X92091523Y-84970190D01*
X92575333Y-85429810D02*
X92285047Y-85429810D01*
X92430190Y-85429810D02*
X92430190Y-84921810D01*
X92381809Y-84994381D01*
X92333428Y-85042762D01*
X92285047Y-85066952D01*
X92889809Y-84921810D02*
X92938190Y-84921810D01*
X92986571Y-84946000D01*
X93010762Y-84970190D01*
X93034952Y-85018571D01*
X93059143Y-85115333D01*
X93059143Y-85236286D01*
X93034952Y-85333048D01*
X93010762Y-85381429D01*
X92986571Y-85405619D01*
X92938190Y-85429810D01*
X92889809Y-85429810D01*
X92841428Y-85405619D01*
X92817238Y-85381429D01*
X92793047Y-85333048D01*
X92768857Y-85236286D01*
X92768857Y-85115333D01*
X92793047Y-85018571D01*
X92817238Y-84970190D01*
X92841428Y-84946000D01*
X92889809Y-84921810D01*
X93542953Y-85429810D02*
X93252667Y-85429810D01*
X93397810Y-85429810D02*
X93397810Y-84921810D01*
X93349429Y-84994381D01*
X93301048Y-85042762D01*
X93252667Y-85066952D01*
X100821523Y-85281429D02*
X100797333Y-85305619D01*
X100724761Y-85329810D01*
X100676380Y-85329810D01*
X100603809Y-85305619D01*
X100555428Y-85257238D01*
X100531237Y-85208857D01*
X100507047Y-85112095D01*
X100507047Y-85039524D01*
X100531237Y-84942762D01*
X100555428Y-84894381D01*
X100603809Y-84846000D01*
X100676380Y-84821810D01*
X100724761Y-84821810D01*
X100797333Y-84846000D01*
X100821523Y-84870190D01*
X101305333Y-85329810D02*
X101015047Y-85329810D01*
X101160190Y-85329810D02*
X101160190Y-84821810D01*
X101111809Y-84894381D01*
X101063428Y-84942762D01*
X101015047Y-84966952D01*
X101619809Y-84821810D02*
X101668190Y-84821810D01*
X101716571Y-84846000D01*
X101740762Y-84870190D01*
X101764952Y-84918571D01*
X101789143Y-85015333D01*
X101789143Y-85136286D01*
X101764952Y-85233048D01*
X101740762Y-85281429D01*
X101716571Y-85305619D01*
X101668190Y-85329810D01*
X101619809Y-85329810D01*
X101571428Y-85305619D01*
X101547238Y-85281429D01*
X101523047Y-85233048D01*
X101498857Y-85136286D01*
X101498857Y-85015333D01*
X101523047Y-84918571D01*
X101547238Y-84870190D01*
X101571428Y-84846000D01*
X101619809Y-84821810D01*
X101982667Y-84870190D02*
X102006857Y-84846000D01*
X102055238Y-84821810D01*
X102176191Y-84821810D01*
X102224572Y-84846000D01*
X102248762Y-84870190D01*
X102272953Y-84918571D01*
X102272953Y-84966952D01*
X102248762Y-85039524D01*
X101958476Y-85329810D01*
X102272953Y-85329810D01*
X121781429Y-98968477D02*
X121805619Y-98992667D01*
X121829810Y-99065239D01*
X121829810Y-99113620D01*
X121805619Y-99186191D01*
X121757238Y-99234572D01*
X121708857Y-99258763D01*
X121612095Y-99282953D01*
X121539524Y-99282953D01*
X121442762Y-99258763D01*
X121394381Y-99234572D01*
X121346000Y-99186191D01*
X121321810Y-99113620D01*
X121321810Y-99065239D01*
X121346000Y-98992667D01*
X121370190Y-98968477D01*
X121370190Y-98774953D02*
X121346000Y-98750763D01*
X121321810Y-98702382D01*
X121321810Y-98581429D01*
X121346000Y-98533048D01*
X121370190Y-98508858D01*
X121418571Y-98484667D01*
X121466952Y-98484667D01*
X121539524Y-98508858D01*
X121829810Y-98799144D01*
X121829810Y-98484667D01*
X121321810Y-98170191D02*
X121321810Y-98121810D01*
X121346000Y-98073429D01*
X121370190Y-98049238D01*
X121418571Y-98025048D01*
X121515333Y-98000857D01*
X121636286Y-98000857D01*
X121733048Y-98025048D01*
X121781429Y-98049238D01*
X121805619Y-98073429D01*
X121829810Y-98121810D01*
X121829810Y-98170191D01*
X121805619Y-98218572D01*
X121781429Y-98242762D01*
X121733048Y-98266953D01*
X121636286Y-98291143D01*
X121515333Y-98291143D01*
X121418571Y-98266953D01*
X121370190Y-98242762D01*
X121346000Y-98218572D01*
X121321810Y-98170191D01*
X121829810Y-97517047D02*
X121829810Y-97807333D01*
X121829810Y-97662190D02*
X121321810Y-97662190D01*
X121394381Y-97710571D01*
X121442762Y-97758952D01*
X121466952Y-97807333D01*
X103001523Y-94851429D02*
X102977333Y-94875619D01*
X102904761Y-94899810D01*
X102856380Y-94899810D01*
X102783809Y-94875619D01*
X102735428Y-94827238D01*
X102711237Y-94778857D01*
X102687047Y-94682095D01*
X102687047Y-94609524D01*
X102711237Y-94512762D01*
X102735428Y-94464381D01*
X102783809Y-94416000D01*
X102856380Y-94391810D01*
X102904761Y-94391810D01*
X102977333Y-94416000D01*
X103001523Y-94440190D01*
X103195047Y-94440190D02*
X103219237Y-94416000D01*
X103267618Y-94391810D01*
X103388571Y-94391810D01*
X103436952Y-94416000D01*
X103461142Y-94440190D01*
X103485333Y-94488571D01*
X103485333Y-94536952D01*
X103461142Y-94609524D01*
X103170856Y-94899810D01*
X103485333Y-94899810D01*
X103799809Y-94391810D02*
X103848190Y-94391810D01*
X103896571Y-94416000D01*
X103920762Y-94440190D01*
X103944952Y-94488571D01*
X103969143Y-94585333D01*
X103969143Y-94706286D01*
X103944952Y-94803048D01*
X103920762Y-94851429D01*
X103896571Y-94875619D01*
X103848190Y-94899810D01*
X103799809Y-94899810D01*
X103751428Y-94875619D01*
X103727238Y-94851429D01*
X103703047Y-94803048D01*
X103678857Y-94706286D01*
X103678857Y-94585333D01*
X103703047Y-94488571D01*
X103727238Y-94440190D01*
X103751428Y-94416000D01*
X103799809Y-94391810D01*
X104162667Y-94440190D02*
X104186857Y-94416000D01*
X104235238Y-94391810D01*
X104356191Y-94391810D01*
X104404572Y-94416000D01*
X104428762Y-94440190D01*
X104452953Y-94488571D01*
X104452953Y-94536952D01*
X104428762Y-94609524D01*
X104138476Y-94899810D01*
X104452953Y-94899810D01*
X123291523Y-97271429D02*
X123267333Y-97295619D01*
X123194761Y-97319810D01*
X123146380Y-97319810D01*
X123073809Y-97295619D01*
X123025428Y-97247238D01*
X123001237Y-97198857D01*
X122977047Y-97102095D01*
X122977047Y-97029524D01*
X123001237Y-96932762D01*
X123025428Y-96884381D01*
X123073809Y-96836000D01*
X123146380Y-96811810D01*
X123194761Y-96811810D01*
X123267333Y-96836000D01*
X123291523Y-96860190D01*
X123485047Y-96860190D02*
X123509237Y-96836000D01*
X123557618Y-96811810D01*
X123678571Y-96811810D01*
X123726952Y-96836000D01*
X123751142Y-96860190D01*
X123775333Y-96908571D01*
X123775333Y-96956952D01*
X123751142Y-97029524D01*
X123460856Y-97319810D01*
X123775333Y-97319810D01*
X124089809Y-96811810D02*
X124138190Y-96811810D01*
X124186571Y-96836000D01*
X124210762Y-96860190D01*
X124234952Y-96908571D01*
X124259143Y-97005333D01*
X124259143Y-97126286D01*
X124234952Y-97223048D01*
X124210762Y-97271429D01*
X124186571Y-97295619D01*
X124138190Y-97319810D01*
X124089809Y-97319810D01*
X124041428Y-97295619D01*
X124017238Y-97271429D01*
X123993047Y-97223048D01*
X123968857Y-97126286D01*
X123968857Y-97005333D01*
X123993047Y-96908571D01*
X124017238Y-96860190D01*
X124041428Y-96836000D01*
X124089809Y-96811810D01*
X124428476Y-96811810D02*
X124742953Y-96811810D01*
X124573619Y-97005333D01*
X124646191Y-97005333D01*
X124694572Y-97029524D01*
X124718762Y-97053714D01*
X124742953Y-97102095D01*
X124742953Y-97223048D01*
X124718762Y-97271429D01*
X124694572Y-97295619D01*
X124646191Y-97319810D01*
X124501048Y-97319810D01*
X124452667Y-97295619D01*
X124428476Y-97271429D01*
X119521429Y-92308477D02*
X119545619Y-92332667D01*
X119569810Y-92405239D01*
X119569810Y-92453620D01*
X119545619Y-92526191D01*
X119497238Y-92574572D01*
X119448857Y-92598763D01*
X119352095Y-92622953D01*
X119279524Y-92622953D01*
X119182762Y-92598763D01*
X119134381Y-92574572D01*
X119086000Y-92526191D01*
X119061810Y-92453620D01*
X119061810Y-92405239D01*
X119086000Y-92332667D01*
X119110190Y-92308477D01*
X119061810Y-92139144D02*
X119061810Y-91824667D01*
X119255333Y-91994001D01*
X119255333Y-91921429D01*
X119279524Y-91873048D01*
X119303714Y-91848858D01*
X119352095Y-91824667D01*
X119473048Y-91824667D01*
X119521429Y-91848858D01*
X119545619Y-91873048D01*
X119569810Y-91921429D01*
X119569810Y-92066572D01*
X119545619Y-92114953D01*
X119521429Y-92139144D01*
X119061810Y-91510191D02*
X119061810Y-91461810D01*
X119086000Y-91413429D01*
X119110190Y-91389238D01*
X119158571Y-91365048D01*
X119255333Y-91340857D01*
X119376286Y-91340857D01*
X119473048Y-91365048D01*
X119521429Y-91389238D01*
X119545619Y-91413429D01*
X119569810Y-91461810D01*
X119569810Y-91510191D01*
X119545619Y-91558572D01*
X119521429Y-91582762D01*
X119473048Y-91606953D01*
X119376286Y-91631143D01*
X119255333Y-91631143D01*
X119158571Y-91606953D01*
X119110190Y-91582762D01*
X119086000Y-91558572D01*
X119061810Y-91510191D01*
X119569810Y-90857047D02*
X119569810Y-91147333D01*
X119569810Y-91002190D02*
X119061810Y-91002190D01*
X119134381Y-91050571D01*
X119182762Y-91098952D01*
X119206952Y-91147333D01*
X111811429Y-85778477D02*
X111835619Y-85802667D01*
X111859810Y-85875239D01*
X111859810Y-85923620D01*
X111835619Y-85996191D01*
X111787238Y-86044572D01*
X111738857Y-86068763D01*
X111642095Y-86092953D01*
X111569524Y-86092953D01*
X111472762Y-86068763D01*
X111424381Y-86044572D01*
X111376000Y-85996191D01*
X111351810Y-85923620D01*
X111351810Y-85875239D01*
X111376000Y-85802667D01*
X111400190Y-85778477D01*
X111521143Y-85343048D02*
X111859810Y-85343048D01*
X111327619Y-85464001D02*
X111690476Y-85584953D01*
X111690476Y-85270477D01*
X111351810Y-84980191D02*
X111351810Y-84931810D01*
X111376000Y-84883429D01*
X111400190Y-84859238D01*
X111448571Y-84835048D01*
X111545333Y-84810857D01*
X111666286Y-84810857D01*
X111763048Y-84835048D01*
X111811429Y-84859238D01*
X111835619Y-84883429D01*
X111859810Y-84931810D01*
X111859810Y-84980191D01*
X111835619Y-85028572D01*
X111811429Y-85052762D01*
X111763048Y-85076953D01*
X111666286Y-85101143D01*
X111545333Y-85101143D01*
X111448571Y-85076953D01*
X111400190Y-85052762D01*
X111376000Y-85028572D01*
X111351810Y-84980191D01*
X111859810Y-84327047D02*
X111859810Y-84617333D01*
X111859810Y-84472190D02*
X111351810Y-84472190D01*
X111424381Y-84520571D01*
X111472762Y-84568952D01*
X111496952Y-84617333D01*
X105231429Y-86238477D02*
X105255619Y-86262667D01*
X105279810Y-86335239D01*
X105279810Y-86383620D01*
X105255619Y-86456191D01*
X105207238Y-86504572D01*
X105158857Y-86528763D01*
X105062095Y-86552953D01*
X104989524Y-86552953D01*
X104892762Y-86528763D01*
X104844381Y-86504572D01*
X104796000Y-86456191D01*
X104771810Y-86383620D01*
X104771810Y-86335239D01*
X104796000Y-86262667D01*
X104820190Y-86238477D01*
X104771810Y-85778858D02*
X104771810Y-86020763D01*
X105013714Y-86044953D01*
X104989524Y-86020763D01*
X104965333Y-85972382D01*
X104965333Y-85851429D01*
X104989524Y-85803048D01*
X105013714Y-85778858D01*
X105062095Y-85754667D01*
X105183048Y-85754667D01*
X105231429Y-85778858D01*
X105255619Y-85803048D01*
X105279810Y-85851429D01*
X105279810Y-85972382D01*
X105255619Y-86020763D01*
X105231429Y-86044953D01*
X104771810Y-85440191D02*
X104771810Y-85391810D01*
X104796000Y-85343429D01*
X104820190Y-85319238D01*
X104868571Y-85295048D01*
X104965333Y-85270857D01*
X105086286Y-85270857D01*
X105183048Y-85295048D01*
X105231429Y-85319238D01*
X105255619Y-85343429D01*
X105279810Y-85391810D01*
X105279810Y-85440191D01*
X105255619Y-85488572D01*
X105231429Y-85512762D01*
X105183048Y-85536953D01*
X105086286Y-85561143D01*
X104965333Y-85561143D01*
X104868571Y-85536953D01*
X104820190Y-85512762D01*
X104796000Y-85488572D01*
X104771810Y-85440191D01*
X105279810Y-84787047D02*
X105279810Y-85077333D01*
X105279810Y-84932190D02*
X104771810Y-84932190D01*
X104844381Y-84980571D01*
X104892762Y-85028952D01*
X104916952Y-85077333D01*
X94289810Y-90368763D02*
X93781810Y-90368763D01*
X93781810Y-90175239D01*
X93806000Y-90126858D01*
X93830190Y-90102667D01*
X93878571Y-90078477D01*
X93951143Y-90078477D01*
X93999524Y-90102667D01*
X94023714Y-90126858D01*
X94047905Y-90175239D01*
X94047905Y-90368763D01*
X94289810Y-89594667D02*
X94289810Y-89884953D01*
X94289810Y-89739810D02*
X93781810Y-89739810D01*
X93854381Y-89788191D01*
X93902762Y-89836572D01*
X93926952Y-89884953D01*
X93781810Y-89280191D02*
X93781810Y-89231810D01*
X93806000Y-89183429D01*
X93830190Y-89159238D01*
X93878571Y-89135048D01*
X93975333Y-89110857D01*
X94096286Y-89110857D01*
X94193048Y-89135048D01*
X94241429Y-89159238D01*
X94265619Y-89183429D01*
X94289810Y-89231810D01*
X94289810Y-89280191D01*
X94265619Y-89328572D01*
X94241429Y-89352762D01*
X94193048Y-89376953D01*
X94096286Y-89401143D01*
X93975333Y-89401143D01*
X93878571Y-89376953D01*
X93830190Y-89352762D01*
X93806000Y-89328572D01*
X93781810Y-89280191D01*
X94289810Y-88627047D02*
X94289810Y-88917333D01*
X94289810Y-88772190D02*
X93781810Y-88772190D01*
X93854381Y-88820571D01*
X93902762Y-88868952D01*
X93926952Y-88917333D01*
X147201237Y-85879810D02*
X147201237Y-85371810D01*
X147394761Y-85371810D01*
X147443142Y-85396000D01*
X147467333Y-85420190D01*
X147491523Y-85468571D01*
X147491523Y-85541143D01*
X147467333Y-85589524D01*
X147443142Y-85613714D01*
X147394761Y-85637905D01*
X147201237Y-85637905D01*
X147975333Y-85879810D02*
X147685047Y-85879810D01*
X147830190Y-85879810D02*
X147830190Y-85371810D01*
X147781809Y-85444381D01*
X147733428Y-85492762D01*
X147685047Y-85516952D01*
X148289809Y-85371810D02*
X148338190Y-85371810D01*
X148386571Y-85396000D01*
X148410762Y-85420190D01*
X148434952Y-85468571D01*
X148459143Y-85565333D01*
X148459143Y-85686286D01*
X148434952Y-85783048D01*
X148410762Y-85831429D01*
X148386571Y-85855619D01*
X148338190Y-85879810D01*
X148289809Y-85879810D01*
X148241428Y-85855619D01*
X148217238Y-85831429D01*
X148193047Y-85783048D01*
X148168857Y-85686286D01*
X148168857Y-85565333D01*
X148193047Y-85468571D01*
X148217238Y-85420190D01*
X148241428Y-85396000D01*
X148289809Y-85371810D01*
X148918762Y-85371810D02*
X148676857Y-85371810D01*
X148652667Y-85613714D01*
X148676857Y-85589524D01*
X148725238Y-85565333D01*
X148846191Y-85565333D01*
X148894572Y-85589524D01*
X148918762Y-85613714D01*
X148942953Y-85662095D01*
X148942953Y-85783048D01*
X148918762Y-85831429D01*
X148894572Y-85855619D01*
X148846191Y-85879810D01*
X148725238Y-85879810D01*
X148676857Y-85855619D01*
X148652667Y-85831429D01*
X98751523Y-99109810D02*
X98582190Y-98867905D01*
X98461237Y-99109810D02*
X98461237Y-98601810D01*
X98654761Y-98601810D01*
X98703142Y-98626000D01*
X98727333Y-98650190D01*
X98751523Y-98698571D01*
X98751523Y-98771143D01*
X98727333Y-98819524D01*
X98703142Y-98843714D01*
X98654761Y-98867905D01*
X98461237Y-98867905D01*
X99235333Y-99109810D02*
X98945047Y-99109810D01*
X99090190Y-99109810D02*
X99090190Y-98601810D01*
X99041809Y-98674381D01*
X98993428Y-98722762D01*
X98945047Y-98746952D01*
X99549809Y-98601810D02*
X99598190Y-98601810D01*
X99646571Y-98626000D01*
X99670762Y-98650190D01*
X99694952Y-98698571D01*
X99719143Y-98795333D01*
X99719143Y-98916286D01*
X99694952Y-99013048D01*
X99670762Y-99061429D01*
X99646571Y-99085619D01*
X99598190Y-99109810D01*
X99549809Y-99109810D01*
X99501428Y-99085619D01*
X99477238Y-99061429D01*
X99453047Y-99013048D01*
X99428857Y-98916286D01*
X99428857Y-98795333D01*
X99453047Y-98698571D01*
X99477238Y-98650190D01*
X99501428Y-98626000D01*
X99549809Y-98601810D01*
X100202953Y-99109810D02*
X99912667Y-99109810D01*
X100057810Y-99109810D02*
X100057810Y-98601810D01*
X100009429Y-98674381D01*
X99961048Y-98722762D01*
X99912667Y-98746952D01*
X92171523Y-99079810D02*
X92002190Y-98837905D01*
X91881237Y-99079810D02*
X91881237Y-98571810D01*
X92074761Y-98571810D01*
X92123142Y-98596000D01*
X92147333Y-98620190D01*
X92171523Y-98668571D01*
X92171523Y-98741143D01*
X92147333Y-98789524D01*
X92123142Y-98813714D01*
X92074761Y-98837905D01*
X91881237Y-98837905D01*
X92655333Y-99079810D02*
X92365047Y-99079810D01*
X92510190Y-99079810D02*
X92510190Y-98571810D01*
X92461809Y-98644381D01*
X92413428Y-98692762D01*
X92365047Y-98716952D01*
X92969809Y-98571810D02*
X93018190Y-98571810D01*
X93066571Y-98596000D01*
X93090762Y-98620190D01*
X93114952Y-98668571D01*
X93139143Y-98765333D01*
X93139143Y-98886286D01*
X93114952Y-98983048D01*
X93090762Y-99031429D01*
X93066571Y-99055619D01*
X93018190Y-99079810D01*
X92969809Y-99079810D01*
X92921428Y-99055619D01*
X92897238Y-99031429D01*
X92873047Y-98983048D01*
X92848857Y-98886286D01*
X92848857Y-98765333D01*
X92873047Y-98668571D01*
X92897238Y-98620190D01*
X92921428Y-98596000D01*
X92969809Y-98571810D01*
X93332667Y-98620190D02*
X93356857Y-98596000D01*
X93405238Y-98571810D01*
X93526191Y-98571810D01*
X93574572Y-98596000D01*
X93598762Y-98620190D01*
X93622953Y-98668571D01*
X93622953Y-98716952D01*
X93598762Y-98789524D01*
X93308476Y-99079810D01*
X93622953Y-99079810D01*
X95769810Y-95528477D02*
X95527905Y-95697810D01*
X95769810Y-95818763D02*
X95261810Y-95818763D01*
X95261810Y-95625239D01*
X95286000Y-95576858D01*
X95310190Y-95552667D01*
X95358571Y-95528477D01*
X95431143Y-95528477D01*
X95479524Y-95552667D01*
X95503714Y-95576858D01*
X95527905Y-95625239D01*
X95527905Y-95818763D01*
X95769810Y-95044667D02*
X95769810Y-95334953D01*
X95769810Y-95189810D02*
X95261810Y-95189810D01*
X95334381Y-95238191D01*
X95382762Y-95286572D01*
X95406952Y-95334953D01*
X95261810Y-94730191D02*
X95261810Y-94681810D01*
X95286000Y-94633429D01*
X95310190Y-94609238D01*
X95358571Y-94585048D01*
X95455333Y-94560857D01*
X95576286Y-94560857D01*
X95673048Y-94585048D01*
X95721429Y-94609238D01*
X95745619Y-94633429D01*
X95769810Y-94681810D01*
X95769810Y-94730191D01*
X95745619Y-94778572D01*
X95721429Y-94802762D01*
X95673048Y-94826953D01*
X95576286Y-94851143D01*
X95455333Y-94851143D01*
X95358571Y-94826953D01*
X95310190Y-94802762D01*
X95286000Y-94778572D01*
X95261810Y-94730191D01*
X95261810Y-94391524D02*
X95261810Y-94077047D01*
X95455333Y-94246381D01*
X95455333Y-94173809D01*
X95479524Y-94125428D01*
X95503714Y-94101238D01*
X95552095Y-94077047D01*
X95673048Y-94077047D01*
X95721429Y-94101238D01*
X95745619Y-94125428D01*
X95769810Y-94173809D01*
X95769810Y-94318952D01*
X95745619Y-94367333D01*
X95721429Y-94391524D01*
X106921523Y-99679810D02*
X106752190Y-99437905D01*
X106631237Y-99679810D02*
X106631237Y-99171810D01*
X106824761Y-99171810D01*
X106873142Y-99196000D01*
X106897333Y-99220190D01*
X106921523Y-99268571D01*
X106921523Y-99341143D01*
X106897333Y-99389524D01*
X106873142Y-99413714D01*
X106824761Y-99437905D01*
X106631237Y-99437905D01*
X107115047Y-99220190D02*
X107139237Y-99196000D01*
X107187618Y-99171810D01*
X107308571Y-99171810D01*
X107356952Y-99196000D01*
X107381142Y-99220190D01*
X107405333Y-99268571D01*
X107405333Y-99316952D01*
X107381142Y-99389524D01*
X107090856Y-99679810D01*
X107405333Y-99679810D01*
X107719809Y-99171810D02*
X107768190Y-99171810D01*
X107816571Y-99196000D01*
X107840762Y-99220190D01*
X107864952Y-99268571D01*
X107889143Y-99365333D01*
X107889143Y-99486286D01*
X107864952Y-99583048D01*
X107840762Y-99631429D01*
X107816571Y-99655619D01*
X107768190Y-99679810D01*
X107719809Y-99679810D01*
X107671428Y-99655619D01*
X107647238Y-99631429D01*
X107623047Y-99583048D01*
X107598857Y-99486286D01*
X107598857Y-99365333D01*
X107623047Y-99268571D01*
X107647238Y-99220190D01*
X107671428Y-99196000D01*
X107719809Y-99171810D01*
X108372953Y-99679810D02*
X108082667Y-99679810D01*
X108227810Y-99679810D02*
X108227810Y-99171810D01*
X108179429Y-99244381D01*
X108131048Y-99292762D01*
X108082667Y-99316952D01*
X138151523Y-89699810D02*
X137982190Y-89457905D01*
X137861237Y-89699810D02*
X137861237Y-89191810D01*
X138054761Y-89191810D01*
X138103142Y-89216000D01*
X138127333Y-89240190D01*
X138151523Y-89288571D01*
X138151523Y-89361143D01*
X138127333Y-89409524D01*
X138103142Y-89433714D01*
X138054761Y-89457905D01*
X137861237Y-89457905D01*
X138345047Y-89240190D02*
X138369237Y-89216000D01*
X138417618Y-89191810D01*
X138538571Y-89191810D01*
X138586952Y-89216000D01*
X138611142Y-89240190D01*
X138635333Y-89288571D01*
X138635333Y-89336952D01*
X138611142Y-89409524D01*
X138320856Y-89699810D01*
X138635333Y-89699810D01*
X138949809Y-89191810D02*
X138998190Y-89191810D01*
X139046571Y-89216000D01*
X139070762Y-89240190D01*
X139094952Y-89288571D01*
X139119143Y-89385333D01*
X139119143Y-89506286D01*
X139094952Y-89603048D01*
X139070762Y-89651429D01*
X139046571Y-89675619D01*
X138998190Y-89699810D01*
X138949809Y-89699810D01*
X138901428Y-89675619D01*
X138877238Y-89651429D01*
X138853047Y-89603048D01*
X138828857Y-89506286D01*
X138828857Y-89385333D01*
X138853047Y-89288571D01*
X138877238Y-89240190D01*
X138901428Y-89216000D01*
X138949809Y-89191810D01*
X139312667Y-89240190D02*
X139336857Y-89216000D01*
X139385238Y-89191810D01*
X139506191Y-89191810D01*
X139554572Y-89216000D01*
X139578762Y-89240190D01*
X139602953Y-89288571D01*
X139602953Y-89336952D01*
X139578762Y-89409524D01*
X139288476Y-89699810D01*
X139602953Y-89699810D01*
X113431523Y-97279810D02*
X113262190Y-97037905D01*
X113141237Y-97279810D02*
X113141237Y-96771810D01*
X113334761Y-96771810D01*
X113383142Y-96796000D01*
X113407333Y-96820190D01*
X113431523Y-96868571D01*
X113431523Y-96941143D01*
X113407333Y-96989524D01*
X113383142Y-97013714D01*
X113334761Y-97037905D01*
X113141237Y-97037905D01*
X113625047Y-96820190D02*
X113649237Y-96796000D01*
X113697618Y-96771810D01*
X113818571Y-96771810D01*
X113866952Y-96796000D01*
X113891142Y-96820190D01*
X113915333Y-96868571D01*
X113915333Y-96916952D01*
X113891142Y-96989524D01*
X113600856Y-97279810D01*
X113915333Y-97279810D01*
X114229809Y-96771810D02*
X114278190Y-96771810D01*
X114326571Y-96796000D01*
X114350762Y-96820190D01*
X114374952Y-96868571D01*
X114399143Y-96965333D01*
X114399143Y-97086286D01*
X114374952Y-97183048D01*
X114350762Y-97231429D01*
X114326571Y-97255619D01*
X114278190Y-97279810D01*
X114229809Y-97279810D01*
X114181428Y-97255619D01*
X114157238Y-97231429D01*
X114133047Y-97183048D01*
X114108857Y-97086286D01*
X114108857Y-96965333D01*
X114133047Y-96868571D01*
X114157238Y-96820190D01*
X114181428Y-96796000D01*
X114229809Y-96771810D01*
X114568476Y-96771810D02*
X114882953Y-96771810D01*
X114713619Y-96965333D01*
X114786191Y-96965333D01*
X114834572Y-96989524D01*
X114858762Y-97013714D01*
X114882953Y-97062095D01*
X114882953Y-97183048D01*
X114858762Y-97231429D01*
X114834572Y-97255619D01*
X114786191Y-97279810D01*
X114641048Y-97279810D01*
X114592667Y-97255619D01*
X114568476Y-97231429D01*
X116879810Y-95208477D02*
X116637905Y-95377810D01*
X116879810Y-95498763D02*
X116371810Y-95498763D01*
X116371810Y-95305239D01*
X116396000Y-95256858D01*
X116420190Y-95232667D01*
X116468571Y-95208477D01*
X116541143Y-95208477D01*
X116589524Y-95232667D01*
X116613714Y-95256858D01*
X116637905Y-95305239D01*
X116637905Y-95498763D01*
X116371810Y-95039144D02*
X116371810Y-94724667D01*
X116565333Y-94894001D01*
X116565333Y-94821429D01*
X116589524Y-94773048D01*
X116613714Y-94748858D01*
X116662095Y-94724667D01*
X116783048Y-94724667D01*
X116831429Y-94748858D01*
X116855619Y-94773048D01*
X116879810Y-94821429D01*
X116879810Y-94966572D01*
X116855619Y-95014953D01*
X116831429Y-95039144D01*
X116371810Y-94410191D02*
X116371810Y-94361810D01*
X116396000Y-94313429D01*
X116420190Y-94289238D01*
X116468571Y-94265048D01*
X116565333Y-94240857D01*
X116686286Y-94240857D01*
X116783048Y-94265048D01*
X116831429Y-94289238D01*
X116855619Y-94313429D01*
X116879810Y-94361810D01*
X116879810Y-94410191D01*
X116855619Y-94458572D01*
X116831429Y-94482762D01*
X116783048Y-94506953D01*
X116686286Y-94531143D01*
X116565333Y-94531143D01*
X116468571Y-94506953D01*
X116420190Y-94482762D01*
X116396000Y-94458572D01*
X116371810Y-94410191D01*
X116879810Y-93757047D02*
X116879810Y-94047333D01*
X116879810Y-93902190D02*
X116371810Y-93902190D01*
X116444381Y-93950571D01*
X116492762Y-93998952D01*
X116516952Y-94047333D01*
X117469810Y-88168477D02*
X117227905Y-88337810D01*
X117469810Y-88458763D02*
X116961810Y-88458763D01*
X116961810Y-88265239D01*
X116986000Y-88216858D01*
X117010190Y-88192667D01*
X117058571Y-88168477D01*
X117131143Y-88168477D01*
X117179524Y-88192667D01*
X117203714Y-88216858D01*
X117227905Y-88265239D01*
X117227905Y-88458763D01*
X117131143Y-87733048D02*
X117469810Y-87733048D01*
X116937619Y-87854001D02*
X117300476Y-87974953D01*
X117300476Y-87660477D01*
X116961810Y-87370191D02*
X116961810Y-87321810D01*
X116986000Y-87273429D01*
X117010190Y-87249238D01*
X117058571Y-87225048D01*
X117155333Y-87200857D01*
X117276286Y-87200857D01*
X117373048Y-87225048D01*
X117421429Y-87249238D01*
X117445619Y-87273429D01*
X117469810Y-87321810D01*
X117469810Y-87370191D01*
X117445619Y-87418572D01*
X117421429Y-87442762D01*
X117373048Y-87466953D01*
X117276286Y-87491143D01*
X117155333Y-87491143D01*
X117058571Y-87466953D01*
X117010190Y-87442762D01*
X116986000Y-87418572D01*
X116961810Y-87370191D01*
X117469810Y-86717047D02*
X117469810Y-87007333D01*
X117469810Y-86862190D02*
X116961810Y-86862190D01*
X117034381Y-86910571D01*
X117082762Y-86958952D01*
X117106952Y-87007333D01*
X105289810Y-88488477D02*
X105047905Y-88657810D01*
X105289810Y-88778763D02*
X104781810Y-88778763D01*
X104781810Y-88585239D01*
X104806000Y-88536858D01*
X104830190Y-88512667D01*
X104878571Y-88488477D01*
X104951143Y-88488477D01*
X104999524Y-88512667D01*
X105023714Y-88536858D01*
X105047905Y-88585239D01*
X105047905Y-88778763D01*
X104781810Y-88028858D02*
X104781810Y-88270763D01*
X105023714Y-88294953D01*
X104999524Y-88270763D01*
X104975333Y-88222382D01*
X104975333Y-88101429D01*
X104999524Y-88053048D01*
X105023714Y-88028858D01*
X105072095Y-88004667D01*
X105193048Y-88004667D01*
X105241429Y-88028858D01*
X105265619Y-88053048D01*
X105289810Y-88101429D01*
X105289810Y-88222382D01*
X105265619Y-88270763D01*
X105241429Y-88294953D01*
X104781810Y-87690191D02*
X104781810Y-87641810D01*
X104806000Y-87593429D01*
X104830190Y-87569238D01*
X104878571Y-87545048D01*
X104975333Y-87520857D01*
X105096286Y-87520857D01*
X105193048Y-87545048D01*
X105241429Y-87569238D01*
X105265619Y-87593429D01*
X105289810Y-87641810D01*
X105289810Y-87690191D01*
X105265619Y-87738572D01*
X105241429Y-87762762D01*
X105193048Y-87786953D01*
X105096286Y-87811143D01*
X104975333Y-87811143D01*
X104878571Y-87786953D01*
X104830190Y-87762762D01*
X104806000Y-87738572D01*
X104781810Y-87690191D01*
X105289810Y-87037047D02*
X105289810Y-87327333D01*
X105289810Y-87182190D02*
X104781810Y-87182190D01*
X104854381Y-87230571D01*
X104902762Y-87278952D01*
X104926952Y-87327333D01*
X96239142Y-87251810D02*
X96239142Y-87663048D01*
X96263333Y-87711429D01*
X96287523Y-87735619D01*
X96335904Y-87759810D01*
X96432666Y-87759810D01*
X96481047Y-87735619D01*
X96505238Y-87711429D01*
X96529428Y-87663048D01*
X96529428Y-87251810D01*
X97037428Y-87759810D02*
X96747142Y-87759810D01*
X96892285Y-87759810D02*
X96892285Y-87251810D01*
X96843904Y-87324381D01*
X96795523Y-87372762D01*
X96747142Y-87396952D01*
X97351904Y-87251810D02*
X97400285Y-87251810D01*
X97448666Y-87276000D01*
X97472857Y-87300190D01*
X97497047Y-87348571D01*
X97521238Y-87445333D01*
X97521238Y-87566286D01*
X97497047Y-87663048D01*
X97472857Y-87711429D01*
X97448666Y-87735619D01*
X97400285Y-87759810D01*
X97351904Y-87759810D01*
X97303523Y-87735619D01*
X97279333Y-87711429D01*
X97255142Y-87663048D01*
X97230952Y-87566286D01*
X97230952Y-87445333D01*
X97255142Y-87348571D01*
X97279333Y-87300190D01*
X97303523Y-87276000D01*
X97351904Y-87251810D01*
X98005048Y-87759810D02*
X97714762Y-87759810D01*
X97859905Y-87759810D02*
X97859905Y-87251810D01*
X97811524Y-87324381D01*
X97763143Y-87372762D01*
X97714762Y-87396952D01*
X105721810Y-94720858D02*
X106133048Y-94720858D01*
X106181429Y-94696667D01*
X106205619Y-94672477D01*
X106229810Y-94624096D01*
X106229810Y-94527334D01*
X106205619Y-94478953D01*
X106181429Y-94454762D01*
X106133048Y-94430572D01*
X105721810Y-94430572D01*
X105770190Y-94212858D02*
X105746000Y-94188668D01*
X105721810Y-94140287D01*
X105721810Y-94019334D01*
X105746000Y-93970953D01*
X105770190Y-93946763D01*
X105818571Y-93922572D01*
X105866952Y-93922572D01*
X105939524Y-93946763D01*
X106229810Y-94237049D01*
X106229810Y-93922572D01*
X105721810Y-93608096D02*
X105721810Y-93559715D01*
X105746000Y-93511334D01*
X105770190Y-93487143D01*
X105818571Y-93462953D01*
X105915333Y-93438762D01*
X106036286Y-93438762D01*
X106133048Y-93462953D01*
X106181429Y-93487143D01*
X106205619Y-93511334D01*
X106229810Y-93559715D01*
X106229810Y-93608096D01*
X106205619Y-93656477D01*
X106181429Y-93680667D01*
X106133048Y-93704858D01*
X106036286Y-93729048D01*
X105915333Y-93729048D01*
X105818571Y-93704858D01*
X105770190Y-93680667D01*
X105746000Y-93656477D01*
X105721810Y-93608096D01*
X106229810Y-92954952D02*
X106229810Y-93245238D01*
X106229810Y-93100095D02*
X105721810Y-93100095D01*
X105794381Y-93148476D01*
X105842762Y-93196857D01*
X105866952Y-93245238D01*
X121741810Y-95010858D02*
X122153048Y-95010858D01*
X122201429Y-94986667D01*
X122225619Y-94962477D01*
X122249810Y-94914096D01*
X122249810Y-94817334D01*
X122225619Y-94768953D01*
X122201429Y-94744762D01*
X122153048Y-94720572D01*
X121741810Y-94720572D01*
X121790190Y-94502858D02*
X121766000Y-94478668D01*
X121741810Y-94430287D01*
X121741810Y-94309334D01*
X121766000Y-94260953D01*
X121790190Y-94236763D01*
X121838571Y-94212572D01*
X121886952Y-94212572D01*
X121959524Y-94236763D01*
X122249810Y-94527049D01*
X122249810Y-94212572D01*
X121741810Y-93898096D02*
X121741810Y-93849715D01*
X121766000Y-93801334D01*
X121790190Y-93777143D01*
X121838571Y-93752953D01*
X121935333Y-93728762D01*
X122056286Y-93728762D01*
X122153048Y-93752953D01*
X122201429Y-93777143D01*
X122225619Y-93801334D01*
X122249810Y-93849715D01*
X122249810Y-93898096D01*
X122225619Y-93946477D01*
X122201429Y-93970667D01*
X122153048Y-93994858D01*
X122056286Y-94019048D01*
X121935333Y-94019048D01*
X121838571Y-93994858D01*
X121790190Y-93970667D01*
X121766000Y-93946477D01*
X121741810Y-93898096D01*
X121790190Y-93535238D02*
X121766000Y-93511048D01*
X121741810Y-93462667D01*
X121741810Y-93341714D01*
X121766000Y-93293333D01*
X121790190Y-93269143D01*
X121838571Y-93244952D01*
X121886952Y-93244952D01*
X121959524Y-93269143D01*
X122249810Y-93559429D01*
X122249810Y-93244952D01*
X133959810Y-99276191D02*
X133717905Y-99445524D01*
X133959810Y-99566477D02*
X133451810Y-99566477D01*
X133451810Y-99372953D01*
X133476000Y-99324572D01*
X133500190Y-99300381D01*
X133548571Y-99276191D01*
X133621143Y-99276191D01*
X133669524Y-99300381D01*
X133693714Y-99324572D01*
X133717905Y-99372953D01*
X133717905Y-99566477D01*
X133451810Y-99131048D02*
X133959810Y-98961715D01*
X133451810Y-98792381D01*
X133500190Y-98647238D02*
X133476000Y-98623048D01*
X133451810Y-98574667D01*
X133451810Y-98453714D01*
X133476000Y-98405333D01*
X133500190Y-98381143D01*
X133548571Y-98356952D01*
X133596952Y-98356952D01*
X133669524Y-98381143D01*
X133959810Y-98671429D01*
X133959810Y-98356952D01*
X133451810Y-98042476D02*
X133451810Y-97994095D01*
X133476000Y-97945714D01*
X133500190Y-97921523D01*
X133548571Y-97897333D01*
X133645333Y-97873142D01*
X133766286Y-97873142D01*
X133863048Y-97897333D01*
X133911429Y-97921523D01*
X133935619Y-97945714D01*
X133959810Y-97994095D01*
X133959810Y-98042476D01*
X133935619Y-98090857D01*
X133911429Y-98115047D01*
X133863048Y-98139238D01*
X133766286Y-98163428D01*
X133645333Y-98163428D01*
X133548571Y-98139238D01*
X133500190Y-98115047D01*
X133476000Y-98090857D01*
X133451810Y-98042476D01*
X133959810Y-97389332D02*
X133959810Y-97679618D01*
X133959810Y-97534475D02*
X133451810Y-97534475D01*
X133524381Y-97582856D01*
X133572762Y-97631237D01*
X133596952Y-97679618D01*
X99571237Y-94809810D02*
X99571237Y-94301810D01*
X99764761Y-94301810D01*
X99813142Y-94326000D01*
X99837333Y-94350190D01*
X99861523Y-94398571D01*
X99861523Y-94471143D01*
X99837333Y-94519524D01*
X99813142Y-94543714D01*
X99764761Y-94567905D01*
X99571237Y-94567905D01*
X100345333Y-94809810D02*
X100055047Y-94809810D01*
X100200190Y-94809810D02*
X100200190Y-94301810D01*
X100151809Y-94374381D01*
X100103428Y-94422762D01*
X100055047Y-94446952D01*
X100659809Y-94301810D02*
X100708190Y-94301810D01*
X100756571Y-94326000D01*
X100780762Y-94350190D01*
X100804952Y-94398571D01*
X100829143Y-94495333D01*
X100829143Y-94616286D01*
X100804952Y-94713048D01*
X100780762Y-94761429D01*
X100756571Y-94785619D01*
X100708190Y-94809810D01*
X100659809Y-94809810D01*
X100611428Y-94785619D01*
X100587238Y-94761429D01*
X100563047Y-94713048D01*
X100538857Y-94616286D01*
X100538857Y-94495333D01*
X100563047Y-94398571D01*
X100587238Y-94350190D01*
X100611428Y-94326000D01*
X100659809Y-94301810D01*
X101022667Y-94350190D02*
X101046857Y-94326000D01*
X101095238Y-94301810D01*
X101216191Y-94301810D01*
X101264572Y-94326000D01*
X101288762Y-94350190D01*
X101312953Y-94398571D01*
X101312953Y-94446952D01*
X101288762Y-94519524D01*
X100998476Y-94809810D01*
X101312953Y-94809810D01*
X98531237Y-91649810D02*
X98531237Y-91141810D01*
X98724761Y-91141810D01*
X98773142Y-91166000D01*
X98797333Y-91190190D01*
X98821523Y-91238571D01*
X98821523Y-91311143D01*
X98797333Y-91359524D01*
X98773142Y-91383714D01*
X98724761Y-91407905D01*
X98531237Y-91407905D01*
X99305333Y-91649810D02*
X99015047Y-91649810D01*
X99160190Y-91649810D02*
X99160190Y-91141810D01*
X99111809Y-91214381D01*
X99063428Y-91262762D01*
X99015047Y-91286952D01*
X99619809Y-91141810D02*
X99668190Y-91141810D01*
X99716571Y-91166000D01*
X99740762Y-91190190D01*
X99764952Y-91238571D01*
X99789143Y-91335333D01*
X99789143Y-91456286D01*
X99764952Y-91553048D01*
X99740762Y-91601429D01*
X99716571Y-91625619D01*
X99668190Y-91649810D01*
X99619809Y-91649810D01*
X99571428Y-91625619D01*
X99547238Y-91601429D01*
X99523047Y-91553048D01*
X99498857Y-91456286D01*
X99498857Y-91335333D01*
X99523047Y-91238571D01*
X99547238Y-91190190D01*
X99571428Y-91166000D01*
X99619809Y-91141810D01*
X99958476Y-91141810D02*
X100272953Y-91141810D01*
X100103619Y-91335333D01*
X100176191Y-91335333D01*
X100224572Y-91359524D01*
X100248762Y-91383714D01*
X100272953Y-91432095D01*
X100272953Y-91553048D01*
X100248762Y-91601429D01*
X100224572Y-91625619D01*
X100176191Y-91649810D01*
X100031048Y-91649810D01*
X99982667Y-91625619D01*
X99958476Y-91601429D01*
X95921237Y-84879810D02*
X95921237Y-84371810D01*
X96114761Y-84371810D01*
X96163142Y-84396000D01*
X96187333Y-84420190D01*
X96211523Y-84468571D01*
X96211523Y-84541143D01*
X96187333Y-84589524D01*
X96163142Y-84613714D01*
X96114761Y-84637905D01*
X95921237Y-84637905D01*
X96695333Y-84879810D02*
X96405047Y-84879810D01*
X96550190Y-84879810D02*
X96550190Y-84371810D01*
X96501809Y-84444381D01*
X96453428Y-84492762D01*
X96405047Y-84516952D01*
X97009809Y-84371810D02*
X97058190Y-84371810D01*
X97106571Y-84396000D01*
X97130762Y-84420190D01*
X97154952Y-84468571D01*
X97179143Y-84565333D01*
X97179143Y-84686286D01*
X97154952Y-84783048D01*
X97130762Y-84831429D01*
X97106571Y-84855619D01*
X97058190Y-84879810D01*
X97009809Y-84879810D01*
X96961428Y-84855619D01*
X96937238Y-84831429D01*
X96913047Y-84783048D01*
X96888857Y-84686286D01*
X96888857Y-84565333D01*
X96913047Y-84468571D01*
X96937238Y-84420190D01*
X96961428Y-84396000D01*
X97009809Y-84371810D01*
X97614572Y-84541143D02*
X97614572Y-84879810D01*
X97493619Y-84347619D02*
X97372667Y-84710476D01*
X97687143Y-84710476D01*
X127341237Y-97139810D02*
X127341237Y-96631810D01*
X127534761Y-96631810D01*
X127583142Y-96656000D01*
X127607333Y-96680190D01*
X127631523Y-96728571D01*
X127631523Y-96801143D01*
X127607333Y-96849524D01*
X127583142Y-96873714D01*
X127534761Y-96897905D01*
X127341237Y-96897905D01*
X127825047Y-96680190D02*
X127849237Y-96656000D01*
X127897618Y-96631810D01*
X128018571Y-96631810D01*
X128066952Y-96656000D01*
X128091142Y-96680190D01*
X128115333Y-96728571D01*
X128115333Y-96776952D01*
X128091142Y-96849524D01*
X127800856Y-97139810D01*
X128115333Y-97139810D01*
X128429809Y-96631810D02*
X128478190Y-96631810D01*
X128526571Y-96656000D01*
X128550762Y-96680190D01*
X128574952Y-96728571D01*
X128599143Y-96825333D01*
X128599143Y-96946286D01*
X128574952Y-97043048D01*
X128550762Y-97091429D01*
X128526571Y-97115619D01*
X128478190Y-97139810D01*
X128429809Y-97139810D01*
X128381428Y-97115619D01*
X128357238Y-97091429D01*
X128333047Y-97043048D01*
X128308857Y-96946286D01*
X128308857Y-96825333D01*
X128333047Y-96728571D01*
X128357238Y-96680190D01*
X128381428Y-96656000D01*
X128429809Y-96631810D01*
X129082953Y-97139810D02*
X128792667Y-97139810D01*
X128937810Y-97139810D02*
X128937810Y-96631810D01*
X128889429Y-96704381D01*
X128841048Y-96752762D01*
X128792667Y-96776952D01*
X131121237Y-98679810D02*
X131121237Y-98171810D01*
X131314761Y-98171810D01*
X131363142Y-98196000D01*
X131387333Y-98220190D01*
X131411523Y-98268571D01*
X131411523Y-98341143D01*
X131387333Y-98389524D01*
X131363142Y-98413714D01*
X131314761Y-98437905D01*
X131121237Y-98437905D01*
X131580856Y-98171810D02*
X131895333Y-98171810D01*
X131725999Y-98365333D01*
X131798571Y-98365333D01*
X131846952Y-98389524D01*
X131871142Y-98413714D01*
X131895333Y-98462095D01*
X131895333Y-98583048D01*
X131871142Y-98631429D01*
X131846952Y-98655619D01*
X131798571Y-98679810D01*
X131653428Y-98679810D01*
X131605047Y-98655619D01*
X131580856Y-98631429D01*
X132209809Y-98171810D02*
X132258190Y-98171810D01*
X132306571Y-98196000D01*
X132330762Y-98220190D01*
X132354952Y-98268571D01*
X132379143Y-98365333D01*
X132379143Y-98486286D01*
X132354952Y-98583048D01*
X132330762Y-98631429D01*
X132306571Y-98655619D01*
X132258190Y-98679810D01*
X132209809Y-98679810D01*
X132161428Y-98655619D01*
X132137238Y-98631429D01*
X132113047Y-98583048D01*
X132088857Y-98486286D01*
X132088857Y-98365333D01*
X132113047Y-98268571D01*
X132137238Y-98220190D01*
X132161428Y-98196000D01*
X132209809Y-98171810D01*
X132862953Y-98679810D02*
X132572667Y-98679810D01*
X132717810Y-98679810D02*
X132717810Y-98171810D01*
X132669429Y-98244381D01*
X132621048Y-98292762D01*
X132572667Y-98316952D01*
X119071237Y-88849810D02*
X119071237Y-88341810D01*
X119264761Y-88341810D01*
X119313142Y-88366000D01*
X119337333Y-88390190D01*
X119361523Y-88438571D01*
X119361523Y-88511143D01*
X119337333Y-88559524D01*
X119313142Y-88583714D01*
X119264761Y-88607905D01*
X119071237Y-88607905D01*
X119796952Y-88511143D02*
X119796952Y-88849810D01*
X119675999Y-88317619D02*
X119555047Y-88680476D01*
X119869523Y-88680476D01*
X120159809Y-88341810D02*
X120208190Y-88341810D01*
X120256571Y-88366000D01*
X120280762Y-88390190D01*
X120304952Y-88438571D01*
X120329143Y-88535333D01*
X120329143Y-88656286D01*
X120304952Y-88753048D01*
X120280762Y-88801429D01*
X120256571Y-88825619D01*
X120208190Y-88849810D01*
X120159809Y-88849810D01*
X120111428Y-88825619D01*
X120087238Y-88801429D01*
X120063047Y-88753048D01*
X120038857Y-88656286D01*
X120038857Y-88535333D01*
X120063047Y-88438571D01*
X120087238Y-88390190D01*
X120111428Y-88366000D01*
X120159809Y-88341810D01*
X120812953Y-88849810D02*
X120522667Y-88849810D01*
X120667810Y-88849810D02*
X120667810Y-88341810D01*
X120619429Y-88414381D01*
X120571048Y-88462762D01*
X120522667Y-88486952D01*
X104719810Y-92648763D02*
X104211810Y-92648763D01*
X104211810Y-92455239D01*
X104236000Y-92406858D01*
X104260190Y-92382667D01*
X104308571Y-92358477D01*
X104381143Y-92358477D01*
X104429524Y-92382667D01*
X104453714Y-92406858D01*
X104477905Y-92455239D01*
X104477905Y-92648763D01*
X104211810Y-91898858D02*
X104211810Y-92140763D01*
X104453714Y-92164953D01*
X104429524Y-92140763D01*
X104405333Y-92092382D01*
X104405333Y-91971429D01*
X104429524Y-91923048D01*
X104453714Y-91898858D01*
X104502095Y-91874667D01*
X104623048Y-91874667D01*
X104671429Y-91898858D01*
X104695619Y-91923048D01*
X104719810Y-91971429D01*
X104719810Y-92092382D01*
X104695619Y-92140763D01*
X104671429Y-92164953D01*
X104211810Y-91560191D02*
X104211810Y-91511810D01*
X104236000Y-91463429D01*
X104260190Y-91439238D01*
X104308571Y-91415048D01*
X104405333Y-91390857D01*
X104526286Y-91390857D01*
X104623048Y-91415048D01*
X104671429Y-91439238D01*
X104695619Y-91463429D01*
X104719810Y-91511810D01*
X104719810Y-91560191D01*
X104695619Y-91608572D01*
X104671429Y-91632762D01*
X104623048Y-91656953D01*
X104526286Y-91681143D01*
X104405333Y-91681143D01*
X104308571Y-91656953D01*
X104260190Y-91632762D01*
X104236000Y-91608572D01*
X104211810Y-91560191D01*
X104719810Y-90907047D02*
X104719810Y-91197333D01*
X104719810Y-91052190D02*
X104211810Y-91052190D01*
X104284381Y-91100571D01*
X104332762Y-91148952D01*
X104356952Y-91197333D01*
X142751237Y-90909810D02*
X142751237Y-90401810D01*
X142944761Y-90401810D01*
X142993142Y-90426000D01*
X143017333Y-90450190D01*
X143041523Y-90498571D01*
X143041523Y-90571143D01*
X143017333Y-90619524D01*
X142993142Y-90643714D01*
X142944761Y-90667905D01*
X142751237Y-90667905D01*
X143525333Y-90909810D02*
X143235047Y-90909810D01*
X143380190Y-90909810D02*
X143380190Y-90401810D01*
X143331809Y-90474381D01*
X143283428Y-90522762D01*
X143235047Y-90546952D01*
X143839809Y-90401810D02*
X143888190Y-90401810D01*
X143936571Y-90426000D01*
X143960762Y-90450190D01*
X143984952Y-90498571D01*
X144009143Y-90595333D01*
X144009143Y-90716286D01*
X143984952Y-90813048D01*
X143960762Y-90861429D01*
X143936571Y-90885619D01*
X143888190Y-90909810D01*
X143839809Y-90909810D01*
X143791428Y-90885619D01*
X143767238Y-90861429D01*
X143743047Y-90813048D01*
X143718857Y-90716286D01*
X143718857Y-90595333D01*
X143743047Y-90498571D01*
X143767238Y-90450190D01*
X143791428Y-90426000D01*
X143839809Y-90401810D01*
X144444572Y-90401810D02*
X144347810Y-90401810D01*
X144299429Y-90426000D01*
X144275238Y-90450190D01*
X144226857Y-90522762D01*
X144202667Y-90619524D01*
X144202667Y-90813048D01*
X144226857Y-90861429D01*
X144251048Y-90885619D01*
X144299429Y-90909810D01*
X144396191Y-90909810D01*
X144444572Y-90885619D01*
X144468762Y-90861429D01*
X144492953Y-90813048D01*
X144492953Y-90692095D01*
X144468762Y-90643714D01*
X144444572Y-90619524D01*
X144396191Y-90595333D01*
X144299429Y-90595333D01*
X144251048Y-90619524D01*
X144226857Y-90643714D01*
X144202667Y-90692095D01*
%LPC*%
D15*
X91450000Y-86600000D03*
X93950000Y-86600000D03*
D16*
X101510000Y-89020000D03*
X101510000Y-86520000D03*
D15*
X120200000Y-98340000D03*
X117700000Y-98340000D03*
D16*
X103660000Y-96090000D03*
X103660000Y-98590000D03*
D15*
X123030000Y-98460000D03*
X125530000Y-98460000D03*
D16*
X120660000Y-95090000D03*
X120660000Y-92590000D03*
D15*
X115550000Y-85630000D03*
X113050000Y-85630000D03*
X106490000Y-85710000D03*
X108990000Y-85710000D03*
D17*
X92160000Y-92160000D03*
D18*
X92160000Y-89620000D03*
D19*
X148090000Y-98030000D03*
D20*
X148090000Y-95490000D03*
X148090000Y-92950000D03*
X148090000Y-90410000D03*
X148090000Y-87870000D03*
D21*
X100490000Y-97460000D03*
X97790000Y-97460000D03*
X94090000Y-97420000D03*
X91390000Y-97420000D03*
X94090000Y-95170000D03*
X91390000Y-95170000D03*
X105940000Y-97920000D03*
X108640000Y-97920000D03*
X137420000Y-90860000D03*
X140120000Y-90860000D03*
X112590000Y-98460000D03*
X115290000Y-98460000D03*
D22*
X118040000Y-96040000D03*
X118040000Y-93340000D03*
D21*
X115760000Y-87820000D03*
X113060000Y-87820000D03*
X106510000Y-87900000D03*
X109210000Y-87900000D03*
D23*
X95140000Y-88550000D03*
X95140000Y-89500000D03*
X95140000Y-90450000D03*
X97340000Y-90450000D03*
X97340000Y-88550000D03*
D24*
X107220000Y-95520000D03*
X108490000Y-95520000D03*
X109760000Y-95520000D03*
X111030000Y-95520000D03*
X112300000Y-95520000D03*
X113570000Y-95520000D03*
X114840000Y-95520000D03*
X114840000Y-90120000D03*
X113570000Y-90120000D03*
X112300000Y-90120000D03*
X111030000Y-90120000D03*
X109760000Y-90120000D03*
X108490000Y-90120000D03*
X107220000Y-90120000D03*
X123060000Y-95540000D03*
X124330000Y-95540000D03*
X125600000Y-95540000D03*
X126870000Y-95540000D03*
X128140000Y-95540000D03*
X129410000Y-95540000D03*
X130680000Y-95540000D03*
X130680000Y-90140000D03*
X129410000Y-90140000D03*
X128140000Y-90140000D03*
X126870000Y-90140000D03*
X125600000Y-90140000D03*
X124330000Y-90140000D03*
X123060000Y-90140000D03*
D25*
X135115000Y-96230000D03*
X141385000Y-98175000D03*
X141385000Y-94285000D03*
D26*
X98430000Y-94590000D03*
X99280000Y-90080000D03*
X98260000Y-86330000D03*
X128180000Y-98080000D03*
X130340000Y-97590000D03*
X118190000Y-89170000D03*
X104950000Y-89960000D03*
X143480000Y-91900000D03*
M02*
