G04 (created by PCBNEW (2013-08-23 BZR 4296)-product) date 10/8/2013 12:25:44 PM*
%MOIN*%
G04 Gerber Fmt 3.4, Leading zero omitted, Abs format*
%FSLAX34Y34*%
G01*
G70*
G90*
G04 APERTURE LIST*
%ADD10C,0.005906*%
%ADD11C,0.055000*%
%ADD12C,0.080000*%
%ADD13R,0.160000X0.160000*%
%ADD14C,0.035000*%
%ADD15C,0.010000*%
G04 APERTURE END LIST*
G54D10*
G54D11*
X49430Y-47940D03*
X48430Y-47940D03*
G54D12*
X49805Y-42945D03*
X41305Y-42945D03*
G54D13*
X45555Y-42945D03*
G54D14*
X47265Y-47880D03*
X43225Y-42975D03*
G54D15*
X47265Y-47880D02*
X47265Y-47895D01*
X43225Y-42975D02*
X43225Y-42965D01*
G54D10*
G36*
X50260Y-48690D02*
X49955Y-48690D01*
X49955Y-47836D01*
X49875Y-47643D01*
X49727Y-47495D01*
X49534Y-47415D01*
X49326Y-47414D01*
X49133Y-47494D01*
X48985Y-47642D01*
X48929Y-47775D01*
X48875Y-47643D01*
X48727Y-47495D01*
X48534Y-47415D01*
X48326Y-47414D01*
X48133Y-47494D01*
X47985Y-47642D01*
X47905Y-47835D01*
X47904Y-48043D01*
X47984Y-48237D01*
X48132Y-48384D01*
X48325Y-48464D01*
X48533Y-48465D01*
X48727Y-48385D01*
X48874Y-48237D01*
X48930Y-48104D01*
X48984Y-48237D01*
X49132Y-48384D01*
X49325Y-48464D01*
X49533Y-48465D01*
X49727Y-48385D01*
X49874Y-48237D01*
X49954Y-48044D01*
X49955Y-47836D01*
X49955Y-48690D01*
X46605Y-48690D01*
X46605Y-43794D01*
X46605Y-43695D01*
X46605Y-43057D01*
X46605Y-42832D01*
X46605Y-42194D01*
X46605Y-42095D01*
X46566Y-42003D01*
X46496Y-41933D01*
X46404Y-41895D01*
X45667Y-41895D01*
X45605Y-41957D01*
X45605Y-42895D01*
X46542Y-42895D01*
X46605Y-42832D01*
X46605Y-43057D01*
X46542Y-42995D01*
X45605Y-42995D01*
X45605Y-43932D01*
X45667Y-43995D01*
X46404Y-43995D01*
X46496Y-43956D01*
X46566Y-43886D01*
X46605Y-43794D01*
X46605Y-48690D01*
X45505Y-48690D01*
X45505Y-43932D01*
X45505Y-42995D01*
X45505Y-42895D01*
X45505Y-41957D01*
X45442Y-41895D01*
X44705Y-41895D01*
X44613Y-41933D01*
X44543Y-42003D01*
X44505Y-42095D01*
X44505Y-42194D01*
X44505Y-42832D01*
X44567Y-42895D01*
X45505Y-42895D01*
X45505Y-42995D01*
X44567Y-42995D01*
X44505Y-43057D01*
X44505Y-43695D01*
X44505Y-43794D01*
X44543Y-43886D01*
X44613Y-43956D01*
X44705Y-43995D01*
X45442Y-43995D01*
X45505Y-43932D01*
X45505Y-48690D01*
X40799Y-48690D01*
X40799Y-43358D01*
X40936Y-43495D01*
X41175Y-43594D01*
X41433Y-43595D01*
X41672Y-43496D01*
X41855Y-43313D01*
X41954Y-43074D01*
X41955Y-42816D01*
X41856Y-42577D01*
X41673Y-42394D01*
X41434Y-42295D01*
X41176Y-42294D01*
X40937Y-42393D01*
X40799Y-42530D01*
X40799Y-39229D01*
X50260Y-39229D01*
X50260Y-42481D01*
X50173Y-42394D01*
X49934Y-42295D01*
X49676Y-42294D01*
X49437Y-42393D01*
X49254Y-42576D01*
X49155Y-42815D01*
X49154Y-43073D01*
X49253Y-43312D01*
X49436Y-43495D01*
X49675Y-43594D01*
X49933Y-43595D01*
X50172Y-43496D01*
X50260Y-43408D01*
X50260Y-48690D01*
X50260Y-48690D01*
G37*
G54D15*
X50260Y-48690D02*
X49955Y-48690D01*
X49955Y-47836D01*
X49875Y-47643D01*
X49727Y-47495D01*
X49534Y-47415D01*
X49326Y-47414D01*
X49133Y-47494D01*
X48985Y-47642D01*
X48929Y-47775D01*
X48875Y-47643D01*
X48727Y-47495D01*
X48534Y-47415D01*
X48326Y-47414D01*
X48133Y-47494D01*
X47985Y-47642D01*
X47905Y-47835D01*
X47904Y-48043D01*
X47984Y-48237D01*
X48132Y-48384D01*
X48325Y-48464D01*
X48533Y-48465D01*
X48727Y-48385D01*
X48874Y-48237D01*
X48930Y-48104D01*
X48984Y-48237D01*
X49132Y-48384D01*
X49325Y-48464D01*
X49533Y-48465D01*
X49727Y-48385D01*
X49874Y-48237D01*
X49954Y-48044D01*
X49955Y-47836D01*
X49955Y-48690D01*
X46605Y-48690D01*
X46605Y-43794D01*
X46605Y-43695D01*
X46605Y-43057D01*
X46605Y-42832D01*
X46605Y-42194D01*
X46605Y-42095D01*
X46566Y-42003D01*
X46496Y-41933D01*
X46404Y-41895D01*
X45667Y-41895D01*
X45605Y-41957D01*
X45605Y-42895D01*
X46542Y-42895D01*
X46605Y-42832D01*
X46605Y-43057D01*
X46542Y-42995D01*
X45605Y-42995D01*
X45605Y-43932D01*
X45667Y-43995D01*
X46404Y-43995D01*
X46496Y-43956D01*
X46566Y-43886D01*
X46605Y-43794D01*
X46605Y-48690D01*
X45505Y-48690D01*
X45505Y-43932D01*
X45505Y-42995D01*
X45505Y-42895D01*
X45505Y-41957D01*
X45442Y-41895D01*
X44705Y-41895D01*
X44613Y-41933D01*
X44543Y-42003D01*
X44505Y-42095D01*
X44505Y-42194D01*
X44505Y-42832D01*
X44567Y-42895D01*
X45505Y-42895D01*
X45505Y-42995D01*
X44567Y-42995D01*
X44505Y-43057D01*
X44505Y-43695D01*
X44505Y-43794D01*
X44543Y-43886D01*
X44613Y-43956D01*
X44705Y-43995D01*
X45442Y-43995D01*
X45505Y-43932D01*
X45505Y-48690D01*
X40799Y-48690D01*
X40799Y-43358D01*
X40936Y-43495D01*
X41175Y-43594D01*
X41433Y-43595D01*
X41672Y-43496D01*
X41855Y-43313D01*
X41954Y-43074D01*
X41955Y-42816D01*
X41856Y-42577D01*
X41673Y-42394D01*
X41434Y-42295D01*
X41176Y-42294D01*
X40937Y-42393D01*
X40799Y-42530D01*
X40799Y-39229D01*
X50260Y-39229D01*
X50260Y-42481D01*
X50173Y-42394D01*
X49934Y-42295D01*
X49676Y-42294D01*
X49437Y-42393D01*
X49254Y-42576D01*
X49155Y-42815D01*
X49154Y-43073D01*
X49253Y-43312D01*
X49436Y-43495D01*
X49675Y-43594D01*
X49933Y-43595D01*
X50172Y-43496D01*
X50260Y-43408D01*
X50260Y-48690D01*
M02*
