G04 (created by PCBNEW (2013-08-23 BZR 4296)-product) date 10/8/2013 12:25:44 PM*
%MOIN*%
G04 Gerber Fmt 3.4, Leading zero omitted, Abs format*
%FSLAX34Y34*%
G01*
G70*
G90*
G04 APERTURE LIST*
%ADD10C,0.005906*%
%ADD11C,0.011811*%
%ADD12R,0.060000X0.080000*%
%ADD13R,0.062900X0.070900*%
%ADD14R,0.080000X0.060000*%
%ADD15R,0.045000X0.020000*%
%ADD16C,0.055000*%
%ADD17C,0.080000*%
G04 APERTURE END LIST*
G54D10*
G54D11*
X41323Y-39882D02*
X41423Y-39920D01*
X41456Y-39959D01*
X41490Y-40035D01*
X41490Y-40149D01*
X41456Y-40225D01*
X41423Y-40263D01*
X41356Y-40301D01*
X41090Y-40301D01*
X41090Y-39501D01*
X41323Y-39501D01*
X41390Y-39540D01*
X41423Y-39578D01*
X41456Y-39654D01*
X41456Y-39730D01*
X41423Y-39806D01*
X41390Y-39844D01*
X41323Y-39882D01*
X41090Y-39882D01*
X41890Y-40301D02*
X41823Y-40263D01*
X41790Y-40187D01*
X41790Y-39501D01*
X42156Y-40301D02*
X42156Y-39768D01*
X42156Y-39501D02*
X42123Y-39540D01*
X42156Y-39578D01*
X42190Y-39540D01*
X42156Y-39501D01*
X42156Y-39578D01*
X42490Y-39768D02*
X42490Y-40301D01*
X42490Y-39844D02*
X42523Y-39806D01*
X42590Y-39768D01*
X42690Y-39768D01*
X42756Y-39806D01*
X42790Y-39882D01*
X42790Y-40301D01*
X43123Y-40301D02*
X43123Y-39501D01*
X43190Y-39997D02*
X43390Y-40301D01*
X43390Y-39768D02*
X43123Y-40073D01*
X43623Y-39768D02*
X43790Y-40301D01*
X43956Y-39768D02*
X43790Y-40301D01*
X43723Y-40492D01*
X43690Y-40530D01*
X43623Y-40568D01*
G54D12*
X45670Y-46575D03*
X46970Y-46575D03*
G54D13*
X44981Y-48160D03*
X46099Y-48160D03*
G54D12*
X46235Y-41890D03*
X44935Y-41890D03*
G54D14*
X41970Y-45205D03*
X41970Y-46505D03*
G54D15*
X46785Y-43350D03*
X46785Y-43850D03*
X46785Y-44350D03*
X46785Y-44850D03*
X44285Y-44850D03*
X44285Y-44350D03*
X44285Y-43850D03*
X44285Y-43350D03*
G54D16*
X49430Y-47940D03*
X48430Y-47940D03*
G54D17*
X49805Y-42945D03*
X41305Y-42945D03*
M02*
