G04 (created by PCBNEW (2013-08-23 BZR 4296)-product) date 10/8/2013 12:25:44 PM*
%MOIN*%
G04 Gerber Fmt 3.4, Leading zero omitted, Abs format*
%FSLAX34Y34*%
G01*
G70*
G90*
G04 APERTURE LIST*
%ADD10C,0.005906*%
%ADD11C,0.007500*%
%ADD12C,0.005000*%
%ADD13C,0.002600*%
%ADD14C,0.004000*%
%ADD15C,0.015000*%
%ADD16C,0.003500*%
%ADD17C,0.008000*%
G04 APERTURE END LIST*
G54D10*
G54D11*
X48567Y-39555D02*
X48539Y-39535D01*
X48496Y-39535D01*
X48453Y-39555D01*
X48425Y-39593D01*
X48410Y-39631D01*
X48396Y-39707D01*
X48396Y-39764D01*
X48410Y-39840D01*
X48425Y-39878D01*
X48453Y-39916D01*
X48496Y-39935D01*
X48525Y-39935D01*
X48567Y-39916D01*
X48582Y-39897D01*
X48582Y-39764D01*
X48525Y-39764D01*
X48667Y-39535D02*
X48839Y-39535D01*
X48753Y-39935D02*
X48753Y-39535D01*
X49039Y-39726D02*
X49082Y-39745D01*
X49096Y-39764D01*
X49110Y-39802D01*
X49110Y-39859D01*
X49096Y-39897D01*
X49082Y-39916D01*
X49053Y-39935D01*
X48939Y-39935D01*
X48939Y-39535D01*
X49039Y-39535D01*
X49067Y-39555D01*
X49082Y-39574D01*
X49096Y-39612D01*
X49096Y-39650D01*
X49082Y-39688D01*
X49067Y-39707D01*
X49039Y-39726D01*
X48939Y-39726D01*
X49439Y-39669D02*
X49510Y-39935D01*
X49582Y-39669D01*
X49853Y-39935D02*
X49682Y-39935D01*
X49767Y-39935D02*
X49767Y-39535D01*
X49739Y-39593D01*
X49710Y-39631D01*
X49682Y-39650D01*
X48353Y-40570D02*
X48182Y-40570D01*
X48267Y-40570D02*
X48267Y-40170D01*
X48239Y-40228D01*
X48210Y-40266D01*
X48182Y-40285D01*
X48539Y-40170D02*
X48567Y-40170D01*
X48596Y-40190D01*
X48610Y-40209D01*
X48625Y-40247D01*
X48639Y-40323D01*
X48639Y-40418D01*
X48625Y-40494D01*
X48610Y-40532D01*
X48596Y-40551D01*
X48567Y-40570D01*
X48539Y-40570D01*
X48510Y-40551D01*
X48496Y-40532D01*
X48482Y-40494D01*
X48467Y-40418D01*
X48467Y-40323D01*
X48482Y-40247D01*
X48496Y-40209D01*
X48510Y-40190D01*
X48539Y-40170D01*
X48767Y-40532D02*
X48782Y-40551D01*
X48767Y-40570D01*
X48753Y-40551D01*
X48767Y-40532D01*
X48767Y-40570D01*
X48967Y-40170D02*
X48996Y-40170D01*
X49025Y-40190D01*
X49039Y-40209D01*
X49053Y-40247D01*
X49067Y-40323D01*
X49067Y-40418D01*
X49053Y-40494D01*
X49039Y-40532D01*
X49025Y-40551D01*
X48996Y-40570D01*
X48967Y-40570D01*
X48939Y-40551D01*
X48925Y-40532D01*
X48910Y-40494D01*
X48896Y-40418D01*
X48896Y-40323D01*
X48910Y-40247D01*
X48925Y-40209D01*
X48939Y-40190D01*
X48967Y-40170D01*
X49167Y-40170D02*
X49367Y-40170D01*
X49239Y-40570D01*
X49482Y-40532D02*
X49496Y-40551D01*
X49482Y-40570D01*
X49467Y-40551D01*
X49482Y-40532D01*
X49482Y-40570D01*
X49782Y-40570D02*
X49610Y-40570D01*
X49696Y-40570D02*
X49696Y-40170D01*
X49667Y-40228D01*
X49639Y-40266D01*
X49610Y-40285D01*
X49882Y-40170D02*
X50067Y-40170D01*
X49967Y-40323D01*
X50010Y-40323D01*
X50039Y-40342D01*
X50053Y-40361D01*
X50067Y-40399D01*
X50067Y-40494D01*
X50053Y-40532D01*
X50039Y-40551D01*
X50010Y-40570D01*
X49924Y-40570D01*
X49896Y-40551D01*
X49882Y-40532D01*
X41031Y-48252D02*
X41050Y-48209D01*
X41069Y-48195D01*
X41107Y-48181D01*
X41164Y-48181D01*
X41202Y-48195D01*
X41221Y-48209D01*
X41240Y-48238D01*
X41240Y-48352D01*
X40840Y-48352D01*
X40840Y-48252D01*
X40860Y-48224D01*
X40879Y-48209D01*
X40917Y-48195D01*
X40955Y-48195D01*
X40993Y-48209D01*
X41012Y-48224D01*
X41031Y-48252D01*
X41031Y-48352D01*
X41240Y-48052D02*
X40974Y-48052D01*
X41050Y-48052D02*
X41012Y-48038D01*
X40993Y-48024D01*
X40974Y-47995D01*
X40974Y-47967D01*
X41240Y-47824D02*
X41221Y-47852D01*
X41202Y-47867D01*
X41164Y-47881D01*
X41050Y-47881D01*
X41012Y-47867D01*
X40993Y-47852D01*
X40974Y-47824D01*
X40974Y-47781D01*
X40993Y-47752D01*
X41012Y-47738D01*
X41050Y-47724D01*
X41164Y-47724D01*
X41202Y-47738D01*
X41221Y-47752D01*
X41240Y-47781D01*
X41240Y-47824D01*
X41240Y-47552D02*
X41221Y-47581D01*
X41202Y-47595D01*
X41164Y-47609D01*
X41050Y-47609D01*
X41012Y-47595D01*
X40993Y-47581D01*
X40974Y-47552D01*
X40974Y-47509D01*
X40993Y-47481D01*
X41012Y-47467D01*
X41050Y-47452D01*
X41164Y-47452D01*
X41202Y-47467D01*
X41221Y-47481D01*
X41240Y-47509D01*
X41240Y-47552D01*
X41240Y-47324D02*
X40840Y-47324D01*
X41088Y-47295D02*
X41240Y-47209D01*
X40974Y-47209D02*
X41126Y-47324D01*
X41221Y-46967D02*
X41240Y-46995D01*
X41240Y-47052D01*
X41221Y-47081D01*
X41183Y-47095D01*
X41031Y-47095D01*
X40993Y-47081D01*
X40974Y-47052D01*
X40974Y-46995D01*
X40993Y-46967D01*
X41031Y-46952D01*
X41069Y-46952D01*
X41107Y-47095D01*
X40840Y-46638D02*
X40840Y-46467D01*
X41240Y-46552D02*
X40840Y-46552D01*
X41202Y-46367D02*
X41221Y-46352D01*
X41240Y-46367D01*
X41221Y-46381D01*
X41202Y-46367D01*
X41240Y-46367D01*
X41240Y-45995D02*
X40840Y-45995D01*
X41031Y-45995D02*
X41031Y-45824D01*
X41240Y-45824D02*
X40840Y-45824D01*
X41221Y-45567D02*
X41240Y-45595D01*
X41240Y-45652D01*
X41221Y-45681D01*
X41183Y-45695D01*
X41031Y-45695D01*
X40993Y-45681D01*
X40974Y-45652D01*
X40974Y-45595D01*
X40993Y-45567D01*
X41031Y-45552D01*
X41069Y-45552D01*
X41107Y-45695D01*
X41240Y-45295D02*
X40840Y-45295D01*
X41221Y-45295D02*
X41240Y-45324D01*
X41240Y-45381D01*
X41221Y-45410D01*
X41202Y-45424D01*
X41164Y-45438D01*
X41050Y-45438D01*
X41012Y-45424D01*
X40993Y-45410D01*
X40974Y-45381D01*
X40974Y-45324D01*
X40993Y-45295D01*
X41240Y-45152D02*
X40974Y-45152D01*
X41050Y-45152D02*
X41012Y-45138D01*
X40993Y-45124D01*
X40974Y-45095D01*
X40974Y-45067D01*
X41240Y-44967D02*
X40974Y-44967D01*
X40840Y-44967D02*
X40860Y-44981D01*
X40879Y-44967D01*
X40860Y-44952D01*
X40840Y-44967D01*
X40879Y-44967D01*
X41221Y-44695D02*
X41240Y-44724D01*
X41240Y-44781D01*
X41221Y-44810D01*
X41202Y-44824D01*
X41164Y-44838D01*
X41050Y-44838D01*
X41012Y-44824D01*
X40993Y-44810D01*
X40974Y-44781D01*
X40974Y-44724D01*
X40993Y-44695D01*
X41240Y-44567D02*
X40840Y-44567D01*
X41088Y-44538D02*
X41240Y-44452D01*
X40974Y-44452D02*
X41126Y-44567D01*
G54D12*
X45320Y-46125D02*
X45320Y-47025D01*
X45320Y-47025D02*
X45970Y-47025D01*
X46670Y-46125D02*
X47320Y-46125D01*
X47320Y-46125D02*
X47320Y-47025D01*
X47320Y-47025D02*
X46670Y-47025D01*
X45970Y-46125D02*
X45320Y-46125D01*
G54D13*
X45501Y-48199D02*
X45579Y-48199D01*
X45579Y-48199D02*
X45579Y-48121D01*
X45501Y-48121D02*
X45579Y-48121D01*
X45501Y-48199D02*
X45501Y-48121D01*
X45717Y-48435D02*
X45854Y-48435D01*
X45854Y-48435D02*
X45854Y-48337D01*
X45717Y-48337D02*
X45854Y-48337D01*
X45717Y-48435D02*
X45717Y-48337D01*
X45854Y-48435D02*
X45894Y-48435D01*
X45894Y-48435D02*
X45894Y-47964D01*
X45854Y-47964D02*
X45894Y-47964D01*
X45854Y-48435D02*
X45854Y-47964D01*
X45854Y-47944D02*
X45894Y-47944D01*
X45894Y-47944D02*
X45894Y-47885D01*
X45854Y-47885D02*
X45894Y-47885D01*
X45854Y-47944D02*
X45854Y-47885D01*
X45186Y-48435D02*
X45226Y-48435D01*
X45226Y-48435D02*
X45226Y-47964D01*
X45186Y-47964D02*
X45226Y-47964D01*
X45186Y-48435D02*
X45186Y-47964D01*
X45186Y-47944D02*
X45226Y-47944D01*
X45226Y-47944D02*
X45226Y-47885D01*
X45186Y-47885D02*
X45226Y-47885D01*
X45186Y-47944D02*
X45186Y-47885D01*
X45717Y-48435D02*
X45776Y-48435D01*
X45776Y-48435D02*
X45776Y-48337D01*
X45717Y-48337D02*
X45776Y-48337D01*
X45717Y-48435D02*
X45717Y-48337D01*
G54D14*
X46150Y-48455D02*
X44930Y-48455D01*
X44930Y-48455D02*
X44930Y-47865D01*
X44930Y-47865D02*
X46150Y-47865D01*
X46150Y-47865D02*
X46150Y-48455D01*
X45324Y-48356D02*
G75*
G03X45756Y-48356I215J196D01*
G74*
G01*
X45324Y-47963D02*
G75*
G03X45324Y-48356I215J-196D01*
G74*
G01*
X45755Y-47963D02*
G75*
G03X45324Y-47964I-215J-196D01*
G74*
G01*
X45755Y-48356D02*
G75*
G03X45756Y-47964I-215J196D01*
G74*
G01*
G54D12*
X46585Y-42340D02*
X46585Y-41440D01*
X46585Y-41440D02*
X45935Y-41440D01*
X45235Y-42340D02*
X44585Y-42340D01*
X44585Y-42340D02*
X44585Y-41440D01*
X44585Y-41440D02*
X45235Y-41440D01*
X45935Y-42340D02*
X46585Y-42340D01*
X42420Y-44855D02*
X41520Y-44855D01*
X41520Y-44855D02*
X41520Y-45505D01*
X42420Y-46205D02*
X42420Y-46855D01*
X42420Y-46855D02*
X41520Y-46855D01*
X41520Y-46855D02*
X41520Y-46205D01*
X42420Y-45505D02*
X42420Y-44855D01*
X46435Y-43100D02*
X46435Y-45100D01*
X46435Y-45100D02*
X44635Y-45100D01*
X44635Y-45100D02*
X44635Y-43100D01*
X44635Y-43100D02*
X46435Y-43100D01*
X45835Y-43100D02*
X45835Y-43300D01*
X45835Y-43300D02*
X45335Y-43300D01*
X45335Y-43300D02*
X45335Y-43100D01*
G54D15*
X49430Y-47940D02*
X48430Y-47940D01*
X49989Y-47940D02*
G75*
G03X49989Y-47940I-559J0D01*
G74*
G01*
G54D12*
X46285Y-47417D02*
X46270Y-47431D01*
X46227Y-47445D01*
X46199Y-47445D01*
X46156Y-47431D01*
X46127Y-47402D01*
X46113Y-47374D01*
X46099Y-47317D01*
X46099Y-47274D01*
X46113Y-47217D01*
X46127Y-47188D01*
X46156Y-47160D01*
X46199Y-47145D01*
X46227Y-47145D01*
X46270Y-47160D01*
X46285Y-47174D01*
X46570Y-47445D02*
X46399Y-47445D01*
X46485Y-47445D02*
X46485Y-47145D01*
X46456Y-47188D01*
X46427Y-47217D01*
X46399Y-47231D01*
G54D16*
X43848Y-48735D02*
X43848Y-48435D01*
X43920Y-48435D01*
X43962Y-48450D01*
X43991Y-48478D01*
X44005Y-48507D01*
X44020Y-48564D01*
X44020Y-48607D01*
X44005Y-48664D01*
X43991Y-48692D01*
X43962Y-48721D01*
X43920Y-48735D01*
X43848Y-48735D01*
X44305Y-48735D02*
X44134Y-48735D01*
X44220Y-48735D02*
X44220Y-48435D01*
X44191Y-48478D01*
X44162Y-48507D01*
X44134Y-48521D01*
G54D12*
X44825Y-41195D02*
X44725Y-41052D01*
X44653Y-41195D02*
X44653Y-40895D01*
X44767Y-40895D01*
X44796Y-40910D01*
X44810Y-40924D01*
X44825Y-40952D01*
X44825Y-40995D01*
X44810Y-41024D01*
X44796Y-41038D01*
X44767Y-41052D01*
X44653Y-41052D01*
X45110Y-41195D02*
X44939Y-41195D01*
X45025Y-41195D02*
X45025Y-40895D01*
X44996Y-40938D01*
X44967Y-40967D01*
X44939Y-40981D01*
X42945Y-46415D02*
X42802Y-46515D01*
X42945Y-46586D02*
X42645Y-46586D01*
X42645Y-46472D01*
X42660Y-46443D01*
X42674Y-46429D01*
X42702Y-46415D01*
X42745Y-46415D01*
X42774Y-46429D01*
X42788Y-46443D01*
X42802Y-46472D01*
X42802Y-46586D01*
X42674Y-46300D02*
X42660Y-46286D01*
X42645Y-46257D01*
X42645Y-46186D01*
X42660Y-46157D01*
X42674Y-46143D01*
X42702Y-46129D01*
X42731Y-46129D01*
X42774Y-46143D01*
X42945Y-46315D01*
X42945Y-46129D01*
X43980Y-42523D02*
X43980Y-42887D01*
X43999Y-42930D01*
X44018Y-42952D01*
X44056Y-42973D01*
X44132Y-42973D01*
X44170Y-42952D01*
X44189Y-42930D01*
X44208Y-42887D01*
X44208Y-42523D01*
X44608Y-42973D02*
X44380Y-42973D01*
X44494Y-42973D02*
X44494Y-42523D01*
X44456Y-42587D01*
X44418Y-42630D01*
X44380Y-42652D01*
G54D17*
X48675Y-46638D02*
X48841Y-47188D01*
X49008Y-46638D01*
X49460Y-47188D02*
X49294Y-46926D01*
X49175Y-47188D02*
X49175Y-46638D01*
X49365Y-46638D01*
X49413Y-46665D01*
X49437Y-46691D01*
X49460Y-46743D01*
X49460Y-46822D01*
X49437Y-46874D01*
X49413Y-46900D01*
X49365Y-46926D01*
X49175Y-46926D01*
X49937Y-47188D02*
X49651Y-47188D01*
X49794Y-47188D02*
X49794Y-46638D01*
X49746Y-46717D01*
X49699Y-46769D01*
X49651Y-46795D01*
M02*
