G04 #@! TF.FileFunction,Copper,L1,Top,Signal*
%FSLAX46Y46*%
G04 Gerber Fmt 4.6, Leading zero omitted, Abs format (unit mm)*
G04 Created by KiCad (PCBNEW (2015-01-29 BZR 5396)-product) date 8/16/2015 12:30:24 AM*
%MOMM*%
G01*
G04 APERTURE LIST*
%ADD10C,0.100000*%
%ADD11R,1.250000X1.500000*%
%ADD12R,1.500000X1.250000*%
%ADD13R,2.000000X2.500000*%
%ADD14R,1.100000X3.000000*%
%ADD15R,0.500000X1.800000*%
%ADD16R,2.032000X2.032000*%
%ADD17O,2.032000X2.032000*%
%ADD18C,1.397000*%
%ADD19R,1.500000X1.300000*%
%ADD20R,2.750000X1.200000*%
%ADD21O,0.280000X1.200000*%
%ADD22C,0.500000*%
%ADD23C,0.685800*%
%ADD24C,0.152400*%
%ADD25C,0.304800*%
%ADD26C,0.609600*%
%ADD27C,0.152000*%
G04 APERTURE END LIST*
D10*
D11*
X155830000Y-108500000D03*
X155830000Y-106000000D03*
D12*
X156710000Y-119860000D03*
X154210000Y-119860000D03*
D13*
X164690000Y-113160000D03*
X168690000Y-113160000D03*
D11*
X171550000Y-115130000D03*
X171550000Y-112630000D03*
D14*
X158570000Y-111310000D03*
X160730000Y-111310000D03*
D15*
X158020000Y-111310000D03*
X161280000Y-111360000D03*
D16*
X152590000Y-108200000D03*
D17*
X150050000Y-108200000D03*
D18*
X158460000Y-108570000D03*
X166690000Y-116960000D03*
X160910000Y-108550000D03*
X162110000Y-114080000D03*
X171440000Y-117140000D03*
D16*
X174690000Y-115480000D03*
D17*
X174690000Y-118020000D03*
D19*
X150670000Y-111390000D03*
X153370000Y-111390000D03*
X153360000Y-113550000D03*
X150660000Y-113550000D03*
X153340000Y-115740000D03*
X150640000Y-115740000D03*
X162550000Y-119080000D03*
X165250000Y-119080000D03*
X168270000Y-119050000D03*
X170970000Y-119050000D03*
D20*
X159955000Y-116990000D03*
D21*
X159580000Y-115540000D03*
X160580000Y-115540000D03*
X160080000Y-115540000D03*
X159080000Y-115540000D03*
X158580000Y-115540000D03*
X160580000Y-118440000D03*
X160080000Y-118440000D03*
X159580000Y-118440000D03*
X159080000Y-118440000D03*
X158580000Y-118440000D03*
D22*
X158890000Y-116700000D03*
X158890000Y-117290000D03*
X159580000Y-116990000D03*
X160360000Y-116690000D03*
X160370000Y-117300000D03*
D23*
X152380000Y-119880000D03*
X159450000Y-120480000D03*
X159570000Y-114270000D03*
X150900000Y-105720000D03*
X154150000Y-105810000D03*
X170150000Y-111100000D03*
D24*
X152400000Y-119860000D02*
X152380000Y-119880000D01*
X154210000Y-119860000D02*
X152400000Y-119860000D01*
D25*
X160080000Y-119850000D02*
X159450000Y-120480000D01*
X160080000Y-118440000D02*
X160080000Y-119850000D01*
X159580000Y-114280000D02*
X159570000Y-114270000D01*
X159580000Y-115540000D02*
X159580000Y-114280000D01*
D26*
X150050000Y-106570000D02*
X150900000Y-105720000D01*
X150050000Y-108200000D02*
X150050000Y-106570000D01*
X154340000Y-106000000D02*
X154150000Y-105810000D01*
X155830000Y-106000000D02*
X154340000Y-106000000D01*
X168690000Y-112560000D02*
X170150000Y-111100000D01*
X168690000Y-113160000D02*
X168690000Y-112560000D01*
X171550000Y-112500000D02*
X170150000Y-111100000D01*
X171550000Y-112630000D02*
X171550000Y-112500000D01*
X173660000Y-119050000D02*
X174690000Y-118020000D01*
X170970000Y-119050000D02*
X173660000Y-119050000D01*
D25*
X160080000Y-117115000D02*
X159955000Y-116990000D01*
X160080000Y-118440000D02*
X160080000Y-117115000D01*
D24*
X159290000Y-119860000D02*
X159580000Y-119570000D01*
X159580000Y-119570000D02*
X159580000Y-118440000D01*
X156710000Y-119860000D02*
X159290000Y-119860000D01*
X150670000Y-115750000D02*
X150640000Y-115780000D01*
X150670000Y-113540000D02*
X150660000Y-113550000D01*
X150670000Y-111390000D02*
X150670000Y-113540000D01*
X150640000Y-113570000D02*
X150660000Y-113550000D01*
X150640000Y-115740000D02*
X150640000Y-113570000D01*
X156110000Y-119260000D02*
X156710000Y-119860000D01*
X151560000Y-117140000D02*
X153490000Y-117140000D01*
X153490000Y-117140000D02*
X155610000Y-119260000D01*
X155610000Y-119260000D02*
X156110000Y-119260000D01*
X150640000Y-116220000D02*
X151560000Y-117140000D01*
X150640000Y-115740000D02*
X150640000Y-116220000D01*
D26*
X161700000Y-115810000D02*
X162550000Y-116660000D01*
X161430000Y-115540000D02*
X161700000Y-115810000D01*
X162550000Y-116660000D02*
X162550000Y-119080000D01*
D25*
X160580000Y-115540000D02*
X161430000Y-115540000D01*
X162110000Y-115400000D02*
X161700000Y-115810000D01*
X162110000Y-114080000D02*
X162110000Y-115400000D01*
D26*
X163050000Y-116660000D02*
X164690000Y-115020000D01*
X164690000Y-115020000D02*
X164690000Y-113160000D01*
X162550000Y-116660000D02*
X163050000Y-116660000D01*
X164690000Y-110930000D02*
X165630000Y-109990000D01*
X165630000Y-109990000D02*
X173500000Y-109990000D01*
X173500000Y-109990000D02*
X174690000Y-111180000D01*
X174690000Y-111180000D02*
X174690000Y-115480000D01*
X164690000Y-113160000D02*
X164690000Y-110930000D01*
X174340000Y-115130000D02*
X174690000Y-115480000D01*
X171550000Y-115130000D02*
X174340000Y-115130000D01*
D25*
X171440000Y-115240000D02*
X171550000Y-115130000D01*
X171440000Y-117140000D02*
X171440000Y-115240000D01*
X159080000Y-114810000D02*
X158570000Y-114300000D01*
X158570000Y-114300000D02*
X158570000Y-111310000D01*
X159080000Y-115540000D02*
X159080000Y-114810000D01*
D24*
X158460000Y-111200000D02*
X158570000Y-111310000D01*
X158460000Y-108570000D02*
X158460000Y-111200000D01*
D25*
X160080000Y-114850000D02*
X160730000Y-114200000D01*
X160730000Y-114200000D02*
X160730000Y-111310000D01*
X160080000Y-115540000D02*
X160080000Y-114850000D01*
D24*
X160910000Y-111130000D02*
X160730000Y-111310000D01*
X160910000Y-108550000D02*
X160910000Y-111130000D01*
D26*
X166910000Y-119080000D02*
X168707634Y-119080000D01*
X165250000Y-119080000D02*
X166910000Y-119080000D01*
X166550000Y-120620000D02*
X166910000Y-120260000D01*
X166910000Y-120260000D02*
X166910000Y-119080000D01*
D25*
X160580000Y-118440000D02*
X160580000Y-120210000D01*
D26*
X160580000Y-120210000D02*
X160990000Y-120620000D01*
X160990000Y-120620000D02*
X164980000Y-120620000D01*
X164980000Y-120620000D02*
X166550000Y-120620000D01*
D24*
X166690000Y-118860000D02*
X166910000Y-119080000D01*
X166690000Y-116960000D02*
X166690000Y-118860000D01*
X158100000Y-117960000D02*
X158580000Y-118440000D01*
X155640000Y-117960000D02*
X158100000Y-117960000D01*
X155020000Y-117340000D02*
X155640000Y-117960000D01*
X155020000Y-114910000D02*
X155020000Y-117340000D01*
X153660000Y-113550000D02*
X155020000Y-114910000D01*
X153360000Y-113550000D02*
X153660000Y-113550000D01*
X159080000Y-119430000D02*
X159080000Y-118440000D01*
X159030000Y-119480000D02*
X159080000Y-119430000D01*
X158520000Y-119480000D02*
X159030000Y-119480000D01*
X158070000Y-119030000D02*
X158520000Y-119480000D01*
X158070000Y-118690000D02*
X158070000Y-119030000D01*
X157740000Y-118360000D02*
X158070000Y-118690000D01*
X155390000Y-118360000D02*
X157740000Y-118360000D01*
X153340000Y-116310000D02*
X155390000Y-118360000D01*
X153340000Y-115740000D02*
X153340000Y-116310000D01*
D27*
G36*
X176542000Y-121342000D02*
X175958779Y-121342000D01*
X175958779Y-118020000D01*
X175938875Y-117919935D01*
X175938875Y-116496000D01*
X175938875Y-114464000D01*
X175921977Y-114376912D01*
X175871697Y-114300369D01*
X175795792Y-114249133D01*
X175706000Y-114231125D01*
X175223200Y-114231125D01*
X175223200Y-111180000D01*
X175182613Y-110975953D01*
X175067029Y-110802971D01*
X173877029Y-109612971D01*
X173704047Y-109497387D01*
X173500000Y-109456800D01*
X165630000Y-109456800D01*
X165425953Y-109497387D01*
X165252971Y-109612970D01*
X164312971Y-110552971D01*
X164197387Y-110725953D01*
X164156800Y-110930000D01*
X164156800Y-111677125D01*
X163690000Y-111677125D01*
X163602912Y-111694023D01*
X163526369Y-111744303D01*
X163475133Y-111820208D01*
X163457125Y-111910000D01*
X163457125Y-114410000D01*
X163474023Y-114497088D01*
X163524303Y-114573631D01*
X163600208Y-114624867D01*
X163690000Y-114642875D01*
X164156800Y-114642875D01*
X164156800Y-114799141D01*
X162829141Y-116126800D01*
X162770858Y-116126800D01*
X162346295Y-115702237D01*
X162379266Y-115669266D01*
X162379267Y-115669266D01*
X162461813Y-115545726D01*
X162461814Y-115545725D01*
X162490800Y-115400000D01*
X162490800Y-114925563D01*
X162634361Y-114866246D01*
X162895329Y-114605732D01*
X163036739Y-114265181D01*
X163037060Y-113896437D01*
X162896246Y-113555639D01*
X162635732Y-113294671D01*
X162295181Y-113153261D01*
X161926437Y-113152940D01*
X161585639Y-113293754D01*
X161324671Y-113554268D01*
X161183261Y-113894819D01*
X161182940Y-114263563D01*
X161323754Y-114604361D01*
X161584268Y-114865329D01*
X161729200Y-114925510D01*
X161729200Y-115110966D01*
X161634047Y-115047387D01*
X161430000Y-115006800D01*
X161225953Y-115047387D01*
X161058614Y-115159200D01*
X160948400Y-115159200D01*
X160948400Y-115063771D01*
X160920357Y-114922790D01*
X160840498Y-114803273D01*
X160735450Y-114733081D01*
X160999266Y-114469266D01*
X161081813Y-114345726D01*
X161081813Y-114345725D01*
X161110800Y-114200000D01*
X161110800Y-113042875D01*
X161280000Y-113042875D01*
X161367088Y-113025977D01*
X161443631Y-112975697D01*
X161494867Y-112899792D01*
X161512875Y-112810000D01*
X161512875Y-112492875D01*
X161530000Y-112492875D01*
X161617088Y-112475977D01*
X161693631Y-112425697D01*
X161744867Y-112349792D01*
X161762875Y-112260000D01*
X161762875Y-110460000D01*
X161745977Y-110372912D01*
X161695697Y-110296369D01*
X161619792Y-110245133D01*
X161530000Y-110227125D01*
X161512875Y-110227125D01*
X161512875Y-109810000D01*
X161495977Y-109722912D01*
X161445697Y-109646369D01*
X161369792Y-109595133D01*
X161280000Y-109577125D01*
X161214600Y-109577125D01*
X161214600Y-109427048D01*
X161434361Y-109336246D01*
X161695329Y-109075732D01*
X161836739Y-108735181D01*
X161837060Y-108366437D01*
X161696246Y-108025639D01*
X161435732Y-107764671D01*
X161095181Y-107623261D01*
X160726437Y-107622940D01*
X160385639Y-107763754D01*
X160124671Y-108024268D01*
X159983261Y-108364819D01*
X159982940Y-108733563D01*
X160123754Y-109074361D01*
X160384268Y-109335329D01*
X160605400Y-109427151D01*
X160605400Y-109577125D01*
X160180000Y-109577125D01*
X160092912Y-109594023D01*
X160016369Y-109644303D01*
X159965133Y-109720208D01*
X159947125Y-109810000D01*
X159947125Y-112810000D01*
X159964023Y-112897088D01*
X160014303Y-112973631D01*
X160090208Y-113024867D01*
X160180000Y-113042875D01*
X160349200Y-113042875D01*
X160349200Y-114042268D01*
X160141317Y-114250150D01*
X160141399Y-114156860D01*
X160054607Y-113946808D01*
X159894038Y-113785958D01*
X159684137Y-113698800D01*
X159456860Y-113698601D01*
X159246808Y-113785393D01*
X159085958Y-113945962D01*
X158998800Y-114155863D01*
X158998769Y-114190237D01*
X158950800Y-114142268D01*
X158950800Y-113042875D01*
X159120000Y-113042875D01*
X159207088Y-113025977D01*
X159283631Y-112975697D01*
X159334867Y-112899792D01*
X159352875Y-112810000D01*
X159352875Y-109810000D01*
X159335977Y-109722912D01*
X159285697Y-109646369D01*
X159209792Y-109595133D01*
X159120000Y-109577125D01*
X158764600Y-109577125D01*
X158764600Y-109447048D01*
X158984361Y-109356246D01*
X159245329Y-109095732D01*
X159386739Y-108755181D01*
X159387060Y-108386437D01*
X159246246Y-108045639D01*
X158985732Y-107784671D01*
X158645181Y-107643261D01*
X158276437Y-107642940D01*
X157935639Y-107783754D01*
X157674671Y-108044268D01*
X157533261Y-108384819D01*
X157532940Y-108753563D01*
X157673754Y-109094361D01*
X157934268Y-109355329D01*
X158155400Y-109447151D01*
X158155400Y-109577125D01*
X158020000Y-109577125D01*
X157932912Y-109594023D01*
X157856369Y-109644303D01*
X157805133Y-109720208D01*
X157787125Y-109810000D01*
X157787125Y-110177125D01*
X157770000Y-110177125D01*
X157682912Y-110194023D01*
X157606369Y-110244303D01*
X157555133Y-110320208D01*
X157537125Y-110410000D01*
X157537125Y-112210000D01*
X157554023Y-112297088D01*
X157604303Y-112373631D01*
X157680208Y-112424867D01*
X157770000Y-112442875D01*
X157787125Y-112442875D01*
X157787125Y-112810000D01*
X157804023Y-112897088D01*
X157854303Y-112973631D01*
X157930208Y-113024867D01*
X158020000Y-113042875D01*
X158189200Y-113042875D01*
X158189200Y-114300000D01*
X158218187Y-114445726D01*
X158300734Y-114569266D01*
X158390492Y-114659024D01*
X158283722Y-114711597D01*
X158165293Y-114853021D01*
X158110000Y-115029000D01*
X158110000Y-115489000D01*
X158529000Y-115489000D01*
X158529000Y-115469000D01*
X158631000Y-115469000D01*
X158631000Y-115489000D01*
X158651000Y-115489000D01*
X158651000Y-115591000D01*
X158631000Y-115591000D01*
X158631000Y-115611000D01*
X158529000Y-115611000D01*
X158529000Y-115591000D01*
X158110000Y-115591000D01*
X158110000Y-116051000D01*
X158165293Y-116226979D01*
X158283722Y-116368403D01*
X158347125Y-116399621D01*
X158347125Y-117590000D01*
X158363410Y-117673933D01*
X158319502Y-117703273D01*
X158299133Y-117733756D01*
X158216566Y-117678586D01*
X158100000Y-117655400D01*
X156785000Y-117655400D01*
X156785000Y-109315641D01*
X156785000Y-108633500D01*
X156785000Y-108366500D01*
X156785000Y-107684359D01*
X156734761Y-107563070D01*
X156687875Y-107516184D01*
X156687875Y-106750000D01*
X156687875Y-105250000D01*
X156670977Y-105162912D01*
X156620697Y-105086369D01*
X156544792Y-105035133D01*
X156455000Y-105017125D01*
X155205000Y-105017125D01*
X155117912Y-105034023D01*
X155041369Y-105084303D01*
X154990133Y-105160208D01*
X154972125Y-105250000D01*
X154972125Y-105466800D01*
X154614633Y-105466800D01*
X154474038Y-105325958D01*
X154264137Y-105238800D01*
X154036860Y-105238601D01*
X153826808Y-105325393D01*
X153665958Y-105485962D01*
X153578800Y-105695863D01*
X153578601Y-105923140D01*
X153665393Y-106133192D01*
X153825962Y-106294042D01*
X153918342Y-106332401D01*
X153962971Y-106377030D01*
X154135953Y-106492613D01*
X154340000Y-106533200D01*
X154972125Y-106533200D01*
X154972125Y-106750000D01*
X154989023Y-106837088D01*
X155039303Y-106913631D01*
X155115208Y-106964867D01*
X155205000Y-106982875D01*
X156455000Y-106982875D01*
X156542088Y-106965977D01*
X156618631Y-106915697D01*
X156669867Y-106839792D01*
X156687875Y-106750000D01*
X156687875Y-107516184D01*
X156641930Y-107470240D01*
X156520641Y-107420000D01*
X156389359Y-107420000D01*
X155963500Y-107420000D01*
X155881000Y-107502500D01*
X155881000Y-108449000D01*
X156702500Y-108449000D01*
X156785000Y-108366500D01*
X156785000Y-108633500D01*
X156702500Y-108551000D01*
X155881000Y-108551000D01*
X155881000Y-109497500D01*
X155963500Y-109580000D01*
X156389359Y-109580000D01*
X156520641Y-109580000D01*
X156641930Y-109529760D01*
X156734761Y-109436930D01*
X156785000Y-109315641D01*
X156785000Y-117655400D01*
X155779000Y-117655400D01*
X155779000Y-109497500D01*
X155779000Y-108551000D01*
X155779000Y-108449000D01*
X155779000Y-107502500D01*
X155696500Y-107420000D01*
X155270641Y-107420000D01*
X155139359Y-107420000D01*
X155018070Y-107470240D01*
X154925239Y-107563070D01*
X154875000Y-107684359D01*
X154875000Y-108366500D01*
X154957500Y-108449000D01*
X155779000Y-108449000D01*
X155779000Y-108551000D01*
X154957500Y-108551000D01*
X154875000Y-108633500D01*
X154875000Y-109315641D01*
X154925239Y-109436930D01*
X155018070Y-109529760D01*
X155139359Y-109580000D01*
X155270641Y-109580000D01*
X155696500Y-109580000D01*
X155779000Y-109497500D01*
X155779000Y-117655400D01*
X155766169Y-117655400D01*
X155324600Y-117213830D01*
X155324600Y-114910000D01*
X155301414Y-114793435D01*
X155301413Y-114793434D01*
X155235385Y-114694615D01*
X155235381Y-114694612D01*
X154450000Y-113909230D01*
X154450000Y-112105641D01*
X154450000Y-111974359D01*
X154450000Y-111523500D01*
X154450000Y-111256500D01*
X154450000Y-110805641D01*
X154450000Y-110674359D01*
X154399760Y-110553070D01*
X154306930Y-110460239D01*
X154185641Y-110410000D01*
X153936000Y-110410000D01*
X153936000Y-109281641D01*
X153936000Y-108333500D01*
X153936000Y-108066500D01*
X153936000Y-107118359D01*
X153885761Y-106997070D01*
X153792930Y-106904240D01*
X153671641Y-106854000D01*
X153540359Y-106854000D01*
X152723500Y-106854000D01*
X152641000Y-106936500D01*
X152641000Y-108149000D01*
X153853500Y-108149000D01*
X153936000Y-108066500D01*
X153936000Y-108333500D01*
X153853500Y-108251000D01*
X152641000Y-108251000D01*
X152641000Y-109463500D01*
X152723500Y-109546000D01*
X153540359Y-109546000D01*
X153671641Y-109546000D01*
X153792930Y-109495760D01*
X153885761Y-109402930D01*
X153936000Y-109281641D01*
X153936000Y-110410000D01*
X153503500Y-110410000D01*
X153421000Y-110492500D01*
X153421000Y-111339000D01*
X154367500Y-111339000D01*
X154450000Y-111256500D01*
X154450000Y-111523500D01*
X154367500Y-111441000D01*
X153421000Y-111441000D01*
X153421000Y-112287500D01*
X153503500Y-112370000D01*
X154185641Y-112370000D01*
X154306930Y-112319761D01*
X154399760Y-112226930D01*
X154450000Y-112105641D01*
X154450000Y-113909230D01*
X154342875Y-113802105D01*
X154342875Y-112900000D01*
X154325977Y-112812912D01*
X154275697Y-112736369D01*
X154199792Y-112685133D01*
X154110000Y-112667125D01*
X153319000Y-112667125D01*
X153319000Y-112287500D01*
X153319000Y-111441000D01*
X153319000Y-111339000D01*
X153319000Y-110492500D01*
X153236500Y-110410000D01*
X152554359Y-110410000D01*
X152539000Y-110416361D01*
X152539000Y-109463500D01*
X152539000Y-108251000D01*
X152519000Y-108251000D01*
X152519000Y-108149000D01*
X152539000Y-108149000D01*
X152539000Y-106936500D01*
X152456500Y-106854000D01*
X151639641Y-106854000D01*
X151508359Y-106854000D01*
X151387070Y-106904240D01*
X151294239Y-106997070D01*
X151244000Y-107118359D01*
X151244000Y-107922242D01*
X151199676Y-107699410D01*
X150929924Y-107295697D01*
X150583200Y-107064023D01*
X150583200Y-106790858D01*
X151131611Y-106242447D01*
X151223192Y-106204607D01*
X151384042Y-106044038D01*
X151471200Y-105834137D01*
X151471399Y-105606860D01*
X151384607Y-105396808D01*
X151224038Y-105235958D01*
X151014137Y-105148800D01*
X150786860Y-105148601D01*
X150576808Y-105235393D01*
X150415958Y-105395962D01*
X150377598Y-105488342D01*
X149672971Y-106192971D01*
X149557387Y-106365953D01*
X149516800Y-106570000D01*
X149516800Y-107064023D01*
X149170076Y-107295697D01*
X148900324Y-107699410D01*
X148805600Y-108175621D01*
X148805600Y-108224379D01*
X148900324Y-108700590D01*
X149170076Y-109104303D01*
X149573789Y-109374055D01*
X150050000Y-109468779D01*
X150526211Y-109374055D01*
X150929924Y-109104303D01*
X151199676Y-108700590D01*
X151244000Y-108477757D01*
X151244000Y-109281641D01*
X151294239Y-109402930D01*
X151387070Y-109495760D01*
X151508359Y-109546000D01*
X151639641Y-109546000D01*
X152456500Y-109546000D01*
X152539000Y-109463500D01*
X152539000Y-110416361D01*
X152433070Y-110460239D01*
X152340240Y-110553070D01*
X152290000Y-110674359D01*
X152290000Y-110805641D01*
X152290000Y-111256500D01*
X152372500Y-111339000D01*
X153319000Y-111339000D01*
X153319000Y-111441000D01*
X152372500Y-111441000D01*
X152290000Y-111523500D01*
X152290000Y-111974359D01*
X152290000Y-112105641D01*
X152340240Y-112226930D01*
X152433070Y-112319761D01*
X152554359Y-112370000D01*
X153236500Y-112370000D01*
X153319000Y-112287500D01*
X153319000Y-112667125D01*
X152610000Y-112667125D01*
X152522912Y-112684023D01*
X152446369Y-112734303D01*
X152395133Y-112810208D01*
X152377125Y-112900000D01*
X152377125Y-114200000D01*
X152394023Y-114287088D01*
X152444303Y-114363631D01*
X152520208Y-114414867D01*
X152610000Y-114432875D01*
X154110000Y-114432875D01*
X154111763Y-114432532D01*
X154715400Y-115036169D01*
X154715400Y-117254630D01*
X154083645Y-116622875D01*
X154090000Y-116622875D01*
X154177088Y-116605977D01*
X154253631Y-116555697D01*
X154304867Y-116479792D01*
X154322875Y-116390000D01*
X154322875Y-115090000D01*
X154305977Y-115002912D01*
X154255697Y-114926369D01*
X154179792Y-114875133D01*
X154090000Y-114857125D01*
X152590000Y-114857125D01*
X152502912Y-114874023D01*
X152426369Y-114924303D01*
X152375133Y-115000208D01*
X152357125Y-115090000D01*
X152357125Y-116390000D01*
X152374023Y-116477088D01*
X152424303Y-116553631D01*
X152500208Y-116604867D01*
X152590000Y-116622875D01*
X153222105Y-116622875D01*
X153434630Y-116835400D01*
X151686169Y-116835400D01*
X151460051Y-116609282D01*
X151477088Y-116605977D01*
X151553631Y-116555697D01*
X151604867Y-116479792D01*
X151622875Y-116390000D01*
X151622875Y-115090000D01*
X151605977Y-115002912D01*
X151555697Y-114926369D01*
X151479792Y-114875133D01*
X151390000Y-114857125D01*
X150944600Y-114857125D01*
X150944600Y-114432875D01*
X151410000Y-114432875D01*
X151497088Y-114415977D01*
X151573631Y-114365697D01*
X151624867Y-114289792D01*
X151642875Y-114200000D01*
X151642875Y-112900000D01*
X151625977Y-112812912D01*
X151575697Y-112736369D01*
X151499792Y-112685133D01*
X151410000Y-112667125D01*
X150974600Y-112667125D01*
X150974600Y-112272875D01*
X151420000Y-112272875D01*
X151507088Y-112255977D01*
X151583631Y-112205697D01*
X151634867Y-112129792D01*
X151652875Y-112040000D01*
X151652875Y-110740000D01*
X151635977Y-110652912D01*
X151585697Y-110576369D01*
X151509792Y-110525133D01*
X151420000Y-110507125D01*
X149920000Y-110507125D01*
X149832912Y-110524023D01*
X149756369Y-110574303D01*
X149705133Y-110650208D01*
X149687125Y-110740000D01*
X149687125Y-112040000D01*
X149704023Y-112127088D01*
X149754303Y-112203631D01*
X149830208Y-112254867D01*
X149920000Y-112272875D01*
X150365400Y-112272875D01*
X150365400Y-112667125D01*
X149910000Y-112667125D01*
X149822912Y-112684023D01*
X149746369Y-112734303D01*
X149695133Y-112810208D01*
X149677125Y-112900000D01*
X149677125Y-114200000D01*
X149694023Y-114287088D01*
X149744303Y-114363631D01*
X149820208Y-114414867D01*
X149910000Y-114432875D01*
X150335400Y-114432875D01*
X150335400Y-114857125D01*
X149890000Y-114857125D01*
X149802912Y-114874023D01*
X149726369Y-114924303D01*
X149675133Y-115000208D01*
X149657125Y-115090000D01*
X149657125Y-116390000D01*
X149674023Y-116477088D01*
X149724303Y-116553631D01*
X149800208Y-116604867D01*
X149890000Y-116622875D01*
X150612105Y-116622875D01*
X151344612Y-117355381D01*
X151344615Y-117355385D01*
X151443434Y-117421413D01*
X151443435Y-117421414D01*
X151560000Y-117444600D01*
X153363830Y-117444600D01*
X154921355Y-119002125D01*
X153460000Y-119002125D01*
X153372912Y-119019023D01*
X153296369Y-119069303D01*
X153245133Y-119145208D01*
X153227125Y-119235000D01*
X153227125Y-119555400D01*
X152863201Y-119555400D01*
X152704038Y-119395958D01*
X152494137Y-119308800D01*
X152266860Y-119308601D01*
X152056808Y-119395393D01*
X151895958Y-119555962D01*
X151808800Y-119765863D01*
X151808601Y-119993140D01*
X151895393Y-120203192D01*
X152055962Y-120364042D01*
X152265863Y-120451200D01*
X152493140Y-120451399D01*
X152703192Y-120364607D01*
X152864042Y-120204038D01*
X152880417Y-120164600D01*
X153227125Y-120164600D01*
X153227125Y-120485000D01*
X153244023Y-120572088D01*
X153294303Y-120648631D01*
X153370208Y-120699867D01*
X153460000Y-120717875D01*
X154960000Y-120717875D01*
X155047088Y-120700977D01*
X155123631Y-120650697D01*
X155174867Y-120574792D01*
X155192875Y-120485000D01*
X155192875Y-119273645D01*
X155394615Y-119475385D01*
X155493434Y-119541414D01*
X155493435Y-119541414D01*
X155610000Y-119564601D01*
X155610000Y-119564600D01*
X155610005Y-119564600D01*
X155727125Y-119564600D01*
X155727125Y-120485000D01*
X155744023Y-120572088D01*
X155794303Y-120648631D01*
X155870208Y-120699867D01*
X155960000Y-120717875D01*
X157460000Y-120717875D01*
X157547088Y-120700977D01*
X157623631Y-120650697D01*
X157674867Y-120574792D01*
X157692875Y-120485000D01*
X157692875Y-120164600D01*
X158962371Y-120164600D01*
X158878800Y-120365863D01*
X158878601Y-120593140D01*
X158965393Y-120803192D01*
X159125962Y-120964042D01*
X159335863Y-121051200D01*
X159563140Y-121051399D01*
X159773192Y-120964607D01*
X159934042Y-120804038D01*
X160021200Y-120594137D01*
X160021328Y-120447203D01*
X160081928Y-120386604D01*
X160087387Y-120414047D01*
X160202971Y-120587029D01*
X160612971Y-120997030D01*
X160785953Y-121112613D01*
X160990000Y-121153200D01*
X164980000Y-121153200D01*
X166550000Y-121153200D01*
X166754047Y-121112613D01*
X166927029Y-120997029D01*
X167287029Y-120637029D01*
X167402613Y-120464047D01*
X167443200Y-120260000D01*
X167443200Y-119917472D01*
X167520000Y-119932875D01*
X169020000Y-119932875D01*
X169107088Y-119915977D01*
X169183631Y-119865697D01*
X169234867Y-119789792D01*
X169252875Y-119700000D01*
X169252875Y-118400000D01*
X169235977Y-118312912D01*
X169185697Y-118236369D01*
X169109792Y-118185133D01*
X169020000Y-118167125D01*
X167520000Y-118167125D01*
X167432912Y-118184023D01*
X167356369Y-118234303D01*
X167305133Y-118310208D01*
X167287125Y-118400000D01*
X167287125Y-118546800D01*
X166994600Y-118546800D01*
X166994600Y-117837048D01*
X167214361Y-117746246D01*
X167475329Y-117485732D01*
X167616739Y-117145181D01*
X167617060Y-116776437D01*
X167476246Y-116435639D01*
X167215732Y-116174671D01*
X166875181Y-116033261D01*
X166506437Y-116032940D01*
X166165639Y-116173754D01*
X165904671Y-116434268D01*
X165763261Y-116774819D01*
X165762940Y-117143563D01*
X165903754Y-117484361D01*
X166164268Y-117745329D01*
X166385400Y-117837151D01*
X166385400Y-118546800D01*
X166232875Y-118546800D01*
X166232875Y-118430000D01*
X166215977Y-118342912D01*
X166165697Y-118266369D01*
X166089792Y-118215133D01*
X166000000Y-118197125D01*
X164500000Y-118197125D01*
X164412912Y-118214023D01*
X164336369Y-118264303D01*
X164285133Y-118340208D01*
X164267125Y-118430000D01*
X164267125Y-119730000D01*
X164284023Y-119817088D01*
X164334303Y-119893631D01*
X164410208Y-119944867D01*
X164500000Y-119962875D01*
X166000000Y-119962875D01*
X166087088Y-119945977D01*
X166163631Y-119895697D01*
X166214867Y-119819792D01*
X166232875Y-119730000D01*
X166232875Y-119613200D01*
X166376800Y-119613200D01*
X166376800Y-120039142D01*
X166329142Y-120086800D01*
X164980000Y-120086800D01*
X161210858Y-120086800D01*
X160960800Y-119836741D01*
X160960800Y-118440000D01*
X160948400Y-118377661D01*
X160948400Y-117963771D01*
X160920373Y-117822875D01*
X161330000Y-117822875D01*
X161417088Y-117805977D01*
X161493631Y-117755697D01*
X161544867Y-117679792D01*
X161562875Y-117590000D01*
X161562875Y-116426933D01*
X162016800Y-116880858D01*
X162016800Y-118197125D01*
X161800000Y-118197125D01*
X161712912Y-118214023D01*
X161636369Y-118264303D01*
X161585133Y-118340208D01*
X161567125Y-118430000D01*
X161567125Y-119730000D01*
X161584023Y-119817088D01*
X161634303Y-119893631D01*
X161710208Y-119944867D01*
X161800000Y-119962875D01*
X163300000Y-119962875D01*
X163387088Y-119945977D01*
X163463631Y-119895697D01*
X163514867Y-119819792D01*
X163532875Y-119730000D01*
X163532875Y-118430000D01*
X163515977Y-118342912D01*
X163465697Y-118266369D01*
X163389792Y-118215133D01*
X163300000Y-118197125D01*
X163083200Y-118197125D01*
X163083200Y-117186596D01*
X163254047Y-117152613D01*
X163427029Y-117037029D01*
X165067029Y-115397030D01*
X165067029Y-115397029D01*
X165182613Y-115224047D01*
X165223199Y-115020000D01*
X165223200Y-115020000D01*
X165223200Y-114642875D01*
X165690000Y-114642875D01*
X165777088Y-114625977D01*
X165853631Y-114575697D01*
X165904867Y-114499792D01*
X165922875Y-114410000D01*
X165922875Y-111910000D01*
X165905977Y-111822912D01*
X165855697Y-111746369D01*
X165779792Y-111695133D01*
X165690000Y-111677125D01*
X165223200Y-111677125D01*
X165223200Y-111150858D01*
X165850858Y-110523200D01*
X173279142Y-110523200D01*
X174156800Y-111400858D01*
X174156800Y-114231125D01*
X173674000Y-114231125D01*
X173586912Y-114248023D01*
X173510369Y-114298303D01*
X173459133Y-114374208D01*
X173441125Y-114464000D01*
X173441125Y-114596800D01*
X172407875Y-114596800D01*
X172407875Y-114380000D01*
X172407875Y-113380000D01*
X172407875Y-111880000D01*
X172390977Y-111792912D01*
X172340697Y-111716369D01*
X172264792Y-111665133D01*
X172175000Y-111647125D01*
X171451183Y-111647125D01*
X170672448Y-110868390D01*
X170634607Y-110776808D01*
X170474038Y-110615958D01*
X170264137Y-110528800D01*
X170036860Y-110528601D01*
X169826808Y-110615393D01*
X169665958Y-110775962D01*
X169627597Y-110868344D01*
X168818817Y-111677125D01*
X167690000Y-111677125D01*
X167602912Y-111694023D01*
X167526369Y-111744303D01*
X167475133Y-111820208D01*
X167457125Y-111910000D01*
X167457125Y-114410000D01*
X167474023Y-114497088D01*
X167524303Y-114573631D01*
X167600208Y-114624867D01*
X167690000Y-114642875D01*
X169690000Y-114642875D01*
X169777088Y-114625977D01*
X169853631Y-114575697D01*
X169904867Y-114499792D01*
X169922875Y-114410000D01*
X169922875Y-112081183D01*
X170150000Y-111854058D01*
X170692125Y-112396183D01*
X170692125Y-113380000D01*
X170709023Y-113467088D01*
X170759303Y-113543631D01*
X170835208Y-113594867D01*
X170925000Y-113612875D01*
X172175000Y-113612875D01*
X172262088Y-113595977D01*
X172338631Y-113545697D01*
X172389867Y-113469792D01*
X172407875Y-113380000D01*
X172407875Y-114380000D01*
X172390977Y-114292912D01*
X172340697Y-114216369D01*
X172264792Y-114165133D01*
X172175000Y-114147125D01*
X170925000Y-114147125D01*
X170837912Y-114164023D01*
X170761369Y-114214303D01*
X170710133Y-114290208D01*
X170692125Y-114380000D01*
X170692125Y-115880000D01*
X170709023Y-115967088D01*
X170759303Y-116043631D01*
X170835208Y-116094867D01*
X170925000Y-116112875D01*
X171059200Y-116112875D01*
X171059200Y-116294436D01*
X170915639Y-116353754D01*
X170654671Y-116614268D01*
X170513261Y-116954819D01*
X170512940Y-117323563D01*
X170653754Y-117664361D01*
X170914268Y-117925329D01*
X171254819Y-118066739D01*
X171623563Y-118067060D01*
X171964361Y-117926246D01*
X172225329Y-117665732D01*
X172366739Y-117325181D01*
X172367060Y-116956437D01*
X172226246Y-116615639D01*
X171965732Y-116354671D01*
X171820800Y-116294489D01*
X171820800Y-116112875D01*
X172175000Y-116112875D01*
X172262088Y-116095977D01*
X172338631Y-116045697D01*
X172389867Y-115969792D01*
X172407875Y-115880000D01*
X172407875Y-115663200D01*
X173441125Y-115663200D01*
X173441125Y-116496000D01*
X173458023Y-116583088D01*
X173508303Y-116659631D01*
X173584208Y-116710867D01*
X173674000Y-116728875D01*
X175706000Y-116728875D01*
X175793088Y-116711977D01*
X175869631Y-116661697D01*
X175920867Y-116585792D01*
X175938875Y-116496000D01*
X175938875Y-117919935D01*
X175864055Y-117543789D01*
X175594303Y-117140076D01*
X175190590Y-116870324D01*
X174714379Y-116775600D01*
X174665621Y-116775600D01*
X174189410Y-116870324D01*
X173785697Y-117140076D01*
X173515945Y-117543789D01*
X173421221Y-118020000D01*
X173506618Y-118449323D01*
X173439142Y-118516800D01*
X171952875Y-118516800D01*
X171952875Y-118400000D01*
X171935977Y-118312912D01*
X171885697Y-118236369D01*
X171809792Y-118185133D01*
X171720000Y-118167125D01*
X170220000Y-118167125D01*
X170132912Y-118184023D01*
X170056369Y-118234303D01*
X170005133Y-118310208D01*
X169987125Y-118400000D01*
X169987125Y-119700000D01*
X170004023Y-119787088D01*
X170054303Y-119863631D01*
X170130208Y-119914867D01*
X170220000Y-119932875D01*
X171720000Y-119932875D01*
X171807088Y-119915977D01*
X171883631Y-119865697D01*
X171934867Y-119789792D01*
X171952875Y-119700000D01*
X171952875Y-119583200D01*
X173660000Y-119583200D01*
X173864047Y-119542613D01*
X174037029Y-119427029D01*
X174276966Y-119187091D01*
X174665621Y-119264400D01*
X174714379Y-119264400D01*
X175190590Y-119169676D01*
X175594303Y-118899924D01*
X175864055Y-118496211D01*
X175958779Y-118020000D01*
X175958779Y-121342000D01*
X147888000Y-121342000D01*
X147888000Y-104738000D01*
X176542000Y-104738000D01*
X176542000Y-121342000D01*
X176542000Y-121342000D01*
G37*
X176542000Y-121342000D02*
X175958779Y-121342000D01*
X175958779Y-118020000D01*
X175938875Y-117919935D01*
X175938875Y-116496000D01*
X175938875Y-114464000D01*
X175921977Y-114376912D01*
X175871697Y-114300369D01*
X175795792Y-114249133D01*
X175706000Y-114231125D01*
X175223200Y-114231125D01*
X175223200Y-111180000D01*
X175182613Y-110975953D01*
X175067029Y-110802971D01*
X173877029Y-109612971D01*
X173704047Y-109497387D01*
X173500000Y-109456800D01*
X165630000Y-109456800D01*
X165425953Y-109497387D01*
X165252971Y-109612970D01*
X164312971Y-110552971D01*
X164197387Y-110725953D01*
X164156800Y-110930000D01*
X164156800Y-111677125D01*
X163690000Y-111677125D01*
X163602912Y-111694023D01*
X163526369Y-111744303D01*
X163475133Y-111820208D01*
X163457125Y-111910000D01*
X163457125Y-114410000D01*
X163474023Y-114497088D01*
X163524303Y-114573631D01*
X163600208Y-114624867D01*
X163690000Y-114642875D01*
X164156800Y-114642875D01*
X164156800Y-114799141D01*
X162829141Y-116126800D01*
X162770858Y-116126800D01*
X162346295Y-115702237D01*
X162379266Y-115669266D01*
X162379267Y-115669266D01*
X162461813Y-115545726D01*
X162461814Y-115545725D01*
X162490800Y-115400000D01*
X162490800Y-114925563D01*
X162634361Y-114866246D01*
X162895329Y-114605732D01*
X163036739Y-114265181D01*
X163037060Y-113896437D01*
X162896246Y-113555639D01*
X162635732Y-113294671D01*
X162295181Y-113153261D01*
X161926437Y-113152940D01*
X161585639Y-113293754D01*
X161324671Y-113554268D01*
X161183261Y-113894819D01*
X161182940Y-114263563D01*
X161323754Y-114604361D01*
X161584268Y-114865329D01*
X161729200Y-114925510D01*
X161729200Y-115110966D01*
X161634047Y-115047387D01*
X161430000Y-115006800D01*
X161225953Y-115047387D01*
X161058614Y-115159200D01*
X160948400Y-115159200D01*
X160948400Y-115063771D01*
X160920357Y-114922790D01*
X160840498Y-114803273D01*
X160735450Y-114733081D01*
X160999266Y-114469266D01*
X161081813Y-114345726D01*
X161081813Y-114345725D01*
X161110800Y-114200000D01*
X161110800Y-113042875D01*
X161280000Y-113042875D01*
X161367088Y-113025977D01*
X161443631Y-112975697D01*
X161494867Y-112899792D01*
X161512875Y-112810000D01*
X161512875Y-112492875D01*
X161530000Y-112492875D01*
X161617088Y-112475977D01*
X161693631Y-112425697D01*
X161744867Y-112349792D01*
X161762875Y-112260000D01*
X161762875Y-110460000D01*
X161745977Y-110372912D01*
X161695697Y-110296369D01*
X161619792Y-110245133D01*
X161530000Y-110227125D01*
X161512875Y-110227125D01*
X161512875Y-109810000D01*
X161495977Y-109722912D01*
X161445697Y-109646369D01*
X161369792Y-109595133D01*
X161280000Y-109577125D01*
X161214600Y-109577125D01*
X161214600Y-109427048D01*
X161434361Y-109336246D01*
X161695329Y-109075732D01*
X161836739Y-108735181D01*
X161837060Y-108366437D01*
X161696246Y-108025639D01*
X161435732Y-107764671D01*
X161095181Y-107623261D01*
X160726437Y-107622940D01*
X160385639Y-107763754D01*
X160124671Y-108024268D01*
X159983261Y-108364819D01*
X159982940Y-108733563D01*
X160123754Y-109074361D01*
X160384268Y-109335329D01*
X160605400Y-109427151D01*
X160605400Y-109577125D01*
X160180000Y-109577125D01*
X160092912Y-109594023D01*
X160016369Y-109644303D01*
X159965133Y-109720208D01*
X159947125Y-109810000D01*
X159947125Y-112810000D01*
X159964023Y-112897088D01*
X160014303Y-112973631D01*
X160090208Y-113024867D01*
X160180000Y-113042875D01*
X160349200Y-113042875D01*
X160349200Y-114042268D01*
X160141317Y-114250150D01*
X160141399Y-114156860D01*
X160054607Y-113946808D01*
X159894038Y-113785958D01*
X159684137Y-113698800D01*
X159456860Y-113698601D01*
X159246808Y-113785393D01*
X159085958Y-113945962D01*
X158998800Y-114155863D01*
X158998769Y-114190237D01*
X158950800Y-114142268D01*
X158950800Y-113042875D01*
X159120000Y-113042875D01*
X159207088Y-113025977D01*
X159283631Y-112975697D01*
X159334867Y-112899792D01*
X159352875Y-112810000D01*
X159352875Y-109810000D01*
X159335977Y-109722912D01*
X159285697Y-109646369D01*
X159209792Y-109595133D01*
X159120000Y-109577125D01*
X158764600Y-109577125D01*
X158764600Y-109447048D01*
X158984361Y-109356246D01*
X159245329Y-109095732D01*
X159386739Y-108755181D01*
X159387060Y-108386437D01*
X159246246Y-108045639D01*
X158985732Y-107784671D01*
X158645181Y-107643261D01*
X158276437Y-107642940D01*
X157935639Y-107783754D01*
X157674671Y-108044268D01*
X157533261Y-108384819D01*
X157532940Y-108753563D01*
X157673754Y-109094361D01*
X157934268Y-109355329D01*
X158155400Y-109447151D01*
X158155400Y-109577125D01*
X158020000Y-109577125D01*
X157932912Y-109594023D01*
X157856369Y-109644303D01*
X157805133Y-109720208D01*
X157787125Y-109810000D01*
X157787125Y-110177125D01*
X157770000Y-110177125D01*
X157682912Y-110194023D01*
X157606369Y-110244303D01*
X157555133Y-110320208D01*
X157537125Y-110410000D01*
X157537125Y-112210000D01*
X157554023Y-112297088D01*
X157604303Y-112373631D01*
X157680208Y-112424867D01*
X157770000Y-112442875D01*
X157787125Y-112442875D01*
X157787125Y-112810000D01*
X157804023Y-112897088D01*
X157854303Y-112973631D01*
X157930208Y-113024867D01*
X158020000Y-113042875D01*
X158189200Y-113042875D01*
X158189200Y-114300000D01*
X158218187Y-114445726D01*
X158300734Y-114569266D01*
X158390492Y-114659024D01*
X158283722Y-114711597D01*
X158165293Y-114853021D01*
X158110000Y-115029000D01*
X158110000Y-115489000D01*
X158529000Y-115489000D01*
X158529000Y-115469000D01*
X158631000Y-115469000D01*
X158631000Y-115489000D01*
X158651000Y-115489000D01*
X158651000Y-115591000D01*
X158631000Y-115591000D01*
X158631000Y-115611000D01*
X158529000Y-115611000D01*
X158529000Y-115591000D01*
X158110000Y-115591000D01*
X158110000Y-116051000D01*
X158165293Y-116226979D01*
X158283722Y-116368403D01*
X158347125Y-116399621D01*
X158347125Y-117590000D01*
X158363410Y-117673933D01*
X158319502Y-117703273D01*
X158299133Y-117733756D01*
X158216566Y-117678586D01*
X158100000Y-117655400D01*
X156785000Y-117655400D01*
X156785000Y-109315641D01*
X156785000Y-108633500D01*
X156785000Y-108366500D01*
X156785000Y-107684359D01*
X156734761Y-107563070D01*
X156687875Y-107516184D01*
X156687875Y-106750000D01*
X156687875Y-105250000D01*
X156670977Y-105162912D01*
X156620697Y-105086369D01*
X156544792Y-105035133D01*
X156455000Y-105017125D01*
X155205000Y-105017125D01*
X155117912Y-105034023D01*
X155041369Y-105084303D01*
X154990133Y-105160208D01*
X154972125Y-105250000D01*
X154972125Y-105466800D01*
X154614633Y-105466800D01*
X154474038Y-105325958D01*
X154264137Y-105238800D01*
X154036860Y-105238601D01*
X153826808Y-105325393D01*
X153665958Y-105485962D01*
X153578800Y-105695863D01*
X153578601Y-105923140D01*
X153665393Y-106133192D01*
X153825962Y-106294042D01*
X153918342Y-106332401D01*
X153962971Y-106377030D01*
X154135953Y-106492613D01*
X154340000Y-106533200D01*
X154972125Y-106533200D01*
X154972125Y-106750000D01*
X154989023Y-106837088D01*
X155039303Y-106913631D01*
X155115208Y-106964867D01*
X155205000Y-106982875D01*
X156455000Y-106982875D01*
X156542088Y-106965977D01*
X156618631Y-106915697D01*
X156669867Y-106839792D01*
X156687875Y-106750000D01*
X156687875Y-107516184D01*
X156641930Y-107470240D01*
X156520641Y-107420000D01*
X156389359Y-107420000D01*
X155963500Y-107420000D01*
X155881000Y-107502500D01*
X155881000Y-108449000D01*
X156702500Y-108449000D01*
X156785000Y-108366500D01*
X156785000Y-108633500D01*
X156702500Y-108551000D01*
X155881000Y-108551000D01*
X155881000Y-109497500D01*
X155963500Y-109580000D01*
X156389359Y-109580000D01*
X156520641Y-109580000D01*
X156641930Y-109529760D01*
X156734761Y-109436930D01*
X156785000Y-109315641D01*
X156785000Y-117655400D01*
X155779000Y-117655400D01*
X155779000Y-109497500D01*
X155779000Y-108551000D01*
X155779000Y-108449000D01*
X155779000Y-107502500D01*
X155696500Y-107420000D01*
X155270641Y-107420000D01*
X155139359Y-107420000D01*
X155018070Y-107470240D01*
X154925239Y-107563070D01*
X154875000Y-107684359D01*
X154875000Y-108366500D01*
X154957500Y-108449000D01*
X155779000Y-108449000D01*
X155779000Y-108551000D01*
X154957500Y-108551000D01*
X154875000Y-108633500D01*
X154875000Y-109315641D01*
X154925239Y-109436930D01*
X155018070Y-109529760D01*
X155139359Y-109580000D01*
X155270641Y-109580000D01*
X155696500Y-109580000D01*
X155779000Y-109497500D01*
X155779000Y-117655400D01*
X155766169Y-117655400D01*
X155324600Y-117213830D01*
X155324600Y-114910000D01*
X155301414Y-114793435D01*
X155301413Y-114793434D01*
X155235385Y-114694615D01*
X155235381Y-114694612D01*
X154450000Y-113909230D01*
X154450000Y-112105641D01*
X154450000Y-111974359D01*
X154450000Y-111523500D01*
X154450000Y-111256500D01*
X154450000Y-110805641D01*
X154450000Y-110674359D01*
X154399760Y-110553070D01*
X154306930Y-110460239D01*
X154185641Y-110410000D01*
X153936000Y-110410000D01*
X153936000Y-109281641D01*
X153936000Y-108333500D01*
X153936000Y-108066500D01*
X153936000Y-107118359D01*
X153885761Y-106997070D01*
X153792930Y-106904240D01*
X153671641Y-106854000D01*
X153540359Y-106854000D01*
X152723500Y-106854000D01*
X152641000Y-106936500D01*
X152641000Y-108149000D01*
X153853500Y-108149000D01*
X153936000Y-108066500D01*
X153936000Y-108333500D01*
X153853500Y-108251000D01*
X152641000Y-108251000D01*
X152641000Y-109463500D01*
X152723500Y-109546000D01*
X153540359Y-109546000D01*
X153671641Y-109546000D01*
X153792930Y-109495760D01*
X153885761Y-109402930D01*
X153936000Y-109281641D01*
X153936000Y-110410000D01*
X153503500Y-110410000D01*
X153421000Y-110492500D01*
X153421000Y-111339000D01*
X154367500Y-111339000D01*
X154450000Y-111256500D01*
X154450000Y-111523500D01*
X154367500Y-111441000D01*
X153421000Y-111441000D01*
X153421000Y-112287500D01*
X153503500Y-112370000D01*
X154185641Y-112370000D01*
X154306930Y-112319761D01*
X154399760Y-112226930D01*
X154450000Y-112105641D01*
X154450000Y-113909230D01*
X154342875Y-113802105D01*
X154342875Y-112900000D01*
X154325977Y-112812912D01*
X154275697Y-112736369D01*
X154199792Y-112685133D01*
X154110000Y-112667125D01*
X153319000Y-112667125D01*
X153319000Y-112287500D01*
X153319000Y-111441000D01*
X153319000Y-111339000D01*
X153319000Y-110492500D01*
X153236500Y-110410000D01*
X152554359Y-110410000D01*
X152539000Y-110416361D01*
X152539000Y-109463500D01*
X152539000Y-108251000D01*
X152519000Y-108251000D01*
X152519000Y-108149000D01*
X152539000Y-108149000D01*
X152539000Y-106936500D01*
X152456500Y-106854000D01*
X151639641Y-106854000D01*
X151508359Y-106854000D01*
X151387070Y-106904240D01*
X151294239Y-106997070D01*
X151244000Y-107118359D01*
X151244000Y-107922242D01*
X151199676Y-107699410D01*
X150929924Y-107295697D01*
X150583200Y-107064023D01*
X150583200Y-106790858D01*
X151131611Y-106242447D01*
X151223192Y-106204607D01*
X151384042Y-106044038D01*
X151471200Y-105834137D01*
X151471399Y-105606860D01*
X151384607Y-105396808D01*
X151224038Y-105235958D01*
X151014137Y-105148800D01*
X150786860Y-105148601D01*
X150576808Y-105235393D01*
X150415958Y-105395962D01*
X150377598Y-105488342D01*
X149672971Y-106192971D01*
X149557387Y-106365953D01*
X149516800Y-106570000D01*
X149516800Y-107064023D01*
X149170076Y-107295697D01*
X148900324Y-107699410D01*
X148805600Y-108175621D01*
X148805600Y-108224379D01*
X148900324Y-108700590D01*
X149170076Y-109104303D01*
X149573789Y-109374055D01*
X150050000Y-109468779D01*
X150526211Y-109374055D01*
X150929924Y-109104303D01*
X151199676Y-108700590D01*
X151244000Y-108477757D01*
X151244000Y-109281641D01*
X151294239Y-109402930D01*
X151387070Y-109495760D01*
X151508359Y-109546000D01*
X151639641Y-109546000D01*
X152456500Y-109546000D01*
X152539000Y-109463500D01*
X152539000Y-110416361D01*
X152433070Y-110460239D01*
X152340240Y-110553070D01*
X152290000Y-110674359D01*
X152290000Y-110805641D01*
X152290000Y-111256500D01*
X152372500Y-111339000D01*
X153319000Y-111339000D01*
X153319000Y-111441000D01*
X152372500Y-111441000D01*
X152290000Y-111523500D01*
X152290000Y-111974359D01*
X152290000Y-112105641D01*
X152340240Y-112226930D01*
X152433070Y-112319761D01*
X152554359Y-112370000D01*
X153236500Y-112370000D01*
X153319000Y-112287500D01*
X153319000Y-112667125D01*
X152610000Y-112667125D01*
X152522912Y-112684023D01*
X152446369Y-112734303D01*
X152395133Y-112810208D01*
X152377125Y-112900000D01*
X152377125Y-114200000D01*
X152394023Y-114287088D01*
X152444303Y-114363631D01*
X152520208Y-114414867D01*
X152610000Y-114432875D01*
X154110000Y-114432875D01*
X154111763Y-114432532D01*
X154715400Y-115036169D01*
X154715400Y-117254630D01*
X154083645Y-116622875D01*
X154090000Y-116622875D01*
X154177088Y-116605977D01*
X154253631Y-116555697D01*
X154304867Y-116479792D01*
X154322875Y-116390000D01*
X154322875Y-115090000D01*
X154305977Y-115002912D01*
X154255697Y-114926369D01*
X154179792Y-114875133D01*
X154090000Y-114857125D01*
X152590000Y-114857125D01*
X152502912Y-114874023D01*
X152426369Y-114924303D01*
X152375133Y-115000208D01*
X152357125Y-115090000D01*
X152357125Y-116390000D01*
X152374023Y-116477088D01*
X152424303Y-116553631D01*
X152500208Y-116604867D01*
X152590000Y-116622875D01*
X153222105Y-116622875D01*
X153434630Y-116835400D01*
X151686169Y-116835400D01*
X151460051Y-116609282D01*
X151477088Y-116605977D01*
X151553631Y-116555697D01*
X151604867Y-116479792D01*
X151622875Y-116390000D01*
X151622875Y-115090000D01*
X151605977Y-115002912D01*
X151555697Y-114926369D01*
X151479792Y-114875133D01*
X151390000Y-114857125D01*
X150944600Y-114857125D01*
X150944600Y-114432875D01*
X151410000Y-114432875D01*
X151497088Y-114415977D01*
X151573631Y-114365697D01*
X151624867Y-114289792D01*
X151642875Y-114200000D01*
X151642875Y-112900000D01*
X151625977Y-112812912D01*
X151575697Y-112736369D01*
X151499792Y-112685133D01*
X151410000Y-112667125D01*
X150974600Y-112667125D01*
X150974600Y-112272875D01*
X151420000Y-112272875D01*
X151507088Y-112255977D01*
X151583631Y-112205697D01*
X151634867Y-112129792D01*
X151652875Y-112040000D01*
X151652875Y-110740000D01*
X151635977Y-110652912D01*
X151585697Y-110576369D01*
X151509792Y-110525133D01*
X151420000Y-110507125D01*
X149920000Y-110507125D01*
X149832912Y-110524023D01*
X149756369Y-110574303D01*
X149705133Y-110650208D01*
X149687125Y-110740000D01*
X149687125Y-112040000D01*
X149704023Y-112127088D01*
X149754303Y-112203631D01*
X149830208Y-112254867D01*
X149920000Y-112272875D01*
X150365400Y-112272875D01*
X150365400Y-112667125D01*
X149910000Y-112667125D01*
X149822912Y-112684023D01*
X149746369Y-112734303D01*
X149695133Y-112810208D01*
X149677125Y-112900000D01*
X149677125Y-114200000D01*
X149694023Y-114287088D01*
X149744303Y-114363631D01*
X149820208Y-114414867D01*
X149910000Y-114432875D01*
X150335400Y-114432875D01*
X150335400Y-114857125D01*
X149890000Y-114857125D01*
X149802912Y-114874023D01*
X149726369Y-114924303D01*
X149675133Y-115000208D01*
X149657125Y-115090000D01*
X149657125Y-116390000D01*
X149674023Y-116477088D01*
X149724303Y-116553631D01*
X149800208Y-116604867D01*
X149890000Y-116622875D01*
X150612105Y-116622875D01*
X151344612Y-117355381D01*
X151344615Y-117355385D01*
X151443434Y-117421413D01*
X151443435Y-117421414D01*
X151560000Y-117444600D01*
X153363830Y-117444600D01*
X154921355Y-119002125D01*
X153460000Y-119002125D01*
X153372912Y-119019023D01*
X153296369Y-119069303D01*
X153245133Y-119145208D01*
X153227125Y-119235000D01*
X153227125Y-119555400D01*
X152863201Y-119555400D01*
X152704038Y-119395958D01*
X152494137Y-119308800D01*
X152266860Y-119308601D01*
X152056808Y-119395393D01*
X151895958Y-119555962D01*
X151808800Y-119765863D01*
X151808601Y-119993140D01*
X151895393Y-120203192D01*
X152055962Y-120364042D01*
X152265863Y-120451200D01*
X152493140Y-120451399D01*
X152703192Y-120364607D01*
X152864042Y-120204038D01*
X152880417Y-120164600D01*
X153227125Y-120164600D01*
X153227125Y-120485000D01*
X153244023Y-120572088D01*
X153294303Y-120648631D01*
X153370208Y-120699867D01*
X153460000Y-120717875D01*
X154960000Y-120717875D01*
X155047088Y-120700977D01*
X155123631Y-120650697D01*
X155174867Y-120574792D01*
X155192875Y-120485000D01*
X155192875Y-119273645D01*
X155394615Y-119475385D01*
X155493434Y-119541414D01*
X155493435Y-119541414D01*
X155610000Y-119564601D01*
X155610000Y-119564600D01*
X155610005Y-119564600D01*
X155727125Y-119564600D01*
X155727125Y-120485000D01*
X155744023Y-120572088D01*
X155794303Y-120648631D01*
X155870208Y-120699867D01*
X155960000Y-120717875D01*
X157460000Y-120717875D01*
X157547088Y-120700977D01*
X157623631Y-120650697D01*
X157674867Y-120574792D01*
X157692875Y-120485000D01*
X157692875Y-120164600D01*
X158962371Y-120164600D01*
X158878800Y-120365863D01*
X158878601Y-120593140D01*
X158965393Y-120803192D01*
X159125962Y-120964042D01*
X159335863Y-121051200D01*
X159563140Y-121051399D01*
X159773192Y-120964607D01*
X159934042Y-120804038D01*
X160021200Y-120594137D01*
X160021328Y-120447203D01*
X160081928Y-120386604D01*
X160087387Y-120414047D01*
X160202971Y-120587029D01*
X160612971Y-120997030D01*
X160785953Y-121112613D01*
X160990000Y-121153200D01*
X164980000Y-121153200D01*
X166550000Y-121153200D01*
X166754047Y-121112613D01*
X166927029Y-120997029D01*
X167287029Y-120637029D01*
X167402613Y-120464047D01*
X167443200Y-120260000D01*
X167443200Y-119917472D01*
X167520000Y-119932875D01*
X169020000Y-119932875D01*
X169107088Y-119915977D01*
X169183631Y-119865697D01*
X169234867Y-119789792D01*
X169252875Y-119700000D01*
X169252875Y-118400000D01*
X169235977Y-118312912D01*
X169185697Y-118236369D01*
X169109792Y-118185133D01*
X169020000Y-118167125D01*
X167520000Y-118167125D01*
X167432912Y-118184023D01*
X167356369Y-118234303D01*
X167305133Y-118310208D01*
X167287125Y-118400000D01*
X167287125Y-118546800D01*
X166994600Y-118546800D01*
X166994600Y-117837048D01*
X167214361Y-117746246D01*
X167475329Y-117485732D01*
X167616739Y-117145181D01*
X167617060Y-116776437D01*
X167476246Y-116435639D01*
X167215732Y-116174671D01*
X166875181Y-116033261D01*
X166506437Y-116032940D01*
X166165639Y-116173754D01*
X165904671Y-116434268D01*
X165763261Y-116774819D01*
X165762940Y-117143563D01*
X165903754Y-117484361D01*
X166164268Y-117745329D01*
X166385400Y-117837151D01*
X166385400Y-118546800D01*
X166232875Y-118546800D01*
X166232875Y-118430000D01*
X166215977Y-118342912D01*
X166165697Y-118266369D01*
X166089792Y-118215133D01*
X166000000Y-118197125D01*
X164500000Y-118197125D01*
X164412912Y-118214023D01*
X164336369Y-118264303D01*
X164285133Y-118340208D01*
X164267125Y-118430000D01*
X164267125Y-119730000D01*
X164284023Y-119817088D01*
X164334303Y-119893631D01*
X164410208Y-119944867D01*
X164500000Y-119962875D01*
X166000000Y-119962875D01*
X166087088Y-119945977D01*
X166163631Y-119895697D01*
X166214867Y-119819792D01*
X166232875Y-119730000D01*
X166232875Y-119613200D01*
X166376800Y-119613200D01*
X166376800Y-120039142D01*
X166329142Y-120086800D01*
X164980000Y-120086800D01*
X161210858Y-120086800D01*
X160960800Y-119836741D01*
X160960800Y-118440000D01*
X160948400Y-118377661D01*
X160948400Y-117963771D01*
X160920373Y-117822875D01*
X161330000Y-117822875D01*
X161417088Y-117805977D01*
X161493631Y-117755697D01*
X161544867Y-117679792D01*
X161562875Y-117590000D01*
X161562875Y-116426933D01*
X162016800Y-116880858D01*
X162016800Y-118197125D01*
X161800000Y-118197125D01*
X161712912Y-118214023D01*
X161636369Y-118264303D01*
X161585133Y-118340208D01*
X161567125Y-118430000D01*
X161567125Y-119730000D01*
X161584023Y-119817088D01*
X161634303Y-119893631D01*
X161710208Y-119944867D01*
X161800000Y-119962875D01*
X163300000Y-119962875D01*
X163387088Y-119945977D01*
X163463631Y-119895697D01*
X163514867Y-119819792D01*
X163532875Y-119730000D01*
X163532875Y-118430000D01*
X163515977Y-118342912D01*
X163465697Y-118266369D01*
X163389792Y-118215133D01*
X163300000Y-118197125D01*
X163083200Y-118197125D01*
X163083200Y-117186596D01*
X163254047Y-117152613D01*
X163427029Y-117037029D01*
X165067029Y-115397030D01*
X165067029Y-115397029D01*
X165182613Y-115224047D01*
X165223199Y-115020000D01*
X165223200Y-115020000D01*
X165223200Y-114642875D01*
X165690000Y-114642875D01*
X165777088Y-114625977D01*
X165853631Y-114575697D01*
X165904867Y-114499792D01*
X165922875Y-114410000D01*
X165922875Y-111910000D01*
X165905977Y-111822912D01*
X165855697Y-111746369D01*
X165779792Y-111695133D01*
X165690000Y-111677125D01*
X165223200Y-111677125D01*
X165223200Y-111150858D01*
X165850858Y-110523200D01*
X173279142Y-110523200D01*
X174156800Y-111400858D01*
X174156800Y-114231125D01*
X173674000Y-114231125D01*
X173586912Y-114248023D01*
X173510369Y-114298303D01*
X173459133Y-114374208D01*
X173441125Y-114464000D01*
X173441125Y-114596800D01*
X172407875Y-114596800D01*
X172407875Y-114380000D01*
X172407875Y-113380000D01*
X172407875Y-111880000D01*
X172390977Y-111792912D01*
X172340697Y-111716369D01*
X172264792Y-111665133D01*
X172175000Y-111647125D01*
X171451183Y-111647125D01*
X170672448Y-110868390D01*
X170634607Y-110776808D01*
X170474038Y-110615958D01*
X170264137Y-110528800D01*
X170036860Y-110528601D01*
X169826808Y-110615393D01*
X169665958Y-110775962D01*
X169627597Y-110868344D01*
X168818817Y-111677125D01*
X167690000Y-111677125D01*
X167602912Y-111694023D01*
X167526369Y-111744303D01*
X167475133Y-111820208D01*
X167457125Y-111910000D01*
X167457125Y-114410000D01*
X167474023Y-114497088D01*
X167524303Y-114573631D01*
X167600208Y-114624867D01*
X167690000Y-114642875D01*
X169690000Y-114642875D01*
X169777088Y-114625977D01*
X169853631Y-114575697D01*
X169904867Y-114499792D01*
X169922875Y-114410000D01*
X169922875Y-112081183D01*
X170150000Y-111854058D01*
X170692125Y-112396183D01*
X170692125Y-113380000D01*
X170709023Y-113467088D01*
X170759303Y-113543631D01*
X170835208Y-113594867D01*
X170925000Y-113612875D01*
X172175000Y-113612875D01*
X172262088Y-113595977D01*
X172338631Y-113545697D01*
X172389867Y-113469792D01*
X172407875Y-113380000D01*
X172407875Y-114380000D01*
X172390977Y-114292912D01*
X172340697Y-114216369D01*
X172264792Y-114165133D01*
X172175000Y-114147125D01*
X170925000Y-114147125D01*
X170837912Y-114164023D01*
X170761369Y-114214303D01*
X170710133Y-114290208D01*
X170692125Y-114380000D01*
X170692125Y-115880000D01*
X170709023Y-115967088D01*
X170759303Y-116043631D01*
X170835208Y-116094867D01*
X170925000Y-116112875D01*
X171059200Y-116112875D01*
X171059200Y-116294436D01*
X170915639Y-116353754D01*
X170654671Y-116614268D01*
X170513261Y-116954819D01*
X170512940Y-117323563D01*
X170653754Y-117664361D01*
X170914268Y-117925329D01*
X171254819Y-118066739D01*
X171623563Y-118067060D01*
X171964361Y-117926246D01*
X172225329Y-117665732D01*
X172366739Y-117325181D01*
X172367060Y-116956437D01*
X172226246Y-116615639D01*
X171965732Y-116354671D01*
X171820800Y-116294489D01*
X171820800Y-116112875D01*
X172175000Y-116112875D01*
X172262088Y-116095977D01*
X172338631Y-116045697D01*
X172389867Y-115969792D01*
X172407875Y-115880000D01*
X172407875Y-115663200D01*
X173441125Y-115663200D01*
X173441125Y-116496000D01*
X173458023Y-116583088D01*
X173508303Y-116659631D01*
X173584208Y-116710867D01*
X173674000Y-116728875D01*
X175706000Y-116728875D01*
X175793088Y-116711977D01*
X175869631Y-116661697D01*
X175920867Y-116585792D01*
X175938875Y-116496000D01*
X175938875Y-117919935D01*
X175864055Y-117543789D01*
X175594303Y-117140076D01*
X175190590Y-116870324D01*
X174714379Y-116775600D01*
X174665621Y-116775600D01*
X174189410Y-116870324D01*
X173785697Y-117140076D01*
X173515945Y-117543789D01*
X173421221Y-118020000D01*
X173506618Y-118449323D01*
X173439142Y-118516800D01*
X171952875Y-118516800D01*
X171952875Y-118400000D01*
X171935977Y-118312912D01*
X171885697Y-118236369D01*
X171809792Y-118185133D01*
X171720000Y-118167125D01*
X170220000Y-118167125D01*
X170132912Y-118184023D01*
X170056369Y-118234303D01*
X170005133Y-118310208D01*
X169987125Y-118400000D01*
X169987125Y-119700000D01*
X170004023Y-119787088D01*
X170054303Y-119863631D01*
X170130208Y-119914867D01*
X170220000Y-119932875D01*
X171720000Y-119932875D01*
X171807088Y-119915977D01*
X171883631Y-119865697D01*
X171934867Y-119789792D01*
X171952875Y-119700000D01*
X171952875Y-119583200D01*
X173660000Y-119583200D01*
X173864047Y-119542613D01*
X174037029Y-119427029D01*
X174276966Y-119187091D01*
X174665621Y-119264400D01*
X174714379Y-119264400D01*
X175190590Y-119169676D01*
X175594303Y-118899924D01*
X175864055Y-118496211D01*
X175958779Y-118020000D01*
X175958779Y-121342000D01*
X147888000Y-121342000D01*
X147888000Y-104738000D01*
X176542000Y-104738000D01*
X176542000Y-121342000D01*
M02*
