G04 #@! TF.FileFunction,Copper,L2,Bot,Signal*
%FSLAX46Y46*%
G04 Gerber Fmt 4.6, Leading zero omitted, Abs format (unit mm)*
G04 Created by KiCad (PCBNEW (2015-01-29 BZR 5396)-product) date 8/16/2015 3:30:30 PM*
%MOMM*%
G01*
G04 APERTURE LIST*
%ADD10C,0.100000*%
%ADD11R,2.032000X2.032000*%
%ADD12O,2.032000X2.032000*%
%ADD13C,1.397000*%
%ADD14R,2.750000X1.200000*%
%ADD15C,0.500000*%
%ADD16C,0.685800*%
%ADD17C,0.152400*%
%ADD18C,0.609600*%
%ADD19C,0.152000*%
G04 APERTURE END LIST*
D10*
D11*
X152590000Y-108200000D03*
D12*
X150050000Y-108200000D03*
D13*
X158460000Y-108570000D03*
X166690000Y-116960000D03*
X160910000Y-108550000D03*
X162110000Y-114080000D03*
X171440000Y-117140000D03*
D11*
X174690000Y-115480000D03*
D12*
X174690000Y-118020000D03*
D14*
X159955000Y-116990000D03*
D15*
X158890000Y-116700000D03*
X158890000Y-117290000D03*
X159580000Y-116990000D03*
X160360000Y-116690000D03*
X160370000Y-117300000D03*
D16*
X152380000Y-119880000D03*
X150900000Y-105720000D03*
X154150000Y-105810000D03*
X170150000Y-111100000D03*
X159580000Y-114130000D03*
D17*
X152380000Y-119880000D02*
X152380000Y-119870000D01*
D18*
X150900000Y-105720000D02*
X150900000Y-105700000D01*
D19*
G36*
X159666267Y-117004142D02*
X159629409Y-117041000D01*
X159530591Y-117041000D01*
X159493733Y-117004142D01*
X159507875Y-116990000D01*
X159493733Y-116975858D01*
X159530591Y-116939000D01*
X159629409Y-116939000D01*
X159666267Y-116975858D01*
X159652125Y-116990000D01*
X159666267Y-117004142D01*
X159666267Y-117004142D01*
G37*
X159666267Y-117004142D02*
X159629409Y-117041000D01*
X159530591Y-117041000D01*
X159493733Y-117004142D01*
X159507875Y-116990000D01*
X159493733Y-116975858D01*
X159530591Y-116939000D01*
X159629409Y-116939000D01*
X159666267Y-116975858D01*
X159652125Y-116990000D01*
X159666267Y-117004142D01*
G36*
X176542000Y-121342000D02*
X176010495Y-121342000D01*
X176010495Y-118280782D01*
X176010495Y-117759218D01*
X176009781Y-117755598D01*
X175808136Y-117270666D01*
X175436265Y-116899814D01*
X175021975Y-116728875D01*
X175706000Y-116728875D01*
X175793088Y-116711977D01*
X175869631Y-116661697D01*
X175920867Y-116585792D01*
X175938875Y-116496000D01*
X175938875Y-114464000D01*
X175921977Y-114376912D01*
X175871697Y-114300369D01*
X175795792Y-114249133D01*
X175706000Y-114231125D01*
X173674000Y-114231125D01*
X173586912Y-114248023D01*
X173510369Y-114298303D01*
X173459133Y-114374208D01*
X173441125Y-114464000D01*
X173441125Y-116496000D01*
X173458023Y-116583088D01*
X173508303Y-116659631D01*
X173584208Y-116710867D01*
X173674000Y-116728875D01*
X174358024Y-116728875D01*
X173943735Y-116899814D01*
X173571864Y-117270666D01*
X173370219Y-117755598D01*
X173369505Y-117759218D01*
X173427530Y-117969000D01*
X174639000Y-117969000D01*
X174639000Y-117949000D01*
X174741000Y-117949000D01*
X174741000Y-117969000D01*
X175952470Y-117969000D01*
X176010495Y-117759218D01*
X176010495Y-118280782D01*
X175952470Y-118071000D01*
X174741000Y-118071000D01*
X174741000Y-119282538D01*
X174950782Y-119340500D01*
X175436265Y-119140186D01*
X175808136Y-118769334D01*
X176009781Y-118284402D01*
X176010495Y-118280782D01*
X176010495Y-121342000D01*
X174639000Y-121342000D01*
X174639000Y-119282538D01*
X174639000Y-118071000D01*
X173427530Y-118071000D01*
X173369505Y-118280782D01*
X173370219Y-118284402D01*
X173571864Y-118769334D01*
X173943735Y-119140186D01*
X174429218Y-119340500D01*
X174639000Y-119282538D01*
X174639000Y-121342000D01*
X172367060Y-121342000D01*
X172367060Y-116956437D01*
X172226246Y-116615639D01*
X171965732Y-116354671D01*
X171625181Y-116213261D01*
X171256437Y-116212940D01*
X170915639Y-116353754D01*
X170654671Y-116614268D01*
X170513261Y-116954819D01*
X170512940Y-117323563D01*
X170653754Y-117664361D01*
X170914268Y-117925329D01*
X171254819Y-118066739D01*
X171623563Y-118067060D01*
X171964361Y-117926246D01*
X172225329Y-117665732D01*
X172366739Y-117325181D01*
X172367060Y-116956437D01*
X172367060Y-121342000D01*
X167617060Y-121342000D01*
X167617060Y-116776437D01*
X167476246Y-116435639D01*
X167215732Y-116174671D01*
X166875181Y-116033261D01*
X166506437Y-116032940D01*
X166165639Y-116173754D01*
X165904671Y-116434268D01*
X165763261Y-116774819D01*
X165762940Y-117143563D01*
X165903754Y-117484361D01*
X166164268Y-117745329D01*
X166504819Y-117886739D01*
X166873563Y-117887060D01*
X167214361Y-117746246D01*
X167475329Y-117485732D01*
X167616739Y-117145181D01*
X167617060Y-116776437D01*
X167617060Y-121342000D01*
X163037060Y-121342000D01*
X163037060Y-113896437D01*
X162896246Y-113555639D01*
X162635732Y-113294671D01*
X162295181Y-113153261D01*
X161926437Y-113152940D01*
X161837060Y-113189869D01*
X161837060Y-108366437D01*
X161696246Y-108025639D01*
X161435732Y-107764671D01*
X161095181Y-107623261D01*
X160726437Y-107622940D01*
X160385639Y-107763754D01*
X160124671Y-108024268D01*
X159983261Y-108364819D01*
X159982940Y-108733563D01*
X160123754Y-109074361D01*
X160384268Y-109335329D01*
X160724819Y-109476739D01*
X161093563Y-109477060D01*
X161434361Y-109336246D01*
X161695329Y-109075732D01*
X161836739Y-108735181D01*
X161837060Y-108366437D01*
X161837060Y-113189869D01*
X161585639Y-113293754D01*
X161324671Y-113554268D01*
X161183261Y-113894819D01*
X161182940Y-114263563D01*
X161323754Y-114604361D01*
X161584268Y-114865329D01*
X161924819Y-115006739D01*
X162293563Y-115007060D01*
X162634361Y-114866246D01*
X162895329Y-114605732D01*
X163036739Y-114265181D01*
X163037060Y-113896437D01*
X163037060Y-121342000D01*
X161660000Y-121342000D01*
X161660000Y-117655641D01*
X161660000Y-117123500D01*
X161577500Y-117041000D01*
X160895687Y-117041000D01*
X160876617Y-116994960D01*
X160867157Y-116993539D01*
X160886795Y-116939000D01*
X161577500Y-116939000D01*
X161660000Y-116856500D01*
X161660000Y-116324359D01*
X161609761Y-116203070D01*
X161516930Y-116110240D01*
X161395641Y-116060000D01*
X161264359Y-116060000D01*
X160088500Y-116060000D01*
X160006000Y-116142500D01*
X160006000Y-116408125D01*
X159965929Y-116368054D01*
X159904000Y-116377356D01*
X159904000Y-116142500D01*
X159821500Y-116060000D01*
X159387060Y-116060000D01*
X159387060Y-108386437D01*
X159246246Y-108045639D01*
X158985732Y-107784671D01*
X158645181Y-107643261D01*
X158276437Y-107642940D01*
X157935639Y-107783754D01*
X157674671Y-108044268D01*
X157533261Y-108384819D01*
X157532940Y-108753563D01*
X157673754Y-109094361D01*
X157934268Y-109355329D01*
X158274819Y-109496739D01*
X158643563Y-109497060D01*
X158984361Y-109356246D01*
X159245329Y-109095732D01*
X159386739Y-108755181D01*
X159387060Y-108386437D01*
X159387060Y-116060000D01*
X158645641Y-116060000D01*
X158514359Y-116060000D01*
X158393070Y-116110240D01*
X158300239Y-116203070D01*
X158250000Y-116324359D01*
X158250000Y-116856500D01*
X158332500Y-116939000D01*
X158356027Y-116939000D01*
X158379515Y-116995702D01*
X158363204Y-117041000D01*
X158332500Y-117041000D01*
X158250000Y-117123500D01*
X158250000Y-117655641D01*
X158300239Y-117776930D01*
X158393070Y-117869760D01*
X158514359Y-117920000D01*
X158645641Y-117920000D01*
X159821500Y-117920000D01*
X159904000Y-117837500D01*
X159904000Y-117611141D01*
X159975929Y-117621946D01*
X160006000Y-117591875D01*
X160006000Y-117837500D01*
X160088500Y-117920000D01*
X161264359Y-117920000D01*
X161395641Y-117920000D01*
X161516930Y-117869760D01*
X161609761Y-117776930D01*
X161660000Y-117655641D01*
X161660000Y-121342000D01*
X153838875Y-121342000D01*
X153838875Y-109216000D01*
X153838875Y-107184000D01*
X153821977Y-107096912D01*
X153771697Y-107020369D01*
X153695792Y-106969133D01*
X153606000Y-106951125D01*
X151574000Y-106951125D01*
X151486912Y-106968023D01*
X151410369Y-107018303D01*
X151359133Y-107094208D01*
X151341125Y-107184000D01*
X151341125Y-107868024D01*
X151170186Y-107453735D01*
X150799334Y-107081864D01*
X150314402Y-106880219D01*
X150310782Y-106879505D01*
X150101000Y-106937530D01*
X150101000Y-108149000D01*
X150121000Y-108149000D01*
X150121000Y-108251000D01*
X150101000Y-108251000D01*
X150101000Y-109462470D01*
X150310782Y-109520495D01*
X150314402Y-109519781D01*
X150799334Y-109318136D01*
X151170186Y-108946265D01*
X151341125Y-108531975D01*
X151341125Y-109216000D01*
X151358023Y-109303088D01*
X151408303Y-109379631D01*
X151484208Y-109430867D01*
X151574000Y-109448875D01*
X153606000Y-109448875D01*
X153693088Y-109431977D01*
X153769631Y-109381697D01*
X153820867Y-109305792D01*
X153838875Y-109216000D01*
X153838875Y-121342000D01*
X149999000Y-121342000D01*
X149999000Y-109462470D01*
X149999000Y-108251000D01*
X149999000Y-108149000D01*
X149999000Y-106937530D01*
X149789218Y-106879505D01*
X149785598Y-106880219D01*
X149300666Y-107081864D01*
X148929814Y-107453735D01*
X148729500Y-107939218D01*
X148787462Y-108149000D01*
X149999000Y-108149000D01*
X149999000Y-108251000D01*
X148787462Y-108251000D01*
X148729500Y-108460782D01*
X148929814Y-108946265D01*
X149300666Y-109318136D01*
X149785598Y-109519781D01*
X149789218Y-109520495D01*
X149999000Y-109462470D01*
X149999000Y-121342000D01*
X147888000Y-121342000D01*
X147888000Y-104738000D01*
X176542000Y-104738000D01*
X176542000Y-121342000D01*
X176542000Y-121342000D01*
G37*
X176542000Y-121342000D02*
X176010495Y-121342000D01*
X176010495Y-118280782D01*
X176010495Y-117759218D01*
X176009781Y-117755598D01*
X175808136Y-117270666D01*
X175436265Y-116899814D01*
X175021975Y-116728875D01*
X175706000Y-116728875D01*
X175793088Y-116711977D01*
X175869631Y-116661697D01*
X175920867Y-116585792D01*
X175938875Y-116496000D01*
X175938875Y-114464000D01*
X175921977Y-114376912D01*
X175871697Y-114300369D01*
X175795792Y-114249133D01*
X175706000Y-114231125D01*
X173674000Y-114231125D01*
X173586912Y-114248023D01*
X173510369Y-114298303D01*
X173459133Y-114374208D01*
X173441125Y-114464000D01*
X173441125Y-116496000D01*
X173458023Y-116583088D01*
X173508303Y-116659631D01*
X173584208Y-116710867D01*
X173674000Y-116728875D01*
X174358024Y-116728875D01*
X173943735Y-116899814D01*
X173571864Y-117270666D01*
X173370219Y-117755598D01*
X173369505Y-117759218D01*
X173427530Y-117969000D01*
X174639000Y-117969000D01*
X174639000Y-117949000D01*
X174741000Y-117949000D01*
X174741000Y-117969000D01*
X175952470Y-117969000D01*
X176010495Y-117759218D01*
X176010495Y-118280782D01*
X175952470Y-118071000D01*
X174741000Y-118071000D01*
X174741000Y-119282538D01*
X174950782Y-119340500D01*
X175436265Y-119140186D01*
X175808136Y-118769334D01*
X176009781Y-118284402D01*
X176010495Y-118280782D01*
X176010495Y-121342000D01*
X174639000Y-121342000D01*
X174639000Y-119282538D01*
X174639000Y-118071000D01*
X173427530Y-118071000D01*
X173369505Y-118280782D01*
X173370219Y-118284402D01*
X173571864Y-118769334D01*
X173943735Y-119140186D01*
X174429218Y-119340500D01*
X174639000Y-119282538D01*
X174639000Y-121342000D01*
X172367060Y-121342000D01*
X172367060Y-116956437D01*
X172226246Y-116615639D01*
X171965732Y-116354671D01*
X171625181Y-116213261D01*
X171256437Y-116212940D01*
X170915639Y-116353754D01*
X170654671Y-116614268D01*
X170513261Y-116954819D01*
X170512940Y-117323563D01*
X170653754Y-117664361D01*
X170914268Y-117925329D01*
X171254819Y-118066739D01*
X171623563Y-118067060D01*
X171964361Y-117926246D01*
X172225329Y-117665732D01*
X172366739Y-117325181D01*
X172367060Y-116956437D01*
X172367060Y-121342000D01*
X167617060Y-121342000D01*
X167617060Y-116776437D01*
X167476246Y-116435639D01*
X167215732Y-116174671D01*
X166875181Y-116033261D01*
X166506437Y-116032940D01*
X166165639Y-116173754D01*
X165904671Y-116434268D01*
X165763261Y-116774819D01*
X165762940Y-117143563D01*
X165903754Y-117484361D01*
X166164268Y-117745329D01*
X166504819Y-117886739D01*
X166873563Y-117887060D01*
X167214361Y-117746246D01*
X167475329Y-117485732D01*
X167616739Y-117145181D01*
X167617060Y-116776437D01*
X167617060Y-121342000D01*
X163037060Y-121342000D01*
X163037060Y-113896437D01*
X162896246Y-113555639D01*
X162635732Y-113294671D01*
X162295181Y-113153261D01*
X161926437Y-113152940D01*
X161837060Y-113189869D01*
X161837060Y-108366437D01*
X161696246Y-108025639D01*
X161435732Y-107764671D01*
X161095181Y-107623261D01*
X160726437Y-107622940D01*
X160385639Y-107763754D01*
X160124671Y-108024268D01*
X159983261Y-108364819D01*
X159982940Y-108733563D01*
X160123754Y-109074361D01*
X160384268Y-109335329D01*
X160724819Y-109476739D01*
X161093563Y-109477060D01*
X161434361Y-109336246D01*
X161695329Y-109075732D01*
X161836739Y-108735181D01*
X161837060Y-108366437D01*
X161837060Y-113189869D01*
X161585639Y-113293754D01*
X161324671Y-113554268D01*
X161183261Y-113894819D01*
X161182940Y-114263563D01*
X161323754Y-114604361D01*
X161584268Y-114865329D01*
X161924819Y-115006739D01*
X162293563Y-115007060D01*
X162634361Y-114866246D01*
X162895329Y-114605732D01*
X163036739Y-114265181D01*
X163037060Y-113896437D01*
X163037060Y-121342000D01*
X161660000Y-121342000D01*
X161660000Y-117655641D01*
X161660000Y-117123500D01*
X161577500Y-117041000D01*
X160895687Y-117041000D01*
X160876617Y-116994960D01*
X160867157Y-116993539D01*
X160886795Y-116939000D01*
X161577500Y-116939000D01*
X161660000Y-116856500D01*
X161660000Y-116324359D01*
X161609761Y-116203070D01*
X161516930Y-116110240D01*
X161395641Y-116060000D01*
X161264359Y-116060000D01*
X160088500Y-116060000D01*
X160006000Y-116142500D01*
X160006000Y-116408125D01*
X159965929Y-116368054D01*
X159904000Y-116377356D01*
X159904000Y-116142500D01*
X159821500Y-116060000D01*
X159387060Y-116060000D01*
X159387060Y-108386437D01*
X159246246Y-108045639D01*
X158985732Y-107784671D01*
X158645181Y-107643261D01*
X158276437Y-107642940D01*
X157935639Y-107783754D01*
X157674671Y-108044268D01*
X157533261Y-108384819D01*
X157532940Y-108753563D01*
X157673754Y-109094361D01*
X157934268Y-109355329D01*
X158274819Y-109496739D01*
X158643563Y-109497060D01*
X158984361Y-109356246D01*
X159245329Y-109095732D01*
X159386739Y-108755181D01*
X159387060Y-108386437D01*
X159387060Y-116060000D01*
X158645641Y-116060000D01*
X158514359Y-116060000D01*
X158393070Y-116110240D01*
X158300239Y-116203070D01*
X158250000Y-116324359D01*
X158250000Y-116856500D01*
X158332500Y-116939000D01*
X158356027Y-116939000D01*
X158379515Y-116995702D01*
X158363204Y-117041000D01*
X158332500Y-117041000D01*
X158250000Y-117123500D01*
X158250000Y-117655641D01*
X158300239Y-117776930D01*
X158393070Y-117869760D01*
X158514359Y-117920000D01*
X158645641Y-117920000D01*
X159821500Y-117920000D01*
X159904000Y-117837500D01*
X159904000Y-117611141D01*
X159975929Y-117621946D01*
X160006000Y-117591875D01*
X160006000Y-117837500D01*
X160088500Y-117920000D01*
X161264359Y-117920000D01*
X161395641Y-117920000D01*
X161516930Y-117869760D01*
X161609761Y-117776930D01*
X161660000Y-117655641D01*
X161660000Y-121342000D01*
X153838875Y-121342000D01*
X153838875Y-109216000D01*
X153838875Y-107184000D01*
X153821977Y-107096912D01*
X153771697Y-107020369D01*
X153695792Y-106969133D01*
X153606000Y-106951125D01*
X151574000Y-106951125D01*
X151486912Y-106968023D01*
X151410369Y-107018303D01*
X151359133Y-107094208D01*
X151341125Y-107184000D01*
X151341125Y-107868024D01*
X151170186Y-107453735D01*
X150799334Y-107081864D01*
X150314402Y-106880219D01*
X150310782Y-106879505D01*
X150101000Y-106937530D01*
X150101000Y-108149000D01*
X150121000Y-108149000D01*
X150121000Y-108251000D01*
X150101000Y-108251000D01*
X150101000Y-109462470D01*
X150310782Y-109520495D01*
X150314402Y-109519781D01*
X150799334Y-109318136D01*
X151170186Y-108946265D01*
X151341125Y-108531975D01*
X151341125Y-109216000D01*
X151358023Y-109303088D01*
X151408303Y-109379631D01*
X151484208Y-109430867D01*
X151574000Y-109448875D01*
X153606000Y-109448875D01*
X153693088Y-109431977D01*
X153769631Y-109381697D01*
X153820867Y-109305792D01*
X153838875Y-109216000D01*
X153838875Y-121342000D01*
X149999000Y-121342000D01*
X149999000Y-109462470D01*
X149999000Y-108251000D01*
X149999000Y-108149000D01*
X149999000Y-106937530D01*
X149789218Y-106879505D01*
X149785598Y-106880219D01*
X149300666Y-107081864D01*
X148929814Y-107453735D01*
X148729500Y-107939218D01*
X148787462Y-108149000D01*
X149999000Y-108149000D01*
X149999000Y-108251000D01*
X148787462Y-108251000D01*
X148729500Y-108460782D01*
X148929814Y-108946265D01*
X149300666Y-109318136D01*
X149785598Y-109519781D01*
X149789218Y-109520495D01*
X149999000Y-109462470D01*
X149999000Y-121342000D01*
X147888000Y-121342000D01*
X147888000Y-104738000D01*
X176542000Y-104738000D01*
X176542000Y-121342000D01*
M02*
