G04 #@! TF.FileFunction,Legend,Top*
%FSLAX46Y46*%
G04 Gerber Fmt 4.6, Leading zero omitted, Abs format (unit mm)*
G04 Created by KiCad (PCBNEW (2015-01-29 BZR 5396)-product) date 8/16/2015 3:30:30 PM*
%MOMM*%
G01*
G04 APERTURE LIST*
%ADD10C,0.100000*%
%ADD11C,0.125000*%
%ADD12C,0.300000*%
%ADD13C,0.150000*%
%ADD14R,1.250000X1.500000*%
%ADD15R,1.500000X1.250000*%
%ADD16R,2.000000X2.500000*%
%ADD17R,1.100000X3.000000*%
%ADD18R,0.500000X1.800000*%
%ADD19R,2.032000X2.032000*%
%ADD20O,2.032000X2.032000*%
%ADD21C,1.397000*%
%ADD22R,1.500000X1.300000*%
%ADD23R,2.750000X1.200000*%
%ADD24O,0.420000X1.340000*%
%ADD25C,0.500000*%
G04 APERTURE END LIST*
D10*
X171310478Y-108156190D02*
X171072383Y-108156190D01*
X171072383Y-107656190D01*
X171477145Y-108156190D02*
X171477145Y-107822857D01*
X171477145Y-107656190D02*
X171453335Y-107680000D01*
X171477145Y-107703810D01*
X171500954Y-107680000D01*
X171477145Y-107656190D01*
X171477145Y-107703810D01*
X171929525Y-108132381D02*
X171881906Y-108156190D01*
X171786668Y-108156190D01*
X171739049Y-108132381D01*
X171715240Y-108108571D01*
X171691430Y-108060952D01*
X171691430Y-107918095D01*
X171715240Y-107870476D01*
X171739049Y-107846667D01*
X171786668Y-107822857D01*
X171881906Y-107822857D01*
X171929525Y-107846667D01*
X172334287Y-108132381D02*
X172286668Y-108156190D01*
X172191430Y-108156190D01*
X172143811Y-108132381D01*
X172120001Y-108084762D01*
X172120001Y-107894286D01*
X172143811Y-107846667D01*
X172191430Y-107822857D01*
X172286668Y-107822857D01*
X172334287Y-107846667D01*
X172358096Y-107894286D01*
X172358096Y-107941905D01*
X172120001Y-107989524D01*
X172572382Y-107822857D02*
X172572382Y-108156190D01*
X172572382Y-107870476D02*
X172596191Y-107846667D01*
X172643810Y-107822857D01*
X172715239Y-107822857D01*
X172762858Y-107846667D01*
X172786667Y-107894286D01*
X172786667Y-108156190D01*
X173000953Y-108132381D02*
X173048572Y-108156190D01*
X173143810Y-108156190D01*
X173191429Y-108132381D01*
X173215239Y-108084762D01*
X173215239Y-108060952D01*
X173191429Y-108013333D01*
X173143810Y-107989524D01*
X173072382Y-107989524D01*
X173024763Y-107965714D01*
X173000953Y-107918095D01*
X173000953Y-107894286D01*
X173024763Y-107846667D01*
X173072382Y-107822857D01*
X173143810Y-107822857D01*
X173191429Y-107846667D01*
X173620001Y-108132381D02*
X173572382Y-108156190D01*
X173477144Y-108156190D01*
X173429525Y-108132381D01*
X173405715Y-108084762D01*
X173405715Y-107894286D01*
X173429525Y-107846667D01*
X173477144Y-107822857D01*
X173572382Y-107822857D01*
X173620001Y-107846667D01*
X173643810Y-107894286D01*
X173643810Y-107941905D01*
X173405715Y-107989524D01*
X173858096Y-108108571D02*
X173881905Y-108132381D01*
X173858096Y-108156190D01*
X173834286Y-108132381D01*
X173858096Y-108108571D01*
X173858096Y-108156190D01*
X173858096Y-107846667D02*
X173881905Y-107870476D01*
X173858096Y-107894286D01*
X173834286Y-107870476D01*
X173858096Y-107846667D01*
X173858096Y-107894286D01*
X174762857Y-108108571D02*
X174739047Y-108132381D01*
X174667619Y-108156190D01*
X174620000Y-108156190D01*
X174548571Y-108132381D01*
X174500952Y-108084762D01*
X174477143Y-108037143D01*
X174453333Y-107941905D01*
X174453333Y-107870476D01*
X174477143Y-107775238D01*
X174500952Y-107727619D01*
X174548571Y-107680000D01*
X174620000Y-107656190D01*
X174667619Y-107656190D01*
X174739047Y-107680000D01*
X174762857Y-107703810D01*
X175262857Y-108108571D02*
X175239047Y-108132381D01*
X175167619Y-108156190D01*
X175120000Y-108156190D01*
X175048571Y-108132381D01*
X175000952Y-108084762D01*
X174977143Y-108037143D01*
X174953333Y-107941905D01*
X174953333Y-107870476D01*
X174977143Y-107775238D01*
X175000952Y-107727619D01*
X175048571Y-107680000D01*
X175120000Y-107656190D01*
X175167619Y-107656190D01*
X175239047Y-107680000D01*
X175262857Y-107703810D01*
X175643809Y-107894286D02*
X175715238Y-107918095D01*
X175739047Y-107941905D01*
X175762857Y-107989524D01*
X175762857Y-108060952D01*
X175739047Y-108108571D01*
X175715238Y-108132381D01*
X175667619Y-108156190D01*
X175477143Y-108156190D01*
X175477143Y-107656190D01*
X175643809Y-107656190D01*
X175691428Y-107680000D01*
X175715238Y-107703810D01*
X175739047Y-107751429D01*
X175739047Y-107799048D01*
X175715238Y-107846667D01*
X175691428Y-107870476D01*
X175643809Y-107894286D01*
X175477143Y-107894286D01*
X176072381Y-107918095D02*
X176072381Y-108156190D01*
X175905714Y-107656190D02*
X176072381Y-107918095D01*
X176239047Y-107656190D01*
X165980954Y-106226190D02*
X165980954Y-105726190D01*
X165980954Y-105916667D02*
X166028573Y-105892857D01*
X166123811Y-105892857D01*
X166171430Y-105916667D01*
X166195239Y-105940476D01*
X166219049Y-105988095D01*
X166219049Y-106130952D01*
X166195239Y-106178571D01*
X166171430Y-106202381D01*
X166123811Y-106226190D01*
X166028573Y-106226190D01*
X165980954Y-106202381D01*
X166433335Y-106226190D02*
X166433335Y-105892857D01*
X166433335Y-105988095D02*
X166457144Y-105940476D01*
X166480954Y-105916667D01*
X166528573Y-105892857D01*
X166576192Y-105892857D01*
X166814287Y-106226190D02*
X166766668Y-106202381D01*
X166742859Y-106178571D01*
X166719049Y-106130952D01*
X166719049Y-105988095D01*
X166742859Y-105940476D01*
X166766668Y-105916667D01*
X166814287Y-105892857D01*
X166885716Y-105892857D01*
X166933335Y-105916667D01*
X166957144Y-105940476D01*
X166980954Y-105988095D01*
X166980954Y-106130952D01*
X166957144Y-106178571D01*
X166933335Y-106202381D01*
X166885716Y-106226190D01*
X166814287Y-106226190D01*
X167266668Y-106226190D02*
X167219049Y-106202381D01*
X167195240Y-106178571D01*
X167171430Y-106130952D01*
X167171430Y-105988095D01*
X167195240Y-105940476D01*
X167219049Y-105916667D01*
X167266668Y-105892857D01*
X167338097Y-105892857D01*
X167385716Y-105916667D01*
X167409525Y-105940476D01*
X167433335Y-105988095D01*
X167433335Y-106130952D01*
X167409525Y-106178571D01*
X167385716Y-106202381D01*
X167338097Y-106226190D01*
X167266668Y-106226190D01*
X167647621Y-106226190D02*
X167647621Y-105726190D01*
X167695240Y-106035714D02*
X167838097Y-106226190D01*
X167838097Y-105892857D02*
X167647621Y-106083333D01*
X168242859Y-106202381D02*
X168195240Y-106226190D01*
X168100002Y-106226190D01*
X168052383Y-106202381D01*
X168028573Y-106154762D01*
X168028573Y-105964286D01*
X168052383Y-105916667D01*
X168100002Y-105892857D01*
X168195240Y-105892857D01*
X168242859Y-105916667D01*
X168266668Y-105964286D01*
X168266668Y-106011905D01*
X168028573Y-106059524D01*
X168480954Y-106178571D02*
X168504763Y-106202381D01*
X168480954Y-106226190D01*
X168457144Y-106202381D01*
X168480954Y-106178571D01*
X168480954Y-106226190D01*
X168647620Y-105892857D02*
X168838096Y-105892857D01*
X168719049Y-105726190D02*
X168719049Y-106154762D01*
X168742858Y-106202381D01*
X168790477Y-106226190D01*
X168838096Y-106226190D01*
X169004763Y-106178571D02*
X169028572Y-106202381D01*
X169004763Y-106226190D01*
X168980953Y-106202381D01*
X169004763Y-106178571D01*
X169004763Y-106226190D01*
X169242858Y-106226190D02*
X169242858Y-105726190D01*
X169457143Y-106226190D02*
X169457143Y-105964286D01*
X169433334Y-105916667D01*
X169385715Y-105892857D01*
X169314286Y-105892857D01*
X169266667Y-105916667D01*
X169242858Y-105940476D01*
X169885715Y-106202381D02*
X169838096Y-106226190D01*
X169742858Y-106226190D01*
X169695239Y-106202381D01*
X169671429Y-106154762D01*
X169671429Y-105964286D01*
X169695239Y-105916667D01*
X169742858Y-105892857D01*
X169838096Y-105892857D01*
X169885715Y-105916667D01*
X169909524Y-105964286D01*
X169909524Y-106011905D01*
X169671429Y-106059524D01*
X170338095Y-106226190D02*
X170338095Y-105726190D01*
X170338095Y-106202381D02*
X170290476Y-106226190D01*
X170195238Y-106226190D01*
X170147619Y-106202381D01*
X170123810Y-106178571D01*
X170100000Y-106130952D01*
X170100000Y-105988095D01*
X170123810Y-105940476D01*
X170147619Y-105916667D01*
X170195238Y-105892857D01*
X170290476Y-105892857D01*
X170338095Y-105916667D01*
X170576191Y-106226190D02*
X170576191Y-105892857D01*
X170576191Y-105988095D02*
X170600000Y-105940476D01*
X170623810Y-105916667D01*
X170671429Y-105892857D01*
X170719048Y-105892857D01*
X170885715Y-106226190D02*
X170885715Y-105892857D01*
X170885715Y-105726190D02*
X170861905Y-105750000D01*
X170885715Y-105773810D01*
X170909524Y-105750000D01*
X170885715Y-105726190D01*
X170885715Y-105773810D01*
X171338095Y-106202381D02*
X171290476Y-106226190D01*
X171195238Y-106226190D01*
X171147619Y-106202381D01*
X171123810Y-106178571D01*
X171100000Y-106130952D01*
X171100000Y-105988095D01*
X171123810Y-105940476D01*
X171147619Y-105916667D01*
X171195238Y-105892857D01*
X171290476Y-105892857D01*
X171338095Y-105916667D01*
X171552381Y-106226190D02*
X171552381Y-105726190D01*
X171600000Y-106035714D02*
X171742857Y-106226190D01*
X171742857Y-105892857D02*
X171552381Y-106083333D01*
X172266666Y-105988095D02*
X172242857Y-105964286D01*
X172195238Y-105940476D01*
X172147619Y-105940476D01*
X172100000Y-105964286D01*
X172076190Y-105988095D01*
X172052381Y-106035714D01*
X172052381Y-106083333D01*
X172076190Y-106130952D01*
X172100000Y-106154762D01*
X172147619Y-106178571D01*
X172195238Y-106178571D01*
X172242857Y-106154762D01*
X172266666Y-106130952D01*
X172266666Y-105940476D02*
X172266666Y-106130952D01*
X172290476Y-106154762D01*
X172314285Y-106154762D01*
X172361905Y-106130952D01*
X172385714Y-106083333D01*
X172385714Y-105964286D01*
X172338095Y-105892857D01*
X172266666Y-105845238D01*
X172171428Y-105821429D01*
X172076190Y-105845238D01*
X172004762Y-105892857D01*
X171957143Y-105964286D01*
X171933333Y-106059524D01*
X171957143Y-106154762D01*
X172004762Y-106226190D01*
X172076190Y-106273810D01*
X172171428Y-106297619D01*
X172266666Y-106273810D01*
X172338095Y-106226190D01*
X172814285Y-105892857D02*
X172814285Y-106297619D01*
X172790476Y-106345238D01*
X172766666Y-106369048D01*
X172719047Y-106392857D01*
X172647619Y-106392857D01*
X172600000Y-106369048D01*
X172814285Y-106202381D02*
X172766666Y-106226190D01*
X172671428Y-106226190D01*
X172623809Y-106202381D01*
X172600000Y-106178571D01*
X172576190Y-106130952D01*
X172576190Y-105988095D01*
X172600000Y-105940476D01*
X172623809Y-105916667D01*
X172671428Y-105892857D01*
X172766666Y-105892857D01*
X172814285Y-105916667D01*
X173052381Y-106226190D02*
X173052381Y-105892857D01*
X173052381Y-105940476D02*
X173076190Y-105916667D01*
X173123809Y-105892857D01*
X173195238Y-105892857D01*
X173242857Y-105916667D01*
X173266666Y-105964286D01*
X173266666Y-106226190D01*
X173266666Y-105964286D02*
X173290476Y-105916667D01*
X173338095Y-105892857D01*
X173409523Y-105892857D01*
X173457143Y-105916667D01*
X173480952Y-105964286D01*
X173480952Y-106226190D01*
X173933333Y-106226190D02*
X173933333Y-105964286D01*
X173909524Y-105916667D01*
X173861905Y-105892857D01*
X173766667Y-105892857D01*
X173719048Y-105916667D01*
X173933333Y-106202381D02*
X173885714Y-106226190D01*
X173766667Y-106226190D01*
X173719048Y-106202381D01*
X173695238Y-106154762D01*
X173695238Y-106107143D01*
X173719048Y-106059524D01*
X173766667Y-106035714D01*
X173885714Y-106035714D01*
X173933333Y-106011905D01*
X174171429Y-106226190D02*
X174171429Y-105892857D01*
X174171429Y-105726190D02*
X174147619Y-105750000D01*
X174171429Y-105773810D01*
X174195238Y-105750000D01*
X174171429Y-105726190D01*
X174171429Y-105773810D01*
X174480952Y-106226190D02*
X174433333Y-106202381D01*
X174409524Y-106154762D01*
X174409524Y-105726190D01*
X174671429Y-106178571D02*
X174695238Y-106202381D01*
X174671429Y-106226190D01*
X174647619Y-106202381D01*
X174671429Y-106178571D01*
X174671429Y-106226190D01*
X175123809Y-106202381D02*
X175076190Y-106226190D01*
X174980952Y-106226190D01*
X174933333Y-106202381D01*
X174909524Y-106178571D01*
X174885714Y-106130952D01*
X174885714Y-105988095D01*
X174909524Y-105940476D01*
X174933333Y-105916667D01*
X174980952Y-105892857D01*
X175076190Y-105892857D01*
X175123809Y-105916667D01*
X175409523Y-106226190D02*
X175361904Y-106202381D01*
X175338095Y-106178571D01*
X175314285Y-106130952D01*
X175314285Y-105988095D01*
X175338095Y-105940476D01*
X175361904Y-105916667D01*
X175409523Y-105892857D01*
X175480952Y-105892857D01*
X175528571Y-105916667D01*
X175552380Y-105940476D01*
X175576190Y-105988095D01*
X175576190Y-106130952D01*
X175552380Y-106178571D01*
X175528571Y-106202381D01*
X175480952Y-106226190D01*
X175409523Y-106226190D01*
X175790476Y-106226190D02*
X175790476Y-105892857D01*
X175790476Y-105940476D02*
X175814285Y-105916667D01*
X175861904Y-105892857D01*
X175933333Y-105892857D01*
X175980952Y-105916667D01*
X176004761Y-105964286D01*
X176004761Y-106226190D01*
X176004761Y-105964286D02*
X176028571Y-105916667D01*
X176076190Y-105892857D01*
X176147618Y-105892857D01*
X176195238Y-105916667D01*
X176219047Y-105964286D01*
X176219047Y-106226190D01*
X157308573Y-105062857D02*
X157308573Y-105467619D01*
X157284764Y-105515238D01*
X157260954Y-105539048D01*
X157213335Y-105562857D01*
X157141907Y-105562857D01*
X157094288Y-105539048D01*
X157308573Y-105372381D02*
X157260954Y-105396190D01*
X157165716Y-105396190D01*
X157118097Y-105372381D01*
X157094288Y-105348571D01*
X157070478Y-105300952D01*
X157070478Y-105158095D01*
X157094288Y-105110476D01*
X157118097Y-105086667D01*
X157165716Y-105062857D01*
X157260954Y-105062857D01*
X157308573Y-105086667D01*
X157546669Y-105396190D02*
X157546669Y-105062857D01*
X157546669Y-104896190D02*
X157522859Y-104920000D01*
X157546669Y-104943810D01*
X157570478Y-104920000D01*
X157546669Y-104896190D01*
X157546669Y-104943810D01*
X157713335Y-105062857D02*
X157903811Y-105062857D01*
X157784764Y-104896190D02*
X157784764Y-105324762D01*
X157808573Y-105372381D01*
X157856192Y-105396190D01*
X157903811Y-105396190D01*
X158070478Y-105396190D02*
X158070478Y-104896190D01*
X158284763Y-105396190D02*
X158284763Y-105134286D01*
X158260954Y-105086667D01*
X158213335Y-105062857D01*
X158141906Y-105062857D01*
X158094287Y-105086667D01*
X158070478Y-105110476D01*
X158737144Y-105062857D02*
X158737144Y-105396190D01*
X158522859Y-105062857D02*
X158522859Y-105324762D01*
X158546668Y-105372381D01*
X158594287Y-105396190D01*
X158665716Y-105396190D01*
X158713335Y-105372381D01*
X158737144Y-105348571D01*
X158975240Y-105396190D02*
X158975240Y-104896190D01*
X158975240Y-105086667D02*
X159022859Y-105062857D01*
X159118097Y-105062857D01*
X159165716Y-105086667D01*
X159189525Y-105110476D01*
X159213335Y-105158095D01*
X159213335Y-105300952D01*
X159189525Y-105348571D01*
X159165716Y-105372381D01*
X159118097Y-105396190D01*
X159022859Y-105396190D01*
X158975240Y-105372381D01*
X159808573Y-105396190D02*
X159808573Y-104896190D01*
X160022858Y-105396190D02*
X160022858Y-105134286D01*
X159999049Y-105086667D01*
X159951430Y-105062857D01*
X159880001Y-105062857D01*
X159832382Y-105086667D01*
X159808573Y-105110476D01*
X160451430Y-105372381D02*
X160403811Y-105396190D01*
X160308573Y-105396190D01*
X160260954Y-105372381D01*
X160237144Y-105324762D01*
X160237144Y-105134286D01*
X160260954Y-105086667D01*
X160308573Y-105062857D01*
X160403811Y-105062857D01*
X160451430Y-105086667D01*
X160475239Y-105134286D01*
X160475239Y-105181905D01*
X160237144Y-105229524D01*
X160903810Y-105396190D02*
X160903810Y-104896190D01*
X160903810Y-105372381D02*
X160856191Y-105396190D01*
X160760953Y-105396190D01*
X160713334Y-105372381D01*
X160689525Y-105348571D01*
X160665715Y-105300952D01*
X160665715Y-105158095D01*
X160689525Y-105110476D01*
X160713334Y-105086667D01*
X160760953Y-105062857D01*
X160856191Y-105062857D01*
X160903810Y-105086667D01*
X161141906Y-105396190D02*
X161141906Y-105062857D01*
X161141906Y-105158095D02*
X161165715Y-105110476D01*
X161189525Y-105086667D01*
X161237144Y-105062857D01*
X161284763Y-105062857D01*
X161451430Y-105396190D02*
X161451430Y-105062857D01*
X161451430Y-104896190D02*
X161427620Y-104920000D01*
X161451430Y-104943810D01*
X161475239Y-104920000D01*
X161451430Y-104896190D01*
X161451430Y-104943810D01*
X161903810Y-105372381D02*
X161856191Y-105396190D01*
X161760953Y-105396190D01*
X161713334Y-105372381D01*
X161689525Y-105348571D01*
X161665715Y-105300952D01*
X161665715Y-105158095D01*
X161689525Y-105110476D01*
X161713334Y-105086667D01*
X161760953Y-105062857D01*
X161856191Y-105062857D01*
X161903810Y-105086667D01*
X162118096Y-105396190D02*
X162118096Y-104896190D01*
X162165715Y-105205714D02*
X162308572Y-105396190D01*
X162308572Y-105062857D02*
X162118096Y-105253333D01*
X162522858Y-105396190D02*
X162522858Y-104896190D01*
X162522858Y-105086667D02*
X162570477Y-105062857D01*
X162665715Y-105062857D01*
X162713334Y-105086667D01*
X162737143Y-105110476D01*
X162760953Y-105158095D01*
X162760953Y-105300952D01*
X162737143Y-105348571D01*
X162713334Y-105372381D01*
X162665715Y-105396190D01*
X162570477Y-105396190D01*
X162522858Y-105372381D01*
X162903810Y-105062857D02*
X163094286Y-105062857D01*
X162975239Y-104896190D02*
X162975239Y-105324762D01*
X162999048Y-105372381D01*
X163046667Y-105396190D01*
X163094286Y-105396190D01*
X163927619Y-105348571D02*
X163903809Y-105372381D01*
X163832381Y-105396190D01*
X163784762Y-105396190D01*
X163713333Y-105372381D01*
X163665714Y-105324762D01*
X163641905Y-105277143D01*
X163618095Y-105181905D01*
X163618095Y-105110476D01*
X163641905Y-105015238D01*
X163665714Y-104967619D01*
X163713333Y-104920000D01*
X163784762Y-104896190D01*
X163832381Y-104896190D01*
X163903809Y-104920000D01*
X163927619Y-104943810D01*
X164213333Y-105396190D02*
X164165714Y-105372381D01*
X164141905Y-105348571D01*
X164118095Y-105300952D01*
X164118095Y-105158095D01*
X164141905Y-105110476D01*
X164165714Y-105086667D01*
X164213333Y-105062857D01*
X164284762Y-105062857D01*
X164332381Y-105086667D01*
X164356190Y-105110476D01*
X164380000Y-105158095D01*
X164380000Y-105300952D01*
X164356190Y-105348571D01*
X164332381Y-105372381D01*
X164284762Y-105396190D01*
X164213333Y-105396190D01*
X164594286Y-105062857D02*
X164594286Y-105396190D01*
X164594286Y-105110476D02*
X164618095Y-105086667D01*
X164665714Y-105062857D01*
X164737143Y-105062857D01*
X164784762Y-105086667D01*
X164808571Y-105134286D01*
X164808571Y-105396190D01*
X164975238Y-105062857D02*
X165165714Y-105062857D01*
X165046667Y-104896190D02*
X165046667Y-105324762D01*
X165070476Y-105372381D01*
X165118095Y-105396190D01*
X165165714Y-105396190D01*
X165522857Y-105372381D02*
X165475238Y-105396190D01*
X165380000Y-105396190D01*
X165332381Y-105372381D01*
X165308571Y-105324762D01*
X165308571Y-105134286D01*
X165332381Y-105086667D01*
X165380000Y-105062857D01*
X165475238Y-105062857D01*
X165522857Y-105086667D01*
X165546666Y-105134286D01*
X165546666Y-105181905D01*
X165308571Y-105229524D01*
X165713333Y-105396190D02*
X165975237Y-105062857D01*
X165713333Y-105062857D02*
X165975237Y-105396190D01*
X166094285Y-105062857D02*
X166284761Y-105062857D01*
X166165714Y-104896190D02*
X166165714Y-105324762D01*
X166189523Y-105372381D01*
X166237142Y-105396190D01*
X166284761Y-105396190D01*
X166665713Y-105062857D02*
X166665713Y-105396190D01*
X166451428Y-105062857D02*
X166451428Y-105324762D01*
X166475237Y-105372381D01*
X166522856Y-105396190D01*
X166594285Y-105396190D01*
X166641904Y-105372381D01*
X166665713Y-105348571D01*
X167118094Y-105396190D02*
X167118094Y-105134286D01*
X167094285Y-105086667D01*
X167046666Y-105062857D01*
X166951428Y-105062857D01*
X166903809Y-105086667D01*
X167118094Y-105372381D02*
X167070475Y-105396190D01*
X166951428Y-105396190D01*
X166903809Y-105372381D01*
X166879999Y-105324762D01*
X166879999Y-105277143D01*
X166903809Y-105229524D01*
X166951428Y-105205714D01*
X167070475Y-105205714D01*
X167118094Y-105181905D01*
X167427618Y-105396190D02*
X167379999Y-105372381D01*
X167356190Y-105324762D01*
X167356190Y-104896190D01*
X167618095Y-105134286D02*
X167784761Y-105134286D01*
X167856190Y-105396190D02*
X167618095Y-105396190D01*
X167618095Y-104896190D01*
X167856190Y-104896190D01*
X168141904Y-105396190D02*
X168094285Y-105372381D01*
X168070476Y-105324762D01*
X168070476Y-104896190D01*
X168522857Y-105372381D02*
X168475238Y-105396190D01*
X168380000Y-105396190D01*
X168332381Y-105372381D01*
X168308571Y-105324762D01*
X168308571Y-105134286D01*
X168332381Y-105086667D01*
X168380000Y-105062857D01*
X168475238Y-105062857D01*
X168522857Y-105086667D01*
X168546666Y-105134286D01*
X168546666Y-105181905D01*
X168308571Y-105229524D01*
X168975237Y-105372381D02*
X168927618Y-105396190D01*
X168832380Y-105396190D01*
X168784761Y-105372381D01*
X168760952Y-105348571D01*
X168737142Y-105300952D01*
X168737142Y-105158095D01*
X168760952Y-105110476D01*
X168784761Y-105086667D01*
X168832380Y-105062857D01*
X168927618Y-105062857D01*
X168975237Y-105086667D01*
X169118094Y-105062857D02*
X169308570Y-105062857D01*
X169189523Y-104896190D02*
X169189523Y-105324762D01*
X169213332Y-105372381D01*
X169260951Y-105396190D01*
X169308570Y-105396190D01*
X169475237Y-105396190D02*
X169475237Y-105062857D01*
X169475237Y-105158095D02*
X169499046Y-105110476D01*
X169522856Y-105086667D01*
X169570475Y-105062857D01*
X169618094Y-105062857D01*
X169856189Y-105396190D02*
X169808570Y-105372381D01*
X169784761Y-105348571D01*
X169760951Y-105300952D01*
X169760951Y-105158095D01*
X169784761Y-105110476D01*
X169808570Y-105086667D01*
X169856189Y-105062857D01*
X169927618Y-105062857D01*
X169975237Y-105086667D01*
X169999046Y-105110476D01*
X170022856Y-105158095D01*
X170022856Y-105300952D01*
X169999046Y-105348571D01*
X169975237Y-105372381D01*
X169927618Y-105396190D01*
X169856189Y-105396190D01*
X170237142Y-105062857D02*
X170237142Y-105396190D01*
X170237142Y-105110476D02*
X170260951Y-105086667D01*
X170308570Y-105062857D01*
X170379999Y-105062857D01*
X170427618Y-105086667D01*
X170451427Y-105134286D01*
X170451427Y-105396190D01*
X170689523Y-105396190D02*
X170689523Y-105062857D01*
X170689523Y-104896190D02*
X170665713Y-104920000D01*
X170689523Y-104943810D01*
X170713332Y-104920000D01*
X170689523Y-104896190D01*
X170689523Y-104943810D01*
X171141903Y-105372381D02*
X171094284Y-105396190D01*
X170999046Y-105396190D01*
X170951427Y-105372381D01*
X170927618Y-105348571D01*
X170903808Y-105300952D01*
X170903808Y-105158095D01*
X170927618Y-105110476D01*
X170951427Y-105086667D01*
X170999046Y-105062857D01*
X171094284Y-105062857D01*
X171141903Y-105086667D01*
X171332379Y-105372381D02*
X171379998Y-105396190D01*
X171475236Y-105396190D01*
X171522855Y-105372381D01*
X171546665Y-105324762D01*
X171546665Y-105300952D01*
X171522855Y-105253333D01*
X171475236Y-105229524D01*
X171403808Y-105229524D01*
X171356189Y-105205714D01*
X171332379Y-105158095D01*
X171332379Y-105134286D01*
X171356189Y-105086667D01*
X171403808Y-105062857D01*
X171475236Y-105062857D01*
X171522855Y-105086667D01*
X172118093Y-104872381D02*
X171689522Y-105515238D01*
X172284761Y-105396190D02*
X172284761Y-104896190D01*
X172475237Y-104896190D01*
X172522856Y-104920000D01*
X172546665Y-104943810D01*
X172570475Y-104991429D01*
X172570475Y-105062857D01*
X172546665Y-105110476D01*
X172522856Y-105134286D01*
X172475237Y-105158095D01*
X172284761Y-105158095D01*
X172856189Y-105396190D02*
X172808570Y-105372381D01*
X172784761Y-105348571D01*
X172760951Y-105300952D01*
X172760951Y-105158095D01*
X172784761Y-105110476D01*
X172808570Y-105086667D01*
X172856189Y-105062857D01*
X172927618Y-105062857D01*
X172975237Y-105086667D01*
X172999046Y-105110476D01*
X173022856Y-105158095D01*
X173022856Y-105300952D01*
X172999046Y-105348571D01*
X172975237Y-105372381D01*
X172927618Y-105396190D01*
X172856189Y-105396190D01*
X173189523Y-105062857D02*
X173284761Y-105396190D01*
X173379999Y-105158095D01*
X173475237Y-105396190D01*
X173570475Y-105062857D01*
X173951428Y-105372381D02*
X173903809Y-105396190D01*
X173808571Y-105396190D01*
X173760952Y-105372381D01*
X173737142Y-105324762D01*
X173737142Y-105134286D01*
X173760952Y-105086667D01*
X173808571Y-105062857D01*
X173903809Y-105062857D01*
X173951428Y-105086667D01*
X173975237Y-105134286D01*
X173975237Y-105181905D01*
X173737142Y-105229524D01*
X174189523Y-105396190D02*
X174189523Y-105062857D01*
X174189523Y-105158095D02*
X174213332Y-105110476D01*
X174237142Y-105086667D01*
X174284761Y-105062857D01*
X174332380Y-105062857D01*
X174475237Y-105372381D02*
X174546666Y-105396190D01*
X174665713Y-105396190D01*
X174713332Y-105372381D01*
X174737142Y-105348571D01*
X174760951Y-105300952D01*
X174760951Y-105253333D01*
X174737142Y-105205714D01*
X174713332Y-105181905D01*
X174665713Y-105158095D01*
X174570475Y-105134286D01*
X174522856Y-105110476D01*
X174499047Y-105086667D01*
X174475237Y-105039048D01*
X174475237Y-104991429D01*
X174499047Y-104943810D01*
X174522856Y-104920000D01*
X174570475Y-104896190D01*
X174689523Y-104896190D01*
X174760951Y-104920000D01*
X174927618Y-105062857D02*
X175022856Y-105396190D01*
X175118094Y-105158095D01*
X175213332Y-105396190D01*
X175308570Y-105062857D01*
X175713332Y-105396190D02*
X175713332Y-105134286D01*
X175689523Y-105086667D01*
X175641904Y-105062857D01*
X175546666Y-105062857D01*
X175499047Y-105086667D01*
X175713332Y-105372381D02*
X175665713Y-105396190D01*
X175546666Y-105396190D01*
X175499047Y-105372381D01*
X175475237Y-105324762D01*
X175475237Y-105277143D01*
X175499047Y-105229524D01*
X175546666Y-105205714D01*
X175665713Y-105205714D01*
X175713332Y-105181905D01*
X175951428Y-105062857D02*
X175951428Y-105562857D01*
X175951428Y-105086667D02*
X175999047Y-105062857D01*
X176094285Y-105062857D01*
X176141904Y-105086667D01*
X176165713Y-105110476D01*
X176189523Y-105158095D01*
X176189523Y-105300952D01*
X176165713Y-105348571D01*
X176141904Y-105372381D01*
X176094285Y-105396190D01*
X175999047Y-105396190D01*
X175951428Y-105372381D01*
X171170477Y-107096190D02*
X171170477Y-106596190D01*
X171360953Y-106596190D01*
X171408572Y-106620000D01*
X171432381Y-106643810D01*
X171456191Y-106691429D01*
X171456191Y-106762857D01*
X171432381Y-106810476D01*
X171408572Y-106834286D01*
X171360953Y-106858095D01*
X171170477Y-106858095D01*
X171741905Y-107096190D02*
X171694286Y-107072381D01*
X171670477Y-107048571D01*
X171646667Y-107000952D01*
X171646667Y-106858095D01*
X171670477Y-106810476D01*
X171694286Y-106786667D01*
X171741905Y-106762857D01*
X171813334Y-106762857D01*
X171860953Y-106786667D01*
X171884762Y-106810476D01*
X171908572Y-106858095D01*
X171908572Y-107000952D01*
X171884762Y-107048571D01*
X171860953Y-107072381D01*
X171813334Y-107096190D01*
X171741905Y-107096190D01*
X172075239Y-106762857D02*
X172170477Y-107096190D01*
X172265715Y-106858095D01*
X172360953Y-107096190D01*
X172456191Y-106762857D01*
X172837144Y-107072381D02*
X172789525Y-107096190D01*
X172694287Y-107096190D01*
X172646668Y-107072381D01*
X172622858Y-107024762D01*
X172622858Y-106834286D01*
X172646668Y-106786667D01*
X172694287Y-106762857D01*
X172789525Y-106762857D01*
X172837144Y-106786667D01*
X172860953Y-106834286D01*
X172860953Y-106881905D01*
X172622858Y-106929524D01*
X173075239Y-107096190D02*
X173075239Y-106762857D01*
X173075239Y-106858095D02*
X173099048Y-106810476D01*
X173122858Y-106786667D01*
X173170477Y-106762857D01*
X173218096Y-106762857D01*
X173360953Y-107072381D02*
X173432382Y-107096190D01*
X173551429Y-107096190D01*
X173599048Y-107072381D01*
X173622858Y-107048571D01*
X173646667Y-107000952D01*
X173646667Y-106953333D01*
X173622858Y-106905714D01*
X173599048Y-106881905D01*
X173551429Y-106858095D01*
X173456191Y-106834286D01*
X173408572Y-106810476D01*
X173384763Y-106786667D01*
X173360953Y-106739048D01*
X173360953Y-106691429D01*
X173384763Y-106643810D01*
X173408572Y-106620000D01*
X173456191Y-106596190D01*
X173575239Y-106596190D01*
X173646667Y-106620000D01*
X173813334Y-106762857D02*
X173908572Y-107096190D01*
X174003810Y-106858095D01*
X174099048Y-107096190D01*
X174194286Y-106762857D01*
X174599048Y-107096190D02*
X174599048Y-106834286D01*
X174575239Y-106786667D01*
X174527620Y-106762857D01*
X174432382Y-106762857D01*
X174384763Y-106786667D01*
X174599048Y-107072381D02*
X174551429Y-107096190D01*
X174432382Y-107096190D01*
X174384763Y-107072381D01*
X174360953Y-107024762D01*
X174360953Y-106977143D01*
X174384763Y-106929524D01*
X174432382Y-106905714D01*
X174551429Y-106905714D01*
X174599048Y-106881905D01*
X174837144Y-106762857D02*
X174837144Y-107262857D01*
X174837144Y-106786667D02*
X174884763Y-106762857D01*
X174980001Y-106762857D01*
X175027620Y-106786667D01*
X175051429Y-106810476D01*
X175075239Y-106858095D01*
X175075239Y-107000952D01*
X175051429Y-107048571D01*
X175027620Y-107072381D01*
X174980001Y-107096190D01*
X174884763Y-107096190D01*
X174837144Y-107072381D01*
X175622858Y-106762857D02*
X175741905Y-107096190D01*
X175860953Y-106762857D01*
X176313333Y-107096190D02*
X176027619Y-107096190D01*
X176170476Y-107096190D02*
X176170476Y-106596190D01*
X176122857Y-106667619D01*
X176075238Y-106715238D01*
X176027619Y-106739048D01*
D11*
X174642383Y-109703690D02*
X174951906Y-109703690D01*
X174785240Y-109894167D01*
X174856668Y-109894167D01*
X174904287Y-109917976D01*
X174928097Y-109941786D01*
X174951906Y-109989405D01*
X174951906Y-110108452D01*
X174928097Y-110156071D01*
X174904287Y-110179881D01*
X174856668Y-110203690D01*
X174713811Y-110203690D01*
X174666192Y-110179881D01*
X174642383Y-110156071D01*
X175166192Y-110156071D02*
X175190001Y-110179881D01*
X175166192Y-110203690D01*
X175142382Y-110179881D01*
X175166192Y-110156071D01*
X175166192Y-110203690D01*
X175356668Y-109703690D02*
X175666191Y-109703690D01*
X175499525Y-109894167D01*
X175570953Y-109894167D01*
X175618572Y-109917976D01*
X175642382Y-109941786D01*
X175666191Y-109989405D01*
X175666191Y-110108452D01*
X175642382Y-110156071D01*
X175618572Y-110179881D01*
X175570953Y-110203690D01*
X175428096Y-110203690D01*
X175380477Y-110179881D01*
X175356668Y-110156071D01*
X175809048Y-109703690D02*
X175975715Y-110203690D01*
X176142381Y-109703690D01*
X173951905Y-110528690D02*
X174047143Y-110528690D01*
X174094762Y-110552500D01*
X174142381Y-110600119D01*
X174166190Y-110695357D01*
X174166190Y-110862024D01*
X174142381Y-110957262D01*
X174094762Y-111004881D01*
X174047143Y-111028690D01*
X173951905Y-111028690D01*
X173904286Y-111004881D01*
X173856667Y-110957262D01*
X173832857Y-110862024D01*
X173832857Y-110695357D01*
X173856667Y-110600119D01*
X173904286Y-110552500D01*
X173951905Y-110528690D01*
X174594762Y-110695357D02*
X174594762Y-111028690D01*
X174380477Y-110695357D02*
X174380477Y-110957262D01*
X174404286Y-111004881D01*
X174451905Y-111028690D01*
X174523334Y-111028690D01*
X174570953Y-111004881D01*
X174594762Y-110981071D01*
X174761429Y-110695357D02*
X174951905Y-110695357D01*
X174832858Y-110528690D02*
X174832858Y-110957262D01*
X174856667Y-111004881D01*
X174904286Y-111028690D01*
X174951905Y-111028690D01*
X175118572Y-110695357D02*
X175118572Y-111195357D01*
X175118572Y-110719167D02*
X175166191Y-110695357D01*
X175261429Y-110695357D01*
X175309048Y-110719167D01*
X175332857Y-110742976D01*
X175356667Y-110790595D01*
X175356667Y-110933452D01*
X175332857Y-110981071D01*
X175309048Y-111004881D01*
X175261429Y-111028690D01*
X175166191Y-111028690D01*
X175118572Y-111004881D01*
X175785238Y-110695357D02*
X175785238Y-111028690D01*
X175570953Y-110695357D02*
X175570953Y-110957262D01*
X175594762Y-111004881D01*
X175642381Y-111028690D01*
X175713810Y-111028690D01*
X175761429Y-111004881D01*
X175785238Y-110981071D01*
X175951905Y-110695357D02*
X176142381Y-110695357D01*
X176023334Y-110528690D02*
X176023334Y-110957262D01*
X176047143Y-111004881D01*
X176094762Y-111028690D01*
X176142381Y-111028690D01*
X154883690Y-113939046D02*
X154883690Y-113629523D01*
X155074167Y-113796189D01*
X155074167Y-113724761D01*
X155097976Y-113677142D01*
X155121786Y-113653332D01*
X155169405Y-113629523D01*
X155288452Y-113629523D01*
X155336071Y-113653332D01*
X155359881Y-113677142D01*
X155383690Y-113724761D01*
X155383690Y-113867618D01*
X155359881Y-113915237D01*
X155336071Y-113939046D01*
X155336071Y-113415237D02*
X155359881Y-113391428D01*
X155383690Y-113415237D01*
X155359881Y-113439047D01*
X155336071Y-113415237D01*
X155383690Y-113415237D01*
X154883690Y-112962857D02*
X154883690Y-113058095D01*
X154907500Y-113105714D01*
X154931310Y-113129523D01*
X155002738Y-113177142D01*
X155097976Y-113200952D01*
X155288452Y-113200952D01*
X155336071Y-113177142D01*
X155359881Y-113153333D01*
X155383690Y-113105714D01*
X155383690Y-113010476D01*
X155359881Y-112962857D01*
X155336071Y-112939047D01*
X155288452Y-112915238D01*
X155169405Y-112915238D01*
X155121786Y-112939047D01*
X155097976Y-112962857D01*
X155074167Y-113010476D01*
X155074167Y-113105714D01*
X155097976Y-113153333D01*
X155121786Y-113177142D01*
X155169405Y-113200952D01*
X155193214Y-112700952D02*
X155193214Y-112320000D01*
X154883690Y-111843809D02*
X154883690Y-112081904D01*
X155121786Y-112105714D01*
X155097976Y-112081904D01*
X155074167Y-112034285D01*
X155074167Y-111915238D01*
X155097976Y-111867619D01*
X155121786Y-111843809D01*
X155169405Y-111820000D01*
X155288452Y-111820000D01*
X155336071Y-111843809D01*
X155359881Y-111867619D01*
X155383690Y-111915238D01*
X155383690Y-112034285D01*
X155359881Y-112081904D01*
X155336071Y-112105714D01*
X155336071Y-111605714D02*
X155359881Y-111581905D01*
X155383690Y-111605714D01*
X155359881Y-111629524D01*
X155336071Y-111605714D01*
X155383690Y-111605714D01*
X154883690Y-111129524D02*
X154883690Y-111367619D01*
X155121786Y-111391429D01*
X155097976Y-111367619D01*
X155074167Y-111320000D01*
X155074167Y-111200953D01*
X155097976Y-111153334D01*
X155121786Y-111129524D01*
X155169405Y-111105715D01*
X155288452Y-111105715D01*
X155336071Y-111129524D01*
X155359881Y-111153334D01*
X155383690Y-111200953D01*
X155383690Y-111320000D01*
X155359881Y-111367619D01*
X155336071Y-111391429D01*
X155050357Y-110939048D02*
X155383690Y-110820001D01*
X155050357Y-110700953D01*
X156208690Y-113141428D02*
X155708690Y-113141428D01*
X155875357Y-112903333D02*
X156208690Y-112903333D01*
X155922976Y-112903333D02*
X155899167Y-112879524D01*
X155875357Y-112831905D01*
X155875357Y-112760476D01*
X155899167Y-112712857D01*
X155946786Y-112689048D01*
X156208690Y-112689048D01*
X155875357Y-112450952D02*
X156375357Y-112450952D01*
X155899167Y-112450952D02*
X155875357Y-112403333D01*
X155875357Y-112308095D01*
X155899167Y-112260476D01*
X155922976Y-112236667D01*
X155970595Y-112212857D01*
X156113452Y-112212857D01*
X156161071Y-112236667D01*
X156184881Y-112260476D01*
X156208690Y-112308095D01*
X156208690Y-112403333D01*
X156184881Y-112450952D01*
X155875357Y-111784286D02*
X156208690Y-111784286D01*
X155875357Y-111998571D02*
X156137262Y-111998571D01*
X156184881Y-111974762D01*
X156208690Y-111927143D01*
X156208690Y-111855714D01*
X156184881Y-111808095D01*
X156161071Y-111784286D01*
X155875357Y-111617619D02*
X155875357Y-111427143D01*
X155708690Y-111546190D02*
X156137262Y-111546190D01*
X156184881Y-111522381D01*
X156208690Y-111474762D01*
X156208690Y-111427143D01*
D12*
X174158572Y-120037143D02*
X175301429Y-120037143D01*
X174078572Y-112277143D02*
X175221429Y-112277143D01*
X174650000Y-112848571D02*
X174650000Y-111705714D01*
X148017143Y-108861428D02*
X148017143Y-107718571D01*
X152338572Y-105707143D02*
X153481429Y-105707143D01*
X152910000Y-106278571D02*
X152910000Y-105135714D01*
D11*
X148416191Y-111568571D02*
X148440001Y-111592381D01*
X148416191Y-111616190D01*
X148392382Y-111592381D01*
X148416191Y-111568571D01*
X148416191Y-111616190D01*
X148320953Y-111140000D02*
X148368572Y-111116190D01*
X148487620Y-111116190D01*
X148535239Y-111140000D01*
X148559048Y-111187619D01*
X148559048Y-111235238D01*
X148535239Y-111282857D01*
X148511429Y-111306667D01*
X148463810Y-111330476D01*
X148440001Y-111354286D01*
X148416191Y-111401905D01*
X148416191Y-111425714D01*
X152846191Y-118958571D02*
X152870001Y-118982381D01*
X152846191Y-119006190D01*
X152822382Y-118982381D01*
X152846191Y-118958571D01*
X152846191Y-119006190D01*
X152750953Y-118530000D02*
X152798572Y-118506190D01*
X152917620Y-118506190D01*
X152965239Y-118530000D01*
X152989048Y-118577619D01*
X152989048Y-118625238D01*
X152965239Y-118672857D01*
X152941429Y-118696667D01*
X152893810Y-118720476D01*
X152870001Y-118744286D01*
X152846191Y-118791905D01*
X152846191Y-118815714D01*
D13*
X154980000Y-106750000D02*
X154980000Y-107750000D01*
X156680000Y-107750000D02*
X156680000Y-106750000D01*
X154960000Y-120710000D02*
X155960000Y-120710000D01*
X155960000Y-119010000D02*
X154960000Y-119010000D01*
X167690000Y-111685000D02*
X165690000Y-111685000D01*
X165690000Y-114635000D02*
X167690000Y-114635000D01*
X170700000Y-113380000D02*
X170700000Y-114380000D01*
X172400000Y-114380000D02*
X172400000Y-113380000D01*
X158480000Y-112850000D02*
G75*
G03X158480000Y-112850000I-360000J0D01*
G01*
X158050000Y-112910000D02*
X158050000Y-109710000D01*
X158050000Y-109710000D02*
X161250000Y-109710000D01*
X161250000Y-109710000D02*
X161250000Y-112910000D01*
X161250000Y-112910000D02*
X158050000Y-112910000D01*
X151320000Y-109470000D02*
X148780000Y-109470000D01*
X154140000Y-109750000D02*
X152590000Y-109750000D01*
X151320000Y-109470000D02*
X151320000Y-106930000D01*
X152590000Y-106650000D02*
X154140000Y-106650000D01*
X154140000Y-106650000D02*
X154140000Y-109750000D01*
X151320000Y-106930000D02*
X148780000Y-106930000D01*
X148780000Y-106930000D02*
X148780000Y-109470000D01*
X175960000Y-116750000D02*
X175960000Y-119290000D01*
X176240000Y-113930000D02*
X176240000Y-115480000D01*
X175960000Y-116750000D02*
X173420000Y-116750000D01*
X173140000Y-115480000D02*
X173140000Y-113930000D01*
X173140000Y-113930000D02*
X176240000Y-113930000D01*
X173420000Y-116750000D02*
X173420000Y-119290000D01*
X173420000Y-119290000D02*
X175960000Y-119290000D01*
X152620000Y-112265000D02*
X151420000Y-112265000D01*
X151420000Y-110515000D02*
X152620000Y-110515000D01*
X151410000Y-112675000D02*
X152610000Y-112675000D01*
X152610000Y-114425000D02*
X151410000Y-114425000D01*
X151390000Y-114865000D02*
X152590000Y-114865000D01*
X152590000Y-116615000D02*
X151390000Y-116615000D01*
X164500000Y-119955000D02*
X163300000Y-119955000D01*
X163300000Y-118205000D02*
X164500000Y-118205000D01*
X170220000Y-119925000D02*
X169020000Y-119925000D01*
X169020000Y-118175000D02*
X170220000Y-118175000D01*
X161303576Y-115580000D02*
G75*
G03X161303576Y-115580000I-183576J0D01*
G01*
X160880000Y-115690000D02*
X158280000Y-115690000D01*
X158280000Y-115690000D02*
X158280000Y-118290000D01*
X158280000Y-118290000D02*
X160880000Y-118290000D01*
X160880000Y-118290000D02*
X160880000Y-115690000D01*
D11*
X155370477Y-110118571D02*
X155346667Y-110142381D01*
X155275239Y-110166190D01*
X155227620Y-110166190D01*
X155156191Y-110142381D01*
X155108572Y-110094762D01*
X155084763Y-110047143D01*
X155060953Y-109951905D01*
X155060953Y-109880476D01*
X155084763Y-109785238D01*
X155108572Y-109737619D01*
X155156191Y-109690000D01*
X155227620Y-109666190D01*
X155275239Y-109666190D01*
X155346667Y-109690000D01*
X155370477Y-109713810D01*
X155846667Y-110166190D02*
X155560953Y-110166190D01*
X155703810Y-110166190D02*
X155703810Y-109666190D01*
X155656191Y-109737619D01*
X155608572Y-109785238D01*
X155560953Y-109809048D01*
X156156191Y-109666190D02*
X156203810Y-109666190D01*
X156251429Y-109690000D01*
X156275238Y-109713810D01*
X156299048Y-109761429D01*
X156322857Y-109856667D01*
X156322857Y-109975714D01*
X156299048Y-110070952D01*
X156275238Y-110118571D01*
X156251429Y-110142381D01*
X156203810Y-110166190D01*
X156156191Y-110166190D01*
X156108572Y-110142381D01*
X156084762Y-110118571D01*
X156060953Y-110070952D01*
X156037143Y-109975714D01*
X156037143Y-109856667D01*
X156060953Y-109761429D01*
X156084762Y-109713810D01*
X156108572Y-109690000D01*
X156156191Y-109666190D01*
X156799047Y-110166190D02*
X156513333Y-110166190D01*
X156656190Y-110166190D02*
X156656190Y-109666190D01*
X156608571Y-109737619D01*
X156560952Y-109785238D01*
X156513333Y-109809048D01*
X151278571Y-120479523D02*
X151302381Y-120503333D01*
X151326190Y-120574761D01*
X151326190Y-120622380D01*
X151302381Y-120693809D01*
X151254762Y-120741428D01*
X151207143Y-120765237D01*
X151111905Y-120789047D01*
X151040476Y-120789047D01*
X150945238Y-120765237D01*
X150897619Y-120741428D01*
X150850000Y-120693809D01*
X150826190Y-120622380D01*
X150826190Y-120574761D01*
X150850000Y-120503333D01*
X150873810Y-120479523D01*
X151326190Y-120003333D02*
X151326190Y-120289047D01*
X151326190Y-120146190D02*
X150826190Y-120146190D01*
X150897619Y-120193809D01*
X150945238Y-120241428D01*
X150969048Y-120289047D01*
X150826190Y-119693809D02*
X150826190Y-119646190D01*
X150850000Y-119598571D01*
X150873810Y-119574762D01*
X150921429Y-119550952D01*
X151016667Y-119527143D01*
X151135714Y-119527143D01*
X151230952Y-119550952D01*
X151278571Y-119574762D01*
X151302381Y-119598571D01*
X151326190Y-119646190D01*
X151326190Y-119693809D01*
X151302381Y-119741428D01*
X151278571Y-119765238D01*
X151230952Y-119789047D01*
X151135714Y-119812857D01*
X151016667Y-119812857D01*
X150921429Y-119789047D01*
X150873810Y-119765238D01*
X150850000Y-119741428D01*
X150826190Y-119693809D01*
X150873810Y-119336667D02*
X150850000Y-119312857D01*
X150826190Y-119265238D01*
X150826190Y-119146191D01*
X150850000Y-119098572D01*
X150873810Y-119074762D01*
X150921429Y-119050953D01*
X150969048Y-119050953D01*
X151040476Y-119074762D01*
X151326190Y-119360476D01*
X151326190Y-119050953D01*
X166130477Y-111238571D02*
X166106667Y-111262381D01*
X166035239Y-111286190D01*
X165987620Y-111286190D01*
X165916191Y-111262381D01*
X165868572Y-111214762D01*
X165844763Y-111167143D01*
X165820953Y-111071905D01*
X165820953Y-111000476D01*
X165844763Y-110905238D01*
X165868572Y-110857619D01*
X165916191Y-110810000D01*
X165987620Y-110786190D01*
X166035239Y-110786190D01*
X166106667Y-110810000D01*
X166130477Y-110833810D01*
X166606667Y-111286190D02*
X166320953Y-111286190D01*
X166463810Y-111286190D02*
X166463810Y-110786190D01*
X166416191Y-110857619D01*
X166368572Y-110905238D01*
X166320953Y-110929048D01*
X166916191Y-110786190D02*
X166963810Y-110786190D01*
X167011429Y-110810000D01*
X167035238Y-110833810D01*
X167059048Y-110881429D01*
X167082857Y-110976667D01*
X167082857Y-111095714D01*
X167059048Y-111190952D01*
X167035238Y-111238571D01*
X167011429Y-111262381D01*
X166963810Y-111286190D01*
X166916191Y-111286190D01*
X166868572Y-111262381D01*
X166844762Y-111238571D01*
X166820953Y-111190952D01*
X166797143Y-111095714D01*
X166797143Y-110976667D01*
X166820953Y-110881429D01*
X166844762Y-110833810D01*
X166868572Y-110810000D01*
X166916191Y-110786190D01*
X167249524Y-110786190D02*
X167559047Y-110786190D01*
X167392381Y-110976667D01*
X167463809Y-110976667D01*
X167511428Y-111000476D01*
X167535238Y-111024286D01*
X167559047Y-111071905D01*
X167559047Y-111190952D01*
X167535238Y-111238571D01*
X167511428Y-111262381D01*
X167463809Y-111286190D01*
X167320952Y-111286190D01*
X167273333Y-111262381D01*
X167249524Y-111238571D01*
X173138571Y-113049523D02*
X173162381Y-113073333D01*
X173186190Y-113144761D01*
X173186190Y-113192380D01*
X173162381Y-113263809D01*
X173114762Y-113311428D01*
X173067143Y-113335237D01*
X172971905Y-113359047D01*
X172900476Y-113359047D01*
X172805238Y-113335237D01*
X172757619Y-113311428D01*
X172710000Y-113263809D01*
X172686190Y-113192380D01*
X172686190Y-113144761D01*
X172710000Y-113073333D01*
X172733810Y-113049523D01*
X173186190Y-112573333D02*
X173186190Y-112859047D01*
X173186190Y-112716190D02*
X172686190Y-112716190D01*
X172757619Y-112763809D01*
X172805238Y-112811428D01*
X172829048Y-112859047D01*
X172686190Y-112263809D02*
X172686190Y-112216190D01*
X172710000Y-112168571D01*
X172733810Y-112144762D01*
X172781429Y-112120952D01*
X172876667Y-112097143D01*
X172995714Y-112097143D01*
X173090952Y-112120952D01*
X173138571Y-112144762D01*
X173162381Y-112168571D01*
X173186190Y-112216190D01*
X173186190Y-112263809D01*
X173162381Y-112311428D01*
X173138571Y-112335238D01*
X173090952Y-112359047D01*
X172995714Y-112382857D01*
X172876667Y-112382857D01*
X172781429Y-112359047D01*
X172733810Y-112335238D01*
X172710000Y-112311428D01*
X172686190Y-112263809D01*
X172852857Y-111668572D02*
X173186190Y-111668572D01*
X172662381Y-111787619D02*
X173019524Y-111906667D01*
X173019524Y-111597143D01*
X159130477Y-113616190D02*
X158892382Y-113616190D01*
X158892382Y-113116190D01*
X159559048Y-113616190D02*
X159273334Y-113616190D01*
X159416191Y-113616190D02*
X159416191Y-113116190D01*
X159368572Y-113187619D01*
X159320953Y-113235238D01*
X159273334Y-113259048D01*
X159868572Y-113116190D02*
X159916191Y-113116190D01*
X159963810Y-113140000D01*
X159987619Y-113163810D01*
X160011429Y-113211429D01*
X160035238Y-113306667D01*
X160035238Y-113425714D01*
X160011429Y-113520952D01*
X159987619Y-113568571D01*
X159963810Y-113592381D01*
X159916191Y-113616190D01*
X159868572Y-113616190D01*
X159820953Y-113592381D01*
X159797143Y-113568571D01*
X159773334Y-113520952D01*
X159749524Y-113425714D01*
X159749524Y-113306667D01*
X159773334Y-113211429D01*
X159797143Y-113163810D01*
X159820953Y-113140000D01*
X159868572Y-113116190D01*
X160511428Y-113616190D02*
X160225714Y-113616190D01*
X160368571Y-113616190D02*
X160368571Y-113116190D01*
X160320952Y-113187619D01*
X160273333Y-113235238D01*
X160225714Y-113259048D01*
X148464763Y-106256190D02*
X148464763Y-105756190D01*
X148655239Y-105756190D01*
X148702858Y-105780000D01*
X148726667Y-105803810D01*
X148750477Y-105851429D01*
X148750477Y-105922857D01*
X148726667Y-105970476D01*
X148702858Y-105994286D01*
X148655239Y-106018095D01*
X148464763Y-106018095D01*
X149226667Y-106256190D02*
X148940953Y-106256190D01*
X149083810Y-106256190D02*
X149083810Y-105756190D01*
X149036191Y-105827619D01*
X148988572Y-105875238D01*
X148940953Y-105899048D01*
X149536191Y-105756190D02*
X149583810Y-105756190D01*
X149631429Y-105780000D01*
X149655238Y-105803810D01*
X149679048Y-105851429D01*
X149702857Y-105946667D01*
X149702857Y-106065714D01*
X149679048Y-106160952D01*
X149655238Y-106208571D01*
X149631429Y-106232381D01*
X149583810Y-106256190D01*
X149536191Y-106256190D01*
X149488572Y-106232381D01*
X149464762Y-106208571D01*
X149440953Y-106160952D01*
X149417143Y-106065714D01*
X149417143Y-105946667D01*
X149440953Y-105851429D01*
X149464762Y-105803810D01*
X149488572Y-105780000D01*
X149536191Y-105756190D01*
X150179047Y-106256190D02*
X149893333Y-106256190D01*
X150036190Y-106256190D02*
X150036190Y-105756190D01*
X149988571Y-105827619D01*
X149940952Y-105875238D01*
X149893333Y-105899048D01*
X148465715Y-105406190D02*
X148465715Y-104906190D01*
X148703810Y-105406190D02*
X148703810Y-104906190D01*
X148989524Y-105406190D01*
X148989524Y-104906190D01*
X149227620Y-105406190D02*
X149227620Y-104906190D01*
X149418096Y-104906190D01*
X149465715Y-104930000D01*
X149489524Y-104953810D01*
X149513334Y-105001429D01*
X149513334Y-105072857D01*
X149489524Y-105120476D01*
X149465715Y-105144286D01*
X149418096Y-105168095D01*
X149227620Y-105168095D01*
X149727620Y-104906190D02*
X149727620Y-105310952D01*
X149751429Y-105358571D01*
X149775239Y-105382381D01*
X149822858Y-105406190D01*
X149918096Y-105406190D01*
X149965715Y-105382381D01*
X149989524Y-105358571D01*
X150013334Y-105310952D01*
X150013334Y-104906190D01*
X150180001Y-104906190D02*
X150465715Y-104906190D01*
X150322858Y-105406190D02*
X150322858Y-104906190D01*
X157434763Y-107576190D02*
X157434763Y-107076190D01*
X157625239Y-107076190D01*
X157672858Y-107100000D01*
X157696667Y-107123810D01*
X157720477Y-107171429D01*
X157720477Y-107242857D01*
X157696667Y-107290476D01*
X157672858Y-107314286D01*
X157625239Y-107338095D01*
X157434763Y-107338095D01*
X158196667Y-107576190D02*
X157910953Y-107576190D01*
X158053810Y-107576190D02*
X158053810Y-107076190D01*
X158006191Y-107147619D01*
X157958572Y-107195238D01*
X157910953Y-107219048D01*
X158506191Y-107076190D02*
X158553810Y-107076190D01*
X158601429Y-107100000D01*
X158625238Y-107123810D01*
X158649048Y-107171429D01*
X158672857Y-107266667D01*
X158672857Y-107385714D01*
X158649048Y-107480952D01*
X158625238Y-107528571D01*
X158601429Y-107552381D01*
X158553810Y-107576190D01*
X158506191Y-107576190D01*
X158458572Y-107552381D01*
X158434762Y-107528571D01*
X158410953Y-107480952D01*
X158387143Y-107385714D01*
X158387143Y-107266667D01*
X158410953Y-107171429D01*
X158434762Y-107123810D01*
X158458572Y-107100000D01*
X158506191Y-107076190D01*
X158863333Y-107123810D02*
X158887143Y-107100000D01*
X158934762Y-107076190D01*
X159053809Y-107076190D01*
X159101428Y-107100000D01*
X159125238Y-107123810D01*
X159149047Y-107171429D01*
X159149047Y-107219048D01*
X159125238Y-107290476D01*
X158839524Y-107576190D01*
X159149047Y-107576190D01*
X157316191Y-106346190D02*
X157601905Y-106346190D01*
X157459048Y-106846190D02*
X157459048Y-106346190D01*
X157768572Y-106846190D02*
X157768572Y-106346190D01*
X157959048Y-106346190D01*
X158006667Y-106370000D01*
X158030476Y-106393810D01*
X158054286Y-106441429D01*
X158054286Y-106512857D01*
X158030476Y-106560476D01*
X158006667Y-106584286D01*
X157959048Y-106608095D01*
X157768572Y-106608095D01*
X158816190Y-106584286D02*
X158887619Y-106608095D01*
X158911428Y-106631905D01*
X158935238Y-106679524D01*
X158935238Y-106750952D01*
X158911428Y-106798571D01*
X158887619Y-106822381D01*
X158840000Y-106846190D01*
X158649524Y-106846190D01*
X158649524Y-106346190D01*
X158816190Y-106346190D01*
X158863809Y-106370000D01*
X158887619Y-106393810D01*
X158911428Y-106441429D01*
X158911428Y-106489048D01*
X158887619Y-106536667D01*
X158863809Y-106560476D01*
X158816190Y-106584286D01*
X158649524Y-106584286D01*
X159363809Y-106512857D02*
X159363809Y-106846190D01*
X159244762Y-106322381D02*
X159125714Y-106679524D01*
X159435238Y-106679524D01*
X159863809Y-106846190D02*
X159625714Y-106846190D01*
X159625714Y-106346190D01*
X163974763Y-116846190D02*
X163974763Y-116346190D01*
X164165239Y-116346190D01*
X164212858Y-116370000D01*
X164236667Y-116393810D01*
X164260477Y-116441429D01*
X164260477Y-116512857D01*
X164236667Y-116560476D01*
X164212858Y-116584286D01*
X164165239Y-116608095D01*
X163974763Y-116608095D01*
X164736667Y-116846190D02*
X164450953Y-116846190D01*
X164593810Y-116846190D02*
X164593810Y-116346190D01*
X164546191Y-116417619D01*
X164498572Y-116465238D01*
X164450953Y-116489048D01*
X165046191Y-116346190D02*
X165093810Y-116346190D01*
X165141429Y-116370000D01*
X165165238Y-116393810D01*
X165189048Y-116441429D01*
X165212857Y-116536667D01*
X165212857Y-116655714D01*
X165189048Y-116750952D01*
X165165238Y-116798571D01*
X165141429Y-116822381D01*
X165093810Y-116846190D01*
X165046191Y-116846190D01*
X164998572Y-116822381D01*
X164974762Y-116798571D01*
X164950953Y-116750952D01*
X164927143Y-116655714D01*
X164927143Y-116536667D01*
X164950953Y-116441429D01*
X164974762Y-116393810D01*
X164998572Y-116370000D01*
X165046191Y-116346190D01*
X165379524Y-116346190D02*
X165689047Y-116346190D01*
X165522381Y-116536667D01*
X165593809Y-116536667D01*
X165641428Y-116560476D01*
X165665238Y-116584286D01*
X165689047Y-116631905D01*
X165689047Y-116750952D01*
X165665238Y-116798571D01*
X165641428Y-116822381D01*
X165593809Y-116846190D01*
X165450952Y-116846190D01*
X165403333Y-116822381D01*
X165379524Y-116798571D01*
X165452382Y-115526190D02*
X165738096Y-115526190D01*
X165595239Y-116026190D02*
X165595239Y-115526190D01*
X165904763Y-116026190D02*
X165904763Y-115526190D01*
X166095239Y-115526190D01*
X166142858Y-115550000D01*
X166166667Y-115573810D01*
X166190477Y-115621429D01*
X166190477Y-115692857D01*
X166166667Y-115740476D01*
X166142858Y-115764286D01*
X166095239Y-115788095D01*
X165904763Y-115788095D01*
X166952381Y-115764286D02*
X166785715Y-115764286D01*
X166785715Y-116026190D02*
X166785715Y-115526190D01*
X167023810Y-115526190D01*
X167380952Y-115764286D02*
X167452381Y-115788095D01*
X167476190Y-115811905D01*
X167500000Y-115859524D01*
X167500000Y-115930952D01*
X167476190Y-115978571D01*
X167452381Y-116002381D01*
X167404762Y-116026190D01*
X167214286Y-116026190D01*
X167214286Y-115526190D01*
X167380952Y-115526190D01*
X167428571Y-115550000D01*
X167452381Y-115573810D01*
X167476190Y-115621429D01*
X167476190Y-115669048D01*
X167452381Y-115716667D01*
X167428571Y-115740476D01*
X167380952Y-115764286D01*
X167214286Y-115764286D01*
X161904763Y-108266190D02*
X161904763Y-107766190D01*
X162095239Y-107766190D01*
X162142858Y-107790000D01*
X162166667Y-107813810D01*
X162190477Y-107861429D01*
X162190477Y-107932857D01*
X162166667Y-107980476D01*
X162142858Y-108004286D01*
X162095239Y-108028095D01*
X161904763Y-108028095D01*
X162666667Y-108266190D02*
X162380953Y-108266190D01*
X162523810Y-108266190D02*
X162523810Y-107766190D01*
X162476191Y-107837619D01*
X162428572Y-107885238D01*
X162380953Y-107909048D01*
X162976191Y-107766190D02*
X163023810Y-107766190D01*
X163071429Y-107790000D01*
X163095238Y-107813810D01*
X163119048Y-107861429D01*
X163142857Y-107956667D01*
X163142857Y-108075714D01*
X163119048Y-108170952D01*
X163095238Y-108218571D01*
X163071429Y-108242381D01*
X163023810Y-108266190D01*
X162976191Y-108266190D01*
X162928572Y-108242381D01*
X162904762Y-108218571D01*
X162880953Y-108170952D01*
X162857143Y-108075714D01*
X162857143Y-107956667D01*
X162880953Y-107861429D01*
X162904762Y-107813810D01*
X162928572Y-107790000D01*
X162976191Y-107766190D01*
X163571428Y-107932857D02*
X163571428Y-108266190D01*
X163452381Y-107742381D02*
X163333333Y-108099524D01*
X163642857Y-108099524D01*
X160505239Y-106876190D02*
X160790953Y-106876190D01*
X160648096Y-107376190D02*
X160648096Y-106876190D01*
X160957620Y-107376190D02*
X160957620Y-106876190D01*
X161148096Y-106876190D01*
X161195715Y-106900000D01*
X161219524Y-106923810D01*
X161243334Y-106971429D01*
X161243334Y-107042857D01*
X161219524Y-107090476D01*
X161195715Y-107114286D01*
X161148096Y-107138095D01*
X160957620Y-107138095D01*
X161814762Y-107233333D02*
X162052857Y-107233333D01*
X161767143Y-107376190D02*
X161933810Y-106876190D01*
X162100476Y-107376190D01*
X162433809Y-107114286D02*
X162267143Y-107114286D01*
X162267143Y-107376190D02*
X162267143Y-106876190D01*
X162505238Y-106876190D01*
X162624285Y-106876190D02*
X162909999Y-106876190D01*
X162767142Y-107376190D02*
X162767142Y-106876190D01*
X163314761Y-107376190D02*
X163076666Y-107376190D01*
X163076666Y-106876190D01*
X161494763Y-113106190D02*
X161494763Y-112606190D01*
X161685239Y-112606190D01*
X161732858Y-112630000D01*
X161756667Y-112653810D01*
X161780477Y-112701429D01*
X161780477Y-112772857D01*
X161756667Y-112820476D01*
X161732858Y-112844286D01*
X161685239Y-112868095D01*
X161494763Y-112868095D01*
X162256667Y-113106190D02*
X161970953Y-113106190D01*
X162113810Y-113106190D02*
X162113810Y-112606190D01*
X162066191Y-112677619D01*
X162018572Y-112725238D01*
X161970953Y-112749048D01*
X162566191Y-112606190D02*
X162613810Y-112606190D01*
X162661429Y-112630000D01*
X162685238Y-112653810D01*
X162709048Y-112701429D01*
X162732857Y-112796667D01*
X162732857Y-112915714D01*
X162709048Y-113010952D01*
X162685238Y-113058571D01*
X162661429Y-113082381D01*
X162613810Y-113106190D01*
X162566191Y-113106190D01*
X162518572Y-113082381D01*
X162494762Y-113058571D01*
X162470953Y-113010952D01*
X162447143Y-112915714D01*
X162447143Y-112796667D01*
X162470953Y-112701429D01*
X162494762Y-112653810D01*
X162518572Y-112630000D01*
X162566191Y-112606190D01*
X163185238Y-112606190D02*
X162947143Y-112606190D01*
X162923333Y-112844286D01*
X162947143Y-112820476D01*
X162994762Y-112796667D01*
X163113809Y-112796667D01*
X163161428Y-112820476D01*
X163185238Y-112844286D01*
X163209047Y-112891905D01*
X163209047Y-113010952D01*
X163185238Y-113058571D01*
X163161428Y-113082381D01*
X163113809Y-113106190D01*
X162994762Y-113106190D01*
X162947143Y-113082381D01*
X162923333Y-113058571D01*
X161070001Y-114956190D02*
X161355715Y-114956190D01*
X161212858Y-115456190D02*
X161212858Y-114956190D01*
X161522382Y-115456190D02*
X161522382Y-114956190D01*
X161712858Y-114956190D01*
X161760477Y-114980000D01*
X161784286Y-115003810D01*
X161808096Y-115051429D01*
X161808096Y-115122857D01*
X161784286Y-115170476D01*
X161760477Y-115194286D01*
X161712858Y-115218095D01*
X161522382Y-115218095D01*
X162331905Y-114956190D02*
X162498572Y-115456190D01*
X162665238Y-114956190D01*
X162927143Y-114956190D02*
X163022381Y-114956190D01*
X163070000Y-114980000D01*
X163117619Y-115027619D01*
X163141428Y-115122857D01*
X163141428Y-115289524D01*
X163117619Y-115384762D01*
X163070000Y-115432381D01*
X163022381Y-115456190D01*
X162927143Y-115456190D01*
X162879524Y-115432381D01*
X162831905Y-115384762D01*
X162808095Y-115289524D01*
X162808095Y-115122857D01*
X162831905Y-115027619D01*
X162879524Y-114980000D01*
X162927143Y-114956190D01*
X163355715Y-114956190D02*
X163355715Y-115360952D01*
X163379524Y-115408571D01*
X163403334Y-115432381D01*
X163450953Y-115456190D01*
X163546191Y-115456190D01*
X163593810Y-115432381D01*
X163617619Y-115408571D01*
X163641429Y-115360952D01*
X163641429Y-114956190D01*
X163808096Y-114956190D02*
X164093810Y-114956190D01*
X163950953Y-115456190D02*
X163950953Y-114956190D01*
X164522381Y-115456190D02*
X164236667Y-115456190D01*
X164379524Y-115456190D02*
X164379524Y-114956190D01*
X164331905Y-115027619D01*
X164284286Y-115075238D01*
X164236667Y-115099048D01*
X172856190Y-118045237D02*
X172356190Y-118045237D01*
X172356190Y-117854761D01*
X172380000Y-117807142D01*
X172403810Y-117783333D01*
X172451429Y-117759523D01*
X172522857Y-117759523D01*
X172570476Y-117783333D01*
X172594286Y-117807142D01*
X172618095Y-117854761D01*
X172618095Y-118045237D01*
X172856190Y-117283333D02*
X172856190Y-117569047D01*
X172856190Y-117426190D02*
X172356190Y-117426190D01*
X172427619Y-117473809D01*
X172475238Y-117521428D01*
X172499048Y-117569047D01*
X172356190Y-116973809D02*
X172356190Y-116926190D01*
X172380000Y-116878571D01*
X172403810Y-116854762D01*
X172451429Y-116830952D01*
X172546667Y-116807143D01*
X172665714Y-116807143D01*
X172760952Y-116830952D01*
X172808571Y-116854762D01*
X172832381Y-116878571D01*
X172856190Y-116926190D01*
X172856190Y-116973809D01*
X172832381Y-117021428D01*
X172808571Y-117045238D01*
X172760952Y-117069047D01*
X172665714Y-117092857D01*
X172546667Y-117092857D01*
X172451429Y-117069047D01*
X172403810Y-117045238D01*
X172380000Y-117021428D01*
X172356190Y-116973809D01*
X172356190Y-116378572D02*
X172356190Y-116473810D01*
X172380000Y-116521429D01*
X172403810Y-116545238D01*
X172475238Y-116592857D01*
X172570476Y-116616667D01*
X172760952Y-116616667D01*
X172808571Y-116592857D01*
X172832381Y-116569048D01*
X172856190Y-116521429D01*
X172856190Y-116426191D01*
X172832381Y-116378572D01*
X172808571Y-116354762D01*
X172760952Y-116330953D01*
X172641905Y-116330953D01*
X172594286Y-116354762D01*
X172570476Y-116378572D01*
X172546667Y-116426191D01*
X172546667Y-116521429D01*
X172570476Y-116569048D01*
X172594286Y-116592857D01*
X172641905Y-116616667D01*
X169946190Y-117919999D02*
X169946190Y-117634285D01*
X170446190Y-117777142D02*
X169946190Y-117777142D01*
X170446190Y-117467618D02*
X169946190Y-117467618D01*
X169946190Y-117277142D01*
X169970000Y-117229523D01*
X169993810Y-117205714D01*
X170041429Y-117181904D01*
X170112857Y-117181904D01*
X170160476Y-117205714D01*
X170184286Y-117229523D01*
X170208095Y-117277142D01*
X170208095Y-117467618D01*
X169946190Y-116658095D02*
X170446190Y-116491428D01*
X169946190Y-116324762D01*
X169946190Y-116062857D02*
X169946190Y-115967619D01*
X169970000Y-115920000D01*
X170017619Y-115872381D01*
X170112857Y-115848572D01*
X170279524Y-115848572D01*
X170374762Y-115872381D01*
X170422381Y-115920000D01*
X170446190Y-115967619D01*
X170446190Y-116062857D01*
X170422381Y-116110476D01*
X170374762Y-116158095D01*
X170279524Y-116181905D01*
X170112857Y-116181905D01*
X170017619Y-116158095D01*
X169970000Y-116110476D01*
X169946190Y-116062857D01*
X169946190Y-115634285D02*
X170350952Y-115634285D01*
X170398571Y-115610476D01*
X170422381Y-115586666D01*
X170446190Y-115539047D01*
X170446190Y-115443809D01*
X170422381Y-115396190D01*
X170398571Y-115372381D01*
X170350952Y-115348571D01*
X169946190Y-115348571D01*
X169946190Y-115181904D02*
X169946190Y-114896190D01*
X170446190Y-115039047D02*
X169946190Y-115039047D01*
X169993810Y-114753333D02*
X169970000Y-114729523D01*
X169946190Y-114681904D01*
X169946190Y-114562857D01*
X169970000Y-114515238D01*
X169993810Y-114491428D01*
X170041429Y-114467619D01*
X170089048Y-114467619D01*
X170160476Y-114491428D01*
X170446190Y-114777142D01*
X170446190Y-114467619D01*
X173864763Y-120826190D02*
X173864763Y-120326190D01*
X174055239Y-120326190D01*
X174102858Y-120350000D01*
X174126667Y-120373810D01*
X174150477Y-120421429D01*
X174150477Y-120492857D01*
X174126667Y-120540476D01*
X174102858Y-120564286D01*
X174055239Y-120588095D01*
X173864763Y-120588095D01*
X174626667Y-120826190D02*
X174340953Y-120826190D01*
X174483810Y-120826190D02*
X174483810Y-120326190D01*
X174436191Y-120397619D01*
X174388572Y-120445238D01*
X174340953Y-120469048D01*
X174936191Y-120326190D02*
X174983810Y-120326190D01*
X175031429Y-120350000D01*
X175055238Y-120373810D01*
X175079048Y-120421429D01*
X175102857Y-120516667D01*
X175102857Y-120635714D01*
X175079048Y-120730952D01*
X175055238Y-120778571D01*
X175031429Y-120802381D01*
X174983810Y-120826190D01*
X174936191Y-120826190D01*
X174888572Y-120802381D01*
X174864762Y-120778571D01*
X174840953Y-120730952D01*
X174817143Y-120635714D01*
X174817143Y-120516667D01*
X174840953Y-120421429D01*
X174864762Y-120373810D01*
X174888572Y-120350000D01*
X174936191Y-120326190D01*
X175269524Y-120326190D02*
X175602857Y-120326190D01*
X175388571Y-120826190D01*
X173667619Y-113136190D02*
X173762857Y-113136190D01*
X173810476Y-113160000D01*
X173858095Y-113207619D01*
X173881904Y-113302857D01*
X173881904Y-113469524D01*
X173858095Y-113564762D01*
X173810476Y-113612381D01*
X173762857Y-113636190D01*
X173667619Y-113636190D01*
X173620000Y-113612381D01*
X173572381Y-113564762D01*
X173548571Y-113469524D01*
X173548571Y-113302857D01*
X173572381Y-113207619D01*
X173620000Y-113160000D01*
X173667619Y-113136190D01*
X174096191Y-113136190D02*
X174096191Y-113540952D01*
X174120000Y-113588571D01*
X174143810Y-113612381D01*
X174191429Y-113636190D01*
X174286667Y-113636190D01*
X174334286Y-113612381D01*
X174358095Y-113588571D01*
X174381905Y-113540952D01*
X174381905Y-113136190D01*
X174548572Y-113136190D02*
X174834286Y-113136190D01*
X174691429Y-113636190D02*
X174691429Y-113136190D01*
X175000953Y-113636190D02*
X175000953Y-113136190D01*
X175191429Y-113136190D01*
X175239048Y-113160000D01*
X175262857Y-113183810D01*
X175286667Y-113231429D01*
X175286667Y-113302857D01*
X175262857Y-113350476D01*
X175239048Y-113374286D01*
X175191429Y-113398095D01*
X175000953Y-113398095D01*
X175500953Y-113136190D02*
X175500953Y-113540952D01*
X175524762Y-113588571D01*
X175548572Y-113612381D01*
X175596191Y-113636190D01*
X175691429Y-113636190D01*
X175739048Y-113612381D01*
X175762857Y-113588571D01*
X175786667Y-113540952D01*
X175786667Y-113136190D01*
X175953334Y-113136190D02*
X176239048Y-113136190D01*
X176096191Y-113636190D02*
X176096191Y-113136190D01*
X149366190Y-111899523D02*
X149128095Y-112066190D01*
X149366190Y-112185237D02*
X148866190Y-112185237D01*
X148866190Y-111994761D01*
X148890000Y-111947142D01*
X148913810Y-111923333D01*
X148961429Y-111899523D01*
X149032857Y-111899523D01*
X149080476Y-111923333D01*
X149104286Y-111947142D01*
X149128095Y-111994761D01*
X149128095Y-112185237D01*
X149366190Y-111423333D02*
X149366190Y-111709047D01*
X149366190Y-111566190D02*
X148866190Y-111566190D01*
X148937619Y-111613809D01*
X148985238Y-111661428D01*
X149009048Y-111709047D01*
X148866190Y-111113809D02*
X148866190Y-111066190D01*
X148890000Y-111018571D01*
X148913810Y-110994762D01*
X148961429Y-110970952D01*
X149056667Y-110947143D01*
X149175714Y-110947143D01*
X149270952Y-110970952D01*
X149318571Y-110994762D01*
X149342381Y-111018571D01*
X149366190Y-111066190D01*
X149366190Y-111113809D01*
X149342381Y-111161428D01*
X149318571Y-111185238D01*
X149270952Y-111209047D01*
X149175714Y-111232857D01*
X149056667Y-111232857D01*
X148961429Y-111209047D01*
X148913810Y-111185238D01*
X148890000Y-111161428D01*
X148866190Y-111113809D01*
X149366190Y-110470953D02*
X149366190Y-110756667D01*
X149366190Y-110613810D02*
X148866190Y-110613810D01*
X148937619Y-110661429D01*
X148985238Y-110709048D01*
X149009048Y-110756667D01*
X149366190Y-114079523D02*
X149128095Y-114246190D01*
X149366190Y-114365237D02*
X148866190Y-114365237D01*
X148866190Y-114174761D01*
X148890000Y-114127142D01*
X148913810Y-114103333D01*
X148961429Y-114079523D01*
X149032857Y-114079523D01*
X149080476Y-114103333D01*
X149104286Y-114127142D01*
X149128095Y-114174761D01*
X149128095Y-114365237D01*
X149366190Y-113603333D02*
X149366190Y-113889047D01*
X149366190Y-113746190D02*
X148866190Y-113746190D01*
X148937619Y-113793809D01*
X148985238Y-113841428D01*
X149009048Y-113889047D01*
X148866190Y-113293809D02*
X148866190Y-113246190D01*
X148890000Y-113198571D01*
X148913810Y-113174762D01*
X148961429Y-113150952D01*
X149056667Y-113127143D01*
X149175714Y-113127143D01*
X149270952Y-113150952D01*
X149318571Y-113174762D01*
X149342381Y-113198571D01*
X149366190Y-113246190D01*
X149366190Y-113293809D01*
X149342381Y-113341428D01*
X149318571Y-113365238D01*
X149270952Y-113389047D01*
X149175714Y-113412857D01*
X149056667Y-113412857D01*
X148961429Y-113389047D01*
X148913810Y-113365238D01*
X148890000Y-113341428D01*
X148866190Y-113293809D01*
X148913810Y-112936667D02*
X148890000Y-112912857D01*
X148866190Y-112865238D01*
X148866190Y-112746191D01*
X148890000Y-112698572D01*
X148913810Y-112674762D01*
X148961429Y-112650953D01*
X149009048Y-112650953D01*
X149080476Y-112674762D01*
X149366190Y-112960476D01*
X149366190Y-112650953D01*
X149366190Y-116259523D02*
X149128095Y-116426190D01*
X149366190Y-116545237D02*
X148866190Y-116545237D01*
X148866190Y-116354761D01*
X148890000Y-116307142D01*
X148913810Y-116283333D01*
X148961429Y-116259523D01*
X149032857Y-116259523D01*
X149080476Y-116283333D01*
X149104286Y-116307142D01*
X149128095Y-116354761D01*
X149128095Y-116545237D01*
X149366190Y-115783333D02*
X149366190Y-116069047D01*
X149366190Y-115926190D02*
X148866190Y-115926190D01*
X148937619Y-115973809D01*
X148985238Y-116021428D01*
X149009048Y-116069047D01*
X148866190Y-115473809D02*
X148866190Y-115426190D01*
X148890000Y-115378571D01*
X148913810Y-115354762D01*
X148961429Y-115330952D01*
X149056667Y-115307143D01*
X149175714Y-115307143D01*
X149270952Y-115330952D01*
X149318571Y-115354762D01*
X149342381Y-115378571D01*
X149366190Y-115426190D01*
X149366190Y-115473809D01*
X149342381Y-115521428D01*
X149318571Y-115545238D01*
X149270952Y-115569047D01*
X149175714Y-115592857D01*
X149056667Y-115592857D01*
X148961429Y-115569047D01*
X148913810Y-115545238D01*
X148890000Y-115521428D01*
X148866190Y-115473809D01*
X148866190Y-115140476D02*
X148866190Y-114830953D01*
X149056667Y-114997619D01*
X149056667Y-114926191D01*
X149080476Y-114878572D01*
X149104286Y-114854762D01*
X149151905Y-114830953D01*
X149270952Y-114830953D01*
X149318571Y-114854762D01*
X149342381Y-114878572D01*
X149366190Y-114926191D01*
X149366190Y-115069048D01*
X149342381Y-115116667D01*
X149318571Y-115140476D01*
X163770477Y-117916190D02*
X163603810Y-117678095D01*
X163484763Y-117916190D02*
X163484763Y-117416190D01*
X163675239Y-117416190D01*
X163722858Y-117440000D01*
X163746667Y-117463810D01*
X163770477Y-117511429D01*
X163770477Y-117582857D01*
X163746667Y-117630476D01*
X163722858Y-117654286D01*
X163675239Y-117678095D01*
X163484763Y-117678095D01*
X164246667Y-117916190D02*
X163960953Y-117916190D01*
X164103810Y-117916190D02*
X164103810Y-117416190D01*
X164056191Y-117487619D01*
X164008572Y-117535238D01*
X163960953Y-117559048D01*
X164556191Y-117416190D02*
X164603810Y-117416190D01*
X164651429Y-117440000D01*
X164675238Y-117463810D01*
X164699048Y-117511429D01*
X164722857Y-117606667D01*
X164722857Y-117725714D01*
X164699048Y-117820952D01*
X164675238Y-117868571D01*
X164651429Y-117892381D01*
X164603810Y-117916190D01*
X164556191Y-117916190D01*
X164508572Y-117892381D01*
X164484762Y-117868571D01*
X164460953Y-117820952D01*
X164437143Y-117725714D01*
X164437143Y-117606667D01*
X164460953Y-117511429D01*
X164484762Y-117463810D01*
X164508572Y-117440000D01*
X164556191Y-117416190D01*
X165151428Y-117582857D02*
X165151428Y-117916190D01*
X165032381Y-117392381D02*
X164913333Y-117749524D01*
X165222857Y-117749524D01*
X170590477Y-120696190D02*
X170423810Y-120458095D01*
X170304763Y-120696190D02*
X170304763Y-120196190D01*
X170495239Y-120196190D01*
X170542858Y-120220000D01*
X170566667Y-120243810D01*
X170590477Y-120291429D01*
X170590477Y-120362857D01*
X170566667Y-120410476D01*
X170542858Y-120434286D01*
X170495239Y-120458095D01*
X170304763Y-120458095D01*
X171066667Y-120696190D02*
X170780953Y-120696190D01*
X170923810Y-120696190D02*
X170923810Y-120196190D01*
X170876191Y-120267619D01*
X170828572Y-120315238D01*
X170780953Y-120339048D01*
X171376191Y-120196190D02*
X171423810Y-120196190D01*
X171471429Y-120220000D01*
X171495238Y-120243810D01*
X171519048Y-120291429D01*
X171542857Y-120386667D01*
X171542857Y-120505714D01*
X171519048Y-120600952D01*
X171495238Y-120648571D01*
X171471429Y-120672381D01*
X171423810Y-120696190D01*
X171376191Y-120696190D01*
X171328572Y-120672381D01*
X171304762Y-120648571D01*
X171280953Y-120600952D01*
X171257143Y-120505714D01*
X171257143Y-120386667D01*
X171280953Y-120291429D01*
X171304762Y-120243810D01*
X171328572Y-120220000D01*
X171376191Y-120196190D01*
X171995238Y-120196190D02*
X171757143Y-120196190D01*
X171733333Y-120434286D01*
X171757143Y-120410476D01*
X171804762Y-120386667D01*
X171923809Y-120386667D01*
X171971428Y-120410476D01*
X171995238Y-120434286D01*
X172019047Y-120481905D01*
X172019047Y-120600952D01*
X171995238Y-120648571D01*
X171971428Y-120672381D01*
X171923809Y-120696190D01*
X171804762Y-120696190D01*
X171757143Y-120672381D01*
X171733333Y-120648571D01*
X157556190Y-117887142D02*
X157960952Y-117887142D01*
X158008571Y-117863333D01*
X158032381Y-117839523D01*
X158056190Y-117791904D01*
X158056190Y-117696666D01*
X158032381Y-117649047D01*
X158008571Y-117625238D01*
X157960952Y-117601428D01*
X157556190Y-117601428D01*
X158056190Y-117101428D02*
X158056190Y-117387142D01*
X158056190Y-117244285D02*
X157556190Y-117244285D01*
X157627619Y-117291904D01*
X157675238Y-117339523D01*
X157699048Y-117387142D01*
X157556190Y-116791904D02*
X157556190Y-116744285D01*
X157580000Y-116696666D01*
X157603810Y-116672857D01*
X157651429Y-116649047D01*
X157746667Y-116625238D01*
X157865714Y-116625238D01*
X157960952Y-116649047D01*
X158008571Y-116672857D01*
X158032381Y-116696666D01*
X158056190Y-116744285D01*
X158056190Y-116791904D01*
X158032381Y-116839523D01*
X158008571Y-116863333D01*
X157960952Y-116887142D01*
X157865714Y-116910952D01*
X157746667Y-116910952D01*
X157651429Y-116887142D01*
X157603810Y-116863333D01*
X157580000Y-116839523D01*
X157556190Y-116791904D01*
X158056190Y-116149048D02*
X158056190Y-116434762D01*
X158056190Y-116291905D02*
X157556190Y-116291905D01*
X157627619Y-116339524D01*
X157675238Y-116387143D01*
X157699048Y-116434762D01*
%LPC*%
D14*
X155830000Y-108500000D03*
X155830000Y-106000000D03*
D15*
X156710000Y-119860000D03*
X154210000Y-119860000D03*
D16*
X164690000Y-113160000D03*
X168690000Y-113160000D03*
D14*
X171550000Y-115130000D03*
X171550000Y-112630000D03*
D17*
X158570000Y-111310000D03*
X160730000Y-111310000D03*
D18*
X158020000Y-111310000D03*
X161280000Y-111360000D03*
D19*
X152590000Y-108200000D03*
D20*
X150050000Y-108200000D03*
D21*
X158460000Y-108570000D03*
X166690000Y-116960000D03*
X160910000Y-108550000D03*
X162110000Y-114080000D03*
X171440000Y-117140000D03*
D19*
X174690000Y-115480000D03*
D20*
X174690000Y-118020000D03*
D22*
X150670000Y-111390000D03*
X153370000Y-111390000D03*
X153360000Y-113550000D03*
X150660000Y-113550000D03*
X153340000Y-115740000D03*
X150640000Y-115740000D03*
X162550000Y-119080000D03*
X165250000Y-119080000D03*
X168270000Y-119050000D03*
X170970000Y-119050000D03*
D23*
X159955000Y-116990000D03*
D24*
X159580000Y-115540000D03*
X160580000Y-115540000D03*
X160080000Y-115540000D03*
X159080000Y-115540000D03*
X158580000Y-115540000D03*
X160580000Y-118440000D03*
X160080000Y-118440000D03*
X159580000Y-118440000D03*
X159080000Y-118440000D03*
X158580000Y-118440000D03*
D25*
X158890000Y-116700000D03*
X158890000Y-117290000D03*
X159580000Y-116990000D03*
X160360000Y-116690000D03*
X160370000Y-117300000D03*
M02*
