M48
;DRILL file {kicad (2015-01-29 BZR 5396)-product} date 2/26/2015 9:26:26 PM
;FORMAT={2:4/ absolute / inch / suppress leading zeros}
FMAT,2
INCH,TZ
T1C0.023
T2C0.025
T3C0.030
T4C0.039
T5C0.040
T6C0.051
T7C0.098
%
G90
G05
M72
T1
X60190Y-41199
X60190Y-43199
X60190Y-46799
X60190Y-48799
X61190Y-42199
X61190Y-47799
T2
X72800Y-49300
T3
X63500Y-42400
X66200Y-47900
X68500Y-38800
X68800Y-40500
X68900Y-41500
X69900Y-46800
X70200Y-50100
X70600Y-38300
X71400Y-46100
X71400Y-50000
T4
X64283Y-37276
X66200Y-33200
X67200Y-33200
X68200Y-33200
X70189Y-37276
T5
X67300Y-36100
X68200Y-34800
X68300Y-36100
X69200Y-34800
X71100Y-40600
X71100Y-41600
X71100Y-42600
T6
X73897Y-37862
X73897Y-39862
X73897Y-42362
X73897Y-44362
T7
X62189Y-31679
X62189Y-31679
X72189Y-31679
T0
M30
