G04 #@! TF.FileFunction,Legend,Bot*
%FSLAX46Y46*%
G04 Gerber Fmt 4.6, Leading zero omitted, Abs format (unit mm)*
G04 Created by KiCad (PCBNEW (2015-01-29 BZR 5396)-product) date 2/26/2015 9:25:46 PM*
%MOMM*%
G01*
G04 APERTURE LIST*
%ADD10C,0.100000*%
%ADD11C,0.300000*%
%ADD12C,0.150000*%
%ADD13R,1.250000X1.500000*%
%ADD14R,1.500000X1.250000*%
%ADD15O,1.501140X2.499360*%
%ADD16C,1.998980*%
%ADD17R,1.500000X1.300000*%
%ADD18C,2.500000*%
%ADD19C,2.600000*%
%ADD20R,2.032000X1.727200*%
%ADD21O,2.032000X1.727200*%
%ADD22R,2.032000X2.032000*%
%ADD23O,2.032000X2.032000*%
%ADD24C,1.200000*%
G04 APERTURE END LIST*
D10*
D11*
X151297714Y-74366286D02*
X151369143Y-74294857D01*
X151440571Y-74080571D01*
X151440571Y-73937714D01*
X151369143Y-73723429D01*
X151226286Y-73580571D01*
X151083429Y-73509143D01*
X150797714Y-73437714D01*
X150583429Y-73437714D01*
X150297714Y-73509143D01*
X150154857Y-73580571D01*
X150012000Y-73723429D01*
X149940571Y-73937714D01*
X149940571Y-74080571D01*
X150012000Y-74294857D01*
X150083429Y-74366286D01*
X151440571Y-75009143D02*
X150440571Y-75009143D01*
X150726286Y-75009143D02*
X150583429Y-75080571D01*
X150512000Y-75152000D01*
X150440571Y-75294857D01*
X150440571Y-75437714D01*
X151369143Y-76509142D02*
X151440571Y-76366285D01*
X151440571Y-76080571D01*
X151369143Y-75937714D01*
X151226286Y-75866285D01*
X150654857Y-75866285D01*
X150512000Y-75937714D01*
X150440571Y-76080571D01*
X150440571Y-76366285D01*
X150512000Y-76509142D01*
X150654857Y-76580571D01*
X150797714Y-76580571D01*
X150940571Y-75866285D01*
X151440571Y-77866285D02*
X150654857Y-77866285D01*
X150512000Y-77794856D01*
X150440571Y-77651999D01*
X150440571Y-77366285D01*
X150512000Y-77223428D01*
X151369143Y-77866285D02*
X151440571Y-77723428D01*
X151440571Y-77366285D01*
X151369143Y-77223428D01*
X151226286Y-77151999D01*
X151083429Y-77151999D01*
X150940571Y-77223428D01*
X150869143Y-77366285D01*
X150869143Y-77723428D01*
X150797714Y-77866285D01*
X150440571Y-78366285D02*
X150440571Y-78937714D01*
X149940571Y-78580571D02*
X151226286Y-78580571D01*
X151369143Y-78651999D01*
X151440571Y-78794857D01*
X151440571Y-78937714D01*
X151440571Y-79437714D02*
X150440571Y-79437714D01*
X149940571Y-79437714D02*
X150012000Y-79366285D01*
X150083429Y-79437714D01*
X150012000Y-79509142D01*
X149940571Y-79437714D01*
X150083429Y-79437714D01*
X150440571Y-80009143D02*
X151440571Y-80366286D01*
X150440571Y-80723428D01*
X151369143Y-81866285D02*
X151440571Y-81723428D01*
X151440571Y-81437714D01*
X151369143Y-81294857D01*
X151226286Y-81223428D01*
X150654857Y-81223428D01*
X150512000Y-81294857D01*
X150440571Y-81437714D01*
X150440571Y-81723428D01*
X150512000Y-81866285D01*
X150654857Y-81937714D01*
X150797714Y-81937714D01*
X150940571Y-81223428D01*
X151297714Y-84580571D02*
X151369143Y-84509142D01*
X151440571Y-84294856D01*
X151440571Y-84151999D01*
X151369143Y-83937714D01*
X151226286Y-83794856D01*
X151083429Y-83723428D01*
X150797714Y-83651999D01*
X150583429Y-83651999D01*
X150297714Y-83723428D01*
X150154857Y-83794856D01*
X150012000Y-83937714D01*
X149940571Y-84151999D01*
X149940571Y-84294856D01*
X150012000Y-84509142D01*
X150083429Y-84580571D01*
X151440571Y-85437714D02*
X151369143Y-85294856D01*
X151297714Y-85223428D01*
X151154857Y-85151999D01*
X150726286Y-85151999D01*
X150583429Y-85223428D01*
X150512000Y-85294856D01*
X150440571Y-85437714D01*
X150440571Y-85651999D01*
X150512000Y-85794856D01*
X150583429Y-85866285D01*
X150726286Y-85937714D01*
X151154857Y-85937714D01*
X151297714Y-85866285D01*
X151369143Y-85794856D01*
X151440571Y-85651999D01*
X151440571Y-85437714D01*
X151440571Y-86580571D02*
X150440571Y-86580571D01*
X150583429Y-86580571D02*
X150512000Y-86651999D01*
X150440571Y-86794857D01*
X150440571Y-87009142D01*
X150512000Y-87151999D01*
X150654857Y-87223428D01*
X151440571Y-87223428D01*
X150654857Y-87223428D02*
X150512000Y-87294857D01*
X150440571Y-87437714D01*
X150440571Y-87651999D01*
X150512000Y-87794857D01*
X150654857Y-87866285D01*
X151440571Y-87866285D01*
X151440571Y-88580571D02*
X150440571Y-88580571D01*
X150583429Y-88580571D02*
X150512000Y-88651999D01*
X150440571Y-88794857D01*
X150440571Y-89009142D01*
X150512000Y-89151999D01*
X150654857Y-89223428D01*
X151440571Y-89223428D01*
X150654857Y-89223428D02*
X150512000Y-89294857D01*
X150440571Y-89437714D01*
X150440571Y-89651999D01*
X150512000Y-89794857D01*
X150654857Y-89866285D01*
X151440571Y-89866285D01*
X151440571Y-90794857D02*
X151369143Y-90651999D01*
X151297714Y-90580571D01*
X151154857Y-90509142D01*
X150726286Y-90509142D01*
X150583429Y-90580571D01*
X150512000Y-90651999D01*
X150440571Y-90794857D01*
X150440571Y-91009142D01*
X150512000Y-91151999D01*
X150583429Y-91223428D01*
X150726286Y-91294857D01*
X151154857Y-91294857D01*
X151297714Y-91223428D01*
X151369143Y-91151999D01*
X151440571Y-91009142D01*
X151440571Y-90794857D01*
X150440571Y-91937714D02*
X151440571Y-91937714D01*
X150583429Y-91937714D02*
X150512000Y-92009142D01*
X150440571Y-92152000D01*
X150440571Y-92366285D01*
X150512000Y-92509142D01*
X150654857Y-92580571D01*
X151440571Y-92580571D01*
X151369143Y-93223428D02*
X151440571Y-93366285D01*
X151440571Y-93652000D01*
X151369143Y-93794857D01*
X151226286Y-93866285D01*
X151154857Y-93866285D01*
X151012000Y-93794857D01*
X150940571Y-93652000D01*
X150940571Y-93437714D01*
X150869143Y-93294857D01*
X150726286Y-93223428D01*
X150654857Y-93223428D01*
X150512000Y-93294857D01*
X150440571Y-93437714D01*
X150440571Y-93652000D01*
X150512000Y-93794857D01*
X151297714Y-94509143D02*
X151369143Y-94580571D01*
X151440571Y-94509143D01*
X151369143Y-94437714D01*
X151297714Y-94509143D01*
X151440571Y-94509143D01*
X150512000Y-94509143D02*
X150583429Y-94580571D01*
X150654857Y-94509143D01*
X150583429Y-94437714D01*
X150512000Y-94509143D01*
X150654857Y-94509143D01*
X151297714Y-97223429D02*
X151369143Y-97152000D01*
X151440571Y-96937714D01*
X151440571Y-96794857D01*
X151369143Y-96580572D01*
X151226286Y-96437714D01*
X151083429Y-96366286D01*
X150797714Y-96294857D01*
X150583429Y-96294857D01*
X150297714Y-96366286D01*
X150154857Y-96437714D01*
X150012000Y-96580572D01*
X149940571Y-96794857D01*
X149940571Y-96937714D01*
X150012000Y-97152000D01*
X150083429Y-97223429D01*
X151297714Y-98723429D02*
X151369143Y-98652000D01*
X151440571Y-98437714D01*
X151440571Y-98294857D01*
X151369143Y-98080572D01*
X151226286Y-97937714D01*
X151083429Y-97866286D01*
X150797714Y-97794857D01*
X150583429Y-97794857D01*
X150297714Y-97866286D01*
X150154857Y-97937714D01*
X150012000Y-98080572D01*
X149940571Y-98294857D01*
X149940571Y-98437714D01*
X150012000Y-98652000D01*
X150083429Y-98723429D01*
X150869143Y-99366286D02*
X150869143Y-100509143D01*
X150654857Y-101723429D02*
X150726286Y-101937715D01*
X150797714Y-102009143D01*
X150940571Y-102080572D01*
X151154857Y-102080572D01*
X151297714Y-102009143D01*
X151369143Y-101937715D01*
X151440571Y-101794857D01*
X151440571Y-101223429D01*
X149940571Y-101223429D01*
X149940571Y-101723429D01*
X150012000Y-101866286D01*
X150083429Y-101937715D01*
X150226286Y-102009143D01*
X150369143Y-102009143D01*
X150512000Y-101937715D01*
X150583429Y-101866286D01*
X150654857Y-101723429D01*
X150654857Y-101223429D01*
X150726286Y-103009143D02*
X151440571Y-103009143D01*
X149940571Y-102509143D02*
X150726286Y-103009143D01*
X149940571Y-103509143D01*
X152340571Y-73794857D02*
X152340571Y-73937714D01*
X152412000Y-74080571D01*
X152483429Y-74152000D01*
X152626286Y-74223429D01*
X152912000Y-74294857D01*
X153269143Y-74294857D01*
X153554857Y-74223429D01*
X153697714Y-74152000D01*
X153769143Y-74080571D01*
X153840571Y-73937714D01*
X153840571Y-73794857D01*
X153769143Y-73652000D01*
X153697714Y-73580571D01*
X153554857Y-73509143D01*
X153269143Y-73437714D01*
X152912000Y-73437714D01*
X152626286Y-73509143D01*
X152483429Y-73580571D01*
X152412000Y-73652000D01*
X152340571Y-73794857D01*
X152483429Y-74866285D02*
X152412000Y-74937714D01*
X152340571Y-75080571D01*
X152340571Y-75437714D01*
X152412000Y-75580571D01*
X152483429Y-75652000D01*
X152626286Y-75723428D01*
X152769143Y-75723428D01*
X152983429Y-75652000D01*
X153840571Y-74794857D01*
X153840571Y-75723428D01*
X153697714Y-76366285D02*
X153769143Y-76437713D01*
X153840571Y-76366285D01*
X153769143Y-76294856D01*
X153697714Y-76366285D01*
X153840571Y-76366285D01*
X152483429Y-77009142D02*
X152412000Y-77080571D01*
X152340571Y-77223428D01*
X152340571Y-77580571D01*
X152412000Y-77723428D01*
X152483429Y-77794857D01*
X152626286Y-77866285D01*
X152769143Y-77866285D01*
X152983429Y-77794857D01*
X153840571Y-76937714D01*
X153840571Y-77866285D01*
X153840571Y-79294856D02*
X153840571Y-78437713D01*
X153840571Y-78866285D02*
X152340571Y-78866285D01*
X152554857Y-78723428D01*
X152697714Y-78580570D01*
X152769143Y-78437713D01*
X153697714Y-79937713D02*
X153769143Y-80009141D01*
X153840571Y-79937713D01*
X153769143Y-79866284D01*
X153697714Y-79937713D01*
X153840571Y-79937713D01*
X152483429Y-80580570D02*
X152412000Y-80651999D01*
X152340571Y-80794856D01*
X152340571Y-81151999D01*
X152412000Y-81294856D01*
X152483429Y-81366285D01*
X152626286Y-81437713D01*
X152769143Y-81437713D01*
X152983429Y-81366285D01*
X153840571Y-80509142D01*
X153840571Y-81437713D01*
X152340571Y-82366284D02*
X152340571Y-82509141D01*
X152412000Y-82651998D01*
X152483429Y-82723427D01*
X152626286Y-82794856D01*
X152912000Y-82866284D01*
X153269143Y-82866284D01*
X153554857Y-82794856D01*
X153697714Y-82723427D01*
X153769143Y-82651998D01*
X153840571Y-82509141D01*
X153840571Y-82366284D01*
X153769143Y-82223427D01*
X153697714Y-82151998D01*
X153554857Y-82080570D01*
X153269143Y-82009141D01*
X152912000Y-82009141D01*
X152626286Y-82080570D01*
X152483429Y-82151998D01*
X152412000Y-82223427D01*
X152340571Y-82366284D01*
X153840571Y-84294855D02*
X153840571Y-83437712D01*
X153840571Y-83866284D02*
X152340571Y-83866284D01*
X152554857Y-83723427D01*
X152697714Y-83580569D01*
X152769143Y-83437712D01*
X152340571Y-85651998D02*
X152340571Y-84937712D01*
X153054857Y-84866283D01*
X152983429Y-84937712D01*
X152912000Y-85080569D01*
X152912000Y-85437712D01*
X152983429Y-85580569D01*
X153054857Y-85651998D01*
X153197714Y-85723426D01*
X153554857Y-85723426D01*
X153697714Y-85651998D01*
X153769143Y-85580569D01*
X153840571Y-85437712D01*
X153840571Y-85080569D01*
X153769143Y-84937712D01*
X153697714Y-84866283D01*
X150207143Y-68663429D02*
X150207143Y-70163429D01*
X150207143Y-69592000D02*
X150350000Y-69663429D01*
X150635714Y-69663429D01*
X150778571Y-69592000D01*
X150850000Y-69520571D01*
X150921429Y-69377714D01*
X150921429Y-68949143D01*
X150850000Y-68806286D01*
X150778571Y-68734857D01*
X150635714Y-68663429D01*
X150350000Y-68663429D01*
X150207143Y-68734857D01*
X151564286Y-68663429D02*
X151564286Y-69663429D01*
X151564286Y-69377714D02*
X151635714Y-69520571D01*
X151707143Y-69592000D01*
X151850000Y-69663429D01*
X151992857Y-69663429D01*
X152707143Y-68663429D02*
X152564285Y-68734857D01*
X152492857Y-68806286D01*
X152421428Y-68949143D01*
X152421428Y-69377714D01*
X152492857Y-69520571D01*
X152564285Y-69592000D01*
X152707143Y-69663429D01*
X152921428Y-69663429D01*
X153064285Y-69592000D01*
X153135714Y-69520571D01*
X153207143Y-69377714D01*
X153207143Y-68949143D01*
X153135714Y-68806286D01*
X153064285Y-68734857D01*
X152921428Y-68663429D01*
X152707143Y-68663429D01*
X154064286Y-68663429D02*
X153921428Y-68734857D01*
X153850000Y-68806286D01*
X153778571Y-68949143D01*
X153778571Y-69377714D01*
X153850000Y-69520571D01*
X153921428Y-69592000D01*
X154064286Y-69663429D01*
X154278571Y-69663429D01*
X154421428Y-69592000D01*
X154492857Y-69520571D01*
X154564286Y-69377714D01*
X154564286Y-68949143D01*
X154492857Y-68806286D01*
X154421428Y-68734857D01*
X154278571Y-68663429D01*
X154064286Y-68663429D01*
X155207143Y-68663429D02*
X155207143Y-70163429D01*
X155350000Y-69234857D02*
X155778571Y-68663429D01*
X155778571Y-69663429D02*
X155207143Y-69092000D01*
X156992857Y-68734857D02*
X156850000Y-68663429D01*
X156564286Y-68663429D01*
X156421429Y-68734857D01*
X156350000Y-68877714D01*
X156350000Y-69449143D01*
X156421429Y-69592000D01*
X156564286Y-69663429D01*
X156850000Y-69663429D01*
X156992857Y-69592000D01*
X157064286Y-69449143D01*
X157064286Y-69306286D01*
X156350000Y-69163429D01*
X157707143Y-68806286D02*
X157778571Y-68734857D01*
X157707143Y-68663429D01*
X157635714Y-68734857D01*
X157707143Y-68806286D01*
X157707143Y-68663429D01*
X158207143Y-69663429D02*
X158778572Y-69663429D01*
X158421429Y-70163429D02*
X158421429Y-68877714D01*
X158492857Y-68734857D01*
X158635715Y-68663429D01*
X158778572Y-68663429D01*
X159278572Y-68806286D02*
X159350000Y-68734857D01*
X159278572Y-68663429D01*
X159207143Y-68734857D01*
X159278572Y-68806286D01*
X159278572Y-68663429D01*
X159992858Y-68663429D02*
X159992858Y-70163429D01*
X160635715Y-68663429D02*
X160635715Y-69449143D01*
X160564286Y-69592000D01*
X160421429Y-69663429D01*
X160207144Y-69663429D01*
X160064286Y-69592000D01*
X159992858Y-69520571D01*
X161921429Y-68734857D02*
X161778572Y-68663429D01*
X161492858Y-68663429D01*
X161350001Y-68734857D01*
X161278572Y-68877714D01*
X161278572Y-69449143D01*
X161350001Y-69592000D01*
X161492858Y-69663429D01*
X161778572Y-69663429D01*
X161921429Y-69592000D01*
X161992858Y-69449143D01*
X161992858Y-69306286D01*
X161278572Y-69163429D01*
X163278572Y-68663429D02*
X163278572Y-70163429D01*
X163278572Y-68734857D02*
X163135715Y-68663429D01*
X162850001Y-68663429D01*
X162707143Y-68734857D01*
X162635715Y-68806286D01*
X162564286Y-68949143D01*
X162564286Y-69377714D01*
X162635715Y-69520571D01*
X162707143Y-69592000D01*
X162850001Y-69663429D01*
X163135715Y-69663429D01*
X163278572Y-69592000D01*
X163992858Y-68663429D02*
X163992858Y-69663429D01*
X163992858Y-70163429D02*
X163921429Y-70092000D01*
X163992858Y-70020571D01*
X164064286Y-70092000D01*
X163992858Y-70163429D01*
X163992858Y-70020571D01*
X165350001Y-68734857D02*
X165207144Y-68663429D01*
X164921430Y-68663429D01*
X164778572Y-68734857D01*
X164707144Y-68806286D01*
X164635715Y-68949143D01*
X164635715Y-69377714D01*
X164707144Y-69520571D01*
X164778572Y-69592000D01*
X164921430Y-69663429D01*
X165207144Y-69663429D01*
X165350001Y-69592000D01*
X165992858Y-68663429D02*
X165992858Y-70163429D01*
X166135715Y-69234857D02*
X166564286Y-68663429D01*
X166564286Y-69663429D02*
X165992858Y-69092000D01*
X168135715Y-69377714D02*
X168064287Y-69449143D01*
X167921430Y-69520571D01*
X167778572Y-69520571D01*
X167635715Y-69449143D01*
X167564287Y-69377714D01*
X167492858Y-69234857D01*
X167492858Y-69092000D01*
X167564287Y-68949143D01*
X167635715Y-68877714D01*
X167778572Y-68806286D01*
X167921430Y-68806286D01*
X168064287Y-68877714D01*
X168135715Y-68949143D01*
X168135715Y-69520571D02*
X168135715Y-68949143D01*
X168207144Y-68877714D01*
X168278572Y-68877714D01*
X168421430Y-68949143D01*
X168492858Y-69092000D01*
X168492858Y-69449143D01*
X168350001Y-69663429D01*
X168135715Y-69806286D01*
X167850001Y-69877714D01*
X167564287Y-69806286D01*
X167350001Y-69663429D01*
X167207144Y-69449143D01*
X167135715Y-69163429D01*
X167207144Y-68877714D01*
X167350001Y-68663429D01*
X167564287Y-68520571D01*
X167850001Y-68449143D01*
X168135715Y-68520571D01*
X168350001Y-68663429D01*
X169778572Y-69663429D02*
X169778572Y-68449143D01*
X169707143Y-68306286D01*
X169635715Y-68234857D01*
X169492858Y-68163429D01*
X169278572Y-68163429D01*
X169135715Y-68234857D01*
X169778572Y-68734857D02*
X169635715Y-68663429D01*
X169350001Y-68663429D01*
X169207143Y-68734857D01*
X169135715Y-68806286D01*
X169064286Y-68949143D01*
X169064286Y-69377714D01*
X169135715Y-69520571D01*
X169207143Y-69592000D01*
X169350001Y-69663429D01*
X169635715Y-69663429D01*
X169778572Y-69592000D01*
X170492858Y-68663429D02*
X170492858Y-69663429D01*
X170492858Y-69520571D02*
X170564286Y-69592000D01*
X170707144Y-69663429D01*
X170921429Y-69663429D01*
X171064286Y-69592000D01*
X171135715Y-69449143D01*
X171135715Y-68663429D01*
X171135715Y-69449143D02*
X171207144Y-69592000D01*
X171350001Y-69663429D01*
X171564286Y-69663429D01*
X171707144Y-69592000D01*
X171778572Y-69449143D01*
X171778572Y-68663429D01*
X173135715Y-68663429D02*
X173135715Y-69449143D01*
X173064286Y-69592000D01*
X172921429Y-69663429D01*
X172635715Y-69663429D01*
X172492858Y-69592000D01*
X173135715Y-68734857D02*
X172992858Y-68663429D01*
X172635715Y-68663429D01*
X172492858Y-68734857D01*
X172421429Y-68877714D01*
X172421429Y-69020571D01*
X172492858Y-69163429D01*
X172635715Y-69234857D01*
X172992858Y-69234857D01*
X173135715Y-69306286D01*
X173850001Y-68663429D02*
X173850001Y-69663429D01*
X173850001Y-70163429D02*
X173778572Y-70092000D01*
X173850001Y-70020571D01*
X173921429Y-70092000D01*
X173850001Y-70163429D01*
X173850001Y-70020571D01*
X174778573Y-68663429D02*
X174635715Y-68734857D01*
X174564287Y-68877714D01*
X174564287Y-70163429D01*
X175350001Y-68806286D02*
X175421429Y-68734857D01*
X175350001Y-68663429D01*
X175278572Y-68734857D01*
X175350001Y-68806286D01*
X175350001Y-68663429D01*
X176707144Y-68734857D02*
X176564287Y-68663429D01*
X176278573Y-68663429D01*
X176135715Y-68734857D01*
X176064287Y-68806286D01*
X175992858Y-68949143D01*
X175992858Y-69377714D01*
X176064287Y-69520571D01*
X176135715Y-69592000D01*
X176278573Y-69663429D01*
X176564287Y-69663429D01*
X176707144Y-69592000D01*
X177564287Y-68663429D02*
X177421429Y-68734857D01*
X177350001Y-68806286D01*
X177278572Y-68949143D01*
X177278572Y-69377714D01*
X177350001Y-69520571D01*
X177421429Y-69592000D01*
X177564287Y-69663429D01*
X177778572Y-69663429D01*
X177921429Y-69592000D01*
X177992858Y-69520571D01*
X178064287Y-69377714D01*
X178064287Y-68949143D01*
X177992858Y-68806286D01*
X177921429Y-68734857D01*
X177778572Y-68663429D01*
X177564287Y-68663429D01*
X178707144Y-68663429D02*
X178707144Y-69663429D01*
X178707144Y-69520571D02*
X178778572Y-69592000D01*
X178921430Y-69663429D01*
X179135715Y-69663429D01*
X179278572Y-69592000D01*
X179350001Y-69449143D01*
X179350001Y-68663429D01*
X179350001Y-69449143D02*
X179421430Y-69592000D01*
X179564287Y-69663429D01*
X179778572Y-69663429D01*
X179921430Y-69592000D01*
X179992858Y-69449143D01*
X179992858Y-68663429D01*
X189329143Y-68700571D02*
X189400571Y-68914857D01*
X189400571Y-69272000D01*
X189329143Y-69414857D01*
X189257714Y-69486286D01*
X189114857Y-69557714D01*
X188972000Y-69557714D01*
X188829143Y-69486286D01*
X188757714Y-69414857D01*
X188686286Y-69272000D01*
X188614857Y-68986286D01*
X188543429Y-68843428D01*
X188472000Y-68772000D01*
X188329143Y-68700571D01*
X188186286Y-68700571D01*
X188043429Y-68772000D01*
X187972000Y-68843428D01*
X187900571Y-68986286D01*
X187900571Y-69343428D01*
X187972000Y-69557714D01*
X189400571Y-70200571D02*
X188400571Y-70200571D01*
X187900571Y-70200571D02*
X187972000Y-70129142D01*
X188043429Y-70200571D01*
X187972000Y-70271999D01*
X187900571Y-70200571D01*
X188043429Y-70200571D01*
X188400571Y-70914857D02*
X189400571Y-70914857D01*
X188543429Y-70914857D02*
X188472000Y-70986285D01*
X188400571Y-71129143D01*
X188400571Y-71343428D01*
X188472000Y-71486285D01*
X188614857Y-71557714D01*
X189400571Y-71557714D01*
X189400571Y-72272000D02*
X187900571Y-72272000D01*
X188829143Y-72414857D02*
X189400571Y-72843428D01*
X188400571Y-72843428D02*
X188972000Y-72272000D01*
X187900571Y-73772000D02*
X187900571Y-74057714D01*
X187972000Y-74200572D01*
X188114857Y-74343429D01*
X188400571Y-74414857D01*
X188900571Y-74414857D01*
X189186286Y-74343429D01*
X189329143Y-74200572D01*
X189400571Y-74057714D01*
X189400571Y-73772000D01*
X189329143Y-73629143D01*
X189186286Y-73486286D01*
X188900571Y-73414857D01*
X188400571Y-73414857D01*
X188114857Y-73486286D01*
X187972000Y-73629143D01*
X187900571Y-73772000D01*
X189400571Y-75057715D02*
X188400571Y-75057715D01*
X188686286Y-75057715D02*
X188543429Y-75129143D01*
X188472000Y-75200572D01*
X188400571Y-75343429D01*
X188400571Y-75486286D01*
X189329143Y-75914857D02*
X189400571Y-76129143D01*
X189400571Y-76486286D01*
X189329143Y-76629143D01*
X189257714Y-76700572D01*
X189114857Y-76772000D01*
X188972000Y-76772000D01*
X188829143Y-76700572D01*
X188757714Y-76629143D01*
X188686286Y-76486286D01*
X188614857Y-76200572D01*
X188543429Y-76057714D01*
X188472000Y-75986286D01*
X188329143Y-75914857D01*
X188186286Y-75914857D01*
X188043429Y-75986286D01*
X187972000Y-76057714D01*
X187900571Y-76200572D01*
X187900571Y-76557714D01*
X187972000Y-76772000D01*
X188400571Y-77272000D02*
X189400571Y-77557714D01*
X188686286Y-77843428D01*
X189400571Y-78129143D01*
X188400571Y-78414857D01*
X189400571Y-78986286D02*
X188400571Y-78986286D01*
X187900571Y-78986286D02*
X187972000Y-78914857D01*
X188043429Y-78986286D01*
X187972000Y-79057714D01*
X187900571Y-78986286D01*
X188043429Y-78986286D01*
X189400571Y-79700572D02*
X188400571Y-79700572D01*
X188543429Y-79700572D02*
X188472000Y-79772000D01*
X188400571Y-79914858D01*
X188400571Y-80129143D01*
X188472000Y-80272000D01*
X188614857Y-80343429D01*
X189400571Y-80343429D01*
X188614857Y-80343429D02*
X188472000Y-80414858D01*
X188400571Y-80557715D01*
X188400571Y-80772000D01*
X188472000Y-80914858D01*
X188614857Y-80986286D01*
X189400571Y-80986286D01*
X189257714Y-82843429D02*
X189329143Y-82914857D01*
X189400571Y-82843429D01*
X189329143Y-82772000D01*
X189257714Y-82843429D01*
X189400571Y-82843429D01*
X188472000Y-82843429D02*
X188543429Y-82914857D01*
X188614857Y-82843429D01*
X188543429Y-82772000D01*
X188472000Y-82843429D01*
X188614857Y-82843429D01*
X189329143Y-85343429D02*
X189400571Y-85200572D01*
X189400571Y-84914858D01*
X189329143Y-84772000D01*
X189257714Y-84700572D01*
X189114857Y-84629143D01*
X188686286Y-84629143D01*
X188543429Y-84700572D01*
X188472000Y-84772000D01*
X188400571Y-84914858D01*
X188400571Y-85200572D01*
X188472000Y-85343429D01*
X189329143Y-85914857D02*
X189400571Y-86057714D01*
X189400571Y-86343429D01*
X189329143Y-86486286D01*
X189186286Y-86557714D01*
X189114857Y-86557714D01*
X188972000Y-86486286D01*
X188900571Y-86343429D01*
X188900571Y-86129143D01*
X188829143Y-85986286D01*
X188686286Y-85914857D01*
X188614857Y-85914857D01*
X188472000Y-85986286D01*
X188400571Y-86129143D01*
X188400571Y-86343429D01*
X188472000Y-86486286D01*
X189400571Y-87414858D02*
X189329143Y-87272000D01*
X189257714Y-87200572D01*
X189114857Y-87129143D01*
X188686286Y-87129143D01*
X188543429Y-87200572D01*
X188472000Y-87272000D01*
X188400571Y-87414858D01*
X188400571Y-87629143D01*
X188472000Y-87772000D01*
X188543429Y-87843429D01*
X188686286Y-87914858D01*
X189114857Y-87914858D01*
X189257714Y-87843429D01*
X189329143Y-87772000D01*
X189400571Y-87629143D01*
X189400571Y-87414858D01*
X189329143Y-88486286D02*
X189400571Y-88629143D01*
X189400571Y-88914858D01*
X189329143Y-89057715D01*
X189186286Y-89129143D01*
X189114857Y-89129143D01*
X188972000Y-89057715D01*
X188900571Y-88914858D01*
X188900571Y-88700572D01*
X188829143Y-88557715D01*
X188686286Y-88486286D01*
X188614857Y-88486286D01*
X188472000Y-88557715D01*
X188400571Y-88700572D01*
X188400571Y-88914858D01*
X188472000Y-89057715D01*
X189543429Y-89414858D02*
X189543429Y-90557715D01*
X188400571Y-90772001D02*
X189400571Y-91129144D01*
X188400571Y-91486286D01*
X189400571Y-92843429D02*
X189400571Y-91986286D01*
X189400571Y-92414858D02*
X187900571Y-92414858D01*
X188114857Y-92272001D01*
X188257714Y-92129143D01*
X188329143Y-91986286D01*
D10*
X190839286Y-68667291D02*
X190089286Y-68667291D01*
X190839286Y-68988720D02*
X190446429Y-68988720D01*
X190375000Y-68953006D01*
X190339286Y-68881577D01*
X190339286Y-68774434D01*
X190375000Y-68703006D01*
X190410714Y-68667291D01*
X190339286Y-69238720D02*
X190339286Y-69524434D01*
X190089286Y-69345862D02*
X190732143Y-69345862D01*
X190803571Y-69381577D01*
X190839286Y-69453005D01*
X190839286Y-69524434D01*
X190339286Y-69667291D02*
X190339286Y-69953005D01*
X190089286Y-69774433D02*
X190732143Y-69774433D01*
X190803571Y-69810148D01*
X190839286Y-69881576D01*
X190839286Y-69953005D01*
X190339286Y-70203004D02*
X191089286Y-70203004D01*
X190375000Y-70203004D02*
X190339286Y-70274433D01*
X190339286Y-70417290D01*
X190375000Y-70488719D01*
X190410714Y-70524433D01*
X190482143Y-70560147D01*
X190696429Y-70560147D01*
X190767857Y-70524433D01*
X190803571Y-70488719D01*
X190839286Y-70417290D01*
X190839286Y-70274433D01*
X190803571Y-70203004D01*
X190803571Y-70845861D02*
X190839286Y-70917290D01*
X190839286Y-71060147D01*
X190803571Y-71131575D01*
X190732143Y-71167290D01*
X190696429Y-71167290D01*
X190625000Y-71131575D01*
X190589286Y-71060147D01*
X190589286Y-70953004D01*
X190553571Y-70881575D01*
X190482143Y-70845861D01*
X190446429Y-70845861D01*
X190375000Y-70881575D01*
X190339286Y-70953004D01*
X190339286Y-71060147D01*
X190375000Y-71131575D01*
X190767857Y-71488718D02*
X190803571Y-71524433D01*
X190839286Y-71488718D01*
X190803571Y-71453004D01*
X190767857Y-71488718D01*
X190839286Y-71488718D01*
X190375000Y-71488718D02*
X190410714Y-71524433D01*
X190446429Y-71488718D01*
X190410714Y-71453004D01*
X190375000Y-71488718D01*
X190446429Y-71488718D01*
X190053571Y-72381576D02*
X191017857Y-71738719D01*
X190053571Y-73167290D02*
X191017857Y-72524433D01*
X190339286Y-73738718D02*
X190946429Y-73738718D01*
X191017857Y-73703004D01*
X191053571Y-73667289D01*
X191089286Y-73595861D01*
X191089286Y-73488718D01*
X191053571Y-73417289D01*
X190803571Y-73738718D02*
X190839286Y-73667289D01*
X190839286Y-73524432D01*
X190803571Y-73453004D01*
X190767857Y-73417289D01*
X190696429Y-73381575D01*
X190482143Y-73381575D01*
X190410714Y-73417289D01*
X190375000Y-73453004D01*
X190339286Y-73524432D01*
X190339286Y-73667289D01*
X190375000Y-73738718D01*
X190839286Y-74095860D02*
X190339286Y-74095860D01*
X190089286Y-74095860D02*
X190125000Y-74060146D01*
X190160714Y-74095860D01*
X190125000Y-74131575D01*
X190089286Y-74095860D01*
X190160714Y-74095860D01*
X190339286Y-74345861D02*
X190339286Y-74631575D01*
X190089286Y-74453003D02*
X190732143Y-74453003D01*
X190803571Y-74488718D01*
X190839286Y-74560146D01*
X190839286Y-74631575D01*
X190839286Y-74881574D02*
X190089286Y-74881574D01*
X190839286Y-75203003D02*
X190446429Y-75203003D01*
X190375000Y-75167289D01*
X190339286Y-75095860D01*
X190339286Y-74988717D01*
X190375000Y-74917289D01*
X190410714Y-74881574D01*
X190339286Y-75881574D02*
X190839286Y-75881574D01*
X190339286Y-75560145D02*
X190732143Y-75560145D01*
X190803571Y-75595860D01*
X190839286Y-75667288D01*
X190839286Y-75774431D01*
X190803571Y-75845860D01*
X190767857Y-75881574D01*
X190839286Y-76238716D02*
X190089286Y-76238716D01*
X190375000Y-76238716D02*
X190339286Y-76310145D01*
X190339286Y-76453002D01*
X190375000Y-76524431D01*
X190410714Y-76560145D01*
X190482143Y-76595859D01*
X190696429Y-76595859D01*
X190767857Y-76560145D01*
X190803571Y-76524431D01*
X190839286Y-76453002D01*
X190839286Y-76310145D01*
X190803571Y-76238716D01*
X190767857Y-76917287D02*
X190803571Y-76953002D01*
X190839286Y-76917287D01*
X190803571Y-76881573D01*
X190767857Y-76917287D01*
X190839286Y-76917287D01*
X190803571Y-77595859D02*
X190839286Y-77524430D01*
X190839286Y-77381573D01*
X190803571Y-77310145D01*
X190767857Y-77274430D01*
X190696429Y-77238716D01*
X190482143Y-77238716D01*
X190410714Y-77274430D01*
X190375000Y-77310145D01*
X190339286Y-77381573D01*
X190339286Y-77524430D01*
X190375000Y-77595859D01*
X190839286Y-78024430D02*
X190803571Y-77953002D01*
X190767857Y-77917287D01*
X190696429Y-77881573D01*
X190482143Y-77881573D01*
X190410714Y-77917287D01*
X190375000Y-77953002D01*
X190339286Y-78024430D01*
X190339286Y-78131573D01*
X190375000Y-78203002D01*
X190410714Y-78238716D01*
X190482143Y-78274430D01*
X190696429Y-78274430D01*
X190767857Y-78238716D01*
X190803571Y-78203002D01*
X190839286Y-78131573D01*
X190839286Y-78024430D01*
X190839286Y-78595858D02*
X190339286Y-78595858D01*
X190410714Y-78595858D02*
X190375000Y-78631573D01*
X190339286Y-78703001D01*
X190339286Y-78810144D01*
X190375000Y-78881573D01*
X190446429Y-78917287D01*
X190839286Y-78917287D01*
X190446429Y-78917287D02*
X190375000Y-78953001D01*
X190339286Y-79024430D01*
X190339286Y-79131573D01*
X190375000Y-79203001D01*
X190446429Y-79238716D01*
X190839286Y-79238716D01*
X190053571Y-80131573D02*
X191017857Y-79488716D01*
X190839286Y-80381572D02*
X190089286Y-80381572D01*
X190839286Y-80703001D02*
X190446429Y-80703001D01*
X190375000Y-80667287D01*
X190339286Y-80595858D01*
X190339286Y-80488715D01*
X190375000Y-80417287D01*
X190410714Y-80381572D01*
X190803571Y-81345858D02*
X190839286Y-81274429D01*
X190839286Y-81131572D01*
X190803571Y-81060143D01*
X190732143Y-81024429D01*
X190446429Y-81024429D01*
X190375000Y-81060143D01*
X190339286Y-81131572D01*
X190339286Y-81274429D01*
X190375000Y-81345858D01*
X190446429Y-81381572D01*
X190517857Y-81381572D01*
X190589286Y-81024429D01*
X190839286Y-82024429D02*
X190089286Y-82024429D01*
X190803571Y-82024429D02*
X190839286Y-81953000D01*
X190839286Y-81810143D01*
X190803571Y-81738715D01*
X190767857Y-81703000D01*
X190696429Y-81667286D01*
X190482143Y-81667286D01*
X190410714Y-81703000D01*
X190375000Y-81738715D01*
X190339286Y-81810143D01*
X190339286Y-81953000D01*
X190375000Y-82024429D01*
X190839286Y-82381571D02*
X190339286Y-82381571D01*
X190482143Y-82381571D02*
X190410714Y-82417286D01*
X190375000Y-82453000D01*
X190339286Y-82524429D01*
X190339286Y-82595857D01*
X190839286Y-82845857D02*
X190339286Y-82845857D01*
X190089286Y-82845857D02*
X190125000Y-82810143D01*
X190160714Y-82845857D01*
X190125000Y-82881572D01*
X190089286Y-82845857D01*
X190160714Y-82845857D01*
X190803571Y-83524429D02*
X190839286Y-83453000D01*
X190839286Y-83310143D01*
X190803571Y-83238715D01*
X190767857Y-83203000D01*
X190696429Y-83167286D01*
X190482143Y-83167286D01*
X190410714Y-83203000D01*
X190375000Y-83238715D01*
X190339286Y-83310143D01*
X190339286Y-83453000D01*
X190375000Y-83524429D01*
X190839286Y-83845857D02*
X190089286Y-83845857D01*
X190553571Y-83917286D02*
X190839286Y-84131572D01*
X190339286Y-84131572D02*
X190625000Y-83845857D01*
X190839286Y-84453000D02*
X190089286Y-84453000D01*
X190375000Y-84453000D02*
X190339286Y-84524429D01*
X190339286Y-84667286D01*
X190375000Y-84738715D01*
X190410714Y-84774429D01*
X190482143Y-84810143D01*
X190696429Y-84810143D01*
X190767857Y-84774429D01*
X190803571Y-84738715D01*
X190839286Y-84667286D01*
X190839286Y-84524429D01*
X190803571Y-84453000D01*
X190339286Y-85024429D02*
X190339286Y-85310143D01*
X190089286Y-85131571D02*
X190732143Y-85131571D01*
X190803571Y-85167286D01*
X190839286Y-85238714D01*
X190839286Y-85310143D01*
X190053571Y-86095857D02*
X191017857Y-85453000D01*
X190767857Y-86774428D02*
X190803571Y-86738714D01*
X190839286Y-86631571D01*
X190839286Y-86560142D01*
X190803571Y-86452999D01*
X190732143Y-86381571D01*
X190660714Y-86345856D01*
X190517857Y-86310142D01*
X190410714Y-86310142D01*
X190267857Y-86345856D01*
X190196429Y-86381571D01*
X190125000Y-86452999D01*
X190089286Y-86560142D01*
X190089286Y-86631571D01*
X190125000Y-86738714D01*
X190160714Y-86774428D01*
X190839286Y-87202999D02*
X190803571Y-87131571D01*
X190767857Y-87095856D01*
X190696429Y-87060142D01*
X190482143Y-87060142D01*
X190410714Y-87095856D01*
X190375000Y-87131571D01*
X190339286Y-87202999D01*
X190339286Y-87310142D01*
X190375000Y-87381571D01*
X190410714Y-87417285D01*
X190482143Y-87452999D01*
X190696429Y-87452999D01*
X190767857Y-87417285D01*
X190803571Y-87381571D01*
X190839286Y-87310142D01*
X190839286Y-87202999D01*
X190339286Y-87774427D02*
X190839286Y-87774427D01*
X190410714Y-87774427D02*
X190375000Y-87810142D01*
X190339286Y-87881570D01*
X190339286Y-87988713D01*
X190375000Y-88060142D01*
X190446429Y-88095856D01*
X190839286Y-88095856D01*
X190339286Y-88345856D02*
X190339286Y-88631570D01*
X190089286Y-88452998D02*
X190732143Y-88452998D01*
X190803571Y-88488713D01*
X190839286Y-88560141D01*
X190839286Y-88631570D01*
X190803571Y-89167284D02*
X190839286Y-89095855D01*
X190839286Y-88952998D01*
X190803571Y-88881569D01*
X190732143Y-88845855D01*
X190446429Y-88845855D01*
X190375000Y-88881569D01*
X190339286Y-88952998D01*
X190339286Y-89095855D01*
X190375000Y-89167284D01*
X190446429Y-89202998D01*
X190517857Y-89202998D01*
X190589286Y-88845855D01*
X190839286Y-89452998D02*
X190339286Y-89845855D01*
X190339286Y-89452998D02*
X190839286Y-89845855D01*
X190339286Y-90024427D02*
X190339286Y-90310141D01*
X190089286Y-90131569D02*
X190732143Y-90131569D01*
X190803571Y-90167284D01*
X190839286Y-90238712D01*
X190839286Y-90310141D01*
X190339286Y-90881569D02*
X190839286Y-90881569D01*
X190339286Y-90560140D02*
X190732143Y-90560140D01*
X190803571Y-90595855D01*
X190839286Y-90667283D01*
X190839286Y-90774426D01*
X190803571Y-90845855D01*
X190767857Y-90881569D01*
X190839286Y-91560140D02*
X190446429Y-91560140D01*
X190375000Y-91524426D01*
X190339286Y-91452997D01*
X190339286Y-91310140D01*
X190375000Y-91238711D01*
X190803571Y-91560140D02*
X190839286Y-91488711D01*
X190839286Y-91310140D01*
X190803571Y-91238711D01*
X190732143Y-91202997D01*
X190660714Y-91202997D01*
X190589286Y-91238711D01*
X190553571Y-91310140D01*
X190553571Y-91488711D01*
X190517857Y-91560140D01*
X190839286Y-92024425D02*
X190803571Y-91952997D01*
X190732143Y-91917282D01*
X190089286Y-91917282D01*
X190446429Y-92310139D02*
X190446429Y-92560139D01*
X190839286Y-92667282D02*
X190839286Y-92310139D01*
X190089286Y-92310139D01*
X190089286Y-92667282D01*
X190839286Y-93095853D02*
X190803571Y-93024425D01*
X190732143Y-92988710D01*
X190089286Y-92988710D01*
X190803571Y-93667282D02*
X190839286Y-93595853D01*
X190839286Y-93452996D01*
X190803571Y-93381567D01*
X190732143Y-93345853D01*
X190446429Y-93345853D01*
X190375000Y-93381567D01*
X190339286Y-93452996D01*
X190339286Y-93595853D01*
X190375000Y-93667282D01*
X190446429Y-93702996D01*
X190517857Y-93702996D01*
X190589286Y-93345853D01*
X190803571Y-94345853D02*
X190839286Y-94274424D01*
X190839286Y-94131567D01*
X190803571Y-94060139D01*
X190767857Y-94024424D01*
X190696429Y-93988710D01*
X190482143Y-93988710D01*
X190410714Y-94024424D01*
X190375000Y-94060139D01*
X190339286Y-94131567D01*
X190339286Y-94274424D01*
X190375000Y-94345853D01*
X190339286Y-94560139D02*
X190339286Y-94845853D01*
X190089286Y-94667281D02*
X190732143Y-94667281D01*
X190803571Y-94702996D01*
X190839286Y-94774424D01*
X190839286Y-94845853D01*
X190839286Y-95095852D02*
X190339286Y-95095852D01*
X190482143Y-95095852D02*
X190410714Y-95131567D01*
X190375000Y-95167281D01*
X190339286Y-95238710D01*
X190339286Y-95310138D01*
X190839286Y-95667281D02*
X190803571Y-95595853D01*
X190767857Y-95560138D01*
X190696429Y-95524424D01*
X190482143Y-95524424D01*
X190410714Y-95560138D01*
X190375000Y-95595853D01*
X190339286Y-95667281D01*
X190339286Y-95774424D01*
X190375000Y-95845853D01*
X190410714Y-95881567D01*
X190482143Y-95917281D01*
X190696429Y-95917281D01*
X190767857Y-95881567D01*
X190803571Y-95845853D01*
X190839286Y-95774424D01*
X190839286Y-95667281D01*
X190339286Y-96238709D02*
X190839286Y-96238709D01*
X190410714Y-96238709D02*
X190375000Y-96274424D01*
X190339286Y-96345852D01*
X190339286Y-96452995D01*
X190375000Y-96524424D01*
X190446429Y-96560138D01*
X190839286Y-96560138D01*
X190839286Y-96917280D02*
X190339286Y-96917280D01*
X190089286Y-96917280D02*
X190125000Y-96881566D01*
X190160714Y-96917280D01*
X190125000Y-96952995D01*
X190089286Y-96917280D01*
X190160714Y-96917280D01*
X190803571Y-97595852D02*
X190839286Y-97524423D01*
X190839286Y-97381566D01*
X190803571Y-97310138D01*
X190767857Y-97274423D01*
X190696429Y-97238709D01*
X190482143Y-97238709D01*
X190410714Y-97274423D01*
X190375000Y-97310138D01*
X190339286Y-97381566D01*
X190339286Y-97524423D01*
X190375000Y-97595852D01*
X190803571Y-97881566D02*
X190839286Y-97952995D01*
X190839286Y-98095852D01*
X190803571Y-98167280D01*
X190732143Y-98202995D01*
X190696429Y-98202995D01*
X190625000Y-98167280D01*
X190589286Y-98095852D01*
X190589286Y-97988709D01*
X190553571Y-97917280D01*
X190482143Y-97881566D01*
X190446429Y-97881566D01*
X190375000Y-97917280D01*
X190339286Y-97988709D01*
X190339286Y-98095852D01*
X190375000Y-98167280D01*
X190767857Y-98524423D02*
X190803571Y-98560138D01*
X190839286Y-98524423D01*
X190803571Y-98488709D01*
X190767857Y-98524423D01*
X190839286Y-98524423D01*
X190339286Y-99202995D02*
X190946429Y-99202995D01*
X191017857Y-99167281D01*
X191053571Y-99131566D01*
X191089286Y-99060138D01*
X191089286Y-98952995D01*
X191053571Y-98881566D01*
X190803571Y-99202995D02*
X190839286Y-99131566D01*
X190839286Y-98988709D01*
X190803571Y-98917281D01*
X190767857Y-98881566D01*
X190696429Y-98845852D01*
X190482143Y-98845852D01*
X190410714Y-98881566D01*
X190375000Y-98917281D01*
X190339286Y-98988709D01*
X190339286Y-99131566D01*
X190375000Y-99202995D01*
X190839286Y-99560137D02*
X190339286Y-99560137D01*
X190089286Y-99560137D02*
X190125000Y-99524423D01*
X190160714Y-99560137D01*
X190125000Y-99595852D01*
X190089286Y-99560137D01*
X190160714Y-99560137D01*
X190339286Y-99810138D02*
X190339286Y-100095852D01*
X190089286Y-99917280D02*
X190732143Y-99917280D01*
X190803571Y-99952995D01*
X190839286Y-100024423D01*
X190839286Y-100095852D01*
D11*
X150781715Y-71481143D02*
X150996001Y-71409714D01*
X151067429Y-71338286D01*
X151138858Y-71195429D01*
X151138858Y-70981143D01*
X151067429Y-70838286D01*
X150996001Y-70766857D01*
X150853143Y-70695429D01*
X150281715Y-70695429D01*
X150281715Y-72195429D01*
X150781715Y-72195429D01*
X150924572Y-72124000D01*
X150996001Y-72052571D01*
X151067429Y-71909714D01*
X151067429Y-71766857D01*
X150996001Y-71624000D01*
X150924572Y-71552571D01*
X150781715Y-71481143D01*
X150281715Y-71481143D01*
X151781715Y-70695429D02*
X151781715Y-71695429D01*
X151781715Y-71409714D02*
X151853143Y-71552571D01*
X151924572Y-71624000D01*
X152067429Y-71695429D01*
X152210286Y-71695429D01*
X152924572Y-70695429D02*
X152781714Y-70766857D01*
X152710286Y-70838286D01*
X152638857Y-70981143D01*
X152638857Y-71409714D01*
X152710286Y-71552571D01*
X152781714Y-71624000D01*
X152924572Y-71695429D01*
X153138857Y-71695429D01*
X153281714Y-71624000D01*
X153353143Y-71552571D01*
X153424572Y-71409714D01*
X153424572Y-70981143D01*
X153353143Y-70838286D01*
X153281714Y-70766857D01*
X153138857Y-70695429D01*
X152924572Y-70695429D01*
X154281715Y-70695429D02*
X154138857Y-70766857D01*
X154067429Y-70838286D01*
X153996000Y-70981143D01*
X153996000Y-71409714D01*
X154067429Y-71552571D01*
X154138857Y-71624000D01*
X154281715Y-71695429D01*
X154496000Y-71695429D01*
X154638857Y-71624000D01*
X154710286Y-71552571D01*
X154781715Y-71409714D01*
X154781715Y-70981143D01*
X154710286Y-70838286D01*
X154638857Y-70766857D01*
X154496000Y-70695429D01*
X154281715Y-70695429D01*
X155424572Y-70695429D02*
X155424572Y-72195429D01*
X155567429Y-71266857D02*
X155996000Y-70695429D01*
X155996000Y-71695429D02*
X155424572Y-71124000D01*
X157210286Y-70766857D02*
X157067429Y-70695429D01*
X156781715Y-70695429D01*
X156638858Y-70766857D01*
X156567429Y-70909714D01*
X156567429Y-71481143D01*
X156638858Y-71624000D01*
X156781715Y-71695429D01*
X157067429Y-71695429D01*
X157210286Y-71624000D01*
X157281715Y-71481143D01*
X157281715Y-71338286D01*
X156567429Y-71195429D01*
X159067429Y-70695429D02*
X159067429Y-72195429D01*
X159067429Y-71481143D02*
X159924572Y-71481143D01*
X159924572Y-70695429D02*
X159924572Y-72195429D01*
X161210286Y-70766857D02*
X161067429Y-70695429D01*
X160781715Y-70695429D01*
X160638858Y-70766857D01*
X160567429Y-70909714D01*
X160567429Y-71481143D01*
X160638858Y-71624000D01*
X160781715Y-71695429D01*
X161067429Y-71695429D01*
X161210286Y-71624000D01*
X161281715Y-71481143D01*
X161281715Y-71338286D01*
X160567429Y-71195429D01*
X162567429Y-70695429D02*
X162567429Y-72195429D01*
X162567429Y-70766857D02*
X162424572Y-70695429D01*
X162138858Y-70695429D01*
X161996000Y-70766857D01*
X161924572Y-70838286D01*
X161853143Y-70981143D01*
X161853143Y-71409714D01*
X161924572Y-71552571D01*
X161996000Y-71624000D01*
X162138858Y-71695429D01*
X162424572Y-71695429D01*
X162567429Y-71624000D01*
X163281715Y-70695429D02*
X163281715Y-71695429D01*
X163281715Y-71409714D02*
X163353143Y-71552571D01*
X163424572Y-71624000D01*
X163567429Y-71695429D01*
X163710286Y-71695429D01*
X164210286Y-70695429D02*
X164210286Y-71695429D01*
X164210286Y-72195429D02*
X164138857Y-72124000D01*
X164210286Y-72052571D01*
X164281714Y-72124000D01*
X164210286Y-72195429D01*
X164210286Y-72052571D01*
X165567429Y-70766857D02*
X165424572Y-70695429D01*
X165138858Y-70695429D01*
X164996000Y-70766857D01*
X164924572Y-70838286D01*
X164853143Y-70981143D01*
X164853143Y-71409714D01*
X164924572Y-71552571D01*
X164996000Y-71624000D01*
X165138858Y-71695429D01*
X165424572Y-71695429D01*
X165567429Y-71624000D01*
X166210286Y-70695429D02*
X166210286Y-72195429D01*
X166353143Y-71266857D02*
X166781714Y-70695429D01*
X166781714Y-71695429D02*
X166210286Y-71124000D01*
D12*
X164758000Y-123690000D02*
X164758000Y-122690000D01*
X166458000Y-122690000D02*
X166458000Y-123690000D01*
X162140000Y-103640000D02*
X162140000Y-104640000D01*
X160440000Y-104640000D02*
X160440000Y-103640000D01*
X179074000Y-121692000D02*
X178074000Y-121692000D01*
X178074000Y-119992000D02*
X179074000Y-119992000D01*
X175014000Y-124372000D02*
X176014000Y-124372000D01*
X176014000Y-126072000D02*
X175014000Y-126072000D01*
X181234000Y-126047000D02*
X182434000Y-126047000D01*
X182434000Y-124297000D02*
X181234000Y-124297000D01*
X164125143Y-122130953D02*
X164172762Y-122083334D01*
X164220381Y-121940477D01*
X164220381Y-121845239D01*
X164172762Y-121702381D01*
X164077524Y-121607143D01*
X163982286Y-121559524D01*
X163791810Y-121511905D01*
X163648952Y-121511905D01*
X163458476Y-121559524D01*
X163363238Y-121607143D01*
X163268000Y-121702381D01*
X163220381Y-121845239D01*
X163220381Y-121940477D01*
X163268000Y-122083334D01*
X163315619Y-122130953D01*
X163315619Y-122511905D02*
X163268000Y-122559524D01*
X163220381Y-122654762D01*
X163220381Y-122892858D01*
X163268000Y-122988096D01*
X163315619Y-123035715D01*
X163410857Y-123083334D01*
X163506095Y-123083334D01*
X163648952Y-123035715D01*
X164220381Y-122464286D01*
X164220381Y-123083334D01*
X163220381Y-123702381D02*
X163220381Y-123797620D01*
X163268000Y-123892858D01*
X163315619Y-123940477D01*
X163410857Y-123988096D01*
X163601333Y-124035715D01*
X163839429Y-124035715D01*
X164029905Y-123988096D01*
X164125143Y-123940477D01*
X164172762Y-123892858D01*
X164220381Y-123797620D01*
X164220381Y-123702381D01*
X164172762Y-123607143D01*
X164125143Y-123559524D01*
X164029905Y-123511905D01*
X163839429Y-123464286D01*
X163601333Y-123464286D01*
X163410857Y-123511905D01*
X163315619Y-123559524D01*
X163268000Y-123607143D01*
X163220381Y-123702381D01*
X164220381Y-124988096D02*
X164220381Y-124416667D01*
X164220381Y-124702381D02*
X163220381Y-124702381D01*
X163363238Y-124607143D01*
X163458476Y-124511905D01*
X163506095Y-124416667D01*
X163451143Y-102912953D02*
X163498762Y-102865334D01*
X163546381Y-102722477D01*
X163546381Y-102627239D01*
X163498762Y-102484381D01*
X163403524Y-102389143D01*
X163308286Y-102341524D01*
X163117810Y-102293905D01*
X162974952Y-102293905D01*
X162784476Y-102341524D01*
X162689238Y-102389143D01*
X162594000Y-102484381D01*
X162546381Y-102627239D01*
X162546381Y-102722477D01*
X162594000Y-102865334D01*
X162641619Y-102912953D01*
X162546381Y-103246286D02*
X162546381Y-103865334D01*
X162927333Y-103532000D01*
X162927333Y-103674858D01*
X162974952Y-103770096D01*
X163022571Y-103817715D01*
X163117810Y-103865334D01*
X163355905Y-103865334D01*
X163451143Y-103817715D01*
X163498762Y-103770096D01*
X163546381Y-103674858D01*
X163546381Y-103389143D01*
X163498762Y-103293905D01*
X163451143Y-103246286D01*
X162546381Y-104484381D02*
X162546381Y-104579620D01*
X162594000Y-104674858D01*
X162641619Y-104722477D01*
X162736857Y-104770096D01*
X162927333Y-104817715D01*
X163165429Y-104817715D01*
X163355905Y-104770096D01*
X163451143Y-104722477D01*
X163498762Y-104674858D01*
X163546381Y-104579620D01*
X163546381Y-104484381D01*
X163498762Y-104389143D01*
X163451143Y-104341524D01*
X163355905Y-104293905D01*
X163165429Y-104246286D01*
X162927333Y-104246286D01*
X162736857Y-104293905D01*
X162641619Y-104341524D01*
X162594000Y-104389143D01*
X162546381Y-104484381D01*
X163546381Y-105770096D02*
X163546381Y-105198667D01*
X163546381Y-105484381D02*
X162546381Y-105484381D01*
X162689238Y-105389143D01*
X162784476Y-105293905D01*
X162832095Y-105198667D01*
X179933047Y-119315143D02*
X179980666Y-119362762D01*
X180123523Y-119410381D01*
X180218761Y-119410381D01*
X180361619Y-119362762D01*
X180456857Y-119267524D01*
X180504476Y-119172286D01*
X180552095Y-118981810D01*
X180552095Y-118838952D01*
X180504476Y-118648476D01*
X180456857Y-118553238D01*
X180361619Y-118458000D01*
X180218761Y-118410381D01*
X180123523Y-118410381D01*
X179980666Y-118458000D01*
X179933047Y-118505619D01*
X179075904Y-118743714D02*
X179075904Y-119410381D01*
X179314000Y-118362762D02*
X179552095Y-119077048D01*
X178933047Y-119077048D01*
X178361619Y-118410381D02*
X178266380Y-118410381D01*
X178171142Y-118458000D01*
X178123523Y-118505619D01*
X178075904Y-118600857D01*
X178028285Y-118791333D01*
X178028285Y-119029429D01*
X178075904Y-119219905D01*
X178123523Y-119315143D01*
X178171142Y-119362762D01*
X178266380Y-119410381D01*
X178361619Y-119410381D01*
X178456857Y-119362762D01*
X178504476Y-119315143D01*
X178552095Y-119219905D01*
X178599714Y-119029429D01*
X178599714Y-118791333D01*
X178552095Y-118600857D01*
X178504476Y-118505619D01*
X178456857Y-118458000D01*
X178361619Y-118410381D01*
X177075904Y-119410381D02*
X177647333Y-119410381D01*
X177361619Y-119410381D02*
X177361619Y-118410381D01*
X177456857Y-118553238D01*
X177552095Y-118648476D01*
X177647333Y-118696095D01*
X176511047Y-123843143D02*
X176558666Y-123890762D01*
X176701523Y-123938381D01*
X176796761Y-123938381D01*
X176939619Y-123890762D01*
X177034857Y-123795524D01*
X177082476Y-123700286D01*
X177130095Y-123509810D01*
X177130095Y-123366952D01*
X177082476Y-123176476D01*
X177034857Y-123081238D01*
X176939619Y-122986000D01*
X176796761Y-122938381D01*
X176701523Y-122938381D01*
X176558666Y-122986000D01*
X176511047Y-123033619D01*
X175653904Y-123271714D02*
X175653904Y-123938381D01*
X175892000Y-122890762D02*
X176130095Y-123605048D01*
X175511047Y-123605048D01*
X174939619Y-122938381D02*
X174844380Y-122938381D01*
X174749142Y-122986000D01*
X174701523Y-123033619D01*
X174653904Y-123128857D01*
X174606285Y-123319333D01*
X174606285Y-123557429D01*
X174653904Y-123747905D01*
X174701523Y-123843143D01*
X174749142Y-123890762D01*
X174844380Y-123938381D01*
X174939619Y-123938381D01*
X175034857Y-123890762D01*
X175082476Y-123843143D01*
X175130095Y-123747905D01*
X175177714Y-123557429D01*
X175177714Y-123319333D01*
X175130095Y-123128857D01*
X175082476Y-123033619D01*
X175034857Y-122986000D01*
X174939619Y-122938381D01*
X174225333Y-123033619D02*
X174177714Y-122986000D01*
X174082476Y-122938381D01*
X173844380Y-122938381D01*
X173749142Y-122986000D01*
X173701523Y-123033619D01*
X173653904Y-123128857D01*
X173653904Y-123224095D01*
X173701523Y-123366952D01*
X174272952Y-123938381D01*
X173653904Y-123938381D01*
X182983047Y-123896381D02*
X183316381Y-123420190D01*
X183554476Y-123896381D02*
X183554476Y-122896381D01*
X183173523Y-122896381D01*
X183078285Y-122944000D01*
X183030666Y-122991619D01*
X182983047Y-123086857D01*
X182983047Y-123229714D01*
X183030666Y-123324952D01*
X183078285Y-123372571D01*
X183173523Y-123420190D01*
X183554476Y-123420190D01*
X182125904Y-123229714D02*
X182125904Y-123896381D01*
X182364000Y-122848762D02*
X182602095Y-123563048D01*
X181983047Y-123563048D01*
X181411619Y-122896381D02*
X181316380Y-122896381D01*
X181221142Y-122944000D01*
X181173523Y-122991619D01*
X181125904Y-123086857D01*
X181078285Y-123277333D01*
X181078285Y-123515429D01*
X181125904Y-123705905D01*
X181173523Y-123801143D01*
X181221142Y-123848762D01*
X181316380Y-123896381D01*
X181411619Y-123896381D01*
X181506857Y-123848762D01*
X181554476Y-123801143D01*
X181602095Y-123705905D01*
X181649714Y-123515429D01*
X181649714Y-123277333D01*
X181602095Y-123086857D01*
X181554476Y-122991619D01*
X181506857Y-122944000D01*
X181411619Y-122896381D01*
X180744952Y-122896381D02*
X180125904Y-122896381D01*
X180459238Y-123277333D01*
X180316380Y-123277333D01*
X180221142Y-123324952D01*
X180173523Y-123372571D01*
X180125904Y-123467810D01*
X180125904Y-123705905D01*
X180173523Y-123801143D01*
X180221142Y-123848762D01*
X180316380Y-123896381D01*
X180602095Y-123896381D01*
X180697333Y-123848762D01*
X180744952Y-123801143D01*
%LPC*%
D13*
X165608000Y-121940000D03*
X165608000Y-124440000D03*
X161290000Y-105390000D03*
X161290000Y-102890000D03*
D14*
X177324000Y-120842000D03*
X179824000Y-120842000D03*
X176764000Y-125222000D03*
X174264000Y-125222000D03*
D15*
X170688000Y-84328000D03*
X168148000Y-84328000D03*
X173228000Y-84328000D03*
D16*
X178280000Y-94680000D03*
X163280000Y-94680000D03*
D17*
X183184000Y-125172000D03*
X180484000Y-125172000D03*
D18*
X157960000Y-80464000D03*
X157960000Y-80464000D03*
X183360000Y-80464000D03*
D19*
X187698000Y-112680000D03*
X187698000Y-107600000D03*
X187698000Y-101250000D03*
X187698000Y-96170000D03*
D20*
X180594000Y-103124000D03*
D21*
X180594000Y-105664000D03*
X180594000Y-108204000D03*
D22*
X173482000Y-91694000D03*
D23*
X170942000Y-91694000D03*
D22*
X173228000Y-88392000D03*
D23*
X175768000Y-88392000D03*
D24*
X152882000Y-104646000D03*
X152882000Y-109726000D03*
X155422000Y-107186000D03*
X152882000Y-118870000D03*
X152882000Y-123950000D03*
X155422000Y-121410000D03*
M02*
